<!-- Generator: Adobe Illustrator 21.1.0, SVG Export Plug-In  -->
<svg version="1.1"
	 xmlns="http://www.w3.org/2000/svg" xmlns:xlink="http://www.w3.org/1999/xlink" xmlns:a="http://ns.adobe.com/AdobeSVGViewerExtensions/3.0/"
	 x="0px" y="0px" width="490.012px" height="2419.923px" viewBox="0 0 490.012 2419.923"
	 style="enable-background:new 0 0 490.012 2419.923;" xml:space="preserve">
<style type="text/css">
	.st0{fill:none;stroke:#FFFFFF;stroke-width:3;stroke-miterlimit:10;}
</style>
<defs>
</defs>
<g>
	<path class="st0" d="M206.085,0.815c-231.999,358.184-228.979,569.894-173,700c57.11,132.736,166.647,174.269,216,371
		c41.465,165.288,9.803,317.976,0,363c-40.961,188.137-107.725,184.479-112,311c-5.16,152.685,90.739,197.402,138,415
		c23.43,107.875,22.24,199.926,18,259"/>
	<path class="st0" d="M254.335,0.815c-231.999,358.184-228.979,569.894-173,700c57.11,132.736,166.647,174.269,216,371
		c41.465,165.288,9.803,317.976,0,363c-40.961,188.137-107.725,184.479-112,311c-5.16,152.685,90.739,197.402,138,415
		c23.43,107.875,22.24,199.926,18,259"/>
	<path class="st0" d="M302.585,0.815c-231.999,358.184-228.979,569.894-173,700c57.11,132.736,166.647,174.269,216,371
		c41.465,165.288,9.803,317.976,0,363c-40.961,188.137-107.725,184.479-112,311c-5.16,152.685,90.739,197.402,138,415
		c23.43,107.875,22.24,199.926,18,259"/>
	<path class="st0" d="M350.835,0.815c-231.999,358.184-228.979,569.894-173,700c57.11,132.736,166.647,174.269,216,371
		c41.465,165.288,9.803,317.976,0,363c-40.961,188.137-107.725,184.479-112,311c-5.16,152.685,90.739,197.402,138,415
		c23.43,107.875,22.24,199.926,18,259"/>
	<path class="st0" d="M399.085,0.815c-231.999,358.184-228.979,569.894-173,700c57.11,132.736,166.647,174.269,216,371
		c41.465,165.288,9.803,317.976,0,363c-40.961,188.137-107.725,184.479-112,311c-5.16,152.685,90.739,197.402,138,415
		c23.43,107.875,22.24,199.926,18,259"/>
</g>
</svg>