<!-- Generator: Adobe Illustrator 21.1.0, SVG Export Plug-In  -->
<svg version="1.1"
	 xmlns="http://www.w3.org/2000/svg" xmlns:xlink="http://www.w3.org/1999/xlink" xmlns:a="http://ns.adobe.com/AdobeSVGViewerExtensions/3.0/"
	 x="0px" y="0px" width="11.906px" height="64.029px" viewBox="0 0 11.906 64.029"
	 style="enable-background:new 0 0 11.906 64.029;" xml:space="preserve">
<defs>
</defs>
<g>
	<g>
		<g>
			<rect x="10.167" y="0.005" transform="matrix(1 -0.0079 0.0079 1 -0.1231 0.0864)" width="1.481" height="31.342"/>
		</g>
	</g>
	<g>
		<ellipse transform="matrix(0.781 -0.6245 0.6245 0.781 -18.6197 10.7869)" cx="6.071" cy="31.944" rx="6.514" ry="4.571"/>
	</g>
</g>
<g>
	<path d="M2.119,58.642c0,0.183,0.052,0.312,0.157,0.39c0.104,0.077,0.234,0.107,0.39,0.089c0.565-0.046,1.135-0.123,1.709-0.232
		s1.167-0.265,1.777-0.465L6.18,58.82c-0.684,0.273-1.338,0.497-1.962,0.67c-0.625,0.173-1.251,0.31-1.88,0.41
		c-0.41,0.063-0.702,0.019-0.875-0.137c-0.173-0.155-0.26-0.442-0.26-0.861v-3.719c0-0.183-0.016-0.337-0.048-0.465
		c-0.032-0.128-0.091-0.239-0.178-0.335c-0.087-0.096-0.208-0.18-0.362-0.253C0.46,54.057,0.255,53.985,0,53.912l0.15-0.342
		c0.993,0.155,1.959,0.203,2.898,0.144c0.938-0.06,1.818-0.162,2.639-0.308l-0.164,0.793c-0.656-0.036-1.26-0.041-1.812-0.014
		c-0.552,0.027-1.083,0.063-1.593,0.109V58.642z M7.082,56.482c-0.456,0.019-0.9,0.046-1.333,0.082
		c-0.433,0.036-0.841,0.091-1.224,0.164l-0.383-0.807c0.146,0.036,0.344,0.064,0.595,0.082c0.25,0.019,0.494,0.023,0.731,0.014
		c0.246-0.009,0.526-0.016,0.841-0.021s0.572-0.012,0.772-0.021v-2.994c0-0.301-0.098-0.54-0.294-0.718
		c-0.196-0.178-0.563-0.337-1.101-0.478l0.164-0.377c0.446,0.055,0.843,0.114,1.189,0.178c0.346,0.063,0.702,0.142,1.066,0.232
		c-0.046,0.165-0.082,0.354-0.109,0.569s-0.041,0.414-0.041,0.597v6.586c0,0.282-0.007,0.602-0.021,0.957s-0.032,0.713-0.055,1.073
		c-0.023,0.36-0.048,0.706-0.075,1.039s-0.06,0.613-0.096,0.841L7.178,63.55c-0.019-0.173-0.032-0.376-0.041-0.608
		c-0.009-0.232-0.019-0.48-0.027-0.745c-0.009-0.265-0.016-0.535-0.021-0.813c-0.005-0.278-0.007-0.549-0.007-0.813V56.482z
		 M8.326,50.794c0.446,0.063,0.873,0.137,1.278,0.219c0.405,0.082,0.786,0.159,1.142,0.232c-0.037,0.164-0.068,0.351-0.096,0.561
		s-0.041,0.405-0.041,0.588v7.656c0,0.282-0.007,0.602-0.021,0.957s-0.03,0.713-0.048,1.073c-0.019,0.36-0.043,0.706-0.075,1.039
		c-0.032,0.333-0.066,0.613-0.103,0.841l-0.561,0.068c-0.019-0.173-0.032-0.378-0.041-0.615c-0.009-0.237-0.021-0.487-0.034-0.752
		S9.705,62.128,9.7,61.855c-0.005-0.273-0.007-0.542-0.007-0.807v-8.654c0-0.301-0.109-0.542-0.328-0.725s-0.615-0.349-1.189-0.498
		L8.326,50.794z"/>
</g>
</svg>