<!-- Generator: Adobe Illustrator 21.1.0, SVG Export Plug-In  -->
<svg version="1.1"
	 xmlns="http://www.w3.org/2000/svg" xmlns:xlink="http://www.w3.org/1999/xlink" xmlns:a="http://ns.adobe.com/AdobeSVGViewerExtensions/3.0/"
	 x="0px" y="0px" width="12.797px" height="63.906px" viewBox="0 0 12.797 63.906"
	 style="enable-background:new 0 0 12.797 63.906;" xml:space="preserve">
<defs>
</defs>
<g>
	<g>
		<g>
			<rect x="10.796" y="0.005" transform="matrix(1 -0.0079 0.0079 1 -0.1231 0.0913)" width="1.481" height="31.342"/>
		</g>
	</g>
	<g>
		<ellipse transform="matrix(0.781 -0.6245 0.6245 0.781 -18.482 11.1796)" cx="6.7" cy="31.944" rx="6.514" ry="4.571"/>
	</g>
</g>
<g>
	<path d="M4.949,55.949c0.474,0.355,0.966,0.679,1.477,0.971c0.51,0.292,1.062,0.556,1.654,0.793L7.328,58.41
		c-0.246-0.191-0.479-0.371-0.697-0.54s-0.438-0.34-0.656-0.513s-0.44-0.347-0.663-0.52c-0.224-0.173-0.463-0.355-0.718-0.547
		c-0.684,0.62-1.399,1.148-2.146,1.586C1.7,58.314,0.975,58.678,0.273,58.97L0,58.683c1.103-0.52,2.117-1.176,3.042-1.969
		c0.925-0.793,1.729-1.714,2.413-2.762c-0.137,0-0.303,0.005-0.499,0.014c-0.196,0.009-0.399,0.021-0.608,0.034
		c-0.21,0.014-0.413,0.025-0.608,0.034c-0.196,0.009-0.358,0.014-0.485,0.014c-0.101,0-0.228,0.007-0.383,0.021
		c-0.155,0.014-0.321,0.027-0.499,0.041s-0.358,0.032-0.54,0.055c-0.183,0.022-0.351,0.043-0.506,0.062l-0.533-0.834
		c0.237,0.046,0.533,0.08,0.889,0.103s0.684,0.034,0.984,0.034c0.684,0.009,1.372-0.012,2.064-0.062
		c0.692-0.05,1.294-0.139,1.805-0.267l0.328,0.314c-0.265,0.465-0.559,0.9-0.882,1.306C5.658,55.226,5.313,55.602,4.949,55.949z
		 M5.674,52.285c-0.319-0.009-0.636-0.007-0.95,0.007s-0.595,0.021-0.841,0.021c-0.064,0-0.148,0.002-0.253,0.007
		c-0.105,0.005-0.221,0.009-0.349,0.014c-0.128,0.005-0.26,0.014-0.396,0.027s-0.265,0.029-0.383,0.048l-0.41-0.82
		c0.219,0.055,0.472,0.104,0.759,0.15s0.572,0.068,0.854,0.068c0.228,0,0.535-0.016,0.923-0.048c0.387-0.032,0.8-0.075,1.237-0.13
		L5.674,52.285z M7.67,59.435c0.355,0.027,0.686,0.104,0.991,0.232c0.305,0.128,0.569,0.292,0.793,0.492
		c0.223,0.2,0.396,0.429,0.52,0.684s0.185,0.533,0.185,0.834c0,0.319-0.073,0.615-0.219,0.889c-0.146,0.273-0.349,0.508-0.608,0.704
		s-0.563,0.351-0.909,0.465c-0.347,0.114-0.725,0.171-1.135,0.171s-0.791-0.057-1.142-0.171c-0.351-0.114-0.652-0.269-0.902-0.465
		c-0.251-0.196-0.449-0.431-0.595-0.704c-0.146-0.273-0.219-0.569-0.219-0.889c0-0.301,0.066-0.586,0.198-0.854
		c0.132-0.269,0.314-0.504,0.547-0.704s0.508-0.362,0.827-0.485c0.319-0.123,0.665-0.193,1.039-0.212
		c-0.019-0.101-0.071-0.185-0.157-0.253c-0.087-0.068-0.23-0.13-0.431-0.185l0.137-0.26c0.209,0.046,0.412,0.084,0.608,0.116
		c0.196,0.032,0.408,0.07,0.636,0.116C7.77,59.093,7.715,59.252,7.67,59.435z M9.16,61.609c0-0.246-0.048-0.477-0.144-0.69
		s-0.228-0.401-0.396-0.561c-0.169-0.159-0.369-0.285-0.602-0.376s-0.481-0.137-0.745-0.137c-0.265,0-0.513,0.046-0.745,0.137
		s-0.433,0.217-0.602,0.376c-0.169,0.159-0.301,0.347-0.396,0.561s-0.144,0.444-0.144,0.69s0.048,0.474,0.144,0.684
		s0.228,0.392,0.396,0.547c0.168,0.155,0.369,0.278,0.602,0.369s0.48,0.137,0.745,0.137c0.273,0,0.524-0.046,0.752-0.137
		c0.228-0.091,0.426-0.214,0.595-0.369c0.168-0.155,0.301-0.337,0.396-0.547S9.16,61.855,9.16,61.609z M10.076,56.919
		c0,0.164-0.007,0.354-0.021,0.567s-0.032,0.429-0.055,0.643c-0.023,0.214-0.048,0.415-0.075,0.602s-0.055,0.34-0.082,0.458
		l-0.602,0.082c-0.027-0.2-0.05-0.456-0.068-0.766c-0.019-0.31-0.027-0.593-0.027-0.848v-5.264c0-0.31-0.139-0.556-0.417-0.738
		c-0.278-0.183-0.709-0.344-1.292-0.484l0.164-0.377c0.456,0.055,0.916,0.125,1.381,0.212s0.875,0.166,1.23,0.239
		c-0.037,0.164-0.068,0.351-0.096,0.561s-0.041,0.405-0.041,0.588v3.227c0.374-0.019,0.797-0.053,1.271-0.103
		c0.474-0.05,0.957-0.111,1.449-0.185l-0.137,0.834c-0.191-0.009-0.399-0.014-0.622-0.014c-0.224,0-0.451,0-0.684,0
		s-0.458,0.002-0.677,0.007s-0.419,0.007-0.602,0.007V56.919z"/>
</g>
</svg>