<!-- Generator: Adobe Illustrator 21.1.0, SVG Export Plug-In  -->
<svg version="1.1"
	 xmlns="http://www.w3.org/2000/svg" xmlns:xlink="http://www.w3.org/1999/xlink" xmlns:a="http://ns.adobe.com/AdobeSVGViewerExtensions/3.0/"
	 x="0px" y="0px" width="550.905px" height="2753.909px" viewBox="0 0 550.905 2753.909"
	 style="enable-background:new 0 0 550.905 2753.909;" xml:space="preserve">
<style type="text/css">
	.st0{fill:none;stroke:#FFFFFF;stroke-width:3;stroke-miterlimit:10;}
</style>
<defs>
</defs>
<g>
	<path class="st0" d="M366.789,1.002c-59.462,66.233-129.067,166.881-132,292c-2.818,120.206,58.398,156.584,94,339
		c25.342,129.85,49.19,252.044-9,357c-78.41,141.424-219.663,96.23-292,236c-41.654,80.482-27.769,172.655,0,357
		c5.449,36.172,22.528,140.969,66,273c41.376,125.667,98.277,250.543,160,386c42.287,92.803,50.87,106.611,56,142
		c17.812,122.882-45.422,234.114-103,310"/>
	<path class="st0" d="M412.539,16.002c-59.462,66.233-129.067,166.881-132,292c-2.818,120.206,58.398,156.584,94,339
		c25.342,129.85,49.19,252.044-9,357c-78.41,141.424-219.663,96.23-292,236c-41.654,80.482-27.769,172.655,0,357
		c5.449,36.172,22.528,140.969,66,273c41.376,125.667,98.277,250.543,160,386c42.287,92.803,50.87,106.611,56,142
		c17.812,122.882-45.422,234.114-103,310"/>
	<path class="st0" d="M458.289,31.002c-59.462,66.233-129.067,166.881-132,292c-2.818,120.206,58.398,156.584,94,339
		c25.342,129.85,49.19,252.044-9,357c-78.41,141.424-219.663,96.23-292,236c-41.654,80.482-27.769,172.655,0,357
		c5.449,36.172,22.528,140.969,66,273c41.376,125.667,98.277,250.543,160,386c42.287,92.803,50.87,106.611,56,142
		c17.812,122.882-45.422,234.114-103,310"/>
	<path class="st0" d="M504.039,46.002c-59.462,66.233-129.067,166.881-132,292c-2.818,120.206,58.398,156.584,94,339
		c25.342,129.85,49.19,252.044-9,357c-78.41,141.424-219.663,96.23-292,236c-41.654,80.482-27.769,172.655,0,357
		c5.449,36.172,22.528,140.969,66,273c41.376,125.667,98.277,250.543,160,386c42.287,92.803,50.87,106.611,56,142
		c17.812,122.882-45.422,234.114-103,310"/>
	<path class="st0" d="M549.789,61.002c-59.462,66.233-129.067,166.881-132,292c-2.818,120.206,58.398,156.584,94,339
		c25.342,129.85,49.19,252.044-9,357c-78.41,141.424-219.663,96.23-292,236c-41.654,80.482-27.769,172.655,0,357
		c5.449,36.172,22.528,140.969,66,273c41.376,125.667,98.277,250.543,160,386c42.287,92.803,50.87,106.611,56,142
		c17.812,122.882-45.422,234.114-103,310"/>
</g>
</svg>