<!-- Generator: Adobe Illustrator 21.1.0, SVG Export Plug-In  -->
<svg version="1.1"
	 xmlns="http://www.w3.org/2000/svg" xmlns:xlink="http://www.w3.org/1999/xlink" xmlns:a="http://ns.adobe.com/AdobeSVGViewerExtensions/3.0/"
	 x="0px" y="0px" width="11.988px" height="63.677px" viewBox="0 0 11.988 63.677"
	 style="enable-background:new 0 0 11.988 63.677;" xml:space="preserve">
<defs>
</defs>
<g>
	<g>
		<g>
			<rect x="10.249" y="0.005" transform="matrix(1 -0.0079 0.0079 1 -0.1231 0.087)" width="1.481" height="31.342"/>
		</g>
	</g>
	<g>
		<ellipse transform="matrix(0.781 -0.6245 0.6245 0.781 -18.6017 10.8381)" cx="6.154" cy="31.944" rx="6.514" ry="4.571"/>
	</g>
</g>
<g>
	<path d="M6.795,52.449c-0.255,0.675-0.615,1.338-1.08,1.989s-0.991,1.258-1.579,1.818s-1.217,1.062-1.887,1.504
		s-1.333,0.795-1.989,1.06L0,58.533c0.574-0.273,1.137-0.606,1.688-0.998c0.551-0.392,1.068-0.827,1.552-1.306
		c0.483-0.479,0.916-0.993,1.299-1.545s0.688-1.114,0.916-1.688c-0.201,0-0.422,0.002-0.663,0.007
		c-0.242,0.005-0.479,0.012-0.711,0.021s-0.442,0.019-0.629,0.027c-0.187,0.009-0.326,0.019-0.417,0.027
		c-0.091,0.009-0.217,0.019-0.376,0.027c-0.16,0.009-0.328,0.022-0.506,0.041s-0.358,0.039-0.54,0.062
		c-0.183,0.022-0.342,0.048-0.479,0.075l-0.533-0.861c0.1,0.019,0.23,0.034,0.39,0.048c0.159,0.014,0.328,0.027,0.506,0.041
		s0.355,0.025,0.533,0.034s0.344,0.014,0.499,0.014c0.383,0,0.774-0.009,1.176-0.027c0.401-0.019,0.779-0.041,1.135-0.068
		s0.674-0.062,0.957-0.103c0.282-0.041,0.501-0.084,0.656-0.13L6.795,52.449z M9.174,58.902c-0.228-0.009-0.508-0.014-0.841-0.014
		c-0.333,0-0.677,0.005-1.032,0.014s-0.702,0.021-1.039,0.034C5.924,58.95,5.637,58.965,5.4,58.984
		c-0.101,0.009-0.226,0.019-0.376,0.027s-0.312,0.021-0.485,0.034c-0.173,0.014-0.354,0.032-0.54,0.055
		c-0.187,0.022-0.367,0.053-0.54,0.089l-0.465-0.848c0.209,0.046,0.492,0.084,0.848,0.116s0.679,0.048,0.971,0.048
		c0.355,0,0.756,0,1.203,0c0.446,0,0.911-0.007,1.395-0.021c0.483-0.014,0.973-0.032,1.47-0.055
		c0.497-0.022,0.968-0.053,1.415-0.089c-0.027,0.082-0.057,0.21-0.089,0.383c-0.032,0.173-0.062,0.347-0.089,0.52l-0.205,1.312
		c0.073-0.009,0.139-0.016,0.198-0.021c0.059-0.005,0.116-0.012,0.171-0.021l-0.068,0.656c-0.529-0.027-1.069-0.041-1.62-0.041
		c-0.552,0-1.078,0.007-1.579,0.021c-0.501,0.014-0.957,0.029-1.367,0.048s-0.729,0.032-0.957,0.041
		c-0.009,0.082-0.016,0.173-0.021,0.273c-0.005,0.101-0.007,0.187-0.007,0.26v0.93c0,0.155,0.032,0.258,0.096,0.308
		c0.063,0.05,0.219,0.08,0.465,0.089c0.337,0.009,0.752,0.009,1.244,0s1.002-0.029,1.531-0.062c0.528-0.032,1.048-0.07,1.559-0.116
		c0.51-0.046,0.961-0.101,1.354-0.164l-0.191,0.848c-0.511-0.019-1.046-0.029-1.606-0.034s-1.119-0.002-1.675,0.007
		c-0.556,0.009-1.094,0.022-1.613,0.041s-0.989,0.036-1.408,0.055c-0.237,0.019-0.408-0.039-0.513-0.171
		C3.798,63.371,3.746,63.2,3.746,62.99v-0.984c0-0.173-0.012-0.316-0.034-0.431c-0.023-0.114-0.068-0.21-0.137-0.287
		s-0.167-0.144-0.294-0.198c-0.128-0.055-0.301-0.118-0.52-0.191l0.15-0.301c0.492,0.055,1.009,0.091,1.552,0.109
		c0.542,0.019,1.084,0.025,1.627,0.021c0.542-0.005,1.073-0.019,1.593-0.041s1.002-0.048,1.449-0.075L9.174,58.902z M9.393,55.511
		c-0.602,0.019-1.196,0.043-1.784,0.075s-1.087,0.089-1.497,0.171l-0.369-0.807c0.182,0.036,0.424,0.063,0.725,0.082
		s0.588,0.022,0.861,0.014c0.173,0,0.362-0.002,0.567-0.007s0.401-0.012,0.588-0.021c0.187-0.009,0.36-0.016,0.52-0.021
		c0.159-0.005,0.289-0.016,0.39-0.034v-2.57c0-0.31-0.139-0.556-0.417-0.738c-0.278-0.183-0.709-0.344-1.292-0.484l0.15-0.377
		c0.465,0.055,0.927,0.125,1.388,0.212c0.46,0.087,0.868,0.166,1.224,0.239c-0.037,0.164-0.068,0.351-0.096,0.561
		s-0.041,0.405-0.041,0.588v3.145c0,0.164-0.007,0.354-0.021,0.567s-0.032,0.429-0.055,0.643c-0.023,0.214-0.046,0.415-0.068,0.602
		c-0.023,0.187-0.048,0.34-0.075,0.458L9.488,57.89c-0.027-0.191-0.05-0.444-0.068-0.759c-0.019-0.314-0.027-0.595-0.027-0.841
		V55.511z"/>
</g>
</svg>