<!-- Generator: Adobe Illustrator 21.1.0, SVG Export Plug-In  -->
<svg version="1.1"
	 xmlns="http://www.w3.org/2000/svg" xmlns:xlink="http://www.w3.org/1999/xlink" xmlns:a="http://ns.adobe.com/AdobeSVGViewerExtensions/3.0/"
	 x="0px" y="0px" width="52.803px" height="158.861px" viewBox="0 0 52.803 158.861"
	 style="enable-background:new 0 0 52.803 158.861;" xml:space="preserve">
<defs>
</defs>
<g>
	<path d="M8.461,158.308c-2.995-2.395-5.151-4.961-6.475-7.701S0,145.013,0,142.043c0-3.155,0.701-6.142,2.107-8.962
		c1.404-2.819,3.463-5.232,6.182-7.235l0.587,0.691c-1.105,0.92-2.077,1.986-2.918,3.194s-1.537,2.491-2.089,3.851
		c-0.553,1.359-0.972,2.763-1.26,4.213c-0.289,1.45-0.432,2.866-0.432,4.248c0,2.832,0.548,5.577,1.64,8.236
		c1.093,2.659,2.837,5.081,5.232,7.269L8.461,158.308z"/>
	<path d="M17.371,138.797c-1.014,1.105-2.097,2.129-3.246,3.074c-1.152,0.945-2.338,1.783-3.557,2.521l-0.656-0.587
		c2.21-1.497,4.144-3.31,5.802-5.439s2.911-4.381,3.764-6.751c-0.577,0.022-1.088,0.047-1.537,0.069s-0.95,0.057-1.502,0.104
		c-0.461,0.047-1.006,0.104-1.64,0.173c-0.634,0.069-1.273,0.173-1.917,0.311l-1.036-2.038c0.528,0.116,1.08,0.195,1.658,0.242
		c0.575,0.047,1.174,0.081,1.796,0.104c1.219,0.022,2.331-0.03,3.333-0.155s2.03-0.34,3.091-0.639l0.691,0.587
		c0.252,0.022,0.471,0.039,0.656,0.052c0.183,0.012,0.368,0.017,0.553,0.017c1.036,0,2.047-0.047,3.039-0.138
		c0.989-0.091,2.025-0.289,3.108-0.587l0.794,0.691c-0.439,1.381-1.001,2.716-1.692,4.006s-1.485,2.533-2.383,3.73
		c0.804,0.876,1.756,1.727,2.849,2.556c1.093,0.829,2.124,1.532,3.091,2.107l-1.796,1.692c-0.829-0.967-1.653-1.899-2.469-2.797
		s-1.618-1.774-2.4-2.625c-1.13,1.45-2.348,2.78-3.661,3.989s-2.659,2.274-4.04,3.194l-0.656-0.553
		c0.597-0.483,1.162-0.979,1.692-1.485c0.528-0.506,1.036-1.014,1.52-1.52c-0.53-0.691-1.075-1.364-1.64-2.02
		C18.412,140.022,17.876,139.396,17.371,138.797z M19.719,147.914c1.196,0,2.556-0.017,4.075-0.052s3.034-0.086,4.541-0.155
		c1.507-0.069,2.94-0.143,4.3-0.224c1.357-0.081,2.486-0.168,3.384-0.259c-0.069,0.575-0.116,0.989-0.138,1.243
		c-0.025,0.254-0.035,0.565-0.035,0.932v4.42c0,0.345-0.017,0.742-0.052,1.191s-0.076,0.898-0.121,1.347
		c-0.047,0.449-0.104,0.876-0.173,1.278c-0.069,0.402-0.138,0.72-0.207,0.95l-1.52,0.276c-0.094-0.575-0.168-1.273-0.224-2.089
		c-0.057-0.816-0.086-1.537-0.086-2.158v-5.767c-0.898-0.022-1.904-0.03-3.022-0.017c-1.117,0.012-2.257,0.047-3.419,0.104
		c-1.162,0.057-2.309,0.116-3.436,0.173c-1.13,0.057-2.141,0.121-3.039,0.19c-0.738,0.047-1.399,0.104-1.986,0.173
		c-0.587,0.069-1.26,0.16-2.02,0.276l-1.036-2.141c0.666,0.091,1.364,0.168,2.089,0.224S19.028,147.914,19.719,147.914z
		 M18.096,137.968c0.644,0.691,1.265,1.3,1.865,1.83c0.597,0.53,1.265,1.001,2.003,1.416c1.288-1.52,2.393-3.096,3.315-4.731
		c0.92-1.635,1.645-3.315,2.176-5.042c-0.577,0.022-1.13,0.057-1.658,0.104c-0.53,0.047-1.071,0.091-1.623,0.138
		c-0.461,0.047-0.863,0.086-1.209,0.121c-0.345,0.035-0.715,0.099-1.105,0.19v-0.035c-0.461,1.105-1.014,2.158-1.658,3.16
		C19.556,136.12,18.856,137.07,18.096,137.968z M36.088,140.143c0,0.414-0.017,0.893-0.052,1.433
		c-0.035,0.54-0.081,1.083-0.138,1.623c-0.057,0.54-0.116,1.048-0.173,1.52s-0.121,0.858-0.19,1.157l-1.52,0.207
		c-0.069-0.506-0.128-1.152-0.173-1.934c-0.047-0.782-0.069-1.497-0.069-2.141v-12.191c0-0.782-0.35-1.404-1.053-1.865
		s-1.791-0.868-3.263-1.223l0.38-0.952c1.149,0.138,2.314,0.316,3.488,0.535c1.174,0.22,2.21,0.419,3.108,0.604
		c-0.094,0.414-0.173,0.886-0.242,1.416c-0.069,0.53-0.104,1.024-0.104,1.485v7.425c0.942-0.047,1.998-0.133,3.16-0.259
		c1.162-0.126,2.331-0.294,3.505-0.501l-0.345,2.141c-0.461-0.022-0.957-0.035-1.485-0.035c-0.53,0-1.075,0-1.64,0
		s-1.122,0.005-1.675,0.017c-0.553,0.012-1.061,0.017-1.52,0.017V140.143z"/>
	<path d="M43.789,157.549c2.371-2.188,4.105-4.61,5.197-7.269c1.093-2.659,1.64-5.405,1.64-8.236c0-1.381-0.143-2.797-0.432-4.248
		c-0.289-1.45-0.708-2.854-1.26-4.213c-0.553-1.359-1.248-2.642-2.089-3.851c-0.841-1.209-1.813-2.274-2.918-3.194l0.587-0.691
		c2.716,2.003,4.776,4.415,6.182,7.235c1.404,2.819,2.107,5.807,2.107,8.962c0,2.97-0.661,5.824-1.986,8.564
		c-1.325,2.741-3.483,5.306-6.475,7.701L43.789,157.549z"/>
</g>
<g>
	<g>
		<polygon points="34.525,67.849 33.901,0.025 37.641,0 38.265,67.824 		"/>
	</g>
</g>
<rect x="23.168" y="60.736" transform="matrix(0.7071 -0.7071 0.7071 0.7071 -47.4245 40.3913)" width="3.753" height="33.412"/>
<rect x="23.168" y="60.736" transform="matrix(-0.7071 -0.7071 0.7071 -0.7071 -12.0064 149.9109)" width="3.753" height="33.412"/>
</svg>