<!-- Generator: Adobe Illustrator 21.1.0, SVG Export Plug-In  -->
<svg version="1.1"
	 xmlns="http://www.w3.org/2000/svg" xmlns:xlink="http://www.w3.org/1999/xlink" xmlns:a="http://ns.adobe.com/AdobeSVGViewerExtensions/3.0/"
	 x="0px" y="0px" width="20.604px" height="73.059px" viewBox="0 0 20.604 73.059"
	 style="enable-background:new 0 0 20.604 73.059;" xml:space="preserve">
<defs>
</defs>
<g>
	<g>
		<polygon points="10.988,40.491 10.741,0.015 12.222,0 12.469,40.477 		"/>
	</g>
</g>
<g>
	<ellipse transform="matrix(0.781 -0.6245 0.6245 0.781 -24.1745 13.2237)" cx="6.769" cy="41.083" rx="6.514" ry="4.571"/>
</g>
<g>
	<path d="M12.674,67.234c-0.365-0.019-0.813-0.032-1.347-0.041c-0.533-0.01-1.11-0.023-1.729-0.043
		c-0.255,0-0.583,0.003-0.984,0.008c-0.401,0.004-0.836,0.014-1.306,0.028c-0.47,0.014-0.95,0.027-1.442,0.041
		s-0.962,0.027-1.408,0.041c-0.447,0.014-0.848,0.029-1.203,0.048s-0.625,0.032-0.807,0.041c-0.355,0.019-0.709,0.041-1.06,0.068
		c-0.351,0.027-0.695,0.063-1.032,0.109L0,66.578c0.428,0.046,0.834,0.08,1.217,0.103c0.383,0.023,0.788,0.044,1.217,0.062
		c0.228,0.01,0.528,0.015,0.902,0.015c0.374,0,0.781-0.003,1.224-0.008c0.442-0.004,0.902-0.014,1.381-0.027
		c0.479-0.015,0.938-0.026,1.381-0.035c0.442-0.009,0.848-0.021,1.217-0.034s0.667-0.025,0.896-0.034
		c0.629-0.036,1.226-0.077,1.791-0.123c0.565-0.046,1.094-0.104,1.586-0.178L12.674,67.234z M9.078,61.123
		c-0.228-0.009-0.545-0.014-0.95-0.014c-0.406,0-0.832,0.005-1.278,0.014c-0.447,0.009-0.875,0.021-1.285,0.034
		s-0.734,0.029-0.971,0.048c-0.101,0.009-0.224,0.019-0.369,0.027c-0.146,0.009-0.306,0.021-0.479,0.034
		c-0.173,0.014-0.354,0.032-0.54,0.055c-0.187,0.022-0.367,0.053-0.54,0.089l-0.479-0.861c0.109,0.019,0.237,0.039,0.383,0.062
		c0.146,0.022,0.301,0.043,0.465,0.062s0.33,0.032,0.499,0.041c0.168,0.009,0.326,0.014,0.472,0.014
		c0.355,0.009,0.795,0.012,1.319,0.007c0.524-0.005,1.075-0.014,1.654-0.027c0.579-0.014,1.153-0.032,1.723-0.055
		c0.569-0.022,1.078-0.053,1.524-0.089c-0.027,0.082-0.057,0.21-0.089,0.383c-0.032,0.173-0.062,0.347-0.089,0.52L9.83,62.559
		c0.082-0.009,0.152-0.014,0.212-0.014c0.059,0,0.116-0.005,0.171-0.014l-0.068,0.656c-0.529-0.027-1.103-0.041-1.723-0.041
		c-0.62,0-1.222,0.007-1.805,0.021c-0.583,0.014-1.114,0.029-1.593,0.048s-0.836,0.032-1.073,0.041
		c-0.009,0.082-0.016,0.173-0.021,0.273c-0.005,0.101-0.007,0.187-0.007,0.26v0.602c0,0.155,0.036,0.258,0.109,0.308
		c0.073,0.05,0.228,0.08,0.465,0.089c0.228,0.009,0.501,0.014,0.82,0.014c0.319,0,0.663-0.007,1.032-0.021s0.752-0.032,1.148-0.055
		s0.784-0.048,1.162-0.075c0.378-0.027,0.738-0.057,1.08-0.089s0.645-0.07,0.909-0.116l-0.205,0.848
		c-0.501-0.019-1.058-0.029-1.668-0.034c-0.611-0.005-1.224-0.002-1.839,0.007s-1.208,0.022-1.777,0.041
		c-0.57,0.019-1.064,0.036-1.483,0.055C3.44,65.38,3.27,65.322,3.165,65.19c-0.105-0.132-0.157-0.303-0.157-0.513v-0.656
		c0-0.173-0.012-0.316-0.034-0.431c-0.023-0.114-0.068-0.21-0.137-0.287s-0.169-0.144-0.301-0.198
		c-0.132-0.055-0.303-0.118-0.513-0.191l0.137-0.301c0.501,0.055,1.05,0.091,1.647,0.109c0.597,0.019,1.203,0.025,1.818,0.021
		s1.217-0.019,1.805-0.041s1.123-0.048,1.606-0.075L9.078,61.123z M9.762,71.717c0.1-0.019,0.196-0.03,0.287-0.034
		c0.091-0.005,0.173-0.012,0.246-0.021l-0.178,0.769c-0.374-0.027-0.805-0.048-1.292-0.062c-0.488-0.014-0.994-0.021-1.518-0.021
		c-0.524,0-1.039,0.005-1.545,0.014s-0.959,0.022-1.36,0.041c-0.019,0.21-0.046,0.396-0.082,0.561l-0.533,0.096
		c-0.046-0.173-0.08-0.379-0.103-0.615c-0.023-0.238-0.043-0.476-0.062-0.713l-0.178-1.798c-0.019-0.174-0.041-0.315-0.068-0.426
		c-0.027-0.109-0.071-0.198-0.13-0.268c-0.06-0.068-0.148-0.126-0.267-0.171c-0.119-0.046-0.273-0.097-0.465-0.151l0.15-0.356
		c1.185,0.137,2.42,0.189,3.705,0.157s2.552-0.098,3.801-0.198c-0.073,0.521-0.148,1.067-0.226,1.64
		C9.869,70.73,9.807,71.25,9.762,71.717z M9.092,69.203c-0.292-0.009-0.652-0.016-1.08-0.021c-0.429-0.005-0.868-0.002-1.319,0.007
		c-0.451,0.01-0.884,0.021-1.299,0.034c-0.415,0.014-0.75,0.03-1.005,0.048l0.055,2.199v0.426c0.346,0,0.715-0.002,1.107-0.007
		c0.392-0.005,0.788-0.014,1.189-0.027c0.401-0.014,0.795-0.027,1.183-0.041c0.387-0.014,0.754-0.034,1.101-0.062L9.092,69.203z"/>
</g>
<path d="M12.256,9c0,0,2.084,6.349,4.267,8.966c2.743,3.287,4.572,6.575,3.963,9.862S17.133,35,17.133,35s2.896-4.931,2.286-7.92
	s-3.895-6.362-5.03-7.92c-1.524-2.092-2.286-3.736-2.286-3.736L12.256,9z"/>
<path d="M12.256,0c0,0,2.084,6.349,4.267,8.966c2.743,3.287,4.572,6.575,3.963,9.862S17.133,26,17.133,26s2.896-4.931,2.286-7.92
	s-3.895-6.362-5.03-7.92c-1.524-2.092-2.286-3.736-2.286-3.736L12.256,0z"/>
</svg>