<!-- Generator: Adobe Illustrator 21.1.0, SVG Export Plug-In  -->
<svg version="1.1"
	 xmlns="http://www.w3.org/2000/svg" xmlns:xlink="http://www.w3.org/1999/xlink" xmlns:a="http://ns.adobe.com/AdobeSVGViewerExtensions/3.0/"
	 x="0px" y="0px" width="420.822px" height="83.608px" viewBox="0 0 420.822 83.608"
	 style="enable-background:new 0 0 420.822 83.608;" xml:space="preserve">
<defs>
</defs>
<g>
	<path d="M36.663,5.984h4.888L37.59,25.622h10.62l-0.591,3.287H37l-3.54,17.868h11.463l-0.843,3.118H32.786l-4.13,20.902h-5.058
		l4.215-20.902h-11.8l-4.299,20.902H6.489l4.468-20.902H0l0.759-3.118h10.788l3.708-17.868h-11.8l0.675-3.287h11.8l4.13-19.638
		h5.057L21.07,25.622h11.631L36.663,5.984z M20.312,28.909l-3.624,17.868h11.8l3.624-17.868H20.312z"/>
	<path d="M80.827,37.675c1.235,1.348,2.57,2.738,4.003,4.172c1.433,1.433,2.894,2.838,4.383,4.214
		c1.488,1.377,2.936,2.669,4.341,3.877c1.403,1.209,2.752,2.233,4.045,3.076l-4.635,4.13c-2.36-2.865-4.636-5.702-6.827-8.513
		c-2.191-2.809-4.523-5.731-6.995-8.765c-3.147,4.271-6.604,8.147-10.367,11.631c-3.765,3.484-7.754,6.63-11.968,9.439l-1.771-1.518
		c3.54-2.64,6.827-5.521,9.861-8.639s5.744-6.391,8.133-9.819c2.388-3.426,4.468-6.938,6.237-10.535
		c1.77-3.595,3.188-7.191,4.256-10.788c-0.843,0-1.756,0.015-2.738,0.042c-0.984,0.029-1.995,0.057-3.034,0.085
		c-1.041,0.028-2.052,0.057-3.034,0.084c-0.984,0.029-1.869,0.071-2.655,0.126c-0.619,0.057-1.378,0.127-2.275,0.211
		c-0.899,0.085-1.842,0.184-2.824,0.295c-0.983,0.113-1.98,0.24-2.991,0.38c-1.012,0.141-1.968,0.295-2.866,0.463l-3.202-5.226
		c1.572,0.282,3.272,0.493,5.099,0.633c1.825,0.141,3.666,0.21,5.521,0.21c4.157,0.057,7.839-0.069,11.041-0.379
		c3.203-0.308,6.434-0.855,9.692-1.644l1.938,1.854c-1.236,3.877-2.726,7.53-4.467,10.957
		C84.984,31.157,83.019,34.472,80.827,37.675z M106.027,35.651c1.18,0,2.219-0.013,3.118-0.042c0.898-0.027,1.783-0.056,2.655-0.084
		c0.87-0.028,1.755-0.098,2.655-0.211c0.897-0.112,1.909-0.253,3.034-0.422V9.861c0-1.854-0.689-3.343-2.065-4.467
		c-1.378-1.124-3.835-2.146-7.375-3.071L108.978,0c2.809,0.394,5.449,0.843,7.922,1.349s4.805,0.983,6.996,1.433
		c-0.226,1.012-0.422,2.164-0.59,3.456c-0.169,1.293-0.253,2.501-0.253,3.624V57.06c0,1.742-0.042,3.708-0.127,5.899
		c-0.084,2.191-0.183,4.397-0.295,6.616c-0.113,2.219-0.253,4.354-0.421,6.405c-0.169,2.051-0.366,3.778-0.591,5.184l-3.455,0.422
		c-0.113-1.068-0.197-2.333-0.253-3.793c-0.057-1.462-0.126-3.007-0.211-4.636c-0.084-1.63-0.141-3.287-0.168-4.973
		c-0.029-1.686-0.042-3.342-0.042-4.973v-24.61c-1.181,0-2.221,0.029-3.119,0.084c-0.899,0.057-1.784,0.113-2.654,0.169
		c-0.872,0.057-1.757,0.113-2.655,0.168c-0.899,0.057-1.911,0.113-3.034,0.169v14.834c0,1.742-0.042,3.708-0.126,5.899
		c-0.085,2.191-0.198,4.397-0.338,6.616c-0.141,2.221-0.295,4.355-0.463,6.405c-0.169,2.051-0.366,3.778-0.591,5.184l-3.286,0.422
		c-0.113-1.068-0.198-2.318-0.253-3.751c-0.057-1.433-0.113-2.964-0.169-4.594c-0.057-1.629-0.099-3.3-0.126-5.015
		c-0.029-1.713-0.043-3.384-0.043-5.015V13.485c0-1.854-0.604-3.329-1.812-4.425c-1.209-1.096-3.47-2.077-6.785-2.943l1.012-2.324
		c2.752,0.337,5.196,0.703,7.333,1.096c2.134,0.394,4.325,0.872,6.573,1.433c-0.281,1.012-0.505,2.178-0.674,3.498
		s-0.253,2.543-0.253,3.666V35.651z"/>
	<path d="M178.51,62.2c0,1.518-0.028,3.105-0.084,4.763c-0.057,1.657-0.155,3.315-0.295,4.973c-0.141,1.656-0.295,3.244-0.464,4.762
		c-0.168,1.517-0.365,2.865-0.59,4.046l-3.708,0.59c-0.113-1.012-0.211-2.191-0.295-3.54c-0.085-1.349-0.155-2.754-0.211-4.214
		c-0.057-1.462-0.084-2.936-0.084-4.425c0-1.488,0-2.852,0-4.088V46.608c-2.36,0.057-4.692,0.126-6.996,0.211
		c-2.305,0.084-4.453,0.155-6.447,0.21c-1.995,0.057-3.793,0.127-5.395,0.211c-1.601,0.085-2.852,0.155-3.75,0.211
		c-2.136,0.113-4.299,0.268-6.49,0.464c-2.191,0.197-4.327,0.436-6.405,0.716l-2.106-5.899c2.583,0.281,5.057,0.492,7.416,0.632
		c2.36,0.141,4.859,0.268,7.502,0.38c1.403,0.057,3.216,0.084,5.436,0.084s4.663-0.014,7.333-0.042
		c2.668-0.028,5.422-0.085,8.26-0.169c2.836-0.084,5.575-0.154,8.218-0.211c2.64-0.055,5.057-0.126,7.248-0.21
		c2.191-0.085,3.988-0.154,5.394-0.211c3.877-0.169,7.571-0.393,11.083-0.675c3.512-0.28,6.785-0.645,9.819-1.096l-0.843,5.563
		c-2.248-0.112-5.015-0.198-8.302-0.256s-6.842-0.114-10.662-0.173c-1.63,0-3.723,0.015-6.278,0.044
		c-2.558,0.028-5.325,0.1-8.303,0.216V62.2z M175.055,14.244c4.383,2.473,9.271,4.776,14.665,6.911
		c5.395,2.136,11.041,4.102,16.94,5.899l-5.057,4.889c-2.079-1.18-4.298-2.415-6.658-3.709c-2.36-1.292-4.776-2.598-7.248-3.919
		c-2.474-1.319-4.96-2.654-7.459-4.003c-2.501-1.349-4.903-2.668-7.206-3.962c-4.383,4.328-9.258,8.007-14.623,11.041
		c-5.367,3.034-10.775,5.562-16.225,7.586l-1.686-1.938c3.371-1.292,6.658-2.837,9.861-4.636c3.202-1.798,6.18-3.764,8.934-5.899
		c2.752-2.135,5.238-4.383,7.459-6.743c2.219-2.359,4.031-4.72,5.437-7.079c0.448-0.73,0.659-1.307,0.632-1.729
		c-0.029-0.421-0.379-0.855-1.054-1.306c-0.506-0.393-1.096-0.787-1.77-1.181c-0.675-0.393-1.742-0.954-3.203-1.686l1.518-2.022
		c2.303,0.619,4.564,1.32,6.784,2.106c2.219,0.788,4.452,1.631,6.7,2.529c-0.956,1.63-1.995,3.175-3.118,4.635
		C177.554,11.491,176.347,12.896,175.055,14.244z"/>
	<path d="M214.836,83.608v-3.624h43.321v3.624H214.836z"/>
	<path d="M289.173,10.872c2.023,0.226,3.92,0.675,5.689,1.349c1.77,0.675,3.329,1.532,4.678,2.571
		c1.349,1.04,2.472,2.248,3.371,3.624c0.898,1.377,1.518,2.853,1.854,4.425c1.123,0.113,2.373,0.211,3.75,0.295
		s2.711,0.099,4.004,0.042c1.572-0.056,3.245-0.112,5.015-0.169c1.771-0.055,3.272-0.14,4.509-0.252V9.861
		c0-1.91-0.856-3.427-2.57-4.552c-1.715-1.123-4.369-2.118-7.965-2.985L312.436,0c2.865,0.337,5.717,0.773,8.555,1.307
		c2.836,0.534,5.379,1.025,7.627,1.475c-0.281,1.012-0.506,2.164-0.674,3.456c-0.169,1.293-0.253,2.501-0.253,3.624v20.564
		c0,1.012-0.042,2.179-0.127,3.498c-0.084,1.321-0.197,2.627-0.337,3.919c-0.141,1.293-0.281,2.528-0.421,3.709
		c-0.142,1.18-0.295,2.106-0.464,2.781l-3.708,0.59c-0.169-1.235-0.31-2.81-0.422-4.72c-0.113-1.91-0.169-3.652-0.169-5.226v-9.355
		c-2.81,0.113-5.76,0.31-8.85,0.59c-3.091,0.282-5.815,0.703-8.175,1.265l-0.169-0.253c-0.168,1.91-0.759,3.666-1.77,5.268
		c-1.012,1.602-2.347,2.992-4.004,4.172c-1.658,1.18-3.568,2.094-5.731,2.739c-2.163,0.646-4.481,0.969-6.953,0.969
		c-2.642,0-5.086-0.364-7.332-1.096c-2.248-0.729-4.201-1.755-5.857-3.076c-1.658-1.319-2.95-2.893-3.878-4.72
		c-0.927-1.825-1.391-3.806-1.391-5.941c0-2.023,0.435-3.92,1.307-5.689c0.871-1.77,2.078-3.314,3.624-4.636
		c1.545-1.319,3.385-2.373,5.521-3.16c2.135-0.786,4.438-1.235,6.911-1.349c-0.113-0.618-0.421-1.151-0.927-1.602
		c-0.506-0.449-1.405-0.898-2.697-1.349l0.843-1.602c1.292,0.282,2.557,0.521,3.793,0.717c1.235,0.197,2.556,0.436,3.961,0.717
		c-0.225,0.562-0.436,1.096-0.632,1.601C289.439,9.692,289.285,10.255,289.173,10.872z M298.107,76.613
		c-2.697-0.113-5.297-0.127-7.797-0.043c-2.5,0.085-4.902,0.239-7.206,0.464c-0.057,0.618-0.113,1.18-0.168,1.686
		c-0.057,0.506-0.142,0.982-0.253,1.433l-3.287,0.591c-0.113-1.125-0.226-2.402-0.337-3.835c-0.113-1.433-0.169-2.938-0.169-4.51
		V57.312c0-1.91-0.394-3.315-1.18-4.215c-0.788-0.897-2.417-1.686-4.889-2.359l0.759-2.022c1.686,0.168,3.441,0.365,5.268,0.59
		c1.825,0.225,3.722,0.562,5.689,1.011c-0.169,1.068-0.324,2.179-0.464,3.329c-0.141,1.152-0.211,2.291-0.211,3.414v1.938
		c2.078-0.112,4.27-0.224,6.574-0.337c2.304-0.112,4.804-0.338,7.501-0.675v-3.708c0-0.955-0.099-1.756-0.295-2.402
		c-0.197-0.646-0.562-1.222-1.096-1.728c-0.534-0.506-1.236-0.94-2.107-1.307c-0.871-0.365-1.98-0.744-3.329-1.138l0.759-2.191
		c2.135,0.282,4.157,0.548,6.068,0.801c1.909,0.253,3.848,0.603,5.815,1.05c-0.225,1.062-0.421,2.166-0.59,3.312
		s-0.253,2.251-0.253,3.312v13.523c0,1.742-0.099,3.554-0.295,5.436c-0.197,1.882-0.436,3.554-0.717,5.016
		c1.798-1.743,3.54-3.625,5.226-5.647c1.687-2.022,3.23-4.115,4.636-6.279c1.404-2.162,2.668-4.346,3.793-6.55
		c1.123-2.205,2.022-4.367,2.697-6.487c0.28-0.781,0.406-1.367,0.379-1.758c-0.029-0.39-0.239-0.811-0.632-1.261
		c-0.282-0.337-0.914-0.828-1.896-1.475c-0.983-0.646-1.869-1.138-2.655-1.476l1.181-1.601c0.729,0.168,1.587,0.352,2.57,0.548
		c0.982,0.197,1.98,0.421,2.992,0.674c1.011,0.253,2.008,0.535,2.992,0.843c0.982,0.31,1.867,0.604,2.654,0.885
		c-0.562,2.08-1.307,4.117-2.233,6.11c-0.927,1.995-2.037,3.948-3.329,5.858c2.584,2.81,5.38,5.577,8.386,8.302
		c3.006,2.726,6.082,5.154,9.229,7.29L333,79.562l-14.243-16.604c-1.349,1.968-2.782,3.85-4.299,5.647
		c-1.518,1.799-3.007,3.469-4.467,5.015c-1.462,1.545-2.866,2.921-4.214,4.13c-1.349,1.207-2.558,2.204-3.625,2.992l-1.433-1.349
		l-2.275,0.337c-0.057-0.45-0.113-0.927-0.169-1.433C298.219,77.793,298.162,77.23,298.107,76.613z M299.034,25.2
		c0-1.629-0.324-3.174-0.969-4.635c-0.647-1.461-1.518-2.726-2.613-3.793c-1.096-1.066-2.416-1.91-3.961-2.528
		c-1.546-0.618-3.189-0.928-4.931-0.928c-1.799,0-3.47,0.31-5.015,0.928c-1.546,0.618-2.88,1.462-4.004,2.528
		c-1.124,1.067-2.01,2.332-2.654,3.793c-0.647,1.461-0.97,3.006-0.97,4.635c0,1.686,0.322,3.245,0.97,4.678
		c0.645,1.434,1.53,2.67,2.654,3.709c1.124,1.04,2.458,1.854,4.004,2.444c1.545,0.59,3.216,0.885,5.015,0.885
		c1.798,0,3.455-0.295,4.973-0.885c1.517-0.591,2.837-1.404,3.961-2.444c1.124-1.039,1.994-2.275,2.613-3.709
		C298.725,28.445,299.034,26.886,299.034,25.2z M297.938,71.303V61.61c-2.473-0.111-4.804-0.14-6.995-0.084
		c-2.191,0.057-4.552,0.226-7.08,0.506v6.658c0,0.899-0.042,1.784-0.126,2.655c-0.085,0.87-0.184,1.782-0.295,2.738
		c2.135-0.057,4.467-0.155,6.995-0.295c2.528-0.141,5.028-0.352,7.501-0.632V71.303z"/>
	<path d="M419.979,44.586c-2.248-0.169-5.015-0.281-8.302-0.338c-3.287-0.055-6.841-0.111-10.662-0.168
		c-1.573,0-3.596,0.015-6.068,0.042c-2.473,0.029-5.155,0.084-8.049,0.169c-2.895,0.084-5.857,0.168-8.892,0.252
		c-3.034,0.085-5.929,0.169-8.681,0.253c-2.754,0.085-5.226,0.184-7.417,0.295c-2.191,0.113-3.85,0.198-4.973,0.253
		c-2.191,0.113-4.37,0.253-6.532,0.422c-2.164,0.168-4.285,0.394-6.363,0.674l-2.191-5.899c2.641,0.337,5.142,0.577,7.501,0.717
		c2.36,0.141,4.859,0.267,7.501,0.379c1.404,0.057,3.259,0.084,5.563,0.084c2.303,0,4.816-0.013,7.543-0.042
		c2.725-0.027,5.562-0.084,8.513-0.169c2.949-0.084,5.786-0.168,8.513-0.252c2.725-0.085,5.226-0.169,7.501-0.253
		c2.275-0.085,4.115-0.154,5.521-0.211c3.877-0.169,7.557-0.393,11.041-0.675c3.483-0.28,6.742-0.645,9.776-1.096L419.979,44.586z
		 M401.943,72.567c0.617-0.113,1.207-0.183,1.77-0.211c0.562-0.028,1.067-0.071,1.518-0.126l-1.096,4.72
		c-2.305-0.169-4.96-0.295-7.965-0.38c-3.007-0.084-6.125-0.126-9.355-0.126c-3.231,0-6.405,0.027-9.524,0.084
		c-3.118,0.056-5.914,0.14-8.386,0.253c-0.113,1.292-0.281,2.444-0.506,3.456l-3.287,0.59c-0.281-1.068-0.492-2.332-0.632-3.793
		c-0.141-1.462-0.268-2.922-0.379-4.383l-1.096-11.041c-0.113-1.066-0.253-1.938-0.422-2.612c-0.168-0.675-0.436-1.223-0.801-1.644
		c-0.366-0.422-0.914-0.771-1.644-1.054c-0.73-0.28-1.686-0.59-2.865-0.927l0.927-2.191c7.304,0.843,14.918,1.167,22.841,0.969
		c7.923-0.196,15.732-0.603,23.431-1.222c-0.45,3.202-0.914,6.561-1.391,10.071C402.603,66.514,402.224,69.702,401.943,72.567z
		 M384.581,4.889c2.415,0.281,4.648,0.829,6.7,1.644c2.051,0.814,3.806,1.854,5.268,3.118c1.461,1.265,2.613,2.712,3.456,4.341
		c0.843,1.63,1.264,3.371,1.264,5.226c0,2.136-0.492,4.088-1.475,5.857c-0.983,1.77-2.36,3.302-4.13,4.594
		c-1.77,1.293-3.85,2.304-6.237,3.034c-2.389,0.73-4.959,1.096-7.711,1.096c-2.754,0-5.311-0.365-7.67-1.096
		c-2.36-0.73-4.397-1.741-6.11-3.034c-1.715-1.292-3.063-2.824-4.046-4.594c-0.983-1.77-1.475-3.722-1.475-5.857
		c0-1.967,0.463-3.807,1.391-5.521c0.927-1.714,2.191-3.216,3.792-4.51c1.602-1.292,3.512-2.331,5.731-3.118
		c2.219-0.786,4.621-1.235,7.206-1.349c-0.113-0.617-0.436-1.138-0.969-1.559c-0.535-0.422-1.447-0.829-2.739-1.223l0.759-1.602
		c1.403,0.282,2.767,0.521,4.087,0.717c1.32,0.197,2.711,0.436,4.172,0.716c-0.225,0.562-0.45,1.083-0.674,1.56
		C384.945,3.808,384.75,4.327,384.581,4.889z M395.2,18.879c0-1.572-0.337-3.062-1.011-4.467c-0.675-1.403-1.602-2.64-2.781-3.708
		c-1.181-1.066-2.571-1.909-4.172-2.528c-1.602-0.618-3.33-0.928-5.184-0.928c-1.911,0-3.681,0.31-5.31,0.928
		c-1.631,0.619-3.049,1.462-4.257,2.528c-1.209,1.068-2.149,2.305-2.823,3.708c-0.675,1.405-1.012,2.895-1.012,4.467
		c0,1.687,0.337,3.232,1.012,4.636c0.674,1.405,1.614,2.613,2.823,3.624c1.208,1.012,2.626,1.799,4.257,2.36
		c1.629,0.562,3.398,0.843,5.31,0.843c1.854,0,3.582-0.28,5.184-0.843c1.601-0.562,2.991-1.349,4.172-2.36
		c1.18-1.011,2.106-2.219,2.781-3.624C394.863,22.111,395.2,20.565,395.2,18.879z M397.813,57.145
		c-1.799-0.057-4.018-0.099-6.658-0.127c-2.642-0.028-5.353-0.014-8.134,0.043s-5.45,0.128-8.007,0.212
		c-2.558,0.085-4.622,0.184-6.194,0.295l0.337,13.554v2.626c2.135,0,4.41-0.015,6.827-0.042c2.415-0.029,4.859-0.086,7.332-0.169
		c2.473-0.085,4.902-0.171,7.291-0.254c2.388-0.085,4.648-0.213,6.784-0.382L397.813,57.145z"/>
</g>
</svg>