<!-- Generator: Adobe Illustrator 21.1.0, SVG Export Plug-In  -->
<svg version="1.1"
	 xmlns="http://www.w3.org/2000/svg" xmlns:xlink="http://www.w3.org/1999/xlink" xmlns:a="http://ns.adobe.com/AdobeSVGViewerExtensions/3.0/"
	 x="0px" y="0px" width="80.324px" height="126.276px" viewBox="0 0 80.324 126.276"
	 style="enable-background:new 0 0 80.324 126.276;" xml:space="preserve">
<defs>
</defs>
<path d="M74.52,12.6C60.479,6.48,29.88,0.72,10.8,0C6.84,0,5.76,1.08,5.04,2.88L0,17.28c12.6,5.399,23.76,14.04,28.439,22.68v40.726
	c1.486,1.818,2.896,3.701,4.22,5.647V37.086c-5.04-8.28-16.2-16.2-29.16-21.24l4.32-12.6c0.72-1.44,1.8-2.521,5.04-2.521
	c17.279,0.721,45,6.12,57.96,11.521c3.96,1.8,5.399,5.04,5.04,9.72l-1.44,21.96v81.952l4.061,0.398V46.8l1.8-23.399
	C80.64,18,78.84,14.4,74.52,12.6z"/>
</svg>