<!-- Generator: Adobe Illustrator 21.1.0, SVG Export Plug-In  -->
<svg version="1.1"
	 xmlns="http://www.w3.org/2000/svg" xmlns:xlink="http://www.w3.org/1999/xlink" xmlns:a="http://ns.adobe.com/AdobeSVGViewerExtensions/3.0/"
	 x="0px" y="0px" width="208.069px" height="121.768px" viewBox="0 0 208.069 121.768"
	 style="enable-background:new 0 0 208.069 121.768;" xml:space="preserve">
<style type="text/css">
	.st0{fill:none;stroke:#000000;stroke-miterlimit:10;}
</style>
<defs>
</defs>
<g>
	<g>
		<rect x="204.746" y="1.886" transform="matrix(1 -0.0079 0.0079 1 -0.2443 1.6242)" width="2.83" height="59.901"/>
	</g>
</g>
<g>
	<ellipse transform="matrix(0.781 -0.6245 0.6245 0.781 3.8233 136.7573)" cx="196.918" cy="62.927" rx="12.45" ry="8.737"/>
</g>
<g>
	<g>
		<rect x="18.98" y="1.886" transform="matrix(1 -0.0079 0.0079 1 -0.25 0.1616)" width="2.83" height="59.901"/>
	</g>
</g>
<g>
	<ellipse transform="matrix(0.781 -0.6245 0.6245 0.781 -36.8566 20.7443)" cx="11.152" cy="62.927" rx="12.45" ry="8.737"/>
</g>
<g>
	<g>
		<rect x="112.274" y="1.886" transform="matrix(1 -0.0079 0.0079 1 -0.2471 0.8961)" width="2.83" height="59.901"/>
	</g>
</g>
<g>
	<ellipse transform="matrix(0.781 -0.6245 0.6245 0.781 -16.4266 79.0074)" cx="104.446" cy="62.927" rx="12.45" ry="8.737"/>
</g>
<g>
	<g>
		<rect x="65.627" y="1.886" transform="matrix(1 -0.0079 0.0079 1 -0.2486 0.5289)" width="2.83" height="59.901"/>
	</g>
</g>
<g>
	<ellipse transform="matrix(0.781 -0.6245 0.6245 0.781 -26.6416 49.8759)" cx="57.799" cy="62.927" rx="12.45" ry="8.737"/>
</g>
<g>
	<g>
		<rect x="158.51" y="1.886" transform="matrix(1 -0.0079 0.0079 1 -0.2457 1.2602)" width="2.83" height="59.901"/>
	</g>
</g>
<g>
	<ellipse transform="matrix(0.781 -0.6245 0.6245 0.781 -6.3017 107.8824)" cx="150.682" cy="62.927" rx="12.45" ry="8.737"/>
</g>
<g>
	<g>
		<rect x="18.705" width="188.658" height="9.433"/>
	</g>
</g>
<polyline class="st0" points="11.436,99.736 11.436,118.736 68.436,118.736 "/>
<polyline class="st0" points="196.436,99.736 196.436,118.736 139.436,118.736 "/>
<g>
	<path d="M86.541,106.522c-1.114,0.367-1.977,0.972-2.584,1.815c-0.609,0.844-0.914,1.889-0.914,3.135
		c0,0.558,0.052,0.938,0.154,1.145c0.103,0.205,0.154,0.329,0.154,0.373c-1.57,0-2.354-0.667-2.354-2.002
		c0-0.909,0.348-1.822,1.045-2.738c0.695-0.917,1.591-1.665,2.684-2.244c1.092-0.579,2.182-0.869,3.268-0.869
		c0.542,0,1.1,0.103,1.672,0.308l-0.506,11.595L94,105.443h3.168l-2.311,16.192H91.69l1.408-9.878l-4.137,9.878h-3.014l0.44-9.922
		l-3.675,9.922h-1.76L86.541,106.522z"/>
	<path d="M97.266,121.107c-0.433-0.439-0.648-1.1-0.648-1.979c0-0.366,0.059-0.844,0.176-1.431l1.496-7.062h3.168l-1.584,7.48
		c-0.044,0.22-0.066,0.425-0.066,0.615c0,0.602,0.221,0.902,0.66,0.902c0.41,0,0.763-0.172,1.057-0.517
		c0.293-0.345,0.527-0.818,0.703-1.42l1.496-7.062h3.168l-1.584,7.48c-0.059,0.22-0.088,0.454-0.088,0.703
		c0,0.294,0.07,0.503,0.209,0.627c0.14,0.125,0.371,0.188,0.693,0.188c0.41,0,0.766-0.176,1.066-0.528
		c0.301-0.352,0.539-0.821,0.715-1.408h0.925c-0.543,1.585-1.214,2.659-2.013,3.224c-0.8,0.564-1.604,0.847-2.41,0.847
		c-0.63,0-1.133-0.176-1.506-0.528c-0.375-0.352-0.598-0.872-0.672-1.562c-0.498,0.807-1.022,1.356-1.572,1.65
		c-0.551,0.293-1.111,0.439-1.684,0.439C98.268,121.768,97.698,121.548,97.266,121.107z"/>
	<path d="M108.629,121.36c-0.484-0.271-0.844-0.623-1.078-1.056s-0.352-0.884-0.352-1.353c0-0.484,0.113-0.906,0.341-1.266
		s0.502-0.619,0.825-0.781c0.572-1.026,1.07-2.063,1.496-3.112c0.425-1.049,0.828-2.182,1.209-3.399l3.256-0.439
		c0.074,1.877,0.199,3.908,0.375,6.094c0.072,0.88,0.109,1.518,0.109,1.914c0,0.337-0.029,0.616-0.088,0.836
		c0.689-0.396,1.217-0.763,1.584-1.101h0.924c-0.938,1.086-2.061,2.003-3.365,2.75c-0.426,0.455-0.95,0.789-1.573,1.002
		c-0.624,0.212-1.251,0.318-1.882,0.318C109.707,121.768,109.113,121.632,108.629,121.36z M111.07,119.546
		c0.367-0.322,0.551-0.844,0.551-1.562c0-0.439-0.045-1.056-0.133-1.848c-0.146-1.672-0.241-2.794-0.285-3.366
		c-0.352,1.159-0.946,2.545-1.782,4.158c0.337,0.176,0.506,0.433,0.506,0.77c0,0.279-0.092,0.528-0.274,0.748
		c-0.184,0.221-0.415,0.33-0.693,0.33c-0.309,0-0.506-0.095-0.594-0.286c0,0.528,0.105,0.917,0.318,1.166
		c0.213,0.25,0.554,0.374,1.023,0.374C110.25,120.029,110.704,119.868,111.07,119.546z"/>
	<path d="M116.779,121.107c-0.433-0.439-0.648-1.1-0.648-1.979c0-0.366,0.059-0.844,0.176-1.431l1.496-7.062h3.168l-1.584,7.48
		c-0.059,0.22-0.088,0.454-0.088,0.703c0,0.294,0.069,0.503,0.209,0.627c0.139,0.125,0.37,0.188,0.693,0.188
		c0.425,0,0.82-0.18,1.188-0.539c0.366-0.359,0.631-0.825,0.792-1.397h0.924c-0.542,1.585-1.239,2.659-2.09,3.224
		s-1.694,0.847-2.53,0.847C117.781,121.768,117.212,121.548,116.779,121.107z M118.748,108.941
		c-0.337-0.337-0.506-0.748-0.506-1.231c0-0.484,0.169-0.898,0.506-1.243c0.338-0.345,0.748-0.517,1.232-0.517
		s0.898,0.172,1.243,0.517s0.517,0.759,0.517,1.243c0,0.483-0.172,0.895-0.517,1.231c-0.345,0.338-0.759,0.506-1.243,0.506
		S119.086,109.279,118.748,108.941z"/>
	<path d="M122.643,120.921c-0.602-0.564-0.902-1.448-0.902-2.651c0-1.012,0.202-2.126,0.605-3.344
		c0.403-1.217,1.049-2.27,1.936-3.157c0.888-0.887,2.014-1.331,3.377-1.331c0.895,0,1.525,0.191,1.893,0.572
		c0.366,0.382,0.55,0.873,0.55,1.474c0,0.528-0.114,0.925-0.341,1.188c-0.228,0.264-0.502,0.396-0.825,0.396
		c-0.278,0-0.536-0.088-0.771-0.264c0.177-0.469,0.265-0.902,0.265-1.298c0-0.602-0.198-0.902-0.595-0.902
		c-0.439,0-0.879,0.363-1.319,1.089c-0.44,0.727-0.804,1.592-1.089,2.597c-0.286,1.005-0.43,1.873-0.43,2.606
		c0,1.218,0.44,1.826,1.32,1.826c0.396,0,0.84-0.121,1.331-0.363c0.491-0.241,0.928-0.523,1.31-0.847
		c-0.396,2.171-1.665,3.256-3.807,3.256C124.08,121.768,123.244,121.485,122.643,120.921z"/>
</g>
</svg>