<!-- Generator: Adobe Illustrator 21.1.0, SVG Export Plug-In  -->
<svg version="1.1"
	 xmlns="http://www.w3.org/2000/svg" xmlns:xlink="http://www.w3.org/1999/xlink" xmlns:a="http://ns.adobe.com/AdobeSVGViewerExtensions/3.0/"
	 x="0px" y="0px" width="20.029px" height="73.168px" viewBox="0 0 20.029 73.168"
	 style="enable-background:new 0 0 20.029 73.168;" xml:space="preserve">
<defs>
</defs>
<g>
	<g>
		<polygon points="10.414,40.491 10.167,0.015 11.648,0 11.894,40.477 		"/>
	</g>
</g>
<g>
	<ellipse transform="matrix(0.781 -0.6245 0.6245 0.781 -24.3002 12.865)" cx="6.195" cy="41.083" rx="6.514" ry="4.571"/>
</g>
<g>
	<path d="M3.609,62.873c0.401,0.036,0.77,0.132,1.107,0.287c0.337,0.155,0.629,0.351,0.875,0.588s0.439,0.513,0.581,0.827
		c0.141,0.314,0.212,0.649,0.212,1.005c0,0.392-0.082,0.754-0.246,1.087s-0.39,0.62-0.677,0.861s-0.625,0.431-1.012,0.567
		c-0.388,0.137-0.809,0.205-1.265,0.205c-0.456,0-0.877-0.068-1.265-0.205c-0.388-0.137-0.725-0.326-1.012-0.567
		S0.398,67,0.239,66.667C0.08,66.334,0,65.972,0,65.58c0-0.374,0.075-0.725,0.226-1.053s0.36-0.613,0.629-0.854
		c0.269-0.241,0.585-0.436,0.95-0.581c0.364-0.146,0.761-0.228,1.189-0.246c-0.009-0.128-0.055-0.23-0.137-0.308
		s-0.232-0.152-0.451-0.226l0.137-0.26c0.209,0.046,0.415,0.084,0.615,0.116c0.2,0.032,0.415,0.07,0.643,0.116
		c-0.037,0.091-0.073,0.185-0.109,0.28C3.655,62.661,3.627,62.764,3.609,62.873z M5.428,65.539c0-0.301-0.057-0.586-0.171-0.854
		c-0.114-0.269-0.269-0.501-0.465-0.697c-0.196-0.196-0.431-0.351-0.704-0.465s-0.565-0.171-0.875-0.171
		c-0.31,0-0.6,0.057-0.868,0.171c-0.269,0.114-0.504,0.269-0.704,0.465c-0.201,0.196-0.358,0.429-0.472,0.697
		c-0.114,0.269-0.171,0.554-0.171,0.854c0,0.31,0.057,0.595,0.171,0.854c0.114,0.26,0.271,0.485,0.472,0.677
		c0.2,0.191,0.435,0.342,0.704,0.451c0.269,0.109,0.558,0.164,0.868,0.164c0.319,0,0.613-0.055,0.882-0.164
		c0.269-0.109,0.503-0.26,0.704-0.451c0.2-0.191,0.355-0.417,0.465-0.677S5.428,65.849,5.428,65.539z M9.693,69.189
		c0,0.282-0.007,0.606-0.021,0.971s-0.03,0.729-0.048,1.094c-0.019,0.364-0.041,0.711-0.068,1.039S9.497,72.89,9.461,73.1
		l-0.574,0.068c-0.019-0.155-0.034-0.349-0.048-0.581s-0.027-0.483-0.041-0.752s-0.023-0.545-0.027-0.827
		c-0.005-0.282-0.007-0.556-0.007-0.82v-8.654c0-0.31-0.137-0.556-0.41-0.738s-0.702-0.344-1.285-0.484l0.15-0.377
		c0.456,0.055,0.916,0.125,1.381,0.212s0.875,0.166,1.23,0.239c-0.037,0.164-0.068,0.351-0.096,0.561s-0.041,0.405-0.041,0.588
		v3.951c0.374-0.019,0.804-0.053,1.292-0.103c0.487-0.05,0.978-0.116,1.47-0.198l-0.123,0.875c-0.191-0.009-0.403-0.014-0.636-0.014
		s-0.467,0-0.704,0c-0.237,0-0.467,0.002-0.69,0.007c-0.224,0.005-0.426,0.007-0.608,0.007V69.189z"/>
</g>
<path d="M11.682,9c0,0,2.084,6.349,4.267,8.966c2.743,3.287,4.572,6.575,3.963,9.862S16.559,35,16.559,35s2.896-4.931,2.286-7.92
	s-3.895-6.362-5.03-7.92c-1.524-2.092-2.286-3.736-2.286-3.736L11.682,9z"/>
<path d="M11.682,0c0,0,2.084,6.349,4.267,8.966c2.743,3.287,4.572,6.575,3.963,9.862S16.559,26,16.559,26s2.896-4.931,2.286-7.92
	s-3.895-6.362-5.03-7.92c-1.524-2.092-2.286-3.736-2.286-3.736L11.682,0z"/>
</svg>