<!-- Generator: Adobe Illustrator 21.1.0, SVG Export Plug-In  -->
<svg version="1.1"
	 xmlns="http://www.w3.org/2000/svg" xmlns:xlink="http://www.w3.org/1999/xlink" xmlns:a="http://ns.adobe.com/AdobeSVGViewerExtensions/3.0/"
	 x="0px" y="0px" width="1674.174px" height="693.483px" viewBox="0 0 1674.174 693.483"
	 style="enable-background:new 0 0 1674.174 693.483;" xml:space="preserve">
<defs>
</defs>
<g>
	<path d="M179.641,232.562c0.359,1.8-0.721,3.96-3.24,5.76c-18.36,10.801-52.2,23.4-75.601,26.641
		c-6.12,0.72-12.96,1.439-17.279,1.439c-24.12,0-34.2-7.56-40.32-27c-0.72-2.16-1.44-10.8-1.44-19.8v-108
		c-4.68-5.76-12.6-11.16-21.6-14.76l3.24-12.96c0.72-1.44,1.8-2.521,4.319-2.521c14.761,0,49.32,1.44,63,3.24
		c6.841-0.36,22.681-1.08,27.721-1.8l10.439-7.2c9.36-0.36,24.841,0.72,32.4,1.8c4.32,1.08,6.48,3.96,6.48,7.92
		c0,10.8-3.24,19.44-6.841,23.04c-1.8,1.44-3.96,2.16-7.199,2.16l-63.36,2.52v106.921c0,4.319,1.8,6.12,6.479,6.12
		c21.24-0.36,56.16-3.601,74.16-7.921c3.24-0.72,5.04,0,5.761,2.521L179.641,232.562z M180,34.562c0.721-1.8,2.16-2.88,6.48-2.88
		c16.2,0.72,42.12,6.479,54,12.239c3.6,1.801,5.04,5.04,5.04,10.08l-1.44,19.44v172.08c0,23.04-5.76,66.96-14.76,90h-24.84
		c-3.24-13.68-5.76-60.84-5.76-77.04v-86.04c-8.641,0.36-19.44,0.72-23.761,1.08c-6.479,0.36-16.92,2.521-23.399,4.68
		c-10.08-6.479-18.36-13.319-25.2-21.6c-1.08-1.8-1.44-3.24-0.72-5.04l3.6-6.12c7.92,0.72,19.44,1.08,28.44,1.08
		c9.72,0,28.439-0.36,41.04-1.08v-77.76c-3.96-7.2-13.681-14.4-24.12-19.08L180,34.562z M244.801,10.081
		c1.08-1.8,2.52-2.88,6.479-2.88c17.28,0.72,45.36,6.48,58.32,12.6c3.96,1.801,5.76,5.04,5.4,10.44l-1.44,21.24v206.28
		c0,24.84-6.12,73.08-16.2,99h-26.28c-3.239-12.6-5.76-67.68-5.76-84.96V45.001c-3.96-7.56-14.399-15.479-25.56-20.52
		L244.801,10.081z"/>
	<path d="M575.637,10.081c0.72-1.8,1.8-2.88,5.76-2.88c19.08,0.72,49.68,6.48,63.72,12.6c4.32,1.801,6.12,5.4,5.76,10.801
		l-1.8,23.399v201.601c0,25.2-6.12,74.88-16.56,101.16h-27.721c-3.239-12.24-5.76-69.12-5.76-86.4v-50.76
		c-23.76,5.4-56.88,10.8-89.28,15.12v18.72c0,23.761-7.92,71.641-16.2,92.16h-27.359c-2.521-14.04-5.76-60.84-5.76-77.399v-28.08
		c-7.561,0.72-14.4,1.439-20.881,1.8c-9,0.72-25.56,4.319-34.2,7.56c-14.399-7.2-32.04-20.16-43.56-31.68
		c-1.8-1.8-2.16-2.88-1.08-5.04l3.24-7.2c15.12,2.521,34.56,3.24,49.68,2.88c51.84-0.72,145.44-7.92,185.4-16.2V47.161
		c-4.68-8.64-15.84-17.28-28.439-22.68L575.637,10.081z M399.956,74.881c-2.88-4.68-11.521-11.159-18.36-13.68l3.24-12.24
		c0.36-1.439,1.8-2.52,6.48-2.52c13.68-0.36,42.479,2.52,53.64,5.4c3.6,1.079,5.04,3.96,4.68,8.64l-0.72,17.64v8.28l68.04-0.72
		v-25.2c-2.88-5.04-10.8-11.16-18-14.4l4.32-11.88c1.08-2.16,2.52-3.24,6.84-2.88c14.04,0.72,41.4,5.04,51.84,8.64
		c3.96,1.44,5.04,4.32,4.681,8.641l-1.08,19.08l-0.36,40.68c0,11.88-2.521,26.64-5.04,34.92l7.2,2.88c2.16,1.08,3.24,2.88,3.24,5.04
		c0,8.28-2.521,16.561-5.4,19.44c-27.72-0.36-87.48,0.36-119.88,1.08c-2.521,7.56-6.841,12.6-10.801,15.12h-26.279
		c-3.96-8.28-6.12-20.16-6.12-27.721L399.956,74.881z M448.556,115.201l-0.359,27l68.76-0.72v-27L448.556,115.201z"/>
</g>
<g>
	<path d="M1117.84,166.444c-31.68,27.359-70.92,50.04-113.4,64.8c-3.24,1.08-5.399,1.439-6.479,0.36l-6.48-7.2
		c-1.8-2.16-1.8-3.601,0-5.761c50.76-29.88,91.8-70.92,117.36-109.439c-17.28,0-38.16,0.72-44.641,1.08
		c-7.56,0.359-20.52,2.88-27.72,5.399c-12.24-5.76-24.479-14.76-33.12-23.399c-1.8-1.801-1.8-3.601-1.08-5.4l3.24-5.76
		c11.88,1.8,26.64,2.52,37.08,2.52c13.32,0,68.04-0.72,84.601-2.16l16.56-6.12c2.88-1.079,6.84-1.079,9.36,0
		c6.84,2.881,19.8,9.36,24.84,12.601c2.16,1.439,2.16,4.32,0.72,6.479l-9,13.32c-7.92,12.601-17.64,25.2-28.8,36.721l17.64,12.6
		l16.2,2.88c6.48,6.84,14.76,18,18.36,24.48c3.24,5.76,3.96,9.72,2.88,13.319c-2.521,7.561-12.24,13.32-19.44,12.24
		c-3.96-0.36-8.64-3.24-12.239-6.479L1117.84,166.444z M1047.279,25.684c30.601,5.76,62.28,7.561,83.16,7.2
		c4.681,0,6.841,0.72,9,3.96c3.601,6.48,2.521,20.88-2.159,25.2c-1.801,1.8-4.32,2.16-7.561,2.16c-14.04,0-39.24,0.72-54,1.8
		c-4.68,0.359-6.84,0.359-9.72-1.8c-7.2-5.761-16.92-17.641-21.96-27.721c-1.44-2.52-1.44-4.319-0.36-6.12L1047.279,25.684z
		 M1253.92,289.564c0,43.92-38.88,69.479-83.88,69.479s-83.88-25.56-83.88-69.479c0-39.96,38.88-63.721,83.88-63.721
		S1253.92,249.604,1253.92,289.564z M1203.88,289.564c0-19.801-15.12-30.24-33.84-30.24s-33.84,10.439-33.84,30.24
		c0,19.8,15.12,30.239,33.84,30.239S1203.88,309.364,1203.88,289.564z M1284.521,116.044c10.8-0.36,26.279,0.36,33.119,1.8
		c5.04,1.08,8.28,4.68,8.641,9.36c0.72,9-1.44,18.359-4.32,21.96c-2.52,3.24-8.28,4.68-12.6,4.68l-53.28,1.8
		c-1.44,21.24-7.561,51.841-15.12,67.32h-28.8c-3.24-11.16-5.76-50.76-5.76-64.8V47.284c-4.32-8.28-15.12-16.921-27.001-21.961
		l5.04-14.76c0.721-1.8,2.16-2.88,6.12-2.88c18.721,0.72,48.24,6.48,61.921,12.6c3.96,1.801,5.76,5.4,5.399,10.801l-1.439,22.68
		v71.28l16.56-1.08L1284.521,116.044z"/>
	<path d="M1632.276,123.604c10.8-0.359,26.279,0.36,33.119,1.801c5.04,1.079,8.28,4.68,8.641,9.359c0.72,9-1.44,18.36-4.32,21.96
		c-2.52,3.24-8.28,4.681-12.6,4.681l-52.92,1.8v7.2c0,29.16-6.12,72-16.2,95.04h-28.08c-3.24-11.88-5.4-52.2-5.76-74.16
		c-45.001,13.68-99.001,23.399-136.801,26.28c-5.4,0.359-10.8,0.72-15.12,0.72c-18.72,0-31.68-10.44-37.08-26.641
		c-1.08-4.319-2.16-12.239-2.16-20.52v-80.28c-4.68-6.12-12.96-12.24-22.68-15.84l3.24-12.96c0.72-1.44,1.8-2.521,4.319-2.521
		c15.48,0,51.841,1.801,65.521,4.681c12.24-0.36,42.12-1.44,51.84-2.521l11.521-7.92c10.8,0,27.72,0.72,36.359,2.521
		c4.681,1.079,6.841,3.96,6.841,8.279c0,10.8-2.88,19.08-6.12,22.32c-1.8,1.8-3.96,2.52-7.561,2.52l-93.6,3.24v80.28
		c0,5.04,2.16,7.2,7.56,7.2c37.08-0.36,91.801-5.76,133.921-15.48V47.284c-4.32-8.28-15.12-16.921-27.001-21.961l5.04-14.76
		c0.721-1.8,2.16-2.88,6.12-2.88c18.721,0.72,48.24,6.48,61.921,12.6c3.96,1.801,5.76,5.4,5.399,10.801l-1.439,22.68v78.84
		l16.56-1.08L1632.276,123.604z M1580.796,307.564c12.96-0.36,31.68,1.08,40.68,3.239c4.681,1.08,7.561,4.32,7.561,8.641
		c0,11.88-3.96,20.52-6.84,23.399c-1.801,1.801-4.681,2.521-7.921,2.521l-149.76,1.44c-29.16-0.36-40.68-12.24-40.68-34.921v-39.96
		c-5.761-5.399-15.48-11.16-24.841-14.76l2.881-12.24c0.359-1.8,2.52-3.6,6.119-3.6c16.921,0,47.16,2.16,60.12,5.04
		c4.681,1.08,7.2,4.319,7.2,9.72l-0.72,20.521v31.68c0,6.12,2.52,9,8.64,9c19.801,0.36,61.2-0.36,81.721-1.08L1580.796,307.564z"/>
</g>
</svg>