<!-- Generator: Adobe Illustrator 21.1.0, SVG Export Plug-In  -->
<svg version="1.1"
	 xmlns="http://www.w3.org/2000/svg" xmlns:xlink="http://www.w3.org/1999/xlink" xmlns:a="http://ns.adobe.com/AdobeSVGViewerExtensions/3.0/"
	 x="0px" y="0px" width="677px" height="431.499px" viewBox="0 0 677 431.499" style="enable-background:new 0 0 677 431.499;"
	 xml:space="preserve">
<style type="text/css">
	.st0{fill:none;}
	.st1{fill:none;stroke:#000000;stroke-miterlimit:10;}
</style>
<defs>
</defs>
<g>
	<path d="M37.52,17.614c-1.728,0-3.648,0.048-4.512,0.191c-0.72,0.097-2.208,0.433-2.976,0.721c-1.248-0.672-2.304-1.44-3.216-2.305
		C22.542,21.694,16.11,26.543,8.765,29.52c-0.432,0.191-0.72,0.239-0.864,0.096l-0.96-1.057c-0.192-0.239-0.24-0.432,0-0.72
		c7.585-4.944,13.297-11.713,15.985-18.001c-2.064,0.048-4.848,0.048-5.712,0.144c-1.056,0.048-2.928,0.384-4.032,0.72
		c-1.584-0.768-3.312-2.063-4.417-3.216c-0.24-0.288-0.24-0.48-0.144-0.72l0.432-0.624c1.584,0.239,3.552,0.336,4.944,0.336
		c1.729,0.048,8.689-0.097,10.705-0.288l2.16-0.96c0.336-0.145,0.864-0.145,1.152,0c0.96,0.432,2.736,1.439,3.408,1.92
		c0.288,0.24,0.336,0.527,0.144,0.864l-0.96,1.824c-0.624,1.439-1.344,2.832-2.256,4.224c0.864,0.048,1.728,0.097,2.496,0.097
		c1.44,0.048,4.464,0,6.672-0.145V6.237c-0.576-1.104-2.016-2.257-3.6-2.929l0.672-1.968c0.096-0.24,0.288-0.384,0.816-0.384
		c2.496,0.096,6.433,0.863,8.256,1.68c0.528,0.24,0.768,0.72,0.72,1.44l-0.192,3.024v9.696c0,2.448-0.96,6.961-2.016,8.881h-3.889
		c-0.48-1.392-0.768-5.713-0.768-7.44V17.614z M40.88,41.568c1.584-0.048,3.84,0.191,4.944,0.479c0.576,0.145,0.96,0.576,0.96,1.152
		c0,1.393-0.384,2.4-0.72,2.736c-0.24,0.24-0.624,0.336-1.008,0.336l-21.026,0.145c-3.409-0.049-4.705-1.393-4.705-4.033v-3.792
		c-0.624-0.72-1.632-1.296-2.784-1.728l0.24-1.393c0.048-0.192,0.24-0.336,0.576-0.336c2.064,0,6.913,0.096,8.737,0.288
		c2.4,0,7.969-0.048,9.793-0.145l1.056-0.239c0.096-0.816,0.096-2.545,0.048-3.217c-3.072,0-9.313,0.048-10.801,0.145
		c-1.2,0.048-3.216,0.336-4.561,0.672c-1.68-0.912-3.36-2.257-4.608-3.505c-0.24-0.239-0.24-0.384-0.144-0.672l0.432-0.768
		c1.536,0.288,4.08,0.479,5.329,0.479c2.352,0,13.057-0.096,15.505-0.191l2.064-0.864c0.288-0.145,0.624-0.145,1.008,0
		c0.816,0.288,2.497,0.96,3.168,1.296c0.24,0.192,0.288,0.528,0.144,0.912l-0.864,1.92c-0.096,1.152-0.624,3.072-1.008,3.937
		l0.912,0.432c0.288,0.145,0.48,0.433,0.48,0.721c0,1.056-0.384,2.063-0.72,2.496l-17.33,0.192v2.399
		c0,0.721,0.288,1.009,0.912,1.009c3.024,0.048,9.457,0,12.385-0.097L40.88,41.568z"/>
	<path d="M88.688,33.647c2.112,0.096,5.184,0.576,6.48,1.056c0.528,0.192,0.864,0.624,0.864,1.249c0,1.392-0.912,2.688-1.632,3.023
		c-1.2-0.144-4.752-0.239-6.385-0.239c-3.312,0-22.034,0.191-25.058,0.384c-1.296,0.096-4.417,0.624-5.809,1.008
		c-2.016-0.816-4.272-2.448-5.712-3.889c-0.192-0.191-0.24-0.527-0.144-0.768l0.48-0.912c2.016,0.336,4.657,0.528,6.577,0.576
		c2.256,0.048,13.153-0.048,20.834-0.24c1.2-5.521,2.016-15.649,2.16-22.322c-4.225,0-12.001,0.192-14.257,0.337
		c-1.488,0.096-3.792,0.432-5.185,0.863c-1.824-0.96-3.792-2.448-5.041-3.792c-0.288-0.288-0.288-0.48-0.192-0.768l0.432-0.864
		c1.824,0.288,4.176,0.432,5.809,0.432c2.544,0.048,15.745-0.192,19.154-0.432l2.448-1.2c0.336-0.145,0.816-0.145,1.152,0
		c1.008,0.479,2.976,1.584,3.792,2.112c0.24,0.191,0.288,0.479,0.144,0.863l-0.912,2.545c-0.192,6.624-2.112,15.793-4.849,22.13
		c1.152-0.048,2.064-0.097,2.592-0.145L88.688,33.647z"/>
	<path d="M135.055,22.895c2.112,0.096,5.184,0.576,6.48,1.056c0.528,0.192,0.864,0.625,0.864,1.249c0,1.392-0.912,2.688-1.632,3.023
		c-1.2-0.144-4.752-0.239-6.385-0.239c-1.488,0-6.048,0.048-10.897,0.096v0.096c0,1.969-0.672,4.32-1.632,5.521h-4.176
		c-0.528-1.008-0.768-2.928-0.768-4.272v-1.248c-3.553,0.048-6.529,0.145-7.585,0.192c-1.296,0.096-4.417,0.624-5.809,1.008
		c-2.016-0.816-4.272-2.448-5.712-3.889c-0.192-0.191-0.24-0.527-0.144-0.768l0.48-0.912c2.017,0.336,4.657,0.528,6.577,0.576
		c3.264,0.048,24.626-0.192,28.083-0.48L135.055,22.895z M106.876,14.397c-0.624-0.72-1.68-1.344-2.832-1.775l0.288-1.393
		c0.048-0.192,0.24-0.336,0.576-0.336c2.064,0,7.009,0.096,8.785,0.288c3.072,0,9.073-0.096,11.089-0.24l0.912-0.192
		c0.192-0.672,0.24-2.304,0.192-2.976c-3.504,0-10.369,0.144-11.953,0.191c-1.2,0.097-3.12,0.337-4.512,0.673
		c-1.68-0.864-3.36-2.209-4.561-3.408c-0.288-0.288-0.288-0.433-0.144-0.673l0.384-0.768c1.536,0.288,4.128,0.479,5.28,0.479
		c2.256,0.049,14.065-0.144,16.85-0.288l2.112-0.863c0.288-0.145,0.72-0.145,1.056,0c0.816,0.336,2.544,1.056,3.168,1.439
		c0.288,0.192,0.336,0.528,0.144,0.864l-0.816,1.776c-0.192,1.056-0.768,2.736-1.2,3.552l1.056,0.528
		c0.288,0.145,0.48,0.433,0.48,0.721c0,0.96-0.384,1.968-0.72,2.352l-18.914,0.288v2.208c0,0.673,0.24,0.96,0.912,0.96
		c3.648,0,10.417-0.096,13.249-0.239l1.44-0.769c1.44-0.048,3.6,0.096,4.656,0.336c0.528,0.145,0.912,0.576,0.912,1.104
		c0,1.344-0.336,2.304-0.672,2.64c-0.192,0.192-0.576,0.288-0.912,0.288l-22.034,0.337h-0.048c-2.977-0.097-4.225-1.393-4.225-3.937
		V14.397z M133.999,42.96c0.288,0.145,0.432,0.336,0.432,0.721c0,1.104-0.288,2.16-0.624,2.592c-4.513-0.048-14.545,0-19.73,0.096
		c-0.336,0.721-0.816,1.248-1.248,1.536h-3.504c-0.528-1.104-0.816-2.735-0.816-3.744l-0.144-9.553
		c-0.432-0.624-1.68-1.44-2.688-1.824l0.432-1.584c0.096-0.192,0.288-0.336,0.864-0.336c1.824-0.048,5.809,0.336,7.249,0.72
		c0.48,0.145,0.672,0.48,0.672,1.152l-0.096,2.353v0.72l12.145-0.144v-2.4c-0.336-0.721-1.248-1.536-2.112-2.017l0.624-1.68
		c0.096-0.288,0.336-0.433,0.912-0.385c1.92,0.145,5.185,0.769,6.577,1.345c0.48,0.192,0.624,0.576,0.576,1.152l-0.096,2.399
		l-0.048,3.648c0,1.536-0.336,3.553-0.768,4.656L133.999,42.96z M114.701,39.648l-0.048,2.735l12.289-0.096v-2.784L114.701,39.648z"
		/>
	<path d="M182.045,25.055c0,12.529-5.905,18.002-12.529,18.002c-6.672,0-12.481-5.473-12.481-18.002
		c0-12.577,5.809-18.05,12.481-18.05C176.141,7.005,182.045,12.478,182.045,25.055z M169.516,41.376c2.832,0,5.28-3.504,5.28-16.321
		c0-12.913-2.448-16.417-5.28-16.417s-5.185,3.456-5.185,16.417C164.332,37.92,166.684,41.376,169.516,41.376z"/>
	<path d="M211.229,25.055c0,12.529-5.905,18.002-12.529,18.002c-6.672,0-12.481-5.473-12.481-18.002
		c0-12.577,5.809-18.05,12.481-18.05C205.324,7.005,211.229,12.478,211.229,25.055z M198.7,41.376c2.832,0,5.28-3.504,5.28-16.321
		c0-12.913-2.448-16.417-5.28-16.417s-5.185,3.456-5.185,16.417C193.515,37.92,195.868,41.376,198.7,41.376z"/>
	<path d="M240.412,25.055c0,12.529-5.905,18.002-12.529,18.002c-6.672,0-12.481-5.473-12.481-18.002
		c0-12.577,5.809-18.05,12.481-18.05C234.507,7.005,240.412,12.478,240.412,25.055z M227.883,41.376c2.832,0,5.28-3.504,5.28-16.321
		c0-12.913-2.448-16.417-5.28-16.417s-5.185,3.456-5.185,16.417C222.698,37.92,225.051,41.376,227.883,41.376z"/>
	<path d="M269.595,25.055c0,12.529-5.905,18.002-12.529,18.002c-6.672,0-12.481-5.473-12.481-18.002
		c0-12.577,5.809-18.05,12.481-18.05C263.69,7.005,269.595,12.478,269.595,25.055z M257.066,41.376c2.832,0,5.28-3.504,5.28-16.321
		c0-12.913-2.448-16.417-5.28-16.417s-5.185,3.456-5.185,16.417C251.881,37.92,254.234,41.376,257.066,41.376z"/>
	<path d="M324.315,19.534c1.44-0.048,3.504,0.048,4.416,0.24c0.672,0.144,1.104,0.624,1.152,1.248
		c0.096,1.2-0.192,2.448-0.576,2.928c-0.336,0.433-1.104,0.625-1.68,0.625l-7.057,0.239v9.265c0,3.36-0.816,9.985-2.208,13.489
		h-3.696c-0.432-1.632-0.768-9.217-0.768-11.521v-0.48c-5.137,1.248-13.825,2.496-18.962,2.881c-1.2,0.096-3.408,0.576-4.56,1.008
		c-1.92-0.96-4.272-2.688-5.809-4.225c-0.192-0.191-0.24-0.384-0.144-0.672l0.432-0.96c2.016,0.336,4.608,0.432,6.625,0.384
		c1.584,0,3.504-0.096,5.521-0.24v-3.6c-4.32-0.816-7.393-3.36-7.393-7.009c0-4.465,4.512-7.345,10.273-7.345
		c5.664,0,10.128,2.88,10.128,7.345c0,3.504-2.832,6.048-6.864,6.912v3.265c4.176-0.384,8.208-0.864,10.753-1.393V6.285
		c-0.624-1.152-2.112-2.305-3.792-3.024l0.672-1.92c0.096-0.24,0.24-0.384,0.768-0.384c2.544,0.096,6.625,0.863,8.497,1.68
		c0.576,0.24,0.816,0.72,0.768,1.44l-0.24,3.12v13.537l2.208-0.144L324.315,19.534z M307.466,10.029
		c1.488,0.096,3.744,0.433,4.656,0.769c0.384,0.144,0.624,0.527,0.624,1.008c0,1.296-0.72,2.496-1.248,2.832
		c-0.864-0.048-3.408-0.096-4.561-0.096c-1.728,0-11.905,0.288-13.585,0.384c-1.056,0.096-2.832,0.384-3.792,0.624
		c-1.584-0.816-3.216-2.208-4.272-3.408c-0.192-0.192-0.192-0.432-0.096-0.624l0.384-0.769c1.632,0.288,3.792,0.48,5.089,0.48
		c1.968,0,13.009-0.288,15.073-0.432L307.466,10.029z M292.296,3.741c4.176,0.72,8.641,0.96,11.473,0.912
		c0.624,0,0.96,0.096,1.2,0.527c0.576,0.912,0.432,2.977-0.288,3.601c-0.288,0.24-0.624,0.288-1.056,0.288
		c-1.824,0-5.232,0.096-7.153,0.24c-0.672,0.096-1.056,0.048-1.44-0.24c-1.056-0.768-2.4-2.496-3.216-3.889
		c-0.144-0.336-0.144-0.576,0-0.815L292.296,3.741z M299.881,26.687c2.256,0,3.888-1.296,3.888-3.552
		c0-2.257-1.632-3.601-3.888-3.601c-2.256,0-3.889,1.344-3.889,3.601C295.993,25.391,297.625,26.687,299.881,26.687z"/>
	<path d="M360.218,1.341c0.096-0.24,0.24-0.384,0.769-0.384c2.544,0.096,6.625,0.863,8.497,1.68c0.576,0.24,0.816,0.72,0.768,1.44
		l-0.24,3.12v27.026c0,3.36-0.816,9.984-2.208,13.489h-3.696c-0.432-1.632-0.768-9.217-0.768-11.521v-8.353
		c-1.296,0.048-2.544,0.145-3.168,0.192c-0.768,0.048-2.112,0.336-2.88,0.527c-1.44-0.815-2.64-1.872-3.6-2.976
		c-0.24-0.288-0.24-0.48-0.096-0.721l0.48-0.768c1.104,0.192,2.736,0.288,4.033,0.288c1.152,0,3.36-0.048,5.232-0.145v-6.912
		c-1.248,0.048-2.4,0.144-3.024,0.192c-0.768,0.048-2.112,0.336-2.88,0.527c-1.008-0.576-1.92-1.248-2.688-2.016
		c-0.24,1.2-0.48,2.352-0.72,3.12l1.296,0.624c0.336,0.191,0.528,0.432,0.528,0.768c0,1.057-0.384,2.112-0.72,2.545l-12.433,0.432
		v6.913c0,0.672,0.288,0.96,1.008,0.96c3.744-0.048,10.081-0.528,13.345-1.104c0.48-0.096,0.72,0,0.768,0.336l0.384,1.632
		c0.048,0.288-0.096,0.576-0.48,0.769c-3.552,1.776-9.312,3.408-13.201,3.601c-0.864,0.048-1.584,0.048-2.352,0.048
		c-3.648,0-4.849-0.624-5.953-3.408c-0.096-0.24-0.192-1.584-0.192-3.072v-7.153c-0.624-0.72-1.68-1.344-2.832-1.775l0.336-1.536
		c0.048-0.192,0.24-0.336,0.576-0.336c2.017,0,6.817,0.096,8.641,0.288c1.248-0.049,3.456-0.145,4.32-0.24l0.96-0.24
		c0.144-1.2,0.144-5.856,0.048-6.864c-1.824-0.048-4.896-0.048-5.76,0c-1.056,0.096-2.832,0.432-4.128,0.768
		c-1.584-0.96-3.12-2.208-4.32-3.408c-0.192-0.192-0.24-0.384-0.144-0.672l0.432-0.816c1.44,0.288,3.792,0.433,5.041,0.433
		c1.776,0,8.112,0,9.889-0.097l2.304-0.96c0.336-0.144,0.72-0.144,1.056,0c0.864,0.336,2.64,1.152,3.36,1.584
		c0.288,0.145,0.288,0.433,0.192,0.721l-0.72,2.304c0,0.433-0.096,0.96-0.144,1.536c0.96,0.096,2.16,0.145,3.121,0.145
		c1.104,0,3.264-0.049,5.088-0.145v-7.44c-0.624-1.152-2.112-2.305-3.792-3.024L360.218,1.341z"/>
	<path d="M400.057,10.365c1.536,0.097,3.744,0.433,4.656,0.769c0.384,0.144,0.624,0.576,0.624,1.008c0,1.344-0.672,2.592-1.2,2.929
		c-0.864-0.097-3.457-0.097-4.608-0.097c-1.776,0-12.481,0.24-14.257,0.385c-1.008,0.048-2.833,0.384-3.792,0.624
		c-1.584-0.864-3.216-2.257-4.272-3.505c-0.192-0.191-0.192-0.432-0.096-0.624l0.384-0.768c1.632,0.288,3.84,0.432,5.137,0.432
		c2.064,0.048,13.585-0.24,15.745-0.384L400.057,10.365z M392.041,31.968c-5.712,0-10.417-3.024-10.417-7.873
		c0-4.753,4.705-7.729,10.417-7.729c5.665,0,10.321,2.976,10.321,7.729C402.361,28.943,397.705,31.968,392.041,31.968z
		 M384.408,3.789c4.32,0.72,8.929,0.96,11.857,0.912c0.624,0,0.96,0.096,1.2,0.528c0.528,0.863,0.432,2.976-0.24,3.6
		c-0.288,0.24-0.672,0.288-1.104,0.288c-1.92,0-5.521,0.097-7.537,0.24c-0.672,0.096-1.056,0.048-1.44-0.24
		c-1.056-0.768-2.4-2.496-3.216-3.888c-0.144-0.337-0.144-0.576,0-0.816L384.408,3.789z M410.378,41.185
		c1.728-0.049,4.225,0.144,5.425,0.432c0.624,0.144,0.96,0.576,0.96,1.152c0,1.584-0.48,2.736-0.864,3.12
		c-0.24,0.24-0.624,0.336-1.056,0.336l-19.778,0.192c-3.888-0.049-5.424-1.585-5.424-4.608v-3.409
		c-0.768-0.72-2.064-1.487-3.312-1.968l0.384-1.632c0.048-0.24,0.336-0.48,0.816-0.48c2.256,0,6.289,0.288,8.017,0.672
		c0.624,0.145,0.96,0.576,0.96,1.297l-0.096,2.736v2.256c0,0.816,0.336,1.2,1.152,1.2c2.64,0.048,7.969-0.048,10.705-0.145
		L410.378,41.185z M392.041,27.887c2.304,0,4.032-1.392,4.032-3.792s-1.728-3.792-4.032-3.792s-4.032,1.392-4.032,3.792
		S389.736,27.887,392.041,27.887z M417.051,17.854c1.44-0.049,3.504,0.048,4.416,0.239c0.672,0.145,1.104,0.624,1.152,1.248
		c0.096,1.2-0.192,2.448-0.576,2.929c-0.336,0.432-1.104,0.624-1.68,0.624l-7.057,0.24v0.432c0,3.937-0.816,9.649-2.208,12.722
		h-3.696c-0.48-1.776-0.768-8.305-0.768-10.85V6.237c-0.576-1.104-2.016-2.257-3.601-2.929l0.672-1.968
		c0.096-0.24,0.288-0.384,0.816-0.384c2.496,0.096,6.433,0.863,8.257,1.68c0.528,0.24,0.768,0.72,0.72,1.44l-0.192,3.024v11.953
		l2.208-0.145L417.051,17.854z"/>
	<path d="M461.448,31.007c0.048,0.24-0.096,0.528-0.432,0.769c-2.448,1.44-6.96,3.12-10.081,3.552
		c-0.816,0.097-1.729,0.192-2.305,0.192c-3.216,0-4.56-1.008-5.376-3.601c-0.096-0.288-0.192-1.439-0.192-2.64V14.878
		c-0.624-0.769-1.68-1.488-2.88-1.968l0.432-1.729c0.096-0.192,0.24-0.336,0.576-0.336c1.968,0,6.577,0.191,8.401,0.432
		c0.912-0.048,3.024-0.144,3.696-0.24l1.392-0.96c1.248-0.048,3.312,0.097,4.32,0.24c0.576,0.145,0.864,0.528,0.864,1.057
		c0,1.439-0.432,2.592-0.912,3.072c-0.24,0.191-0.528,0.287-0.96,0.287l-8.449,0.337v14.257c0,0.576,0.24,0.816,0.864,0.816
		c2.832-0.049,7.489-0.48,9.889-1.057c0.432-0.096,0.672,0,0.768,0.336L461.448,31.007z M461.496,4.604
		c0.096-0.239,0.288-0.384,0.864-0.384c2.16,0.097,5.616,0.864,7.201,1.633c0.48,0.239,0.672,0.672,0.672,1.344l-0.192,2.592v22.946
		c0,3.072-0.768,8.929-1.968,12.001h-3.312c-0.432-1.824-0.769-8.112-0.769-10.272V22.99c-1.152,0.048-2.592,0.097-3.168,0.145
		c-0.864,0.048-2.256,0.336-3.12,0.624c-1.344-0.864-2.448-1.776-3.36-2.881c-0.144-0.239-0.192-0.432-0.096-0.672l0.48-0.815
		c1.056,0.096,2.592,0.144,3.792,0.144c1.296,0,3.792-0.048,5.472-0.144V9.021c-0.528-0.96-1.824-1.92-3.216-2.544L461.496,4.604z
		 M470.137,1.341c0.144-0.24,0.336-0.384,0.864-0.384c2.304,0.096,6.049,0.863,7.777,1.68c0.528,0.24,0.768,0.672,0.72,1.393
		l-0.192,2.832v27.506c0,3.312-0.816,9.745-2.16,13.201h-3.504c-0.432-1.68-0.768-9.024-0.768-11.329V5.997
		c-0.528-1.008-1.92-2.064-3.408-2.736L470.137,1.341z"/>
	<path d="M514.248,1.341c0.096-0.24,0.24-0.384,0.768-0.384c2.544,0.096,6.625,0.863,8.497,1.68c0.576,0.24,0.816,0.72,0.768,1.44
		l-0.24,3.12v26.882c0,3.36-0.816,9.985-2.208,13.489h-3.696c-0.432-1.632-0.768-9.217-0.768-11.521v-6.769
		c-3.168,0.72-7.584,1.44-11.905,2.016v2.497c0,3.168-1.056,9.553-2.16,12.289h-3.648c-0.336-1.873-0.768-8.113-0.768-10.321v-3.744
		c-1.008,0.096-1.92,0.191-2.784,0.239c-1.2,0.097-3.408,0.576-4.561,1.009c-1.92-0.96-4.272-2.688-5.809-4.225
		c-0.24-0.24-0.288-0.384-0.144-0.672l0.432-0.96c2.016,0.336,4.608,0.432,6.625,0.384c6.913-0.096,19.394-1.056,24.722-2.16V6.285
		c-0.624-1.152-2.112-2.305-3.792-3.024L514.248,1.341z M490.822,9.981c-0.384-0.624-1.536-1.488-2.448-1.824l0.432-1.632
		c0.048-0.192,0.24-0.336,0.864-0.336c1.824-0.048,5.665,0.336,7.152,0.72c0.48,0.144,0.672,0.528,0.624,1.152l-0.096,2.352v1.104
		l9.073-0.096v-3.36c-0.384-0.672-1.44-1.488-2.4-1.92l0.576-1.585c0.144-0.288,0.336-0.432,0.912-0.384
		c1.872,0.096,5.521,0.672,6.913,1.152c0.528,0.191,0.672,0.576,0.624,1.152l-0.144,2.544l-0.048,5.425
		c0,1.584-0.336,3.552-0.672,4.656l0.96,0.384c0.288,0.144,0.432,0.384,0.432,0.672c0,1.104-0.336,2.208-0.72,2.593
		c-3.696-0.049-11.665,0.048-15.985,0.144c-0.336,1.008-0.912,1.681-1.44,2.017h-3.504c-0.528-1.104-0.816-2.688-0.816-3.696
		L490.822,9.981z M497.303,15.358l-0.048,3.6l9.169-0.096v-3.601L497.303,15.358z"/>
</g>
<g>
	<rect x="11.965" y="226.914" class="st0" width="665.035" height="204.585"/>
	<path d="M27.785,240.018c0,7.309-3.444,10.5-7.308,10.5c-3.892,0-7.28-3.191-7.28-10.5c0-7.336,3.388-10.527,7.28-10.527
		C24.341,229.49,27.785,232.682,27.785,240.018z M20.477,249.538c1.652,0,3.08-2.044,3.08-9.521c0-7.531-1.428-9.575-3.08-9.575
		c-1.652,0-3.024,2.016-3.024,9.575C17.453,247.522,18.825,249.538,20.477,249.538z"/>
	<path d="M44.808,240.018c0,7.309-3.444,10.5-7.308,10.5c-3.892,0-7.28-3.191-7.28-10.5c0-7.336,3.388-10.527,7.28-10.527
		C41.364,229.49,44.808,232.682,44.808,240.018z M37.5,249.538c1.652,0,3.08-2.044,3.08-9.521c0-7.531-1.428-9.575-3.08-9.575
		c-1.652,0-3.024,2.016-3.024,9.575C34.476,247.522,35.848,249.538,37.5,249.538z"/>
	<path d="M68.384,245.702c1.232,0.056,3.024,0.336,3.78,0.616c0.308,0.111,0.504,0.363,0.504,0.728c0,0.812-0.532,1.568-0.952,1.764
		c-0.7-0.084-2.772-0.14-3.724-0.14c-1.932,0-12.852,0.112-14.616,0.224c-0.756,0.057-2.576,0.364-3.388,0.589
		c-1.176-0.477-2.492-1.429-3.332-2.269c-0.112-0.112-0.14-0.308-0.084-0.448l0.28-0.531c1.176,0.195,2.716,0.308,3.836,0.336
		c0.896,0,4.032,0,7.364-0.057l-0.028-3.947c-0.252-0.393-1.008-0.868-1.596-1.093l0.28-1.008c0.028-0.111,0.112-0.195,0.476-0.195
		c1.064-0.028,3.584,0.224,4.396,0.447c0.308,0.084,0.448,0.336,0.392,0.672l-0.168,1.624l-0.084,3.444
		c2.492-0.056,4.62-0.112,5.348-0.168L68.384,245.702z M48.476,241.306c-0.084-0.14-0.028-0.279,0.112-0.363
		c4.788-2.801,8.148-6.301,9.66-9.912c-0.252-0.504-0.868-1.12-1.512-1.484l0.532-0.924c0.084-0.14,0.224-0.224,0.504-0.168
		c1.54,0.252,3.668,0.952,4.592,1.484c0.364,0.224,0.588,0.504,0.588,0.756c-0.028,0.363-0.084,0.644-0.196,0.868
		c-0.42,0.924-0.98,1.848-1.68,2.743l4.452,2.128l1.96,0.141c0.784,0.476,1.876,1.315,2.352,1.819
		c0.448,0.477,0.644,0.841,0.616,1.177c-0.028,0.7-0.728,1.288-1.344,1.288c-0.336,0.027-0.784-0.141-1.148-0.336l-8.512-4.396
		c-2.52,2.464-6.02,4.592-10.052,5.908c-0.196,0.056-0.336,0.056-0.42-0.057L48.476,241.306z"/>
	<path d="M95.432,238.758c1.232,0.057,3.024,0.336,3.78,0.616c0.308,0.112,0.504,0.364,0.504,0.728c0,0.812-0.532,1.568-0.952,1.765
		c-0.7-0.084-2.772-0.141-3.724-0.141c-1.932,0-12.852,0.112-14.616,0.225c-0.756,0.056-2.576,0.364-3.388,0.588
		c-1.176-0.476-2.492-1.428-3.332-2.268c-0.112-0.112-0.14-0.309-0.084-0.448l0.28-0.532c1.176,0.196,2.716,0.308,3.836,0.336
		c0.868,0,3.948,0,7.252-0.056l-0.028-2.101c-0.224-0.336-0.784-0.728-1.288-0.924l0.308-1.008c0.056-0.14,0.14-0.224,0.532-0.224
		c1.12,0,3.192,0.224,4.06,0.476c0.308,0.084,0.42,0.308,0.336,0.644l-0.196,1.513l-0.028,1.567c2.52-0.056,4.676-0.111,5.432-0.168
		L95.432,238.758z M76.111,236.826c-0.084-0.14-0.056-0.309,0.112-0.393c4.172-2.1,7.14-4.676,8.652-7.504
		c-0.196-0.392-0.7-0.896-1.232-1.203l0.504-0.925c0.084-0.14,0.252-0.195,0.56-0.168c1.344,0.141,3.556,0.729,4.396,1.177
		c0.364,0.168,0.56,0.447,0.56,0.756c-0.028,0.42-0.112,0.672-0.224,0.868c-0.308,0.531-0.672,1.035-1.092,1.539l3.612,1.54
		l2.268,0.028c0.784,0.392,1.904,1.092,2.38,1.512c0.448,0.393,0.616,0.729,0.616,1.036c0,0.7-0.672,1.372-1.288,1.428
		c-0.308,0.028-0.728-0.111-1.092-0.252l-8.148-3.611c-2.464,2.155-5.852,3.892-9.604,4.899c-0.252,0.057-0.364,0.057-0.448-0.027
		L76.111,236.826z M92.184,243.518c0.168-0.056,0.448-0.056,0.616,0c0.532,0.253,1.512,0.784,1.876,1.036
		c0.14,0.112,0.14,0.252,0.084,0.477l-0.392,1.315l-0.084,2.632c0,1.372-0.504,3.444-1.092,4.425h-2.296
		c-0.252-0.757-0.42-2.633-0.42-3.557v-3.5c-2.128-0.056-5.768,0-6.804,0.084c-0.784,0.028-2.1,0.252-2.856,0.504
		c-1.12-0.476-2.24-1.231-3.024-1.96c-0.168-0.14-0.196-0.279-0.112-0.447l0.28-0.532c1.092,0.14,2.464,0.224,3.444,0.224
		c1.4,0,7.952-0.111,9.66-0.224L92.184,243.518z"/>
	<path d="M114.416,240.13c0.476,0.756,1.12,1.96,1.372,2.604c0.224,0.615,0.224,1.008,0.084,1.288
		c-0.308,0.615-1.232,0.924-1.792,0.699c-0.28-0.111-0.616-0.447-0.868-0.728l-4.396-5.068c-1.736,2.464-4.144,4.788-7.084,6.636
		c-0.196,0.112-0.336,0.112-0.476,0.028l-0.672-0.56c-0.112-0.112-0.112-0.252,0.028-0.42c3.808-3.809,6.216-8.316,6.86-12.376
		c-0.28-0.561-0.924-1.204-1.624-1.568l0.476-0.979c0.084-0.141,0.196-0.196,0.476-0.168c1.316,0.111,3.668,0.728,4.564,1.176
		c0.336,0.168,0.56,0.447,0.56,0.728c0,0.309-0.028,0.616-0.084,0.84c-0.28,1.484-0.868,3.024-1.708,4.564l2.548,2.688
		L114.416,240.13z M123.907,236.938c0.84-0.028,2.044,0.027,2.576,0.14c0.392,0.084,0.644,0.364,0.672,0.728
		c0.056,0.7-0.112,1.429-0.336,1.708c-0.196,0.252-0.644,0.364-0.98,0.364l-4.116,0.14v5.265c0,1.96-0.476,5.824-1.288,7.868h-2.156
		c-0.252-0.952-0.448-5.376-0.448-6.721V229.07c-0.364-0.672-1.232-1.344-2.212-1.765l0.392-1.119
		c0.056-0.141,0.14-0.225,0.448-0.225c1.484,0.057,3.864,0.504,4.956,0.98c0.336,0.14,0.476,0.42,0.448,0.84l-0.14,1.82v8.035
		l1.288-0.084L123.907,236.938z"/>
	<path d="M144.823,226.187c0.056-0.141,0.14-0.225,0.448-0.225c1.484,0.057,3.864,0.504,4.956,0.98
		c0.336,0.14,0.476,0.42,0.448,0.84l-0.14,1.82v15.68c0,1.96-0.476,5.824-1.288,7.868h-2.156c-0.252-0.952-0.448-5.376-0.448-6.721
		v-1.624c-3.304,0.756-8.988,1.568-12.264,1.765c-0.728,0.056-2.044,0.336-2.716,0.615c-1.12-0.588-2.492-1.596-3.388-2.491
		c-0.14-0.141-0.168-0.225-0.084-0.393l0.252-0.56c1.176,0.196,2.688,0.252,3.864,0.224c4.032-0.084,11.228-0.644,14.336-1.315
		v-13.58c-0.364-0.672-1.232-1.344-2.212-1.765L144.823,226.187z M130.487,235.426c0-3.191,2.716-5.544,6.552-5.544
		s6.608,2.353,6.608,5.544c0,3.276-2.772,5.628-6.608,5.628S130.487,238.702,130.487,235.426z M134.323,235.426
		c0,1.652,1.092,2.716,2.716,2.716s2.716-1.063,2.716-2.716c0-1.651-1.092-2.716-2.716-2.716S134.323,233.774,134.323,235.426z"/>
	<path d="M175.819,240.466c0.392,0.812,0.868,2.044,1.064,2.716c0.168,0.589,0.168,0.98,0.028,1.204
		c-0.308,0.504-1.148,0.729-1.652,0.477c-0.252-0.141-0.56-0.477-0.784-0.784l-3.22-4.256c-1.512,2.1-3.556,4.116-6.02,5.768
		c-0.196,0.141-0.364,0.141-0.504,0.028l-0.7-0.616c-0.112-0.112-0.112-0.252,0.028-0.42c3.304-3.64,5.376-7.756,5.908-11.479
		c-0.224-0.448-0.784-1.009-1.4-1.345l0.504-1.008c0.056-0.112,0.196-0.168,0.476-0.14c1.26,0.111,3.416,0.672,4.2,1.092
		c0.336,0.168,0.532,0.42,0.532,0.7c0.028,0.308,0,0.616-0.056,0.812c-0.252,1.456-0.812,2.996-1.624,4.508l1.932,2.24
		L175.819,240.466z M181.923,226.187c0.084-0.141,0.196-0.225,0.504-0.225c1.344,0.057,3.528,0.504,4.536,0.98
		c0.308,0.14,0.448,0.392,0.42,0.812l-0.112,1.652v16.044c0,1.932-0.476,5.684-1.26,7.7h-2.044c-0.252-0.98-0.448-5.265-0.448-6.608
		v-7.252l-2.016,0.056v5.097c0,1.792-0.448,5.208-1.148,7h-1.932c-0.252-1.064-0.448-4.732-0.448-5.992v-14.84
		c-0.308-0.561-1.064-1.12-1.876-1.484l0.42-1.092c0.056-0.14,0.168-0.224,0.504-0.224c1.26,0.056,3.276,0.504,4.2,0.951
		c0.28,0.141,0.392,0.393,0.392,0.784l-0.112,1.512v5.908l2.016-0.056v-8.008c-0.308-0.588-1.12-1.204-1.988-1.597L181.923,226.187z
		"/>
	<path d="M218.182,235.678c-1.008,0-2.128,0.028-2.632,0.112c-0.42,0.056-1.288,0.252-1.736,0.42
		c-0.728-0.392-1.344-0.84-1.876-1.344c-2.492,3.191-6.244,6.02-10.528,7.756c-0.252,0.112-0.42,0.14-0.504,0.056l-0.56-0.615
		c-0.112-0.141-0.14-0.253,0-0.421c4.424-2.884,7.756-6.832,9.324-10.5c-1.204,0.028-2.828,0.028-3.332,0.084
		c-0.616,0.028-1.708,0.225-2.352,0.421c-0.924-0.448-1.932-1.204-2.576-1.876c-0.14-0.168-0.14-0.28-0.084-0.421l0.252-0.363
		c0.924,0.14,2.072,0.195,2.884,0.195c1.008,0.028,5.068-0.056,6.244-0.168l1.26-0.56c0.196-0.084,0.504-0.084,0.672,0
		c0.56,0.252,1.596,0.84,1.988,1.12c0.168,0.14,0.196,0.308,0.084,0.504l-0.56,1.063c-0.364,0.841-0.784,1.652-1.316,2.465
		c0.504,0.027,1.008,0.056,1.456,0.056c0.84,0.028,2.604,0,3.892-0.084v-4.536c-0.336-0.644-1.176-1.315-2.1-1.708l0.392-1.147
		c0.056-0.141,0.168-0.225,0.476-0.225c1.456,0.057,3.752,0.504,4.816,0.98c0.308,0.14,0.448,0.42,0.42,0.84l-0.112,1.764v5.656
		c0,1.428-0.56,4.06-1.176,5.18h-2.268c-0.28-0.812-0.448-3.332-0.448-4.34V235.678z M220.142,249.65
		c0.924-0.028,2.24,0.111,2.884,0.279c0.336,0.084,0.56,0.336,0.56,0.672c0,0.812-0.224,1.4-0.42,1.597
		c-0.14,0.14-0.364,0.195-0.588,0.195l-12.264,0.084c-1.988-0.027-2.744-0.812-2.744-2.352v-2.212
		c-0.364-0.42-0.952-0.756-1.624-1.008l0.14-0.812c0.028-0.111,0.14-0.195,0.336-0.195c1.204,0,4.032,0.056,5.096,0.168
		c1.4,0,4.648-0.028,5.712-0.084l0.616-0.141c0.056-0.476,0.056-1.483,0.028-1.876c-1.792,0-5.432,0.028-6.3,0.084
		c-0.7,0.028-1.876,0.196-2.66,0.393c-0.98-0.532-1.96-1.316-2.688-2.044c-0.14-0.141-0.14-0.225-0.084-0.393l0.252-0.448
		c0.896,0.168,2.38,0.28,3.108,0.28c1.372,0,7.616-0.056,9.044-0.112l1.204-0.504c0.168-0.084,0.364-0.084,0.588,0
		c0.476,0.168,1.456,0.561,1.848,0.756c0.14,0.112,0.168,0.309,0.084,0.532l-0.504,1.12c-0.056,0.672-0.364,1.792-0.588,2.296
		l0.532,0.252c0.168,0.084,0.28,0.252,0.28,0.42c0,0.616-0.224,1.204-0.42,1.456l-10.108,0.112v1.4c0,0.42,0.168,0.588,0.532,0.588
		c1.764,0.027,5.516,0,7.224-0.057L220.142,249.65z"/>
	<path d="M248.03,245.03c1.232,0.056,3.024,0.336,3.78,0.616c0.308,0.111,0.504,0.363,0.504,0.728c0,0.812-0.532,1.568-0.952,1.764
		c-0.7-0.084-2.772-0.14-3.724-0.14c-1.932,0-12.852,0.112-14.616,0.224c-0.756,0.057-2.576,0.364-3.388,0.588
		c-1.176-0.476-2.492-1.428-3.332-2.268c-0.112-0.112-0.14-0.308-0.084-0.448l0.28-0.532c1.176,0.196,2.716,0.309,3.836,0.337
		c1.316,0.027,7.672-0.028,12.152-0.141c0.7-3.22,1.176-9.128,1.26-13.02c-2.464,0-7,0.111-8.316,0.195
		c-0.868,0.057-2.212,0.253-3.024,0.505c-1.064-0.561-2.212-1.429-2.94-2.213c-0.168-0.168-0.168-0.279-0.112-0.447l0.252-0.504
		c1.064,0.168,2.436,0.252,3.388,0.252c1.484,0.027,9.184-0.112,11.172-0.252l1.428-0.7c0.196-0.084,0.476-0.084,0.672,0
		c0.588,0.28,1.736,0.924,2.212,1.231c0.14,0.112,0.168,0.28,0.084,0.505l-0.532,1.483c-0.112,3.864-1.232,9.212-2.828,12.908
		c0.672-0.028,1.204-0.056,1.512-0.084L248.03,245.03z"/>
	<path d="M275.078,238.758c1.232,0.057,3.024,0.336,3.78,0.616c0.308,0.112,0.504,0.364,0.504,0.728
		c0,0.812-0.532,1.568-0.952,1.765c-0.7-0.084-2.772-0.141-3.724-0.141c-0.868,0-3.528,0.028-6.356,0.057v0.056
		c0,1.148-0.392,2.521-0.952,3.22h-2.436c-0.308-0.588-0.448-1.708-0.448-2.491v-0.729c-2.072,0.028-3.808,0.084-4.424,0.112
		c-0.756,0.056-2.576,0.364-3.388,0.588c-1.176-0.476-2.492-1.428-3.332-2.268c-0.112-0.112-0.14-0.309-0.084-0.448l0.28-0.532
		c1.176,0.196,2.716,0.308,3.836,0.336c1.904,0.028,14.364-0.112,16.38-0.28L275.078,238.758z M258.642,233.802
		c-0.364-0.42-0.98-0.783-1.652-1.036l0.168-0.812c0.028-0.112,0.14-0.196,0.336-0.196c1.204,0,4.088,0.057,5.124,0.168
		c1.792,0,5.292-0.056,6.468-0.14l0.532-0.112c0.112-0.392,0.14-1.344,0.112-1.735c-2.044,0-6.048,0.084-6.972,0.111
		c-0.7,0.057-1.82,0.196-2.632,0.393c-0.98-0.504-1.96-1.288-2.66-1.988c-0.168-0.168-0.168-0.252-0.084-0.392l0.224-0.448
		c0.896,0.168,2.408,0.28,3.08,0.28c1.316,0.027,8.204-0.084,9.828-0.168l1.232-0.505c0.168-0.084,0.42-0.084,0.616,0
		c0.476,0.196,1.484,0.616,1.848,0.841c0.168,0.111,0.196,0.308,0.084,0.504l-0.476,1.036c-0.112,0.615-0.448,1.596-0.7,2.071
		l0.616,0.309c0.168,0.084,0.28,0.252,0.28,0.42c0,0.56-0.224,1.147-0.42,1.372l-11.032,0.168v1.288c0,0.392,0.14,0.56,0.532,0.56
		c2.128,0,6.076-0.056,7.728-0.14l0.84-0.448c0.84-0.028,2.1,0.056,2.716,0.196c0.308,0.084,0.532,0.336,0.532,0.644
		c0,0.784-0.196,1.344-0.392,1.54c-0.112,0.112-0.336,0.168-0.532,0.168l-12.852,0.196h-0.028c-1.736-0.057-2.464-0.812-2.464-2.296
		V233.802z M274.462,250.462c0.168,0.084,0.252,0.196,0.252,0.42c0,0.645-0.168,1.26-0.364,1.512c-2.632-0.027-8.484,0-11.508,0.057
		c-0.196,0.42-0.476,0.728-0.728,0.896h-2.044c-0.308-0.644-0.476-1.596-0.476-2.184l-0.084-5.572
		c-0.252-0.364-0.98-0.84-1.568-1.063l0.252-0.925c0.056-0.111,0.168-0.195,0.504-0.195c1.064-0.028,3.388,0.195,4.228,0.42
		c0.28,0.084,0.392,0.28,0.392,0.672l-0.056,1.372v0.42l7.084-0.084v-1.4c-0.196-0.42-0.728-0.896-1.232-1.176l0.364-0.979
		c0.056-0.168,0.196-0.252,0.532-0.225c1.12,0.084,3.024,0.448,3.836,0.784c0.28,0.112,0.364,0.336,0.336,0.672l-0.056,1.4
		l-0.028,2.128c0,0.896-0.196,2.072-0.448,2.716L274.462,250.462z M263.206,248.53l-0.028,1.596l7.168-0.056v-1.624L263.206,248.53z
		"/>
	<path d="M302.49,240.018c0,7.309-3.444,10.5-7.308,10.5c-3.892,0-7.28-3.191-7.28-10.5c0-7.336,3.388-10.527,7.28-10.527
		C299.046,229.49,302.49,232.682,302.49,240.018z M295.182,249.538c1.652,0,3.08-2.044,3.08-9.521c0-7.531-1.428-9.575-3.08-9.575
		c-1.652,0-3.024,2.016-3.024,9.575C292.158,247.522,293.53,249.538,295.182,249.538z"/>
	<path d="M319.513,240.018c0,7.309-3.444,10.5-7.308,10.5c-3.892,0-7.28-3.191-7.28-10.5c0-7.336,3.388-10.527,7.28-10.527
		C316.069,229.49,319.513,232.682,319.513,240.018z M312.205,249.538c1.652,0,3.08-2.044,3.08-9.521c0-7.531-1.428-9.575-3.08-9.575
		c-1.652,0-3.024,2.016-3.024,9.575C309.181,247.522,310.553,249.538,312.205,249.538z"/>
	<path d="M336.537,240.018c0,7.309-3.444,10.5-7.308,10.5c-3.892,0-7.28-3.191-7.28-10.5c0-7.336,3.388-10.527,7.28-10.527
		C333.093,229.49,336.537,232.682,336.537,240.018z M329.229,249.538c1.652,0,3.08-2.044,3.08-9.521c0-7.531-1.428-9.575-3.08-9.575
		c-1.652,0-3.024,2.016-3.024,9.575C326.205,247.522,327.577,249.538,329.229,249.538z"/>
	<path d="M353.56,240.018c0,7.309-3.444,10.5-7.308,10.5c-3.892,0-7.28-3.191-7.28-10.5c0-7.336,3.388-10.527,7.28-10.527
		C350.116,229.49,353.56,232.682,353.56,240.018z M346.252,249.538c1.652,0,3.08-2.044,3.08-9.521c0-7.531-1.428-9.575-3.08-9.575
		c-1.652,0-3.024,2.016-3.024,9.575C343.228,247.522,344.6,249.538,346.252,249.538z"/>
	<path d="M367.28,230.414c0.196-0.084,0.504-0.084,0.7,0c0.532,0.252,1.596,0.812,2.016,1.092c0.168,0.112,0.168,0.309,0.056,0.504
		l-0.56,1.064c-1.484,5.264-6.272,10.668-12.432,13.804c-0.196,0.112-0.364,0.112-0.476,0.028l-0.588-0.561
		c-0.14-0.14-0.168-0.279-0.028-0.447c4.508-3.612,7.84-8.513,9.072-12.769c-1.26,0-2.912,0.028-3.444,0.057
		c-0.644,0.027-1.792,0.224-2.436,0.447c-0.98-0.476-1.988-1.204-2.66-1.876c-0.14-0.168-0.168-0.279-0.084-0.42l0.252-0.42
		c0.924,0.14,2.128,0.224,2.968,0.224c1.064,0,5.18-0.056,6.468-0.14L367.28,230.414z M378.563,236.966
		c0.84-0.027,2.044,0.028,2.576,0.141c0.392,0.084,0.644,0.363,0.672,0.728c0.056,0.7-0.112,1.428-0.336,1.708
		c-0.196,0.252-0.644,0.364-0.98,0.364l-4.116,0.14v5.236c0,1.96-0.476,5.824-1.288,7.868h-2.156
		c-0.252-0.952-0.448-5.376-0.448-6.721V229.07c-0.364-0.672-1.232-1.344-2.212-1.765l0.392-1.119
		c0.056-0.141,0.14-0.225,0.448-0.225c1.484,0.057,3.864,0.504,4.956,0.98c0.336,0.14,0.476,0.42,0.448,0.84l-0.14,1.82v8.063
		l1.288-0.084L378.563,236.966z"/>
	<path d="M403.567,249.174v0.868h-12.46v-0.868l4.004-0.504c0.028-1.764,0.056-3.556,0.056-5.264v-11.34l-3.304,0.308v-1.036
		l7.588-1.735l0.42,0.308l-0.112,4.563v8.933c0,1.708,0.028,3.5,0.056,5.264L403.567,249.174z"/>
	<path d="M410.343,238.394c1.204-0.363,2.436-0.504,3.78-0.504c4.732,0,7.644,2.156,7.644,6.021c0,4.284-3.472,6.607-8.232,6.607
		c-3.92,0-6.3-1.932-6.524-4.983c0.336-0.84,1.064-1.26,1.82-1.26c1.148,0,1.792,0.615,1.988,2.268l0.392,2.772
		c0.448,0.168,0.896,0.224,1.512,0.224c2.548,0,4.256-1.904,4.256-5.124c0-3.332-1.512-5.012-4.004-5.012
		c-1.176,0-2.156,0.14-3.22,0.476l-0.812-0.532l0.672-9.38h11.396v3.444h-10.304L410.343,238.394z"/>
	<path d="M431.902,239.766c-3.808,0-6.58-2.296-6.58-5.6c0-3.248,2.772-5.516,6.58-5.516c3.836,0,6.58,2.268,6.58,5.516
		C438.482,237.47,435.738,239.766,431.902,239.766z M431.902,236.91c1.652,0,2.8-1.036,2.8-2.744s-1.148-2.771-2.8-2.771
		s-2.8,1.063-2.8,2.771S430.25,236.91,431.902,236.91z M444.25,249.762c0.924-0.027,2.24,0.112,2.884,0.28
		c0.364,0.084,0.56,0.336,0.56,0.672c0,0.812-0.224,1.4-0.42,1.596c-0.112,0.141-0.336,0.196-0.588,0.196l-12.376,0.084
		c-1.96-0.028-2.716-0.812-2.716-2.352v-2.353c-0.364-0.42-0.952-0.756-1.624-1.008l0.14-0.812c0.028-0.112,0.14-0.196,0.336-0.196
		c1.204,0,4.032,0.056,5.096,0.168c1.512,0,4.788-0.028,5.88-0.084l0.616-0.14c0.056-0.477,0.056-1.484,0.028-1.904
		c-1.82,0-5.572,0.028-6.468,0.084c-0.7,0.028-1.876,0.196-2.66,0.392c-0.98-0.531-1.96-1.315-2.688-2.044
		c-0.14-0.14-0.14-0.224-0.084-0.392l0.252-0.448c0.896,0.168,2.38,0.28,3.108,0.28c1.372,0,7.784-0.057,9.212-0.112l1.204-0.504
		c0.168-0.084,0.364-0.084,0.588,0c0.476,0.168,1.456,0.56,1.848,0.756c0.14,0.112,0.168,0.309,0.084,0.532l-0.504,1.12
		c-0.056,0.672-0.336,1.792-0.588,2.324l0.532,0.252c0.168,0.084,0.28,0.252,0.28,0.42c0,0.615-0.224,1.204-0.42,1.456
		l-10.276,0.111v1.54c0,0.42,0.168,0.588,0.532,0.588c1.764,0.028,5.572,0,7.308-0.056L444.25,249.762z M442.346,229.042
		c-0.336-0.644-1.176-1.315-2.1-1.708l0.392-1.147c0.056-0.141,0.168-0.225,0.476-0.225c1.456,0.057,3.752,0.504,4.816,0.98
		c0.308,0.14,0.448,0.42,0.42,0.84l-0.112,1.764v5.656c0,1.428-0.56,4.06-1.176,5.18h-2.268c-0.28-0.812-0.448-3.332-0.448-4.34
		V229.042z"/>
	<path d="M474.042,241.222c0.476,0.756,1.064,1.96,1.288,2.604c0.224,0.588,0.224,1.008,0.084,1.26
		c-0.28,0.588-1.176,0.84-1.764,0.588c-0.28-0.112-0.616-0.448-0.868-0.756l-4.032-4.647c-2.156,2.323-4.788,4.396-7.672,5.991
		c-0.224,0.141-0.392,0.141-0.504,0.057l-0.616-0.532c-0.14-0.14-0.168-0.28-0.028-0.477c4.144-3.443,7.364-8.119,8.904-12.151
		c-1.204,0-2.688,0.028-3.192,0.056c-0.588,0.028-1.652,0.225-2.24,0.448c-0.952-0.476-1.932-1.232-2.604-1.932
		c-0.14-0.141-0.168-0.28-0.084-0.42l0.252-0.421c0.924,0.141,2.1,0.196,2.912,0.196c1.064,0,4.984-0.056,6.216-0.112l1.316-0.531
		c0.196-0.084,0.504-0.084,0.7,0c0.588,0.224,1.736,0.728,2.156,0.979c0.196,0.112,0.196,0.336,0.056,0.532l-0.7,1.064
		c-0.784,1.819-1.876,3.64-3.22,5.348l2.212,2.268L474.042,241.222z M476.198,226.187c0.056-0.141,0.14-0.225,0.448-0.225
		c1.484,0.057,3.864,0.504,4.956,0.98c0.336,0.14,0.476,0.42,0.448,0.84l-0.14,1.82v15.68c0,1.96-0.476,5.824-1.288,7.868h-2.156
		c-0.252-0.952-0.448-5.376-0.448-6.721v-7.363c-0.504,0.027-0.98,0.056-1.204,0.084c-0.448,0.056-1.4,0.279-1.876,0.476
		c-0.952-0.588-1.764-1.26-2.436-1.988c-0.14-0.14-0.168-0.279-0.084-0.42l0.28-0.476c0.728,0.14,1.904,0.224,2.744,0.224
		c0.616,0,1.652-0.027,2.576-0.084v-7.812c-0.364-0.672-1.232-1.344-2.212-1.765L476.198,226.187z"/>
	<path d="M502.798,239.962c0.028,0.196-0.056,0.336-0.28,0.448c-2.184,1.036-5.796,1.988-8.344,2.212
		c-0.504,0.056-0.924,0.056-1.344,0.056c-2.016,0-2.744-0.42-3.332-2.016c-0.056-0.14-0.112-0.896-0.112-1.708v-7.224
		c-0.42-0.42-1.148-0.841-1.848-1.12l0.224-0.98c0.028-0.14,0.196-0.28,0.476-0.28c1.288,0,3.556,0.169,4.536,0.393
		c0.364,0.084,0.56,0.364,0.56,0.756l-0.056,1.568v7c0,0.363,0.168,0.531,0.56,0.531c2.352-0.027,6.244-0.363,8.288-0.783
		c0.28-0.057,0.392,0,0.448,0.195L502.798,239.962z M506.634,243.49c0.168-0.084,0.448-0.084,0.616,0
		c0.532,0.252,1.512,0.784,1.876,1.036c0.14,0.111,0.14,0.252,0.084,0.476l-0.392,1.316l-0.084,2.632
		c0,1.372-0.504,3.472-1.092,4.452h-2.296c-0.252-0.757-0.42-2.66-0.42-3.584v-3.5c-2.184,0-5.964,0.056-6.972,0.14
		c-0.784,0.028-2.1,0.252-2.856,0.504c-1.12-0.476-2.24-1.231-3.024-1.96c-0.168-0.14-0.196-0.28-0.112-0.448l0.28-0.531
		c1.092,0.14,2.464,0.224,3.444,0.224c1.344,0,8.092-0.14,9.828-0.28L506.634,243.49z M505.122,237.218
		c-1.092,0-2.38,0.084-2.884,0.141c-0.448,0.056-1.4,0.279-1.876,0.447c-0.952-0.56-1.764-1.231-2.408-1.932
		c-0.14-0.168-0.168-0.28-0.084-0.42l0.28-0.448c0.728,0.141,1.876,0.196,2.688,0.196c0.924,0,2.94-0.028,4.284-0.112v-1.932
		c-1.036,0-2.184,0.084-2.66,0.14c-0.448,0.057-1.4,0.28-1.876,0.448c-0.952-0.56-1.764-1.232-2.408-1.932
		c-0.14-0.168-0.168-0.28-0.084-0.42l0.28-0.448c0.728,0.14,1.876,0.195,2.688,0.195c0.868,0,2.716-0.027,4.06-0.111v-1.988
		c-0.336-0.644-1.176-1.315-2.1-1.708l0.392-1.147c0.056-0.141,0.168-0.225,0.476-0.225c1.456,0.057,3.752,0.504,4.816,0.98
		c0.308,0.14,0.448,0.42,0.42,0.84l-0.112,1.764v7.112c0,1.567-0.532,4.592-1.204,5.964h-2.24c-0.252-0.868-0.448-3.92-0.448-5.04
		V237.218z"/>
	<path d="M534.298,230.19c-5.208,1.204-8.316,4.479-9.044,9.044c1.232-1.093,2.744-1.652,4.536-1.652
		c3.612,0,5.712,2.604,5.712,6.272c0,3.863-2.716,6.663-7.196,6.663c-4.76,0-7.784-3.107-7.784-8.512
		c0-6.468,5.572-11.788,13.608-12.516L534.298,230.19z M531.021,244.078c0-3.192-1.008-4.928-2.968-4.928
		c-1.008,0-2.044,0.279-2.912,1.092c-0.028,0.364-0.056,0.756-0.056,1.147c0,5.712,1.316,8.148,3.22,8.148
		C529.846,249.538,531.021,247.97,531.021,244.078z"/>
	<path d="M552.189,240.242c0.476,0.756,1.12,1.96,1.372,2.604c0.224,0.616,0.224,1.009,0.084,1.288
		c-0.308,0.616-1.232,0.924-1.792,0.7c-0.28-0.112-0.616-0.448-0.868-0.728l-4.48-5.181c-1.764,2.492-4.2,4.872-7.168,6.748
		c-0.196,0.112-0.336,0.112-0.476,0.028l-0.672-0.561c-0.112-0.111-0.112-0.252,0.028-0.42c3.808-3.808,6.216-8.315,6.86-12.376
		c-0.28-0.56-0.924-1.204-1.624-1.567l0.476-0.98c0.084-0.14,0.196-0.195,0.476-0.168c1.316,0.112,3.668,0.729,4.564,1.176
		c0.336,0.168,0.56,0.448,0.56,0.729c0,0.308-0.028,0.616-0.084,0.84c-0.28,1.456-0.84,2.968-1.652,4.452l2.66,2.8L552.189,240.242z
		 M554.205,226.187c0.056-0.141,0.14-0.225,0.448-0.225c1.484,0.057,3.864,0.504,4.956,0.98c0.336,0.14,0.476,0.42,0.448,0.84
		l-0.14,1.82v15.68c0,1.96-0.476,5.824-1.288,7.868h-2.156c-0.252-0.952-0.448-5.376-0.448-6.721V229.07
		c-0.364-0.672-1.232-1.344-2.212-1.765L554.205,226.187z"/>
	<path d="M23.221,272.33c-2.38,2.1-5.348,3.863-8.54,5.04c-0.252,0.084-0.42,0.111-0.532,0.027l-0.504-0.56
		c-0.112-0.141-0.14-0.28,0-0.448c3.92-2.408,7.056-5.74,8.988-8.792c-1.26,0-2.8,0.056-3.304,0.084
		c-0.588,0.028-1.596,0.224-2.156,0.42c-0.952-0.448-1.904-1.147-2.576-1.82c-0.14-0.14-0.14-0.279-0.084-0.42l0.252-0.447
		c0.924,0.14,2.072,0.195,2.884,0.195c1.008,0,5.152-0.056,6.412-0.168l1.288-0.476c0.224-0.084,0.532-0.084,0.728,0
		c0.532,0.224,1.54,0.728,1.932,0.979c0.168,0.112,0.168,0.336,0.056,0.504l-0.7,1.036c-0.644,1.093-1.456,2.156-2.408,3.192
		l1.372,1.231l1.288,0.309c0.42,0.532,0.952,1.399,1.176,1.876c0.196,0.448,0.196,0.728,0.112,0.979
		c-0.252,0.561-1.064,0.952-1.624,0.841c-0.308-0.057-0.644-0.28-0.896-0.561L23.221,272.33z M17.873,260.989
		c2.38,0.448,4.844,0.589,6.468,0.561c0.364,0,0.532,0.056,0.7,0.308c0.28,0.504,0.196,1.624-0.168,1.96
		c-0.14,0.141-0.336,0.168-0.588,0.168c-1.092,0-3.052,0.057-4.2,0.141c-0.364,0.027-0.532,0.027-0.756-0.141
		c-0.56-0.447-1.316-1.372-1.708-2.155c-0.112-0.196-0.112-0.336-0.028-0.477L17.873,260.989z M34.057,281.85
		c0.644,0.588,1.54,1.568,1.932,2.156c0.336,0.504,0.448,0.896,0.364,1.231c-0.168,0.672-1.008,1.204-1.652,1.092
		c-0.336-0.027-0.728-0.279-1.036-0.504l-5.908-4.34c-2.044,2.212-5.152,4.061-8.792,5.124c-0.252,0.084-0.364,0.084-0.448,0
		l-0.588-0.728c-0.112-0.141-0.112-0.28,0.056-0.393c3.5-2.1,6.048-4.451,7.392-6.972c-0.196-0.476-0.756-1.008-1.372-1.316
		l0.476-0.924c0.084-0.14,0.224-0.195,0.504-0.168c1.316,0.141,3.444,0.729,4.256,1.176c0.336,0.169,0.532,0.421,0.532,0.7
		c0,0.393-0.084,0.645-0.168,0.84c-0.14,0.28-0.28,0.561-0.448,0.841l2.856,1.819L34.057,281.85z M26.917,268.941
		c0.644,0.112,1.568,0.141,2.296,0.141c0.532,0.027,1.4,0,2.268-0.028v-6.412c-0.336-0.644-1.176-1.315-2.1-1.708l0.392-1.147
		c0.056-0.141,0.168-0.225,0.476-0.225c1.456,0.057,3.752,0.504,4.816,0.98c0.308,0.14,0.448,0.42,0.42,0.84l-0.112,1.764v7.868
		c0,2.212-0.476,5.46-1.26,7.14h-2.184c-0.28-1.008-0.448-4.647-0.448-6.075v-0.868c-0.448,0.027-0.868,0.056-1.092,0.084
		c-0.448,0.027-1.232,0.252-1.68,0.447c-0.784-0.56-1.484-1.26-2.044-1.932c-0.112-0.14-0.14-0.28-0.056-0.42L26.917,268.941z"/>
	<path d="M70.064,273.478c1.232,0.056,3.024,0.336,3.78,0.616c0.308,0.112,0.504,0.364,0.504,0.728c0,0.812-0.532,1.568-0.952,1.765
		c-0.7-0.084-2.772-0.141-3.724-0.141l-2.548,0.028v2.772c0,1.876-0.616,5.6-1.288,7.224H63.68c-0.196-1.12-0.448-4.76-0.448-6.076
		v-3.892l-4.004,0.056v2.268c0,1.876-0.616,5.601-1.288,7.225h-2.156c-0.196-1.12-0.448-4.76-0.448-6.076v-3.332l-0.28,0.028
		c-0.756,0.056-2.576,0.363-3.388,0.588c-1.176-0.477-2.492-1.428-3.332-2.269c-0.112-0.111-0.14-0.308-0.084-0.447l0.28-0.532
		c1.176,0.196,2.716,0.308,3.836,0.336c1.904,0.028,14.364-0.112,16.38-0.28L70.064,273.478z M53.712,264.182
		c-0.364-0.476-1.064-0.952-1.736-1.204l0.28-1.036c0.028-0.111,0.14-0.195,0.364-0.195c1.232,0,3.64,0.195,5.012,0.42
		c1.68,0,5.88-0.028,7.56-0.112l1.484-0.616c0.196-0.056,0.448-0.056,0.644,0c0.588,0.225,1.708,0.7,2.128,0.952
		c0.168,0.084,0.168,0.252,0.084,0.476l-0.504,1.372c-0.168,1.568-0.504,3.36-0.868,4.788l0.56,0.336
		c0.196,0.112,0.308,0.28,0.308,0.477c0,0.728-0.224,1.344-0.476,1.596l-11.088,0.056c-0.14,0.393-0.364,0.729-0.7,1.064h-1.988
		c-0.28-0.588-0.476-1.456-0.532-2.184L53.712,264.182z M57.66,269.109c2.072,0.028,5.068,0.028,6.804-0.027l0.392-0.112l0.14-4.508
		c-2.268,0-5.068,0.027-7.28,0.084L57.66,269.109z"/>
	<path d="M85.968,271.126c-2.296,2.212-5.096,4.172-8.176,5.6c-0.224,0.112-0.42,0.14-0.504,0.028l-0.588-0.561
		c-0.14-0.14-0.14-0.279,0-0.447c4.088-2.912,7.308-6.86,9.072-10.416c-1.26,0-2.772,0.027-3.304,0.056
		c-0.616,0.028-1.652,0.224-2.268,0.448c-0.952-0.504-1.932-1.288-2.604-1.988c-0.14-0.168-0.168-0.28-0.084-0.42l0.252-0.42
		c0.924,0.14,2.1,0.196,2.94,0.196c1.036,0,4.984-0.057,6.272-0.112l1.288-0.532c0.224-0.056,0.504-0.056,0.728,0
		c0.588,0.224,1.708,0.729,2.128,0.952c0.168,0.112,0.196,0.336,0.084,0.532l-0.728,1.147c-0.756,1.429-1.736,2.856-2.884,4.229
		l2.212,1.819l1.344,0.336c0.504,0.645,1.176,1.681,1.456,2.24c0.224,0.504,0.28,0.868,0.168,1.12
		c-0.224,0.532-1.036,0.868-1.624,0.7c-0.28-0.084-0.616-0.336-0.896-0.588L85.968,271.126z M95.824,276.922
		c0.168-0.057,0.448-0.057,0.616,0c0.532,0.252,1.512,0.784,1.876,1.036c0.14,0.111,0.14,0.252,0.084,0.476l-0.392,1.316l-0.084,2.8
		c0,1.372-0.504,3.472-1.092,4.452h-2.296c-0.252-0.757-0.42-2.66-0.42-3.584v-3.668c-2.212,0-6.048,0.056-7.084,0.14
		c-0.812,0.028-2.1,0.252-2.856,0.504c-1.12-0.476-2.24-1.232-3.024-1.96c-0.168-0.14-0.196-0.28-0.112-0.448l0.28-0.531
		c1.092,0.14,2.464,0.224,3.444,0.224c1.316,0,8.176-0.14,9.94-0.28L95.824,276.922z M94.284,262.642
		c-0.336-0.644-1.176-1.315-2.1-1.708l0.392-1.147c0.056-0.141,0.168-0.225,0.476-0.225c1.456,0.057,3.752,0.504,4.816,0.98
		c0.308,0.14,0.448,0.42,0.42,0.84l-0.112,1.764v7c0,1.596-0.532,4.62-1.204,5.992h-2.24c-0.252-0.868-0.448-3.948-0.448-5.068
		V262.642z"/>
	<path d="M126.428,275.998c0.14,0.056,0.252,0.224,0.252,0.42c0,0.672-0.224,1.344-0.476,1.596c-2.128-0.028-6.58,0.028-9.044,0.084
		c-0.224,0.644-0.56,1.063-0.868,1.288h-2.016c-0.308-0.729-0.476-1.792-0.476-2.408l-0.168-9.855
		c-0.252-0.393-1.008-0.925-1.596-1.148l0.252-0.952c0.056-0.111,0.168-0.196,0.504-0.196c1.064-0.027,3.472,0.196,4.312,0.421
		c0.308,0.084,0.42,0.279,0.42,0.672l-0.056,1.399v1.876l4.928-0.056v-3.528c-0.308-0.447-0.98-0.952-1.624-1.26l0.336-0.952
		c0.056-0.14,0.168-0.224,0.504-0.195c1.12,0.056,3.5,0.531,4.312,0.896c0.308,0.14,0.42,0.336,0.392,0.672l-0.084,1.624
		l-0.084,6.412c0,0.98-0.196,2.268-0.42,2.94L126.428,275.998z M117.44,271.518l-0.028,4.172l4.984-0.056v-4.172L117.44,271.518z
		 M128.192,259.813c0.056-0.14,0.14-0.224,0.448-0.224c1.484,0.056,3.864,0.504,4.956,0.979c0.336,0.141,0.476,0.42,0.448,0.841
		l-0.14,1.819v15.68c0,1.96-0.476,5.824-1.288,7.868h-2.156c-0.252-0.952-0.448-5.376-0.448-6.72v-17.36
		c-0.364-0.672-1.232-1.344-2.212-1.764L128.192,259.813z"/>
	<path d="M155.24,259.786c0.056-0.141,0.14-0.225,0.448-0.225c1.484,0.057,3.864,0.504,4.956,0.98c0.336,0.14,0.476,0.42,0.448,0.84
		l-0.14,1.82v15.68c0,1.96-0.476,5.824-1.288,7.868h-2.156c-0.252-0.952-0.448-5.376-0.448-6.721v-3.191
		c-3.724,1.176-8.204,2.071-11.284,2.38c-0.448,0.056-0.896,0.056-1.232,0.056c-1.568,0-2.66-0.868-3.08-2.212
		c-0.112-0.364-0.196-0.979-0.196-1.652v-8.231c-0.364-0.476-1.036-0.952-1.792-1.232l0.252-1.008
		c0.056-0.112,0.14-0.196,0.336-0.196c1.176,0,3.808,0.141,4.984,0.337c1.036-0.028,3.416-0.168,4.2-0.28l0.896-0.616
		c0.84,0,2.156,0.084,2.828,0.196c0.364,0.084,0.532,0.308,0.532,0.644c0,0.84-0.224,1.484-0.476,1.736
		c-0.14,0.14-0.308,0.196-0.588,0.196l-7.28,0.336v8.176c0,0.392,0.168,0.56,0.56,0.56c3.136-0.027,7.784-0.504,11.34-1.372V262.67
		c-0.364-0.672-1.232-1.344-2.212-1.765L155.24,259.786z"/>
	<path d="M186.936,279.105c1.232,0.056,3.024,0.336,3.78,0.616c0.308,0.112,0.504,0.364,0.504,0.728
		c0,0.812-0.532,1.568-0.952,1.765c-0.7-0.084-2.772-0.141-3.724-0.141c-1.932,0-12.852,0.112-14.616,0.225
		c-0.756,0.056-2.576,0.363-3.388,0.588c-1.176-0.477-2.492-1.428-3.332-2.269c-0.112-0.111-0.14-0.308-0.084-0.447l0.28-0.532
		c1.176,0.196,2.716,0.308,3.836,0.336c0.84,0,3.808,0,7-0.056v-5.013c-3.388-0.615-5.768-2.912-5.768-6.048
		c0-3.724,3.276-6.244,7.644-6.244c4.368,0,7.644,2.521,7.644,6.244c0,3.136-2.352,5.404-5.712,6.048v4.956
		c2.576-0.056,4.816-0.111,5.572-0.168L186.936,279.105z M178.115,272.386c2.072,0,3.612-1.288,3.612-3.528
		c0-2.268-1.54-3.584-3.612-3.584c-2.072,0-3.612,1.316-3.612,3.584C174.503,271.098,176.043,272.386,178.115,272.386z"/>
	<path d="M213.983,271.993c1.232,0.057,3.052,0.337,3.78,0.616c0.308,0.112,0.504,0.336,0.504,0.7c0,0.756-0.532,1.456-0.952,1.624
		c-0.7-0.084-2.772-0.14-3.724-0.14c-1.904,0-12.936,0.111-14.644,0.224c-0.728,0.056-2.548,0.364-3.36,0.588
		c-1.176-0.42-2.492-1.315-3.332-2.1c-0.112-0.112-0.14-0.309-0.084-0.448l0.28-0.532c1.176,0.196,2.716,0.309,3.836,0.336
		c1.876,0.028,14.392-0.111,16.38-0.279L213.983,271.993z M197.631,267.485c-0.364-0.42-0.98-0.783-1.652-1.036l0.168-0.812
		c0.028-0.112,0.14-0.196,0.336-0.196c1.204,0,4.088,0.057,5.124,0.168c1.736,0,5.264-0.056,6.384-0.111l0.504-0.112
		c0.056-0.448,0.056-1.316,0.028-1.652c-1.988,0-5.852,0.028-6.776,0.084c-0.672,0.057-1.848,0.225-2.632,0.42
		c-0.98-0.504-1.96-1.231-2.66-1.932c-0.14-0.14-0.168-0.252-0.084-0.392l0.224-0.448c0.896,0.168,2.352,0.28,3.08,0.28
		c1.372,0,8.092-0.057,9.632-0.141l1.232-0.504c0.168-0.084,0.42-0.084,0.616,0c0.476,0.196,1.484,0.616,1.848,0.84
		c0.168,0.112,0.196,0.309,0.084,0.504l-0.476,0.952c-0.14,0.616-0.448,1.54-0.7,2.017l0.532,0.279
		c0.168,0.084,0.28,0.252,0.28,0.393c0,0.532-0.224,1.092-0.42,1.315l-10.752,0.141v1.176c0,0.392,0.14,0.56,0.532,0.56
		c2.128,0,5.964-0.056,7.532-0.14l0.84-0.448c0.868-0.027,2.128,0.084,2.716,0.196c0.336,0.084,0.532,0.308,0.532,0.616
		c0,0.756-0.196,1.288-0.392,1.483c-0.112,0.112-0.308,0.168-0.532,0.168l-12.656,0.196c-1.764-0.056-2.492-0.784-2.492-2.24
		V267.485z M211.015,283.754c0.924,0,2.268,0.111,2.912,0.279c0.336,0.084,0.532,0.309,0.532,0.645c0,0.756-0.224,1.315-0.42,1.512
		c-0.14,0.14-0.364,0.168-0.588,0.168l-12.88,0.084c-1.68-0.027-2.408-0.812-2.408-2.324v-1.792
		c-0.364-0.42-0.952-0.756-1.624-1.008l0.14-0.812c0.028-0.112,0.14-0.196,0.336-0.196c1.204,0,4.004,0.056,5.096,0.168
		c1.764,0,5.096-0.028,6.16-0.084l0.616-0.14c0.028-0.393,0.056-1.288,0.028-1.624c-1.932-0.028-6.02,0.027-6.972,0.084
		c-0.7,0.056-1.848,0.224-2.632,0.42c-0.952-0.504-1.932-1.26-2.632-1.933c-0.14-0.14-0.168-0.252-0.084-0.392l0.224-0.448
		c0.896,0.168,2.324,0.28,3.052,0.28c1.428,0,8.176-0.056,9.688-0.112l1.12-0.476c0.168-0.084,0.364-0.084,0.588,0
		c0.476,0.168,1.484,0.532,1.876,0.728c0.14,0.084,0.168,0.28,0.084,0.504l-0.504,1.12c-0.056,0.561-0.364,1.484-0.56,1.96
		l0.532,0.252c0.168,0.084,0.252,0.225,0.252,0.393c0,0.56-0.224,1.12-0.42,1.344l-10.472,0.112v1.231
		c0,0.393,0.168,0.561,0.532,0.561c2.072,0.027,5.796,0,7.504-0.057L211.015,283.754z"/>
	<path d="M249.711,271.686c1.232,0.056,3.024,0.336,3.78,0.616c0.308,0.112,0.504,0.364,0.504,0.728
		c0,0.812-0.532,1.568-0.952,1.765c-0.7-0.084-2.772-0.141-3.724-0.141c-1.932,0-12.852,0.112-14.616,0.225
		c-0.756,0.056-2.576,0.363-3.388,0.588c-1.176-0.477-2.492-1.428-3.332-2.269c-0.112-0.111-0.14-0.308-0.084-0.447l0.28-0.532
		c1.176,0.196,2.716,0.308,3.836,0.336c0.784,0,3.444,0,6.412-0.056l-0.028-3.08c-0.252-0.393-0.98-0.868-1.54-1.093l0.224-1.008
		c0.028-0.111,0.14-0.195,0.504-0.195c1.064-0.028,3.556,0.195,4.368,0.42c0.336,0.084,0.448,0.336,0.392,0.672l-0.196,1.819
		l-0.056,2.437c2.912-0.056,5.488-0.14,6.3-0.196L249.711,271.686z M245.511,270.229c-0.224-0.056-0.308-0.196-0.28-0.588
		c0.28-1.316,0.336-3.836,0.224-5.404c-2.24-0.027-6.272,0.028-7.476,0.112c-0.812,0.056-2.184,0.28-2.968,0.504
		c-1.092-0.532-2.268-1.372-3.024-2.156c-0.168-0.168-0.196-0.279-0.112-0.447l0.252-0.504c1.12,0.168,2.52,0.252,3.5,0.252
		c1.512,0,8.456-0.084,10.248-0.168l1.512-0.616c0.196-0.084,0.448-0.084,0.644,0c0.588,0.224,1.708,0.728,2.156,1.008
		c0.14,0.084,0.168,0.252,0.056,0.476l-0.588,1.456c-0.252,1.988-1.204,4.564-2.24,6.021c-0.168,0.224-0.392,0.308-0.616,0.308
		L245.511,270.229z M247.471,281.598c0,3.248-2.996,5.292-6.58,5.292s-6.58-2.044-6.58-5.292c0-2.968,2.996-4.844,6.58-4.844
		S247.471,278.63,247.471,281.598z M243.579,281.598c0-1.512-1.176-2.38-2.688-2.38c-1.512,0-2.688,0.868-2.688,2.38
		s1.176,2.38,2.688,2.38C242.403,283.978,243.579,283.109,243.579,281.598z"/>
	<path d="M265.391,264.573c0.168-0.084,0.476-0.084,0.672,0c0.504,0.225,1.54,0.812,1.932,1.064
		c0.168,0.112,0.168,0.308,0.084,0.504l-0.504,0.98c-1.12,4.928-5.292,10.304-10.668,13.327c-0.224,0.141-0.392,0.168-0.476,0.084
		l-0.616-0.56c-0.14-0.14-0.168-0.252-0.056-0.448c3.836-3.416,6.608-8.204,7.644-12.235c-0.896,0.027-1.932,0.056-2.268,0.084
		c-0.644,0.027-1.764,0.224-2.38,0.42c-0.868-0.448-1.792-1.148-2.408-1.792c-0.14-0.168-0.168-0.28-0.084-0.42l0.252-0.448
		c0.84,0.112,1.932,0.14,2.688,0.14c0.896,0.028,4.088-0.027,5.18-0.14L265.391,264.573z M273.427,259.786
		c0.084-0.141,0.196-0.225,0.504-0.225c1.344,0.057,3.528,0.504,4.536,0.98c0.308,0.14,0.448,0.392,0.42,0.812l-0.112,1.652v16.044
		c0,1.932-0.476,5.684-1.26,7.7h-2.044c-0.252-0.98-0.448-5.265-0.448-6.608v-7.224l-2.016,0.056v5.152c0,1.792-0.448,5.208-1.148,7
		h-1.932c-0.252-1.064-0.448-4.732-0.448-5.992V264.21c-0.308-0.561-1.064-1.12-1.876-1.484l0.42-1.092
		c0.056-0.14,0.168-0.224,0.504-0.224c1.26,0.056,3.276,0.504,4.2,0.951c0.28,0.141,0.392,0.393,0.392,0.784l-0.112,1.512v5.937
		l2.016-0.056v-8.036c-0.308-0.588-1.12-1.204-1.988-1.597L273.427,259.786z"/>
	<path d="M295.07,266.422c0.924,0.056,2.212,0.252,2.772,0.448c0.224,0.084,0.364,0.336,0.364,0.615
		c0,0.784-0.392,1.513-0.728,1.736c-0.504-0.056-2.016-0.056-2.716-0.056c-1.036-0.028-7.196,0.111-8.204,0.195
		c-0.616,0.028-1.652,0.225-2.212,0.364c-0.924-0.504-1.876-1.344-2.492-2.072c-0.112-0.111-0.112-0.252-0.056-0.363l0.224-0.448
		c0.952,0.168,2.212,0.252,2.968,0.252c1.232,0.028,7.84-0.14,9.072-0.224L295.07,266.422z M296.526,275.354
		c0,3.136-2.884,4.984-6.104,4.984c-3.248,0-6.16-1.849-6.16-4.984c0-3.164,2.912-5.067,6.16-5.067
		C293.643,270.286,296.526,272.189,296.526,275.354z M285.971,262.222c2.576,0.448,5.348,0.588,7.084,0.56
		c0.364,0,0.56,0.057,0.728,0.309c0.308,0.504,0.224,1.792-0.168,2.156c-0.168,0.14-0.364,0.168-0.644,0.168
		c-1.12,0-3.304,0.084-4.48,0.168c-0.42,0.056-0.644,0.027-0.868-0.141c-0.616-0.476-1.456-1.512-1.932-2.38
		c-0.084-0.196-0.084-0.308,0-0.448L285.971,262.222z M292.887,275.354c0-1.68-1.12-2.576-2.464-2.576
		c-1.344,0-2.464,0.896-2.464,2.576s1.12,2.548,2.464,2.548C291.767,277.901,292.887,277.033,292.887,275.354z M305.234,271.153
		c0.84-0.027,2.044,0.028,2.576,0.141c0.392,0.084,0.644,0.363,0.672,0.728c0.056,0.7-0.112,1.428-0.336,1.708
		c-0.196,0.252-0.644,0.364-0.98,0.364l-4.116,0.14v4.648c0,1.96-0.476,5.824-1.288,7.868h-2.156
		c-0.252-0.952-0.448-5.376-0.448-6.721V262.67c-0.364-0.672-1.232-1.344-2.212-1.765l0.392-1.119
		c0.056-0.141,0.14-0.225,0.448-0.225c1.484,0.057,3.864,0.504,4.956,0.98c0.336,0.14,0.476,0.42,0.448,0.84l-0.14,1.82v8.651
		l1.288-0.084L305.234,271.153z"/>
	<path d="M326.234,259.786c0.056-0.141,0.14-0.225,0.448-0.225c1.484,0.057,3.864,0.504,4.956,0.98
		c0.336,0.14,0.476,0.42,0.448,0.84l-0.14,1.82v15.68c0,1.96-0.476,5.824-1.288,7.868h-2.156c-0.252-0.952-0.448-5.376-0.448-6.721
		v-5.151c-0.644,0.027-1.26,0.056-1.596,0.084c-0.448,0.027-1.232,0.195-1.68,0.308c-0.504-0.28-0.952-0.616-1.344-0.952l-0.14,0.98
		l0.392,0.224c0.168,0.112,0.308,0.28,0.308,0.504c0,0.784-0.252,1.484-0.532,1.765l-8.372,0.084
		c-0.14,0.504-0.392,0.951-0.728,1.372h-2.184c-0.252-0.673-0.392-1.597-0.476-2.408l-0.532-9.772
		c-0.308-0.42-0.896-0.812-1.512-1.063l0.252-1.008c0.056-0.112,0.168-0.196,0.392-0.196c1.288,0,3.528,0.168,4.844,0.392
		c1.232,0.028,3.976,0,5.152-0.084l1.428-0.672c0.196-0.112,0.448-0.112,0.672,0c0.532,0.224,1.568,0.729,1.988,1.008
		c0.14,0.084,0.168,0.252,0.084,0.477l-0.42,1.428c0.448,0.028,0.868,0.056,1.26,0.056c0.616,0,1.736-0.027,2.744-0.056v-4.676
		c-0.364-0.672-1.232-1.344-2.212-1.765L326.234,259.786z M315.202,275.438c1.288,0.028,3.08,0,4.144-0.056l0.588-0.141l0.028-7.756
		c-1.484,0-3.304,0.028-4.76,0.057V275.438z M328.054,269.445c-0.644,0.028-1.232,0.057-1.54,0.084
		c-0.448,0.028-1.232,0.196-1.68,0.309c-0.308-0.168-0.616-0.364-0.896-0.588c-0.056,1.147-0.168,2.352-0.308,3.5
		c0.532,0.056,1.12,0.084,1.624,0.084c0.616,0,1.764-0.028,2.8-0.057V269.445z"/>
	<path d="M368.01,270.397c0.84-0.027,2.044,0.028,2.576,0.141c0.392,0.084,0.644,0.363,0.672,0.728
		c0.056,0.7-0.112,1.428-0.336,1.708c-0.196,0.252-0.644,0.364-0.98,0.364l-4.116,0.14v5.404c0,1.96-0.476,5.824-1.288,7.868h-2.156
		c-0.252-0.952-0.448-5.376-0.448-6.721v-0.279c-2.996,0.728-8.064,1.456-11.06,1.68c-0.7,0.056-1.988,0.336-2.66,0.588
		c-1.12-0.56-2.492-1.568-3.388-2.464c-0.112-0.112-0.14-0.224-0.084-0.393l0.252-0.56c1.176,0.196,2.688,0.252,3.864,0.224
		c0.924,0,2.044-0.056,3.22-0.14v-2.1c-2.52-0.477-4.312-1.96-4.312-4.088c0-2.604,2.632-4.284,5.992-4.284
		c3.304,0,5.908,1.68,5.908,4.284c0,2.044-1.652,3.527-4.004,4.031v1.904c2.436-0.224,4.788-0.504,6.272-0.812V262.67
		c-0.364-0.672-1.232-1.344-2.212-1.765l0.392-1.119c0.056-0.141,0.14-0.225,0.448-0.225c1.484,0.057,3.864,0.504,4.956,0.98
		c0.336,0.14,0.476,0.42,0.448,0.84l-0.14,1.82v7.896l1.288-0.084L368.01,270.397z M358.182,264.854
		c0.868,0.057,2.184,0.252,2.716,0.448c0.224,0.084,0.364,0.308,0.364,0.588c0,0.756-0.42,1.456-0.728,1.652
		c-0.504-0.028-1.988-0.057-2.66-0.057c-1.008,0-6.944,0.168-7.924,0.225c-0.616,0.056-1.652,0.224-2.212,0.363
		c-0.924-0.476-1.876-1.287-2.492-1.987c-0.112-0.112-0.112-0.252-0.056-0.364l0.224-0.448c0.952,0.168,2.212,0.28,2.968,0.28
		c1.148,0,7.588-0.168,8.792-0.252L358.182,264.854z M349.334,261.186c2.436,0.42,5.04,0.561,6.692,0.532
		c0.364,0,0.56,0.056,0.7,0.308c0.336,0.532,0.252,1.736-0.168,2.101c-0.168,0.14-0.364,0.168-0.616,0.168
		c-1.064,0-3.052,0.056-4.172,0.14c-0.392,0.056-0.616,0.028-0.84-0.14c-0.616-0.448-1.4-1.456-1.876-2.269
		c-0.084-0.195-0.084-0.336,0-0.476L349.334,261.186z M353.758,274.569c1.316,0,2.268-0.756,2.268-2.071
		c0-1.316-0.952-2.101-2.268-2.101s-2.268,0.784-2.268,2.101C351.49,273.813,352.442,274.569,353.758,274.569z"/>
	<path d="M388.954,259.786c0.056-0.141,0.14-0.225,0.448-0.225c1.484,0.057,3.864,0.504,4.956,0.98
		c0.336,0.14,0.476,0.42,0.448,0.84l-0.14,1.82v15.764c0,1.96-0.476,5.824-1.288,7.868h-2.156c-0.252-0.952-0.448-5.376-0.448-6.721
		v-4.872c-0.756,0.028-1.484,0.084-1.848,0.112c-0.448,0.028-1.232,0.196-1.68,0.309c-0.84-0.477-1.54-1.093-2.1-1.736
		c-0.14-0.168-0.14-0.28-0.056-0.42l0.28-0.448c0.644,0.112,1.596,0.168,2.352,0.168c0.672,0,1.96-0.028,3.052-0.084v-4.032
		c-0.728,0.028-1.4,0.084-1.764,0.112c-0.448,0.028-1.232,0.196-1.68,0.308c-0.588-0.336-1.12-0.728-1.568-1.176
		c-0.14,0.7-0.28,1.372-0.42,1.82l0.756,0.364c0.196,0.111,0.308,0.252,0.308,0.447c0,0.616-0.224,1.232-0.42,1.484l-7.252,0.252
		v4.032c0,0.392,0.168,0.56,0.588,0.56c2.184-0.028,5.88-0.308,7.784-0.644c0.28-0.057,0.42,0,0.448,0.195l0.224,0.952
		c0.028,0.168-0.056,0.336-0.28,0.448c-2.072,1.036-5.432,1.988-7.7,2.1c-0.504,0.028-0.924,0.028-1.372,0.028
		c-2.128,0-2.828-0.364-3.472-1.988c-0.056-0.14-0.112-0.924-0.112-1.792v-4.172c-0.364-0.42-0.98-0.784-1.652-1.036l0.196-0.896
		c0.028-0.112,0.14-0.196,0.336-0.196c1.176,0,3.976,0.057,5.04,0.168c0.728-0.027,2.016-0.084,2.52-0.14l0.56-0.14
		c0.084-0.7,0.084-3.416,0.028-4.005c-1.064-0.027-2.856-0.027-3.36,0c-0.616,0.057-1.652,0.252-2.408,0.448
		c-0.924-0.56-1.82-1.288-2.52-1.988c-0.112-0.111-0.14-0.224-0.084-0.392l0.252-0.476c0.84,0.168,2.212,0.252,2.94,0.252
		c1.036,0,4.732,0,5.768-0.057l1.344-0.56c0.196-0.084,0.42-0.084,0.616,0c0.504,0.196,1.54,0.672,1.96,0.924
		c0.168,0.084,0.168,0.252,0.112,0.42l-0.42,1.344c0,0.252-0.056,0.561-0.084,0.896c0.56,0.056,1.26,0.084,1.82,0.084
		c0.644,0,1.904-0.028,2.968-0.084v-4.34c-0.364-0.672-1.232-1.344-2.212-1.765L388.954,259.786z"/>
	<path d="M412.193,265.05c0.896,0.056,2.184,0.252,2.716,0.448c0.224,0.084,0.364,0.336,0.364,0.588c0,0.784-0.392,1.512-0.7,1.708
		c-0.504-0.057-2.016-0.057-2.688-0.057c-1.036,0-7.28,0.141-8.316,0.225c-0.588,0.027-1.652,0.224-2.212,0.363
		c-0.924-0.504-1.876-1.315-2.492-2.044c-0.112-0.111-0.112-0.252-0.056-0.363l0.224-0.448c0.952,0.168,2.24,0.252,2.996,0.252
		c1.204,0.028,7.924-0.14,9.184-0.224L412.193,265.05z M407.518,277.649c-3.332,0-6.076-1.764-6.076-4.592
		c0-2.771,2.744-4.508,6.076-4.508c3.304,0,6.02,1.736,6.02,4.508C413.538,275.886,410.822,277.649,407.518,277.649z
		 M403.065,261.214c2.52,0.42,5.208,0.56,6.916,0.532c0.364,0,0.56,0.056,0.7,0.308c0.308,0.504,0.252,1.736-0.14,2.1
		c-0.168,0.141-0.392,0.168-0.644,0.168c-1.12,0-3.22,0.057-4.396,0.141c-0.392,0.056-0.616,0.027-0.84-0.141
		c-0.616-0.447-1.4-1.456-1.876-2.268c-0.084-0.196-0.084-0.336,0-0.476L403.065,261.214z M418.213,283.025
		c1.008-0.027,2.464,0.084,3.164,0.252c0.364,0.084,0.56,0.336,0.56,0.672c0,0.925-0.28,1.597-0.504,1.82
		c-0.14,0.14-0.364,0.196-0.616,0.196l-11.536,0.111c-2.268-0.027-3.164-0.924-3.164-2.688v-1.988
		c-0.448-0.42-1.204-0.868-1.932-1.147l0.224-0.952c0.028-0.141,0.196-0.28,0.476-0.28c1.316,0,3.668,0.168,4.676,0.393
		c0.364,0.084,0.56,0.336,0.56,0.756l-0.056,1.596v1.316c0,0.476,0.196,0.699,0.672,0.699c1.54,0.028,4.648-0.027,6.244-0.084
		L418.213,283.025z M407.518,275.27c1.344,0,2.352-0.812,2.352-2.212s-1.008-2.212-2.352-2.212c-1.344,0-2.352,0.812-2.352,2.212
		S406.174,275.27,407.518,275.27z M422.105,269.418c0.84-0.028,2.044,0.027,2.576,0.14c0.392,0.084,0.644,0.364,0.672,0.729
		c0.056,0.699-0.112,1.428-0.336,1.707c-0.196,0.253-0.644,0.364-0.98,0.364l-4.116,0.141v0.252c0,2.296-0.476,5.628-1.288,7.42
		h-2.156c-0.28-1.036-0.448-4.845-0.448-6.328v-11.2c-0.336-0.644-1.176-1.315-2.1-1.708l0.392-1.147
		c0.056-0.141,0.168-0.225,0.476-0.225c1.456,0.057,3.752,0.504,4.816,0.98c0.308,0.14,0.448,0.42,0.42,0.84l-0.112,1.764v6.972
		l1.288-0.084L422.105,269.418z"/>
	<path d="M448.005,277.09c0.028,0.14-0.056,0.308-0.252,0.448c-1.428,0.84-4.06,1.819-5.88,2.071
		c-0.476,0.057-1.008,0.112-1.344,0.112c-1.876,0-2.66-0.588-3.136-2.1c-0.056-0.168-0.112-0.841-0.112-1.54v-8.4
		c-0.364-0.448-0.98-0.868-1.68-1.148l0.252-1.008c0.056-0.111,0.14-0.195,0.336-0.195c1.148,0,3.836,0.111,4.9,0.252
		c0.532-0.028,1.764-0.084,2.156-0.141l0.812-0.56c0.728-0.028,1.932,0.056,2.52,0.14c0.336,0.084,0.504,0.309,0.504,0.616
		c0,0.84-0.252,1.512-0.532,1.792c-0.14,0.112-0.308,0.168-0.56,0.168l-4.928,0.196v8.315c0,0.336,0.14,0.477,0.504,0.477
		c1.652-0.028,4.368-0.28,5.768-0.616c0.252-0.056,0.392,0,0.448,0.196L448.005,277.09z M448.033,261.689
		c0.056-0.14,0.168-0.224,0.504-0.224c1.26,0.056,3.276,0.504,4.2,0.952c0.28,0.14,0.392,0.392,0.392,0.784l-0.112,1.512v13.384
		c0,1.792-0.448,5.208-1.148,7h-1.932c-0.252-1.064-0.448-4.732-0.448-5.992v-6.691c-0.672,0.027-1.512,0.056-1.848,0.084
		c-0.504,0.027-1.316,0.195-1.82,0.363c-0.784-0.504-1.428-1.036-1.96-1.68c-0.084-0.14-0.112-0.252-0.056-0.392l0.28-0.477
		c0.616,0.057,1.512,0.084,2.212,0.084c0.756,0,2.212-0.027,3.192-0.084v-6.048c-0.308-0.56-1.064-1.12-1.876-1.484L448.033,261.689
		z M453.073,259.786c0.084-0.141,0.196-0.225,0.504-0.225c1.344,0.057,3.528,0.504,4.536,0.98c0.308,0.14,0.448,0.392,0.42,0.812
		l-0.112,1.652v16.044c0,1.932-0.476,5.684-1.26,7.7h-2.044c-0.252-0.98-0.448-5.265-0.448-6.608v-17.64
		c-0.308-0.588-1.12-1.204-1.988-1.597L453.073,259.786z"/>
	<path d="M478.805,259.786c0.056-0.141,0.14-0.225,0.448-0.225c1.484,0.057,3.864,0.504,4.956,0.98
		c0.336,0.14,0.476,0.42,0.448,0.84l-0.14,1.82v15.68c0,1.96-0.476,5.824-1.288,7.868h-2.156c-0.252-0.952-0.448-5.376-0.448-6.721
		v-3.947c-1.848,0.42-4.424,0.84-6.944,1.176v1.456c0,1.848-0.616,5.571-1.26,7.168h-2.128c-0.196-1.092-0.448-4.732-0.448-6.021
		v-2.184c-0.588,0.056-1.12,0.112-1.624,0.14c-0.7,0.057-1.988,0.336-2.66,0.588c-1.12-0.56-2.492-1.567-3.388-2.464
		c-0.14-0.14-0.168-0.224-0.084-0.392l0.252-0.561c1.176,0.196,2.688,0.252,3.864,0.225c4.032-0.057,11.312-0.616,14.42-1.26V262.67
		c-0.364-0.672-1.232-1.344-2.212-1.765L478.805,259.786z M465.141,264.825c-0.224-0.363-0.896-0.867-1.428-1.063l0.252-0.952
		c0.028-0.112,0.14-0.196,0.504-0.196c1.064-0.027,3.304,0.196,4.172,0.421c0.28,0.084,0.392,0.308,0.364,0.672l-0.056,1.372v0.644
		l5.292-0.056v-1.96c-0.224-0.393-0.84-0.868-1.4-1.12l0.336-0.924c0.084-0.168,0.196-0.252,0.532-0.225
		c1.092,0.057,3.22,0.393,4.032,0.672c0.308,0.112,0.392,0.336,0.364,0.672l-0.084,1.484l-0.028,3.164
		c0,0.924-0.196,2.072-0.392,2.716l0.56,0.225c0.168,0.084,0.252,0.224,0.252,0.392c0,0.644-0.196,1.288-0.42,1.512
		c-2.156-0.027-6.804,0.028-9.324,0.084c-0.196,0.588-0.532,0.98-0.84,1.176h-2.044c-0.308-0.644-0.476-1.567-0.476-2.155
		L465.141,264.825z M468.921,267.962l-0.028,2.1l5.348-0.056v-2.101L468.921,267.962z"/>
	<path d="M510.501,271.993c1.232,0.057,3.052,0.337,3.78,0.616c0.308,0.112,0.504,0.336,0.504,0.7c0,0.756-0.532,1.456-0.952,1.624
		c-0.7-0.084-2.772-0.14-3.724-0.14c-1.904,0-12.936,0.111-14.644,0.224c-0.728,0.056-2.548,0.364-3.36,0.588
		c-1.176-0.42-2.492-1.315-3.332-2.1c-0.112-0.112-0.14-0.309-0.084-0.448l0.28-0.532c1.176,0.196,2.716,0.309,3.836,0.336
		c1.876,0.028,14.392-0.111,16.38-0.279L510.501,271.993z M494.149,267.485c-0.364-0.42-0.98-0.783-1.652-1.036l0.168-0.812
		c0.028-0.112,0.14-0.196,0.336-0.196c1.204,0,4.088,0.057,5.124,0.168c1.736,0,5.264-0.056,6.384-0.111l0.504-0.112
		c0.056-0.448,0.056-1.316,0.028-1.652c-1.988,0-5.852,0.028-6.776,0.084c-0.672,0.057-1.848,0.225-2.632,0.42
		c-0.98-0.504-1.96-1.231-2.66-1.932c-0.14-0.14-0.168-0.252-0.084-0.392l0.224-0.448c0.896,0.168,2.352,0.28,3.08,0.28
		c1.372,0,8.092-0.057,9.632-0.141l1.232-0.504c0.168-0.084,0.42-0.084,0.616,0c0.476,0.196,1.484,0.616,1.848,0.84
		c0.168,0.112,0.196,0.309,0.084,0.504l-0.476,0.952c-0.14,0.616-0.448,1.54-0.7,2.017l0.532,0.279
		c0.168,0.084,0.28,0.252,0.28,0.393c0,0.532-0.224,1.092-0.42,1.315l-10.752,0.141v1.176c0,0.392,0.14,0.56,0.532,0.56
		c2.128,0,5.964-0.056,7.532-0.14l0.84-0.448c0.868-0.027,2.128,0.084,2.716,0.196c0.336,0.084,0.532,0.308,0.532,0.616
		c0,0.756-0.196,1.288-0.392,1.483c-0.112,0.112-0.308,0.168-0.532,0.168l-12.656,0.196c-1.764-0.056-2.492-0.784-2.492-2.24
		V267.485z M507.533,283.754c0.924,0,2.268,0.111,2.912,0.279c0.336,0.084,0.532,0.309,0.532,0.645c0,0.756-0.224,1.315-0.42,1.512
		c-0.14,0.14-0.364,0.168-0.588,0.168l-12.88,0.084c-1.68-0.027-2.408-0.812-2.408-2.324v-1.792
		c-0.364-0.42-0.952-0.756-1.624-1.008l0.14-0.812c0.028-0.112,0.14-0.196,0.336-0.196c1.204,0,4.004,0.056,5.096,0.168
		c1.764,0,5.096-0.028,6.16-0.084l0.616-0.14c0.028-0.393,0.056-1.288,0.028-1.624c-1.932-0.028-6.02,0.027-6.972,0.084
		c-0.7,0.056-1.848,0.224-2.632,0.42c-0.952-0.504-1.932-1.26-2.632-1.933c-0.14-0.14-0.168-0.252-0.084-0.392l0.224-0.448
		c0.896,0.168,2.324,0.28,3.052,0.28c1.428,0,8.176-0.056,9.688-0.112l1.12-0.476c0.168-0.084,0.364-0.084,0.588,0
		c0.476,0.168,1.484,0.532,1.876,0.728c0.14,0.084,0.168,0.28,0.084,0.504l-0.504,1.12c-0.056,0.561-0.364,1.484-0.56,1.96
		l0.532,0.252c0.168,0.084,0.252,0.225,0.252,0.393c0,0.56-0.224,1.12-0.42,1.344l-10.472,0.112v1.231
		c0,0.393,0.168,0.561,0.532,0.561c2.072,0.027,5.796,0,7.504-0.057L507.533,283.754z"/>
	<path d="M531.92,273.449c-3.808,0-6.524-2.296-6.524-5.6c0-3.248,2.716-5.516,6.524-5.516s6.552,2.268,6.552,5.516
		C538.472,271.153,535.729,273.449,531.92,273.449z M531.92,270.594c1.652,0,2.744-1.036,2.744-2.744s-1.092-2.771-2.744-2.771
		s-2.744,1.063-2.744,2.771S530.269,270.594,531.92,270.594z M543.736,283.25c0.896-0.028,2.24,0.111,2.884,0.279
		c0.336,0.084,0.56,0.336,0.56,0.672c0,0.812-0.224,1.4-0.42,1.597c-0.14,0.14-0.364,0.195-0.588,0.195l-11.984,0.084
		c-1.96-0.027-2.716-0.812-2.716-2.352v-2.268c-0.364-0.42-0.952-0.757-1.624-1.009l0.14-0.812c0.028-0.112,0.14-0.196,0.336-0.196
		c1.204,0,4.032,0.057,5.096,0.168c1.512,0,4.368-0.027,5.348-0.084l0.616-0.14c0.056-0.448,0.056-1.456,0.028-1.82
		c-1.764,0-5.32,0.028-6.188,0.084c-0.7,0.028-1.876,0.196-2.66,0.393c-0.98-0.532-1.96-1.316-2.688-2.044
		c-0.14-0.141-0.14-0.225-0.084-0.393l0.252-0.448c0.896,0.168,2.38,0.28,3.108,0.28c1.344,0,7.532-0.056,8.932-0.112l1.204-0.504
		c0.168-0.084,0.364-0.084,0.588,0c0.476,0.168,1.456,0.561,1.848,0.756c0.14,0.112,0.168,0.309,0.084,0.532l-0.504,1.12
		c-0.056,0.645-0.364,1.736-0.588,2.24l0.504,0.252c0.196,0.112,0.308,0.252,0.308,0.42c0,0.616-0.224,1.204-0.42,1.456
		l-9.744,0.112v1.456c0,0.42,0.168,0.588,0.532,0.588c1.708,0.027,5.32,0,6.916-0.057L543.736,283.25z M547.656,266.59
		c0.84-0.028,2.044,0.028,2.576,0.14c0.392,0.084,0.644,0.364,0.672,0.729c0.056,0.699-0.112,1.428-0.336,1.708
		c-0.196,0.252-0.644,0.363-0.98,0.363l-4.2,0.141c-0.14,1.456-0.616,3.388-1.12,4.312H542c-0.28-0.812-0.448-3.332-0.448-4.34v-7
		c-0.336-0.644-1.176-1.315-2.1-1.708l0.392-1.147c0.056-0.141,0.168-0.225,0.476-0.225c1.456,0.057,3.752,0.504,4.816,0.98
		c0.308,0.14,0.448,0.42,0.42,0.84l-0.112,1.764v4.145l1.316-0.084L547.656,266.59z"/>
	<path d="M554.628,269.586c-0.392-0.393-0.952-0.729-1.624-0.98l0.196-0.868c0.028-0.111,0.14-0.195,0.336-0.195
		c1.148,0,3.892,0.027,4.956,0.084c0.84-0.028,2.268-0.084,2.8-0.141l0.532-0.14c0.056-0.588,0.084-2.352,0.028-2.772
		c-1.092-0.027-3.08,0-3.612,0.028c-0.644,0.056-1.652,0.224-2.38,0.42c-0.924-0.532-1.82-1.26-2.492-1.96
		c-0.112-0.112-0.14-0.224-0.084-0.392l0.252-0.477c0.84,0.168,2.184,0.252,2.912,0.252c1.036,0,4.872-0.027,5.936-0.084
		l1.288-0.531c0.196-0.084,0.42-0.084,0.616,0c0.476,0.195,1.484,0.672,1.876,0.896c0.168,0.112,0.196,0.252,0.112,0.448
		l-0.42,1.315l-0.028,0.309c0.476,0.027,1.008,0.056,1.484,0.056c0.728,0,2.156-0.028,3.164-0.112v-2.1
		c-0.336-0.644-1.176-1.315-2.1-1.708l0.392-1.147c0.056-0.141,0.168-0.225,0.476-0.225c1.456,0.057,3.752,0.504,4.816,0.98
		c0.308,0.14,0.448,0.42,0.42,0.84l-0.112,1.764v6.944c0,1.596-0.532,4.592-1.204,5.992h-2.24c-0.196-0.7-0.364-2.912-0.42-4.312
		c-0.756,0.028-1.624,0.084-1.988,0.14c-0.448,0.028-1.204,0.196-1.652,0.337c-0.784-0.505-1.484-1.148-2.016-1.792
		c-0.112-0.141-0.112-0.28-0.056-0.393l0.308-0.448c0.616,0.112,1.512,0.168,2.24,0.168s2.128-0.027,3.136-0.111v-2.828
		c-0.756,0.028-1.624,0.084-1.988,0.14c-0.448,0.028-1.204,0.196-1.652,0.336c-0.476-0.308-0.924-0.672-1.344-1.063
		c-0.112,0.448-0.252,0.868-0.364,1.176l0.476,0.252c0.168,0.084,0.28,0.252,0.28,0.42c0,0.561-0.224,1.148-0.42,1.372l-6.972,0.28
		v2.855c0,0.393,0.168,0.561,0.588,0.561c2.044-0.028,5.488-0.28,7.28-0.616c0.252-0.056,0.392,0,0.448,0.196l0.224,0.951
		c0.028,0.169-0.056,0.309-0.28,0.421c-1.96,0.979-5.208,1.876-7.336,1.987c-0.476,0.028-0.896,0.057-1.316,0.057
		c-2.044,0-2.744-0.393-3.36-1.96c-0.056-0.141-0.112-0.896-0.112-1.736V269.586z M574.62,282.577
		c0.364,0.561,0.812,1.484,0.98,1.988c0.14,0.448,0.14,0.756,0.028,0.98c-0.252,0.56-1.008,0.868-1.512,0.728
		c-0.308-0.056-0.616-0.336-0.868-0.616l-2.744-3.107c-1.484,1.68-3.584,3.191-6.132,4.368c-0.252,0.168-0.364,0.168-0.476,0.056
		l-0.644-0.645c-0.14-0.168-0.14-0.279,0.028-0.447c0.476-0.42,0.952-0.84,1.372-1.26c-0.112-0.084-0.252-0.169-0.364-0.28
		l-2.128-2.156c-1.484,1.736-3.668,3.304-6.328,4.452c-0.252,0.168-0.364,0.14-0.476,0.056l-0.644-0.7
		c-0.14-0.14-0.14-0.279,0.028-0.42c2.604-2.1,4.368-4.34,5.152-6.664c-0.196-0.363-0.7-0.812-1.232-1.092l0.532-0.979
		c0.084-0.141,0.252-0.196,0.504-0.168c1.232,0.168,3.164,0.756,3.892,1.176c0.308,0.168,0.476,0.42,0.476,0.672
		c0,0.364-0.056,0.588-0.14,0.784c-0.14,0.364-0.308,0.7-0.504,1.063l1.036,0.952l1.12,0.477c0.224,0.308,0.448,0.728,0.644,1.092
		c1.12-1.456,1.932-2.94,2.352-4.424c-0.168-0.393-0.7-0.924-1.232-1.232l0.532-0.979c0.084-0.168,0.252-0.225,0.504-0.168
		c1.26,0.252,3.136,0.896,3.892,1.372c0.308,0.195,0.476,0.42,0.476,0.672c0,0.336-0.056,0.56-0.14,0.783
		c-0.168,0.616-0.448,1.204-0.784,1.792l1.288,1.232L574.62,282.577z"/>
	<path d="M601.752,270.51c0.84-0.028,2.044,0.028,2.576,0.14c0.392,0.084,0.644,0.364,0.672,0.729
		c0.056,0.7-0.112,1.428-0.336,1.708c-0.196,0.252-0.644,0.363-0.98,0.363l-4.116,0.141v5.292c0,1.96-0.476,5.824-1.288,7.868
		h-2.156c-0.252-0.952-0.448-5.376-0.448-6.721v-2.996c-3.36,1.12-7.448,1.96-10.248,2.24c-0.448,0.057-0.896,0.057-1.232,0.057
		c-1.568,0-2.66-0.868-3.08-2.213c-0.112-0.363-0.196-0.979-0.196-1.624v-8.371c-0.364-0.477-1.036-0.952-1.792-1.232l0.252-1.008
		c0.056-0.112,0.14-0.196,0.336-0.196c1.176,0,3.836,0.14,4.984,0.336c1.036-0.027,3.472-0.168,4.284-0.252l0.896-0.616
		c0.84,0,2.156,0.057,2.828,0.196c0.336,0.084,0.532,0.308,0.532,0.645c0,0.84-0.224,1.455-0.476,1.735
		c-0.14,0.141-0.336,0.196-0.588,0.196l-7.364,0.308v8.288c0,0.393,0.168,0.588,0.56,0.561c2.884-0.028,7.056-0.448,10.304-1.261
		V262.67c-0.364-0.672-1.232-1.344-2.212-1.765l0.392-1.119c0.056-0.141,0.14-0.225,0.448-0.225c1.484,0.057,3.864,0.504,4.956,0.98
		c0.336,0.14,0.476,0.42,0.448,0.84l-0.14,1.82v8.008l1.288-0.084L601.752,270.51z"/>
	<path d="M607.184,281.569c0-1.372,1.148-2.548,2.576-2.548c1.428,0,2.576,1.176,2.576,2.548c0,1.4-1.148,2.521-2.576,2.521
		C608.332,284.09,607.184,282.97,607.184,281.569z"/>
</g>
<g>
	<path d="M24.488,99.501c0.12-0.072,0.312-0.072,0.432,0c0.312,0.12,0.96,0.456,1.2,0.624c0.096,0.072,0.096,0.192,0.048,0.312
		l-0.432,0.744c-1.272,4.344-5.568,9.169-10.873,12.072c-0.096,0.072-0.192,0.072-0.24,0.024l-0.336-0.312
		c-0.072-0.072-0.096-0.145-0.024-0.24c4.464-3.337,7.753-7.705,9.097-11.617c-1.368,0-4.201,0.048-4.825,0.096
		c-0.48,0.024-1.368,0.192-1.848,0.384c-0.696-0.287-1.416-0.72-1.92-1.151c-0.096-0.072-0.096-0.145-0.072-0.24l0.168-0.312
		c0.648,0.12,1.536,0.169,2.16,0.169c0.888,0,5.449-0.072,6.649-0.145L24.488,99.501z M28.04,95.805
		c0.024-0.096,0.096-0.12,0.288-0.12c0.96,0.024,2.568,0.36,3.312,0.648c0.216,0.096,0.312,0.264,0.288,0.528l-0.072,1.319v15.266
		c0,1.44-0.24,3.889-0.672,5.328h-1.152c-0.096-0.96-0.192-3.576-0.192-4.656V97.749c-0.384-0.528-1.152-0.984-2.016-1.296
		L28.04,95.805z"/>
	<path d="M47.671,108.286c0.408,0.576,0.936,1.488,1.152,1.992c0.168,0.359,0.168,0.624,0.096,0.815
		c-0.168,0.337-0.672,0.505-0.984,0.385c-0.168-0.048-0.408-0.312-0.6-0.504l-4.489-5.064c-1.464,2.256-3.528,4.416-6.072,6.24
		c-0.096,0.072-0.192,0.072-0.288,0.023l-0.336-0.312c-0.072-0.048-0.072-0.12,0.024-0.24c3.408-3.288,5.833-7.393,6.601-10.873
		c-0.24-0.456-0.84-1.008-1.464-1.344l0.312-0.576c0.048-0.072,0.12-0.12,0.288-0.096c0.912,0.144,2.376,0.647,2.928,0.983
		c0.192,0.12,0.312,0.288,0.312,0.505c0,0.191-0.024,0.407-0.048,0.552c-0.288,1.296-0.792,2.616-1.512,3.937l2.833,2.976
		L47.671,108.286z M56.096,105.142c0.72-0.024,1.704,0.024,2.136,0.12c0.24,0.048,0.384,0.216,0.408,0.432
		c0,0.456-0.144,0.841-0.288,0.984c-0.144,0.096-0.36,0.145-0.552,0.145l-4.032,0.096v6.528c0,1.44-0.264,3.889-0.696,5.328H51.92
		c-0.096-0.96-0.168-3.576-0.168-4.656V97.749c-0.408-0.528-1.176-0.984-2.04-1.296l0.216-0.648c0.048-0.096,0.096-0.12,0.312-0.12
		c0.936,0.024,2.544,0.36,3.288,0.648c0.216,0.096,0.312,0.264,0.312,0.528l-0.072,1.319v7.489l1.56-0.072L56.096,105.142z"/>
	<path d="M66.343,107.542c-3.097,0-5.353-1.969-5.353-4.729c0-2.736,2.256-4.704,5.353-4.704c3.072,0,5.328,1.968,5.328,4.704
		C71.671,105.573,69.416,107.542,66.343,107.542z M66.343,106.029c1.92,0,3.312-1.248,3.312-3.216c0-1.992-1.392-3.24-3.312-3.24
		c-1.896,0-3.312,1.248-3.312,3.24C63.031,104.781,64.447,106.029,66.343,106.029z M78.296,116.807
		c0.12,0.072,0.192,0.144,0.192,0.288c0,0.336-0.12,0.648-0.24,0.768c-2.04,0-7.369,0.049-9.553,0.072
		c-0.096,0.336-0.264,0.576-0.432,0.744h-1.08c-0.168-0.408-0.24-1.008-0.24-1.44l-0.144-6c-0.288-0.312-0.888-0.624-1.44-0.792
		l0.168-0.601c0.024-0.071,0.096-0.12,0.312-0.12c0.768,0,2.184,0.145,2.784,0.312c0.216,0.048,0.288,0.192,0.288,0.408
		l-0.048,1.008v1.176l7.201-0.071v-2.208c-0.336-0.337-0.936-0.673-1.56-0.889l0.216-0.624c0.048-0.096,0.096-0.144,0.312-0.144
		c0.792,0.048,2.232,0.312,2.856,0.552c0.192,0.072,0.264,0.216,0.24,0.408l-0.072,0.983v3.865c0,0.695-0.096,1.56-0.264,2.111
		L78.296,116.807z M68.839,113.854l-0.024,2.832l7.249-0.072v-2.832L68.839,113.854z M76.232,97.725
		c-0.408-0.504-1.152-0.96-1.992-1.248l0.216-0.672c0.024-0.096,0.096-0.12,0.288-0.12c0.96,0.024,2.544,0.36,3.264,0.648
		c0.216,0.096,0.312,0.264,0.288,0.528l-0.048,1.296v5.856c0,1.416-0.264,3.216-0.648,4.176h-1.2c-0.12-0.768-0.168-2.664-0.168-3.6
		V97.725z"/>
	<path d="M95.647,108.07c0,0.096-0.048,0.168-0.168,0.216c-2.136,0.815-5.521,1.464-7.561,1.584c-0.264,0-0.6,0.024-0.864,0.024
		c-1.056,0-1.488-0.265-1.848-1.08c-0.072-0.145-0.12-0.625-0.12-1.249v-3.264c-0.336-0.288-0.864-0.504-1.417-0.648l0.12-0.527
		c0.024-0.072,0.096-0.145,0.24-0.145c0.744,0,2.448,0.024,3.168,0.096c1.056,0,3.601-0.071,4.225-0.144l0.408-0.096
		c0.072-0.769,0.096-2.713,0.048-3.36c-0.984,0-3.576,0.048-4.152,0.096c-0.456,0.048-1.248,0.192-1.8,0.36
		c-0.696-0.312-1.344-0.721-1.848-1.152c-0.096-0.096-0.096-0.168-0.072-0.24l0.168-0.336c0.624,0.12,1.512,0.168,2.088,0.168
		c0.888,0,4.705-0.048,5.785-0.12l0.744-0.384c0.12-0.048,0.288-0.048,0.408,0c0.288,0.144,0.84,0.456,1.056,0.6
		c0.12,0.097,0.12,0.192,0.072,0.336l-0.288,0.744c-0.048,0.912-0.288,2.521-0.504,3.337l0.384,0.216
		c0.096,0.048,0.144,0.144,0.144,0.24c0,0.312-0.12,0.6-0.24,0.72l-6.673,0.192v3.6c0,0.312,0.12,0.433,0.456,0.433
		c2.16,0,5.736-0.384,7.657-0.816c0.144-0.023,0.216,0.024,0.264,0.12L95.647,108.07z M100.184,111.046
		c0.096-0.048,0.264-0.048,0.384,0c0.312,0.168,0.864,0.48,1.056,0.624c0.096,0.097,0.096,0.192,0.048,0.336l-0.288,0.792
		l-0.072,2.641c0,1.057-0.24,2.688-0.552,3.601h-1.224c-0.144-0.769-0.192-2.28-0.192-3.12v-3.217
		c-1.848-0.023-6.48,0.072-7.464,0.145c-0.6,0.023-1.632,0.191-2.184,0.407c-0.792-0.287-1.608-0.768-2.185-1.224
		c-0.096-0.072-0.12-0.168-0.072-0.264l0.168-0.36c0.768,0.144,1.752,0.216,2.472,0.216c1.128,0,7.969-0.144,9.433-0.24
		L100.184,111.046z M94.351,100.341c0.552,0.097,1.272,0.145,1.872,0.145c0.72,0,2.304-0.048,3.336-0.12v-2.641
		c-0.384-0.504-1.152-0.96-1.992-1.248l0.216-0.672c0.048-0.096,0.096-0.12,0.312-0.12c0.936,0.024,2.521,0.36,3.24,0.648
		c0.216,0.096,0.312,0.264,0.312,0.528l-0.072,1.296v8.089c0,1.416-0.264,3.216-0.648,4.176h-1.176
		c-0.12-0.768-0.192-2.664-0.192-3.6v-0.841c-0.768-0.023-1.8,0-2.256,0.048c-0.432,0.049-1.032,0.192-1.464,0.337
		c-0.672-0.288-1.249-0.673-1.704-1.057c-0.072-0.096-0.096-0.168-0.072-0.264l0.168-0.265c0.552,0.072,1.272,0.12,1.872,0.12
		c0.744,0,2.4-0.048,3.457-0.12v-3.24c-0.744,0-1.728,0.024-2.136,0.072c-0.432,0.048-1.056,0.192-1.488,0.312
		c-0.648-0.265-1.224-0.648-1.68-1.057c-0.096-0.072-0.096-0.168-0.072-0.24L94.351,100.341z"/>
	<path d="M123.343,114.143v2.04h-10.801v-1.632c1.44-1.44,2.833-2.952,3.984-4.152c2.665-2.784,3.769-4.825,3.769-6.937
		c0-2.16-1.248-3.577-3.216-3.577c-0.384,0-0.888,0.049-1.416,0.169l-0.528,1.92c-0.312,1.2-0.768,1.656-1.44,1.656
		c-0.552,0-1.008-0.288-1.272-0.792c0.36-2.688,2.664-3.984,5.28-3.984c3.384,0,4.896,1.848,4.896,4.488
		c0,2.256-1.224,4.056-5.256,7.872c-0.744,0.721-1.873,1.801-3.072,2.929H123.343z"/>
	<path d="M136.519,107.71c0,6.48-2.712,8.809-5.473,8.809c-2.832,0-5.521-2.328-5.521-8.809c0-6.457,2.688-8.856,5.521-8.856
		C133.806,98.854,136.519,101.253,136.519,107.71z M131.046,115.511c1.608,0,3.12-1.633,3.12-7.801c0-6.169-1.512-7.825-3.12-7.825
		c-1.68,0-3.192,1.633-3.192,7.825C127.854,113.878,129.366,115.511,131.046,115.511z"/>
	<path d="M149.262,115.366v0.816h-9.697v-0.816l3.744-0.527c0.024-1.393,0.048-2.809,0.048-4.201v-9.696l-3.504,0.336v-0.912
		l5.4-1.393l0.36,0.265l-0.096,3.769v7.632c0,1.393,0.024,2.809,0.048,4.201L149.262,115.366z"/>
	<path d="M152.862,115.87c4.656-1.584,6.816-4.056,7.344-7.776c-0.888,0.889-2.088,1.345-3.528,1.345
		c-2.808,0-5.088-1.944-5.088-5.161c0-3.288,2.328-5.424,5.569-5.424c3.408,0,5.496,2.64,5.496,6.864
		c0,5.017-2.904,9.385-9.601,10.969L152.862,115.87z M160.326,106.966c0.024-0.288,0.024-0.624,0.024-0.937
		c0-4.271-1.344-6.145-3.288-6.145c-1.752,0-3.216,1.393-3.216,4.129c0,2.784,1.56,4.057,3.576,4.057
		C158.574,108.07,159.486,107.733,160.326,106.966z"/>
	<path d="M165.005,108.814h6.121v1.536h-6.121V108.814z"/>
	<path d="M184.278,107.71c0,6.48-2.712,8.809-5.473,8.809c-2.832,0-5.521-2.328-5.521-8.809c0-6.457,2.688-8.856,5.521-8.856
		C181.565,98.854,184.278,101.253,184.278,107.71z M178.805,115.511c1.608,0,3.12-1.633,3.12-7.801c0-6.169-1.512-7.825-3.12-7.825
		c-1.68,0-3.192,1.633-3.192,7.825C175.613,113.878,177.125,115.511,178.805,115.511z"/>
	<path d="M198.102,111.046h-2.784v5.137h-2.112v-5.137h-7.128v-1.271l7.776-10.777h1.464v10.513h2.784V111.046z M193.205,109.51
		v-8.089l-5.809,8.089H193.205z"/>
	<path d="M199.589,108.814h6.121v1.536h-6.121V108.814z"/>
	<path d="M218.861,114.143v2.04H208.06v-1.632c1.44-1.44,2.833-2.952,3.984-4.152c2.665-2.784,3.769-4.825,3.769-6.937
		c0-2.16-1.248-3.577-3.216-3.577c-0.384,0-0.888,0.049-1.416,0.169l-0.528,1.92c-0.312,1.2-0.768,1.656-1.44,1.656
		c-0.552,0-1.008-0.288-1.272-0.792c0.36-2.688,2.664-3.984,5.28-3.984c3.384,0,4.896,1.848,4.896,4.488
		c0,2.256-1.224,4.056-5.256,7.872c-0.744,0.721-1.873,1.801-3.072,2.929H218.861z"/>
	<path d="M232.038,114.143v2.04h-10.801v-1.632c1.44-1.44,2.833-2.952,3.984-4.152c2.665-2.784,3.769-4.825,3.769-6.937
		c0-2.16-1.248-3.577-3.216-3.577c-0.384,0-0.888,0.049-1.416,0.169l-0.528,1.92c-0.312,1.2-0.768,1.656-1.44,1.656
		c-0.552,0-1.008-0.288-1.272-0.792c0.36-2.688,2.664-3.984,5.28-3.984c3.384,0,4.896,1.848,4.896,4.488
		c0,2.256-1.224,4.056-5.256,7.872c-0.744,0.721-1.872,1.801-3.072,2.929H232.038z"/>
	<path d="M251.357,114.143v2.04h-10.801v-1.632c1.44-1.44,2.833-2.952,3.984-4.152c2.665-2.784,3.769-4.825,3.769-6.937
		c0-2.16-1.248-3.577-3.216-3.577c-0.384,0-0.888,0.049-1.416,0.169l-0.528,1.92c-0.312,1.2-0.768,1.656-1.44,1.656
		c-0.552,0-1.008-0.288-1.272-0.792c0.36-2.688,2.664-3.984,5.28-3.984c3.384,0,4.896,1.848,4.896,4.488
		c0,2.256-1.224,4.056-5.256,7.872c-0.744,0.721-1.872,1.801-3.072,2.929H251.357z"/>
	<path d="M264.101,115.366v0.816h-9.697v-0.816l3.744-0.527c0.024-1.393,0.048-2.809,0.048-4.201v-9.696l-3.504,0.336v-0.912
		l5.4-1.393l0.36,0.265l-0.096,3.769v7.632c0,1.393,0.024,2.809,0.048,4.201L264.101,115.366z"/>
	<path d="M267.772,105.069c0-1.008,0.792-1.824,1.776-1.824c1.008,0,1.8,0.816,1.8,1.824c0,0.937-0.792,1.753-1.8,1.753
		C268.564,106.822,267.772,106.006,267.772,105.069z M267.772,114.767c0-1.008,0.792-1.824,1.776-1.824c1.008,0,1.8,0.816,1.8,1.824
		c0,0.936-0.792,1.752-1.8,1.752C268.564,116.519,267.772,115.702,267.772,114.767z"/>
	<path d="M277.852,101.565c-0.288,1.056-0.648,1.561-1.488,1.561c-0.552,0-0.984-0.24-1.224-0.889
		c0.48-2.304,2.496-3.384,4.92-3.384c3.048,0,4.968,1.68,4.968,4.104c0,1.944-1.296,3.528-3.625,4.272
		c2.856,0.528,4.177,2.137,4.177,4.297c0,2.904-2.376,4.992-5.881,4.992c-2.616,0-4.56-1.104-5.04-3.648
		c0.288-0.576,0.72-0.84,1.272-0.84c0.816,0,1.128,0.528,1.44,1.729l0.432,1.56c0.528,0.145,1.032,0.192,1.512,0.192
		c2.616,0,3.96-1.464,3.96-3.864s-1.368-3.816-4.081-3.816h-1.248v-1.152h1.032c2.352,0,3.84-1.296,3.84-3.648
		c0-2.016-1.2-3.145-3.265-3.145c-0.36,0-0.792,0.024-1.272,0.145L277.852,101.565z"/>
	<path d="M298.781,107.71c0,6.48-2.712,8.809-5.473,8.809c-2.832,0-5.521-2.328-5.521-8.809c0-6.457,2.688-8.856,5.521-8.856
		C296.068,98.854,298.781,101.253,298.781,107.71z M293.308,115.511c1.608,0,3.12-1.633,3.12-7.801c0-6.169-1.512-7.825-3.12-7.825
		c-1.68,0-3.192,1.633-3.192,7.825C290.116,113.878,291.628,115.511,293.308,115.511z"/>
	<path d="M308.596,96.477h1.392v26.282h-1.392V96.477z"/>
	<path d="M334.588,95.805c0.048-0.096,0.096-0.12,0.288-0.12c0.96,0.024,2.568,0.36,3.312,0.648
		c0.216,0.096,0.312,0.264,0.288,0.528l-0.072,1.319v15.266c0,1.44-0.24,3.889-0.672,5.328h-1.152
		c-0.096-0.96-0.192-3.576-0.192-4.656v-2.136c-3.024,0.672-9.025,1.488-12.193,1.68c-0.48,0.024-1.488,0.24-1.944,0.408
		c-0.888-0.336-1.848-0.96-2.521-1.512c-0.096-0.097-0.12-0.168-0.072-0.288l0.168-0.312c0.864,0.145,1.92,0.216,2.784,0.192
		c1.32-0.024,3.072-0.12,4.92-0.264v-2.329c-0.216-0.287-0.696-0.6-1.176-0.768l0.168-0.576c0.024-0.072,0.072-0.144,0.312-0.144
		c0.744,0,1.944,0.144,2.52,0.312c0.216,0.048,0.288,0.216,0.264,0.408l-0.096,1.176l-0.072,1.752
		c2.616-0.216,5.232-0.527,6.937-0.84V97.749c-0.384-0.528-1.152-0.984-2.016-1.296L334.588,95.805z M320.667,109.174
		c-0.072-0.072-0.072-0.168,0-0.264c3.96-1.704,7.297-4.152,9.385-6.577c-1.44,0.024-4.008,0.072-4.633,0.145
		c-0.48,0.023-1.368,0.168-1.824,0.336c-0.648-0.264-1.344-0.72-1.8-1.128c-0.096-0.097-0.12-0.168-0.072-0.265l0.144-0.264
		c0.648,0.096,1.464,0.145,2.041,0.145c0.888,0,5.544-0.072,6.72-0.168l0.864-0.385c0.12-0.071,0.312-0.071,0.456,0
		c0.336,0.097,0.984,0.408,1.224,0.553c0.12,0.071,0.144,0.216,0.048,0.336l-0.552,0.672c-0.816,1.104-1.896,2.16-3.168,3.12
		l2.232,0.888l1.2,0.072c0.48,0.264,1.128,0.744,1.417,1.032c0.216,0.192,0.312,0.36,0.312,0.528c0,0.359-0.336,0.72-0.648,0.768
		c-0.192,0.024-0.432-0.048-0.672-0.144l-5.064-2.28c-2.064,1.368-4.488,2.472-7.033,3.168c-0.144,0.048-0.24,0.048-0.288,0.024
		L320.667,109.174z M324.651,97.701c1.992,0.336,3.96,0.408,5.473,0.408c0.24,0,0.336,0.071,0.408,0.216
		c0.12,0.288,0.072,0.864-0.096,1.056c-0.072,0.12-0.192,0.145-0.36,0.145c-1.056,0-2.712,0.023-3.696,0.12
		c-0.216,0-0.312,0-0.48-0.097c-0.456-0.288-1.032-0.84-1.417-1.368c-0.048-0.096-0.048-0.168-0.024-0.264L324.651,97.701z"/>
	<path d="M361.517,107.086c0.912,0.048,2.208,0.216,2.784,0.408c0.216,0.048,0.336,0.216,0.336,0.432
		c0,0.456-0.312,0.889-0.576,1.008c-0.624-0.071-2.112-0.119-2.832-0.119c-1.68-0.024-12.361,0.119-13.681,0.191
		c-0.625,0.048-1.896,0.288-2.497,0.48c-0.912-0.312-1.824-0.864-2.448-1.393c-0.072-0.072-0.096-0.168-0.072-0.264l0.192-0.36
		c0.84,0.168,1.968,0.264,2.76,0.264c0.744,0,4.008-0.023,7.345-0.071l-0.024-1.896c-0.24-0.336-0.768-0.624-1.272-0.792l0.168-0.6
		c0.048-0.072,0.096-0.12,0.312-0.12c0.768,0,2.064,0.144,2.664,0.312c0.192,0.048,0.288,0.192,0.24,0.408l-0.12,1.032l-0.048,1.632
		c2.736-0.048,5.161-0.096,5.857-0.144L361.517,107.086z M344.403,105.166c-0.072-0.12-0.048-0.217,0.072-0.24
		c4.968-1.656,9.241-3.864,12.097-6.409c-1.968,0-5.472,0.024-6.312,0.072c-0.528,0.024-1.536,0.216-2.04,0.384
		c-0.744-0.239-1.56-0.695-2.136-1.151c-0.096-0.072-0.12-0.145-0.072-0.24l0.192-0.336c0.72,0.12,1.704,0.191,2.376,0.191
		c1.176,0,7.297-0.071,8.737-0.144l1.056-0.408c0.144-0.048,0.336-0.048,0.48,0c0.384,0.12,1.104,0.433,1.344,0.576
		c0.144,0.072,0.144,0.24,0.024,0.336l-0.696,0.696c-1.224,1.152-2.688,2.208-4.321,3.145l3.913,1.008l1.368,0.024
		c0.528,0.168,1.272,0.527,1.608,0.743c0.264,0.168,0.384,0.337,0.408,0.505c0.072,0.336-0.192,0.695-0.504,0.792
		c-0.168,0.071-0.432,0.023-0.672-0.024l-7.729-2.185c-2.616,1.297-5.617,2.353-8.665,3.024c-0.144,0.024-0.216,0-0.288-0.023
		L344.403,105.166z M358.972,114.551c0,2.472-2.304,4.2-5.424,4.2c-3.121,0-5.425-1.729-5.425-4.2c0-2.377,2.304-4.032,5.425-4.032
		C356.668,110.519,358.972,112.174,358.972,114.551z M356.884,114.551c0-1.681-1.416-2.736-3.336-2.736
		c-1.92,0-3.336,1.056-3.336,2.736c0,1.68,1.416,2.736,3.336,2.736C355.468,117.287,356.884,116.23,356.884,114.551z"/>
	<path d="M384.7,107.806c0.912,0.024,2.208,0.192,2.785,0.384c0.216,0.072,0.336,0.217,0.336,0.433c0,0.479-0.312,0.888-0.576,1.008
		c-0.624-0.072-2.112-0.12-2.832-0.12c-0.816,0-3.672,0.024-6.601,0.072v3.864c0,1.344-0.312,3.841-0.696,5.16h-1.152
		c-0.096-1.056-0.168-3.408-0.168-4.536v-4.464c-2.424,0.023-4.513,0.071-5.064,0.096c-0.624,0.048-1.896,0.288-2.497,0.479
		c-0.912-0.312-1.824-0.863-2.448-1.392c-0.072-0.072-0.096-0.168-0.072-0.24l0.192-0.36c0.84,0.145,1.968,0.24,2.76,0.24
		c1.512,0.024,13.441-0.12,15.122-0.24L384.7,107.806z M367.755,105.861c-0.048-0.096-0.024-0.191,0.096-0.239
		c3.888-1.969,6.913-4.657,8.329-7.321c-0.24-0.336-0.72-0.744-1.248-1.008l0.336-0.552c0.072-0.12,0.168-0.145,0.336-0.12
		c0.936,0.12,2.28,0.504,2.833,0.815c0.24,0.097,0.36,0.312,0.36,0.528c-0.024,0.265-0.096,0.456-0.168,0.576
		c-0.336,0.601-0.72,1.176-1.176,1.729l4.489,2.184l1.68,0.217c0.576,0.359,1.368,0.936,1.705,1.271
		c0.288,0.265,0.384,0.48,0.384,0.648c0,0.359-0.36,0.696-0.696,0.72c-0.168,0.024-0.48-0.096-0.72-0.216l-7.705-3.841
		c-2.041,2.064-4.944,3.793-8.281,4.945c-0.12,0.048-0.192,0.048-0.264,0L367.755,105.861z"/>
	<path d="M397.731,104.638c-1.992,2.064-4.512,3.96-7.272,5.353c-0.12,0.072-0.216,0.072-0.264,0.023l-0.312-0.288
		c-0.072-0.071-0.072-0.144,0-0.239c4.057-2.761,7.201-6.409,8.785-9.697c-1.296,0-3.816,0.048-4.392,0.096
		c-0.456,0.024-1.32,0.192-1.752,0.36c-0.672-0.264-1.392-0.744-1.896-1.176c-0.072-0.072-0.096-0.168-0.072-0.24l0.168-0.288
		c0.648,0.096,1.512,0.168,2.136,0.168c0.864,0,5.112-0.072,6.216-0.12l0.84-0.408c0.12-0.048,0.312-0.048,0.432,0
		c0.36,0.145,0.984,0.433,1.249,0.576c0.096,0.072,0.12,0.216,0.024,0.336l-0.48,0.744c-0.6,1.272-1.464,2.568-2.521,3.816
		l2.208,2.04l1.008,0.336c0.336,0.48,0.768,1.2,0.936,1.633c0.144,0.288,0.168,0.527,0.096,0.647
		c-0.12,0.312-0.576,0.528-0.888,0.408c-0.168-0.023-0.384-0.216-0.528-0.384L397.731,104.638z M407.86,114.238
		c0,2.568-2.256,4.393-5.28,4.393c-3,0-5.256-1.824-5.256-4.393c0-2.424,2.256-4.152,5.256-4.152
		C405.604,110.086,407.86,111.814,407.86,114.238z M405.772,114.238c0-1.728-1.344-2.832-3.192-2.832s-3.192,1.104-3.192,2.832
		c0,1.729,1.344,2.832,3.192,2.832S405.772,115.967,405.772,114.238z M404.188,95.805c0.024-0.096,0.096-0.12,0.288-0.12
		c0.936,0.024,2.521,0.36,3.265,0.648c0.216,0.096,0.312,0.264,0.288,0.528l-0.072,1.296v7.776c0,1.248-0.264,3.288-0.648,4.368
		h-1.176c-0.12-0.84-0.192-2.832-0.192-3.768v-2.881c-0.696,0-1.512,0.072-1.896,0.097c-0.432,0.048-1.081,0.216-1.512,0.407
		c-0.648-0.312-1.248-0.744-1.729-1.176c-0.072-0.096-0.12-0.168-0.048-0.264l0.144-0.288c0.6,0.096,1.32,0.12,1.92,0.12
		c0.672,0.023,2.088,0,3.12-0.072v-4.753c-0.384-0.504-1.128-0.96-1.968-1.248L404.188,95.805z"/>
	<path d="M429.723,114.143v2.04h-10.801v-1.632c1.44-1.44,2.833-2.952,3.984-4.152c2.665-2.784,3.769-4.825,3.769-6.937
		c0-2.16-1.248-3.577-3.216-3.577c-0.384,0-0.888,0.049-1.416,0.169l-0.528,1.92c-0.312,1.2-0.768,1.656-1.44,1.656
		c-0.552,0-1.008-0.288-1.272-0.792c0.36-2.688,2.664-3.984,5.28-3.984c3.384,0,4.896,1.848,4.896,4.488
		c0,2.256-1.224,4.056-5.256,7.872c-0.744,0.721-1.872,1.801-3.072,2.929H429.723z"/>
	<path d="M442.899,107.71c0,6.48-2.712,8.809-5.473,8.809c-2.832,0-5.521-2.328-5.521-8.809c0-6.457,2.688-8.856,5.521-8.856
		C440.187,98.854,442.899,101.253,442.899,107.71z M437.426,115.511c1.608,0,3.12-1.633,3.12-7.801c0-6.169-1.512-7.825-3.12-7.825
		c-1.68,0-3.192,1.633-3.192,7.825C434.234,113.878,435.746,115.511,437.426,115.511z"/>
	<path d="M455.643,115.366v0.816h-9.697v-0.816l3.744-0.527c0.024-1.393,0.048-2.809,0.048-4.201v-9.696l-3.504,0.336v-0.912
		l5.4-1.393l0.36,0.265l-0.096,3.769v7.632c0,1.393,0.024,2.809,0.048,4.201L455.643,115.366z"/>
	<path d="M459.242,115.87c4.656-1.584,6.816-4.056,7.344-7.776c-0.888,0.889-2.088,1.345-3.528,1.345
		c-2.808,0-5.088-1.944-5.088-5.161c0-3.288,2.328-5.424,5.569-5.424c3.408,0,5.496,2.64,5.496,6.864
		c0,5.017-2.904,9.385-9.601,10.969L459.242,115.87z M466.707,106.966c0.024-0.288,0.024-0.624,0.024-0.937
		c0-4.271-1.344-6.145-3.288-6.145c-1.752,0-3.216,1.393-3.216,4.129c0,2.784,1.56,4.057,3.576,4.057
		C464.955,108.07,465.867,107.733,466.707,106.966z"/>
	<path d="M471.386,108.814h6.121v1.536h-6.121V108.814z"/>
	<path d="M490.659,107.71c0,6.48-2.712,8.809-5.473,8.809c-2.832,0-5.521-2.328-5.521-8.809c0-6.457,2.688-8.856,5.521-8.856
		C487.946,98.854,490.659,101.253,490.659,107.71z M485.186,115.511c1.608,0,3.12-1.633,3.12-7.801c0-6.169-1.512-7.825-3.12-7.825
		c-1.68,0-3.192,1.633-3.192,7.825C481.994,113.878,483.506,115.511,485.186,115.511z"/>
	<path d="M504.482,111.046h-2.784v5.137h-2.112v-5.137h-7.128v-1.271l7.776-10.777h1.464v10.513h2.784V111.046z M499.586,109.51
		v-8.089l-5.809,8.089H499.586z"/>
	<path d="M505.969,108.814h6.121v1.536h-6.121V108.814z"/>
	<path d="M525.242,114.143v2.04H514.44v-1.632c1.44-1.44,2.833-2.952,3.984-4.152c2.665-2.784,3.769-4.825,3.769-6.937
		c0-2.16-1.248-3.577-3.216-3.577c-0.384,0-0.888,0.049-1.416,0.169l-0.528,1.92c-0.312,1.2-0.768,1.656-1.44,1.656
		c-0.552,0-1.008-0.288-1.272-0.792c0.36-2.688,2.664-3.984,5.28-3.984c3.384,0,4.896,1.848,4.896,4.488
		c0,2.256-1.224,4.056-5.256,7.872c-0.744,0.721-1.872,1.801-3.072,2.929H525.242z"/>
	<path d="M538.418,114.143v2.04h-10.801v-1.632c1.44-1.44,2.833-2.952,3.984-4.152c2.665-2.784,3.769-4.825,3.769-6.937
		c0-2.16-1.248-3.577-3.216-3.577c-0.384,0-0.888,0.049-1.416,0.169l-0.528,1.92c-0.312,1.2-0.768,1.656-1.44,1.656
		c-0.552,0-1.008-0.288-1.272-0.792c0.36-2.688,2.664-3.984,5.28-3.984c3.384,0,4.896,1.848,4.896,4.488
		c0,2.256-1.224,4.056-5.256,7.872c-0.744,0.721-1.873,1.801-3.072,2.929H538.418z"/>
	<path d="M557.738,114.143v2.04h-10.801v-1.632c1.44-1.44,2.833-2.952,3.984-4.152c2.665-2.784,3.769-4.825,3.769-6.937
		c0-2.16-1.248-3.577-3.216-3.577c-0.384,0-0.888,0.049-1.416,0.169l-0.528,1.92c-0.312,1.2-0.768,1.656-1.44,1.656
		c-0.552,0-1.008-0.288-1.272-0.792c0.36-2.688,2.664-3.984,5.28-3.984c3.384,0,4.896,1.848,4.896,4.488
		c0,2.256-1.224,4.056-5.256,7.872c-0.744,0.721-1.872,1.801-3.072,2.929H557.738z"/>
	<path d="M570.481,115.366v0.816h-9.697v-0.816l3.744-0.527c0.024-1.393,0.048-2.809,0.048-4.201v-9.696l-3.504,0.336v-0.912
		l5.4-1.393l0.36,0.265l-0.096,3.769v7.632c0,1.393,0.024,2.809,0.048,4.201L570.481,115.366z"/>
	<path d="M574.152,105.069c0-1.008,0.792-1.824,1.776-1.824c1.008,0,1.8,0.816,1.8,1.824c0,0.937-0.792,1.753-1.8,1.753
		C574.944,106.822,574.152,106.006,574.152,105.069z M574.152,114.767c0-1.008,0.792-1.824,1.776-1.824c1.008,0,1.8,0.816,1.8,1.824
		c0,0.936-0.792,1.752-1.8,1.752C574.944,116.519,574.152,115.702,574.152,114.767z"/>
	<path d="M584.232,101.565c-0.288,1.056-0.648,1.561-1.488,1.561c-0.552,0-0.984-0.24-1.224-0.889
		c0.48-2.304,2.496-3.384,4.92-3.384c3.048,0,4.968,1.68,4.968,4.104c0,1.944-1.296,3.528-3.625,4.272
		c2.856,0.528,4.177,2.137,4.177,4.297c0,2.904-2.376,4.992-5.881,4.992c-2.616,0-4.56-1.104-5.041-3.648
		c0.288-0.576,0.72-0.84,1.272-0.84c0.816,0,1.128,0.528,1.44,1.729l0.432,1.56c0.528,0.145,1.032,0.192,1.512,0.192
		c2.616,0,3.96-1.464,3.96-3.864s-1.368-3.816-4.081-3.816h-1.248v-1.152h1.032c2.352,0,3.84-1.296,3.84-3.648
		c0-2.016-1.2-3.145-3.265-3.145c-0.36,0-0.792,0.024-1.272,0.145L584.232,101.565z"/>
	<path d="M605.161,107.71c0,6.48-2.712,8.809-5.473,8.809c-2.832,0-5.521-2.328-5.521-8.809c0-6.457,2.688-8.856,5.521-8.856
		C602.449,98.854,605.161,101.253,605.161,107.71z M599.688,115.511c1.608,0,3.12-1.633,3.12-7.801c0-6.169-1.512-7.825-3.12-7.825
		c-1.68,0-3.192,1.633-3.192,7.825C596.496,113.878,598.008,115.511,599.688,115.511z"/>
</g>
<line class="st1" x1="0" y1="77.999" x2="626.5" y2="77.999"/>
</svg>