<!-- Generator: Adobe Illustrator 21.1.0, SVG Export Plug-In  -->
<svg version="1.1"
	 xmlns="http://www.w3.org/2000/svg" xmlns:xlink="http://www.w3.org/1999/xlink" xmlns:a="http://ns.adobe.com/AdobeSVGViewerExtensions/3.0/"
	 x="0px" y="0px" width="1301.374px" height="675.986px" viewBox="0 0 1301.374 675.986"
	 style="enable-background:new 0 0 1301.374 675.986;" xml:space="preserve">
<style type="text/css">
	.st0{fill:none;stroke:#000000;stroke-width:10;}
</style>
<defs>
</defs>
<g>
	<path class="st0" d="M375.66,580.49l71.167-98.402c36.902,35.14,82.59,62.38,134.428,62.38c63.261,0,102.795-34.265,102.795-101.92
		c0-65.898-39.533-101.039-95.764-101.039c-36.027,0-53.6,7.025-92.258,31.628l-68.53-44.808L444.189,5h367.258v130.035h-232.83
		l-9.667,110.706c23.722-9.667,43.057-13.18,67.655-13.18c110.706,0,203.839,65.018,203.839,206.476
		c0,146.727-110.706,231.949-236.348,231.949C499.545,670.986,427.497,631.453,375.66,580.49z"/>
</g>
<polygon points="751.374,338.25 650.687,396.381 550,454.513 550,338.25 550,221.986 650.687,280.118 "/>
<polygon points="476.374,338.25 375.687,396.381 275,454.513 275,338.25 275,221.986 375.687,280.118 "/>
<polygon points="201.374,338.25 100.687,396.381 0,454.513 0,338.25 0,221.986 100.687,280.118 "/>
<polygon points="1301.374,338.25 1200.687,396.381 1100,454.513 1100,338.25 1100,221.986 1200.687,280.118 "/>
<polygon points="1026.374,338.25 925.687,396.381 825,454.513 825,338.25 825,221.986 925.687,280.118 "/>
</svg>