<!-- Generator: Adobe Illustrator 21.1.0, SVG Export Plug-In  -->
<svg version="1.1"
	 xmlns="http://www.w3.org/2000/svg" xmlns:xlink="http://www.w3.org/1999/xlink" xmlns:a="http://ns.adobe.com/AdobeSVGViewerExtensions/3.0/"
	 x="0px" y="0px" width="202px" height="26.64px" viewBox="0 0 202 26.64" style="enable-background:new 0 0 202 26.64;"
	 xml:space="preserve">
<style type="text/css">
	.st0{fill:none;stroke:#000000;stroke-miterlimit:10;}
</style>
<defs>
</defs>
<line class="st0" x1="0" y1="22.14" x2="202" y2="22.14"/>
<line class="st0" x1="0" y1="26.14" x2="202" y2="26.14"/>
<g>
	<path d="M101.533,16.654c-0.316-0.074-0.701-0.177-1.155-0.309c-0.542-0.161-0.99-0.278-1.342-0.352s-0.719-0.11-1.1-0.11
		c-0.822,0-1.628,0.213-2.42,0.639h-0.088c-0.088-0.353-0.132-0.697-0.132-1.034c0-0.616,0.158-1.222,0.473-1.815
		s0.7-1.14,1.155-1.639s1.078-1.137,1.87-1.914c0.836-0.807,1.511-1.5,2.024-2.079s0.946-1.217,1.298-1.914
		c0.352-0.696,0.528-1.426,0.528-2.188c0-0.837-0.136-1.496-0.407-1.98s-0.686-0.726-1.243-0.726c-0.514,0-0.932,0.172-1.254,0.517
		c-0.323,0.345-0.484,0.767-0.484,1.265c0,0.499,0.099,0.943,0.297,1.331c0.198,0.389,0.451,0.671,0.759,0.848V5.28
		c-0.25,0.234-0.521,0.418-0.814,0.55s-0.58,0.198-0.858,0.198c-0.455,0-0.833-0.205-1.133-0.616
		c-0.301-0.41-0.451-0.968-0.451-1.672c0-0.616,0.179-1.21,0.539-1.782c0.359-0.572,0.891-1.041,1.595-1.408
		C99.894,0.184,100.722,0,101.676,0c1.276,0,2.306,0.355,3.091,1.067c0.784,0.711,1.177,1.69,1.177,2.937
		c0,0.792-0.202,1.525-0.605,2.2s-0.898,1.276-1.485,1.804c-0.587,0.528-1.372,1.166-2.354,1.914
		c-0.968,0.733-1.738,1.364-2.31,1.893c-0.572,0.527-1.012,1.085-1.32,1.672c0.425-0.117,0.88-0.177,1.364-0.177
		c0.352,0,0.719,0.03,1.1,0.089s0.741,0.124,1.078,0.197c0.059,0.015,0.253,0.056,0.583,0.121c0.33,0.066,0.627,0.1,0.891,0.1
		c0.396,0,0.762-0.085,1.1-0.253c0.337-0.169,0.689-0.459,1.056-0.869l0.066,0.044c0.19,0.543,0.286,0.997,0.286,1.363
		c0,0.514-0.136,0.973-0.407,1.375c-0.271,0.404-0.634,0.719-1.089,0.946s-0.938,0.341-1.452,0.341
		C102.152,16.764,101.848,16.728,101.533,16.654z"/>
</g>
</svg>