<!-- Generator: Adobe Illustrator 21.1.0, SVG Export Plug-In  -->
<svg version="1.1"
	 xmlns="http://www.w3.org/2000/svg" xmlns:xlink="http://www.w3.org/1999/xlink" xmlns:a="http://ns.adobe.com/AdobeSVGViewerExtensions/3.0/"
	 x="0px" y="0px" width="296.892px" height="2682.091px" viewBox="0 0 296.892 2682.091"
	 style="enable-background:new 0 0 296.892 2682.091;" xml:space="preserve">
<style type="text/css">
	.st0{fill:none;stroke:#FFFFFF;stroke-width:3;stroke-miterlimit:10;}
</style>
<defs>
</defs>
<g>
	<path class="st0" d="M76.252,0.476c-89.226,266.945-82.641,470.166-61,605c34.478,214.821,105.937,248.356,104,450
		c-1.692,176.206-56.868,214.069-78,492c-8.648,113.739-14.742,193.896,0,303c26.674,197.407,88.562,245.367,104,397
		c8.551,83.989,3.893,210.012-69,372"/>
	<path class="st0" d="M113.002,15.976c-89.226,266.945-82.641,470.166-61,605c34.478,214.821,105.937,248.356,104,450
		c-1.692,176.206-56.868,214.069-78,492c-8.648,113.739-14.742,193.896,0,303c26.674,197.407,88.562,245.367,104,397
		c8.551,83.989,3.893,210.012-69,372"/>
	<path class="st0" d="M149.752,31.476c-89.226,266.945-82.641,470.166-61,605c34.478,214.821,105.937,248.356,104,450
		c-1.692,176.206-56.868,214.069-78,492c-8.648,113.739-14.742,193.896,0,303c26.674,197.407,88.562,245.367,104,397
		c8.551,83.989,3.893,210.012-69,372"/>
	<path class="st0" d="M186.502,46.976c-89.226,266.945-82.641,470.166-61,605c34.478,214.821,105.937,248.356,104,450
		c-1.692,176.206-56.868,214.069-78,492c-8.648,113.739-14.742,193.896,0,303c26.674,197.407,88.562,245.367,104,397
		c8.551,83.989,3.893,210.012-69,372"/>
	<path class="st0" d="M223.252,62.476c-89.226,266.945-82.641,470.166-61,605c34.478,214.821,105.937,248.356,104,450
		c-1.692,176.206-56.868,214.069-78,492c-8.648,113.739-14.742,193.896,0,303c26.674,197.407,88.562,245.367,104,397
		c8.551,83.989,3.893,210.012-69,372"/>
</g>
</svg>