<!-- Generator: Adobe Illustrator 21.1.0, SVG Export Plug-In  -->
<svg version="1.1"
	 xmlns="http://www.w3.org/2000/svg" xmlns:xlink="http://www.w3.org/1999/xlink" xmlns:a="http://ns.adobe.com/AdobeSVGViewerExtensions/3.0/"
	 x="0px" y="0px" width="450.305px" height="190.854px" viewBox="0 0 450.305 190.854"
	 style="enable-background:new 0 0 450.305 190.854;" xml:space="preserve">
<defs>
</defs>
<g>
	<path d="M13.89,17.322c-0.555,3.021-2.465,4.068-4.622,4.068c-1.479,0-2.773-0.679-3.451-1.85
		C6.001,12.146,12.473,9.003,19.93,9.003c9.799,0,14.421,4.499,14.421,10.908c0,5.238-3.143,9.368-11.647,11.032
		c9.614,1.417,13.004,5.731,13.004,11.709c0,7.458-6.41,12.635-16.948,12.635c-9.368,0-14.299-4.067-14.854-10.971
		c0.616-1.972,2.219-2.773,3.821-2.773c2.466,0,4.006,1.172,4.561,5.301l0.986,6.04c0.739,0.185,1.417,0.246,2.28,0.246
		c6.409,0,9.923-3.451,9.923-10.354c0-6.779-3.39-10.293-9.677-10.293h-2.403V30.08h2.096c5.485,0,9.06-3.081,9.06-9.922
		c0-5.979-2.712-9.061-7.457-9.061c-0.616,0-1.295,0.062-2.034,0.186L13.89,17.322z"/>
	<path d="M70.9,10.543c-11.464,2.65-18.305,9.861-19.907,19.907c2.712-2.403,6.04-3.637,9.984-3.637
		c7.95,0,12.572,5.732,12.572,13.806c0,8.505-5.978,14.668-15.839,14.668c-10.477,0-17.133-6.841-17.133-18.735
		c0-14.237,12.265-25.946,29.952-27.549L70.9,10.543z M63.689,41.112c0-7.026-2.219-10.848-6.533-10.848
		c-2.219,0-4.499,0.617-6.409,2.404c-0.062,0.801-0.123,1.664-0.123,2.526c0,12.573,2.896,17.935,7.087,17.935
		C61.101,53.13,63.689,49.679,63.689,41.112z"/>
	<path d="M110.654,32.176c0,16.085-7.581,23.111-16.086,23.111c-8.566,0-16.023-7.026-16.023-23.111
		c0-16.147,7.457-23.173,16.023-23.173C103.073,9.003,110.654,16.028,110.654,32.176z M94.568,53.13
		c3.637,0,6.779-4.499,6.779-20.954c0-16.579-3.143-21.078-6.779-21.078c-3.636,0-6.656,4.438-6.656,21.078
		C87.912,48.692,90.933,53.13,94.568,53.13z"/>
	<path d="M144.678,24.164c2.896-3.205,6.532-4.623,10.6-4.623c7.52,0,13.497,6.287,13.497,17.688
		c0,11.217-6.841,18.058-14.976,18.058c-3.39,0-6.472-1.232-9.06-4.253v3.637c0,3.697,0.062,8.382,0.123,13.188l4.745,0.555v1.787
		h-18.92v-1.787l4.129-0.432c0.062-4.868,0.123-9.553,0.123-13.312V34.518c0-4.006-0.062-6.102-0.185-9.06l-4.561-0.493v-1.479
		l13.188-3.882l0.863,0.616L144.678,24.164z M144.924,49.37c1.541,1.233,3.082,1.541,5.115,1.541c4.808,0,8.197-3.328,8.197-13.62
		c0-10.046-2.959-13.497-7.827-13.497c-1.849,0-3.451,0.309-5.485,2.157V49.37z"/>
	<path d="M196.08,50.172c-1.85,3.328-4.931,5.115-9.677,5.115c-6.286,0-9.676-2.835-9.614-9.676c0-2.342,0.062-4.13,0.062-6.718
		V23.116h-4.991v-1.973l5.484-0.616l3.205-9.86h6.348l-0.123,9.922h7.643v2.527h-7.643v23.296c0,3.328,1.603,4.746,4.067,4.746
		c1.541,0,2.589-0.617,4.191-1.973L196.08,50.172z"/>
</g>
<g>
	<g>
		<path d="M55.281,94.644l-4.252,0.616L40.12,126.567h-4.19c-4.808-13.312-7.026-19.536-8.443-24.405l-8.69,24.405h-4.19
			L3.327,95.013l-3.328-0.369v-1.85H18.18v1.85l-4.807,0.431l6.902,22.495l7.272-22.434l-4.808-0.492v-1.85h16.086v1.85
			l-4.745,0.555L41.6,117.2l6.532-21.94l-5.546-0.616v-1.85h12.695V94.644z"/>
		<path d="M87.457,119.172c-2.527,5.3-7.458,8.32-13.744,8.32c-10.169,0-17.688-6.472-17.688-17.996
			c0-11.587,8.812-17.75,17.626-17.75c9.245,0,14.236,6.225,14.236,14.052c0,1.541-0.062,2.589-0.369,3.76H66.564
			c0.308,9.614,4.93,13.559,10.724,13.559c4.313,0,6.964-1.849,8.998-4.684L87.457,119.172z M74.945,107.339
			c2.897,0,3.637-1.417,3.637-5.238c0-5.362-2.342-8.197-5.608-8.197c-3.39,0-6.163,3.821-6.409,13.374L74.945,107.339z"/>
		<path d="M110.263,124.534v1.91H92.267v-1.91l4.067-0.37c0.062-3.636,0.123-8.937,0.123-12.388v-4.931
			c0-3.944-0.062-6.225-0.185-9.367l-4.622-0.493v-1.479l14.113-3.697l0.863,0.616l-0.247,9.86v9.491
			c0,3.451,0.062,8.813,0.123,12.388L110.263,124.534z M95.903,80.653c0-2.959,2.403-5.054,5.3-5.054
			c2.958,0,5.361,2.095,5.361,5.054c0,2.896-2.403,4.992-5.361,4.992C98.307,85.646,95.903,83.55,95.903,80.653z"/>
		<path d="M148.782,97.231l-7.457-0.801c1.417,1.849,2.096,4.129,2.096,6.718c0,6.471-4.623,11.586-14.237,11.586
			c-2.958,0-5.484-0.493-7.519-1.355c-0.678,1.109-1.048,2.157-1.048,3.513c0,2.28,1.418,3.451,4.869,3.451h9.06
			c9.923,0,13.559,3.821,13.559,9.368c0,6.902-6.841,12.695-19.783,12.695c-11.217,0-14.853-3.883-14.853-8.382
			c0-2.711,2.033-5.115,6.162-6.717c-2.711-1.233-4.499-2.836-4.499-5.917s1.603-5.361,5.301-8.628
			c-3.76-2.034-5.547-5.547-5.547-9.614c0-6.595,4.622-11.402,14.36-11.402c4.745,0,8.196,1.171,10.538,3.144l7.889-3.144
			l1.109,0.679V97.231z M128.137,128.602c-3.637,0-5.362-0.123-7.334-0.678c-1.048,1.355-1.541,2.711-1.541,4.745
			c0,4.499,3.39,7.026,8.998,7.026c8.135,0,12.079-2.527,12.079-6.102c0-2.65-1.417-4.992-5.361-4.992H128.137z M134.669,103.148
			c0-6.04-2.033-9.553-5.423-9.553c-3.452,0-5.424,3.574-5.424,9.553c0,5.978,1.787,9.676,5.361,9.676
			C132.697,112.824,134.669,109.126,134.669,103.148z"/>
		<path d="M190.941,124.534v1.91h-17.873v-1.91l3.944-0.37c0.062-3.574,0.123-8.813,0.123-12.388v-8.875
			c0-4.807-1.787-6.532-4.499-6.532c-1.972,0-4.376,1.047-6.902,3.328v12.079c0,3.451,0.062,8.813,0.123,12.449l3.575,0.309v1.91
			h-17.812v-1.91l4.067-0.37c0.062-3.636,0.123-8.937,0.123-12.388V80.222l-4.499-0.432v-1.603l13.621-2.649l0.862,0.555
			l-0.185,9.922v11.956c3.697-4.375,6.841-6.225,11.463-6.225c5.979,0,10.046,3.637,10.046,12.019v8.012
			c0,3.636,0.062,8.875,0.123,12.449L190.941,124.534z"/>
		<path d="M217.384,122.377c-1.85,3.328-4.931,5.115-9.677,5.115c-6.286,0-9.676-2.835-9.614-9.676c0-2.342,0.062-4.13,0.062-6.718
			V95.321h-4.991v-1.973l5.484-0.616l3.205-9.86h6.348l-0.123,9.922h7.643v2.527h-7.643v23.296c0,3.328,1.603,4.746,4.067,4.746
			c1.541,0,2.589-0.617,4.191-1.973L217.384,122.377z"/>
		<path d="M222.008,97.17c0-3.081,2.526-5.608,5.67-5.608c3.143,0,5.67,2.527,5.67,5.608c0,3.082-2.527,5.547-5.67,5.547
			C224.534,102.717,222.008,100.252,222.008,97.17z M222.008,121.884c0-3.02,2.526-5.608,5.67-5.608c3.143,0,5.67,2.589,5.67,5.608
			c0,3.081-2.527,5.547-5.67,5.547C224.534,127.431,222.008,124.965,222.008,121.884z"/>
		<path d="M299.048,82.995c-0.123,6.286-0.123,12.695-0.123,19.105v2.712c0,6.286,0,12.634,0.123,18.981l5.424,0.555v2.096h-21.324
			v-2.096l5.177-0.555c0.185-6.102,0.185-12.511,0.185-19.598h-16.578c0,6.964,0,13.373,0.185,19.659l5.115,0.493v2.096h-21.324
			v-2.096l5.485-0.555c0.062-6.225,0.062-12.572,0.062-18.981v-2.712c0-6.41,0-12.758-0.062-19.044l-5.485-0.555v-2.096h21.324
			v2.096l-5.115,0.493c-0.185,6.163-0.185,12.511-0.185,18.858h16.578c0-6.286,0-12.634-0.185-18.858l-5.177-0.493v-2.096h21.324
			v2.096L299.048,82.995z"/>
		<path d="M338.619,119.172c-2.527,5.3-7.458,8.32-13.744,8.32c-10.169,0-17.688-6.472-17.688-17.996
			c0-11.587,8.812-17.75,17.626-17.75c9.245,0,14.236,6.225,14.236,14.052c0,1.541-0.062,2.589-0.369,3.76h-20.954
			c0.308,9.614,4.93,13.559,10.724,13.559c4.313,0,6.964-1.849,8.998-4.684L338.619,119.172z M326.107,107.339
			c2.897,0,3.637-1.417,3.637-5.238c0-5.362-2.342-8.197-5.608-8.197c-3.39,0-6.163,3.821-6.409,13.374L326.107,107.339z"/>
		<path d="M378.065,122.685c-1.541,3.39-3.883,4.808-7.827,4.808c-4.068,0-6.349-2.034-7.272-5.362
			c-3.144,3.451-5.485,5.362-10.416,5.362c-5.3,0-8.998-3.205-8.998-8.382c0-5.608,3.205-8.628,13.128-11.524
			c1.726-0.493,3.882-1.048,6.039-1.603v-3.76c0-6.409-1.479-8.32-6.163-8.32c-0.862,0-1.664,0.062-2.588,0.247l-0.432,4.375
			c-0.185,4.191-2.28,5.855-4.622,5.855c-2.219,0-3.76-1.109-4.253-3.144c0.493-5.793,5.855-9.491,15.408-9.491
			c8.751,0,12.264,3.76,12.264,12.696v16.578c0,2.343,0.74,3.144,1.911,3.144c0.924,0,1.603-0.493,2.773-2.342L378.065,122.685z
			 M350.517,95.013l-0.986,0.37L350.517,95.013z M362.719,107.647c-1.417,0.369-2.649,0.739-3.39,1.047
			c-4.313,1.788-6.594,4.685-6.594,9.184c0,3.697,1.726,5.423,4.622,5.423c1.664,0,3.081-0.801,5.361-2.835V107.647z"/>
		<path d="M413.013,94.644l-4.376,0.678l-11.956,31.246h-4.252l-12.388-31.432l-3.821-0.492v-1.85h18.92v1.85l-4.437,0.492
			l7.703,22.064l7.396-21.94l-4.807-0.616v-1.85h12.018V94.644z"/>
		<path d="M450.302,94.644l-4.13,0.555l-13.312,35.437c-3.637,9.614-9.061,12.512-12.819,12.512c-3.451,0-6.718-2.034-6.841-4.808
			c0.493-2.773,2.896-3.944,5.3-3.944c2.465,0,4.253,1.418,5.793,3.39l0.986,1.294c2.342-1.972,4.067-4.868,5.854-9.306
			l-14.605-34.76l-3.575-0.369v-1.85h18.798v1.85l-4.499,0.492l8.381,23.297l7.581-23.173l-5.608-0.616v-1.85h12.696V94.644z"/>
	</g>
</g>
</svg>