<!-- Generator: Adobe Illustrator 21.1.0, SVG Export Plug-In  -->
<svg version="1.1"
	 xmlns="http://www.w3.org/2000/svg" xmlns:xlink="http://www.w3.org/1999/xlink" xmlns:a="http://ns.adobe.com/AdobeSVGViewerExtensions/3.0/"
	 x="0px" y="0px" width="11.67px" height="62.949px" viewBox="0 0 11.67 62.949" style="enable-background:new 0 0 11.67 62.949;"
	 xml:space="preserve">
<defs>
</defs>
<g>
	<g>
		<g>
			<rect x="9.931" y="0.005" transform="matrix(1 -0.0079 0.0079 1 -0.1231 0.0845)" width="1.481" height="31.342"/>
		</g>
	</g>
	<g>
		<ellipse transform="matrix(0.781 -0.6245 0.6245 0.781 -18.6715 10.6391)" cx="5.835" cy="31.944" rx="6.514" ry="4.571"/>
	</g>
</g>
<g>
	<path d="M3.906,54.541c0,0.146-0.048,0.282-0.144,0.41s-0.198,0.2-0.308,0.219S3.24,55.176,3.14,55.135
		c-0.101-0.041-0.187-0.103-0.26-0.185c-0.073-0.082-0.135-0.18-0.185-0.294c-0.05-0.114-0.075-0.234-0.075-0.362
		c-0.009-0.383,0.062-0.729,0.212-1.039s0.357-0.574,0.622-0.793c0.264-0.219,0.569-0.388,0.916-0.506
		c0.346-0.118,0.711-0.178,1.094-0.178c0.392,0,0.759,0.053,1.101,0.157s0.64,0.265,0.896,0.479c0.255,0.214,0.456,0.48,0.602,0.8
		c0.146,0.319,0.219,0.692,0.219,1.121c0,0.2-0.043,0.417-0.13,0.649c-0.087,0.232-0.198,0.47-0.335,0.711s-0.292,0.483-0.465,0.725
		c-0.173,0.241-0.347,0.477-0.52,0.704c-0.419,0.52-0.707,1.041-0.861,1.565c-0.155,0.524-0.242,1.014-0.26,1.47H5.287
		c-0.055-1.048,0.264-2.097,0.957-3.145c0.109-0.164,0.228-0.349,0.355-0.554c0.127-0.205,0.246-0.424,0.355-0.656
		s0.198-0.472,0.267-0.718s0.103-0.497,0.103-0.752c-0.019-0.738-0.21-1.292-0.574-1.661c-0.365-0.369-0.807-0.554-1.326-0.554
		c-0.292,0-0.559,0.041-0.8,0.123c-0.242,0.082-0.454,0.191-0.636,0.328c-0.183,0.137-0.324,0.292-0.424,0.465
		c-0.101,0.173-0.15,0.347-0.15,0.52c0,0.109,0.025,0.198,0.075,0.267c0.05,0.068,0.107,0.135,0.171,0.198
		c0.063,0.063,0.121,0.137,0.171,0.219C3.88,54.322,3.906,54.422,3.906,54.541z M5.437,62.949c-0.246,0-0.447-0.08-0.602-0.239
		c-0.155-0.159-0.232-0.354-0.232-0.581c0-0.219,0.08-0.412,0.239-0.581c0.159-0.169,0.357-0.253,0.595-0.253
		c0.246,0,0.451,0.082,0.615,0.246s0.246,0.36,0.246,0.588S6.216,62.55,6.052,62.71S5.683,62.949,5.437,62.949z"/>
</g>
</svg>