<!-- Generator: Adobe Illustrator 21.1.0, SVG Export Plug-In  -->
<svg version="1.1"
	 xmlns="http://www.w3.org/2000/svg" xmlns:xlink="http://www.w3.org/1999/xlink" xmlns:a="http://ns.adobe.com/AdobeSVGViewerExtensions/3.0/"
	 x="0px" y="0px" width="67.745px" height="32.631px" viewBox="0 0 67.745 32.631"
	 style="enable-background:new 0 0 67.745 32.631;" xml:space="preserve">
<defs>
</defs>
<path d="M23.3,28.515c-3.601-5.4-11.521-11.16-19.44-14.4l3.6-10.44c1.08-1.8,2.16-2.88,6.12-2.52c12.96,0.72,37.08,4.68,47.16,8.28
	c3.601,1.439,4.681,3.96,4.32,7.56l-0.917,14.678c0.897,0.306,1.79,0.622,2.673,0.958l0.865-15.282
	c0.359-4.32-0.721-7.2-4.681-8.641c-10.439-3.6-37.8-7.92-51.84-8.64c-4.32-0.36-5.76,0.72-6.84,2.88L0,14.828
	c7.2,3.24,15.12,9.36,18,14.4v0.885c1.744-0.465,3.511-0.869,5.3-1.216V28.515z"/>
</svg>