<!-- Generator: Adobe Illustrator 21.1.0, SVG Export Plug-In  -->
<svg version="1.1"
	 xmlns="http://www.w3.org/2000/svg" xmlns:xlink="http://www.w3.org/1999/xlink" xmlns:a="http://ns.adobe.com/AdobeSVGViewerExtensions/3.0/"
	 x="0px" y="0px" width="208.069px" height="127.136px" viewBox="0 0 208.069 127.136"
	 style="enable-background:new 0 0 208.069 127.136;" xml:space="preserve">
<style type="text/css">
	.st0{fill:none;stroke:#000000;stroke-miterlimit:10;}
</style>
<defs>
</defs>
<g>
	<g>
		<rect x="204.746" y="1.886" transform="matrix(1 -0.0079 0.0079 1 -0.2443 1.6242)" width="2.83" height="59.901"/>
	</g>
</g>
<g>
	<ellipse transform="matrix(0.781 -0.6245 0.6245 0.781 3.8233 136.7573)" cx="196.918" cy="62.927" rx="12.45" ry="8.737"/>
</g>
<g>
	<g>
		<rect x="18.98" y="1.886" transform="matrix(1 -0.0079 0.0079 1 -0.25 0.1616)" width="2.83" height="59.901"/>
	</g>
</g>
<g>
	<ellipse transform="matrix(0.781 -0.6245 0.6245 0.781 -36.8566 20.7443)" cx="11.152" cy="62.927" rx="12.45" ry="8.737"/>
</g>
<g>
	<g>
		<rect x="112.274" y="1.886" transform="matrix(1 -0.0079 0.0079 1 -0.2471 0.8961)" width="2.83" height="59.901"/>
	</g>
</g>
<g>
	<ellipse transform="matrix(0.781 -0.6245 0.6245 0.781 -16.4266 79.0074)" cx="104.446" cy="62.927" rx="12.45" ry="8.737"/>
</g>
<g>
	<g>
		<rect x="65.627" y="1.886" transform="matrix(1 -0.0079 0.0079 1 -0.2486 0.5289)" width="2.83" height="59.901"/>
	</g>
</g>
<g>
	<ellipse transform="matrix(0.781 -0.6245 0.6245 0.781 -26.6416 49.8759)" cx="57.799" cy="62.927" rx="12.45" ry="8.737"/>
</g>
<g>
	<g>
		<rect x="158.51" y="1.886" transform="matrix(1 -0.0079 0.0079 1 -0.2457 1.2602)" width="2.83" height="59.901"/>
	</g>
</g>
<g>
	<ellipse transform="matrix(0.781 -0.6245 0.6245 0.781 -6.3017 107.8824)" cx="150.682" cy="62.927" rx="12.45" ry="8.737"/>
</g>
<g>
	<g>
		<rect x="18.705" width="188.658" height="9.433"/>
	</g>
</g>
<polyline class="st0" points="11.436,99.736 11.436,118.736 68.436,118.736 "/>
<polyline class="st0" points="196.437,99.737 196.437,118.737 142.436,118.737 "/>
<g>
	<path d="M85.651,125.364c-0.652-0.55-0.979-1.272-0.979-2.167c0-0.557,0.131-1.07,0.396-1.539c0.265-0.47,0.623-0.84,1.078-1.111
		c0.454-0.271,0.953-0.407,1.495-0.407c0.559,0,1.009,0.14,1.354,0.418c0.345,0.279,0.518,0.646,0.518,1.101
		c0,0.352-0.081,0.63-0.242,0.836c-0.133-0.177-0.312-0.316-0.539-0.418c-0.228-0.104-0.466-0.154-0.715-0.154
		c-0.44,0-0.8,0.146-1.078,0.439c-0.279,0.294-0.418,0.675-0.418,1.145c0,0.469,0.135,0.851,0.406,1.144
		c0.271,0.294,0.613,0.44,1.023,0.44c0.514,0,0.953-0.228,1.32-0.682c0.366-0.455,0.645-1.13,0.836-2.024l1.1-4.862h-0.088
		c-0.396,0.558-0.877,0.983-1.441,1.276s-1.184,0.439-1.858,0.439c-0.851,0-1.599-0.227-2.244-0.682
		c-0.646-0.454-1.141-1.104-1.485-1.947c-0.344-0.843-0.517-1.822-0.517-2.937c0-1.613,0.353-3.084,1.056-4.411
		c0.705-1.327,1.672-2.372,2.904-3.135s2.588-1.145,4.07-1.145c1.246,0,2.232,0.271,2.959,0.814
		c0.726,0.543,1.089,1.283,1.089,2.222c0,0.631-0.154,1.137-0.462,1.519c-0.309,0.381-0.712,0.571-1.21,0.571
		c-0.278,0-0.539-0.059-0.781-0.176s-0.444-0.286-0.604-0.506c0.264-0.176,0.486-0.458,0.67-0.847s0.275-0.781,0.275-1.178
		c0-0.439-0.129-0.78-0.385-1.022c-0.257-0.242-0.619-0.363-1.089-0.363c-0.851,0-1.673,0.378-2.464,1.133
		c-0.793,0.756-1.43,1.742-1.914,2.959c-0.484,1.218-0.727,2.494-0.727,3.828c0,1.101,0.176,1.94,0.528,2.52
		s0.858,0.869,1.519,0.869c0.791,0,1.492-0.419,2.101-1.255s1.097-2.053,1.463-3.651l2.597,0.021l-1.607,7.393
		c-0.469,2.185-1.133,3.791-1.99,4.817s-1.969,1.54-3.333,1.54C87.164,126.19,86.303,125.915,85.651,125.364z"/>
	<path d="M96.342,121.107c-0.433-0.439-0.648-1.1-0.648-1.979c0-0.366,0.059-0.844,0.176-1.431l1.496-7.062h3.168l-1.584,7.48
		c-0.059,0.22-0.088,0.454-0.088,0.703c0,0.294,0.069,0.503,0.209,0.627c0.139,0.125,0.37,0.188,0.693,0.188
		c0.425,0,0.82-0.18,1.188-0.539c0.366-0.359,0.631-0.825,0.792-1.397h0.924c-0.542,1.585-1.239,2.659-2.09,3.224
		s-1.694,0.847-2.53,0.847C97.344,121.768,96.775,121.548,96.342,121.107z M98.311,108.941c-0.337-0.337-0.506-0.748-0.506-1.231
		c0-0.484,0.169-0.898,0.506-1.243c0.338-0.345,0.748-0.517,1.232-0.517s0.898,0.172,1.243,0.517s0.517,0.759,0.517,1.243
		c0,0.483-0.172,0.895-0.517,1.231c-0.345,0.338-0.759,0.506-1.243,0.506S98.649,109.279,98.311,108.941z"/>
	<path d="M103.239,110.636h3.168L106.121,112c0.498-0.44,0.949-0.777,1.354-1.013c0.402-0.234,0.839-0.352,1.309-0.352
		c0.469,0,0.84,0.161,1.111,0.484c0.271,0.322,0.406,0.711,0.406,1.166c0,0.425-0.139,0.799-0.418,1.122
		c-0.278,0.322-0.667,0.483-1.166,0.483c-0.322,0-0.539-0.077-0.648-0.23c-0.11-0.154-0.195-0.378-0.254-0.672
		c-0.043-0.19-0.088-0.329-0.131-0.418c-0.045-0.088-0.125-0.132-0.242-0.132c-0.309,0-0.568,0.062-0.781,0.188
		s-0.488,0.341-0.825,0.648l-1.76,8.36h-3.168L103.239,110.636z"/>
	<path d="M110.488,121.107c-0.434-0.439-0.649-1.1-0.649-1.979c0-0.366,0.059-0.844,0.176-1.431l2.354-11.021l3.256-0.44
		l-2.53,11.881c-0.06,0.22-0.088,0.454-0.088,0.703c0,0.294,0.069,0.503,0.209,0.627c0.14,0.125,0.37,0.188,0.692,0.188
		c0.426,0,0.822-0.18,1.188-0.539s0.63-0.825,0.792-1.397h0.924c-0.543,1.585-1.239,2.659-2.09,3.224s-1.693,0.847-2.529,0.847
		C111.488,121.768,110.92,121.548,110.488,121.107z"/>
	<path d="M117.506,126.465c-0.521-0.447-0.781-1.016-0.781-1.705c0-0.646,0.161-1.174,0.484-1.584
		c0.322-0.411,0.74-0.733,1.254-0.968c0.514-0.235,1.202-0.484,2.068-0.748l0.219-0.968c-0.748,0.851-1.643,1.275-2.684,1.275
		c-0.703,0-1.272-0.22-1.705-0.66c-0.433-0.439-0.648-1.1-0.648-1.979c0-0.366,0.059-0.844,0.176-1.431l1.496-7.062h3.168
		l-1.584,7.48c-0.044,0.176-0.066,0.359-0.066,0.55c0,0.646,0.221,0.968,0.66,0.968c0.41,0,0.763-0.172,1.057-0.517
		c0.293-0.345,0.527-0.818,0.703-1.42l1.496-7.062h3.19l-2.685,12.76c-0.293,1.408-0.811,2.384-1.551,2.926
		c-0.74,0.543-1.559,0.814-2.453,0.814C118.631,127.136,118.026,126.912,117.506,126.465z M119.563,124.771
		c0.234-0.271,0.418-0.708,0.551-1.309l0.264-1.298c-0.777,0.264-1.379,0.571-1.805,0.924c-0.426,0.352-0.638,0.807-0.638,1.364
		c0,0.176,0.088,0.341,0.265,0.494c0.176,0.154,0.381,0.231,0.615,0.231C119.078,125.178,119.328,125.042,119.563,124.771z"/>
</g>
</svg>