<!-- Generator: Adobe Illustrator 21.1.0, SVG Export Plug-In  -->
<svg version="1.1"
	 xmlns="http://www.w3.org/2000/svg" xmlns:xlink="http://www.w3.org/1999/xlink" xmlns:a="http://ns.adobe.com/AdobeSVGViewerExtensions/3.0/"
	 x="0px" y="0px" width="479.283px" height="1315.955px" viewBox="0 0 479.283 1315.955"
	 style="enable-background:new 0 0 479.283 1315.955;" xml:space="preserve">
<defs>
</defs>
<g>
	<path d="M8.312,1234.62c-34.439-82.451,41.29-192.811,168.881-246.105c127.588-53.293,259.313-29.586,293.752,52.865
		c34.703,83.082-42.261,193.216-168.875,246.102C174.48,1340.776,42.752,1317.073,8.312,1234.62z M377.047,1176.701l-16.695-39.969
		l-41.392,17.289c-13.148,5.492-33.338,14.666-47.066,21.507c28.335-36.229,59.452-83.6,47.753-111.609
		c-13.276-31.785-59.976-38.15-116.951-14.352c-37.013,15.46-65.605,37.382-86.581,67.951l50.712,9.124
		c10.611-12.932,22.291-27.421,42.741-35.963c19.968-8.341,34.284-6.928,40.462,7.863c9.202,22.03-27.928,70.064-79.211,132.141
		l11.436,27.38L377.047,1176.701z"/>
</g>
<rect x="416.673" width="56" height="1119"/>
</svg>