<!-- Generator: Adobe Illustrator 21.1.0, SVG Export Plug-In  -->
<svg version="1.1"
	 xmlns="http://www.w3.org/2000/svg" xmlns:xlink="http://www.w3.org/1999/xlink" xmlns:a="http://ns.adobe.com/AdobeSVGViewerExtensions/3.0/"
	 x="0px" y="0px" width="313.12px" height="121.101px" viewBox="0 0 313.12 121.101"
	 style="enable-background:new 0 0 313.12 121.101;" xml:space="preserve">
<style type="text/css">
	.st0{fill:url(#SVGID_1_);}
	.st1{fill:url(#SVGID_2_);}
</style>
<defs>
</defs>
<g>
	<g>
		<path d="M17.864,0.785c0.056-0.141,0.168-0.225,0.476-0.225c1.456,0.057,3.752,0.504,4.816,0.98c0.308,0.14,0.447,0.42,0.42,0.84
			l-0.112,1.764v6.944c0,1.596-0.532,4.592-1.204,5.992h-2.24c-0.168-0.561-0.308-2.017-0.392-3.305
			c-0.98,0-2.072,0.057-2.548,0.112c-0.448,0.056-1.288,0.252-1.736,0.392c-0.924-0.504-1.68-1.147-2.324-1.819
			c-0.111-0.141-0.14-0.28-0.056-0.42l0.28-0.448c0.7,0.112,1.792,0.168,2.604,0.168c0.812,0.028,2.464,0,3.725-0.084V8.652
			c-0.784,0.028-1.54,0.057-1.904,0.112C17.22,8.82,16.38,9.017,15.932,9.156c-0.476-0.279-0.924-0.56-1.344-0.896
			c-2.24,4.144-6.608,7.979-11.815,10.22c-0.253,0.141-0.421,0.141-0.505,0.057l-0.56-0.616c-0.14-0.141-0.168-0.28-0.028-0.448
			c4.48-3.108,7.84-7.336,9.38-11.2C9.828,6.301,8.204,6.301,7.7,6.356c-0.616,0.028-1.708,0.225-2.353,0.42
			C4.424,6.329,3.416,5.572,2.772,4.9C2.632,4.732,2.604,4.621,2.688,4.48L2.94,4.117c0.896,0.14,2.071,0.195,2.884,0.195
			c1.008,0.028,5.067-0.056,6.244-0.168l1.26-0.56c0.196-0.084,0.504-0.084,0.672,0c0.56,0.279,1.596,0.84,1.988,1.12
			c0.168,0.111,0.195,0.308,0.084,0.504l-0.561,1.063l-0.14,0.336c0.364,0.028,0.756,0.028,1.063,0.028
			c0.7,0.028,1.988,0,3.137-0.056v-2.94c-0.336-0.644-1.177-1.315-2.101-1.708L17.864,0.785z M23.1,21.98
			c0,3.5-2.996,5.544-6.468,5.544s-6.468-2.044-6.468-5.544c0-3.248,2.996-5.151,6.468-5.151S23.1,18.732,23.1,21.98z M19.208,21.98
			c0-1.651-1.148-2.548-2.576-2.548s-2.576,0.896-2.576,2.548c0,1.652,1.148,2.521,2.576,2.521S19.208,23.633,19.208,21.98z"/>
		<path d="M40.936,12.349c0,3.584-2.604,6.048-6.244,6.048c-3.64,0-6.243-2.464-6.243-6.048c0-3.5,2.604-5.936,6.243-5.936
			C38.332,6.413,40.936,8.849,40.936,12.349z M37.212,12.349c0-1.848-1.008-2.996-2.521-2.996c-1.512,0-2.52,1.148-2.52,2.996
			c0,1.876,1.008,3.024,2.52,3.024C36.204,15.373,37.212,14.225,37.212,12.349z M46.06,0.785c0.084-0.141,0.196-0.225,0.504-0.225
			c1.345,0.057,3.528,0.504,4.536,0.98c0.309,0.14,0.448,0.392,0.42,0.812l-0.111,1.652v16.044c0,1.932-0.477,5.684-1.261,7.7
			h-2.044c-0.252-0.98-0.448-5.265-0.448-6.608v-7.28l-1.764,0.057v5.18c0,1.792-0.448,5.208-1.147,7h-1.933
			c-0.252-1.064-0.447-4.732-0.447-5.992V5.265c-0.309-0.56-1.064-1.12-1.877-1.484l0.421-1.092c0.056-0.14,0.168-0.224,0.504-0.224
			c1.26,0.056,3.275,0.504,4.199,0.952c0.28,0.14,0.393,0.392,0.393,0.784l-0.112,1.512v5.824l1.764-0.057V3.501
			c-0.308-0.588-1.119-1.204-1.987-1.597L46.06,0.785z"/>
		<path d="M67.731,7.421c0.924,0.056,2.212,0.252,2.772,0.448c0.224,0.084,0.363,0.336,0.363,0.615c0,0.784-0.392,1.513-0.728,1.736
			c-0.504-0.056-2.016-0.056-2.716-0.056c-1.036-0.028-7.196,0.111-8.204,0.195c-0.616,0.028-1.652,0.225-2.212,0.364
			c-0.924-0.504-1.876-1.344-2.492-2.072C54.403,8.541,54.403,8.4,54.46,8.289l0.224-0.448c0.952,0.168,2.212,0.252,2.968,0.252
			c1.232,0.028,7.84-0.14,9.072-0.224L67.731,7.421z M69.188,16.353c0,3.136-2.884,4.984-6.104,4.984
			c-3.248,0-6.16-1.849-6.16-4.984c0-3.164,2.912-5.067,6.16-5.067C66.304,11.285,69.188,13.188,69.188,16.353z M58.632,3.221
			c2.576,0.448,5.348,0.588,7.084,0.56c0.364,0,0.56,0.057,0.728,0.309c0.309,0.504,0.225,1.792-0.168,2.156
			c-0.168,0.14-0.363,0.168-0.644,0.168c-1.12,0-3.304,0.084-4.48,0.168c-0.42,0.056-0.644,0.027-0.868-0.141
			c-0.615-0.476-1.455-1.512-1.932-2.38c-0.084-0.196-0.084-0.308,0-0.448L58.632,3.221z M65.548,16.353
			c0-1.68-1.12-2.576-2.464-2.576c-1.345,0-2.464,0.896-2.464,2.576s1.119,2.548,2.464,2.548
			C64.428,18.9,65.548,18.032,65.548,16.353z M77.896,12.152c0.84-0.027,2.044,0.028,2.576,0.141
			c0.392,0.084,0.644,0.363,0.672,0.728c0.056,0.7-0.112,1.428-0.336,1.708c-0.196,0.252-0.644,0.364-0.98,0.364l-4.115,0.14v4.648
			c0,1.96-0.477,5.824-1.288,7.868h-2.156c-0.252-0.952-0.448-5.376-0.448-6.721V3.669c-0.363-0.672-1.231-1.344-2.212-1.765
			L70,0.785c0.056-0.141,0.14-0.225,0.447-0.225c1.484,0.057,3.864,0.504,4.956,0.98c0.336,0.14,0.477,0.42,0.448,0.84l-0.14,1.82
			v8.651L77,12.769L77.896,12.152z"/>
		<path d="M103.515,13.356c1.231,0.057,3.023,0.336,3.78,0.616c0.308,0.112,0.504,0.364,0.504,0.728
			c0,0.812-0.532,1.568-0.952,1.765c-0.7-0.084-2.772-0.141-3.725-0.141c-1.932,0-12.852,0.112-14.615,0.225
			c-0.756,0.056-2.576,0.364-3.389,0.588c-1.176-0.476-2.491-1.428-3.332-2.268c-0.111-0.112-0.14-0.309-0.084-0.448l0.28-0.532
			c1.176,0.196,2.716,0.308,3.836,0.336c1.904,0.028,14.364-0.112,16.38-0.28L103.515,13.356z M87.022,5.041
			c-0.392-0.393-1.092-0.812-1.792-1.093l0.252-0.951c0.028-0.141,0.196-0.28,0.477-0.28c1.287,0,3.556,0.168,4.535,0.392
			c0.393,0.084,0.561,0.364,0.561,0.784l-0.056,1.624v3.22c0,0.477,0.195,0.7,0.672,0.7c1.819,0.028,5.571-0.028,7.336-0.112
			l1.204-0.644c0.951,0,2.352,0.112,3.023,0.28c0.336,0.084,0.561,0.336,0.561,0.672c0,0.896-0.28,1.54-0.505,1.736
			c-0.14,0.14-0.363,0.195-0.588,0.195l-12.6,0.141c-2.072-0.028-3.08-1.064-3.08-2.856V5.041z M100.295,23.576
			c1.008,0,2.491,0.112,3.191,0.28c0.364,0.084,0.588,0.364,0.588,0.7c0,0.924-0.308,1.624-0.532,1.848
			c-0.14,0.141-0.392,0.196-0.644,0.196l-12.544,0.112h-0.056c-1.96-0.057-2.772-0.98-2.772-2.744v-2.772
			c-0.448-0.392-1.204-0.84-1.932-1.092l0.252-0.952c0.028-0.14,0.168-0.279,0.448-0.279c1.315,0,3.611,0.168,4.619,0.363
			c0.337,0.112,0.532,0.364,0.532,0.784l-0.056,1.596v2.044c0,0.477,0.196,0.7,0.672,0.7c1.82,0.028,5.236-0.027,6.972-0.084
			L100.295,23.576z"/>
		<path d="M132.858,6.188c-1.876,4.9-6.86,9.632-12.992,12.236c-0.252,0.112-0.393,0.112-0.504,0.028l-0.588-0.645
			c-0.112-0.14-0.141-0.252,0.027-0.42c4.536-3.136,7.98-7.336,9.604-11.2c-1.26,0.028-2.94,0.028-3.472,0.084
			c-0.616,0.028-1.708,0.225-2.353,0.42c-0.924-0.447-1.932-1.204-2.576-1.876c-0.14-0.168-0.14-0.279-0.084-0.42l0.252-0.363
			c0.924,0.14,2.072,0.195,2.884,0.195c1.036,0.028,5.097-0.056,6.356-0.168l1.26-0.56c0.196-0.084,0.504-0.084,0.672,0
			c0.561,0.279,1.597,0.84,1.988,1.12c0.168,0.111,0.196,0.308,0.084,0.504L132.858,6.188z M137.842,17.108
			c0.196-0.084,0.448-0.084,0.645,0c0.504,0.225,1.483,0.672,1.848,0.924c0.14,0.084,0.168,0.252,0.084,0.477l-0.448,1.399
			c-0.14,1.4-0.392,2.969-0.728,4.284l0.588,0.336c0.196,0.112,0.308,0.28,0.308,0.532c0,0.756-0.279,1.428-0.588,1.708
			l-9.464,0.084c-0.14,0.364-0.364,0.672-0.672,0.98h-2.128c-0.28-0.561-0.476-1.345-0.532-2.017l-0.42-6.02
			c-0.364-0.42-1.036-0.868-1.68-1.12l0.28-1.036c0.027-0.112,0.14-0.196,0.363-0.196c1.232,0,3.557,0.168,4.872,0.336
			c1.372-0.027,4.928-0.084,6.3-0.168L137.842,17.108z M130.254,24.36c1.596,0.028,3.809,0,5.18-0.084l0.616-0.168l0.057-3.976
			c-1.849,0.027-4.116,0.084-5.853,0.14V24.36z M134.762,0.785c0.057-0.141,0.168-0.225,0.477-0.225
			c1.456,0.057,3.752,0.504,4.815,0.98c0.309,0.14,0.448,0.42,0.42,0.84l-0.111,1.764v6.216c0,1.597-0.532,4.593-1.204,5.992h-2.24
			c-0.252-0.868-0.448-3.948-0.448-5.067V3.641c-0.336-0.644-1.176-1.315-2.1-1.708L134.762,0.785z"/>
		<path d="M154.614,12.152c-2.24,2.212-4.984,4.172-8.036,5.572c-0.252,0.112-0.42,0.14-0.532,0.056l-0.56-0.588
			c-0.141-0.14-0.141-0.279,0-0.447c4.004-2.885,7.14-6.889,8.819-10.416c-1.176,0-2.576,0.027-3.08,0.056
			c-0.588,0.028-1.651,0.224-2.268,0.448c-0.952-0.504-1.932-1.288-2.604-1.988c-0.14-0.168-0.168-0.28-0.084-0.42l0.252-0.42
			c0.925,0.14,2.101,0.196,2.94,0.196c1.036,0,4.844-0.057,6.048-0.112l1.288-0.532c0.224-0.084,0.504-0.084,0.729,0
			c0.588,0.224,1.708,0.729,2.128,0.952c0.168,0.112,0.195,0.336,0.084,0.532l-0.729,1.147c-0.7,1.429-1.651,2.856-2.771,4.2
			l1.876,1.624l1.315,0.336c0.504,0.644,1.148,1.68,1.4,2.268c0.252,0.505,0.28,0.868,0.168,1.12
			c-0.252,0.561-1.092,0.896-1.652,0.7c-0.28-0.056-0.616-0.336-0.868-0.588L154.614,12.152z M167.018,22.373
			c0,3.304-2.968,5.348-6.468,5.348s-6.468-2.044-6.468-5.348c0-3.053,2.968-4.929,6.468-4.929S167.018,19.32,167.018,22.373z
			 M163.126,22.373c0-1.484-1.12-2.324-2.576-2.324s-2.576,0.84-2.576,2.324c0,1.483,1.12,2.323,2.576,2.323
			S163.126,23.856,163.126,22.373z M161.782,0.785c0.056-0.141,0.168-0.225,0.476-0.225c1.456,0.057,3.752,0.504,4.816,0.98
			c0.308,0.14,0.447,0.42,0.42,0.84l-0.112,1.764v7.42c0,1.597-0.532,4.592-1.204,5.992h-2.24c-0.252-0.868-0.447-3.948-0.447-5.068
			v-1.68c-0.561,0.028-1.093,0.056-1.372,0.112c-0.448,0.027-1.232,0.252-1.681,0.448c-0.783-0.561-1.483-1.261-2.044-1.933
			c-0.111-0.14-0.14-0.28-0.056-0.42l0.308-0.448c0.645,0.112,1.568,0.141,2.297,0.141c0.588,0.027,1.596,0,2.548-0.028v-5.04
			c-0.336-0.644-1.177-1.315-2.101-1.708L161.782,0.785z"/>
		<path d="M193.338,13.776c1.231,0.057,3.023,0.336,3.78,0.616c0.308,0.112,0.504,0.364,0.504,0.729
			c0,0.812-0.532,1.567-0.952,1.764c-0.7-0.084-2.772-0.14-3.725-0.14c-1.932,0-12.852,0.111-14.615,0.224
			c-0.756,0.056-2.576,0.364-3.389,0.588c-1.176-0.476-2.491-1.428-3.332-2.268c-0.111-0.112-0.14-0.309-0.084-0.448l0.28-0.532
			c1.176,0.196,2.716,0.308,3.836,0.336c1.904,0.028,14.364-0.112,16.38-0.28L193.338,13.776z M189.922,23.856
			c1.036-0.027,2.464,0.112,3.191,0.252c0.337,0.084,0.561,0.336,0.561,0.672c0,0.925-0.308,1.597-0.532,1.82
			c-0.14,0.14-0.364,0.196-0.616,0.196l-12.264,0.111c-2.044-0.027-2.884-0.951-2.884-2.716v-2.8
			c-0.448-0.392-1.204-0.84-1.932-1.092l0.252-0.952c0.027-0.14,0.168-0.28,0.447-0.28c1.316,0,3.612,0.168,4.62,0.364
			c0.336,0.112,0.532,0.364,0.532,0.784l-0.056,1.596v2.101c0,0.476,0.195,0.699,0.672,0.699c1.764,0.028,5.096-0.027,6.775-0.084
			L189.922,23.856z M177.518,7.757c0-3.024,2.8-5.376,7-5.376s7,2.352,7,5.376c0,3.023-2.8,5.376-7,5.376
			S177.518,10.78,177.518,7.757z M181.41,7.757c0,1.764,1.231,2.939,3.107,2.939s3.108-1.176,3.108-2.939s-1.232-2.968-3.108-2.968
			S181.41,5.993,181.41,7.757z"/>
		<path d="M220.386,13.272c1.231,0.057,3.023,0.336,3.78,0.616c0.308,0.112,0.504,0.364,0.504,0.728
			c0,0.812-0.532,1.568-0.952,1.765c-0.7-0.084-2.772-0.141-3.725-0.141c-1.932,0-12.852,0.112-14.615,0.225
			c-0.756,0.056-2.576,0.364-3.389,0.588c-1.176-0.477-2.491-1.428-3.332-2.268c-0.111-0.112-0.14-0.309-0.084-0.448l0.28-0.532
			c1.176,0.196,2.716,0.308,3.836,0.336c0.868,0,3.864,0,7.112-0.056v-2.492l-2.828,0.056c-2.24,0.057-3.192-0.952-3.192-2.688
			V4.984c-0.392-0.476-1.063-0.924-1.819-1.204l0.252-1.008c0.056-0.111,0.14-0.195,0.336-0.195c1.231,0,4.172,0.111,5.235,0.308
			c1.765,0,6.244-0.084,7.7-0.168l0.952-0.504c0.98,0.027,2.324,0.112,3.08,0.28c0.364,0.084,0.56,0.336,0.56,0.644
			c0,0.784-0.195,1.344-0.42,1.596c-0.168,0.168-0.336,0.196-0.644,0.196l-11.284,0.196v3.556c0,0.476,0.196,0.7,0.672,0.7
			c1.765,0,5.853-0.057,7.561-0.168l0.84-0.393c0.952-0.027,2.352,0.084,3.052,0.225c0.336,0.084,0.56,0.336,0.56,0.672
			c0,0.7-0.279,1.288-0.504,1.512c-0.14,0.112-0.336,0.168-0.588,0.168l-5.712,0.112v2.52c2.548-0.056,4.704-0.111,5.46-0.168
			L220.386,13.272z M217.978,22.709c0,3.107-2.939,5.151-6.439,5.151s-6.44-2.044-6.44-5.151c0-2.828,2.94-4.704,6.44-4.704
			S217.978,19.881,217.978,22.709z M214.086,22.709c0-1.4-1.12-2.24-2.548-2.24c-1.429,0-2.549,0.84-2.549,2.24
			c0,1.399,1.12,2.212,2.549,2.212C212.966,24.921,214.086,24.108,214.086,22.709z"/>
		<path d="M241.357,15.652c0.476,0.729,1.092,1.933,1.344,2.576c0.225,0.588,0.252,0.98,0.112,1.26
			c-0.28,0.561-1.12,0.841-1.68,0.616c-0.28-0.112-0.645-0.42-0.896-0.7l-4.172-4.535c-2.24,2.464-5.012,4.676-8.063,6.355
			c-0.225,0.14-0.393,0.14-0.505,0.056l-0.644-0.56c-0.14-0.14-0.168-0.28,0-0.476c4.284-3.5,7.588-8.232,9.156-12.349
			c-1.316,0-2.94,0.028-3.5,0.057c-0.588,0.027-1.652,0.224-2.24,0.447c-0.952-0.476-1.932-1.231-2.604-1.932
			c-0.14-0.14-0.168-0.28-0.084-0.42l0.253-0.42c0.924,0.14,2.1,0.195,2.911,0.195c1.093,0,5.265-0.056,6.524-0.111l1.316-0.532
			c0.195-0.084,0.504-0.084,0.699,0c0.588,0.224,1.736,0.729,2.156,0.98c0.196,0.111,0.196,0.336,0.056,0.504l-0.699,1.092
			c-0.757,1.764-1.82,3.528-3.108,5.208l2.268,2.184L241.357,15.652z M242.758,0.785c0.056-0.141,0.14-0.225,0.447-0.225
			c1.484,0.057,3.864,0.504,4.956,0.98c0.336,0.14,0.477,0.42,0.448,0.84l-0.14,1.82v15.68c0,1.96-0.477,5.824-1.288,7.868h-2.156
			c-0.252-0.952-0.448-5.376-0.448-6.721V3.669c-0.363-0.672-1.231-1.344-2.212-1.765L242.758,0.785z"/>
		<path d="M267.033,2.856c0.056-0.14,0.196-0.252,0.532-0.224c1.204,0.056,3.107,0.504,3.976,0.952
			c0.28,0.111,0.42,0.363,0.393,0.756l-0.084,1.428v13.412c0,1.792-0.448,5.152-1.148,6.916h-1.876
			c-0.252-1.064-0.448-4.676-0.448-5.937v-6.327c-0.336,0-0.644,0.027-0.812,0.056c-0.42,0.056-1.092,0.196-1.54,0.364
			c-0.308-0.225-0.616-0.448-0.896-0.7c-1.344,3.08-3.472,6.104-6.02,8.26c-0.168,0.168-0.364,0.225-0.476,0.168l-0.616-0.42
			c-0.141-0.112-0.196-0.224-0.112-0.448c2.716-3.556,4.536-8.819,5.012-12.796c-0.224,0-0.447,0.028-0.56,0.028
			c-0.308,0-0.924,0.112-1.204,0.196l-0.112-0.084c-0.783,3.976-3.584,8.708-7.168,11.535c-0.195,0.168-0.363,0.225-0.476,0.168
			l-0.532-0.392c-0.14-0.112-0.196-0.196-0.14-0.42c2.604-3.164,4.34-7.84,4.844-11.368h-0.84c-0.393,0.028-1.148,0.141-1.54,0.28
			c-0.588-0.392-1.232-1.008-1.652-1.512c-0.111-0.168-0.111-0.28-0.056-0.393l0.252-0.363c0.532,0.084,1.204,0.14,1.708,0.14
			c0.56,0,2.296-0.028,2.94-0.084l1.092-0.616c0.168-0.084,0.447-0.084,0.615,0c0.364,0.196,1.009,0.616,1.316,0.896
			c0.532,0,1.736-0.028,2.296-0.057l1.204-0.56c0.168-0.084,0.476-0.084,0.616,0c0.392,0.252,1.12,0.784,1.399,1.008
			c0.141,0.14,0.141,0.308,0.084,0.476l-0.363,1.064c-0.141,1.12-0.42,2.296-0.812,3.5h0.7c0.504,0,1.204-0.028,1.848-0.056V5.349
			c-0.279-0.532-0.979-1.063-1.764-1.4L267.033,2.856z M271.541,0.785c0.084-0.141,0.196-0.225,0.504-0.225
			c1.288,0.057,3.36,0.504,4.341,0.952c0.279,0.14,0.42,0.392,0.392,0.784l-0.112,1.567v16.353c0,1.904-0.448,5.544-1.176,7.532
			h-1.904c-0.252-1.12-0.476-5.124-0.476-6.469V3.417c-0.336-0.588-1.092-1.177-1.96-1.54L271.541,0.785z"/>
		<path d="M293.772,15.148c0.447,0.784,1.008,2.017,1.231,2.66c0.196,0.616,0.196,1.008,0.028,1.288
			c-0.336,0.588-1.26,0.896-1.82,0.644c-0.279-0.14-0.615-0.476-0.84-0.783l-4.088-5.236c-1.736,2.38-4.088,4.62-6.944,6.439
			c-0.195,0.112-0.336,0.112-0.476,0.028l-0.672-0.56c-0.112-0.112-0.112-0.252,0.028-0.42c3.808-3.809,6.216-8.316,6.859-12.376
			c-0.28-0.561-0.924-1.204-1.624-1.568l0.477-0.979c0.084-0.141,0.195-0.196,0.476-0.168c1.316,0.111,3.668,0.728,4.564,1.176
			c0.336,0.168,0.56,0.447,0.56,0.728c0,0.309-0.028,0.616-0.084,0.84c-0.28,1.54-0.896,3.164-1.792,4.761l2.408,2.827
			L293.772,15.148z M296.853,0.785c0.056-0.141,0.14-0.225,0.447-0.225c1.484,0.057,3.864,0.504,4.956,0.98
			c0.336,0.14,0.477,0.42,0.448,0.84l-0.14,1.82v15.68c0,1.96-0.477,5.824-1.288,7.868h-2.156c-0.252-0.952-0.448-5.376-0.448-6.721
			v-8.344c-0.728,0.028-1.456,0.084-1.792,0.14c-0.42,0.057-1.428,0.309-1.876,0.505c-1.036-0.589-1.903-1.316-2.632-2.072
			c-0.14-0.141-0.168-0.28-0.084-0.42l0.28-0.477c0.784,0.141,2.072,0.225,2.939,0.225c0.7,0,2.072-0.028,3.164-0.084V3.669
			c-0.363-0.672-1.231-1.344-2.212-1.765L296.853,0.785z"/>
		<path d="M12.936,48.664c0.393,0.812,0.868,2.044,1.064,2.716c0.168,0.589,0.168,0.98,0.028,1.204
			c-0.309,0.504-1.148,0.729-1.652,0.477c-0.252-0.141-0.56-0.477-0.784-0.784l-3.22-4.256c-1.512,2.1-3.556,4.116-6.021,5.768
			c-0.195,0.141-0.363,0.141-0.504,0.028L1.148,53.2c-0.112-0.112-0.112-0.252,0.027-0.42c3.304-3.64,5.376-7.756,5.908-11.479
			c-0.224-0.448-0.784-1.009-1.4-1.345l0.504-1.008c0.057-0.112,0.196-0.168,0.477-0.14c1.26,0.111,3.416,0.672,4.2,1.092
			c0.336,0.168,0.531,0.42,0.531,0.7c0.028,0.308,0,0.616-0.056,0.812c-0.252,1.456-0.812,2.996-1.624,4.508l1.932,2.24
			L12.936,48.664z M19.04,34.385c0.084-0.141,0.196-0.225,0.504-0.225c1.344,0.057,3.528,0.504,4.536,0.98
			c0.308,0.14,0.448,0.392,0.42,0.812l-0.112,1.652v16.044c0,1.932-0.476,5.684-1.26,7.7h-2.044
			c-0.252-0.98-0.448-5.265-0.448-6.608v-7.252l-2.016,0.056v5.097c0,1.792-0.448,5.208-1.148,7H15.54
			c-0.252-1.064-0.448-4.732-0.448-5.992v-14.84c-0.308-0.561-1.063-1.12-1.876-1.484l0.42-1.092
			c0.057-0.14,0.168-0.224,0.504-0.224c1.261,0.056,3.276,0.504,4.2,0.951c0.28,0.141,0.392,0.393,0.392,0.784l-0.111,1.512v5.908
			l2.016-0.056v-8.008c-0.308-0.588-1.12-1.204-1.988-1.597L19.04,34.385z"/>
		<path d="M49.42,54.097c1.231,0.056,3.023,0.336,3.78,0.615c0.308,0.112,0.504,0.364,0.504,0.729c0,0.812-0.532,1.567-0.952,1.764
			c-0.7-0.084-2.772-0.14-3.725-0.14c-1.932,0-12.852,0.111-14.615,0.224c-0.756,0.056-2.576,0.364-3.389,0.588
			c-1.176-0.476-2.491-1.428-3.332-2.268c-0.111-0.112-0.14-0.309-0.084-0.448l0.28-0.532c1.176,0.196,2.716,0.309,3.836,0.336
			c0.868,0,3.836,0,7.057-0.056v-4.172l-3.36,0.056c-1.848-0.027-2.66-0.924-2.66-2.604v-3.192c-0.364-0.42-0.952-0.784-1.624-1.008
			l0.168-0.868c0.028-0.112,0.14-0.196,0.336-0.196c1.204,0,4.088,0.057,5.124,0.141c1.96,0.028,5.769-0.057,7.112-0.141l0.672-0.14
			c0.084-0.7,0.084-2.268,0.028-2.828c-1.96-0.027-6.664,0.028-7.7,0.084c-0.729,0.028-1.904,0.196-2.688,0.393
			c-1.008-0.588-2.016-1.4-2.744-2.185c-0.14-0.14-0.168-0.252-0.084-0.42l0.253-0.476c0.924,0.168,2.436,0.28,3.191,0.28
			c1.428,0,8.764-0.028,10.276-0.112l1.428-0.588c0.196-0.084,0.392-0.084,0.644,0c0.504,0.168,1.624,0.644,2.044,0.896
			c0.168,0.112,0.196,0.309,0.084,0.561l-0.531,1.26c-0.141,0.924-0.532,2.436-0.812,3.191l0.645,0.337
			c0.168,0.084,0.252,0.252,0.252,0.42c0,0.615-0.252,1.26-0.477,1.512l-11.647,0.196v2.436c0,0.476,0.195,0.7,0.672,0.7
			c2.184,0.028,6.496-0.056,8.399-0.141l0.812-0.504c0.979-0.027,2.38,0.084,3.052,0.252c0.364,0.084,0.588,0.337,0.588,0.673
			c0,0.812-0.279,1.428-0.504,1.651c-0.14,0.141-0.364,0.196-0.616,0.196l-6.495,0.112v4.172c2.548-0.057,4.731-0.112,5.487-0.168
			L49.42,54.097z"/>
		<path d="M85.147,53.984c1.231,0.056,3.023,0.336,3.78,0.616c0.308,0.111,0.504,0.363,0.504,0.728c0,0.812-0.532,1.568-0.952,1.764
			c-0.7-0.084-2.772-0.14-3.725-0.14c-1.932,0-12.852,0.112-14.615,0.224c-0.756,0.057-2.576,0.364-3.389,0.589
			c-1.176-0.477-2.491-1.429-3.332-2.269c-0.111-0.112-0.14-0.308-0.084-0.448l0.28-0.531c1.176,0.195,2.716,0.308,3.836,0.336
			c0.896,0,4.032,0,7.364-0.057l-0.028-3.388c-0.279-0.392-1.036-0.896-1.651-1.12l0.224-1.008c0.028-0.112,0.112-0.196,0.476-0.196
			c1.064-0.027,3.725,0.196,4.509,0.42c0.336,0.084,0.476,0.336,0.42,0.672l-0.196,1.82l-0.084,2.744
			c2.492-0.056,4.62-0.112,5.348-0.168L85.147,53.984z M65.211,49.645c-0.14-0.168-0.111-0.336,0.141-0.448
			c5.432-2.576,9.828-5.6,12.6-8.96c-1.988,0-4.368,0.028-5.18,0.084c-0.784,0.028-2.101,0.252-2.856,0.504
			c-1.092-0.504-2.239-1.288-2.996-2.044c-0.168-0.168-0.195-0.28-0.111-0.448l0.252-0.504c1.092,0.168,2.492,0.252,3.472,0.252
			c1.456,0,7.729-0.084,9.437-0.168l1.483-0.616c0.196-0.056,0.504-0.056,0.756,0c0.645,0.252,1.876,0.757,2.353,1.009
			c0.195,0.111,0.195,0.363,0.027,0.531l-1.147,1.232c-1.288,1.568-2.828,2.996-4.564,4.284l3.444,1.176l1.988,0.084
			c0.756,0.336,1.848,1.008,2.352,1.428c0.448,0.364,0.672,0.7,0.672,1.036c0.028,0.588-0.588,1.204-1.231,1.288
			c-0.336,0.056-0.784-0.028-1.177-0.168l-8.455-3.248c-3.024,1.848-6.524,3.332-10.305,4.368c-0.279,0.056-0.42,0.028-0.504-0.084
			L65.211,49.645z"/>
		<path d="M101.051,45.725c-2.296,2.212-5.096,4.172-8.176,5.6c-0.224,0.112-0.42,0.14-0.504,0.028l-0.588-0.561
			c-0.14-0.14-0.14-0.279,0-0.447c4.088-2.912,7.308-6.86,9.072-10.416c-1.261,0-2.772,0.027-3.305,0.056
			c-0.615,0.028-1.651,0.224-2.268,0.448c-0.952-0.504-1.932-1.288-2.604-1.988c-0.141-0.168-0.169-0.28-0.084-0.42l0.252-0.42
			c0.924,0.14,2.1,0.196,2.939,0.196c1.036,0,4.984-0.057,6.272-0.112l1.288-0.532c0.224-0.056,0.504-0.056,0.728,0
			c0.588,0.224,1.708,0.729,2.128,0.952c0.168,0.112,0.196,0.336,0.084,0.532l-0.728,1.147c-0.757,1.429-1.736,2.856-2.885,4.229
			l2.212,1.819l1.345,0.336c0.504,0.645,1.176,1.681,1.456,2.24c0.224,0.504,0.279,0.868,0.168,1.12
			c-0.225,0.532-1.036,0.868-1.624,0.7c-0.28-0.084-0.616-0.336-0.896-0.588L101.051,45.725z M110.907,51.521
			c0.168-0.057,0.448-0.057,0.616,0c0.531,0.252,1.512,0.784,1.876,1.036c0.14,0.111,0.14,0.252,0.084,0.476l-0.393,1.316
			l-0.084,2.8c0,1.372-0.504,3.472-1.092,4.452h-2.296c-0.252-0.757-0.42-2.66-0.42-3.584v-3.668c-2.212,0-6.048,0.056-7.084,0.14
			c-0.812,0.028-2.1,0.252-2.856,0.504c-1.119-0.476-2.239-1.232-3.023-1.96c-0.168-0.14-0.196-0.28-0.112-0.448l0.28-0.531
			c1.092,0.14,2.464,0.224,3.444,0.224c1.315,0,8.176-0.14,9.939-0.28L110.907,51.521z M109.367,37.24
			c-0.336-0.644-1.176-1.315-2.1-1.708l0.392-1.147c0.056-0.141,0.168-0.225,0.476-0.225c1.456,0.057,3.752,0.504,4.816,0.98
			c0.308,0.14,0.448,0.42,0.42,0.84l-0.112,1.764v7c0,1.596-0.531,4.62-1.204,5.992h-2.239c-0.252-0.868-0.448-3.948-0.448-5.068
			V37.24z"/>
		<path d="M136.834,54.349c-0.196-0.7-0.336-2.576-0.392-4.2c-3.305,0.756-9.185,1.596-12.544,1.848
			c-0.729,0.028-1.96,0.309-2.633,0.561c-1.035-0.588-2.268-1.513-3.107-2.381c-0.14-0.14-0.168-0.224-0.084-0.42l0.252-0.531
			c1.092,0.195,2.464,0.252,3.584,0.224c1.092-0.028,2.436-0.056,3.892-0.168v-2.884l-1.428,0.056
			c-2.324,0.056-3.276-0.896-3.276-2.548v-4.116c-0.336-0.476-0.951-0.952-1.651-1.26l0.252-0.98
			c0.056-0.111,0.14-0.195,0.336-0.195c1.176,0,3.864,0.168,4.928,0.364c1.316-0.028,4.256-0.112,5.124-0.196l0.812-0.364
			c0.728,0,1.903,0.084,2.491,0.196c0.336,0.084,0.504,0.28,0.504,0.56c0,0.729-0.195,1.26-0.42,1.484
			c-0.14,0.14-0.308,0.168-0.531,0.168l-8.036,0.224v3.836c0,0.477,0.196,0.7,0.672,0.7c1.092,0,3.724-0.112,4.704-0.196
			l0.756-0.392c0.812-0.028,2.044,0.028,2.632,0.168c0.336,0.056,0.532,0.308,0.532,0.616c0,0.7-0.252,1.231-0.477,1.456
			c-0.111,0.111-0.308,0.168-0.531,0.168l-3.809,0.14v2.744c2.744-0.224,5.376-0.532,7-0.868V37.24
			c-0.336-0.644-1.176-1.315-2.1-1.708l0.392-1.147c0.057-0.141,0.168-0.225,0.477-0.225c1.456,0.057,3.752,0.504,4.815,0.98
			c0.309,0.14,0.448,0.42,0.42,0.84l-0.111,1.764v9.212c0,2.296-0.477,5.628-1.261,7.393H136.834z M138.094,57.568
			c1.036-0.028,2.492,0.084,3.192,0.252c0.364,0.084,0.56,0.336,0.56,0.672c0,0.952-0.252,1.596-0.476,1.82
			c-0.14,0.14-0.393,0.195-0.616,0.195l-12.04,0.112c-2.24,0-3.164-0.952-3.164-2.688v-2.24c-0.447-0.42-1.204-0.868-1.932-1.148
			l0.224-0.952c0.028-0.14,0.196-0.279,0.477-0.279c1.315,0,3.668,0.168,4.676,0.392c0.364,0.084,0.56,0.336,0.56,0.756
			l-0.056,1.597v1.596c0,0.476,0.196,0.7,0.672,0.7c1.652,0.027,5.012-0.028,6.692-0.084L138.094,57.568z"/>
		<path d="M166.654,48.216c0,7.309-3.444,10.5-7.309,10.5c-3.892,0-7.279-3.191-7.279-10.5c0-7.336,3.388-10.527,7.279-10.527
			C163.21,37.688,166.654,40.88,166.654,48.216z M159.346,57.736c1.652,0,3.08-2.044,3.08-9.521c0-7.531-1.428-9.575-3.08-9.575
			c-1.651,0-3.023,2.016-3.023,9.575C156.322,55.721,157.694,57.736,159.346,57.736z"/>
		<path d="M183.678,48.216c0,7.309-3.444,10.5-7.309,10.5c-3.892,0-7.279-3.191-7.279-10.5c0-7.336,3.388-10.527,7.279-10.527
			C180.233,37.688,183.678,40.88,183.678,48.216z M176.369,57.736c1.652,0,3.08-2.044,3.08-9.521c0-7.531-1.428-9.575-3.08-9.575
			c-1.651,0-3.023,2.016-3.023,9.575C173.346,55.721,174.718,57.736,176.369,57.736z"/>
		<path d="M200.702,48.216c0,7.309-3.444,10.5-7.309,10.5c-3.892,0-7.279-3.191-7.279-10.5c0-7.336,3.388-10.527,7.279-10.527
			C197.258,37.688,200.702,40.88,200.702,48.216z M193.394,57.736c1.652,0,3.08-2.044,3.08-9.521c0-7.531-1.428-9.575-3.08-9.575
			c-1.651,0-3.023,2.016-3.023,9.575C190.37,55.721,191.742,57.736,193.394,57.736z"/>
		<path d="M217.726,48.216c0,7.309-3.444,10.5-7.309,10.5c-3.892,0-7.279-3.191-7.279-10.5c0-7.336,3.388-10.527,7.279-10.527
			C214.281,37.688,217.726,40.88,217.726,48.216z M210.417,57.736c1.652,0,3.08-2.044,3.08-9.521c0-7.531-1.428-9.575-3.08-9.575
			c-1.651,0-3.023,2.016-3.023,9.575C207.394,55.721,208.766,57.736,210.417,57.736z"/>
		<path d="M234.749,48.216c0,7.309-3.444,10.5-7.309,10.5c-3.892,0-7.279-3.191-7.279-10.5c0-7.336,3.388-10.527,7.279-10.527
			C231.305,37.688,234.749,40.88,234.749,48.216z M227.44,57.736c1.652,0,3.08-2.044,3.08-9.521c0-7.531-1.428-9.575-3.08-9.575
			c-1.651,0-3.023,2.016-3.023,9.575C224.417,55.721,225.789,57.736,227.44,57.736z"/>
		<path d="M253.62,34.385c0.056-0.141,0.14-0.225,0.448-0.225c1.483,0.057,3.863,0.504,4.956,0.98c0.336,0.14,0.476,0.42,0.447,0.84
			l-0.14,1.82v15.68c0,1.96-0.476,5.824-1.288,7.868h-2.156c-0.252-0.952-0.447-5.376-0.447-6.721v-1.624
			c-3.305,0.756-8.988,1.568-12.265,1.765c-0.728,0.056-2.044,0.336-2.716,0.615c-1.12-0.588-2.492-1.596-3.388-2.491
			c-0.14-0.141-0.168-0.225-0.084-0.393l0.252-0.56c1.176,0.196,2.688,0.252,3.864,0.224c4.031-0.084,11.228-0.644,14.336-1.315
			v-13.58c-0.364-0.672-1.232-1.344-2.212-1.765L253.62,34.385z M239.284,43.624c0-3.191,2.716-5.544,6.552-5.544
			s6.608,2.353,6.608,5.544c0,3.276-2.772,5.628-6.608,5.628S239.284,46.9,239.284,43.624z M243.12,43.624
			c0,1.652,1.092,2.716,2.716,2.716s2.716-1.063,2.716-2.716c0-1.651-1.092-2.716-2.716-2.716S243.12,41.973,243.12,43.624z"/>
		<path d="M15.652,82.041c0.476,0.756,1.119,1.96,1.372,2.604c0.224,0.616,0.224,1.009,0.084,1.288
			c-0.309,0.616-1.232,0.924-1.792,0.7c-0.28-0.112-0.616-0.448-0.868-0.728l-4.48-5.181c-1.764,2.492-4.2,4.872-7.168,6.748
			c-0.196,0.112-0.336,0.112-0.476,0.028L1.652,86.94c-0.112-0.111-0.112-0.252,0.027-0.42c3.809-3.808,6.216-8.315,6.86-12.376
			c-0.28-0.56-0.924-1.204-1.624-1.567l0.476-0.98c0.084-0.14,0.196-0.195,0.477-0.168c1.315,0.112,3.668,0.729,4.563,1.176
			c0.336,0.168,0.561,0.448,0.561,0.729c0,0.308-0.028,0.616-0.084,0.84c-0.28,1.456-0.84,2.968-1.652,4.452l2.66,2.8L15.652,82.041
			z M17.668,67.985c0.056-0.141,0.14-0.225,0.448-0.225c1.483,0.057,3.863,0.504,4.956,0.98c0.336,0.14,0.476,0.42,0.447,0.84
			l-0.14,1.82v15.68c0,1.96-0.476,5.824-1.288,7.868h-2.156c-0.252-0.952-0.447-5.376-0.447-6.721V70.869
			c-0.364-0.672-1.232-1.344-2.212-1.765L17.668,67.985z"/>
		<path d="M44.912,67.985c0.056-0.141,0.168-0.225,0.476-0.225c1.456,0.057,3.752,0.504,4.816,0.98c0.308,0.14,0.447,0.42,0.42,0.84
			l-0.112,1.764v6.384c0,1.597-0.532,4.593-1.204,5.992h-2.24c-0.252-0.868-0.447-3.948-0.447-5.067v-1.204
			c-0.588,0-1.177,0.027-1.456,0.084c-0.42,0.056-1.261,0.252-1.708,0.42c-0.309-0.196-0.616-0.393-0.896-0.616v0.056
			c0,0.952-0.195,2.185-0.392,2.856l0.56,0.224c0.141,0.057,0.225,0.196,0.225,0.393c0,0.644-0.196,1.288-0.42,1.512
			c-2.072-0.028-6.524,0.028-8.904,0.084c-0.196,0.56-0.532,0.924-0.812,1.147h-2.044c-0.308-0.672-0.476-1.68-0.476-2.268
			l-0.168-7.812c-0.252-0.364-0.98-0.868-1.54-1.064l0.252-0.952c0.028-0.111,0.14-0.195,0.504-0.195
			c1.064-0.028,3.416,0.195,4.256,0.42c0.28,0.056,0.42,0.279,0.393,0.672l-0.057,1.372v0.979l4.9-0.056v-2.437
			c-0.28-0.42-0.924-0.867-1.54-1.12l0.336-0.951c0.056-0.141,0.168-0.225,0.504-0.196c1.092,0.028,3.388,0.42,4.2,0.728
			c0.336,0.112,0.42,0.336,0.392,0.673l-0.084,1.651l-0.056,2.324c0.476,0.028,0.924,0.056,1.344,0.056
			c0.616,0.028,1.708,0,2.688-0.056v-4.536c-0.336-0.644-1.177-1.315-2.101-1.708L44.912,67.985z M33.908,77.001l-0.028,3.164
			l4.956-0.057v-3.163L33.908,77.001z M47.936,84.561c0.196-0.084,0.448-0.084,0.645,0c0.504,0.196,1.483,0.672,1.848,0.924
			c0.14,0.112,0.168,0.253,0.084,0.477l-0.448,1.4c-0.14,1.26-0.392,2.604-0.728,3.779l0.588,0.336
			c0.196,0.112,0.308,0.309,0.308,0.532c0,0.784-0.279,1.456-0.588,1.736l-10.052,0.084c-0.14,0.392-0.364,0.7-0.672,0.979h-2.128
			c-0.28-0.532-0.477-1.315-0.532-2.016l-0.42-5.544c-0.364-0.42-1.036-0.868-1.68-1.12l0.279-1.036
			c0.028-0.112,0.141-0.196,0.364-0.196c1.232,0,3.556,0.168,4.872,0.336c1.484-0.027,5.404-0.084,6.888-0.168L47.936,84.561z
			 M39.76,91.337c1.736,0.028,4.228,0,5.768-0.084l0.616-0.168l0.057-3.5c-2.017,0.028-4.536,0.084-6.44,0.14V91.337z"/>
		<path d="M76.468,79.885c1.231,0.056,3.023,0.336,3.78,0.616c0.308,0.112,0.504,0.364,0.504,0.728c0,0.812-0.532,1.568-0.952,1.765
			c-0.7-0.084-2.772-0.141-3.725-0.141c-1.932,0-12.852,0.112-14.615,0.225c-0.756,0.056-2.576,0.363-3.389,0.588
			c-1.176-0.477-2.491-1.428-3.332-2.269c-0.111-0.111-0.14-0.308-0.084-0.447l0.28-0.532c1.176,0.196,2.716,0.308,3.836,0.336
			c0.784,0,3.444,0,6.412-0.056l-0.028-3.08c-0.252-0.393-0.979-0.868-1.54-1.093l0.225-1.008c0.027-0.111,0.14-0.195,0.504-0.195
			c1.063-0.028,3.556,0.195,4.368,0.42c0.336,0.084,0.447,0.336,0.392,0.672l-0.196,1.819l-0.056,2.437
			c2.912-0.056,5.488-0.14,6.3-0.196L76.468,79.885z M72.268,78.429c-0.224-0.056-0.308-0.196-0.28-0.588
			c0.28-1.316,0.336-3.836,0.225-5.404c-2.24-0.027-6.272,0.028-7.477,0.112c-0.812,0.056-2.184,0.28-2.968,0.504
			c-1.092-0.532-2.268-1.372-3.023-2.156c-0.169-0.168-0.196-0.279-0.112-0.447l0.252-0.504c1.12,0.168,2.52,0.252,3.5,0.252
			c1.512,0,8.456-0.084,10.248-0.168l1.512-0.616c0.196-0.084,0.448-0.084,0.645,0c0.588,0.224,1.707,0.728,2.155,1.008
			c0.141,0.084,0.168,0.252,0.057,0.476l-0.589,1.456c-0.252,1.988-1.203,4.564-2.239,6.021c-0.168,0.224-0.393,0.308-0.616,0.308
			L72.268,78.429z M74.228,89.797c0,3.248-2.996,5.292-6.58,5.292s-6.58-2.044-6.58-5.292c0-2.968,2.996-4.844,6.58-4.844
			S74.228,86.829,74.228,89.797z M70.336,89.797c0-1.512-1.177-2.38-2.688-2.38s-2.688,0.868-2.688,2.38s1.176,2.38,2.688,2.38
			S70.336,91.309,70.336,89.797z"/>
		<path d="M100.742,81.229c-0.728,0.028-1.428,0.057-1.792,0.112c-0.447,0.056-1.231,0.196-1.708,0.336
			c-0.588-0.364-1.12-0.784-1.596-1.231c-1.092,1.68-3.108,2.716-5.628,2.716c-3.864,0-6.58-2.492-6.58-6.021
			c0-3.5,2.716-5.936,6.58-5.936c3.892,0,6.58,2.436,6.58,5.936c0,0.7-0.112,1.372-0.309,1.988c0.477,0.028,1.009,0.056,1.456,0.056
			c0.673,0,1.933-0.027,2.996-0.084v-3.92c-0.363,0.028-0.699,0.057-0.896,0.084c-0.448,0.057-1.232,0.196-1.708,0.336
			c-0.84-0.504-1.54-1.147-2.101-1.792c-0.14-0.168-0.14-0.279-0.084-0.42l0.309-0.448c0.644,0.112,1.624,0.169,2.38,0.169
			c0.476,0,1.288,0,2.1-0.028v-2.24c-0.336-0.644-1.176-1.315-2.1-1.708l0.392-1.147c0.057-0.141,0.168-0.225,0.477-0.225
			c1.456,0.057,3.752,0.504,4.815,0.98c0.309,0.14,0.448,0.42,0.42,0.84l-0.111,1.764v9.072c0,2.268-0.477,5.6-1.261,7.392h-2.184
			c-0.28-1.036-0.448-4.844-0.448-6.3V81.229z M90.019,80.305c1.68,0,2.8-1.204,2.8-3.164s-1.12-3.191-2.8-3.191
			s-2.8,1.231-2.8,3.191S88.339,80.305,90.019,80.305z M102.646,91.085c1.008-0.028,2.464,0.084,3.164,0.252
			c0.364,0.084,0.588,0.336,0.588,0.672c0,0.924-0.308,1.596-0.532,1.82c-0.14,0.14-0.363,0.195-0.616,0.195l-11.787,0.112
			c-2.269-0.028-3.164-0.952-3.164-2.716v-3.276c-0.448-0.42-1.204-0.868-1.933-1.147l0.225-0.952c0.027-0.14,0.195-0.28,0.476-0.28
			c1.316,0,3.668,0.168,4.676,0.393c0.364,0.084,0.561,0.336,0.561,0.756l-0.057,1.596v2.632c0,0.477,0.196,0.7,0.673,0.7
			c1.596,0.028,4.844-0.028,6.495-0.084L102.646,91.085z"/>
		<path d="M130.562,79.325c1.231,0.056,3.052,0.336,3.78,0.615c0.308,0.112,0.504,0.337,0.504,0.7c0,0.756-0.532,1.456-0.952,1.624
			c-0.7-0.084-2.772-0.14-3.725-0.14c-1.903,0-12.936,0.112-14.644,0.224c-0.728,0.057-2.548,0.364-3.36,0.588
			c-1.176-0.42-2.491-1.315-3.332-2.1c-0.111-0.112-0.14-0.308-0.084-0.448l0.28-0.532c1.176,0.196,2.716,0.309,3.836,0.337
			c1.876,0.027,14.393-0.112,16.38-0.28L130.562,79.325z M127.427,91.673c0.896,0,2.239,0.112,2.855,0.28
			c0.336,0.084,0.561,0.336,0.561,0.644c0,0.784-0.225,1.344-0.421,1.54c-0.14,0.14-0.363,0.196-0.588,0.196l-12.096,0.084h-0.028
			c-2.071-0.028-2.855-0.84-2.855-2.324v-2.044c-0.364-0.42-0.952-0.756-1.624-1.008l0.14-0.812
			c0.028-0.111,0.141-0.195,0.336-0.195c1.204,0,4.032,0.056,5.097,0.168c1.567,0,4.76-0.028,5.768-0.084l0.672-0.141
			c0.028-0.447,0.057-1.344,0.028-1.68c-1.848-0.028-5.74,0-6.636,0.056c-0.7,0.057-1.849,0.225-2.633,0.42
			c-0.951-0.531-1.932-1.288-2.632-1.987c-0.14-0.141-0.168-0.225-0.084-0.393l0.225-0.447c0.896,0.168,2.323,0.279,3.08,0.279
			c1.371,0,7.867-0.056,9.323-0.111l1.12-0.477c0.168-0.084,0.364-0.084,0.588,0c0.477,0.168,1.484,0.532,1.876,0.729
			c0.141,0.084,0.168,0.279,0.084,0.504l-0.504,1.12c-0.056,0.615-0.336,1.624-0.56,2.1l0.532,0.252
			c0.14,0.084,0.252,0.224,0.252,0.392c0,0.589-0.225,1.177-0.42,1.4l-10.137,0.112v1.344c0,0.392,0.168,0.588,0.561,0.588
			c1.764,0.028,5.516,0,7.168-0.056L127.427,91.673z M114.883,73.977c0-2.828,2.688-4.815,6.859-4.815s6.86,1.987,6.86,4.815
			c0,2.856-2.688,4.845-6.86,4.845S114.883,76.833,114.883,73.977z M118.803,73.977c0,1.484,1.12,2.408,2.939,2.408
			c1.82,0,2.94-0.924,2.94-2.408c0-1.483-1.12-2.407-2.94-2.407C119.923,71.569,118.803,72.493,118.803,73.977z"/>
		<path d="M167.718,77.169c0.84-0.028,2.044,0.028,2.576,0.14c0.392,0.084,0.644,0.364,0.672,0.729
			c0.056,0.7-0.112,1.428-0.336,1.708c-0.196,0.252-0.644,0.363-0.98,0.363l-4.088,0.141v0.168c0,2.268-0.476,5.6-1.26,7.392h-2.184
			c-0.196-0.756-0.336-2.939-0.42-4.676c-3.024,0.784-8.345,1.596-11.396,1.848c-0.756,0.057-1.988,0.309-2.66,0.561
			c-1.035-0.588-2.296-1.512-3.107-2.38c-0.141-0.141-0.168-0.252-0.084-0.42l0.252-0.532c1.092,0.196,2.464,0.224,3.584,0.224
			c0.56,0,1.204-0.027,1.904-0.056l-0.028-3.864c-0.225-0.364-0.784-0.756-1.26-0.952l0.224-1.063
			c0.028-0.141,0.112-0.225,0.504-0.225c1.092,0,3.108,0.196,3.948,0.448c0.28,0.084,0.392,0.309,0.336,0.645l-0.168,1.848
			l-0.084,2.94c3.023-0.253,6.188-0.616,8.008-1.009V70.841c-0.336-0.644-1.176-1.315-2.1-1.708l0.392-1.147
			c0.056-0.141,0.168-0.225,0.476-0.225c1.456,0.057,3.752,0.504,4.816,0.98c0.308,0.14,0.448,0.42,0.42,0.84l-0.112,1.764v6.524
			l1.261-0.084L167.718,77.169z M155.397,79.745c-0.195-0.028-0.279-0.168-0.252-0.532c0.252-1.456,0.252-4.06,0.225-5.74
			c-1.316-0.027-3.276,0-3.92,0.057c-0.7,0.056-1.988,0.252-2.716,0.476c-1.036-0.504-2.128-1.344-2.856-2.1
			c-0.14-0.168-0.168-0.28-0.084-0.448l0.28-0.477c1.036,0.168,2.323,0.252,3.248,0.252c1.092,0,5.264-0.056,6.636-0.14l1.315-0.644
			c0.196-0.084,0.477-0.084,0.645,0c0.504,0.252,1.484,0.812,1.876,1.092c0.14,0.112,0.14,0.28,0.084,0.476l-0.504,1.4
			c-0.252,2.044-1.26,4.676-2.38,6.244c-0.168,0.195-0.393,0.279-0.588,0.252L155.397,79.745z M163.882,91.029
			c1.036-0.028,2.464,0.084,3.164,0.252c0.364,0.084,0.588,0.336,0.588,0.672c0,0.896-0.336,1.596-0.56,1.819
			c-0.141,0.141-0.393,0.196-0.616,0.196l-12.012,0.112c-2.24,0-3.164-0.952-3.164-2.688v-2.52c-0.448-0.42-1.204-0.868-1.933-1.148
			l0.225-0.952c0.027-0.14,0.195-0.279,0.476-0.279c1.316,0,3.668,0.168,4.676,0.392c0.364,0.084,0.561,0.336,0.561,0.756
			l-0.057,1.597v1.876c0,0.476,0.196,0.699,0.673,0.699c1.651,0.028,5.067-0.027,6.747-0.084L163.882,91.029z"/>
		<path d="M194.766,75.405c0.84-0.028,2.044,0.027,2.576,0.14c0.392,0.084,0.644,0.364,0.672,0.728
			c0.056,0.7-0.112,1.429-0.336,1.708c-0.196,0.252-0.644,0.364-0.98,0.364l-4.115,0.141c-0.028,1.623-0.561,4.508-1.204,5.852
			h-2.24c-0.14-0.448-0.252-1.428-0.308-2.437c-3.5,1.093-7.812,1.933-10.809,2.213c-0.42,0.027-0.84,0.056-1.176,0.056
			c-1.484,0-2.52-0.84-2.912-2.128c-0.111-0.336-0.195-0.952-0.195-1.596v-2.492c-0.393-0.393-0.952-0.729-1.624-0.98l0.195-0.868
			c0.028-0.111,0.141-0.195,0.336-0.195c1.148,0,3.893,0.027,4.956,0.084c0.924-0.028,2.548-0.084,3.136-0.168l0.532-0.141
			c0.028-0.476,0.028-2.239,0-2.632c-1.176-0.027-3.359,0-3.92,0.028c-0.644,0.056-1.651,0.224-2.38,0.42
			c-0.924-0.532-1.82-1.26-2.492-1.96c-0.111-0.112-0.14-0.224-0.084-0.393l0.252-0.476c0.84,0.168,2.185,0.252,2.912,0.252
			c1.092,0,5.208-0.028,6.272-0.084l1.344-0.532c0.168-0.084,0.392-0.084,0.616,0c0.476,0.168,1.483,0.672,1.932,0.924
			c0.14,0.112,0.168,0.253,0.084,0.448l-0.42,1.288c-0.056,0.784-0.42,2.128-0.672,2.772l0.56,0.308
			c0.168,0.084,0.309,0.252,0.309,0.42c0,0.561-0.225,1.148-0.42,1.372l-7.561,0.28v2.464c0,0.364,0.168,0.56,0.588,0.56
			c2.885-0.027,7.225-0.447,10.5-1.231v-0.645v-8.428c-0.336-0.644-1.176-1.315-2.1-1.708l0.392-1.147
			c0.057-0.141,0.168-0.225,0.477-0.225c1.456,0.057,3.752,0.504,4.815,0.98c0.309,0.14,0.448,0.42,0.42,0.84l-0.111,1.764v4.76
			l1.288-0.084L194.766,75.405z M190.286,85.064c0.195-0.056,0.447-0.056,0.644,0c0.504,0.225,1.484,0.673,1.848,0.925
			c0.141,0.084,0.168,0.252,0.084,0.476l-0.447,1.4c-0.168,1.203-0.393,2.548-0.729,3.668l0.588,0.336
			c0.196,0.111,0.309,0.279,0.309,0.504c0,0.784-0.28,1.456-0.588,1.735l-9.437,0.084c-0.14,0.364-0.364,0.673-0.672,0.98h-2.128
			c-0.28-0.532-0.476-1.316-0.532-2.016l-0.42-5.404c-0.364-0.42-1.036-0.868-1.68-1.12l0.28-1.036
			c0.027-0.112,0.14-0.196,0.363-0.196c1.232,0,3.557,0.168,4.872,0.337c1.372-0.028,4.956-0.084,6.272-0.169L190.286,85.064z
			 M182.726,91.701c1.568,0.027,3.78,0,5.152-0.084l0.616-0.168l0.056-3.36c-1.848,0.028-4.088,0.084-5.824,0.14V91.701z"/>
		<path d="M211.649,74.621c0.924,0.056,2.212,0.252,2.772,0.448c0.224,0.084,0.363,0.336,0.363,0.615
			c0,0.784-0.392,1.513-0.728,1.736c-0.504-0.056-2.016-0.056-2.716-0.056c-1.036-0.028-7.196,0.111-8.204,0.195
			c-0.616,0.028-1.652,0.225-2.212,0.364c-0.924-0.504-1.876-1.344-2.492-2.072c-0.112-0.111-0.112-0.252-0.056-0.363l0.224-0.448
			c0.952,0.168,2.212,0.252,2.968,0.252c1.232,0.028,7.84-0.14,9.072-0.224L211.649,74.621z M213.105,83.553
			c0,3.136-2.884,4.984-6.104,4.984c-3.248,0-6.16-1.849-6.16-4.984c0-3.164,2.912-5.067,6.16-5.067
			C210.222,78.485,213.105,80.389,213.105,83.553z M202.55,70.421c2.576,0.448,5.348,0.588,7.084,0.56
			c0.364,0,0.56,0.057,0.728,0.309c0.309,0.504,0.225,1.792-0.168,2.156c-0.168,0.14-0.363,0.168-0.644,0.168
			c-1.12,0-3.304,0.084-4.48,0.168c-0.42,0.056-0.644,0.027-0.868-0.141c-0.615-0.476-1.455-1.512-1.932-2.38
			c-0.084-0.196-0.084-0.308,0-0.448L202.55,70.421z M209.466,83.553c0-1.68-1.12-2.576-2.464-2.576
			c-1.345,0-2.464,0.896-2.464,2.576s1.119,2.548,2.464,2.548C208.346,86.101,209.466,85.232,209.466,83.553z M221.813,79.353
			c0.84-0.027,2.044,0.028,2.576,0.141c0.392,0.084,0.644,0.363,0.672,0.728c0.056,0.7-0.112,1.428-0.336,1.708
			c-0.196,0.252-0.644,0.364-0.98,0.364l-4.115,0.14v4.648c0,1.96-0.477,5.824-1.288,7.868h-2.156
			c-0.252-0.952-0.448-5.376-0.448-6.721V70.869c-0.363-0.672-1.231-1.344-2.212-1.765l0.393-1.119
			c0.056-0.141,0.14-0.225,0.447-0.225c1.484,0.057,3.864,0.504,4.956,0.98c0.336,0.14,0.477,0.42,0.448,0.84l-0.14,1.82v8.651
			l1.288-0.084L221.813,79.353z"/>
		<path d="M240.714,82.041c0.476,0.756,1.119,1.96,1.371,2.604c0.225,0.616,0.225,1.009,0.085,1.288
			c-0.309,0.616-1.232,0.924-1.792,0.7c-0.28-0.112-0.616-0.448-0.868-0.728l-4.48-5.181c-1.764,2.492-4.2,4.872-7.168,6.748
			c-0.196,0.112-0.336,0.112-0.476,0.028l-0.672-0.561c-0.112-0.111-0.112-0.252,0.027-0.42c3.809-3.808,6.216-8.315,6.86-12.376
			c-0.28-0.56-0.924-1.204-1.624-1.567l0.476-0.98c0.084-0.14,0.196-0.195,0.477-0.168c1.315,0.112,3.668,0.729,4.563,1.176
			c0.336,0.168,0.561,0.448,0.561,0.729c0,0.308-0.028,0.616-0.084,0.84c-0.28,1.456-0.84,2.968-1.652,4.452l2.66,2.8
			L240.714,82.041z M242.729,67.985c0.056-0.141,0.14-0.225,0.448-0.225c1.483,0.057,3.863,0.504,4.956,0.98
			c0.336,0.14,0.476,0.42,0.447,0.84l-0.14,1.82v15.68c0,1.96-0.476,5.824-1.288,7.868h-2.156c-0.252-0.952-0.447-5.376-0.447-6.721
			V70.869c-0.364-0.672-1.232-1.344-2.212-1.765L242.729,67.985z"/>
		<path d="M272.102,83.637c-0.168-0.588-0.309-2.156-0.393-3.472c-0.728,0.028-1.483,0.056-1.848,0.112
			c-0.448,0.056-1.232,0.195-1.708,0.336c-0.56-0.336-1.064-0.729-1.484-1.148c-1.063,1.764-3.136,2.884-5.712,2.884
			c-3.808,0-6.468-2.436-6.468-5.852c0-3.36,2.66-5.74,6.468-5.74c3.809,0,6.496,2.38,6.496,5.74c0,0.56-0.056,1.063-0.196,1.567
			c0.477,0.028,0.98,0.057,1.4,0.057c0.672,0,1.932-0.028,2.996-0.084v-3.08c-0.224,0.028-0.42,0.028-0.56,0.056
			c-0.448,0.057-1.232,0.196-1.708,0.336c-0.841-0.504-1.54-1.147-2.101-1.792c-0.14-0.168-0.14-0.279-0.084-0.42l0.309-0.448
			c0.644,0.112,1.624,0.168,2.38,0.168c0.42,0,1.063,0,1.764-0.027v-1.988c-0.336-0.644-1.176-1.315-2.1-1.708l0.392-1.147
			c0.056-0.141,0.168-0.225,0.476-0.225c1.456,0.057,3.752,0.504,4.816,0.98c0.308,0.14,0.448,0.42,0.42,0.84l-0.112,1.764v6.3
			c0,1.597-0.531,4.593-1.204,5.992H272.102z M275.993,90.608c0.393,0.589,0.84,1.484,1.008,2.017
			c0.141,0.448,0.141,0.756,0.028,0.979c-0.28,0.532-1.036,0.84-1.568,0.7c-0.279-0.056-0.588-0.336-0.84-0.616l-2.968-3.388
			c-1.484,1.792-3.528,3.472-6.02,4.872c-0.225,0.14-0.337,0.14-0.477,0.056l-0.7-0.56c-0.14-0.14-0.14-0.28,0.028-0.448
			c0.532-0.476,1.008-0.952,1.456-1.456c-0.224-0.084-0.42-0.252-0.616-0.448l-2.184-2.352c-1.54,1.764-3.641,3.388-6.216,4.676
			c-0.225,0.141-0.364,0.141-0.505,0.057l-0.672-0.589c-0.14-0.111-0.168-0.252,0.028-0.42c2.772-2.296,4.648-4.899,5.376-7.42
			c-0.196-0.363-0.7-0.812-1.232-1.092l0.532-0.979c0.084-0.141,0.252-0.196,0.504-0.168c1.232,0.168,3.164,0.756,3.893,1.176
			c0.308,0.168,0.476,0.42,0.476,0.672c0,0.364-0.056,0.588-0.14,0.784c-0.196,0.504-0.448,1.008-0.756,1.483l1.147,1.148
			l1.064,0.532c0.224,0.363,0.504,0.896,0.672,1.288c1.231-1.681,2.1-3.416,2.52-5.097c-0.168-0.392-0.699-0.924-1.231-1.231
			l0.532-0.98c0.084-0.168,0.252-0.224,0.504-0.168c1.26,0.252,3.136,0.896,3.892,1.372c0.308,0.196,0.476,0.42,0.476,0.672
			c0,0.336-0.056,0.588-0.111,0.784c-0.252,0.672-0.561,1.344-0.952,1.988l1.567,1.512L275.993,90.608z M258.27,76.497
			c0,1.848,1.063,2.996,2.688,2.996s2.688-1.148,2.688-2.996c0-1.82-1.064-2.996-2.688-2.996S258.27,74.677,258.27,76.497z"/>
		<path d="M302.956,78.709c0.84-0.028,2.044,0.028,2.576,0.14c0.392,0.084,0.644,0.364,0.672,0.729
			c0.056,0.7-0.112,1.428-0.336,1.708c-0.196,0.252-0.644,0.363-0.98,0.363l-4.115,0.141v5.292c0,1.96-0.477,5.824-1.288,7.868
			h-2.156c-0.252-0.952-0.448-5.376-0.448-6.721v-2.996c-3.359,1.12-7.447,1.96-10.248,2.24c-0.447,0.057-0.896,0.057-1.231,0.057
			c-1.568,0-2.66-0.868-3.08-2.213c-0.112-0.363-0.196-0.979-0.196-1.624v-8.371c-0.364-0.477-1.036-0.952-1.792-1.232l0.252-1.008
			c0.057-0.112,0.141-0.196,0.336-0.196c1.177,0,3.836,0.141,4.984,0.336c1.036-0.027,3.472-0.168,4.284-0.252l0.896-0.616
			c0.84,0,2.156,0.057,2.828,0.196c0.336,0.084,0.532,0.308,0.532,0.645c0,0.84-0.225,1.455-0.477,1.735
			c-0.14,0.141-0.336,0.196-0.588,0.196l-7.363,0.308v8.288c0,0.393,0.168,0.588,0.56,0.561c2.884-0.028,7.056-0.448,10.304-1.261
			V70.869c-0.363-0.672-1.231-1.344-2.212-1.765l0.393-1.119c0.056-0.141,0.14-0.225,0.447-0.225
			c1.484,0.057,3.864,0.504,4.956,0.98c0.336,0.14,0.477,0.42,0.448,0.84l-0.14,1.82v8.008l1.288-0.084L302.956,78.709z"/>
	</g>
</g>
<radialGradient id="SVGID_1_" cx="128.698" cy="51.6515" r="38.8175" gradientTransform="matrix(2.6471 0 0 1 -148.8288 0)" gradientUnits="userSpaceOnUse">
	<stop  offset="0.1303" style="stop-color:#000000"/>
	<stop  offset="0.1932" style="stop-color:#090909"/>
	<stop  offset="0.2975" style="stop-color:#232323"/>
	<stop  offset="0.4304" style="stop-color:#4C4C4C"/>
	<stop  offset="0.5867" style="stop-color:#858585"/>
	<stop  offset="0.7607" style="stop-color:#CDCDCD"/>
	<stop  offset="0.7989" style="stop-color:#DEDEDE"/>
	<stop  offset="0.9039" style="stop-color:#EDEDED"/>
	<stop  offset="1" style="stop-color:#FFFFFF"/>
</radialGradient>
<rect x="149.65" y="36.768" class="st0" width="84.385" height="24.378"/>
</svg>