<!-- Generator: Adobe Illustrator 21.1.0, SVG Export Plug-In  -->
<svg version="1.1"
	 xmlns="http://www.w3.org/2000/svg" xmlns:xlink="http://www.w3.org/1999/xlink" xmlns:a="http://ns.adobe.com/AdobeSVGViewerExtensions/3.0/"
	 x="0px" y="0px" width="12.332px" height="61.841px" viewBox="0 0 12.332 61.841"
	 style="enable-background:new 0 0 12.332 61.841;" xml:space="preserve">
<defs>
</defs>
<g>
	<g>
		<g>
			<rect x="10.577" y="0.005" transform="matrix(1 -0.0079 0.0079 1 -0.1231 0.0896)" width="1.481" height="31.342"/>
		</g>
	</g>
	<g>
		<ellipse transform="matrix(0.781 -0.6245 0.6245 0.781 -18.5299 11.043)" cx="6.482" cy="31.944" rx="6.514" ry="4.571"/>
	</g>
</g>
<g>
	<path d="M8.107,60.98c0.137-0.556,0.273-1.181,0.41-1.873s0.257-1.393,0.362-2.099c0.104-0.706,0.193-1.39,0.267-2.051
		c0.073-0.661,0.118-1.237,0.137-1.729c-0.347,0-0.745,0.007-1.196,0.021s-0.905,0.027-1.36,0.041
		c-0.456,0.014-0.891,0.032-1.306,0.055c-0.415,0.022-0.764,0.039-1.046,0.048c-0.137,0.009-0.301,0.019-0.492,0.027
		s-0.395,0.021-0.608,0.034c-0.214,0.014-0.424,0.032-0.629,0.055s-0.39,0.048-0.554,0.075l-0.479-0.889
		c0.364,0.046,0.729,0.084,1.094,0.116c0.364,0.032,0.692,0.048,0.984,0.048c0.501,0,1.048-0.005,1.641-0.014
		c0.592-0.009,1.185-0.027,1.777-0.055c0.592-0.027,1.167-0.062,1.723-0.103c0.556-0.041,1.043-0.098,1.463-0.171l0.246,0.232
		c-0.082,0.629-0.191,1.311-0.328,2.044s-0.287,1.47-0.451,2.208s-0.34,1.449-0.526,2.133c-0.187,0.684-0.372,1.29-0.554,1.818
		c0.055-0.009,0.103-0.014,0.144-0.014s0.08,0,0.116,0c0.629-0.036,1.226-0.08,1.791-0.13c0.565-0.05,1.098-0.111,1.6-0.185
		l-0.137,0.902c-0.365-0.027-0.813-0.043-1.347-0.048s-1.11-0.012-1.729-0.021c-0.255,0-0.572,0.002-0.95,0.007
		c-0.378,0.005-0.784,0.014-1.217,0.027c-0.433,0.014-0.877,0.029-1.333,0.048c-0.456,0.019-0.889,0.034-1.299,0.048
		s-0.782,0.029-1.114,0.048c-0.333,0.019-0.59,0.032-0.772,0.041c-0.347,0.019-0.695,0.039-1.046,0.062
		c-0.351,0.022-0.695,0.057-1.032,0.103L0,60.884c0.419,0.055,0.822,0.094,1.21,0.116C1.597,61.023,2,61.043,2.42,61.062
		c0.282,0.009,0.661,0.014,1.135,0.014c0.474,0,0.978-0.005,1.511-0.014s1.068-0.021,1.606-0.034
		C7.209,61.014,7.688,60.999,8.107,60.98z"/>
</g>
</svg>