<!-- Generator: Adobe Illustrator 21.1.0, SVG Export Plug-In  -->
<svg version="1.1"
	 xmlns="http://www.w3.org/2000/svg" xmlns:xlink="http://www.w3.org/1999/xlink" xmlns:a="http://ns.adobe.com/AdobeSVGViewerExtensions/3.0/"
	 x="0px" y="0px" width="20.604px" height="72.652px" viewBox="0 0 20.604 72.652"
	 style="enable-background:new 0 0 20.604 72.652;" xml:space="preserve">
<defs>
</defs>
<g>
	<g>
		<polygon points="10.988,40.491 10.741,0.015 12.222,0 12.469,40.477 		"/>
	</g>
</g>
<g>
	<ellipse transform="matrix(0.781 -0.6245 0.6245 0.781 -24.1745 13.2237)" cx="6.769" cy="41.083" rx="6.514" ry="4.571"/>
</g>
<g>
	<path d="M12.674,67.727c-0.365-0.019-0.813-0.032-1.347-0.042c-0.533-0.009-1.11-0.019-1.729-0.028
		c-0.255,0-0.583,0.003-0.984,0.008c-0.401,0.004-0.836,0.014-1.306,0.028c-0.47,0.014-0.95,0.027-1.442,0.041
		s-0.962,0.027-1.408,0.041c-0.447,0.014-0.848,0.029-1.203,0.048s-0.625,0.032-0.807,0.041c-0.355,0.019-0.709,0.041-1.06,0.068
		c-0.351,0.027-0.695,0.063-1.032,0.109L0,67.07c0.428,0.055,0.834,0.094,1.217,0.116C1.6,67.21,2.005,67.23,2.434,67.249
		c0.228,0.01,0.528,0.015,0.902,0.015c0.374,0,0.781-0.003,1.224-0.008c0.442-0.004,0.902-0.014,1.381-0.027
		c0.479-0.015,0.938-0.028,1.381-0.042c0.442-0.014,0.848-0.027,1.217-0.041s0.667-0.025,0.896-0.034
		c0.629-0.027,1.226-0.063,1.791-0.109c0.565-0.046,1.094-0.104,1.586-0.178L12.674,67.727z M10.979,72.607
		c-0.574-0.027-1.185-0.046-1.832-0.055c-0.647-0.009-1.288-0.012-1.921-0.007c-0.634,0.005-1.235,0.016-1.805,0.034
		c-0.57,0.019-1.06,0.041-1.47,0.068c-0.255,0.019-0.438-0.034-0.547-0.157S3.24,72.216,3.24,72.033v-1.367
		c0-0.219-0.012-0.395-0.034-0.526c-0.023-0.132-0.075-0.241-0.157-0.328s-0.201-0.159-0.355-0.219
		c-0.155-0.06-0.369-0.125-0.643-0.198l0.15-0.342c0.137,0.019,0.294,0.036,0.472,0.055s0.357,0.039,0.54,0.062
		c0.182,0.022,0.364,0.046,0.547,0.068c0.182,0.022,0.342,0.043,0.479,0.062c-0.019,0.118-0.034,0.273-0.048,0.465
		S4.17,70.138,4.17,70.311v1.285c0,0.2,0.045,0.33,0.137,0.39c0.091,0.06,0.269,0.094,0.533,0.103c0.346,0.009,0.795,0.009,1.347,0
		c0.551-0.009,1.128-0.027,1.729-0.055s1.189-0.063,1.764-0.109s1.062-0.101,1.463-0.164L10.979,72.607z M6.932,60.945
		c0.41,0.027,0.788,0.109,1.135,0.246c0.346,0.137,0.643,0.31,0.889,0.52s0.439,0.449,0.581,0.718
		c0.141,0.269,0.212,0.559,0.212,0.868c0,0.347-0.082,0.665-0.246,0.957s-0.39,0.545-0.677,0.759s-0.627,0.381-1.019,0.499
		c-0.392,0.118-0.82,0.178-1.285,0.178c-0.456,0-0.877-0.06-1.265-0.178c-0.388-0.118-0.725-0.285-1.012-0.499
		s-0.511-0.467-0.67-0.759c-0.16-0.292-0.239-0.61-0.239-0.957c0-0.319,0.073-0.62,0.219-0.902c0.146-0.282,0.351-0.528,0.615-0.738
		c0.264-0.21,0.574-0.381,0.93-0.513s0.747-0.207,1.176-0.226c-0.019-0.101-0.071-0.187-0.157-0.26
		c-0.087-0.073-0.235-0.146-0.444-0.219l0.123-0.246c0.228,0.046,0.449,0.082,0.663,0.109c0.214,0.027,0.439,0.063,0.677,0.109
		c-0.037,0.091-0.073,0.18-0.109,0.267C6.991,60.766,6.959,60.854,6.932,60.945z M8.75,63.242c0-0.255-0.057-0.499-0.171-0.731
		c-0.114-0.232-0.269-0.436-0.465-0.608c-0.196-0.173-0.426-0.312-0.69-0.417c-0.265-0.104-0.547-0.157-0.848-0.157
		c-0.31,0-0.6,0.053-0.868,0.157c-0.269,0.104-0.504,0.244-0.704,0.417c-0.201,0.173-0.358,0.376-0.472,0.608
		c-0.114,0.232-0.171,0.477-0.171,0.731c0,0.273,0.057,0.524,0.171,0.752c0.114,0.228,0.271,0.426,0.472,0.595
		c0.2,0.169,0.435,0.299,0.704,0.39c0.269,0.091,0.558,0.137,0.868,0.137c0.31,0,0.597-0.046,0.861-0.137
		c0.264-0.091,0.494-0.221,0.69-0.39c0.196-0.169,0.349-0.367,0.458-0.595S8.75,63.516,8.75,63.242z"/>
</g>
<path d="M12.256,9c0,0,2.084,6.349,4.267,8.966c2.743,3.287,4.572,6.575,3.963,9.862S17.133,35,17.133,35s2.896-4.931,2.286-7.92
	s-3.895-6.362-5.03-7.92c-1.524-2.092-2.286-3.736-2.286-3.736L12.256,9z"/>
<path d="M12.256,0c0,0,2.084,6.349,4.267,8.966c2.743,3.287,4.572,6.575,3.963,9.862S17.133,26,17.133,26s2.896-4.931,2.286-7.92
	s-3.895-6.362-5.03-7.92c-1.524-2.092-2.286-3.736-2.286-3.736L12.256,0z"/>
</svg>