<!-- Generator: Adobe Illustrator 21.1.0, SVG Export Plug-In  -->
<svg version="1.1"
	 xmlns="http://www.w3.org/2000/svg" xmlns:xlink="http://www.w3.org/1999/xlink" xmlns:a="http://ns.adobe.com/AdobeSVGViewerExtensions/3.0/"
	 x="0px" y="0px" width="20.139px" height="73.168px" viewBox="0 0 20.139 73.168"
	 style="enable-background:new 0 0 20.139 73.168;" xml:space="preserve">
<defs>
</defs>
<g>
	<g>
		<polygon points="10.523,40.491 10.276,0.015 11.757,0 12.004,40.477 		"/>
	</g>
</g>
<g>
	<ellipse transform="matrix(0.781 -0.6245 0.6245 0.781 -24.2763 12.9334)" cx="6.304" cy="41.083" rx="6.514" ry="4.571"/>
</g>
<g>
	<path d="M8.709,61.533c0-0.31-0.139-0.556-0.417-0.738C8.014,60.612,7.583,60.451,7,60.311l0.164-0.377
		c0.456,0.055,0.916,0.125,1.381,0.212s0.875,0.166,1.23,0.239c-0.037,0.164-0.068,0.351-0.096,0.561s-0.041,0.405-0.041,0.588
		v3.951c0.374-0.019,0.807-0.05,1.299-0.096s0.984-0.114,1.477-0.205l-0.137,0.875c-0.191-0.009-0.403-0.014-0.636-0.014
		s-0.467,0-0.704,0c-0.237,0-0.47,0.002-0.697,0.007c-0.228,0.005-0.429,0.007-0.602,0.007v3.131c0,0.282-0.007,0.606-0.021,0.971
		s-0.03,0.729-0.048,1.094c-0.019,0.364-0.043,0.711-0.075,1.039C9.463,72.621,9.429,72.89,9.393,73.1l-0.574,0.068
		c-0.019-0.155-0.034-0.349-0.048-0.581s-0.025-0.483-0.034-0.752c-0.009-0.269-0.016-0.545-0.021-0.827
		c-0.005-0.282-0.007-0.556-0.007-0.82v-2.775c-0.41,0.164-0.889,0.335-1.436,0.513s-1.11,0.347-1.688,0.506
		c-0.579,0.159-1.153,0.303-1.723,0.431c-0.57,0.128-1.078,0.224-1.524,0.287c-0.41,0.055-0.702,0.005-0.875-0.15
		c-0.173-0.155-0.26-0.446-0.26-0.875v-3.992c0-0.183-0.014-0.337-0.041-0.465s-0.084-0.237-0.171-0.328
		c-0.087-0.091-0.21-0.173-0.369-0.246C0.462,63.019,0.255,62.946,0,62.873l0.164-0.342c0.492,0.073,1.016,0.121,1.572,0.144
		c0.556,0.022,1.116,0.022,1.682,0c0.565-0.022,1.119-0.062,1.661-0.116c0.542-0.055,1.05-0.123,1.524-0.205l-0.178,0.833
		c-0.866-0.037-1.661-0.042-2.386-0.014s-1.36,0.064-1.907,0.11v4.567c0,0.182,0.05,0.307,0.15,0.375
		c0.1,0.068,0.228,0.094,0.383,0.075c0.364-0.027,0.809-0.082,1.333-0.164c0.524-0.082,1.066-0.185,1.627-0.308
		s1.112-0.258,1.654-0.403c0.542-0.146,1.019-0.296,1.429-0.451V61.533z"/>
</g>
<path d="M11.791,9c0,0,2.084,6.349,4.267,8.966c2.743,3.287,4.572,6.575,3.963,9.862S16.668,35,16.668,35s2.896-4.931,2.286-7.92
	s-3.895-6.362-5.03-7.92c-1.524-2.092-2.286-3.736-2.286-3.736L11.791,9z"/>
<path d="M11.791,0c0,0,2.084,6.349,4.267,8.966c2.743,3.287,4.572,6.575,3.963,9.862S16.668,26,16.668,26s2.896-4.931,2.286-7.92
	s-3.895-6.362-5.03-7.92c-1.524-2.092-2.286-3.736-2.286-3.736L11.791,0z"/>
</svg>