<!-- Generator: Adobe Illustrator 21.1.0, SVG Export Plug-In  -->
<svg version="1.1"
	 xmlns="http://www.w3.org/2000/svg" xmlns:xlink="http://www.w3.org/1999/xlink" xmlns:a="http://ns.adobe.com/AdobeSVGViewerExtensions/3.0/"
	 x="0px" y="0px" width="89.687px" height="126.293px" viewBox="0 0 89.687 126.293"
	 style="enable-background:new 0 0 89.687 126.293;" xml:space="preserve">
<defs>
</defs>
<g>
	<path d="M3.666,2.868C3.947,3.079,4.252,3.287,4.58,3.495c0.328,0.207,0.674,0.396,1.037,0.565C5.488,4.178,5.359,4.291,5.23,4.399
		S4.97,4.62,4.835,4.737C4.589,4.491,4.334,4.244,4.07,3.995S3.537,3.499,3.262,3.254C2.857,3.622,2.427,3.948,1.97,4.231
		C1.513,4.517,1.047,4.77,0.572,4.992C0.525,4.939,0.479,4.886,0.432,4.829C0.385,4.774,0.338,4.72,0.291,4.667
		c0.346-0.182,0.683-0.388,1.011-0.619S1.936,3.565,2.22,3.296s0.545-0.554,0.783-0.853C3.239,2.145,3.44,1.837,3.604,1.521
		C3.417,1.526,3.236,1.534,3.063,1.542c-0.173,0.01-0.353,0.021-0.54,0.035C2.336,1.593,2.134,1.612,1.917,1.64
		C1.7,1.665,1.457,1.696,1.188,1.731C1.1,1.598,1.013,1.463,0.929,1.327c-0.086-0.136-0.172-0.27-0.26-0.404
		c0.07,0.012,0.17,0.026,0.299,0.044s0.265,0.034,0.408,0.048C1.52,1.03,1.66,1.043,1.798,1.055s0.251,0.018,0.339,0.018
		c0.422,0,0.85-0.018,1.283-0.053s0.826-0.094,1.178-0.176c0.1,0.105,0.202,0.208,0.308,0.308C4.753,1.479,4.569,1.782,4.356,2.062
		C4.142,2.343,3.912,2.611,3.666,2.868z M3.156,6.302L3.191,5.44C3.051,5.429,2.939,5.426,2.857,5.432s-0.19,0.018-0.325,0.035
		C2.497,5.473,2.445,5.481,2.378,5.493S2.237,5.517,2.159,5.528c-0.08,0.012-0.16,0.026-0.242,0.044s-0.155,0.032-0.22,0.044
		L1.319,4.869C1.601,4.934,1.836,4.968,2.026,4.97c0.19,0.004,0.336,0.005,0.436,0.005C2.685,4.98,2.95,4.97,3.257,4.944
		c0.309-0.027,0.611-0.058,0.91-0.093l0.018-0.053c0.229,0.053,0.467,0.088,0.717,0.105c0.248,0.018,0.5,0.023,0.756,0.018
		c0.254-0.006,0.511-0.022,0.769-0.048c0.258-0.027,0.507-0.058,0.747-0.093c-0.023,0.17-0.046,0.374-0.066,0.614
		C7.086,5.635,7.065,5.879,7.046,6.127c-0.021,0.248-0.04,0.491-0.058,0.728S6.959,7.291,6.953,7.455
		c0.023,0,0.138-0.021,0.343-0.062L7.155,8.156c-0.117-0.012-0.252-0.022-0.404-0.03c-0.152-0.01-0.31-0.017-0.471-0.022
		S5.96,8.095,5.802,8.095S5.503,8.098,5.38,8.104C5.374,8.139,5.368,8.181,5.362,8.231C5.356,8.28,5.351,8.338,5.345,8.402
		L4.712,8.552C4.683,8.405,4.655,8.256,4.628,8.104C4.603,7.952,4.586,7.777,4.58,7.58L4.51,5.792
		c-0.012-0.146-0.052-0.256-0.118-0.33C4.323,5.39,4.275,5.347,4.246,5.335c-0.023,0.117-0.047,0.261-0.07,0.431
		S4.132,6.07,4.114,6.17c0.041,0,0.103-0.009,0.185-0.026L4.185,6.812C3.815,6.8,3.525,6.794,3.314,6.794S2.919,6.806,2.761,6.829
		v0.773c0,0.094,0.012,0.146,0.035,0.158S2.857,7.775,2.91,7.77c0.094-0.006,0.185-0.013,0.272-0.022
		c0.088-0.008,0.185-0.024,0.29-0.048s0.224-0.053,0.356-0.088C3.96,7.576,4.12,7.526,4.308,7.462v0.422
		C4.132,7.966,3.975,8.033,3.837,8.086s-0.275,0.1-0.412,0.141C3.286,8.268,3.146,8.303,3.003,8.332
		C2.858,8.361,2.696,8.391,2.515,8.42C2.274,8.467,2.09,8.438,1.961,8.332S1.768,8.083,1.768,7.901V7.146
		c0-0.082-0.003-0.147-0.009-0.197S1.733,6.855,1.702,6.82C1.669,6.785,1.621,6.753,1.557,6.724S1.398,6.659,1.275,6.618L1.39,6.249
		c0.369,0.047,0.703,0.072,1.002,0.074C2.69,6.327,2.945,6.319,3.156,6.302z M6.145,2.979C6.004,2.991,5.861,3.003,5.718,3.015
		S5.437,3.04,5.306,3.054C5.173,3.069,5.049,3.085,4.932,3.103s-0.22,0.038-0.308,0.062C4.56,3.029,4.495,2.897,4.431,2.769
		S4.302,2.508,4.237,2.373C4.319,2.391,4.42,2.407,4.54,2.421c0.12,0.016,0.246,0.027,0.379,0.035
		c0.131,0.01,0.259,0.016,0.382,0.018c0.123,0.004,0.226,0.005,0.308,0.005s0.167-0.001,0.255-0.005
		c0.088-0.002,0.182-0.007,0.281-0.013V1.125c0-0.17-0.085-0.311-0.255-0.422S5.438,0.486,5.046,0.387
		c0.035-0.064,0.07-0.129,0.105-0.193S5.219,0.064,5.248,0c0.135,0.018,0.294,0.041,0.479,0.07C5.911,0.1,6.098,0.132,6.285,0.167
		s0.367,0.067,0.54,0.097s0.315,0.053,0.427,0.07C7.24,0.387,7.229,0.457,7.217,0.545S7.193,0.721,7.182,0.809
		s-0.022,0.166-0.03,0.233c-0.01,0.067-0.014,0.104-0.014,0.109v1.978c0,0.105-0.006,0.231-0.018,0.378S7.095,3.799,7.081,3.942
		C7.065,4.086,7.05,4.222,7.032,4.351S6.997,4.579,6.979,4.649C6.856,4.661,6.731,4.679,6.606,4.702
		C6.479,4.726,6.353,4.743,6.224,4.755C6.212,4.696,6.202,4.617,6.192,4.518c-0.008-0.1-0.016-0.203-0.021-0.312
		S6.159,3.99,6.153,3.885S6.145,3.688,6.145,3.612V2.979z M6.101,7.559L6.109,5.44C6.033,5.429,5.931,5.427,5.802,5.437
		C5.673,5.444,5.538,5.458,5.397,5.476l0.009,1.969v0.149c0.082-0.006,0.191-0.012,0.329-0.018S5.995,7.564,6.101,7.559z"/>
	<path d="M12.763,6.557c0.334-0.018,0.643-0.03,0.927-0.04c0.284-0.008,0.512-0.021,0.682-0.039
		c0.193-0.006,0.396-0.016,0.606-0.031c0.211-0.014,0.42-0.03,0.628-0.048s0.409-0.036,0.603-0.058
		c0.193-0.02,0.369-0.042,0.527-0.065l-0.123,0.817c-0.117-0.006-0.257-0.012-0.417-0.018c-0.162-0.006-0.338-0.01-0.527-0.014
		c-0.191-0.002-0.387-0.005-0.59-0.008c-0.201-0.003-0.399-0.005-0.593-0.005c-0.158,0-0.354,0.002-0.585,0.005
		s-0.48,0.008-0.746,0.018c-0.268,0.008-0.541,0.016-0.822,0.021s-0.548,0.014-0.8,0.021c-0.252,0.01-0.48,0.02-0.686,0.031
		s-0.363,0.021-0.475,0.026c-0.223,0.012-0.469,0.029-0.738,0.053s-0.513,0.05-0.729,0.079L8.579,6.425
		C8.708,6.442,8.848,6.46,8.996,6.478C9.146,6.495,9.3,6.51,9.458,6.521s0.314,0.022,0.47,0.03c0.155,0.01,0.301,0.017,0.436,0.022
		c0.164,0.012,0.369,0.016,0.615,0.013s0.516-0.007,0.809-0.013V4.351c0-0.088-0.009-0.162-0.026-0.225
		c-0.018-0.061-0.055-0.115-0.11-0.162s-0.135-0.088-0.236-0.123c-0.104-0.035-0.239-0.067-0.409-0.097l0.193-0.387
		c0.088,0.012,0.205,0.025,0.352,0.04s0.3,0.033,0.462,0.057c0.16,0.023,0.317,0.049,0.47,0.074
		c0.152,0.027,0.281,0.052,0.387,0.075c-0.012,0.053-0.023,0.117-0.035,0.193s-0.023,0.151-0.035,0.224
		c-0.012,0.074-0.021,0.141-0.026,0.203c-0.006,0.061-0.009,0.101-0.009,0.118V6.557z M13.976,5.432
		c0.059-0.281,0.117-0.59,0.176-0.927s0.11-0.678,0.153-1.02c0.045-0.344,0.082-0.673,0.115-0.989
		c0.031-0.316,0.054-0.595,0.065-0.835c-0.217,0-0.457,0.002-0.721,0.004c-0.264,0.004-0.529,0.007-0.796,0.01
		s-0.521,0.008-0.764,0.018c-0.244,0.008-0.453,0.019-0.629,0.03c-0.088,0.012-0.196,0.023-0.325,0.035s-0.266,0.026-0.409,0.044
		s-0.289,0.038-0.439,0.062c-0.148,0.023-0.288,0.047-0.417,0.07L9.563,1.107c0.111,0.012,0.238,0.022,0.382,0.03
		c0.144,0.01,0.289,0.02,0.436,0.031s0.285,0.021,0.418,0.026c0.131,0.006,0.244,0.009,0.338,0.009c0.311,0,0.659-0.004,1.046-0.014
		c0.387-0.008,0.774-0.021,1.165-0.039c0.389-0.018,0.764-0.041,1.125-0.07c0.359-0.029,0.672-0.064,0.936-0.105l0.281,0.272
		c-0.1,0.691-0.226,1.401-0.378,2.132c-0.152,0.729-0.346,1.413-0.58,2.052H13.976z"/>
	<path d="M22.729,1.916c0.258,0.047,0.493,0.123,0.708,0.229c0.213,0.105,0.396,0.237,0.549,0.396s0.27,0.336,0.352,0.531
		c0.082,0.197,0.123,0.406,0.123,0.629c0,0.264-0.056,0.509-0.167,0.734s-0.266,0.42-0.462,0.584s-0.43,0.293-0.703,0.387
		c-0.271,0.094-0.566,0.141-0.883,0.141s-0.608-0.047-0.875-0.141s-0.496-0.223-0.689-0.387s-0.346-0.358-0.457-0.584
		S20.058,3.964,20.058,3.7c0-0.234,0.045-0.454,0.136-0.659s0.217-0.387,0.379-0.545c0.16-0.158,0.354-0.29,0.58-0.396
		c0.225-0.105,0.473-0.173,0.742-0.202c0.006-0.094-0.015-0.167-0.062-0.22s-0.146-0.103-0.299-0.149l0.193-0.334
		c0.059,0.018,0.138,0.038,0.237,0.062s0.203,0.047,0.312,0.07c0.107,0.023,0.215,0.046,0.32,0.066s0.193,0.039,0.264,0.057
		C22.814,1.562,22.771,1.717,22.729,1.916z M23.433,3.674c0-0.182-0.032-0.35-0.097-0.505s-0.149-0.291-0.255-0.404
		c-0.105-0.115-0.229-0.205-0.369-0.273c-0.141-0.066-0.29-0.101-0.448-0.101s-0.307,0.034-0.443,0.101
		c-0.139,0.068-0.259,0.158-0.361,0.273c-0.103,0.113-0.184,0.249-0.246,0.404c-0.061,0.155-0.092,0.323-0.092,0.505
		c0,0.188,0.031,0.357,0.092,0.51c0.062,0.152,0.144,0.283,0.246,0.392s0.223,0.193,0.361,0.254
		c0.137,0.062,0.285,0.093,0.443,0.093s0.308-0.03,0.448-0.093c0.141-0.061,0.265-0.146,0.374-0.254
		c0.107-0.108,0.193-0.239,0.254-0.392C23.402,4.031,23.433,3.861,23.433,3.674z M26.491,5.977c0,0.182-0.005,0.392-0.013,0.628
		c-0.01,0.238-0.021,0.477-0.035,0.717c-0.016,0.24-0.03,0.469-0.045,0.686s-0.03,0.39-0.048,0.519l-0.773,0.105
		c-0.012-0.094-0.022-0.222-0.03-0.382c-0.01-0.162-0.018-0.336-0.027-0.523c-0.008-0.188-0.015-0.378-0.018-0.571
		s-0.004-0.375-0.004-0.545V1.116c0-0.17-0.082-0.309-0.246-0.418c-0.164-0.107-0.439-0.212-0.826-0.312L24.602,0
		c0.146,0.018,0.312,0.041,0.496,0.07c0.186,0.029,0.371,0.062,0.559,0.097s0.365,0.067,0.531,0.097
		c0.168,0.029,0.307,0.053,0.418,0.07c-0.018,0.053-0.032,0.123-0.044,0.211s-0.023,0.176-0.035,0.264S26.506,0.975,26.5,1.042
		s-0.009,0.104-0.009,0.109v2.355c0.129-0.012,0.272-0.024,0.431-0.039s0.314-0.031,0.471-0.049
		c0.154-0.018,0.304-0.036,0.447-0.057s0.269-0.043,0.374-0.066l-0.088,0.817c-0.088-0.006-0.198-0.009-0.329-0.009
		c-0.133,0-0.273,0-0.422,0c-0.15,0-0.301,0-0.453,0s-0.296,0-0.431,0V5.977z"/>
	<path d="M36.669,4.034c-0.023,0.135-0.046,0.271-0.066,0.408c-0.021,0.139-0.042,0.274-0.065,0.409
		c-0.117-0.006-0.258-0.012-0.422-0.018s-0.34-0.012-0.527-0.018s-0.381-0.01-0.58-0.013s-0.393-0.005-0.58-0.005
		c-0.65,0-1.282,0.009-1.894,0.026c-0.613,0.018-1.178,0.039-1.697,0.066c-0.518,0.025-0.975,0.054-1.371,0.083
		c-0.395,0.029-0.701,0.059-0.918,0.088c-0.059-0.146-0.119-0.293-0.18-0.439c-0.062-0.146-0.119-0.293-0.172-0.439
		c0.398,0.047,0.807,0.085,1.227,0.114c0.418,0.029,0.801,0.044,1.146,0.044c0.715,0,1.363-0.006,1.947-0.018
		c0.582-0.012,1.117-0.03,1.604-0.058c0.486-0.025,0.938-0.058,1.354-0.096S36.288,4.087,36.669,4.034z M33.874,1.731
		c0.006-0.123,0.007-0.247,0.004-0.373s-0.001-0.254,0.005-0.383c-0.053,0-0.11-0.001-0.171-0.004
		c-0.062-0.003-0.131-0.005-0.207-0.005c-0.17,0-0.354,0.003-0.554,0.009s-0.399,0.014-0.603,0.021
		c-0.201,0.01-0.393,0.02-0.57,0.031c-0.18,0.012-0.33,0.023-0.453,0.035c-0.059,0.006-0.141,0.014-0.246,0.021
		c-0.105,0.01-0.223,0.02-0.352,0.031s-0.26,0.025-0.391,0.039c-0.133,0.016-0.251,0.031-0.356,0.049
		c-0.076-0.135-0.153-0.271-0.233-0.408c-0.078-0.138-0.156-0.274-0.232-0.409c0.07,0.012,0.167,0.026,0.29,0.044
		s0.253,0.034,0.392,0.049c0.137,0.015,0.273,0.025,0.408,0.035c0.135,0.008,0.249,0.013,0.343,0.013
		c0.223,0,0.51-0.001,0.861-0.005c0.352-0.002,0.721-0.008,1.107-0.018c0.387-0.008,0.769-0.021,1.147-0.039
		c0.377-0.018,0.704-0.041,0.979-0.07C35.02,0.513,35,0.61,34.985,0.69c-0.015,0.078-0.029,0.158-0.043,0.236
		c-0.016,0.08-0.025,0.146-0.031,0.198c-0.012,0.088-0.025,0.179-0.039,0.272c-0.016,0.094-0.028,0.188-0.04,0.281
		c0.035-0.012,0.067-0.019,0.097-0.021s0.059-0.008,0.088-0.014c-0.012,0.105-0.025,0.215-0.039,0.33
		c-0.016,0.113-0.028,0.224-0.04,0.329c-0.223-0.012-0.457-0.019-0.703-0.022c-0.246-0.002-0.501-0.004-0.765-0.004
		c-0.246,0-0.491,0.002-0.734,0.004c-0.243,0.004-0.469,0.008-0.676,0.014c-0.209,0.006-0.394,0.011-0.555,0.014
		s-0.288,0.007-0.382,0.013v0.642c0,0.035,0.001,0.063,0.005,0.084c0.002,0.021,0.013,0.033,0.03,0.039s0.048,0.009,0.093,0.009
		c0.043,0,0.106,0,0.188,0c0.24,0,0.533-0.007,0.879-0.022c0.346-0.014,0.703-0.031,1.072-0.053c0.369-0.02,0.726-0.045,1.067-0.074
		c0.344-0.029,0.629-0.062,0.857-0.097c-0.029,0.135-0.057,0.27-0.084,0.404c-0.025,0.135-0.054,0.27-0.083,0.404
		c-0.234-0.012-0.492-0.021-0.773-0.026s-0.571-0.009-0.87-0.009c-0.264,0-0.53,0.003-0.8,0.009s-0.527,0.014-0.773,0.021
		c-0.246,0.01-0.477,0.017-0.69,0.022s-0.402,0.009-0.566,0.009c-0.199,0-0.343-0.054-0.431-0.162s-0.132-0.239-0.132-0.392V2.689
		c0-0.105-0.008-0.19-0.021-0.255c-0.016-0.064-0.045-0.119-0.088-0.162c-0.045-0.045-0.107-0.082-0.189-0.115
		c-0.082-0.031-0.193-0.071-0.334-0.118c0.029-0.053,0.057-0.106,0.084-0.163c0.025-0.055,0.054-0.109,0.083-0.162
		c0.281,0.029,0.59,0.05,0.927,0.062s0.685,0.018,1.042,0.018c0.393,0,0.783-0.006,1.173-0.018S33.54,1.749,33.874,1.731z
		 M34.753,7.436c0.064-0.012,0.124-0.019,0.18-0.022c0.056-0.002,0.107-0.007,0.154-0.013c-0.035,0.117-0.066,0.24-0.092,0.369
		c-0.027,0.129-0.055,0.252-0.084,0.369c-0.223-0.012-0.506-0.022-0.848-0.03c-0.344-0.01-0.702-0.014-1.077-0.014
		c-0.287,0-0.568,0.001-0.844,0.004s-0.527,0.011-0.756,0.022c-0.006,0.035-0.012,0.079-0.018,0.132s-0.015,0.108-0.026,0.167
		c-0.117,0.029-0.236,0.051-0.355,0.065C30.866,8.5,30.748,8.52,30.631,8.543c-0.029-0.129-0.053-0.237-0.07-0.325
		s-0.03-0.167-0.04-0.237c-0.008-0.07-0.016-0.135-0.021-0.193s-0.012-0.126-0.018-0.202c-0.023-0.188-0.041-0.376-0.053-0.566
		s-0.026-0.383-0.044-0.576c-0.006-0.105-0.013-0.19-0.022-0.255c-0.008-0.064-0.033-0.117-0.074-0.158s-0.1-0.075-0.176-0.101
		c-0.076-0.027-0.185-0.058-0.325-0.093c0.029-0.064,0.059-0.128,0.088-0.188c0.029-0.062,0.062-0.125,0.097-0.189
		c0.334,0.041,0.683,0.069,1.046,0.084s0.735,0.021,1.116,0.021c0.498,0,0.988-0.012,1.473-0.035
		c0.482-0.023,0.944-0.05,1.384-0.079c-0.012,0.141-0.026,0.293-0.044,0.457s-0.038,0.334-0.062,0.51s-0.046,0.352-0.065,0.527
		C34.798,7.119,34.776,7.283,34.753,7.436z M33.892,6.091c-0.105-0.006-0.217-0.01-0.334-0.014c-0.117-0.002-0.237-0.004-0.36-0.004
		c-0.158,0-0.319,0.002-0.483,0.004c-0.164,0.004-0.325,0.008-0.483,0.014s-0.308,0.014-0.448,0.021
		c-0.141,0.01-0.267,0.017-0.378,0.022c0,0.223,0.001,0.438,0.005,0.646c0.002,0.209,0.004,0.421,0.004,0.638v0.149
		c0.369-0.012,0.773-0.025,1.213-0.039c0.439-0.016,0.861-0.028,1.266-0.04V6.091z"/>
	<path d="M42.496,1.116c0-0.17-0.081-0.309-0.242-0.418c-0.161-0.107-0.435-0.212-0.821-0.312L41.582,0
		c0.146,0.018,0.314,0.041,0.506,0.07c0.189,0.029,0.377,0.062,0.562,0.097c0.184,0.035,0.359,0.067,0.527,0.097
		c0.166,0.029,0.303,0.053,0.408,0.07c-0.012,0.053-0.023,0.123-0.035,0.211s-0.021,0.176-0.031,0.264
		c-0.008,0.088-0.016,0.166-0.021,0.233s-0.009,0.104-0.009,0.109v2.355c0.129-0.012,0.271-0.024,0.427-0.039
		c0.154-0.015,0.312-0.031,0.47-0.049s0.311-0.036,0.457-0.057s0.278-0.043,0.396-0.066l-0.105,0.817
		c-0.094-0.006-0.207-0.009-0.338-0.009c-0.133,0-0.273,0-0.422,0c-0.15,0-0.303,0-0.457,0c-0.156,0-0.298,0-0.427,0v1.872
		c0,0.182-0.003,0.392-0.009,0.628c-0.006,0.238-0.015,0.477-0.026,0.717S43.428,7.79,43.41,8.007s-0.035,0.39-0.053,0.519
		l-0.773,0.105c-0.012-0.094-0.021-0.222-0.031-0.382c-0.008-0.162-0.018-0.336-0.025-0.523c-0.01-0.188-0.017-0.378-0.022-0.571
		s-0.009-0.375-0.009-0.545V5.001c-0.27,0.105-0.57,0.213-0.9,0.32c-0.332,0.109-0.664,0.213-0.998,0.312s-0.658,0.187-0.971,0.26
		c-0.314,0.073-0.591,0.127-0.831,0.162c-0.334,0.053-0.574,0.014-0.721-0.119c-0.146-0.131-0.22-0.341-0.22-0.628V2.76
		c0-0.1-0.009-0.186-0.026-0.259s-0.055-0.138-0.11-0.193s-0.135-0.105-0.236-0.15c-0.104-0.043-0.236-0.089-0.4-0.136l0.149-0.396
		c0.34,0.053,0.706,0.087,1.099,0.102s0.787,0.015,1.182,0c0.396-0.015,0.778-0.041,1.147-0.08c0.369-0.037,0.7-0.083,0.993-0.136
		l-0.141,0.782c-0.545-0.023-1.041-0.032-1.49-0.026C39.574,2.273,39.18,2.291,38.84,2.32v2.812c0,0.082,0.009,0.14,0.026,0.171
		c0.018,0.033,0.047,0.049,0.088,0.049c0.176-0.012,0.409-0.045,0.698-0.102c0.291-0.055,0.6-0.119,0.928-0.193
		c0.328-0.072,0.66-0.154,0.998-0.246c0.336-0.09,0.643-0.177,0.918-0.259V1.116z"/>
	<path d="M50.327,5.388c0,0.1-0.003,0.215-0.009,0.348C50.312,5.866,50.304,6,50.292,6.135s-0.023,0.269-0.035,0.399
		c-0.012,0.133-0.023,0.248-0.035,0.348l-0.809,0.132c-0.012-0.111-0.021-0.237-0.031-0.378c-0.008-0.141-0.018-0.281-0.025-0.422
		c-0.01-0.141-0.016-0.272-0.018-0.396c-0.004-0.123-0.005-0.223-0.005-0.299V5.045c-0.229,0.006-0.457,0.013-0.686,0.022
		c-0.229,0.008-0.442,0.019-0.642,0.03s-0.378,0.022-0.536,0.03c-0.158,0.01-0.281,0.017-0.369,0.022
		c-0.105,0.006-0.222,0.013-0.347,0.022c-0.127,0.008-0.254,0.019-0.383,0.03s-0.257,0.025-0.383,0.04s-0.238,0.027-0.338,0.039
		L45.3,4.403c0.264,0.029,0.562,0.058,0.896,0.084s0.633,0.045,0.896,0.057c0.141,0.007,0.325,0.01,0.554,0.01
		s0.479-0.002,0.751-0.005c0.273-0.003,0.557-0.009,0.854-0.018c0.295-0.009,0.58-0.017,0.852-0.022
		c0.273-0.006,0.523-0.014,0.752-0.021c0.229-0.01,0.413-0.017,0.554-0.022c0.193-0.006,0.396-0.018,0.606-0.035
		s0.42-0.036,0.629-0.058c0.207-0.02,0.408-0.042,0.602-0.065s0.372-0.047,0.536-0.07l-0.141,0.826
		c-0.117-0.006-0.257-0.012-0.417-0.018c-0.162-0.006-0.336-0.012-0.523-0.018s-0.381-0.012-0.58-0.018s-0.396-0.009-0.589-0.009
		c-0.141,0-0.312-0.001-0.515-0.004c-0.201-0.003-0.432,0.001-0.689,0.013V5.388z M52.586,8.271
		c-0.357-0.018-0.747-0.031-1.169-0.039c-0.422-0.01-0.84-0.013-1.252-0.01c-0.414,0.003-0.808,0.01-1.183,0.018
		c-0.375,0.01-0.691,0.022-0.949,0.04c-0.24,0.018-0.409-0.028-0.505-0.136c-0.098-0.109-0.146-0.23-0.146-0.365V6.847
		c0-0.123-0.006-0.221-0.018-0.295c-0.012-0.072-0.043-0.134-0.093-0.184S47.146,6.275,47.04,6.24s-0.249-0.076-0.431-0.123
		l0.167-0.404c0.088,0.018,0.207,0.037,0.355,0.058c0.15,0.021,0.305,0.042,0.467,0.065c0.16,0.023,0.317,0.046,0.47,0.065
		c0.152,0.021,0.272,0.037,0.36,0.049c-0.012,0.07-0.023,0.18-0.035,0.33c-0.012,0.148-0.018,0.276-0.018,0.382v0.835
		c0,0.1,0.009,0.158,0.026,0.176s0.07,0.029,0.158,0.035c0.146,0,0.326-0.002,0.54-0.004c0.214-0.004,0.449-0.01,0.703-0.018
		c0.256-0.01,0.52-0.02,0.791-0.031c0.273-0.012,0.538-0.028,0.796-0.049s0.502-0.041,0.733-0.061
		c0.231-0.021,0.43-0.046,0.594-0.075L52.586,8.271z M50.134,0.677c0.252,0.041,0.483,0.109,0.694,0.207
		c0.211,0.096,0.392,0.214,0.54,0.352c0.15,0.138,0.266,0.293,0.348,0.465c0.082,0.174,0.123,0.356,0.123,0.55
		c0,0.229-0.056,0.442-0.167,0.642s-0.267,0.372-0.466,0.519s-0.436,0.261-0.707,0.343c-0.273,0.082-0.567,0.123-0.884,0.123
		s-0.606-0.041-0.87-0.123S48.253,3.557,48.06,3.41s-0.345-0.319-0.453-0.519s-0.162-0.413-0.162-0.642
		c0-0.199,0.044-0.387,0.132-0.562s0.211-0.334,0.369-0.475s0.347-0.258,0.567-0.352c0.219-0.094,0.458-0.155,0.716-0.185
		c-0.012-0.076-0.043-0.138-0.093-0.185S49,0.404,48.877,0.369l0.167-0.308c0.064,0.012,0.149,0.028,0.255,0.049
		s0.216,0.042,0.329,0.065c0.115,0.023,0.228,0.046,0.339,0.065c0.111,0.021,0.205,0.037,0.281,0.049
		c-0.012,0.053-0.029,0.109-0.053,0.172C50.172,0.522,50.151,0.595,50.134,0.677z M50.811,2.215c0-0.146-0.032-0.287-0.097-0.422
		s-0.149-0.252-0.255-0.352S50.23,1.263,50.09,1.204s-0.287-0.088-0.439-0.088c-0.158,0-0.307,0.029-0.444,0.088
		s-0.259,0.138-0.364,0.237s-0.188,0.217-0.251,0.352c-0.061,0.135-0.092,0.275-0.092,0.422c0,0.164,0.031,0.313,0.092,0.448
		c0.062,0.135,0.144,0.249,0.246,0.343s0.225,0.167,0.365,0.22s0.29,0.079,0.448,0.079s0.308-0.026,0.448-0.079
		s0.264-0.126,0.369-0.22s0.189-0.208,0.25-0.343C50.78,2.528,50.811,2.379,50.811,2.215z"/>
	<path d="M4.973,40.65c0-0.082-0.013-0.155-0.04-0.22c-0.025-0.064-0.071-0.124-0.136-0.181c-0.064-0.055-0.153-0.106-0.269-0.153
		c-0.113-0.047-0.262-0.094-0.443-0.141l0.185-0.369c0.141,0.018,0.29,0.04,0.448,0.065c0.158,0.027,0.316,0.057,0.475,0.088
		c0.158,0.033,0.309,0.065,0.453,0.098C5.788,39.87,5.913,39.9,6.019,39.93c-0.012,0.053-0.023,0.122-0.035,0.207
		s-0.023,0.168-0.035,0.25s-0.021,0.155-0.026,0.22s-0.009,0.1-0.009,0.105v2.109c0.076-0.006,0.162-0.016,0.26-0.03
		c0.096-0.015,0.183-0.022,0.259-0.022v-2.452c0-0.088-0.015-0.165-0.044-0.232s-0.079-0.131-0.149-0.189s-0.167-0.112-0.29-0.162
		s-0.281-0.099-0.475-0.146L5.641,39.2c0.141,0.018,0.296,0.043,0.466,0.075s0.341,0.064,0.514,0.096
		c0.173,0.033,0.337,0.065,0.492,0.098s0.286,0.06,0.392,0.083c-0.006,0.053-0.013,0.123-0.022,0.211
		c-0.008,0.088-0.016,0.173-0.021,0.255s-0.012,0.157-0.018,0.225s-0.009,0.104-0.009,0.109v4.808c0,0.182-0.006,0.389-0.018,0.62
		s-0.026,0.465-0.044,0.703c-0.018,0.236-0.037,0.464-0.057,0.681c-0.021,0.217-0.04,0.398-0.058,0.545l-0.773,0.114
		c-0.006-0.1-0.012-0.229-0.018-0.387s-0.012-0.33-0.018-0.514c-0.006-0.186-0.011-0.374-0.013-0.567
		c-0.004-0.193-0.005-0.375-0.005-0.545v-2.47c-0.07,0.006-0.155,0.011-0.255,0.014s-0.188,0.01-0.264,0.021v1.485
		c0,0.182-0.006,0.39-0.018,0.624s-0.025,0.471-0.039,0.707c-0.016,0.238-0.033,0.465-0.053,0.682
		c-0.021,0.217-0.04,0.398-0.058,0.545l-0.721,0.097c-0.006-0.1-0.012-0.229-0.018-0.387s-0.012-0.329-0.018-0.515
		c-0.006-0.184-0.011-0.373-0.013-0.566c-0.004-0.193-0.005-0.375-0.005-0.545V44.5c-0.24,0.117-0.486,0.228-0.738,0.33
		s-0.492,0.186-0.721,0.25c-0.117,0.029-0.22,0.038-0.308,0.026s-0.164-0.03-0.229-0.058c-0.064-0.025-0.116-0.057-0.154-0.092
		s-0.06-0.067-0.065-0.097c-0.123,0.059-0.223,0.103-0.299,0.132s-0.148,0.053-0.216,0.07s-0.139,0.035-0.215,0.053
		s-0.179,0.038-0.308,0.062c-0.281,0.064-0.485,0.029-0.61-0.105c-0.127-0.135-0.189-0.343-0.189-0.624v-2.408
		c0-0.105-0.009-0.197-0.026-0.277c-0.018-0.078-0.05-0.147-0.097-0.206s-0.113-0.11-0.197-0.153
		c-0.086-0.045-0.198-0.09-0.339-0.137l0.141-0.36c0.381,0.059,0.771,0.096,1.169,0.11s0.779-0.025,1.143-0.119
		c0.193,0.023,0.37,0.038,0.531,0.044s0.324,0.003,0.488-0.009s0.337-0.032,0.519-0.062s0.384-0.07,0.606-0.123l-0.114,0.712
		c-0.211,0.006-0.412,0.008-0.603,0.004c-0.19-0.002-0.37,0.002-0.54,0.014v2.716c0,0.1,0.006,0.157,0.018,0.171
		c0.012,0.016,0.026,0.025,0.044,0.031c0.146-0.023,0.334-0.07,0.562-0.141s0.478-0.158,0.747-0.264V40.65z M2.705,41.951
		c0-0.111-0.005-0.207-0.013-0.285c-0.01-0.08-0.008-0.125,0.004-0.137c-0.1,0-0.185,0-0.255,0s-0.138,0.002-0.202,0.004
		c-0.064,0.004-0.129,0.008-0.193,0.014s-0.138,0.015-0.22,0.026v2.707c0,0.094,0.006,0.151,0.018,0.171
		c0.012,0.021,0.021,0.031,0.026,0.031c0.17-0.023,0.331-0.053,0.483-0.088s0.27-0.07,0.352-0.105V41.951z"/>
	<path d="M13.401,45.88c0.211-0.012,0.401-0.021,0.571-0.026s0.311-0.012,0.422-0.018c0.193-0.006,0.396-0.018,0.606-0.035
		s0.42-0.038,0.628-0.062s0.409-0.047,0.603-0.07s0.369-0.044,0.527-0.062l-0.123,0.826c-0.117-0.006-0.257-0.012-0.417-0.018
		c-0.162-0.006-0.338-0.01-0.527-0.014c-0.191-0.002-0.387-0.005-0.59-0.008c-0.201-0.003-0.399-0.005-0.593-0.005
		c-0.158,0-0.354,0.003-0.585,0.009s-0.48,0.012-0.746,0.018c-0.268,0.006-0.541,0.015-0.822,0.026s-0.548,0.022-0.8,0.03
		c-0.252,0.01-0.48,0.018-0.686,0.027c-0.205,0.008-0.363,0.016-0.475,0.021c-0.223,0.012-0.469,0.032-0.738,0.062
		s-0.513,0.05-0.729,0.062l-0.325-0.879c0.258,0.035,0.551,0.064,0.879,0.088s0.63,0.041,0.905,0.053
		c0.217,0.012,0.507,0.017,0.87,0.014s0.747-0.011,1.151-0.022v-1.371c-0.316,0.006-0.611,0.012-0.883,0.018
		c-0.273,0.006-0.512,0.012-0.717,0.018c-0.229,0.018-0.39-0.027-0.483-0.136s-0.141-0.239-0.141-0.392v-1.055
		c0-0.105-0.008-0.19-0.022-0.255s-0.043-0.12-0.088-0.167c-0.043-0.047-0.106-0.088-0.188-0.123s-0.193-0.076-0.334-0.123
		l0.193-0.308c0.281,0.029,0.603,0.05,0.962,0.062c0.361,0.012,0.732,0.018,1.117,0.018c0.383,0,0.767-0.005,1.15-0.013
		c0.384-0.01,0.743-0.02,1.077-0.031l0.053-1.327c-0.141-0.006-0.331-0.007-0.571-0.005c-0.24,0.004-0.494,0.008-0.76,0.014
		c-0.268,0.006-0.523,0.015-0.77,0.026s-0.442,0.023-0.589,0.035c-0.064,0.006-0.151,0.013-0.259,0.022
		c-0.109,0.008-0.227,0.021-0.352,0.035c-0.127,0.015-0.254,0.029-0.383,0.043c-0.129,0.016-0.249,0.031-0.36,0.049l-0.439-0.8
		c0.053,0.012,0.139,0.026,0.259,0.044s0.251,0.034,0.392,0.049s0.279,0.027,0.417,0.039s0.251,0.018,0.339,0.018
		c0.146,0,0.328,0,0.545,0s0.452-0.003,0.708-0.009c0.254-0.006,0.521-0.01,0.799-0.013s0.551-0.011,0.818-0.022
		c0.266-0.012,0.521-0.023,0.764-0.035s0.456-0.026,0.638-0.044c-0.023,0.059-0.053,0.161-0.088,0.308s-0.059,0.275-0.07,0.387
		l-0.158,1.107c0.117-0.006,0.22-0.015,0.308-0.026l-0.07,0.659c-0.211-0.012-0.443-0.021-0.699-0.026
		c-0.254-0.006-0.516-0.009-0.781-0.009c-0.268,0-0.531,0.002-0.791,0.005c-0.262,0.003-0.506,0.007-0.734,0.013
		s-0.431,0.012-0.606,0.018s-0.311,0.012-0.404,0.018c0,0.047-0.003,0.09-0.009,0.128s-0.009,0.08-0.009,0.127v0.976
		c0,0.082,0.005,0.128,0.013,0.136c0.01,0.01,0.058,0.017,0.146,0.022c0.141,0.006,0.319,0.008,0.536,0.005s0.454-0.011,0.712-0.022
		s0.525-0.024,0.804-0.04c0.278-0.014,0.551-0.033,0.818-0.057c0.266-0.023,0.517-0.049,0.751-0.074
		c0.234-0.027,0.434-0.055,0.598-0.084l-0.158,0.809c-0.27-0.012-0.579-0.019-0.927-0.021c-0.35-0.003-0.708-0.002-1.077,0.004
		V45.88z"/>
	<path d="M25.311,44.263c-0.117-0.006-0.258-0.012-0.422-0.018s-0.34-0.012-0.527-0.018s-0.381-0.012-0.58-0.018
		s-0.393-0.009-0.58-0.009c-0.164,0-0.371,0-0.62,0s-0.518,0.004-0.809,0.014c-0.289,0.008-0.587,0.018-0.892,0.025
		c-0.305,0.01-0.595,0.02-0.87,0.031s-0.523,0.023-0.742,0.035c-0.221,0.012-0.386,0.023-0.497,0.035
		c-0.105,0.006-0.222,0.015-0.347,0.026c-0.127,0.012-0.254,0.023-0.383,0.035s-0.257,0.023-0.383,0.035s-0.238,0.023-0.338,0.035
		l-0.352-0.87c0.129,0.018,0.271,0.034,0.426,0.049s0.312,0.029,0.471,0.043c0.158,0.016,0.314,0.027,0.471,0.035
		c0.154,0.01,0.297,0.014,0.426,0.014c0.141,0.006,0.325,0.009,0.554,0.009s0.479-0.001,0.751-0.005
		c0.273-0.002,0.557-0.008,0.854-0.018c0.295-0.008,0.58-0.016,0.852-0.021c0.273-0.006,0.523-0.014,0.752-0.021
		c0.229-0.01,0.413-0.017,0.554-0.022c0.193-0.006,0.394-0.018,0.603-0.035c0.207-0.018,0.415-0.036,0.623-0.058
		c0.208-0.02,0.41-0.042,0.607-0.065c0.195-0.023,0.376-0.047,0.54-0.07L25.311,44.263z M24.001,42.654
		c-0.352-0.018-0.735-0.026-1.151-0.026s-0.831,0.003-1.243,0.009c-0.414,0.006-0.807,0.017-1.178,0.031
		c-0.373,0.015-0.688,0.027-0.945,0.039c-0.24,0.012-0.41-0.05-0.51-0.185s-0.149-0.29-0.149-0.466v-1.31
		c0-0.111-0.011-0.203-0.03-0.276c-0.021-0.073-0.062-0.137-0.123-0.189c-0.062-0.053-0.148-0.098-0.26-0.137
		c-0.111-0.037-0.258-0.077-0.439-0.118l0.193-0.404c0.076,0.012,0.191,0.028,0.348,0.048c0.154,0.021,0.318,0.042,0.492,0.062
		c0.172,0.021,0.339,0.042,0.5,0.065s0.289,0.041,0.383,0.053c0,0.035-0.004,0.082-0.014,0.141
		c-0.008,0.059-0.018,0.123-0.025,0.193c-0.01,0.07-0.017,0.14-0.022,0.206c-0.006,0.068-0.009,0.128-0.009,0.181v1.283
		c0,0.188,0.073,0.284,0.22,0.29c0.217,0,0.501-0.007,0.853-0.021s0.722-0.035,1.111-0.062c0.39-0.025,0.773-0.057,1.152-0.092
		c0.377-0.035,0.701-0.073,0.971-0.114L24.001,42.654z M24.247,47.444c-0.352-0.023-0.74-0.038-1.164-0.044
		c-0.426-0.006-0.846-0.008-1.262-0.004c-0.416,0.002-0.812,0.01-1.191,0.021c-0.377,0.012-0.695,0.023-0.953,0.035
		c-0.24,0.012-0.408-0.035-0.506-0.141c-0.096-0.105-0.145-0.226-0.145-0.36v-0.993c0-0.123-0.006-0.221-0.018-0.295
		c-0.012-0.072-0.043-0.134-0.092-0.184c-0.051-0.05-0.128-0.093-0.233-0.128s-0.249-0.076-0.431-0.123l0.167-0.396
		c0.088,0.012,0.206,0.028,0.356,0.049c0.148,0.021,0.304,0.041,0.465,0.061c0.161,0.021,0.318,0.043,0.471,0.066
		s0.272,0.041,0.36,0.053c-0.006,0.07-0.017,0.18-0.03,0.33c-0.016,0.148-0.022,0.276-0.022,0.382v0.896
		c0,0.1,0.009,0.158,0.026,0.176s0.07,0.029,0.158,0.035c0.146,0,0.328-0.002,0.545-0.005s0.451-0.01,0.703-0.021
		s0.516-0.025,0.791-0.039c0.275-0.016,0.543-0.031,0.805-0.049c0.26-0.018,0.506-0.037,0.738-0.057
		c0.23-0.021,0.429-0.043,0.593-0.066L24.247,47.444z"/>
	<path d="M33.089,40.369c-0.176,0.451-0.412,0.882-0.707,1.292c-0.297,0.41-0.638,0.793-1.024,1.147s-0.808,0.676-1.261,0.967
		c-0.455,0.289-0.928,0.543-1.42,0.76l-0.246-0.334c0.352-0.164,0.7-0.372,1.046-0.624s0.668-0.527,0.967-0.826
		s0.563-0.613,0.796-0.944c0.23-0.331,0.408-0.658,0.531-0.98c-0.264,0-0.51,0.006-0.738,0.018s-0.401,0.023-0.519,0.035
		c-0.047,0.006-0.122,0.014-0.224,0.021c-0.104,0.01-0.216,0.02-0.339,0.031s-0.249,0.028-0.378,0.049s-0.243,0.045-0.343,0.074
		l-0.562-0.826c0.064,0.012,0.163,0.023,0.294,0.035c0.133,0.012,0.274,0.023,0.427,0.035s0.302,0.021,0.448,0.026
		s0.27,0.009,0.369,0.009c0.24,0,0.484-0.006,0.734-0.018c0.248-0.012,0.484-0.027,0.707-0.049c0.223-0.02,0.425-0.043,0.606-0.07
		c0.182-0.025,0.325-0.051,0.431-0.074L33.089,40.369z M31.516,45.607c0.305,0,0.622-0.007,0.954-0.021
		c0.33-0.015,0.654-0.032,0.971-0.053s0.615-0.045,0.896-0.07c0.281-0.027,0.521-0.052,0.721-0.075l-0.105,0.765
		c-0.281-0.018-0.573-0.029-0.875-0.035s-0.602-0.009-0.9-0.009s-0.589,0.005-0.87,0.013c-0.281,0.01-0.545,0.022-0.791,0.04v0.606
		c0,0.105,0.009,0.167,0.026,0.185s0.076,0.029,0.176,0.035c0.217,0.006,0.483,0.005,0.8-0.005c0.316-0.008,0.645-0.024,0.984-0.048
		s0.675-0.052,1.007-0.083c0.33-0.033,0.619-0.069,0.865-0.11l-0.105,0.791c-0.352-0.018-0.712-0.028-1.081-0.03
		c-0.369-0.004-0.731-0.004-1.085,0c-0.355,0.002-0.695,0.008-1.02,0.018c-0.326,0.008-0.617,0.016-0.875,0.021
		c-0.24,0.018-0.418-0.026-0.531-0.132c-0.115-0.106-0.172-0.25-0.172-0.432v-1.736c0-0.112-0.008-0.204-0.021-0.278
		c-0.016-0.073-0.049-0.136-0.102-0.188c-0.053-0.054-0.129-0.101-0.229-0.142s-0.237-0.085-0.413-0.132l0.202-0.379
		c0.252,0.041,0.531,0.073,0.84,0.097c0.307,0.023,0.626,0.038,0.957,0.044s0.662,0.003,0.994-0.009
		c0.33-0.012,0.646-0.026,0.949-0.044c0.301-0.018,0.578-0.04,0.83-0.065c0.252-0.027,0.463-0.055,0.633-0.084l-0.105,0.791
		c-0.709-0.041-1.345-0.06-1.907-0.057s-1.102,0.019-1.617,0.048V45.607z M35.005,42.382c0,0.105-0.004,0.229-0.014,0.369
		c-0.008,0.141-0.019,0.284-0.03,0.431s-0.025,0.284-0.04,0.413s-0.03,0.231-0.048,0.308l-0.782,0.088
		c-0.012-0.059-0.021-0.137-0.031-0.232c-0.008-0.098-0.016-0.199-0.021-0.309c-0.006-0.107-0.012-0.215-0.018-0.32
		s-0.009-0.199-0.009-0.281v-2.531c0-0.17-0.081-0.309-0.241-0.418c-0.162-0.107-0.436-0.212-0.822-0.312l0.149-0.387
		c0.146,0.018,0.314,0.041,0.505,0.07s0.379,0.062,0.562,0.097c0.186,0.035,0.361,0.067,0.527,0.097
		c0.168,0.029,0.304,0.053,0.409,0.07c-0.012,0.053-0.023,0.123-0.035,0.211s-0.022,0.176-0.03,0.264
		c-0.01,0.088-0.017,0.166-0.022,0.233s-0.009,0.104-0.009,0.109v1.318c0.123-0.012,0.261-0.026,0.413-0.044
		s0.306-0.036,0.462-0.058c0.154-0.02,0.304-0.042,0.447-0.065s0.274-0.044,0.392-0.062l-0.105,0.8
		c-0.088-0.006-0.198-0.01-0.329-0.013c-0.133-0.003-0.271-0.005-0.418-0.005s-0.295,0-0.443,0c-0.15,0-0.289,0-0.418,0V42.382z"/>
	<path d="M45.112,44.386c-0.117-0.006-0.257-0.012-0.417-0.018c-0.162-0.006-0.336-0.01-0.523-0.013s-0.381-0.008-0.58-0.014
		s-0.396-0.009-0.589-0.009c-0.158-0.006-0.362-0.008-0.61-0.005c-0.25,0.003-0.52,0.008-0.809,0.014
		c-0.291,0.006-0.59,0.014-0.896,0.021c-0.309,0.01-0.6,0.018-0.875,0.027c-0.275,0.008-0.523,0.019-0.742,0.03
		c-0.221,0.012-0.386,0.021-0.497,0.026c-0.105,0.006-0.222,0.015-0.347,0.026c-0.127,0.012-0.254,0.023-0.383,0.035
		s-0.257,0.025-0.383,0.04s-0.238,0.027-0.338,0.039l-0.352-0.879c0.264,0.029,0.562,0.058,0.896,0.084s0.633,0.048,0.896,0.066
		c0.141,0,0.325,0,0.554,0s0.479-0.003,0.751-0.01c0.273-0.006,0.557-0.012,0.854-0.018c0.295-0.006,0.58-0.014,0.852-0.021
		c0.273-0.01,0.523-0.017,0.752-0.022s0.413-0.012,0.554-0.018c0.193-0.006,0.396-0.018,0.606-0.035s0.42-0.036,0.629-0.058
		c0.207-0.02,0.408-0.04,0.602-0.061s0.372-0.043,0.536-0.066L45.112,44.386z M44.058,47.471c-0.357-0.018-0.747-0.031-1.169-0.039
		c-0.422-0.01-0.84-0.013-1.252-0.01c-0.414,0.003-0.808,0.01-1.183,0.018c-0.375,0.01-0.691,0.022-0.949,0.04
		c-0.24,0.018-0.409-0.028-0.505-0.136c-0.098-0.109-0.146-0.23-0.146-0.365v-0.905c0-0.123-0.006-0.221-0.018-0.294
		s-0.043-0.135-0.093-0.186c-0.05-0.049-0.127-0.092-0.232-0.127s-0.249-0.076-0.431-0.123l0.167-0.387
		c0.088,0.012,0.207,0.026,0.355,0.044c0.15,0.018,0.305,0.038,0.467,0.062c0.16,0.023,0.317,0.046,0.47,0.066
		s0.272,0.036,0.36,0.048c-0.006,0.035-0.012,0.082-0.018,0.141s-0.012,0.122-0.018,0.188c-0.006,0.068-0.011,0.136-0.014,0.203
		s-0.004,0.127-0.004,0.18v0.809c0,0.1,0.009,0.158,0.026,0.176s0.07,0.029,0.158,0.035c0.146,0,0.326-0.002,0.54-0.004
		c0.214-0.004,0.449-0.01,0.703-0.018c0.256-0.01,0.52-0.02,0.791-0.031c0.273-0.012,0.538-0.028,0.796-0.049
		s0.502-0.041,0.733-0.061c0.231-0.021,0.43-0.046,0.594-0.075L44.058,47.471z M41.605,39.877c0.252,0.041,0.483,0.109,0.694,0.207
		c0.211,0.096,0.392,0.214,0.54,0.352c0.15,0.138,0.266,0.293,0.348,0.465c0.082,0.174,0.123,0.356,0.123,0.55
		c0,0.229-0.056,0.442-0.167,0.642s-0.267,0.372-0.466,0.519s-0.436,0.261-0.707,0.343c-0.273,0.082-0.567,0.123-0.884,0.123
		s-0.606-0.041-0.87-0.123s-0.492-0.196-0.686-0.343s-0.345-0.319-0.453-0.519s-0.162-0.413-0.162-0.642
		c0-0.199,0.044-0.387,0.132-0.562s0.212-0.334,0.374-0.475c0.16-0.141,0.352-0.258,0.57-0.352c0.221-0.094,0.462-0.155,0.726-0.185
		c-0.012-0.082-0.043-0.146-0.093-0.193s-0.142-0.094-0.276-0.141l0.167-0.308c0.064,0.012,0.149,0.028,0.255,0.048
		c0.105,0.021,0.216,0.043,0.329,0.066c0.115,0.023,0.228,0.046,0.339,0.066s0.205,0.036,0.281,0.048
		c-0.012,0.047-0.029,0.107-0.053,0.181S41.623,39.795,41.605,39.877z M42.282,41.415c0-0.146-0.032-0.287-0.097-0.422
		s-0.149-0.252-0.255-0.352s-0.229-0.179-0.369-0.237s-0.287-0.088-0.439-0.088c-0.158,0-0.307,0.029-0.444,0.088
		s-0.259,0.138-0.364,0.237s-0.188,0.217-0.251,0.352c-0.061,0.135-0.092,0.275-0.092,0.422c0,0.164,0.031,0.313,0.092,0.448
		c0.062,0.135,0.144,0.249,0.246,0.343s0.225,0.167,0.365,0.22s0.29,0.079,0.448,0.079s0.308-0.026,0.448-0.079
		s0.264-0.126,0.369-0.22s0.189-0.208,0.25-0.343C42.252,41.729,42.282,41.579,42.282,41.415z"/>
	<path d="M54.561,41.714c0.064,0,0.123-0.001,0.176-0.005c0.053-0.002,0.1-0.007,0.141-0.013l-0.141,0.721
		c-0.205-0.012-0.468-0.022-0.787-0.03c-0.319-0.01-0.66-0.014-1.023-0.014v1.002c0.252-0.012,0.483-0.019,0.694-0.021
		s0.381-0.008,0.51-0.014c0.193-0.006,0.396-0.018,0.606-0.035s0.42-0.036,0.629-0.057c0.207-0.021,0.408-0.041,0.602-0.062
		c0.193-0.02,0.372-0.042,0.536-0.065l-0.141,0.844c-0.117-0.012-0.257-0.022-0.417-0.03c-0.162-0.01-0.336-0.015-0.523-0.018
		s-0.381-0.008-0.58-0.014s-0.396-0.009-0.589-0.009c-0.158,0-0.362,0.002-0.61,0.005c-0.25,0.003-0.52,0.007-0.809,0.013
		c-0.291,0.006-0.59,0.013-0.896,0.022c-0.309,0.008-0.6,0.018-0.875,0.025c-0.275,0.01-0.523,0.018-0.742,0.027
		c-0.221,0.008-0.386,0.016-0.497,0.021c-0.105,0.006-0.222,0.015-0.347,0.026c-0.127,0.012-0.254,0.023-0.383,0.035
		s-0.257,0.025-0.383,0.04s-0.238,0.027-0.338,0.039l-0.352-0.87c0.264,0.029,0.562,0.058,0.896,0.083
		c0.334,0.027,0.633,0.043,0.896,0.049c0.105,0.006,0.235,0.009,0.391,0.009s0.326,0,0.51,0c0.186,0,0.383,0,0.594,0s0.428,0,0.65,0
		v-1.037c-0.188,0-0.363,0.002-0.527,0.005s-0.319,0.004-0.466,0.004c-0.012,0.047-0.021,0.091-0.026,0.132
		s-0.015,0.079-0.026,0.114l-0.703,0.114c-0.029-0.117-0.058-0.259-0.083-0.427c-0.027-0.166-0.049-0.326-0.066-0.479l-0.141-1.204
		c-0.012-0.1-0.025-0.179-0.039-0.237c-0.016-0.059-0.042-0.108-0.08-0.149s-0.096-0.076-0.176-0.105
		c-0.078-0.029-0.183-0.064-0.312-0.105l0.167-0.396c0.387,0.053,0.81,0.088,1.27,0.105s0.926,0.023,1.398,0.018
		c0.471-0.006,0.936-0.021,1.393-0.044s0.879-0.053,1.266-0.088c-0.012,0.141-0.028,0.299-0.049,0.475s-0.042,0.356-0.065,0.54
		c-0.023,0.186-0.047,0.368-0.07,0.55S54.578,41.556,54.561,41.714z M54.587,46.636c0.064-0.012,0.123-0.019,0.176-0.022
		c0.053-0.002,0.103-0.007,0.149-0.013l-0.176,0.747c-0.193-0.018-0.436-0.029-0.725-0.035c-0.291-0.006-0.598-0.011-0.924-0.014
		c-0.324-0.003-0.653-0.001-0.984,0.005s-0.628,0.015-0.892,0.026c-0.006,0.035-0.011,0.077-0.013,0.127
		c-0.004,0.05-0.011,0.107-0.022,0.172l-0.721,0.123c-0.029-0.129-0.052-0.237-0.065-0.325c-0.016-0.088-0.027-0.167-0.035-0.237
		c-0.01-0.07-0.017-0.135-0.022-0.193s-0.015-0.126-0.026-0.202l-0.097-1.187c-0.006-0.105-0.013-0.19-0.022-0.255
		c-0.008-0.064-0.032-0.117-0.07-0.158s-0.096-0.076-0.176-0.105c-0.078-0.029-0.188-0.062-0.329-0.097l0.185-0.369
		c0.381,0.047,0.785,0.078,1.213,0.092c0.428,0.016,0.858,0.02,1.292,0.014s0.864-0.019,1.292-0.039s0.835-0.049,1.222-0.084
		c-0.012,0.141-0.026,0.296-0.044,0.466s-0.037,0.345-0.057,0.522c-0.021,0.18-0.042,0.358-0.062,0.537S54.61,46.478,54.587,46.636z
		 M53.708,40.308c-0.176-0.006-0.392-0.01-0.646-0.013c-0.256-0.003-0.515-0.002-0.778,0.004s-0.518,0.014-0.761,0.021
		c-0.243,0.01-0.44,0.02-0.593,0.031l0.079,1.318c0.006,0.047,0.009,0.085,0.009,0.114s0,0.059,0,0.088
		c0.193,0,0.401-0.003,0.624-0.009s0.448-0.014,0.677-0.021c0.229-0.01,0.457-0.018,0.686-0.027c0.229-0.008,0.448-0.019,0.659-0.03
		L53.708,40.308z M53.717,45.265c-0.176-0.006-0.375-0.01-0.598-0.013s-0.447-0.002-0.672,0.004
		c-0.227,0.006-0.444,0.013-0.655,0.021s-0.396,0.02-0.554,0.031v1.459c0.369-0.006,0.773-0.018,1.213-0.035
		s0.861-0.035,1.266-0.053V45.265z"/>
	<path d="M61.495,45.704c0,0.158-0.004,0.327-0.014,0.505c-0.008,0.18-0.019,0.356-0.03,0.532s-0.028,0.346-0.048,0.51
		c-0.021,0.164-0.04,0.308-0.058,0.431l-0.791,0.132c-0.012-0.1-0.021-0.226-0.026-0.378s-0.011-0.313-0.014-0.483
		s-0.004-0.339-0.004-0.505c0-0.168,0-0.315,0-0.444v-1.635c-0.223,0-0.439,0.003-0.65,0.009s-0.407,0.012-0.589,0.018
		s-0.345,0.014-0.487,0.021c-0.145,0.01-0.26,0.017-0.348,0.022c-0.111,0.006-0.231,0.015-0.36,0.026s-0.257,0.023-0.382,0.035
		c-0.127,0.012-0.251,0.025-0.374,0.039c-0.123,0.016-0.234,0.028-0.334,0.04l-0.352-0.87c0.129,0.018,0.271,0.032,0.427,0.044
		c0.154,0.012,0.312,0.025,0.475,0.04c0.16,0.015,0.318,0.027,0.475,0.039c0.154,0.012,0.294,0.021,0.417,0.026
		c0.141,0,0.322,0,0.545,0s0.466-0.003,0.729-0.009s0.537-0.012,0.822-0.018c0.283-0.006,0.558-0.014,0.821-0.021
		c0.264-0.01,0.505-0.017,0.726-0.022c0.219-0.006,0.399-0.012,0.54-0.018c0.193-0.006,0.396-0.018,0.606-0.035
		s0.42-0.036,0.629-0.058c0.207-0.02,0.408-0.04,0.602-0.061s0.369-0.043,0.527-0.066l-0.123,0.826
		c-0.117-0.006-0.257-0.012-0.418-0.018s-0.335-0.01-0.522-0.014c-0.188-0.002-0.381-0.007-0.58-0.013s-0.396-0.009-0.589-0.009
		c-0.152,0-0.333,0-0.541,0s-0.443,0.009-0.707,0.026V45.704z M63.104,42.083c0.07,0,0.132-0.001,0.185-0.005
		c0.053-0.002,0.1-0.007,0.141-0.013l-0.141,0.721c-0.199-0.012-0.457-0.021-0.773-0.026s-0.652-0.01-1.006-0.014
		c-0.355-0.002-0.71-0.002-1.064,0c-0.354,0.004-0.666,0.008-0.936,0.014c0,0.064-0.015,0.146-0.044,0.246l-0.703,0.097
		c-0.029-0.105-0.059-0.244-0.088-0.417s-0.05-0.336-0.062-0.488l-0.141-1.503c-0.012-0.1-0.023-0.181-0.035-0.241
		c-0.012-0.062-0.038-0.113-0.079-0.154s-0.1-0.076-0.176-0.105S58,40.132,57.865,40.097l0.167-0.396
		c0.387,0.053,0.81,0.088,1.27,0.105s0.926,0.023,1.398,0.018c0.471-0.006,0.936-0.021,1.393-0.044s0.879-0.053,1.266-0.088
		c-0.018,0.146-0.037,0.319-0.057,0.519c-0.021,0.199-0.043,0.408-0.066,0.629c-0.023,0.219-0.047,0.438-0.07,0.654
		S63.121,41.907,63.104,42.083z M62.26,40.36c-0.176-0.006-0.392-0.01-0.646-0.013c-0.256-0.003-0.515-0.002-0.778,0.004
		s-0.518,0.014-0.761,0.021c-0.243,0.01-0.44,0.02-0.593,0.031l0.079,1.661c0,0.029,0,0.058,0,0.083
		c0,0.027,0.003,0.055,0.009,0.084c0.193-0.006,0.401-0.012,0.624-0.018s0.448-0.014,0.677-0.021
		c0.229-0.01,0.457-0.017,0.686-0.022s0.448-0.012,0.659-0.018L62.26,40.36z"/>
	<path d="M69.309,40.844l0.299,0.316c-0.17,0.521-0.369,1.001-0.598,1.438s-0.496,0.847-0.805,1.23
		c-0.307,0.384-0.656,0.744-1.045,1.08c-0.391,0.338-0.828,0.667-1.314,0.989l-0.316-0.29c0.387-0.281,0.734-0.584,1.041-0.91
		c0.309-0.324,0.58-0.66,0.818-1.006c0.236-0.346,0.438-0.699,0.602-1.059c0.164-0.361,0.296-0.714,0.396-1.06
		c-0.117,0.006-0.269,0.011-0.452,0.013c-0.186,0.004-0.362,0.011-0.532,0.022c-0.064,0.006-0.146,0.015-0.241,0.026
		c-0.098,0.012-0.203,0.025-0.316,0.039c-0.115,0.016-0.235,0.03-0.361,0.045s-0.247,0.03-0.364,0.048l-0.501-0.835
		c0.24,0.041,0.488,0.076,0.742,0.105c0.256,0.029,0.474,0.044,0.655,0.044c0.422,0.006,0.81-0.007,1.165-0.04
		C68.533,41.01,68.91,40.943,69.309,40.844z M70.144,43.639c-0.211,0.012-0.421,0.031-0.628,0.057
		c-0.209,0.027-0.438,0.063-0.69,0.11l-0.413-0.826c0.252,0.059,0.472,0.099,0.659,0.118c0.188,0.021,0.352,0.028,0.492,0.022
		c0.1-0.006,0.2-0.01,0.304-0.013c0.102-0.003,0.194-0.011,0.276-0.022v-2.355c0-0.088-0.013-0.165-0.04-0.233
		c-0.025-0.066-0.071-0.128-0.136-0.184s-0.157-0.107-0.276-0.154c-0.121-0.047-0.271-0.094-0.453-0.141l0.193-0.413
		c0.322,0.041,0.636,0.09,0.94,0.146s0.589,0.112,0.853,0.171c-0.012,0.064-0.025,0.136-0.039,0.216
		c-0.016,0.078-0.027,0.158-0.035,0.236c-0.01,0.08-0.017,0.151-0.022,0.216s-0.009,0.111-0.009,0.141v4.131
		c0,0.176-0.004,0.38-0.014,0.61c-0.008,0.232-0.021,0.465-0.039,0.699s-0.037,0.46-0.057,0.677
		c-0.021,0.217-0.043,0.401-0.066,0.554l-0.729,0.105c-0.012-0.123-0.021-0.267-0.026-0.431s-0.014-0.336-0.021-0.515
		c-0.01-0.178-0.016-0.358-0.018-0.54c-0.004-0.182-0.005-0.354-0.005-0.519V43.639z M70.706,39.64l0.193-0.431
		c0.328,0.047,0.663,0.104,1.007,0.172c0.342,0.067,0.646,0.13,0.909,0.188c-0.018,0.064-0.032,0.135-0.044,0.211
		s-0.023,0.152-0.035,0.229s-0.021,0.146-0.026,0.206c-0.006,0.062-0.009,0.107-0.009,0.137v4.825c0,0.176-0.004,0.378-0.014,0.606
		c-0.008,0.229-0.021,0.46-0.035,0.694s-0.032,0.46-0.053,0.677s-0.042,0.404-0.065,0.562l-0.747,0.105
		c-0.012-0.129-0.021-0.275-0.031-0.439c-0.008-0.164-0.016-0.337-0.021-0.519s-0.012-0.363-0.018-0.545s-0.009-0.354-0.009-0.519
		v-5.44c0-0.088-0.015-0.165-0.044-0.233c-0.029-0.066-0.082-0.128-0.158-0.184s-0.179-0.107-0.308-0.154
		S70.905,39.692,70.706,39.64z"/>
	<path d="M80.146,44.878c-0.346,0.07-0.709,0.141-1.09,0.211s-0.756,0.135-1.125,0.193s-0.723,0.108-1.059,0.149
		c-0.338,0.041-0.641,0.07-0.91,0.088c-0.053,0.006-0.137,0.015-0.25,0.026c-0.115,0.012-0.241,0.025-0.379,0.04
		s-0.275,0.03-0.412,0.048c-0.139,0.018-0.257,0.035-0.356,0.053l-0.519-0.87c0.094,0.012,0.212,0.025,0.355,0.039
		c0.144,0.016,0.291,0.027,0.439,0.035c0.15,0.01,0.292,0.016,0.427,0.018c0.135,0.004,0.237,0.005,0.308,0.005
		c0.398-0.018,0.8-0.041,1.204-0.07s0.803-0.065,1.195-0.11c0.393-0.043,0.771-0.093,1.138-0.148s0.711-0.119,1.033-0.189v-4.078
		c0-0.17-0.085-0.309-0.255-0.418c-0.17-0.107-0.451-0.212-0.844-0.312L79.24,39.2c0.141,0.018,0.302,0.041,0.483,0.07
		s0.365,0.062,0.549,0.097c0.186,0.035,0.362,0.067,0.532,0.097s0.313,0.053,0.431,0.07c-0.012,0.053-0.023,0.123-0.035,0.211
		s-0.021,0.176-0.031,0.264c-0.008,0.088-0.016,0.166-0.021,0.233s-0.009,0.104-0.009,0.109v4.825c0,0.182-0.005,0.392-0.013,0.628
		c-0.01,0.238-0.022,0.477-0.04,0.717s-0.037,0.469-0.058,0.686s-0.042,0.39-0.065,0.519l-0.729,0.105
		c-0.012-0.094-0.021-0.222-0.031-0.382c-0.008-0.162-0.018-0.336-0.025-0.523c-0.01-0.188-0.017-0.378-0.022-0.571
		s-0.009-0.375-0.009-0.545V44.878z M77.597,40.466c0.24,0.047,0.461,0.122,0.664,0.224c0.201,0.104,0.376,0.228,0.522,0.374
		s0.261,0.312,0.343,0.497c0.082,0.184,0.123,0.376,0.123,0.575c0,0.234-0.055,0.454-0.162,0.659
		c-0.109,0.205-0.26,0.384-0.453,0.536s-0.422,0.272-0.686,0.36s-0.551,0.132-0.861,0.132c-0.299,0-0.577-0.044-0.835-0.132
		s-0.48-0.208-0.668-0.36S75.25,43,75.145,42.795s-0.158-0.425-0.158-0.659c0-0.211,0.042-0.413,0.128-0.606
		c0.084-0.193,0.206-0.365,0.364-0.514c0.158-0.15,0.346-0.274,0.562-0.374s0.457-0.164,0.721-0.193
		c-0.018-0.082-0.05-0.144-0.097-0.185s-0.138-0.085-0.272-0.132l0.176-0.325c0.059,0.012,0.139,0.028,0.241,0.049
		s0.211,0.042,0.326,0.065c0.113,0.023,0.225,0.046,0.334,0.065c0.107,0.021,0.197,0.037,0.268,0.049
		c-0.018,0.059-0.041,0.125-0.07,0.197C77.638,40.307,77.614,40.384,77.597,40.466z M78.194,42.101c0-0.164-0.029-0.317-0.088-0.462
		c-0.059-0.143-0.138-0.268-0.237-0.373s-0.216-0.188-0.347-0.246c-0.133-0.059-0.271-0.088-0.418-0.088
		c-0.141,0-0.277,0.029-0.408,0.088c-0.133,0.059-0.25,0.141-0.352,0.246c-0.104,0.105-0.184,0.23-0.242,0.373
		c-0.059,0.145-0.088,0.298-0.088,0.462c0,0.17,0.029,0.324,0.088,0.462s0.139,0.256,0.242,0.355c0.102,0.1,0.219,0.178,0.352,0.232
		c0.131,0.057,0.268,0.084,0.408,0.084c0.146,0,0.287-0.027,0.422-0.084c0.135-0.055,0.25-0.133,0.348-0.232
		c0.096-0.1,0.174-0.218,0.232-0.355S78.194,42.271,78.194,42.101z"/>
	<path d="M3.211,80.308c0.252,0.047,0.481,0.125,0.689,0.232c0.208,0.109,0.389,0.241,0.541,0.396s0.271,0.331,0.355,0.527
		s0.128,0.408,0.128,0.637c0,0.135-0.013,0.26-0.04,0.373c-0.025,0.115-0.065,0.23-0.118,0.348c0.158,0.012,0.309,0.023,0.452,0.035
		s0.257,0.015,0.339,0.009s0.185-0.01,0.308-0.013s0.246-0.005,0.369-0.005v-1.723c-0.223,0.006-0.457,0.023-0.703,0.053
		s-0.498,0.082-0.756,0.158l-0.475-0.809c0.059,0.012,0.133,0.023,0.225,0.035c0.09,0.012,0.188,0.023,0.294,0.035
		s0.211,0.021,0.316,0.026s0.202,0.009,0.29,0.009c0.082-0.006,0.2-0.01,0.355-0.013s0.307-0.005,0.453-0.005v-1.099
		c0-0.17-0.087-0.309-0.26-0.418c-0.173-0.107-0.452-0.212-0.839-0.312L5.338,78.4c0.135,0.018,0.293,0.041,0.475,0.07
		s0.366,0.062,0.554,0.097s0.367,0.067,0.54,0.097s0.315,0.053,0.427,0.07c-0.012,0.053-0.023,0.123-0.035,0.211
		s-0.022,0.176-0.03,0.264c-0.01,0.088-0.017,0.166-0.022,0.233s-0.009,0.104-0.009,0.109v4.825c0,0.182-0.004,0.392-0.014,0.628
		c-0.008,0.238-0.021,0.477-0.039,0.717s-0.037,0.469-0.057,0.686c-0.021,0.217-0.043,0.39-0.066,0.519l-0.729,0.105
		c-0.018-0.094-0.032-0.222-0.044-0.382c-0.012-0.162-0.021-0.336-0.031-0.523c-0.008-0.188-0.015-0.378-0.018-0.571
		S6.234,85.18,6.234,85.01v-1.67c-0.229,0.012-0.478,0.034-0.747,0.065c-0.27,0.033-0.542,0.081-0.817,0.146l-0.167-0.334
		c-0.188,0.223-0.434,0.399-0.738,0.532c-0.305,0.131-0.642,0.197-1.011,0.197c-0.322,0-0.618-0.047-0.888-0.141
		s-0.501-0.223-0.694-0.387s-0.345-0.358-0.453-0.584s-0.162-0.471-0.162-0.734c0-0.234,0.045-0.454,0.137-0.659
		c0.09-0.205,0.218-0.388,0.382-0.55c0.164-0.16,0.36-0.292,0.589-0.395s0.478-0.169,0.747-0.198
		c0.006-0.094-0.017-0.167-0.065-0.22c-0.051-0.053-0.148-0.103-0.295-0.149l0.141-0.334c0.07,0.018,0.156,0.038,0.26,0.062
		c0.102,0.023,0.209,0.047,0.32,0.07s0.218,0.046,0.32,0.066s0.187,0.039,0.251,0.057c-0.023,0.047-0.046,0.113-0.065,0.197
		C3.256,80.134,3.234,80.22,3.211,80.308z M3.914,82.074c0-0.182-0.031-0.35-0.092-0.505c-0.062-0.155-0.145-0.291-0.246-0.404
		c-0.104-0.115-0.224-0.205-0.361-0.273c-0.138-0.066-0.285-0.101-0.443-0.101s-0.308,0.034-0.448,0.101
		c-0.141,0.068-0.267,0.158-0.378,0.273c-0.111,0.113-0.199,0.249-0.264,0.404s-0.097,0.323-0.097,0.505
		c0,0.188,0.032,0.357,0.097,0.51s0.152,0.283,0.264,0.392s0.237,0.193,0.378,0.254c0.141,0.062,0.29,0.093,0.448,0.093
		s0.306-0.03,0.443-0.093c0.138-0.061,0.26-0.146,0.365-0.254s0.188-0.239,0.246-0.392S3.914,82.262,3.914,82.074z"/>
	<path d="M14.224,83.841c0.229,0.035,0.437,0.1,0.624,0.193s0.35,0.208,0.487,0.343s0.243,0.286,0.316,0.452
		c0.073,0.168,0.11,0.348,0.11,0.541c0,0.217-0.052,0.419-0.153,0.606c-0.104,0.188-0.244,0.352-0.422,0.492
		c-0.18,0.141-0.391,0.251-0.633,0.329c-0.244,0.08-0.509,0.119-0.796,0.119c-0.293,0-0.562-0.039-0.804-0.119
		c-0.244-0.078-0.453-0.188-0.629-0.329s-0.313-0.305-0.413-0.492s-0.149-0.39-0.149-0.606c0-0.193,0.039-0.376,0.119-0.549
		c0.078-0.173,0.188-0.327,0.329-0.462s0.309-0.249,0.505-0.343s0.415-0.155,0.655-0.185c-0.006-0.07-0.037-0.124-0.093-0.163
		c-0.056-0.037-0.142-0.077-0.259-0.118l0.149-0.264c-0.281-0.287-0.562-0.574-0.84-0.861s-0.558-0.56-0.839-0.817
		c-0.352,0.387-0.74,0.735-1.165,1.046S9.442,83.267,8.95,83.56l-0.237-0.325c0.293-0.199,0.585-0.428,0.874-0.686
		c0.291-0.258,0.559-0.533,0.805-0.826s0.46-0.593,0.642-0.901c0.182-0.307,0.316-0.607,0.404-0.9
		c0.018-0.059,0.024-0.106,0.022-0.145c-0.004-0.038-0.01-0.066-0.018-0.084c-0.01-0.018-0.017-0.027-0.022-0.031
		c-0.006-0.002-0.006-0.004,0-0.004c-0.047-0.041-0.123-0.085-0.229-0.132s-0.211-0.1-0.316-0.158l0.229-0.325
		c0.123,0.029,0.255,0.066,0.396,0.109c0.141,0.045,0.284,0.088,0.431,0.133c0.146,0.043,0.288,0.089,0.427,0.136
		c0.137,0.047,0.265,0.088,0.382,0.123c-0.105,0.316-0.233,0.608-0.382,0.874c-0.15,0.268-0.318,0.515-0.506,0.743
		c0.293,0.246,0.613,0.495,0.963,0.747c0.348,0.252,0.719,0.498,1.111,0.738l-0.668,0.589c0.064,0.012,0.145,0.028,0.242,0.048
		c0.096,0.021,0.195,0.043,0.299,0.066c0.102,0.023,0.2,0.046,0.294,0.066s0.173,0.039,0.237,0.057
		c-0.023,0.082-0.046,0.151-0.066,0.207S14.229,83.788,14.224,83.841z M14.786,81.274c-0.17,0.018-0.343,0.034-0.519,0.049
		s-0.346,0.029-0.51,0.043c-0.164,0.016-0.318,0.031-0.462,0.049s-0.265,0.035-0.364,0.053l-0.378-0.782
		c0.088,0.006,0.188,0.015,0.299,0.026s0.227,0.021,0.348,0.031c0.119,0.008,0.235,0.016,0.347,0.021s0.211,0.009,0.299,0.009
		c0.111-0.006,0.249-0.01,0.413-0.013s0.34-0.011,0.527-0.022v-1.23c0-0.17-0.087-0.309-0.26-0.417s-0.452-0.213-0.839-0.312
		l0.202-0.387c0.135,0.018,0.293,0.041,0.475,0.07s0.366,0.062,0.554,0.097s0.367,0.067,0.54,0.097s0.315,0.053,0.427,0.07
		c-0.012,0.053-0.023,0.123-0.035,0.211s-0.022,0.176-0.03,0.264c-0.01,0.088-0.017,0.166-0.022,0.232
		c-0.006,0.068-0.009,0.104-0.009,0.11v2.725c0,0.105-0.006,0.23-0.018,0.374s-0.026,0.288-0.044,0.435s-0.035,0.283-0.053,0.409
		s-0.035,0.227-0.053,0.303l-0.747,0.123c-0.012-0.064-0.023-0.146-0.035-0.246s-0.021-0.203-0.031-0.312
		c-0.008-0.107-0.015-0.215-0.018-0.32s-0.004-0.199-0.004-0.281V81.274z M14.716,85.309c0-0.146-0.026-0.281-0.079-0.404
		s-0.125-0.229-0.216-0.321c-0.091-0.09-0.194-0.162-0.312-0.215s-0.237-0.079-0.36-0.079s-0.243,0.026-0.36,0.079
		s-0.222,0.125-0.312,0.215c-0.092,0.092-0.165,0.198-0.221,0.321s-0.083,0.258-0.083,0.404c0,0.152,0.027,0.29,0.083,0.413
		s0.129,0.231,0.221,0.325c0.09,0.094,0.194,0.165,0.312,0.216c0.117,0.049,0.237,0.074,0.36,0.074c0.129,0,0.252-0.025,0.369-0.074
		c0.117-0.051,0.22-0.122,0.308-0.216s0.158-0.202,0.211-0.325S14.716,85.461,14.716,85.309z"/>
	<path d="M25.21,85.511c-0.117-0.006-0.257-0.012-0.417-0.018c-0.162-0.006-0.338-0.01-0.527-0.013
		c-0.191-0.003-0.387-0.006-0.59-0.009c-0.201-0.003-0.399-0.004-0.593-0.004c-0.158,0-0.354,0.001-0.585,0.004
		s-0.48,0.009-0.746,0.018c-0.268,0.009-0.541,0.018-0.822,0.025c-0.281,0.01-0.548,0.018-0.8,0.027
		c-0.252,0.008-0.48,0.019-0.686,0.03s-0.363,0.021-0.475,0.026c-0.223,0.012-0.469,0.029-0.738,0.053s-0.513,0.05-0.729,0.079
		l-0.325-0.879c0.129,0.018,0.269,0.035,0.417,0.053c0.15,0.018,0.304,0.032,0.462,0.044s0.314,0.021,0.47,0.03
		s0.301,0.017,0.436,0.022c0.146,0.005,0.326,0.008,0.541,0.008c0.213,0,0.446-0.001,0.698-0.004s0.511-0.009,0.778-0.018
		c0.266-0.008,0.523-0.016,0.773-0.021c0.248-0.006,0.479-0.014,0.689-0.021c0.211-0.01,0.387-0.017,0.527-0.022
		c0.193-0.012,0.396-0.026,0.606-0.044s0.42-0.035,0.628-0.053s0.409-0.036,0.603-0.057s0.369-0.043,0.527-0.066L25.21,85.511z
		 M21.782,79.587c0.27,0.047,0.516,0.127,0.738,0.242c0.223,0.113,0.414,0.253,0.575,0.417s0.286,0.349,0.374,0.554
		s0.132,0.419,0.132,0.642c0,0.27-0.059,0.521-0.176,0.751c-0.117,0.232-0.281,0.433-0.492,0.603s-0.459,0.304-0.742,0.399
		c-0.285,0.098-0.594,0.146-0.928,0.146c-0.328,0-0.633-0.048-0.914-0.146c-0.281-0.096-0.523-0.229-0.725-0.399
		c-0.203-0.17-0.361-0.37-0.475-0.603c-0.115-0.23-0.172-0.481-0.172-0.751c0-0.234,0.049-0.457,0.145-0.668
		c0.098-0.211,0.231-0.399,0.404-0.567c0.173-0.166,0.377-0.306,0.611-0.417s0.492-0.182,0.773-0.211
		c-0.006-0.082-0.034-0.146-0.084-0.193s-0.156-0.094-0.32-0.141l0.229-0.325c0.059,0.012,0.139,0.028,0.242,0.049
		c0.102,0.021,0.209,0.042,0.32,0.065s0.22,0.047,0.325,0.07s0.196,0.044,0.272,0.062C21.85,79.271,21.812,79.411,21.782,79.587z
		 M22.538,81.424c0-0.193-0.034-0.37-0.101-0.532c-0.068-0.16-0.158-0.301-0.273-0.422c-0.113-0.119-0.247-0.213-0.399-0.281
		c-0.152-0.066-0.313-0.101-0.483-0.101s-0.33,0.034-0.479,0.101c-0.15,0.068-0.28,0.162-0.392,0.281
		c-0.111,0.121-0.201,0.262-0.269,0.422c-0.067,0.162-0.101,0.339-0.101,0.532s0.033,0.374,0.101,0.54
		c0.067,0.168,0.157,0.31,0.269,0.427s0.241,0.21,0.392,0.276c0.148,0.068,0.309,0.102,0.479,0.102c0.176,0,0.34-0.033,0.492-0.102
		c0.152-0.066,0.285-0.159,0.4-0.276c0.113-0.117,0.203-0.259,0.268-0.427C22.506,81.798,22.538,81.617,22.538,81.424z"/>
	<path d="M30.527,85.08c0.211-0.012,0.401-0.021,0.571-0.026s0.311-0.012,0.422-0.018c0.193-0.006,0.396-0.018,0.606-0.035
		s0.42-0.038,0.628-0.062s0.409-0.047,0.603-0.07s0.369-0.044,0.527-0.062l-0.123,0.826c-0.117-0.006-0.257-0.012-0.417-0.018
		c-0.162-0.006-0.338-0.01-0.527-0.014c-0.191-0.002-0.387-0.005-0.59-0.008c-0.201-0.003-0.399-0.005-0.593-0.005
		c-0.158,0-0.354,0.003-0.585,0.009s-0.48,0.012-0.746,0.018c-0.268,0.006-0.541,0.015-0.822,0.026s-0.548,0.022-0.8,0.03
		c-0.252,0.01-0.48,0.018-0.686,0.027c-0.205,0.008-0.363,0.016-0.475,0.021c-0.223,0.012-0.469,0.032-0.738,0.062
		s-0.513,0.05-0.729,0.062l-0.325-0.879c0.258,0.035,0.551,0.064,0.879,0.088s0.63,0.041,0.905,0.053
		c0.217,0.012,0.507,0.017,0.87,0.014s0.747-0.011,1.151-0.022v-1.371c-0.316,0.006-0.611,0.012-0.883,0.018
		c-0.273,0.006-0.512,0.012-0.717,0.018c-0.229,0.018-0.39-0.027-0.483-0.136s-0.141-0.239-0.141-0.392V82.18
		c0-0.105-0.008-0.19-0.022-0.255s-0.043-0.12-0.088-0.167c-0.043-0.047-0.106-0.088-0.188-0.123s-0.193-0.076-0.334-0.123
		l0.193-0.308c0.281,0.029,0.603,0.05,0.962,0.062c0.361,0.012,0.732,0.018,1.117,0.018c0.383,0,0.767-0.005,1.15-0.013
		c0.384-0.01,0.743-0.02,1.077-0.031l0.053-1.327c-0.141-0.006-0.331-0.007-0.571-0.005c-0.24,0.004-0.494,0.008-0.76,0.014
		c-0.268,0.006-0.523,0.015-0.77,0.026s-0.442,0.023-0.589,0.035c-0.064,0.006-0.151,0.013-0.259,0.022
		c-0.109,0.008-0.227,0.021-0.352,0.035c-0.127,0.015-0.254,0.029-0.383,0.043c-0.129,0.016-0.249,0.031-0.36,0.049l-0.439-0.8
		c0.053,0.012,0.139,0.026,0.259,0.044s0.251,0.034,0.392,0.049s0.279,0.027,0.417,0.039s0.251,0.018,0.339,0.018
		c0.146,0,0.328,0,0.545,0s0.452-0.003,0.708-0.009c0.254-0.006,0.521-0.01,0.799-0.013s0.551-0.011,0.818-0.022
		c0.266-0.012,0.521-0.023,0.764-0.035s0.456-0.026,0.638-0.044c-0.023,0.059-0.053,0.161-0.088,0.308s-0.059,0.275-0.07,0.387
		l-0.158,1.107c0.117-0.006,0.22-0.015,0.308-0.026l-0.07,0.659c-0.211-0.012-0.443-0.021-0.699-0.026
		c-0.254-0.006-0.516-0.009-0.781-0.009c-0.268,0-0.531,0.002-0.791,0.005c-0.262,0.003-0.506,0.007-0.734,0.013
		s-0.431,0.012-0.606,0.018s-0.311,0.012-0.404,0.018c0,0.047-0.003,0.09-0.009,0.128s-0.009,0.08-0.009,0.127v0.976
		c0,0.082,0.005,0.128,0.013,0.136c0.01,0.01,0.058,0.017,0.146,0.022c0.141,0.006,0.319,0.008,0.536,0.005s0.454-0.011,0.712-0.022
		s0.525-0.024,0.804-0.04c0.278-0.014,0.551-0.033,0.818-0.057c0.266-0.023,0.517-0.049,0.751-0.074
		c0.234-0.027,0.434-0.055,0.598-0.084l-0.158,0.809c-0.27-0.012-0.579-0.019-0.927-0.021c-0.35-0.003-0.708-0.002-1.077,0.004
		V85.08z"/>
	<path d="M42.12,82.479c0.059-0.223,0.115-0.458,0.172-0.708c0.055-0.248,0.106-0.497,0.153-0.746s0.086-0.491,0.118-0.726
		s0.058-0.448,0.075-0.642c-0.393,0-0.758,0-1.095,0s-0.671,0.008-1.002,0.021c-0.331,0.016-0.666,0.042-1.006,0.08
		s-0.709,0.095-1.107,0.171c-0.064-0.135-0.135-0.272-0.211-0.413s-0.146-0.278-0.211-0.413c0.105,0.012,0.229,0.025,0.373,0.04
		s0.289,0.027,0.436,0.039s0.285,0.021,0.418,0.026c0.131,0.006,0.241,0.009,0.329,0.009c0.311,0,0.646-0.004,1.007-0.014
		c0.359-0.008,0.719-0.022,1.076-0.043s0.703-0.046,1.037-0.075s0.63-0.064,0.888-0.105c0.047,0.041,0.094,0.085,0.141,0.132
		s0.094,0.091,0.141,0.132c-0.053,0.252-0.113,0.516-0.181,0.791s-0.141,0.553-0.219,0.831c-0.08,0.278-0.162,0.552-0.246,0.821
		c-0.086,0.27-0.172,0.524-0.26,0.765c0.164-0.006,0.344-0.016,0.541-0.031c0.195-0.014,0.394-0.031,0.593-0.053
		c0.199-0.02,0.394-0.042,0.585-0.065c0.189-0.023,0.364-0.05,0.522-0.079c-0.018,0.141-0.035,0.281-0.053,0.422
		s-0.038,0.281-0.062,0.422c-0.117-0.006-0.258-0.012-0.422-0.018s-0.34-0.012-0.527-0.018s-0.381-0.012-0.58-0.018
		s-0.393-0.009-0.58-0.009c-0.146,0-0.331,0.002-0.554,0.005s-0.466,0.01-0.729,0.021v1.872c0,0.158-0.004,0.327-0.014,0.505
		c-0.008,0.18-0.019,0.356-0.03,0.532s-0.026,0.344-0.044,0.505s-0.038,0.304-0.062,0.427c-0.135,0.029-0.267,0.053-0.396,0.07
		s-0.261,0.041-0.396,0.07c-0.006-0.1-0.012-0.226-0.018-0.378s-0.011-0.313-0.013-0.483c-0.004-0.17-0.007-0.339-0.01-0.505
		c-0.003-0.168-0.004-0.315-0.004-0.444v-2.145c-0.545,0.018-0.988,0.032-1.332,0.044c-0.342,0.012-0.633,0.025-0.869,0.039
		c-0.238,0.016-0.452,0.031-0.643,0.049s-0.405,0.044-0.646,0.079c-0.064-0.146-0.126-0.291-0.185-0.435s-0.117-0.289-0.176-0.436
		c0.199,0.023,0.405,0.044,0.619,0.062s0.424,0.032,0.629,0.044s0.401,0.021,0.589,0.026s0.36,0.009,0.519,0.009
		c0.205,0,0.434-0.001,0.686-0.004s0.507-0.008,0.765-0.014s0.515-0.014,0.769-0.021C41.677,82.491,41.909,82.484,42.12,82.479z"/>
	<path d="M51.129,83.841c0.229,0.035,0.437,0.1,0.624,0.193s0.35,0.208,0.487,0.343s0.243,0.286,0.316,0.452
		c0.073,0.168,0.11,0.348,0.11,0.541c0,0.217-0.052,0.419-0.153,0.606c-0.104,0.188-0.244,0.352-0.422,0.492
		c-0.18,0.141-0.391,0.251-0.633,0.329c-0.244,0.08-0.509,0.119-0.796,0.119c-0.293,0-0.562-0.039-0.804-0.119
		c-0.244-0.078-0.453-0.188-0.629-0.329s-0.313-0.305-0.413-0.492s-0.149-0.39-0.149-0.606c0-0.193,0.039-0.376,0.119-0.549
		c0.078-0.173,0.188-0.327,0.329-0.462s0.309-0.249,0.505-0.343s0.415-0.155,0.655-0.185c-0.006-0.07-0.037-0.124-0.093-0.163
		c-0.056-0.037-0.142-0.077-0.259-0.118l0.149-0.264c-0.281-0.287-0.562-0.574-0.84-0.861s-0.558-0.56-0.839-0.817
		c-0.352,0.387-0.74,0.735-1.165,1.046s-0.883,0.612-1.375,0.905l-0.237-0.325c0.293-0.199,0.585-0.428,0.874-0.686
		c0.291-0.258,0.559-0.533,0.805-0.826s0.46-0.593,0.642-0.901c0.182-0.307,0.316-0.607,0.404-0.9
		c0.018-0.059,0.024-0.106,0.022-0.145c-0.004-0.038-0.01-0.066-0.018-0.084c-0.01-0.018-0.017-0.027-0.022-0.031
		c-0.006-0.002-0.006-0.004,0-0.004c-0.047-0.041-0.123-0.085-0.229-0.132s-0.211-0.1-0.316-0.158l0.229-0.325
		c0.123,0.029,0.255,0.066,0.396,0.109c0.141,0.045,0.284,0.088,0.431,0.133c0.146,0.043,0.288,0.089,0.427,0.136
		c0.137,0.047,0.265,0.088,0.382,0.123c-0.105,0.316-0.233,0.608-0.382,0.874c-0.15,0.268-0.318,0.515-0.506,0.743
		c0.293,0.246,0.613,0.495,0.963,0.747c0.348,0.252,0.719,0.498,1.111,0.738l-0.668,0.589c0.064,0.012,0.145,0.028,0.242,0.048
		c0.096,0.021,0.195,0.043,0.299,0.066c0.102,0.023,0.2,0.046,0.294,0.066s0.173,0.039,0.237,0.057
		c-0.023,0.082-0.046,0.151-0.066,0.207S51.135,83.788,51.129,83.841z M51.691,81.274c-0.17,0.018-0.343,0.034-0.519,0.049
		s-0.346,0.029-0.51,0.043c-0.164,0.016-0.318,0.031-0.462,0.049s-0.265,0.035-0.364,0.053l-0.378-0.782
		c0.088,0.006,0.188,0.015,0.299,0.026s0.227,0.021,0.348,0.031c0.119,0.008,0.235,0.016,0.347,0.021s0.211,0.009,0.299,0.009
		c0.111-0.006,0.249-0.01,0.413-0.013s0.34-0.011,0.527-0.022v-1.23c0-0.17-0.087-0.309-0.26-0.417s-0.452-0.213-0.839-0.312
		l0.202-0.387c0.135,0.018,0.293,0.041,0.475,0.07s0.366,0.062,0.554,0.097s0.367,0.067,0.54,0.097s0.315,0.053,0.427,0.07
		c-0.012,0.053-0.023,0.123-0.035,0.211s-0.022,0.176-0.03,0.264c-0.01,0.088-0.017,0.166-0.022,0.232
		c-0.006,0.068-0.009,0.104-0.009,0.11v2.725c0,0.105-0.006,0.23-0.018,0.374s-0.026,0.288-0.044,0.435s-0.035,0.283-0.053,0.409
		s-0.035,0.227-0.053,0.303l-0.747,0.123c-0.012-0.064-0.023-0.146-0.035-0.246s-0.021-0.203-0.031-0.312
		c-0.008-0.107-0.015-0.215-0.018-0.32s-0.004-0.199-0.004-0.281V81.274z M51.621,85.309c0-0.146-0.026-0.281-0.079-0.404
		s-0.125-0.229-0.216-0.321c-0.091-0.09-0.194-0.162-0.312-0.215s-0.237-0.079-0.36-0.079s-0.243,0.026-0.36,0.079
		s-0.222,0.125-0.312,0.215c-0.092,0.092-0.165,0.198-0.221,0.321s-0.083,0.258-0.083,0.404c0,0.152,0.027,0.29,0.083,0.413
		s0.129,0.231,0.221,0.325c0.09,0.094,0.194,0.165,0.312,0.216c0.117,0.049,0.237,0.074,0.36,0.074c0.129,0,0.252-0.025,0.369-0.074
		c0.117-0.051,0.22-0.122,0.308-0.216s0.158-0.202,0.211-0.325S51.621,85.461,51.621,85.309z"/>
	<path d="M57.044,82.224c-0.164,0.006-0.319,0.009-0.466,0.009s-0.287,0.006-0.422,0.018c-0.24,0.018-0.419-0.036-0.536-0.163
		c-0.117-0.125-0.176-0.273-0.176-0.443v-1.125c0-0.111-0.008-0.205-0.021-0.281c-0.016-0.076-0.049-0.141-0.102-0.193
		s-0.129-0.098-0.229-0.137c-0.1-0.037-0.237-0.077-0.413-0.118l0.202-0.378c0.381,0.064,0.788,0.104,1.222,0.119
		s0.859,0.015,1.278,0s0.814-0.04,1.188-0.075c0.371-0.035,0.689-0.073,0.953-0.114l-0.149,0.782
		c-0.246-0.018-0.505-0.029-0.778-0.035c-0.271-0.006-0.54-0.009-0.804-0.009s-0.512,0.003-0.743,0.009s-0.432,0.018-0.602,0.035
		v1.336c0,0.105,0.009,0.169,0.026,0.188c0.018,0.021,0.079,0.034,0.185,0.04c0.146,0.006,0.337,0.002,0.571-0.013
		s0.486-0.037,0.756-0.066s0.546-0.064,0.831-0.105c0.283-0.041,0.552-0.085,0.804-0.132l-0.149,0.8
		c-0.205-0.006-0.433-0.007-0.682-0.004s-0.502,0.007-0.76,0.013v1.011c0.398-0.047,0.782-0.1,1.151-0.158s0.721-0.117,1.055-0.176
		v-3.34c0-0.17-0.087-0.309-0.259-0.418c-0.174-0.107-0.453-0.212-0.84-0.312l0.202-0.387c0.135,0.018,0.293,0.041,0.475,0.07
		s0.366,0.062,0.554,0.097s0.367,0.067,0.541,0.097c0.172,0.029,0.314,0.053,0.426,0.07c-0.012,0.053-0.021,0.123-0.031,0.211
		c-0.008,0.088-0.019,0.176-0.03,0.264s-0.021,0.166-0.026,0.233s-0.009,0.104-0.009,0.109v3.753c0,0.135-0.005,0.281-0.013,0.439
		c-0.01,0.158-0.022,0.316-0.04,0.475s-0.037,0.307-0.058,0.444s-0.039,0.253-0.057,0.347l-0.747,0.141
		c-0.012-0.07-0.023-0.173-0.035-0.308s-0.022-0.277-0.03-0.426c-0.01-0.15-0.016-0.298-0.018-0.444
		c-0.004-0.146-0.005-0.27-0.005-0.369v-0.272c-0.346,0.07-0.703,0.135-1.072,0.193s-0.732,0.114-1.09,0.167s-0.7,0.1-1.028,0.141
		s-0.621,0.073-0.879,0.097c-0.064,0.006-0.158,0.014-0.281,0.021c-0.123,0.01-0.254,0.021-0.391,0.035
		c-0.139,0.016-0.276,0.03-0.414,0.045s-0.256,0.027-0.355,0.039l-0.492-0.853c0.088,0.018,0.202,0.032,0.343,0.044
		s0.286,0.021,0.435,0.031c0.15,0.008,0.292,0.016,0.427,0.021s0.237,0.009,0.308,0.009c0.217-0.006,0.432-0.013,0.646-0.022
		c0.213-0.008,0.432-0.019,0.654-0.03V82.224z M61.693,86.671c-0.352-0.018-0.724-0.031-1.116-0.039
		c-0.393-0.01-0.777-0.013-1.156-0.01c-0.377,0.003-0.739,0.01-1.085,0.018c-0.346,0.01-0.645,0.022-0.896,0.04
		c-0.246,0.018-0.419-0.027-0.519-0.136c-0.1-0.107-0.149-0.229-0.149-0.362v-0.734c0-0.129-0.006-0.229-0.018-0.302
		c-0.012-0.073-0.043-0.135-0.093-0.186s-0.126-0.092-0.229-0.125c-0.103-0.032-0.244-0.073-0.426-0.12l0.158-0.399
		c0.088,0.012,0.207,0.026,0.355,0.044c0.15,0.018,0.305,0.038,0.467,0.062c0.16,0.023,0.317,0.044,0.47,0.062
		s0.272,0.032,0.36,0.044c-0.012,0.082-0.025,0.196-0.039,0.343c-0.016,0.146-0.022,0.272-0.022,0.378v0.65
		c0,0.1,0.01,0.158,0.03,0.176s0.075,0.029,0.163,0.035c0.217,0.006,0.493,0.004,0.831-0.004c0.336-0.01,0.689-0.025,1.059-0.049
		s0.729-0.05,1.081-0.079s0.653-0.064,0.905-0.105L61.693,86.671z"/>
	<path d="M68.206,79.657c0.246,0.047,0.469,0.122,0.668,0.225s0.369,0.226,0.51,0.369s0.249,0.305,0.325,0.482
		c0.076,0.18,0.114,0.368,0.114,0.567c0,0.234-0.053,0.452-0.158,0.655c-0.105,0.201-0.252,0.377-0.439,0.527
		c-0.188,0.148-0.41,0.267-0.668,0.352s-0.539,0.127-0.844,0.127s-0.586-0.042-0.844-0.127s-0.48-0.203-0.668-0.352
		c-0.188-0.15-0.334-0.326-0.439-0.527c-0.105-0.203-0.158-0.421-0.158-0.655c0-0.211,0.042-0.41,0.127-0.598
		s0.205-0.354,0.361-0.501c0.154-0.146,0.341-0.27,0.558-0.369s0.457-0.164,0.721-0.193c-0.012-0.07-0.041-0.127-0.088-0.172
		c-0.047-0.043-0.138-0.086-0.272-0.127l0.185-0.325c0.059,0.012,0.138,0.029,0.237,0.053s0.203,0.046,0.312,0.065
		c0.107,0.021,0.215,0.043,0.32,0.066s0.193,0.041,0.264,0.053c-0.012,0.053-0.031,0.113-0.057,0.18
		C68.245,79.501,68.224,79.575,68.206,79.657z M67.898,83.832c0.299,0,0.636-0.007,1.011-0.022c0.375-0.014,0.748-0.031,1.121-0.053
		c0.371-0.02,0.723-0.042,1.055-0.065c0.33-0.023,0.607-0.047,0.83-0.07c-0.018,0.152-0.029,0.278-0.035,0.378
		s-0.009,0.199-0.009,0.299v1.257c0,0.17-0.005,0.358-0.013,0.567c-0.01,0.207-0.055,0.438-0.137,0.689l-0.773,0.141
		c-0.012-0.07-0.021-0.158-0.031-0.264c-0.008-0.105-0.018-0.215-0.025-0.33c-0.01-0.113-0.017-0.226-0.022-0.334
		s-0.009-0.197-0.009-0.268v-1.503c-0.451-0.023-0.908-0.016-1.371,0.022s-0.92,0.071-1.371,0.101
		c-0.188,0.012-0.38,0.032-0.576,0.062s-0.388,0.059-0.575,0.088l-0.396-0.8c0.088,0.012,0.189,0.023,0.303,0.035
		c0.115,0.012,0.233,0.023,0.356,0.035s0.243,0.021,0.36,0.026S67.811,83.832,67.898,83.832z M68.804,81.266
		c0-0.164-0.029-0.316-0.088-0.457s-0.14-0.262-0.242-0.364s-0.218-0.184-0.347-0.242s-0.264-0.088-0.404-0.088
		s-0.276,0.029-0.409,0.088c-0.131,0.059-0.246,0.14-0.342,0.242c-0.098,0.103-0.175,0.224-0.233,0.364s-0.088,0.293-0.088,0.457
		s0.029,0.313,0.088,0.448s0.136,0.252,0.233,0.352c0.096,0.1,0.211,0.178,0.342,0.232c0.133,0.057,0.269,0.084,0.409,0.084
		s0.276-0.027,0.409-0.084c0.131-0.055,0.247-0.133,0.347-0.232s0.179-0.217,0.237-0.352S68.804,81.43,68.804,81.266z
		 M71.933,81.925c0,0.105-0.004,0.23-0.014,0.373c-0.008,0.145-0.019,0.289-0.03,0.436s-0.025,0.281-0.04,0.404
		s-0.03,0.22-0.048,0.29l-0.782,0.123c-0.012-0.064-0.021-0.146-0.031-0.246c-0.008-0.1-0.016-0.202-0.021-0.308
		s-0.012-0.212-0.018-0.32s-0.009-0.204-0.009-0.286v-2.874c0-0.17-0.081-0.309-0.241-0.418c-0.162-0.107-0.436-0.212-0.822-0.312
		l0.149-0.387c0.146,0.018,0.314,0.041,0.505,0.07s0.379,0.062,0.562,0.097c0.186,0.035,0.361,0.067,0.527,0.097
		c0.168,0.029,0.304,0.053,0.409,0.07c-0.012,0.053-0.023,0.123-0.035,0.211s-0.022,0.176-0.03,0.264
		c-0.01,0.088-0.017,0.166-0.022,0.233s-0.009,0.104-0.009,0.109v1.45c0.123-0.012,0.261-0.026,0.413-0.044s0.306-0.036,0.462-0.057
		c0.154-0.021,0.304-0.043,0.447-0.066s0.274-0.047,0.392-0.07l-0.105,0.809c-0.088-0.006-0.198-0.01-0.329-0.014
		c-0.133-0.002-0.271-0.004-0.418-0.004s-0.295,0-0.443,0c-0.15,0-0.289,0-0.418,0V81.925z"/>
	<path d="M79.465,79.517c0-0.17-0.081-0.309-0.242-0.418c-0.161-0.107-0.435-0.212-0.821-0.312l0.149-0.387
		c0.146,0.018,0.314,0.041,0.506,0.07c0.189,0.029,0.377,0.062,0.562,0.097c0.184,0.035,0.359,0.067,0.527,0.097
		c0.166,0.029,0.303,0.053,0.408,0.07c-0.012,0.053-0.023,0.123-0.035,0.211s-0.021,0.176-0.031,0.264
		c-0.008,0.088-0.016,0.166-0.021,0.233s-0.009,0.104-0.009,0.109v2.109c0.123-0.012,0.261-0.026,0.413-0.044
		s0.306-0.036,0.461-0.058c0.155-0.02,0.307-0.042,0.453-0.065s0.278-0.044,0.396-0.062l-0.114,0.817
		c-0.088-0.006-0.197-0.01-0.33-0.013c-0.131-0.003-0.271-0.005-0.417-0.005s-0.294,0-0.444,0c-0.148,0-0.288,0-0.417,0v0.888
		c0,0.135-0.003,0.28-0.009,0.436s-0.015,0.312-0.026,0.47s-0.025,0.308-0.04,0.448s-0.03,0.261-0.048,0.36l-0.791,0.123
		c-0.012-0.07-0.022-0.17-0.03-0.299c-0.01-0.129-0.017-0.269-0.022-0.417c-0.006-0.15-0.012-0.299-0.018-0.449
		c-0.006-0.148-0.009-0.276-0.009-0.382v-0.896c-0.299,0.117-0.618,0.229-0.958,0.334s-0.679,0.204-1.015,0.294
		c-0.338,0.092-0.664,0.171-0.98,0.238s-0.604,0.121-0.861,0.162c-0.322,0.047-0.56,0.003-0.712-0.132s-0.229-0.343-0.229-0.624
		v-1.907c0-0.105-0.009-0.194-0.026-0.269c-0.018-0.072-0.055-0.136-0.109-0.188c-0.057-0.053-0.136-0.101-0.238-0.146
		c-0.103-0.043-0.235-0.086-0.399-0.127l0.185-0.396c0.328,0.053,0.689,0.085,1.086,0.097c0.395,0.012,0.795,0.009,1.199-0.009
		s0.797-0.047,1.178-0.088s0.718-0.088,1.011-0.141l-0.141,0.8c-0.545-0.023-1.057-0.031-1.534-0.021
		c-0.478,0.008-0.886,0.027-1.226,0.057v2.171c0,0.088,0.007,0.148,0.022,0.181c0.014,0.032,0.045,0.045,0.092,0.039
		c0.217-0.012,0.472-0.039,0.765-0.084c0.293-0.043,0.603-0.099,0.927-0.166c0.326-0.067,0.656-0.146,0.994-0.233
		c0.336-0.088,0.66-0.182,0.971-0.281V79.517z M80.994,86.601c-0.357-0.006-0.724-0.009-1.099-0.009s-0.741,0.003-1.099,0.009
		s-0.699,0.015-1.023,0.026c-0.326,0.012-0.617,0.026-0.875,0.044c-0.229,0.018-0.396-0.027-0.501-0.135
		c-0.105-0.108-0.158-0.229-0.158-0.362v-1.089c0-0.122-0.006-0.219-0.018-0.291c-0.012-0.073-0.043-0.135-0.093-0.186
		s-0.126-0.094-0.229-0.129c-0.103-0.036-0.244-0.078-0.426-0.126l0.176-0.398c0.082,0.012,0.196,0.026,0.343,0.044
		s0.3,0.038,0.462,0.062c0.16,0.023,0.317,0.046,0.47,0.065c0.152,0.021,0.272,0.04,0.36,0.058
		c-0.006,0.035-0.012,0.082-0.018,0.141s-0.012,0.122-0.018,0.188c-0.006,0.068-0.012,0.134-0.018,0.198s-0.009,0.123-0.009,0.176
		v1.011c0,0.1,0.012,0.158,0.035,0.176s0.085,0.029,0.185,0.035c0.217,0.006,0.484,0,0.805-0.018
		c0.318-0.018,0.65-0.039,0.992-0.066c0.344-0.025,0.682-0.057,1.016-0.092s0.624-0.07,0.87-0.105L80.994,86.601z"/>
	<path d="M85.573,80.308c0.252,0.047,0.481,0.125,0.689,0.232c0.208,0.109,0.389,0.241,0.541,0.396s0.271,0.331,0.355,0.527
		s0.128,0.408,0.128,0.637c0,0.264-0.056,0.509-0.167,0.734s-0.264,0.42-0.457,0.584s-0.422,0.293-0.686,0.387
		s-0.551,0.141-0.861,0.141c-0.322,0-0.618-0.047-0.888-0.141s-0.501-0.223-0.694-0.387s-0.345-0.358-0.453-0.584
		s-0.162-0.471-0.162-0.734c0-0.234,0.045-0.454,0.137-0.659c0.09-0.205,0.218-0.388,0.382-0.55c0.164-0.16,0.36-0.292,0.589-0.395
		s0.478-0.169,0.747-0.198c0.006-0.094-0.017-0.167-0.065-0.22c-0.051-0.053-0.148-0.103-0.295-0.149l0.141-0.334
		c0.07,0.018,0.156,0.038,0.26,0.062c0.102,0.023,0.209,0.047,0.32,0.07s0.218,0.046,0.32,0.066s0.187,0.039,0.251,0.057
		c-0.023,0.047-0.046,0.113-0.065,0.197C85.618,80.134,85.597,80.22,85.573,80.308z M86.276,82.074c0-0.182-0.031-0.35-0.092-0.505
		c-0.062-0.155-0.145-0.291-0.246-0.404c-0.104-0.115-0.224-0.205-0.361-0.273c-0.138-0.066-0.285-0.101-0.443-0.101
		s-0.308,0.034-0.448,0.101c-0.141,0.068-0.267,0.158-0.378,0.273c-0.111,0.113-0.199,0.249-0.264,0.404s-0.097,0.323-0.097,0.505
		c0,0.188,0.032,0.357,0.097,0.51s0.152,0.283,0.264,0.392s0.237,0.193,0.378,0.254c0.141,0.062,0.29,0.093,0.448,0.093
		s0.306-0.03,0.443-0.093c0.138-0.061,0.26-0.146,0.365-0.254s0.188-0.239,0.246-0.392S86.276,82.262,86.276,82.074z M87.691,78.4
		c0.135,0.018,0.293,0.041,0.475,0.07s0.366,0.062,0.554,0.097s0.367,0.067,0.541,0.097c0.172,0.029,0.314,0.053,0.426,0.07
		c-0.012,0.053-0.021,0.123-0.031,0.211c-0.008,0.088-0.019,0.176-0.03,0.264s-0.021,0.166-0.026,0.233s-0.009,0.104-0.009,0.109
		v4.825c0,0.182-0.005,0.392-0.013,0.628c-0.01,0.238-0.022,0.477-0.04,0.717s-0.037,0.469-0.058,0.686s-0.042,0.39-0.065,0.519
		l-0.729,0.105c-0.018-0.094-0.032-0.222-0.044-0.382c-0.012-0.162-0.022-0.336-0.03-0.523c-0.01-0.188-0.016-0.378-0.018-0.571
		c-0.004-0.193-0.005-0.375-0.005-0.545v-5.493c0-0.17-0.087-0.309-0.259-0.418c-0.174-0.107-0.453-0.212-0.84-0.312L87.691,78.4z"
		/>
	<path d="M5.203,123.111c0.223,0.035,0.428,0.099,0.615,0.189s0.349,0.203,0.483,0.338s0.24,0.285,0.316,0.453
		c0.076,0.166,0.114,0.341,0.114,0.522c0,0.211-0.05,0.407-0.149,0.589s-0.237,0.341-0.413,0.479s-0.384,0.245-0.624,0.321
		s-0.501,0.114-0.782,0.114c-0.293,0-0.562-0.038-0.805-0.114s-0.452-0.184-0.628-0.321s-0.312-0.297-0.409-0.479
		c-0.096-0.182-0.145-0.378-0.145-0.589c0-0.188,0.038-0.366,0.114-0.536s0.185-0.322,0.325-0.457s0.309-0.247,0.506-0.338
		c0.195-0.091,0.411-0.151,0.646-0.181c-0.012-0.07-0.044-0.121-0.097-0.153s-0.146-0.069-0.281-0.11l0.193-0.334
		c0.064,0.012,0.144,0.028,0.237,0.048c0.094,0.021,0.193,0.046,0.299,0.075c-0.258-0.199-0.519-0.413-0.782-0.642
		s-0.521-0.448-0.773-0.659c-0.439,0.375-0.899,0.697-1.38,0.967s-0.981,0.516-1.503,0.738L0,122.698
		c0.34-0.158,0.669-0.344,0.988-0.558s0.623-0.445,0.91-0.695c0.287-0.248,0.551-0.51,0.791-0.783s0.454-0.553,0.642-0.838
		c-0.17,0.006-0.354,0.017-0.55,0.031s-0.379,0.024-0.549,0.03c-0.053,0-0.135,0.006-0.246,0.018s-0.23,0.023-0.355,0.035
		c-0.127,0.012-0.254,0.026-0.383,0.044s-0.24,0.032-0.334,0.044l-0.536-0.8c0.07,0.018,0.17,0.034,0.299,0.049
		s0.267,0.029,0.413,0.043c0.146,0.016,0.29,0.025,0.431,0.031s0.261,0.009,0.36,0.009c0.211,0,0.429-0.005,0.654-0.013
		c0.226-0.01,0.445-0.022,0.66-0.04c0.213-0.018,0.42-0.041,0.619-0.07s0.384-0.064,0.554-0.105l0.343,0.325
		c-0.164,0.287-0.342,0.556-0.531,0.805c-0.191,0.249-0.397,0.476-0.62,0.681c0.334,0.24,0.657,0.447,0.972,0.62
		c0.312,0.173,0.64,0.329,0.979,0.47l-0.668,0.624c0.094,0.023,0.182,0.044,0.264,0.062s0.155,0.032,0.22,0.044
		C5.25,122.906,5.209,123.023,5.203,123.111z M3.946,118.778c-0.1,0-0.21,0-0.329,0c-0.121,0-0.241,0.002-0.361,0.005
		s-0.234,0.006-0.342,0.008c-0.109,0.004-0.201,0.005-0.277,0.005c-0.041,0-0.103,0.002-0.185,0.005s-0.171,0.008-0.269,0.018
		c-0.096,0.008-0.194,0.018-0.294,0.025c-0.1,0.01-0.188,0.02-0.264,0.031l-0.431-0.694c0.07,0.012,0.167,0.022,0.29,0.03
		c0.123,0.01,0.251,0.018,0.382,0.027c0.133,0.008,0.258,0.016,0.379,0.021c0.119,0.006,0.212,0.009,0.276,0.009
		c0.07,0,0.168-0.005,0.294-0.013c0.126-0.01,0.264-0.021,0.414-0.035c0.148-0.015,0.3-0.032,0.452-0.053s0.293-0.04,0.422-0.058
		L3.946,118.778z M5.695,124.57c0-0.146-0.025-0.281-0.074-0.404c-0.051-0.123-0.118-0.229-0.203-0.32s-0.184-0.163-0.299-0.216
		c-0.113-0.053-0.235-0.079-0.364-0.079c-0.135,0-0.261,0.026-0.378,0.079s-0.22,0.125-0.308,0.216s-0.158,0.197-0.211,0.32
		s-0.079,0.258-0.079,0.404c0,0.141,0.026,0.271,0.079,0.391c0.053,0.121,0.123,0.223,0.211,0.309
		c0.088,0.084,0.19,0.151,0.308,0.201s0.243,0.075,0.378,0.075c0.129,0,0.251-0.025,0.364-0.075c0.115-0.05,0.214-0.117,0.299-0.201
		c0.085-0.086,0.152-0.188,0.203-0.309C5.67,124.842,5.695,124.711,5.695,124.57z M6.68,121.556c0,0.105-0.004,0.23-0.014,0.374
		c-0.008,0.144-0.019,0.288-0.03,0.435s-0.025,0.283-0.04,0.409S6.568,123,6.557,123.076l-0.791,0.105
		c-0.012-0.064-0.021-0.146-0.031-0.246c-0.008-0.1-0.016-0.203-0.021-0.312c-0.006-0.107-0.012-0.215-0.018-0.32
		s-0.009-0.196-0.009-0.272v-3.313c0-0.17-0.081-0.309-0.241-0.418c-0.162-0.107-0.436-0.212-0.822-0.312l0.149-0.387
		c0.146,0.018,0.314,0.041,0.505,0.07s0.379,0.062,0.562,0.097c0.186,0.035,0.361,0.067,0.527,0.097
		c0.168,0.029,0.304,0.053,0.409,0.07c-0.012,0.053-0.023,0.123-0.035,0.211s-0.022,0.176-0.03,0.264
		c-0.01,0.088-0.017,0.166-0.022,0.233s-0.009,0.104-0.009,0.109v1.907c0.123-0.012,0.261-0.026,0.413-0.044
		s0.306-0.035,0.462-0.053c0.154-0.018,0.304-0.035,0.447-0.053s0.274-0.035,0.392-0.053l-0.105,0.809
		c-0.088-0.006-0.198-0.01-0.329-0.014c-0.133-0.002-0.271-0.004-0.418-0.004s-0.295,0-0.443,0c-0.15,0-0.289,0-0.418,0V121.556z"/>
	<path d="M14.229,118.717c0-0.17-0.081-0.309-0.242-0.418c-0.161-0.107-0.435-0.212-0.821-0.312l0.149-0.387
		c0.146,0.018,0.314,0.041,0.506,0.07c0.189,0.029,0.377,0.062,0.562,0.097c0.184,0.035,0.359,0.067,0.527,0.097
		c0.166,0.029,0.303,0.053,0.408,0.07c-0.012,0.053-0.023,0.123-0.035,0.211s-0.021,0.176-0.031,0.264
		c-0.008,0.088-0.016,0.166-0.021,0.233s-0.009,0.104-0.009,0.109v2.109c0.123-0.012,0.261-0.026,0.413-0.044
		s0.306-0.036,0.461-0.058c0.155-0.02,0.307-0.042,0.453-0.065s0.278-0.044,0.396-0.062l-0.114,0.817
		c-0.088-0.006-0.197-0.01-0.33-0.013c-0.131-0.003-0.271-0.005-0.417-0.005s-0.294,0-0.444,0c-0.148,0-0.288,0-0.417,0v0.888
		c0,0.135-0.003,0.28-0.009,0.436s-0.015,0.312-0.026,0.47s-0.025,0.308-0.04,0.448s-0.03,0.261-0.048,0.36l-0.791,0.123
		c-0.012-0.07-0.022-0.17-0.03-0.299c-0.01-0.129-0.017-0.269-0.022-0.417c-0.006-0.15-0.012-0.299-0.018-0.449
		c-0.006-0.148-0.009-0.276-0.009-0.382v-0.896c-0.299,0.117-0.618,0.229-0.958,0.334s-0.679,0.204-1.015,0.294
		c-0.338,0.092-0.664,0.171-0.98,0.238s-0.604,0.121-0.861,0.162c-0.322,0.047-0.56,0.003-0.712-0.132s-0.229-0.343-0.229-0.624
		v-1.907c0-0.105-0.009-0.194-0.026-0.269c-0.018-0.072-0.055-0.136-0.109-0.188c-0.057-0.053-0.136-0.101-0.238-0.146
		c-0.103-0.043-0.235-0.086-0.399-0.127l0.185-0.396c0.328,0.053,0.689,0.085,1.086,0.097c0.395,0.012,0.795,0.009,1.199-0.009
		s0.797-0.047,1.178-0.088s0.718-0.088,1.011-0.141l-0.141,0.8c-0.545-0.023-1.057-0.031-1.534-0.021
		c-0.478,0.008-0.886,0.027-1.226,0.057v2.171c0,0.088,0.007,0.148,0.022,0.181c0.014,0.032,0.045,0.045,0.092,0.039
		c0.217-0.012,0.472-0.039,0.765-0.084c0.293-0.043,0.603-0.099,0.927-0.166c0.326-0.067,0.656-0.146,0.994-0.233
		c0.336-0.088,0.66-0.182,0.971-0.281V118.717z M15.759,125.801c-0.357-0.006-0.724-0.009-1.099-0.009s-0.741,0.003-1.099,0.009
		s-0.699,0.015-1.023,0.026c-0.326,0.012-0.617,0.026-0.875,0.044c-0.229,0.018-0.396-0.027-0.501-0.135
		c-0.105-0.108-0.158-0.229-0.158-0.362v-1.089c0-0.122-0.006-0.219-0.018-0.291c-0.012-0.073-0.043-0.135-0.093-0.186
		s-0.126-0.094-0.229-0.129c-0.103-0.036-0.244-0.078-0.426-0.126l0.176-0.398c0.082,0.012,0.196,0.026,0.343,0.044
		s0.3,0.038,0.462,0.062c0.16,0.023,0.317,0.046,0.47,0.065c0.152,0.021,0.272,0.04,0.36,0.058
		c-0.006,0.035-0.012,0.082-0.018,0.141s-0.012,0.122-0.018,0.188c-0.006,0.068-0.012,0.134-0.018,0.198s-0.009,0.123-0.009,0.176
		v1.011c0,0.1,0.012,0.158,0.035,0.176s0.085,0.029,0.185,0.035c0.217,0.006,0.484,0,0.805-0.018
		c0.318-0.018,0.65-0.039,0.992-0.066c0.344-0.025,0.682-0.057,1.016-0.092s0.624-0.07,0.87-0.105L15.759,125.801z"/>
	<path d="M19.709,121.951c-0.148,0.006-0.288,0.015-0.417,0.026c-0.24,0.018-0.419-0.036-0.536-0.163
		c-0.117-0.125-0.176-0.273-0.176-0.443v-1.477c0-0.111-0.008-0.203-0.021-0.277c-0.016-0.072-0.049-0.136-0.102-0.188
		s-0.129-0.1-0.229-0.141s-0.237-0.085-0.413-0.132l0.202-0.378c0.381,0.064,0.788,0.104,1.222,0.118
		c0.434,0.016,0.859,0.016,1.278,0c0.419-0.014,0.814-0.039,1.188-0.074c0.371-0.035,0.689-0.07,0.953-0.105l-0.149,0.791
		c-0.246-0.012-0.507-0.021-0.782-0.031c-0.275-0.008-0.545-0.013-0.809-0.013s-0.512,0.003-0.742,0.009
		c-0.232,0.006-0.43,0.018-0.594,0.035v1.688c0,0.1,0.009,0.157,0.026,0.172s0.079,0.024,0.185,0.03
		c0.146,0.006,0.338,0.002,0.576-0.013c0.236-0.015,0.49-0.035,0.76-0.062c0.27-0.025,0.546-0.058,0.83-0.096
		s0.55-0.081,0.796-0.128l-0.149,0.791c-0.205-0.006-0.431-0.007-0.677-0.005c-0.246,0.004-0.498,0.005-0.756,0.005v1.292
		c0.416-0.047,0.82-0.104,1.213-0.172c0.393-0.066,0.759-0.133,1.099-0.197v-4.096c0-0.17-0.085-0.309-0.255-0.418
		c-0.17-0.107-0.451-0.212-0.844-0.312l0.193-0.387c0.141,0.018,0.302,0.041,0.483,0.07s0.365,0.062,0.549,0.097
		c0.186,0.035,0.362,0.067,0.532,0.097s0.313,0.053,0.431,0.07c-0.012,0.053-0.023,0.123-0.035,0.211s-0.021,0.176-0.031,0.264
		c-0.008,0.088-0.016,0.166-0.021,0.233s-0.009,0.104-0.009,0.109v4.825c0,0.182-0.005,0.392-0.013,0.628
		c-0.01,0.238-0.022,0.477-0.04,0.717s-0.037,0.469-0.058,0.686s-0.042,0.39-0.065,0.519l-0.729,0.105
		c-0.012-0.094-0.021-0.222-0.031-0.382c-0.008-0.162-0.018-0.336-0.025-0.523c-0.01-0.188-0.017-0.378-0.022-0.571
		s-0.009-0.375-0.009-0.545v-0.914c-0.346,0.076-0.706,0.149-1.081,0.22s-0.746,0.135-1.112,0.193s-0.718,0.108-1.055,0.149
		s-0.64,0.07-0.909,0.088c-0.053,0.006-0.136,0.015-0.251,0.026c-0.113,0.012-0.24,0.025-0.377,0.039
		c-0.139,0.016-0.276,0.031-0.414,0.049s-0.256,0.035-0.355,0.053l-0.519-0.879c0.094,0.018,0.212,0.034,0.356,0.049
		c0.143,0.015,0.289,0.027,0.439,0.039c0.148,0.012,0.291,0.021,0.426,0.026s0.237,0.009,0.308,0.009
		c0.205-0.018,0.413-0.031,0.624-0.039c0.211-0.01,0.419-0.02,0.624-0.031v-1.354C20.019,121.939,19.859,121.945,19.709,121.951z"/>
	<path d="M28.986,118.787c0.387,0.076,0.715,0.22,0.984,0.431s0.454,0.466,0.554,0.765c0.1,0.023,0.197,0.039,0.295,0.049
		c0.096,0.008,0.18,0.013,0.25,0.013s0.183-0.003,0.338-0.009s0.312-0.015,0.471-0.026v-1.283c0-0.17-0.085-0.311-0.255-0.422
		s-0.451-0.217-0.844-0.316c0.035-0.064,0.07-0.129,0.105-0.193s0.067-0.129,0.097-0.193c0.135,0.018,0.295,0.041,0.479,0.07
		c0.186,0.029,0.371,0.062,0.559,0.097s0.367,0.067,0.541,0.097c0.172,0.029,0.314,0.053,0.426,0.07
		c-0.012,0.053-0.021,0.123-0.031,0.211c-0.008,0.088-0.019,0.176-0.03,0.264s-0.021,0.166-0.026,0.233s-0.009,0.104-0.009,0.109
		v2.276c0,0.1-0.006,0.222-0.018,0.364c-0.012,0.145-0.026,0.289-0.044,0.436s-0.037,0.283-0.057,0.408
		c-0.021,0.127-0.04,0.225-0.058,0.295c-0.123,0.018-0.248,0.037-0.374,0.057c-0.126,0.021-0.253,0.04-0.382,0.058
		c-0.012-0.059-0.022-0.138-0.03-0.237c-0.01-0.1-0.017-0.203-0.022-0.312c-0.006-0.107-0.012-0.216-0.018-0.324
		s-0.009-0.204-0.009-0.286v-0.932c-0.205,0.012-0.43,0.026-0.672,0.044c-0.244,0.018-0.459,0.041-0.646,0.07v0.009
		c-0.029,0.205-0.103,0.393-0.22,0.562s-0.266,0.319-0.444,0.448s-0.387,0.229-0.623,0.299c-0.238,0.07-0.491,0.105-0.761,0.105
		c-0.305,0-0.586-0.042-0.844-0.127s-0.479-0.203-0.663-0.352c-0.186-0.15-0.329-0.326-0.432-0.527
		c-0.103-0.203-0.153-0.421-0.153-0.655c0-0.211,0.042-0.41,0.128-0.598c0.084-0.188,0.203-0.354,0.355-0.501
		s0.334-0.27,0.545-0.369s0.445-0.164,0.703-0.193c-0.006-0.064-0.035-0.117-0.088-0.158s-0.149-0.085-0.29-0.132
		c0.035-0.053,0.067-0.104,0.097-0.153s0.062-0.104,0.097-0.163c0.064,0.012,0.147,0.029,0.251,0.053
		c0.102,0.023,0.207,0.047,0.316,0.07c0.107,0.023,0.212,0.046,0.312,0.065c0.1,0.021,0.185,0.04,0.255,0.058
		c-0.012,0.041-0.031,0.096-0.057,0.163C29.017,118.64,28.998,118.711,28.986,118.787z M29.549,124.113
		c0.182,0.182,0.357,0.342,0.527,0.479c0.17,0.139,0.354,0.28,0.554,0.427c0.188-0.264,0.355-0.537,0.506-0.821
		c0.148-0.284,0.265-0.559,0.347-0.822c0.012-0.059,0.018-0.1,0.018-0.123c0-0.07-0.056-0.142-0.167-0.215s-0.234-0.151-0.369-0.233
		c0.041-0.053,0.077-0.104,0.109-0.153s0.066-0.102,0.102-0.154c0.076,0.012,0.186,0.035,0.33,0.07
		c0.143,0.035,0.291,0.073,0.443,0.114s0.299,0.082,0.439,0.123s0.252,0.076,0.334,0.105c-0.141,0.422-0.319,0.817-0.536,1.187
		c0.299,0.299,0.61,0.574,0.937,0.826c0.324,0.252,0.619,0.466,0.883,0.642c-0.129,0.117-0.254,0.229-0.373,0.334
		c-0.121,0.105-0.245,0.214-0.374,0.325c-0.246-0.275-0.485-0.548-0.716-0.817c-0.232-0.27-0.471-0.542-0.717-0.817
		c-0.258,0.352-0.544,0.668-0.857,0.949s-0.637,0.533-0.971,0.756c-0.047-0.047-0.097-0.096-0.149-0.145
		c-0.053-0.051-0.103-0.099-0.149-0.146c0.146-0.117,0.278-0.246,0.396-0.387c-0.152-0.17-0.304-0.342-0.452-0.515
		c-0.15-0.172-0.298-0.344-0.444-0.514c-0.281,0.322-0.591,0.619-0.927,0.893c-0.338,0.271-0.699,0.531-1.086,0.777
		c-0.047-0.059-0.094-0.116-0.141-0.172s-0.094-0.112-0.141-0.171c0.223-0.152,0.432-0.327,0.629-0.522
		c0.195-0.197,0.377-0.403,0.545-0.62c0.166-0.217,0.317-0.437,0.452-0.659s0.252-0.439,0.352-0.65
		c0.012-0.018,0.018-0.036,0.018-0.057s0-0.04,0-0.058c0-0.088-0.053-0.165-0.158-0.233c-0.105-0.066-0.234-0.145-0.387-0.232
		c0.047-0.053,0.085-0.104,0.114-0.154c0.029-0.049,0.064-0.104,0.105-0.162c0.076,0.018,0.185,0.046,0.325,0.084
		s0.287,0.077,0.439,0.118s0.297,0.082,0.435,0.123s0.248,0.076,0.33,0.105c-0.064,0.193-0.145,0.386-0.242,0.575
		C29.765,123.764,29.66,123.943,29.549,124.113z M29.575,120.396c0-0.164-0.029-0.316-0.088-0.457s-0.137-0.262-0.232-0.364
		c-0.098-0.103-0.209-0.184-0.334-0.242c-0.127-0.059-0.26-0.088-0.4-0.088c-0.152,0-0.293,0.029-0.422,0.088
		s-0.242,0.14-0.338,0.242c-0.098,0.103-0.174,0.224-0.229,0.364c-0.057,0.141-0.084,0.293-0.084,0.457s0.027,0.315,0.084,0.452
		c0.055,0.139,0.131,0.256,0.229,0.352c0.096,0.098,0.209,0.174,0.338,0.229c0.129,0.057,0.27,0.084,0.422,0.084
		c0.146,0,0.282-0.027,0.408-0.084c0.126-0.055,0.238-0.131,0.334-0.229c0.098-0.096,0.173-0.213,0.229-0.352
		C29.547,120.711,29.575,120.56,29.575,120.396z"/>
	<path d="M39.867,118.717c0-0.17-0.081-0.309-0.242-0.418c-0.161-0.107-0.435-0.212-0.821-0.312l0.149-0.387
		c0.146,0.018,0.314,0.041,0.506,0.07c0.189,0.029,0.377,0.062,0.562,0.097c0.184,0.035,0.359,0.067,0.527,0.097
		c0.166,0.029,0.303,0.053,0.408,0.07c-0.012,0.053-0.023,0.123-0.035,0.211s-0.021,0.176-0.031,0.264
		c-0.008,0.088-0.016,0.166-0.021,0.233s-0.009,0.104-0.009,0.109v2.355c0.129-0.012,0.271-0.024,0.427-0.039
		c0.154-0.015,0.312-0.031,0.47-0.049s0.311-0.036,0.457-0.057s0.278-0.043,0.396-0.066l-0.105,0.817
		c-0.094-0.006-0.207-0.009-0.338-0.009c-0.133,0-0.273,0-0.422,0c-0.15,0-0.303,0-0.457,0c-0.156,0-0.298,0-0.427,0v1.872
		c0,0.182-0.003,0.392-0.009,0.628c-0.006,0.238-0.015,0.477-0.026,0.717s-0.026,0.469-0.044,0.686s-0.035,0.39-0.053,0.519
		l-0.773,0.105c-0.012-0.094-0.021-0.222-0.031-0.382c-0.008-0.162-0.018-0.336-0.025-0.523c-0.01-0.188-0.017-0.378-0.022-0.571
		s-0.009-0.375-0.009-0.545v-1.608c-0.27,0.105-0.57,0.213-0.9,0.32c-0.332,0.109-0.664,0.213-0.998,0.312s-0.658,0.187-0.971,0.26
		c-0.314,0.073-0.591,0.127-0.831,0.162c-0.334,0.053-0.574,0.014-0.721-0.119c-0.146-0.131-0.22-0.341-0.22-0.628v-2.549
		c0-0.1-0.009-0.186-0.026-0.259s-0.055-0.138-0.11-0.193s-0.135-0.105-0.236-0.15c-0.104-0.043-0.236-0.089-0.4-0.136l0.149-0.396
		c0.34,0.053,0.706,0.087,1.099,0.102s0.787,0.015,1.182,0c0.396-0.015,0.778-0.041,1.147-0.08c0.369-0.037,0.7-0.083,0.993-0.136
		l-0.141,0.782c-0.545-0.023-1.041-0.032-1.49-0.026c-0.447,0.006-0.842,0.023-1.182,0.053v2.812c0,0.082,0.009,0.14,0.026,0.171
		c0.018,0.033,0.047,0.049,0.088,0.049c0.176-0.012,0.409-0.045,0.698-0.102c0.291-0.055,0.6-0.119,0.928-0.193
		c0.328-0.072,0.66-0.154,0.998-0.246c0.336-0.09,0.643-0.177,0.918-0.259V118.717z"/>
	<path d="M43.761,124.228c0.193,0,0.357,0.065,0.492,0.198c0.135,0.131,0.202,0.279,0.202,0.443c0,0.17-0.067,0.32-0.202,0.453
		c-0.135,0.131-0.299,0.197-0.492,0.197c-0.094,0-0.184-0.018-0.268-0.053c-0.086-0.035-0.158-0.084-0.221-0.145
		c-0.061-0.062-0.111-0.131-0.148-0.207c-0.039-0.076-0.058-0.158-0.058-0.246c0-0.082,0.019-0.161,0.058-0.237
		c0.037-0.076,0.088-0.146,0.148-0.206c0.062-0.062,0.135-0.11,0.221-0.146C43.577,124.245,43.667,124.228,43.761,124.228z"/>
</g>
</svg>