<!-- Generator: Adobe Illustrator 21.1.0, SVG Export Plug-In  -->
<svg version="1.1"
	 xmlns="http://www.w3.org/2000/svg" xmlns:xlink="http://www.w3.org/1999/xlink" xmlns:a="http://ns.adobe.com/AdobeSVGViewerExtensions/3.0/"
	 x="0px" y="0px" width="504.72px" height="51.19px" viewBox="0 0 504.72 51.19" style="enable-background:new 0 0 504.72 51.19;"
	 xml:space="preserve">
<defs>
</defs>
<g>
	<path d="M13.511,18.09v-0.447c-3.462,0.726-6.923,1.731-9.882,2.903C2.01,19.597,0.558,17.587,0,15.689
		c7.37-2.736,16.191-4.746,23.561-5.36c1.675,0.502,3.35,1.507,4.467,2.457c0.223,0.502,0.223,1.172,0.056,1.731
		c-0.949,1.005-2.568,1.842-3.294,1.842c-2.177,0-4.578,0.167-7.035,0.502l1.787,1.619v1.172c0.223,0,0.502,0.056,0.782,0.056
		c3.182,0.447,6.086,2.847,6.086,5.583c0,3.518-5.751,8.151-10.161,8.654c-4.522,0.503-10.776-2.959-10.776-6.812
		C5.471,23.952,9.045,21.049,13.511,18.09z M21.774,5.918c0.223,0.558,0.279,1.228,0.112,1.787c-0.67,0.837-1.843,1.619-2.568,1.787
		c-2.568,0.558-6.7,0.837-9.045,0.726c-2.177-1.34-3.685-4.299-4.355-7.202c4.188,0.894,8.375,0.894,11.334,0.67
		C18.592,4.02,20.379,4.969,21.774,5.918z M14.237,45.28l-0.447-5.248c-0.167-0.837-0.67-1.842-1.228-2.568
		c-0.112-0.447-0.112-0.949,0-1.34c0.614-0.335,1.396-0.559,2.177-0.614c2.122,0.112,4.69,0.447,6.923,0.949
		c0.391,0.558,0.67,1.396,0.726,2.122l-0.112,5.304c4.187-1.229,10.329-2.401,15.242-2.625c1.731,0.503,3.629,1.452,4.802,2.513
		c0.223,0.614,0.223,1.284,0,1.954c-0.67,1.005-2.177,2.066-2.959,2.066c-6.086-0.167-14.181,0.223-19.876,1.172
		C17.419,48.351,15.354,46.955,14.237,45.28z M17.364,22.389c-0.167,0.167-0.391,0.279-0.614,0.447
		c-1.954,1.34-3.517,2.68-3.517,3.964c0,1.005,1.787,2.122,3.015,2.01c1.34-0.112,3.294-2.066,3.294-3.406
		c0-0.894-0.614-1.619-1.507-2.345C17.754,22.835,17.531,22.612,17.364,22.389z M28.698,0.67c0.614-0.335,1.619-0.614,2.177-0.67
		c1.842,0.391,4.969,1.843,6.923,3.406c0.391,0.559,0.67,1.396,0.726,2.122c-0.167,1.117-0.279,2.736-0.279,3.853l-0.279,11.167
		c1.843-0.837,3.853-1.563,5.527-1.898c1.508,0.559,3.127,1.731,4.02,2.792c0.223,0.782,0.223,1.898,0,2.568
		c-0.782,1.172-2.01,2.513-2.792,2.401c-2.066-0.502-4.634-0.837-6.923-0.893l-0.167,4.689c-0.112,1.508-0.614,3.071-1.563,4.857
		c-0.949,1.731-2.568,3.685-3.629,4.132c-0.949,0.391-2.68,0.67-3.908,0.837c0.614-0.782,1.061-2.01,1.34-3.853
		c0.223-1.898,0.391-5.136,0.391-7.202L30.205,4.579c-0.279-0.894-0.837-1.787-1.507-2.568C28.586,1.563,28.586,1.005,28.698,0.67z"
		/>
	<path d="M88,17.252c2.066-1.005,4.634-1.787,7.37-2.066V11.39c-0.167-0.838-0.614-1.787-1.061-2.625
		c-0.112-0.391-0.112-0.949,0-1.34c0.558-0.335,1.508-0.502,2.233-0.558c1.675,0.391,3.796,1.228,5.862,2.345
		c0.391,0.559,0.67,1.284,0.837,2.01c-0.112,3.796-0.335,8.095-0.614,10.329c-0.223,1.452-0.614,3.071-1.117,4.02
		c0.502,0.447,1.061,1.061,1.284,1.675c0.112,0.502,0.112,1.117-0.056,1.619c-0.447,0.614-1.172,1.229-1.843,1.619
		c-5.136-0.335-9.547,0-13.567,1.117c-1.061,1.507-2.177,2.289-3.406,2.568c-1.228-0.167-2.457-1.284-2.624-2.903l-0.949-15.298
		c-0.279-0.837-0.781-1.843-1.452-2.568c-0.112-0.447-0.112-0.949,0-1.34c0.614-0.335,1.396-0.559,2.177-0.614
		c1.787,0.167,4.02,0.558,6.03,1.117c0.503,0.558,0.782,1.284,0.949,2.01C88.056,15.242,88,16.191,88,17.252z M88.056,27.19
		c2.345-0.949,4.969-1.507,7.258-1.787v-5.081c-2.792,0.111-5.192,0.726-7.258,1.507V27.19z M91.909,45.28l-0.447-6.7
		c-0.223-0.837-0.726-1.787-1.228-2.568c-0.112-0.391-0.112-0.949,0-1.34c0.558-0.279,1.396-0.502,2.122-0.559
		c2.177,0.112,4.746,0.447,6.923,0.894c0.447,0.614,0.726,1.396,0.782,2.177c-0.056,1.396-0.056,4.243-0.112,6.477
		c4.131-1.228,10.329-2.401,15.186-2.624c1.787,0.502,3.685,1.563,4.857,2.624c0.167,0.614,0.167,1.34,0,2.01
		c-0.726,1.005-2.233,2.122-2.959,2.122c-6.142-0.167-14.237,0.223-19.876,1.172C95.035,48.351,93.025,46.955,91.909,45.28z
		 M106.537,0.67c0.614-0.335,1.619-0.614,2.177-0.67c1.842,0.391,4.746,1.843,6.7,3.406c0.391,0.559,0.67,1.396,0.726,2.122
		c-0.167,1.117-0.279,2.736-0.279,3.853c-0.056,2.178-0.168,5.695-0.223,9.268c1.787-0.837,3.797-1.563,5.527-1.898
		c1.507,0.502,3.071,1.73,4.02,2.792c0.223,0.726,0.223,1.842,0,2.568c-0.837,1.172-2.066,2.512-2.792,2.345
		c-2.066-0.502-4.69-0.782-6.923-0.894c-0.056,2.233-0.167,4.299-0.223,5.807c-0.112,1.508-0.614,3.127-1.563,4.913
		c-0.949,1.675-2.568,3.685-3.629,4.132c-0.949,0.335-2.457,0.67-3.685,0.837c0.614-0.782,1.061-2.01,1.284-3.853
		c0.279-1.954,0.447-5.136,0.447-7.258l-0.056-23.561c-0.279-0.838-0.837-1.787-1.507-2.568
		C106.425,1.563,106.425,1.061,106.537,0.67z"/>
	<path d="M164.722,27.079l2.345-8.319c-0.893-0.614-1.898-2.01-2.457-3.071c-0.056-0.614,0.056-1.34,0.279-1.954
		c5.695-4.188,13.623-7.649,19.485-9.101c2.01,0.949,4.132,2.568,5.471,4.076c0.223,0.726,0.223,1.619,0,2.345
		c-0.726,1.061-2.736,2.624-3.517,2.68c-4.02,0.391-9.659,2.01-13.791,3.741c0.056,0.056,0.112,0.112,0.167,0.112
		c0.503,0.335,0.893,1.172,0.726,2.01l-0.502,4.411c3.294-1.563,8.542-3.182,13.4-3.908c1.508,0.502,2.959,1.452,4.132,2.457
		c0.223,0.782,0.223,1.452,0,2.178c-0.447,0.837-1.898,2.512-2.68,2.568c-1.787,0.111-3.797,0.335-5.862,0.67
		c-0.167,1.396-0.279,3.071-0.335,4.801c-0.112,0.559-0.279,1.229-0.558,1.843l1.061-0.167c3.908-0.559,8.207-0.949,12.506-1.117
		c1.843,0.502,3.964,2.01,5.248,3.126c0.223,0.726,0.223,1.507,0,2.177c-0.893,1.229-2.624,2.513-3.35,2.401
		c-5.527-1.061-12.115-1.172-17.364-0.502c-8.989,1.117-16.861,3.573-23.226,6.253c-2.01-1.173-3.35-3.629-4.02-6.03
		c7.146-2.01,14.293-3.573,21.384-4.857c0.335-2.065,0.558-4.187,0.558-6.309c-1.731,0.446-3.35,0.949-4.69,1.452
		C167.011,30.484,165.337,28.977,164.722,27.079z"/>
	<path d="M240.887,14.852c0.112-0.894,0-2.066-0.279-3.071c0.056-0.391,0.335-0.894,0.558-1.229
		c0.726-0.056,1.731,0.167,2.177,0.335c1.675,0.838,3.629,2.401,4.913,3.853c0.056,0.335,0.056,1.117,0.056,1.787
		c0,0.167,0,0.279-0.056,0.391c0.726-0.056,1.452,0,2.01,0.111c3.35,0.894,6.476,4.914,6.476,8.04c0,1.061-0.335,2.177-0.837,3.238
		l6.588-0.614v-8.319c-1.954,0.391-3.908,0.949-5.527,1.675c-1.508-1.229-2.624-3.518-3.182-5.639l8.71-0.837V4.579
		c-0.279-0.838-0.837-1.787-1.507-2.568c-0.112-0.447-0.112-0.949,0-1.34c0.614-0.335,1.619-0.614,2.177-0.67
		c1.843,0.391,4.578,1.843,6.532,3.406c0.391,0.559,0.67,1.396,0.726,2.122c-0.167,1.117-0.279,2.736-0.279,3.853l-0.167,18.592
		c0,2.903-0.167,6.979-0.335,9.659c-0.056,1.507-0.558,4.857-1.34,7.37c-0.782,2.29-1.954,4.299-2.847,4.969
		c-0.838,0.559-2.457,0.949-3.908,1.117c0.223-1.731,0.558-4.076,0.726-6.03c0.167-2.066,0.279-5.137,0.279-7.761v-4.801
		c-2.01,0.391-3.964,0.949-5.583,1.675c-1.005-0.837-1.843-2.066-2.457-3.518c-2.345,3.071-6.198,5.583-9.771,5.807
		c-5.918,0.391-13.064-4.857-13.064-9.547C231.675,22.612,235.303,19.485,240.887,14.852z M246.47,19.709
		c-0.391,0.391-0.893,0.782-1.452,1.228c-2.68,2.122-4.857,4.132-4.857,5.751c0,1.675,2.512,3.796,4.578,3.573
		c2.233-0.167,4.69-3.238,4.69-5.304c0-1.34-0.502-2.792-1.731-3.964C247.196,20.546,246.805,20.156,246.47,19.709z"/>
	<path d="M316.883,10.05c-0.056-0.782-0.335-1.73-0.67-2.457c-0.112-0.391-0.056-0.949,0.056-1.34
		c0.558-0.279,1.507-0.447,2.177-0.502c1.675,0.391,4.969,1.954,6.812,3.406c0.447,0.782,0.614,1.619,0.614,2.401
		c-0.502,1.228-1.284,2.792-2.177,4.299c-0.502,0.837-1.005,1.675-1.619,2.568c2.847,0.949,5.639,2.512,7.537,4.076
		c0.614,1.061,1.005,2.736,1.005,4.243c-0.279,0.726-1.005,1.507-1.675,1.954c-0.949,0.224-2.847,0.112-4.188-0.335
		c-1.954-1.787-3.685-4.355-4.857-6.923c-2.289,3.127-5.025,6.309-7.817,8.989c-2.01,1.452-4.578,2.512-6.7,2.959
		c-0.67-0.335-1.173-0.837-1.396-1.507c0.391-0.949,1.005-2.122,1.563-3.015C310.63,22.556,314.706,15.912,316.883,10.05z
		 M325.928,32.495v-1.675c0.056-0.447,0.335-0.837,0.614-1.172c0.67-0.056,1.508,0,2.122,0.112c1.563,0.502,3.238,1.563,4.578,2.568
		c0,0.503,0,1.229-0.223,1.787c0,0.056-0.056,0.056-0.056,0.112c0.782-0.112,1.619-0.112,2.289,0.056l0.391,0.168
		c0.167-0.614,0.335-1.34,0.447-2.233c0.279-1.954,0.447-5.137,0.447-7.258l-0.056-6.755c-2.122,0.391-4.299,0.949-6.086,1.73
		c-1.508-1.228-2.568-3.685-3.127-5.807l9.212-0.893V4.579c-0.279-0.838-0.838-1.787-1.508-2.568c-0.112-0.447-0.112-0.949,0-1.34
		c0.614-0.335,1.619-0.614,2.177-0.67c1.843,0.391,4.857,1.843,6.812,3.406c0.391,0.559,0.67,1.396,0.726,2.122
		c-0.167,1.117-0.279,2.736-0.279,3.853c-0.112,4.634-0.335,11.892-0.614,16.806c-0.112,1.507-0.614,3.126-1.563,4.913
		c-0.949,1.675-2.568,3.629-3.629,4.131c-0.223,0.112-0.502,0.224-0.782,0.279c1.898,1.229,3.406,3.126,3.406,5.248
		c0,4.188-5.527,9.436-11.166,9.659c-5.695,0.279-12.116-3.406-12.116-8.319C317.944,38.915,321.685,35.342,325.928,32.495z
		 M331.288,36.179l-1.284,1.061c-2.233,1.73-4.076,3.461-4.076,4.857c0,1.34,2.345,2.959,4.243,2.847
		c1.843-0.112,3.852-2.792,3.852-4.188c0-1.116-0.781-2.065-1.507-2.792C331.958,37.408,331.511,36.793,331.288,36.179z"/>
	<path d="M389.865,9.436c0.167-0.949,0.112-1.954-0.112-2.903c0.056-0.447,0.335-0.894,0.558-1.229
		c0.726-0.056,1.731,0.167,2.177,0.335c1.675,0.837,3.462,2.01,4.69,3.183c0.056,0.335,0.056,1.117,0.056,1.787
		c0,0.167,0,0.279-0.056,0.447c0.838-0.112,1.619-0.056,2.233,0.167c3.071,1.172,5.974,5.081,5.974,7.537
		c0,4.188-5.806,10.162-11.446,10.44c-5.918,0.279-12.395-4.243-12.395-9.101C381.546,16.75,385.231,12.841,389.865,9.436z
		 M408.122,36.403c-4.243,0.279-9.882,1.061-14.74,2.792c-1.787-1.005-3.406-3.183-4.131-5.695c7.426-0.67,14.405-1.731,19.82-3.183
		c0.391-3.071,0.614-6.756,0.614-10.329l-0.056-15.409c-0.279-0.838-0.837-1.787-1.507-2.568c-0.112-0.447-0.112-0.949,0-1.34
		c0.614-0.335,1.619-0.614,2.177-0.67c1.842,0.391,4.969,1.843,6.923,3.406c0.391,0.559,0.67,1.396,0.726,2.122
		c-0.167,1.117-0.279,2.736-0.279,3.853c-0.056,1.619-0.056,4.188-0.168,6.812c1.843-0.837,3.741-1.619,5.416-1.954
		c1.508,0.559,3.127,1.731,4.02,2.792c0.223,0.726,0.223,1.843,0,2.568c-0.782,1.172-2.01,2.568-2.792,2.401
		c-2.066-0.502-4.578-0.837-6.812-0.894l-0.167,2.903c-0.112,1.005-0.837,2.624-1.787,3.797c-0.726,0.949-1.675,1.73-2.512,2.177
		c1.508,0.726,2.736,1.898,3.406,3.238l-0.502,11.501c-0.502,2.066-1.228,4.131-2.345,5.75c-1.061,0.559-3.685,0.837-4.857,0.67
		c-0.447-1.619-0.558-3.461-0.614-5.192L408.122,36.403z M395.336,13.735c-0.279,0.279-0.614,0.558-1.005,0.837
		c-2.122,1.619-4.746,3.797-4.746,5.472c0,1.731,2.736,3.517,4.467,3.406c1.842-0.112,4.187-2.68,4.187-4.69
		c0-1.172-0.837-2.568-2.01-3.796C395.783,14.572,395.56,14.125,395.336,13.735z"/>
	<path d="M460.278,28.642l2.233-10.887c-0.837-0.837-1.954-2.345-2.512-3.573c-0.056-0.614,0.056-1.34,0.279-1.954
		c5.025-2.345,11.222-4.746,15.466-5.583c2.01,0.782,4.02,2.178,5.192,3.462c0.223,0.726,0.223,1.675,0,2.345
		c-0.67,1.061-2.457,2.401-3.238,2.401c-2.457,0.279-5.304,1.005-8.151,1.842c0.335,0.447,0.447,1.005,0.335,1.675l-0.503,6.588
		c2.457-0.502,5.863-1.34,7.928-2.066c0.949-0.279,2.68-1.284,3.908-2.177c1.284-0.949,2.792-2.122,4.188-3.461
		c-0.67,2.233-1.675,5.025-2.624,6.7c-1.061,1.842-2.736,3.629-3.964,4.243c-3.518,1.675-9.156,3.741-13.846,4.69
		C462.958,32.271,461.004,30.484,460.278,28.642z M471.277,45.28l-0.447-7.202c-0.167-0.837-0.67-1.842-1.228-2.568
		c-0.112-0.447-0.112-0.949,0-1.34c0.614-0.335,1.396-0.559,2.177-0.614c2.122,0.112,4.69,0.447,6.923,0.949
		c0.391,0.558,0.67,1.396,0.726,2.122c-0.056,1.452-0.056,4.801-0.112,7.035c4.187-1.228,10.329-2.401,15.242-2.624
		c1.731,0.502,3.629,1.563,4.802,2.624c0.223,0.614,0.223,1.34,0,2.01c-0.67,1.005-2.177,2.122-2.959,2.122
		c-6.086-0.167-14.181,0.223-19.876,1.172C474.459,48.351,472.394,46.955,471.277,45.28z M485.738,0.67
		c0.614-0.335,1.619-0.614,2.177-0.67c1.842,0.391,4.969,1.843,6.923,3.406c0.391,0.559,0.67,1.396,0.726,2.122
		c-0.167,1.117-0.279,2.736-0.279,3.853c-0.056,2.122-0.168,5.472-0.223,8.989c1.842-0.838,3.797-1.563,5.471-1.898
		c1.508,0.558,3.127,1.731,4.02,2.792c0.223,0.726,0.223,1.898,0,2.568c-0.782,1.172-2.01,2.512-2.792,2.345
		c-2.066-0.446-4.634-0.782-6.867-0.837c-0.056,2.345-0.167,4.467-0.223,6.03c-0.112,1.508-0.614,3.127-1.563,4.913
		c-0.949,1.675-2.568,3.685-3.629,4.132c-0.949,0.335-2.68,0.67-3.908,0.837c0.614-0.782,1.061-2.01,1.284-3.853
		c0.279-1.954,0.447-5.136,0.447-7.258l-0.056-23.561c-0.279-0.838-0.837-1.787-1.507-2.568
		C485.626,1.563,485.626,1.061,485.738,0.67z"/>
</g>
</svg>