<!-- Generator: Adobe Illustrator 21.1.0, SVG Export Plug-In  -->
<svg version="1.1"
	 xmlns="http://www.w3.org/2000/svg" xmlns:xlink="http://www.w3.org/1999/xlink" xmlns:a="http://ns.adobe.com/AdobeSVGViewerExtensions/3.0/"
	 x="0px" y="0px" width="652.631px" height="184.553px" viewBox="0 0 652.631 184.553"
	 style="enable-background:new 0 0 652.631 184.553;" xml:space="preserve">
<defs>
</defs>
<g>
	<g>
		<path d="M15.82,14.615c0,7.309-3.443,10.5-7.308,10.5c-3.892,0-7.28-3.191-7.28-10.5c0-7.336,3.389-10.527,7.28-10.527
			C12.377,4.088,15.82,7.279,15.82,14.615z M8.513,24.136c1.651,0,3.079-2.044,3.079-9.521c0-7.531-1.428-9.575-3.079-9.575
			c-1.652,0-3.024,2.016-3.024,9.575C5.488,22.12,6.86,24.136,8.513,24.136z"/>
		<path d="M32.844,14.615c0,7.309-3.443,10.5-7.308,10.5c-3.892,0-7.28-3.191-7.28-10.5c0-7.336,3.389-10.527,7.28-10.527
			C29.4,4.088,32.844,7.279,32.844,14.615z M25.536,24.136c1.651,0,3.079-2.044,3.079-9.521c0-7.531-1.428-9.575-3.079-9.575
			c-1.652,0-3.024,2.016-3.024,9.575C22.512,22.12,23.884,24.136,25.536,24.136z"/>
		<path d="M49.867,14.615c0,7.309-3.443,10.5-7.308,10.5c-3.892,0-7.28-3.191-7.28-10.5c0-7.336,3.389-10.527,7.28-10.527
			C46.424,4.088,49.867,7.279,49.867,14.615z M42.56,24.136c1.651,0,3.079-2.044,3.079-9.521c0-7.531-1.428-9.575-3.079-9.575
			c-1.652,0-3.024,2.016-3.024,9.575C39.535,22.12,40.907,24.136,42.56,24.136z"/>
		<path d="M66.891,14.615c0,7.309-3.443,10.5-7.308,10.5c-3.892,0-7.28-3.191-7.28-10.5c0-7.336,3.389-10.527,7.28-10.527
			C63.447,4.088,66.891,7.279,66.891,14.615z M59.583,24.136c1.651,0,3.079-2.044,3.079-9.521c0-7.531-1.428-9.575-3.079-9.575
			c-1.652,0-3.024,2.016-3.024,9.575C56.559,22.12,57.931,24.136,59.583,24.136z"/>
		<path d="M80.891,15.26c-0.112,0.42-0.336,0.784-0.645,1.147H78.23c-0.252-0.588-0.42-1.428-0.477-2.155l-0.476-7.28
			c-0.28-0.42-0.84-0.812-1.456-1.063l0.252-0.98c0.027-0.112,0.141-0.196,0.364-0.196c1.231,0,3.304,0.168,4.536,0.364
			c1.008,0.028,3.023,0,4.004-0.056l1.371-0.672c0.168-0.084,0.449-0.084,0.617,0c0.447,0.224,1.287,0.756,1.623,1.008
			c0.141,0.111,0.141,0.252,0.084,0.476l-0.392,1.456c-0.028,0.393-0.056,0.784-0.084,1.204c0.7,0,1.54-0.028,2.185-0.056v-3.5
			c-0.309-0.561-1.037-1.12-1.877-1.484l0.42-1.092c0.057-0.14,0.168-0.225,0.504-0.225c1.261,0.057,3.276,0.505,4.201,0.952
			c0.307,0.141,0.42,0.393,0.391,0.784l-0.084,1.512v5.937c0,1.82-0.475,4.116-1.092,5.18H90.83
			c-0.279-0.84-0.447-3.107-0.447-4.368v-1.288c-0.869,0-1.793,0.057-2.465,0.112c-0.084,0.588-0.168,1.148-0.279,1.68l0.531,0.309
			c0.196,0.112,0.309,0.28,0.309,0.504c0,0.784-0.225,1.428-0.504,1.708L80.891,15.26z M84.559,7.392
			c-1.121,0-2.465,0.028-3.528,0.056v5.376c0.896,0.028,2.185,0,2.996-0.027l0.532-0.168V7.392z M96.822,17.416
			c0.195-0.084,0.447-0.084,0.645,0c0.504,0.224,1.483,0.672,1.848,0.924c0.14,0.084,0.168,0.252,0.084,0.476l-0.448,1.4
			c-0.14,1.288-0.392,2.688-0.728,3.892l0.56,0.309c0.224,0.14,0.336,0.308,0.336,0.531c0,0.784-0.28,1.456-0.588,1.736
			l-9.772,0.084c-0.14,0.364-0.363,0.672-0.672,0.98h-2.128c-0.28-0.532-0.476-1.316-0.532-2.017l-0.42-5.628
			c-0.363-0.42-1.035-0.868-1.68-1.12l0.28-1.036c0.028-0.111,0.14-0.195,0.364-0.195c1.231,0,3.556,0.168,4.871,0.336
			c1.428-0.028,5.18-0.084,6.608-0.168L96.822,17.416z M88.926,24.275c1.68,0.028,4.032,0,5.488-0.084l0.616-0.168l0.056-3.584
			c-1.932,0.028-4.312,0.084-6.16,0.141V24.275z M94.051,0.784c0.084-0.141,0.195-0.225,0.504-0.225
			c1.344,0.057,3.527,0.504,4.535,0.98c0.309,0.14,0.448,0.392,0.42,0.812l-0.111,1.652v7.308c0,1.484-0.532,4.145-1.148,5.349
			h-2.156c-0.252-0.868-0.447-3.444-0.447-4.509V3.5c-0.309-0.588-1.12-1.204-1.988-1.597L94.051,0.784z"/>
		<path d="M119.754,0.784c0.057-0.141,0.141-0.225,0.448-0.225c1.483,0.057,3.864,0.504,4.956,0.98
			c0.336,0.14,0.476,0.42,0.447,0.84l-0.14,1.82v15.68c0,1.96-0.476,5.824-1.288,7.868h-2.156c-0.252-0.952-0.447-5.376-0.447-6.721
			V13.02c-0.393,0-0.756,0.028-0.924,0.057c-0.448,0.056-1.4,0.279-1.877,0.447c-0.447-0.279-0.867-0.588-1.231-0.952l-0.028,1.345
			c0,0.952-0.168,2.128-0.392,2.828l0.672,0.252c0.14,0.056,0.252,0.224,0.252,0.42c0,0.672-0.224,1.344-0.476,1.596
			c-2.072-0.028-6.496,0.028-8.904,0.084c-0.225,0.644-0.561,1.064-0.868,1.288h-2.016c-0.308-0.729-0.476-1.792-0.476-2.408
			l-0.168-9.828c-0.252-0.392-1.009-0.924-1.597-1.147l0.252-0.952c0.056-0.112,0.168-0.196,0.504-0.196
			c1.064-0.027,3.472,0.196,4.312,0.42c0.309,0.084,0.421,0.28,0.421,0.672l-0.056,1.4v1.82l4.787-0.057V6.636
			c-0.308-0.448-0.979-0.952-1.623-1.26l0.336-0.952c0.056-0.14,0.168-0.224,0.504-0.196c1.119,0.057,3.5,0.532,4.312,0.896
			c0.308,0.14,0.42,0.336,0.392,0.672l-0.084,1.624l-0.056,3.416c0.56,0.027,1.204,0.056,1.735,0.056
			c0.533,0,1.457-0.028,2.297-0.056V3.668c-0.364-0.672-1.232-1.344-2.213-1.765L119.754,0.784z M108.946,12.487l-0.028,4.2
			l4.844-0.056v-4.2L108.946,12.487z"/>
		<path d="M151.842,14.615c0,7.309-3.443,10.5-7.308,10.5c-3.892,0-7.28-3.191-7.28-10.5c0-7.336,3.389-10.527,7.28-10.527
			C148.398,4.088,151.842,7.279,151.842,14.615z M144.534,24.136c1.651,0,3.079-2.044,3.079-9.521c0-7.531-1.428-9.575-3.079-9.575
			c-1.652,0-3.024,2.016-3.024,9.575C141.51,22.12,142.882,24.136,144.534,24.136z"/>
		<path d="M168.865,14.615c0,7.309-3.443,10.5-7.308,10.5c-3.892,0-7.28-3.191-7.28-10.5c0-7.336,3.389-10.527,7.28-10.527
			C165.422,4.088,168.865,7.279,168.865,14.615z M161.558,24.136c1.651,0,3.079-2.044,3.079-9.521c0-7.531-1.428-9.575-3.079-9.575
			c-1.652,0-3.024,2.016-3.024,9.575C158.533,22.12,159.905,24.136,161.558,24.136z"/>
		<path d="M173.933,24.836c-1.204-0.645-1.651-1.54-1.651-2.353c0-1.399,1.092-2.464,2.547-2.464c0.785,0,1.457,0.168,2.101,0.784
			c0.336,0.84,0.448,1.428,0.448,2.352c0,4.032-3.107,6.805-5.936,7.784l-0.336-0.812c2.295-1.232,3.611-2.492,4.228-4.536
			L173.933,24.836z"/>
		<path d="M206.105,14.027c-0.729,0.028-1.429,0.057-1.793,0.112c-0.447,0.056-1.231,0.196-1.707,0.336
			c-0.589-0.364-1.121-0.784-1.597-1.231c-1.092,1.68-3.108,2.716-5.628,2.716c-3.863,0-6.58-2.492-6.58-6.021
			c0-3.5,2.717-5.936,6.58-5.936c3.893,0,6.58,2.436,6.58,5.936c0,0.7-0.112,1.372-0.309,1.988c0.477,0.028,1.008,0.056,1.457,0.056
			c0.672,0,1.932-0.027,2.996-0.084v-3.92c-0.365,0.028-0.701,0.057-0.896,0.084c-0.448,0.057-1.232,0.196-1.708,0.336
			c-0.841-0.504-1.54-1.147-2.101-1.792c-0.14-0.168-0.14-0.279-0.084-0.42l0.309-0.448c0.645,0.112,1.624,0.169,2.38,0.169
			c0.476,0,1.288,0,2.101-0.028V3.64c-0.337-0.644-1.177-1.315-2.101-1.708l0.392-1.147c0.057-0.141,0.168-0.225,0.477-0.225
			c1.455,0.057,3.752,0.504,4.816,0.98c0.307,0.14,0.447,0.42,0.42,0.84l-0.113,1.764v9.072c0,2.268-0.475,5.6-1.26,7.392h-2.184
			c-0.279-1.036-0.447-4.844-0.447-6.3V14.027z M195.381,13.104c1.68,0,2.8-1.204,2.8-3.164s-1.12-3.191-2.8-3.191
			s-2.8,1.231-2.8,3.191S193.701,13.104,195.381,13.104z M208.009,23.884c1.008-0.028,2.464,0.084,3.164,0.252
			c0.364,0.084,0.588,0.336,0.588,0.672c0,0.924-0.308,1.596-0.532,1.82c-0.14,0.14-0.363,0.195-0.615,0.195l-11.789,0.112
			c-2.268-0.028-3.164-0.952-3.164-2.716v-3.276c-0.447-0.42-1.203-0.868-1.932-1.147l0.225-0.952c0.027-0.14,0.195-0.28,0.476-0.28
			c1.315,0,3.668,0.168,4.677,0.393c0.363,0.084,0.56,0.336,0.56,0.756l-0.056,1.596v2.632c0,0.477,0.195,0.7,0.672,0.7
			c1.596,0.028,4.844-0.028,6.496-0.084L208.009,23.884z"/>
		<path d="M235.925,12.628c1.231,0.056,3.024,0.336,3.78,0.616c0.308,0.111,0.504,0.363,0.504,0.728
			c0,0.812-0.532,1.568-0.952,1.764c-0.7-0.084-2.772-0.14-3.724-0.14c-1.933,0-12.853,0.112-14.617,0.224
			c-0.756,0.057-2.575,0.364-3.387,0.588c-1.177-0.476-2.492-1.428-3.332-2.268c-0.112-0.112-0.141-0.308-0.084-0.448l0.279-0.531
			c1.176,0.195,2.717,0.308,3.836,0.336c1.904,0.027,14.364-0.112,16.38-0.28L235.925,12.628z M216.604,11.508
			c-0.112-0.14-0.084-0.309,0.084-0.393c4.173-2.016,7.112-4.508,8.652-7.279c-0.196-0.393-0.7-0.896-1.231-1.204l0.504-0.924
			c0.084-0.141,0.252-0.196,0.56-0.168c1.344,0.14,3.556,0.728,4.396,1.176c0.364,0.168,0.561,0.448,0.561,0.756
			c-0.028,0.448-0.112,0.7-0.225,0.896c-0.279,0.476-0.615,0.951-1.008,1.399l3.612,1.568h2.296
			c0.729,0.392,1.736,1.036,2.212,1.483c0.392,0.364,0.56,0.673,0.56,0.98c0,0.672-0.644,1.344-1.203,1.428
			c-0.336,0.028-0.756-0.084-1.092-0.224l-8.037-3.584c-2.491,2.156-5.907,3.836-9.688,4.788c-0.252,0.084-0.363,0.056-0.447-0.028
			L216.604,11.508z M235.084,24.947c0.168,0.084,0.252,0.196,0.252,0.42c0,0.645-0.168,1.261-0.363,1.513
			c-2.604-0.028-8.344,0-11.312,0.056c-0.224,0.42-0.504,0.729-0.756,0.896h-1.932c-0.336-0.645-0.504-1.597-0.504-2.185
			l-0.111-5.88c-0.253-0.364-0.98-0.84-1.568-1.063l0.252-0.925c0.056-0.111,0.168-0.195,0.504-0.195
			c1.064-0.028,3.388,0.195,4.228,0.42c0.28,0.084,0.392,0.279,0.392,0.672l-0.055,1.372v0.448l6.859-0.084v-1.261
			c-0.28-0.42-0.952-0.896-1.568-1.176l0.364-1.008c0.056-0.14,0.168-0.224,0.504-0.196c1.093,0.057,3.332,0.448,4.144,0.756
			c0.309,0.112,0.42,0.336,0.393,0.672l-0.057,1.429l-0.027,2.323c0,0.896-0.196,2.045-0.448,2.66L235.084,24.947z M224.053,22.735
			l-0.057,1.876l6.973-0.056v-1.904L224.053,22.735z"/>
		<path d="M249.365,11.844c-1.568,2.072-3.725,4.004-6.328,5.544c-0.225,0.14-0.365,0.14-0.504,0.028L241.86,16.8
			c-0.14-0.14-0.112-0.28,0.028-0.448c3.22-3.107,5.264-6.636,5.88-9.939c-0.224-0.448-0.784-1.009-1.399-1.345l0.504-1.008
			c0.056-0.112,0.195-0.168,0.476-0.14c1.26,0.111,3.416,0.672,4.2,1.092c0.336,0.168,0.531,0.42,0.531,0.7
			c0.028,0.308,0,0.616-0.056,0.812c-0.252,1.092-0.7,2.212-1.344,3.332l1.512,1.708l1.624,0.532
			c0.393,0.672,0.896,1.708,1.092,2.296c0.168,0.504,0.141,0.84,0.028,1.036c-0.28,0.56-1.176,0.84-1.708,0.616
			c-0.252-0.084-0.561-0.393-0.784-0.645L249.365,11.844z M264.092,22.092c0,3.388-3.023,5.404-6.551,5.404
			c-3.528,0-6.553-2.017-6.553-5.404c0-3.108,3.024-4.956,6.553-4.956C261.068,17.136,264.092,18.983,264.092,22.092z
			 M259.641,0.784c0.084-0.141,0.195-0.225,0.504-0.225c1.344,0.057,3.527,0.504,4.536,0.98c0.308,0.14,0.448,0.392,0.42,0.812
			l-0.112,1.652v8.428c0,1.484-0.531,4.145-1.148,5.348h-2.155c-0.252-0.867-0.448-3.443-0.448-4.508v-2.128l-1.904,0.056v0.141
			c0,1.82-0.476,4.116-1.092,5.18h-2.016c-0.28-0.84-0.448-3.107-0.448-4.368V4.956c-0.308-0.561-1.036-1.12-1.876-1.484l0.42-1.092
			c0.057-0.14,0.168-0.225,0.504-0.225c1.26,0.057,3.276,0.505,4.2,0.952c0.308,0.141,0.42,0.393,0.392,0.784l-0.084,1.512v3.416
			l1.904-0.056V3.5c-0.308-0.588-1.119-1.204-1.988-1.597L259.641,0.784z M260.201,22.092c0-1.512-1.177-2.353-2.66-2.353
			c-1.484,0-2.66,0.841-2.66,2.353c0,1.54,1.176,2.352,2.66,2.352C259.024,24.443,260.201,23.632,260.201,22.092z"/>
		<path d="M291.98,14.84c0.476,0.756,1.119,1.96,1.371,2.604c0.225,0.616,0.225,1.009,0.084,1.288
			c-0.308,0.616-1.231,0.924-1.791,0.7c-0.28-0.112-0.617-0.448-0.869-0.728l-4.479-5.181c-1.764,2.492-4.2,4.872-7.168,6.748
			c-0.196,0.112-0.336,0.112-0.476,0.028l-0.672-0.561c-0.112-0.111-0.112-0.252,0.027-0.42c3.809-3.808,6.217-8.315,6.86-12.376
			c-0.28-0.56-0.924-1.204-1.624-1.567l0.477-0.98c0.084-0.14,0.195-0.195,0.476-0.168c1.315,0.112,3.668,0.729,4.563,1.176
			c0.336,0.168,0.561,0.448,0.561,0.729c0,0.308-0.028,0.616-0.084,0.84c-0.28,1.456-0.84,2.968-1.652,4.452l2.66,2.8L291.98,14.84z
			 M293.996,0.784c0.057-0.141,0.141-0.225,0.447-0.225c1.484,0.057,3.865,0.504,4.957,0.98c0.336,0.14,0.476,0.42,0.447,0.84
			l-0.14,1.82v15.68c0,1.96-0.476,5.824-1.288,7.868h-2.156c-0.252-0.952-0.447-5.376-0.447-6.721V3.668
			c-0.364-0.672-1.232-1.344-2.213-1.765L293.996,0.784z"/>
		<path d="M314.184,11.34c-2.296,2.156-5.096,4.032-8.147,5.348c-0.252,0.112-0.42,0.141-0.532,0.057l-0.561-0.589
			c-0.139-0.14-0.139-0.279,0-0.447c3.949-2.688,7.084-6.44,8.82-9.8c-1.176,0-2.604,0.027-3.08,0.056
			c-0.588,0.028-1.652,0.224-2.268,0.448c-0.952-0.504-1.932-1.288-2.604-1.988c-0.141-0.168-0.168-0.28-0.084-0.42l0.252-0.42
			c0.924,0.14,2.1,0.195,2.939,0.195c1.008,0,4.704-0.056,6.048-0.111l1.288-0.532c0.225-0.084,0.504-0.084,0.729,0
			c0.588,0.224,1.707,0.728,2.127,0.952c0.168,0.112,0.197,0.336,0.084,0.532l-0.728,1.147c-0.672,1.316-1.567,2.604-2.632,3.836
			l1.764,1.568l1.316,0.336c0.531,0.644,1.204,1.68,1.456,2.268c0.224,0.477,0.28,0.84,0.168,1.093
			c-0.28,0.588-1.12,0.924-1.708,0.756c-0.309-0.084-0.645-0.364-0.896-0.616L314.184,11.34z M324.88,24.248
			c0.924-0.028,2.269,0.111,2.912,0.279c0.336,0.084,0.56,0.336,0.56,0.672c0,0.812-0.224,1.4-0.42,1.597
			c-0.14,0.14-0.363,0.195-0.588,0.195l-12.18,0.084c-1.96-0.027-2.717-0.812-2.717-2.352v-2.1c-0.363-0.42-0.951-0.757-1.623-1.009
			l0.14-0.812c0.028-0.112,0.14-0.196,0.336-0.196c1.204,0,4.032,0.057,5.097,0.168c1.512,0,4.592-0.027,5.6-0.084l0.588-0.14
			c0.056-0.42,0.084-1.344,0.056-1.68c-1.819,0-5.432,0.027-6.3,0.084c-0.699,0.027-1.876,0.195-2.66,0.392
			c-0.98-0.532-1.96-1.316-2.688-2.044c-0.141-0.14-0.141-0.224-0.084-0.392l0.252-0.448c0.896,0.168,2.38,0.28,3.107,0.28
			c1.344,0,7.588-0.057,9.045-0.112l1.203-0.504c0.168-0.084,0.364-0.084,0.588,0c0.477,0.168,1.457,0.56,1.848,0.756
			c0.141,0.112,0.169,0.308,0.084,0.532l-0.504,1.12c-0.055,0.615-0.363,1.624-0.588,2.1l0.533,0.252
			c0.168,0.084,0.279,0.252,0.279,0.42c0,0.616-0.225,1.204-0.42,1.456l-9.996,0.112v1.288c0,0.42,0.168,0.588,0.532,0.588
			c1.764,0.027,5.432,0,7.084-0.057L324.88,24.248z M318.132,7.896c0.644,0.112,1.567,0.141,2.296,0.141
			c0.588,0.027,1.596,0,2.52-0.028V3.64c-0.336-0.644-1.176-1.315-2.1-1.708l0.393-1.147c0.056-0.141,0.168-0.225,0.476-0.225
			c1.456,0.057,3.752,0.504,4.815,0.98c0.309,0.14,0.449,0.42,0.42,0.84l-0.111,1.764v5.824c0,1.428-0.561,4.06-1.176,5.18h-2.268
			c-0.281-0.812-0.449-3.332-0.449-4.368v-0.644c-0.56,0.028-1.063,0.056-1.344,0.112c-0.447,0.027-1.231,0.252-1.68,0.447
			c-0.783-0.56-1.484-1.26-2.044-1.932c-0.112-0.14-0.14-0.28-0.056-0.42L318.132,7.896z"/>
		<path d="M354.224,12.235c0,3.612-2.94,6.272-6.916,6.272s-6.916-2.66-6.916-6.272c0-3.611,2.94-6.3,6.916-6.3
			S354.224,8.624,354.224,12.235z M350.191,12.235c0-1.987-1.176-3.275-2.884-3.275s-2.884,1.288-2.884,3.275
			c0,1.988,1.176,3.248,2.884,3.248S350.191,14.224,350.191,12.235z M362.903,10.947c0.84-0.027,2.044,0.028,2.576,0.141
			c0.392,0.084,0.644,0.364,0.672,0.728c0.056,0.7-0.112,1.429-0.336,1.708c-0.196,0.252-0.644,0.364-0.979,0.364l-4.117,0.14v5.853
			c0,1.96-0.475,5.824-1.287,7.868h-2.156c-0.252-0.952-0.447-5.376-0.447-6.721V3.668c-0.365-0.672-1.232-1.344-2.213-1.765
			l0.393-1.119c0.056-0.141,0.14-0.225,0.447-0.225c1.484,0.057,3.864,0.504,4.957,0.98c0.336,0.14,0.475,0.42,0.447,0.84
			l-0.141,1.82v7.447l1.289-0.084L362.903,10.947z"/>
		<path d="M388.523,13.775c1.232,0.057,3.023,0.336,3.779,0.616c0.309,0.112,0.504,0.364,0.504,0.729
			c0,0.812-0.531,1.567-0.951,1.764c-0.7-0.084-2.771-0.14-3.725-0.14c-1.932,0-12.852,0.111-14.615,0.224
			c-0.756,0.056-2.576,0.364-3.389,0.588c-1.176-0.476-2.492-1.428-3.332-2.268c-0.111-0.112-0.14-0.309-0.084-0.448l0.28-0.532
			c1.177,0.196,2.716,0.308,3.836,0.336c1.904,0.028,14.364-0.112,16.38-0.28L388.523,13.775z M385.695,2.24
			c1.036,0.027,2.492,0.224,3.052,0.42c0.252,0.084,0.448,0.363,0.448,0.615c0,0.812-0.448,1.568-0.756,1.792
			c-0.561-0.056-2.324-0.056-3.053-0.056c-1.344,0-9.127,0.112-10.332,0.168c-0.615,0.028-1.735,0.224-2.323,0.392
			c-0.979-0.504-2.017-1.371-2.688-2.128c-0.084-0.111-0.084-0.252-0.027-0.363l0.224-0.448c1.036,0.168,2.408,0.28,3.192,0.28
			c1.428,0.027,9.604-0.112,11.172-0.196L385.695,2.24z M370.604,10.443c1.035,0.168,2.408,0.28,3.191,0.28h1.037l-0.309-2.52
			c-0.168-0.336-0.588-0.7-1.008-0.925l0.336-0.924c0.084-0.168,0.195-0.252,0.531-0.224c1.037,0.084,2.549,0.392,3.305,0.728
			c0.279,0.112,0.336,0.309,0.308,0.616l-0.056,1.036l0.111,2.156l3.528-0.084l0.028-3.192c-0.196-0.28-0.616-0.56-1.036-0.672
			l0.28-0.952c0.056-0.14,0.168-0.224,0.531-0.224c1.037,0.027,2.66,0.224,3.473,0.448c0.252,0.084,0.336,0.279,0.308,0.644
			l-0.084,0.979l-0.28,2.828h0.084l1.037-0.42c0.924,0.028,2.239,0.225,2.799,0.42c0.225,0.084,0.393,0.336,0.393,0.616
			c0,0.784-0.448,1.54-0.756,1.736c-0.504-0.057-2.072-0.057-2.744-0.057c-1.288,0-8.932,0.168-10.191,0.253
			c-0.617,0.027-1.736,0.224-2.324,0.392c-0.98-0.504-2.017-1.372-2.688-2.128c-0.084-0.112-0.084-0.252-0.028-0.364L370.604,10.443
			z M385.051,18.256c0.196-0.084,0.449-0.084,0.645,0c0.504,0.224,1.484,0.672,1.848,0.924c0.141,0.084,0.168,0.252,0.084,0.476
			l-0.447,1.4c-0.168,1.036-0.393,2.156-0.729,3.164l0.561,0.308c0.195,0.112,0.336,0.28,0.336,0.504
			c0,0.784-0.309,1.456-0.588,1.736l-9.996,0.084c-0.141,0.364-0.364,0.672-0.672,0.952h-2.129
			c-0.279-0.561-0.476-1.344-0.531-2.044l-0.42-4.816c-0.364-0.42-1.036-0.868-1.68-1.12l0.279-1.035
			c0.027-0.112,0.141-0.196,0.364-0.196c1.231,0,3.556,0.168,4.872,0.336c1.484-0.028,5.375-0.084,6.832-0.168L385.051,18.256z
			 M376.932,24.359c1.707,0.028,4.172,0,5.684-0.084l0.645-0.168l0.056-2.828c-2.017,0.028-4.479,0.084-6.384,0.141V24.359z"/>
		<path d="M418.398,13.355c0.028,0.168-0.056,0.309-0.279,0.42c-2.129,1.008-5.684,1.876-8.008,2.017
			c-0.477,0.027-0.896,0.027-1.316,0.027c-2.016,0-2.688-0.363-3.305-1.903c-0.055-0.141-0.111-0.896-0.111-1.736V6.216
			c-0.364-0.477-1.008-0.952-1.764-1.232l0.252-1.008c0.056-0.112,0.14-0.196,0.336-0.196c1.203,0,4.031,0.141,5.068,0.364
			c0.924-0.027,3.051-0.168,3.752-0.252l0.867-0.588c0.868,0,2.156,0.056,2.828,0.196c0.364,0.084,0.532,0.308,0.532,0.644
			c0,0.812-0.224,1.456-0.476,1.708c-0.141,0.141-0.309,0.196-0.588,0.196l-6.945,0.308v2.212c0.896-0.027,2.072-0.111,2.604-0.224
			l0.812-0.448c0.757-0.027,1.904,0,2.437,0.112c0.364,0.056,0.56,0.336,0.56,0.616c0,0.699-0.195,1.288-0.392,1.483
			c-0.14,0.141-0.42,0.196-0.7,0.225l-5.32,0.363v1.624c0,0.393,0.168,0.561,0.589,0.561c2.239-0.028,5.964-0.336,7.924-0.7
			c0.252-0.056,0.392,0,0.42,0.196L418.398,13.355z M423.41,24.332c0.896-0.028,2.24,0.111,2.885,0.279
			c0.336,0.084,0.561,0.336,0.561,0.672c0,0.812-0.225,1.4-0.421,1.597c-0.14,0.14-0.364,0.195-0.588,0.195l-12.124,0.084
			c-1.988-0.027-2.744-0.812-2.744-2.352v-1.96c-0.363-0.42-0.951-0.756-1.623-1.008l0.14-0.812c0.028-0.111,0.14-0.195,0.336-0.195
			c1.204,0,4.004,0.056,5.096,0.168c1.624,0,4.479-0.028,5.488-0.084l0.616-0.141c0.027-0.42,0.056-1.26,0.027-1.596
			c-1.764,0-5.348,0.028-6.216,0.084c-0.7,0.028-1.876,0.196-2.66,0.392c-0.979-0.531-1.96-1.315-2.688-2.044
			c-0.14-0.14-0.14-0.224-0.085-0.392l0.253-0.448c0.896,0.168,2.38,0.28,3.108,0.28c1.344,0,7.615-0.056,8.959-0.112l1.204-0.504
			c0.169-0.084,0.364-0.084,0.589,0c0.476,0.168,1.455,0.561,1.848,0.756c0.14,0.112,0.168,0.309,0.084,0.532l-0.504,1.12
			c-0.057,0.588-0.336,1.568-0.561,2.016l0.504,0.252c0.168,0.084,0.28,0.252,0.28,0.42c0,0.616-0.224,1.204-0.42,1.456
			l-9.884,0.112v1.148c0,0.42,0.168,0.588,0.531,0.588c1.736,0.027,5.404,0,7.084-0.057L423.41,24.332z M416.747,7.784
			c0.644,0.084,1.567,0.14,2.323,0.14c0.561,0,1.513-0.028,2.381-0.056V3.64c-0.336-0.644-1.176-1.315-2.101-1.708l0.392-1.147
			c0.057-0.141,0.168-0.225,0.477-0.225c1.456,0.057,3.752,0.504,4.816,0.98c0.308,0.14,0.447,0.42,0.42,0.84l-0.112,1.764v6.3
			c0,1.429-0.56,4.061-1.176,5.181h-2.269c-0.279-0.812-0.447-3.332-0.447-4.34V9.996c-0.504,0.027-0.98,0.056-1.232,0.111
			c-0.42,0.057-1.204,0.252-1.652,0.42c-0.783-0.531-1.512-1.26-2.072-1.932c-0.111-0.168-0.139-0.28-0.055-0.42L416.747,7.784z"/>
		<path d="M446.623,0.784c0.056-0.141,0.14-0.225,0.447-0.225c1.484,0.057,3.864,0.504,4.957,0.98c0.336,0.14,0.475,0.42,0.447,0.84
			l-0.141,1.82v15.68c0,1.96-0.475,5.824-1.287,7.868h-2.156c-0.252-0.952-0.447-5.376-0.447-6.721v-7.699
			c-0.337,0-0.673,0.027-0.812,0.056c-0.448,0.056-1.428,0.336-1.876,0.504c-0.448-0.224-0.868-0.476-1.232-0.756
			c-0.364,3.248-3.192,5.544-6.888,5.544c-4.004,0-6.916-2.632-6.916-6.272c0-3.64,2.912-6.3,6.916-6.3
			c3.5,0,6.216,2.072,6.804,5.068c0.616,0.027,1.261,0.056,1.792,0.056c0.532,0,1.428,0,2.213-0.056V3.668
			c-0.365-0.672-1.232-1.344-2.213-1.765L446.623,0.784z M440.519,12.403c0-2.016-1.176-3.275-2.884-3.275s-2.884,1.26-2.884,3.275
			c0,1.988,1.176,3.248,2.884,3.248S440.519,14.392,440.519,12.403z"/>
		<path d="M479.774,11.256c0.84-0.028,2.044,0.028,2.576,0.14c0.392,0.084,0.644,0.364,0.672,0.729
			c0.056,0.699-0.112,1.428-0.336,1.708c-0.196,0.252-0.644,0.363-0.979,0.363l-4.117,0.141v5.544c0,1.96-0.475,5.824-1.287,7.868
			h-2.156c-0.252-0.952-0.447-5.376-0.447-6.721v-1.288c-2.996,0.729-8.064,1.456-11.061,1.681c-0.7,0.056-1.988,0.336-2.66,0.588
			c-1.12-0.561-2.492-1.568-3.388-2.464c-0.14-0.141-0.168-0.225-0.084-0.393l0.252-0.56c1.176,0.196,2.688,0.252,3.864,0.224
			c0.924,0,2.016-0.056,3.191-0.14V14.42l-1.344,0.056c-2.212-0.028-3.305-1.147-3.305-3.023V7.084
			c-0.363-0.42-1.063-0.84-1.735-1.12l0.252-0.952c0.028-0.14,0.196-0.28,0.476-0.28c1.26,0,3.473,0.168,4.424,0.393
			c0.393,0.084,0.561,0.363,0.561,0.784l-0.057,1.567v4.004c0,0.477,0.197,0.7,0.673,0.7c1.092,0,3.556-0.084,4.563-0.196
			l0.868-0.644c0.952-0.028,2.296,0.112,2.94,0.252c0.363,0.084,0.56,0.336,0.56,0.672c0,0.868-0.252,1.512-0.504,1.736
			c-0.112,0.111-0.336,0.168-0.588,0.168l-4.2,0.14v4.116c2.436-0.225,4.816-0.504,6.301-0.812V3.668
			c-0.365-0.672-1.232-1.344-2.213-1.765l0.393-1.119c0.056-0.141,0.14-0.225,0.447-0.225c1.484,0.057,3.864,0.504,4.957,0.98
			c0.336,0.14,0.475,0.42,0.447,0.84L477.59,4.2v7.756l1.289-0.084L479.774,11.256z"/>
		<path d="M15.82,48.215c0,7.309-3.443,10.5-7.308,10.5c-3.892,0-7.28-3.191-7.28-10.5c0-7.336,3.389-10.527,7.28-10.527
			C12.377,37.688,15.82,40.879,15.82,48.215z M8.513,57.735c1.651,0,3.079-2.044,3.079-9.521c0-7.531-1.428-9.575-3.079-9.575
			c-1.652,0-3.024,2.016-3.024,9.575C5.488,55.72,6.86,57.735,8.513,57.735z"/>
		<path d="M32.844,48.215c0,7.309-3.443,10.5-7.308,10.5c-3.892,0-7.28-3.191-7.28-10.5c0-7.336,3.389-10.527,7.28-10.527
			C29.4,37.688,32.844,40.879,32.844,48.215z M25.536,57.735c1.651,0,3.079-2.044,3.079-9.521c0-7.531-1.428-9.575-3.079-9.575
			c-1.652,0-3.024,2.016-3.024,9.575C22.512,55.72,23.884,57.735,25.536,57.735z"/>
		<path d="M49.867,48.215c0,7.309-3.443,10.5-7.308,10.5c-3.892,0-7.28-3.191-7.28-10.5c0-7.336,3.389-10.527,7.28-10.527
			C46.424,37.688,49.867,40.879,49.867,48.215z M42.56,57.735c1.651,0,3.079-2.044,3.079-9.521c0-7.531-1.428-9.575-3.079-9.575
			c-1.652,0-3.024,2.016-3.024,9.575C39.535,55.72,40.907,57.735,42.56,57.735z"/>
		<path d="M66.891,48.215c0,7.309-3.443,10.5-7.308,10.5c-3.892,0-7.28-3.191-7.28-10.5c0-7.336,3.389-10.527,7.28-10.527
			C63.447,37.688,66.891,40.879,66.891,48.215z M59.583,57.735c1.651,0,3.079-2.044,3.079-9.521c0-7.531-1.428-9.575-3.079-9.575
			c-1.652,0-3.024,2.016-3.024,9.575C56.559,55.72,57.931,57.735,59.583,57.735z"/>
		<path d="M85.762,34.384c0.057-0.141,0.141-0.225,0.448-0.225c1.484,0.057,3.864,0.504,4.956,0.98
			c0.336,0.14,0.477,0.42,0.448,0.84l-0.14,1.82v15.68c0,1.96-0.477,5.824-1.289,7.868H88.03c-0.252-0.952-0.448-5.376-0.448-6.721
			v-1.624c-3.304,0.757-8.988,1.568-12.264,1.765c-0.729,0.056-2.044,0.336-2.717,0.615c-1.119-0.588-2.491-1.596-3.387-2.491
			c-0.141-0.141-0.168-0.225-0.084-0.393l0.252-0.56c1.176,0.196,2.688,0.252,3.863,0.224c4.032-0.084,11.229-0.644,14.336-1.315
			v-13.58c-0.363-0.672-1.232-1.344-2.212-1.765L85.762,34.384z M71.426,43.623c0-3.191,2.717-5.544,6.553-5.544
			s6.607,2.353,6.607,5.544c0,3.276-2.771,5.628-6.607,5.628S71.426,46.899,71.426,43.623z M75.262,43.623
			c0,1.652,1.092,2.716,2.717,2.716c1.623,0,2.716-1.063,2.716-2.716c0-1.651-1.093-2.716-2.716-2.716
			C76.354,40.907,75.262,41.972,75.262,43.623z"/>
		<path d="M109.702,48.859c-0.112,0.42-0.336,0.784-0.644,1.147h-2.016c-0.253-0.588-0.421-1.428-0.477-2.155l-0.477-7.28
			c-0.279-0.42-0.84-0.812-1.455-1.063l0.252-0.98c0.027-0.112,0.14-0.196,0.363-0.196c1.232,0,3.305,0.168,4.536,0.364
			c1.009,0.028,3.024,0,4.004-0.056l1.372-0.672c0.168-0.084,0.448-0.084,0.616,0c0.448,0.224,1.288,0.756,1.624,1.008
			c0.14,0.111,0.14,0.252,0.084,0.476l-0.393,1.456c-0.027,0.393-0.056,0.784-0.084,1.204c0.7,0,1.541-0.028,2.185-0.056v-3.5
			c-0.308-0.561-1.036-1.12-1.876-1.484l0.42-1.092c0.057-0.14,0.168-0.225,0.504-0.225c1.26,0.057,3.275,0.505,4.2,0.952
			c0.308,0.141,0.42,0.393,0.392,0.784l-0.084,1.512v5.937c0,1.82-0.476,4.116-1.092,5.18h-2.016
			c-0.28-0.84-0.448-3.107-0.448-4.368v-1.288c-0.868,0-1.792,0.057-2.464,0.112c-0.084,0.588-0.168,1.148-0.28,1.68l0.532,0.309
			c0.195,0.112,0.308,0.28,0.308,0.504c0,0.784-0.224,1.428-0.504,1.708L109.702,48.859z M113.37,40.991
			c-1.12,0-2.464,0.028-3.528,0.056v5.376c0.896,0.028,2.185,0,2.996-0.027l0.532-0.168V40.991z M125.635,51.016
			c0.195-0.084,0.447-0.084,0.644,0c0.504,0.224,1.483,0.672,1.848,0.924c0.14,0.084,0.168,0.252,0.084,0.476l-0.448,1.4
			c-0.14,1.288-0.392,2.688-0.728,3.892l0.56,0.309c0.225,0.14,0.336,0.308,0.336,0.531c0,0.784-0.279,1.456-0.588,1.736
			l-9.771,0.084c-0.141,0.364-0.364,0.672-0.672,0.98h-2.129c-0.279-0.532-0.475-1.316-0.531-2.017l-0.42-5.628
			c-0.364-0.42-1.036-0.868-1.68-1.12l0.279-1.036c0.028-0.111,0.141-0.195,0.364-0.195c1.231,0,3.556,0.168,4.872,0.336
			c1.428-0.028,5.18-0.084,6.607-0.168L125.635,51.016z M117.738,57.875c1.68,0.028,4.031,0,5.488-0.084l0.615-0.168l0.057-3.584
			c-1.932,0.028-4.312,0.084-6.16,0.141V57.875z M122.862,34.384c0.084-0.141,0.196-0.225,0.504-0.225
			c1.344,0.057,3.528,0.504,4.536,0.98c0.308,0.14,0.447,0.392,0.42,0.812l-0.112,1.652v7.308c0,1.484-0.532,4.145-1.147,5.349
			h-2.156c-0.252-0.868-0.448-3.444-0.448-4.509V37.1c-0.308-0.588-1.12-1.204-1.987-1.597L122.862,34.384z"/>
		<path d="M148.566,34.384c0.056-0.141,0.14-0.225,0.447-0.225c1.484,0.057,3.864,0.504,4.957,0.98
			c0.336,0.14,0.475,0.42,0.447,0.84l-0.141,1.82v15.68c0,1.96-0.475,5.824-1.287,7.868h-2.156
			c-0.252-0.952-0.447-5.376-0.447-6.721v-8.008c-0.393,0-0.757,0.028-0.925,0.057c-0.448,0.056-1.399,0.279-1.876,0.447
			c-0.447-0.279-0.867-0.588-1.232-0.952l-0.027,1.345c0,0.952-0.168,2.128-0.393,2.828l0.672,0.252
			c0.141,0.056,0.252,0.224,0.252,0.42c0,0.672-0.223,1.344-0.476,1.596c-2.071-0.028-6.495,0.028-8.903,0.084
			c-0.225,0.644-0.561,1.064-0.869,1.288h-2.016c-0.308-0.729-0.476-1.792-0.476-2.408l-0.168-9.828
			c-0.252-0.392-1.009-0.924-1.597-1.147l0.252-0.952c0.057-0.112,0.168-0.196,0.505-0.196c1.063-0.027,3.472,0.196,4.312,0.42
			c0.309,0.084,0.42,0.28,0.42,0.672l-0.056,1.4v1.82l4.788-0.057v-3.472c-0.309-0.448-0.98-0.952-1.624-1.26l0.336-0.952
			c0.056-0.14,0.168-0.224,0.504-0.196c1.12,0.057,3.5,0.532,4.312,0.896c0.309,0.14,0.42,0.336,0.393,0.672l-0.084,1.624
			l-0.057,3.416c0.561,0.027,1.205,0.056,1.736,0.056c0.532,0,1.456-0.028,2.297-0.056v-7.168c-0.365-0.672-1.232-1.344-2.213-1.765
			L148.566,34.384z M137.758,46.087l-0.027,4.2l4.844-0.056v-4.2L137.758,46.087z"/>
		<path d="M180.654,48.215c0,7.309-3.444,10.5-7.309,10.5c-3.892,0-7.279-3.191-7.279-10.5c0-7.336,3.388-10.527,7.279-10.527
			C177.21,37.688,180.654,40.879,180.654,48.215z M173.346,57.735c1.652,0,3.08-2.044,3.08-9.521c0-7.531-1.428-9.575-3.08-9.575
			s-3.023,2.016-3.023,9.575C170.322,55.72,171.693,57.735,173.346,57.735z"/>
		<path d="M197.678,48.215c0,7.309-3.444,10.5-7.309,10.5c-3.892,0-7.279-3.191-7.279-10.5c0-7.336,3.388-10.527,7.279-10.527
			C194.233,37.688,197.678,40.879,197.678,48.215z M190.369,57.735c1.652,0,3.08-2.044,3.08-9.521c0-7.531-1.428-9.575-3.08-9.575
			s-3.023,2.016-3.023,9.575C187.346,55.72,188.717,57.735,190.369,57.735z"/>
		<path d="M211.396,38.611c0.196-0.084,0.504-0.084,0.7,0c0.532,0.252,1.597,0.812,2.017,1.092c0.168,0.112,0.168,0.309,0.056,0.504
			l-0.56,1.064c-1.484,5.264-6.272,10.668-12.433,13.804c-0.196,0.112-0.364,0.112-0.476,0.028l-0.588-0.561
			c-0.141-0.14-0.168-0.279-0.028-0.447c4.508-3.612,7.84-8.513,9.071-12.769c-1.26,0-2.912,0.028-3.443,0.057
			c-0.645,0.027-1.792,0.224-2.436,0.447c-0.98-0.476-1.988-1.204-2.66-1.876c-0.141-0.168-0.168-0.279-0.084-0.42l0.252-0.42
			c0.924,0.14,2.128,0.224,2.968,0.224c1.063,0,5.18-0.056,6.468-0.14L211.396,38.611z M222.681,45.163
			c0.84-0.027,2.044,0.028,2.576,0.141c0.392,0.084,0.644,0.363,0.672,0.728c0.056,0.7-0.112,1.428-0.336,1.708
			c-0.196,0.252-0.644,0.364-0.979,0.364l-4.117,0.14v5.236c0,1.96-0.475,5.824-1.287,7.868h-2.156
			c-0.252-0.952-0.447-5.376-0.447-6.721V37.268c-0.365-0.672-1.232-1.344-2.213-1.765l0.393-1.119
			c0.056-0.141,0.14-0.225,0.447-0.225c1.484,0.057,3.864,0.504,4.957,0.98c0.336,0.14,0.475,0.42,0.447,0.84l-0.141,1.82v8.063
			l1.289-0.084L222.681,45.163z"/>
		<path d="M258.408,45.023c0.84-0.028,2.044,0.028,2.576,0.14c0.393,0.084,0.645,0.364,0.672,0.729
			c0.057,0.7-0.111,1.428-0.336,1.708c-0.195,0.252-0.645,0.363-0.98,0.363l-4.115,0.141v5.376c0,1.96-0.477,5.824-1.288,7.868
			h-2.156c-0.252-0.952-0.448-5.376-0.448-6.721v-2.38c-3.416,1.12-7.588,1.904-10.472,2.185c-0.42,0.027-0.868,0.056-1.176,0.056
			c-1.513,0-2.548-0.84-2.968-2.156c-0.112-0.336-0.196-0.952-0.196-1.596v-3.92c-0.364-0.42-0.979-0.784-1.652-1.036l0.196-0.896
			c0.027-0.112,0.141-0.196,0.336-0.196c1.176,0,4.032,0.056,5.068,0.168c0.896,0,2.463-0.084,3.052-0.141l0.532-0.14
			c0.084-0.616,0.084-3.136,0.027-3.724c-1.176-0.028-3.304,0-3.863,0.027c-0.645,0.057-1.681,0.252-2.408,0.448
			c-0.924-0.56-1.82-1.288-2.52-1.988c-0.113-0.111-0.141-0.224-0.084-0.392l0.252-0.476c0.84,0.168,2.211,0.252,2.939,0.252
			c1.092,0,5.208-0.028,6.271-0.084l1.344-0.561c0.197-0.084,0.42-0.084,0.645,0c0.477,0.196,1.512,0.672,1.96,0.924
			c0.14,0.084,0.168,0.252,0.112,0.448l-0.42,1.344c-0.084,1.064-0.477,2.885-0.784,3.78l0.644,0.364
			c0.168,0.084,0.252,0.252,0.252,0.42c0,0.588-0.195,1.204-0.42,1.456l-7.588,0.28v3.752c0,0.363,0.168,0.56,0.588,0.56
			c2.856-0.028,7.084-0.448,10.332-1.231V37.268c-0.363-0.672-1.232-1.344-2.212-1.765l0.392-1.119
			c0.057-0.141,0.141-0.225,0.449-0.225c1.483,0.057,3.863,0.504,4.955,0.98c0.336,0.14,0.477,0.42,0.448,0.84l-0.14,1.82v7.924
			l1.287-0.084L258.408,45.023z"/>
		<path d="M279.381,34.384c0.055-0.141,0.139-0.225,0.447-0.225c1.484,0.057,3.864,0.504,4.956,0.98
			c0.336,0.14,0.476,0.42,0.448,0.84l-0.141,1.82v15.68c0,1.96-0.476,5.824-1.287,7.868h-2.156
			c-0.252-0.952-0.448-5.376-0.448-6.721v-3.191c-3.724,1.176-8.204,2.071-11.284,2.38c-0.447,0.056-0.896,0.056-1.232,0.056
			c-1.567,0-2.659-0.868-3.08-2.212c-0.111-0.364-0.195-0.979-0.195-1.652v-8.231c-0.363-0.476-1.036-0.952-1.792-1.232l0.252-1.008
			c0.056-0.111,0.14-0.196,0.336-0.196c1.177,0,3.808,0.141,4.983,0.337c1.037-0.028,3.416-0.168,4.201-0.28l0.896-0.616
			c0.84,0,2.156,0.084,2.828,0.196c0.364,0.084,0.532,0.308,0.532,0.644c0,0.84-0.225,1.484-0.477,1.736
			c-0.14,0.14-0.308,0.196-0.588,0.196l-7.279,0.336v8.176c0,0.392,0.168,0.56,0.56,0.56c3.136-0.027,7.784-0.504,11.34-1.372
			V37.268c-0.364-0.672-1.231-1.344-2.212-1.765L279.381,34.384z"/>
		<path d="M311.076,53.703c1.232,0.057,3.023,0.336,3.779,0.616c0.309,0.112,0.504,0.364,0.504,0.728
			c0,0.812-0.531,1.568-0.951,1.765c-0.7-0.084-2.771-0.141-3.725-0.141c-1.932,0-12.852,0.112-14.615,0.225
			c-0.756,0.056-2.576,0.363-3.389,0.588c-1.176-0.477-2.492-1.428-3.332-2.269c-0.111-0.111-0.14-0.308-0.084-0.447l0.28-0.532
			c1.177,0.196,2.716,0.308,3.836,0.336c0.841,0,3.808,0,7-0.056v-5.013c-3.388-0.615-5.768-2.911-5.768-6.048
			c0-3.724,3.276-6.244,7.644-6.244c4.368,0,7.645,2.521,7.645,6.244c0,3.137-2.353,5.404-5.713,6.048v4.956
			c2.576-0.056,4.816-0.111,5.572-0.168L311.076,53.703z M302.256,46.983c2.072,0,3.612-1.288,3.612-3.528
			c0-2.268-1.54-3.584-3.612-3.584s-3.611,1.316-3.611,3.584C298.645,45.695,300.184,46.983,302.256,46.983z"/>
		<path d="M329.695,36.399c0.057-0.14,0.168-0.224,0.504-0.224c1.261,0.056,3.277,0.504,4.201,0.951
			c0.279,0.141,0.392,0.393,0.392,0.784l-0.112,1.513v13.468c0,1.792-0.447,5.208-1.148,7H331.6
			c-0.252-1.064-0.447-4.732-0.447-5.992v-6.552c-0.616,0.027-1.232,0.056-1.736,0.084c-0.616,2.771-2.969,4.62-6.104,4.62
			c-3.641,0-6.244-2.492-6.244-6.049c0-3.527,2.604-5.991,6.244-5.991c3.275,0,5.711,2.016,6.159,4.983c0.56,0,1.148,0,1.681-0.027
			v-5.992c-0.309-0.561-1.064-1.12-1.877-1.484L329.695,36.399z M325.832,46.003c0-1.903-1.008-3.052-2.52-3.052
			c-1.513,0-2.521,1.148-2.521,3.052c0,1.876,1.008,3.024,2.521,3.024C324.824,49.027,325.832,47.879,325.832,46.003z
			 M334.792,34.384c0.084-0.141,0.196-0.225,0.504-0.225c1.344,0.057,3.528,0.504,4.536,0.98c0.308,0.14,0.447,0.392,0.42,0.812
			l-0.112,1.652v16.044c0,1.932-0.476,5.684-1.26,7.7h-2.044c-0.252-0.98-0.448-5.265-0.448-6.608V37.1
			c-0.308-0.588-1.12-1.204-1.987-1.597L334.792,34.384z"/>
		<path d="M357.416,48.747c0.447,0.784,1.008,2.017,1.232,2.66c0.195,0.616,0.195,1.008,0.027,1.288
			c-0.336,0.588-1.26,0.896-1.82,0.644c-0.279-0.14-0.615-0.476-0.84-0.783l-4.088-5.236c-1.736,2.38-4.088,4.62-6.943,6.44
			c-0.197,0.111-0.336,0.111-0.477,0.027l-0.672-0.56c-0.112-0.112-0.112-0.252,0.027-0.42c3.809-3.809,6.217-8.316,6.86-12.376
			c-0.28-0.561-0.924-1.204-1.624-1.568l0.477-0.979c0.084-0.141,0.195-0.196,0.476-0.168c1.315,0.111,3.668,0.728,4.563,1.176
			c0.336,0.168,0.561,0.447,0.561,0.728c0,0.309-0.027,0.616-0.084,0.84c-0.28,1.54-0.896,3.164-1.792,4.761l2.407,2.827
			L357.416,48.747z M360.496,34.384c0.056-0.141,0.14-0.225,0.447-0.225c1.484,0.057,3.864,0.504,4.957,0.98
			c0.336,0.14,0.475,0.42,0.447,0.84l-0.141,1.82v15.68c0,1.96-0.475,5.824-1.287,7.868h-2.156
			c-0.252-0.952-0.447-5.376-0.447-6.721v-8.344c-0.729,0.028-1.457,0.084-1.793,0.14c-0.42,0.057-1.428,0.309-1.875,0.505
			c-1.037-0.589-1.904-1.316-2.633-2.072c-0.14-0.141-0.168-0.28-0.084-0.42l0.28-0.477c0.784,0.141,2.071,0.225,2.94,0.225
			c0.699,0,2.071-0.028,3.164-0.084v-6.832c-0.365-0.672-1.232-1.344-2.213-1.765L360.496,34.384z"/>
		<path d="M398.127,47.627c-0.728,0.028-1.428,0.057-1.791,0.112c-0.449,0.056-1.232,0.196-1.709,0.336
			c-0.588-0.364-1.119-0.784-1.596-1.231c-1.092,1.68-3.107,2.716-5.628,2.716c-3.864,0-6.58-2.492-6.58-6.021
			c0-3.5,2.716-5.936,6.58-5.936c3.892,0,6.58,2.436,6.58,5.936c0,0.7-0.112,1.372-0.308,1.988c0.476,0.028,1.008,0.056,1.455,0.056
			c0.672,0,1.933-0.027,2.996-0.084v-3.92c-0.363,0.028-0.699,0.057-0.896,0.084c-0.448,0.057-1.232,0.196-1.708,0.336
			c-0.84-0.504-1.54-1.147-2.1-1.792c-0.141-0.168-0.141-0.279-0.084-0.42l0.308-0.448c0.644,0.112,1.624,0.169,2.38,0.169
			c0.477,0,1.288,0,2.1-0.028v-2.24c-0.336-0.644-1.176-1.315-2.1-1.708l0.393-1.147c0.055-0.141,0.168-0.225,0.476-0.225
			c1.456,0.057,3.752,0.504,4.815,0.98c0.309,0.14,0.448,0.42,0.42,0.84l-0.111,1.764v9.072c0,2.268-0.477,5.6-1.26,7.392h-2.185
			c-0.28-1.036-0.448-4.844-0.448-6.3V47.627z M387.403,46.703c1.681,0,2.8-1.204,2.8-3.164s-1.119-3.191-2.8-3.191
			s-2.8,1.231-2.8,3.191S385.723,46.703,387.403,46.703z M400.031,57.483c1.008-0.028,2.464,0.084,3.164,0.252
			c0.363,0.084,0.588,0.336,0.588,0.672c0,0.924-0.309,1.596-0.531,1.82c-0.141,0.14-0.365,0.195-0.617,0.195l-11.787,0.112
			c-2.269-0.028-3.164-0.952-3.164-2.716v-3.276c-0.448-0.42-1.204-0.868-1.932-1.147l0.223-0.952c0.029-0.14,0.197-0.28,0.477-0.28
			c1.316,0,3.668,0.168,4.676,0.393c0.364,0.084,0.561,0.336,0.561,0.756l-0.057,1.596v2.632c0,0.477,0.196,0.7,0.672,0.7
			c1.597,0.028,4.845-0.028,6.496-0.084L400.031,57.483z"/>
		<path d="M427.947,46.228c1.232,0.056,3.023,0.336,3.779,0.616c0.309,0.111,0.504,0.363,0.504,0.728
			c0,0.812-0.531,1.568-0.951,1.764c-0.7-0.084-2.771-0.14-3.725-0.14c-1.932,0-12.852,0.112-14.615,0.224
			c-0.756,0.057-2.576,0.364-3.389,0.588c-1.176-0.476-2.492-1.428-3.332-2.268c-0.111-0.112-0.14-0.308-0.084-0.448l0.28-0.531
			c1.177,0.195,2.716,0.308,3.836,0.336c1.904,0.027,14.364-0.112,16.38-0.28L427.947,46.228z M408.627,45.107
			c-0.111-0.14-0.084-0.309,0.084-0.393c4.172-2.016,7.112-4.508,8.652-7.279c-0.196-0.393-0.7-0.896-1.232-1.204l0.504-0.924
			c0.084-0.141,0.252-0.196,0.561-0.168c1.344,0.14,3.556,0.728,4.396,1.176c0.363,0.168,0.56,0.448,0.56,0.756
			c-0.028,0.448-0.112,0.7-0.224,0.896c-0.281,0.476-0.617,0.951-1.009,1.399l3.612,1.568h2.296
			c0.728,0.392,1.735,1.036,2.212,1.483c0.393,0.364,0.561,0.673,0.561,0.98c0,0.672-0.645,1.344-1.205,1.428
			c-0.336,0.028-0.756-0.084-1.092-0.224l-8.035-3.584c-2.492,2.156-5.908,3.836-9.688,4.788c-0.252,0.084-0.364,0.056-0.448-0.028
			L408.627,45.107z M427.107,58.547c0.168,0.084,0.252,0.196,0.252,0.42c0,0.645-0.168,1.261-0.364,1.513
			c-2.604-0.028-8.344,0-11.312,0.056c-0.225,0.42-0.504,0.729-0.756,0.896h-1.933c-0.336-0.645-0.504-1.597-0.504-2.185
			l-0.112-5.88c-0.252-0.364-0.979-0.84-1.568-1.063l0.252-0.925c0.057-0.111,0.168-0.195,0.505-0.195
			c1.063-0.028,3.388,0.195,4.228,0.42c0.28,0.084,0.393,0.279,0.393,0.672l-0.057,1.372v0.448l6.86-0.084v-1.261
			c-0.28-0.42-0.952-0.896-1.567-1.176l0.363-1.008c0.057-0.14,0.168-0.224,0.504-0.196c1.092,0.057,3.332,0.448,4.145,0.756
			c0.308,0.112,0.42,0.336,0.392,0.672l-0.056,1.429l-0.028,2.323c0,0.896-0.196,2.045-0.448,2.66L427.107,58.547z M416.075,56.335
			l-0.056,1.876l6.972-0.056v-1.904L416.075,56.335z"/>
		<path d="M441.387,45.443c-1.568,2.072-3.724,4.004-6.328,5.544c-0.224,0.14-0.363,0.14-0.504,0.028l-0.672-0.616
			c-0.14-0.14-0.111-0.28,0.028-0.448c3.22-3.107,5.264-6.636,5.88-9.939c-0.225-0.448-0.784-1.009-1.4-1.345l0.504-1.008
			c0.057-0.112,0.196-0.168,0.477-0.14c1.26,0.111,3.416,0.672,4.199,1.092c0.337,0.168,0.533,0.42,0.533,0.7
			c0.027,0.308,0,0.616-0.057,0.812c-0.252,1.092-0.699,2.212-1.344,3.332l1.512,1.708l1.624,0.532
			c0.392,0.672,0.896,1.708,1.093,2.296c0.168,0.504,0.139,0.84,0.027,1.036c-0.279,0.56-1.176,0.84-1.708,0.616
			c-0.252-0.084-0.56-0.393-0.784-0.645L441.387,45.443z M456.115,55.691c0,3.388-3.024,5.404-6.553,5.404
			c-3.527,0-6.551-2.017-6.551-5.404c0-3.108,3.023-4.956,6.551-4.956C453.091,50.735,456.115,52.583,456.115,55.691z
			 M451.663,34.384c0.084-0.141,0.196-0.225,0.504-0.225c1.344,0.057,3.528,0.504,4.536,0.98c0.308,0.14,0.447,0.392,0.42,0.812
			l-0.112,1.652v8.428c0,1.484-0.532,4.145-1.147,5.348h-2.156c-0.252-0.867-0.448-3.443-0.448-4.508v-2.128l-1.903,0.056v0.141
			c0,1.82-0.477,4.116-1.092,5.18h-2.017c-0.28-0.84-0.448-3.107-0.448-4.368v-7.195c-0.308-0.561-1.035-1.12-1.876-1.484
			l0.42-1.092c0.056-0.14,0.168-0.225,0.505-0.225c1.26,0.057,3.275,0.505,4.199,0.952c0.309,0.141,0.42,0.393,0.393,0.784
			l-0.084,1.512v3.416l1.903-0.056V37.1c-0.308-0.588-1.12-1.204-1.987-1.597L451.663,34.384z M452.223,55.691
			c0-1.512-1.176-2.353-2.66-2.353c-1.483,0-2.66,0.841-2.66,2.353c0,1.54,1.177,2.352,2.66,2.352
			C451.047,58.043,452.223,57.231,452.223,55.691z"/>
		<path d="M484.002,48.439c0.477,0.756,1.121,1.96,1.373,2.604c0.224,0.616,0.224,1.009,0.084,1.288
			c-0.309,0.616-1.232,0.924-1.793,0.7c-0.279-0.112-0.615-0.448-0.867-0.728l-4.48-5.181c-1.764,2.492-4.199,4.872-7.168,6.748
			c-0.195,0.112-0.336,0.112-0.476,0.028l-0.673-0.561c-0.111-0.111-0.111-0.252,0.029-0.42c3.807-3.808,6.215-8.315,6.859-12.376
			c-0.28-0.56-0.924-1.204-1.624-1.567l0.476-0.98c0.084-0.14,0.196-0.195,0.477-0.168c1.316,0.112,3.668,0.729,4.564,1.176
			c0.336,0.168,0.56,0.448,0.56,0.729c0,0.308-0.028,0.616-0.085,0.84c-0.279,1.456-0.84,2.968-1.651,4.452l2.66,2.8L484.002,48.439
			z M486.019,34.384c0.056-0.141,0.14-0.225,0.448-0.225c1.484,0.057,3.863,0.504,4.955,0.98c0.336,0.14,0.477,0.42,0.449,0.84
			l-0.141,1.82v15.68c0,1.96-0.477,5.824-1.288,7.868h-2.155c-0.252-0.952-0.449-5.376-0.449-6.721V37.268
			c-0.363-0.672-1.231-1.344-2.211-1.765L486.019,34.384z"/>
		<path d="M506.207,44.939c-2.297,2.156-5.097,4.032-8.148,5.348c-0.252,0.112-0.42,0.141-0.532,0.057l-0.56-0.589
			c-0.141-0.14-0.141-0.279,0-0.447c3.947-2.688,7.084-6.44,8.82-9.8c-1.177,0-2.604,0.027-3.08,0.056
			c-0.589,0.028-1.652,0.224-2.269,0.448c-0.952-0.504-1.933-1.288-2.604-1.988c-0.14-0.168-0.168-0.28-0.084-0.42l0.252-0.42
			c0.924,0.14,2.101,0.195,2.94,0.195c1.008,0,4.704-0.056,6.048-0.111l1.288-0.532c0.224-0.084,0.504-0.084,0.728,0
			c0.588,0.224,1.709,0.728,2.129,0.952c0.168,0.112,0.195,0.336,0.084,0.532l-0.729,1.147c-0.672,1.316-1.568,2.604-2.632,3.836
			l1.765,1.568l1.315,0.336c0.532,0.644,1.204,1.68,1.456,2.268c0.224,0.477,0.279,0.84,0.168,1.093
			c-0.28,0.588-1.12,0.924-1.708,0.756c-0.308-0.084-0.644-0.364-0.896-0.616L506.207,44.939z M516.902,57.848
			c0.924-0.028,2.268,0.111,2.912,0.279c0.336,0.084,0.561,0.336,0.561,0.672c0,0.812-0.225,1.4-0.421,1.597
			c-0.14,0.14-0.364,0.195-0.588,0.195l-12.18,0.084c-1.96-0.027-2.716-0.812-2.716-2.352v-2.1c-0.364-0.42-0.952-0.757-1.625-1.009
			l0.141-0.812c0.028-0.112,0.141-0.196,0.336-0.196c1.204,0,4.032,0.057,5.096,0.168c1.512,0,4.592-0.027,5.601-0.084l0.588-0.14
			c0.056-0.42,0.084-1.344,0.056-1.68c-1.82,0-5.432,0.027-6.3,0.084c-0.7,0.027-1.876,0.195-2.66,0.392
			c-0.979-0.532-1.96-1.316-2.688-2.044c-0.14-0.14-0.14-0.224-0.085-0.392l0.253-0.448c0.896,0.168,2.38,0.28,3.108,0.28
			c1.344,0,7.588-0.057,9.043-0.112l1.205-0.504c0.168-0.084,0.363-0.084,0.588,0c0.476,0.168,1.455,0.56,1.848,0.756
			c0.14,0.112,0.168,0.308,0.084,0.532l-0.504,1.12c-0.057,0.615-0.364,1.624-0.588,2.1l0.531,0.252
			c0.168,0.084,0.28,0.252,0.28,0.42c0,0.616-0.224,1.204-0.42,1.456l-9.996,0.112v1.288c0,0.42,0.168,0.588,0.532,0.588
			c1.764,0.027,5.432,0,7.084-0.057L516.902,57.848z M510.154,41.495c0.645,0.112,1.568,0.141,2.296,0.141
			c0.589,0.027,1.597,0,2.521-0.028v-4.368c-0.336-0.644-1.176-1.315-2.101-1.708l0.392-1.147c0.057-0.141,0.168-0.225,0.477-0.225
			c1.456,0.057,3.752,0.504,4.816,0.98c0.308,0.14,0.447,0.42,0.42,0.84l-0.112,1.764v5.824c0,1.428-0.56,4.06-1.176,5.18h-2.269
			c-0.279-0.812-0.447-3.332-0.447-4.368v-0.644c-0.561,0.028-1.064,0.056-1.344,0.112c-0.449,0.027-1.232,0.252-1.681,0.447
			c-0.784-0.56-1.483-1.26-2.044-1.932c-0.111-0.14-0.141-0.28-0.057-0.42L510.154,41.495z"/>
		<path d="M540.114,34.384c0.056-0.141,0.14-0.225,0.448-0.225c1.484,0.057,3.863,0.504,4.955,0.98
			c0.336,0.14,0.477,0.42,0.449,0.84l-0.141,1.82v15.68c0,1.96-0.477,5.824-1.288,7.868h-2.155
			c-0.252-0.952-0.449-5.376-0.449-6.721v-1.624c-3.303,0.757-8.987,1.568-12.264,1.765c-0.728,0.056-2.043,0.336-2.716,0.615
			c-1.12-0.588-2.491-1.596-3.388-2.491c-0.141-0.141-0.168-0.225-0.084-0.393l0.252-0.56c1.176,0.196,2.688,0.252,3.863,0.224
			c4.033-0.084,11.229-0.644,14.336-1.315v-13.58c-0.363-0.672-1.231-1.344-2.211-1.765L540.114,34.384z M525.778,43.623
			c0-3.191,2.716-5.544,6.552-5.544s6.607,2.353,6.607,5.544c0,3.276-2.771,5.628-6.607,5.628S525.778,46.899,525.778,43.623z
			 M529.614,43.623c0,1.652,1.092,2.716,2.716,2.716s2.717-1.063,2.717-2.716c0-1.651-1.093-2.716-2.717-2.716
			S529.614,41.972,529.614,43.623z"/>
		<path d="M573.294,45.835c0,3.612-2.94,6.272-6.916,6.272s-6.916-2.66-6.916-6.272c0-3.611,2.94-6.3,6.916-6.3
			S573.294,42.224,573.294,45.835z M569.262,45.835c0-1.987-1.176-3.275-2.884-3.275s-2.884,1.288-2.884,3.275
			c0,1.988,1.176,3.248,2.884,3.248S569.262,47.823,569.262,45.835z M581.974,44.547c0.84-0.027,2.044,0.028,2.576,0.141
			c0.392,0.084,0.644,0.364,0.672,0.728c0.056,0.7-0.112,1.429-0.336,1.708c-0.196,0.252-0.644,0.364-0.979,0.364l-4.117,0.14v5.853
			c0,1.96-0.475,5.824-1.287,7.868h-2.156c-0.252-0.952-0.447-5.376-0.447-6.721V37.268c-0.365-0.672-1.232-1.344-2.213-1.765
			l0.393-1.119c0.056-0.141,0.14-0.225,0.447-0.225c1.484,0.057,3.864,0.504,4.957,0.98c0.336,0.14,0.475,0.42,0.447,0.84
			l-0.141,1.82v7.447l1.289-0.084L581.974,44.547z"/>
		<path d="M607.594,47.375c1.232,0.057,3.023,0.336,3.779,0.616c0.309,0.112,0.504,0.364,0.504,0.729
			c0,0.812-0.531,1.567-0.951,1.764c-0.7-0.084-2.771-0.14-3.725-0.14c-1.932,0-12.852,0.111-14.615,0.224
			c-0.756,0.056-2.576,0.364-3.389,0.588c-1.176-0.476-2.492-1.428-3.332-2.268c-0.111-0.112-0.14-0.309-0.084-0.448l0.28-0.532
			c1.177,0.196,2.716,0.308,3.836,0.336c1.904,0.028,14.364-0.112,16.38-0.28L607.594,47.375z M604.766,35.84
			c1.036,0.027,2.492,0.224,3.052,0.42c0.252,0.084,0.448,0.363,0.448,0.615c0,0.812-0.448,1.568-0.756,1.792
			c-0.561-0.056-2.324-0.056-3.053-0.056c-1.344,0-9.127,0.112-10.332,0.168c-0.615,0.028-1.735,0.224-2.323,0.392
			c-0.979-0.504-2.017-1.371-2.688-2.128c-0.084-0.111-0.084-0.252-0.027-0.363l0.224-0.448c1.036,0.168,2.408,0.28,3.192,0.28
			c1.428,0.027,9.604-0.112,11.172-0.196L604.766,35.84z M589.674,44.043c1.035,0.168,2.408,0.28,3.191,0.28h1.037l-0.309-2.52
			c-0.168-0.336-0.588-0.7-1.008-0.925l0.336-0.924c0.084-0.168,0.195-0.252,0.531-0.224c1.037,0.084,2.549,0.392,3.305,0.728
			c0.279,0.112,0.336,0.309,0.308,0.616l-0.056,1.036l0.111,2.156l3.528-0.084l0.028-3.192c-0.196-0.28-0.616-0.56-1.036-0.672
			l0.28-0.952c0.056-0.14,0.168-0.224,0.531-0.224c1.037,0.027,2.66,0.224,3.473,0.448c0.252,0.084,0.336,0.279,0.308,0.644
			l-0.084,0.979l-0.28,2.828h0.084l1.037-0.42c0.924,0.028,2.239,0.225,2.799,0.42c0.225,0.084,0.393,0.336,0.393,0.616
			c0,0.784-0.448,1.54-0.756,1.736c-0.504-0.057-2.072-0.057-2.744-0.057c-1.288,0-8.932,0.168-10.191,0.253
			c-0.617,0.027-1.736,0.224-2.324,0.392c-0.98-0.504-2.017-1.372-2.688-2.128c-0.084-0.112-0.084-0.252-0.028-0.364L589.674,44.043
			z M604.121,51.855c0.196-0.084,0.449-0.084,0.645,0c0.504,0.224,1.484,0.672,1.848,0.924c0.141,0.084,0.168,0.252,0.084,0.476
			l-0.447,1.4c-0.168,1.036-0.393,2.156-0.729,3.164l0.561,0.308c0.195,0.112,0.336,0.28,0.336,0.504
			c0,0.784-0.309,1.456-0.588,1.736l-9.996,0.084c-0.141,0.364-0.364,0.672-0.672,0.952h-2.129
			c-0.279-0.561-0.476-1.344-0.531-2.044l-0.42-4.816c-0.364-0.42-1.036-0.868-1.68-1.12l0.279-1.035
			c0.027-0.112,0.141-0.196,0.364-0.196c1.231,0,3.556,0.168,4.872,0.336c1.484-0.028,5.375-0.084,6.832-0.168L604.121,51.855z
			 M596.002,57.959c1.707,0.028,4.172,0,5.684-0.084l0.645-0.168l0.056-2.828c-2.017,0.028-4.479,0.084-6.384,0.141V57.959z"/>
		<path d="M634.642,45.724c1.231,0.056,3.052,0.336,3.78,0.615c0.308,0.112,0.504,0.337,0.504,0.7c0,0.756-0.532,1.456-0.952,1.624
			c-0.7-0.084-2.772-0.14-3.724-0.14c-1.904,0-12.937,0.112-14.645,0.224c-0.729,0.057-2.548,0.364-3.359,0.588
			c-1.177-0.42-2.492-1.315-3.332-2.1c-0.112-0.112-0.141-0.308-0.084-0.448l0.279-0.532c1.176,0.196,2.717,0.309,3.836,0.337
			c1.876,0.027,14.393-0.112,16.38-0.28L634.642,45.724z M631.506,58.071c0.896,0,2.24,0.112,2.855,0.28
			c0.336,0.084,0.561,0.336,0.561,0.644c0,0.784-0.225,1.344-0.42,1.54c-0.141,0.14-0.365,0.196-0.588,0.196l-12.097,0.084h-0.028
			c-2.072-0.028-2.855-0.84-2.855-2.324v-2.044c-0.364-0.42-0.952-0.756-1.624-1.008l0.14-0.812
			c0.028-0.111,0.141-0.195,0.336-0.195c1.204,0,4.032,0.056,5.096,0.168c1.568,0,4.761-0.028,5.769-0.084l0.672-0.141
			c0.028-0.447,0.056-1.344,0.028-1.68c-1.848-0.028-5.74,0-6.637,0.056c-0.699,0.057-1.848,0.225-2.631,0.42
			c-0.953-0.531-1.933-1.288-2.633-1.987c-0.14-0.141-0.168-0.225-0.084-0.393l0.225-0.447c0.896,0.168,2.324,0.279,3.08,0.279
			c1.371,0,7.867-0.056,9.324-0.111l1.119-0.477c0.168-0.084,0.364-0.084,0.588,0c0.477,0.168,1.484,0.532,1.877,0.729
			c0.139,0.084,0.168,0.279,0.084,0.504l-0.505,1.12c-0.056,0.615-0.336,1.624-0.56,2.1l0.531,0.252
			c0.141,0.084,0.252,0.224,0.252,0.392c0,0.589-0.224,1.177-0.42,1.4l-10.135,0.112v1.344c0,0.392,0.168,0.588,0.559,0.588
			c1.765,0.028,5.517,0,7.168-0.056L631.506,58.071z M618.961,40.375c0-2.828,2.688-4.815,6.86-4.815c4.173,0,6.86,1.987,6.86,4.815
			c0,2.856-2.688,4.845-6.86,4.845C621.649,45.22,618.961,43.231,618.961,40.375z M622.881,40.375c0,1.484,1.121,2.408,2.94,2.408
			c1.82,0,2.94-0.924,2.94-2.408c0-1.483-1.12-2.407-2.94-2.407C624.002,37.968,622.881,38.892,622.881,40.375z"/>
		<path d="M16.521,80.556c0.028,0.168-0.056,0.309-0.28,0.42c-2.128,1.009-5.684,1.876-8.008,2.017
			C7.756,83.02,7.336,83.02,6.916,83.02c-2.016,0-2.688-0.363-3.304-1.903C3.557,80.976,3.5,80.22,3.5,79.38v-5.964
			c-0.363-0.477-1.008-0.952-1.764-1.232l0.252-1.008c0.057-0.112,0.141-0.196,0.336-0.196c1.204,0,4.032,0.141,5.068,0.364
			c0.924-0.027,3.052-0.168,3.752-0.252l0.867-0.588c0.869,0,2.156,0.056,2.828,0.196c0.365,0.084,0.533,0.308,0.533,0.644
			c0,0.812-0.225,1.456-0.477,1.708c-0.141,0.141-0.309,0.196-0.588,0.196l-6.944,0.308v2.212c0.896-0.027,2.072-0.111,2.604-0.224
			l0.812-0.448c0.757-0.027,1.904,0,2.437,0.112c0.363,0.056,0.56,0.336,0.56,0.616c0,0.699-0.196,1.288-0.392,1.483
			c-0.141,0.141-0.42,0.196-0.7,0.225l-5.32,0.363v1.624c0,0.393,0.168,0.561,0.589,0.561c2.239-0.028,5.963-0.336,7.924-0.7
			c0.252-0.056,0.392,0,0.42,0.196L16.521,80.556z M21.532,91.532c0.896-0.028,2.24,0.111,2.884,0.279
			c0.336,0.084,0.561,0.336,0.561,0.672c0,0.812-0.225,1.4-0.42,1.597c-0.141,0.14-0.364,0.195-0.588,0.195l-12.125,0.084
			c-1.987-0.027-2.743-0.812-2.743-2.352v-1.96c-0.364-0.42-0.952-0.756-1.624-1.008l0.14-0.812c0.028-0.111,0.14-0.195,0.337-0.195
			c1.203,0,4.004,0.056,5.096,0.168c1.623,0,4.479-0.028,5.488-0.084l0.615-0.141c0.027-0.42,0.057-1.26,0.027-1.596
			c-1.764,0-5.348,0.028-6.215,0.084c-0.7,0.028-1.877,0.196-2.66,0.392c-0.98-0.531-1.961-1.315-2.688-2.044
			c-0.14-0.14-0.14-0.224-0.084-0.392l0.253-0.448c0.896,0.168,2.379,0.28,3.107,0.28c1.344,0,7.615-0.056,8.96-0.112l1.204-0.504
			c0.168-0.084,0.363-0.084,0.588,0c0.477,0.168,1.456,0.561,1.848,0.756c0.141,0.112,0.168,0.309,0.084,0.532l-0.504,1.12
			c-0.056,0.588-0.336,1.568-0.561,2.016l0.505,0.252c0.168,0.084,0.28,0.252,0.28,0.42c0,0.616-0.225,1.204-0.42,1.456L12.992,90.3
			v1.148c0,0.42,0.168,0.588,0.532,0.588c1.735,0.027,5.403,0,7.084-0.057L21.532,91.532z M14.869,74.984
			c0.643,0.084,1.567,0.14,2.323,0.14c0.56,0,1.513-0.028,2.38-0.056V70.84c-0.336-0.644-1.176-1.315-2.1-1.708l0.392-1.147
			c0.056-0.141,0.168-0.225,0.476-0.225c1.457,0.057,3.752,0.504,4.816,0.98c0.309,0.14,0.448,0.42,0.42,0.84l-0.111,1.764v6.3
			c0,1.429-0.561,4.061-1.176,5.181h-2.269c-0.28-0.812-0.448-3.332-0.448-4.34v-1.288c-0.504,0.027-0.98,0.056-1.232,0.111
			c-0.42,0.057-1.203,0.252-1.651,0.42c-0.784-0.531-1.513-1.26-2.072-1.932c-0.112-0.168-0.14-0.28-0.056-0.42L14.869,74.984z"/>
		<path d="M44.744,67.984c0.057-0.141,0.141-0.225,0.448-0.225c1.483,0.057,3.864,0.504,4.956,0.98
			c0.336,0.14,0.476,0.42,0.447,0.84l-0.14,1.82v15.68c0,1.96-0.476,5.824-1.288,7.868h-2.156c-0.252-0.952-0.447-5.376-0.447-6.721
			v-7.699c-0.336,0-0.672,0.027-0.812,0.056c-0.447,0.056-1.428,0.336-1.875,0.504c-0.449-0.224-0.869-0.476-1.232-0.756
			c-0.364,3.248-3.192,5.544-6.889,5.544c-4.004,0-6.916-2.632-6.916-6.272c0-3.64,2.912-6.3,6.916-6.3
			c3.5,0,6.217,2.072,6.805,5.068c0.615,0.028,1.26,0.056,1.791,0.056c0.533,0,1.429,0,2.213-0.056v-7.504
			c-0.364-0.672-1.232-1.344-2.213-1.765L44.744,67.984z M38.641,79.604c0-2.016-1.176-3.275-2.885-3.275
			c-1.707,0-2.884,1.26-2.884,3.275c0,1.988,1.177,3.248,2.884,3.248C37.465,82.852,38.641,81.592,38.641,79.604z"/>
		<path d="M76.469,78.988c1.231,0.056,3.051,0.336,3.779,0.615c0.309,0.112,0.504,0.336,0.504,0.7c0,0.756-0.531,1.456-0.951,1.624
			c-0.701-0.084-2.772-0.14-3.725-0.14c-1.904,0-12.936,0.111-14.645,0.224c-0.728,0.057-2.547,0.364-3.359,0.588
			c-1.176-0.42-2.492-1.315-3.332-2.1c-0.111-0.112-0.141-0.309-0.084-0.448l0.279-0.532c1.177,0.196,2.717,0.309,3.836,0.336
			c0.841,0,3.865,0,7.113-0.056v-2.548l-2.828,0.028c-2.072-0.028-3.08-1.064-3.08-2.856V71.68
			c-0.393-0.392-1.092-0.812-1.793-1.092l0.252-0.952c0.029-0.14,0.197-0.28,0.477-0.28c1.288,0,3.557,0.169,4.536,0.393
			c0.392,0.084,0.56,0.364,0.56,0.784l-0.056,1.624v2.155c0,0.477,0.196,0.7,0.672,0.7c1.82,0.028,5.685-0.027,7.448-0.111
			l1.035-0.645c0.953,0,2.353,0.112,3.025,0.28c0.363,0.084,0.559,0.336,0.559,0.672c0,0.896-0.279,1.54-0.475,1.736
			c-0.141,0.14-0.365,0.195-0.617,0.195l-5.908,0.057v2.548c2.549-0.057,4.732-0.112,5.461-0.168L76.469,78.988z M73.92,85.624
			c0.84,0.028,2.1,0.224,2.633,0.42c0.195,0.056,0.336,0.28,0.336,0.532c0,0.644-0.42,1.288-0.701,1.456
			c-0.504-0.028-1.903-0.057-2.575-0.057c-1.261,0-9.24,0.141-10.472,0.225c-0.588,0.027-1.625,0.224-2.185,0.392
			c-0.868-0.448-1.819-1.176-2.437-1.82c-0.084-0.111-0.111-0.252-0.055-0.336l0.223-0.42c0.896,0.168,2.129,0.252,2.856,0.252
			c1.372,0.028,9.968-0.14,11.425-0.224L73.92,85.624z M72.996,91.784c0,2.155-2.268,3.584-5.348,3.584
			c-3.108,0-5.404-1.429-5.404-3.584c0-1.96,2.296-3.248,5.404-3.248C70.729,88.536,72.996,89.824,72.996,91.784z M63.28,82.656
			c2.772,0.42,5.655,0.531,7.616,0.504c0.308,0,0.447,0.084,0.56,0.279c0.224,0.393,0.14,1.372-0.14,1.652
			c-0.141,0.168-0.309,0.196-0.532,0.196c-1.456-0.028-3.976,0-5.433,0.084c-0.308,0.027-0.447,0.027-0.644-0.112
			c-0.56-0.392-1.204-1.147-1.651-1.848c-0.084-0.168-0.084-0.28-0.028-0.42L63.28,82.656z M69.412,91.784
			c0-0.896-0.672-1.456-1.764-1.456s-1.764,0.56-1.764,1.456c0,0.896,0.672,1.456,1.764,1.456S69.412,92.68,69.412,91.784z"/>
		<path d="M82.74,76.439c0-3.304,2.716-5.655,6.468-5.655c3.78,0,6.496,2.352,6.496,5.655c0,3.36-2.716,5.74-6.496,5.74
			C85.456,82.18,82.74,79.8,82.74,76.439z M103.796,90.552c0.392,0.588,0.84,1.484,1.008,2.016c0.14,0.448,0.14,0.757,0.028,0.98
			c-0.28,0.532-1.036,0.84-1.568,0.7c-0.279-0.057-0.588-0.336-0.84-0.616L99.4,90.188c-1.484,1.82-3.557,3.528-6.076,4.956
			c-0.225,0.141-0.336,0.141-0.477,0.057L92.12,94.64c-0.14-0.14-0.14-0.28,0.028-0.448c0.588-0.531,1.119-1.063,1.596-1.596
			c-0.196-0.084-0.364-0.252-0.532-0.42l-2.155-2.296c-1.513,1.764-3.641,3.388-6.217,4.704c-0.224,0.14-0.363,0.14-0.504,0.056
			l-0.699-0.588c-0.141-0.112-0.168-0.252,0.027-0.42c2.771-2.296,4.676-4.9,5.404-7.42c-0.196-0.364-0.7-0.812-1.232-1.092
			l0.532-0.98c0.084-0.14,0.252-0.195,0.504-0.168c1.231,0.168,3.164,0.756,3.892,1.176c0.309,0.168,0.477,0.421,0.477,0.673
			c0,0.363-0.057,0.588-0.141,0.783c-0.195,0.504-0.447,0.98-0.728,1.456l1.092,1.093l1.063,0.531
			c0.197,0.336,0.449,0.812,0.617,1.204c1.176-1.624,1.987-3.275,2.379-4.899c-0.168-0.393-0.699-0.925-1.231-1.232l0.532-0.98
			c0.084-0.168,0.252-0.224,0.504-0.168c1.26,0.253,3.136,0.896,3.892,1.372c0.308,0.196,0.476,0.42,0.476,0.673
			c0,0.336-0.055,0.588-0.111,0.783c-0.225,0.645-0.532,1.288-0.896,1.904l1.625,1.568L103.796,90.552z M86.52,76.439
			c0,1.792,1.092,2.885,2.688,2.885s2.688-1.093,2.688-2.885c0-1.764-1.092-2.911-2.688-2.911S86.52,74.676,86.52,76.439z
			 M104.943,75.068c0.841-0.028,2.045,0.027,2.576,0.14c0.393,0.084,0.645,0.364,0.672,0.728c0.057,0.7-0.111,1.429-0.336,1.708
			c-0.195,0.252-0.644,0.364-0.979,0.364l-4.2,0.14c-0.14,1.624-0.588,3.864-1.148,5.013h-2.239
			c-0.252-0.896-0.448-3.948-0.448-5.068V70.84c-0.336-0.644-1.176-1.315-2.1-1.708l0.392-1.147
			c0.056-0.141,0.168-0.225,0.476-0.225c1.457,0.057,3.752,0.504,4.816,0.98c0.309,0.14,0.448,0.42,0.42,0.84l-0.111,1.764v4.424
			l1.315-0.084L104.943,75.068z"/>
		<path d="M131.992,78.708c0.84-0.028,2.043,0.028,2.576,0.14c0.392,0.084,0.644,0.364,0.672,0.729
			c0.056,0.7-0.112,1.428-0.336,1.708c-0.196,0.252-0.645,0.363-0.98,0.363l-4.116,0.141v5.292c0,1.96-0.476,5.824-1.288,7.868
			h-2.156c-0.252-0.952-0.447-5.376-0.447-6.721v-2.996c-3.36,1.12-7.448,1.96-10.248,2.24c-0.448,0.057-0.896,0.057-1.232,0.057
			c-1.568,0-2.66-0.868-3.08-2.213c-0.111-0.363-0.195-0.979-0.195-1.624V75.32c-0.364-0.477-1.036-0.952-1.793-1.232l0.253-1.008
			c0.056-0.112,0.14-0.196,0.336-0.196c1.176,0,3.836,0.14,4.983,0.336c1.037-0.027,3.473-0.168,4.284-0.252l0.896-0.616
			c0.841,0,2.156,0.057,2.828,0.196c0.336,0.084,0.533,0.308,0.533,0.645c0,0.84-0.225,1.455-0.477,1.735
			c-0.141,0.141-0.336,0.196-0.588,0.196l-7.364,0.308v8.288c0,0.393,0.168,0.588,0.56,0.561c2.885-0.028,7.057-0.448,10.305-1.261
			V70.868c-0.364-0.672-1.232-1.344-2.213-1.765l0.393-1.119c0.057-0.141,0.141-0.225,0.448-0.225
			c1.483,0.057,3.864,0.504,4.956,0.98c0.336,0.14,0.476,0.42,0.447,0.84l-0.14,1.82v8.008l1.288-0.084L131.992,78.708z"/>
		<path d="M137.424,89.768c0-1.372,1.148-2.548,2.576-2.548s2.576,1.176,2.576,2.548c0,1.4-1.148,2.521-2.576,2.521
			S137.424,91.168,137.424,89.768z"/>
		<path d="M160.832,85.652c-4.004,0-6.916-2.633-6.916-6.244c0-3.641,2.912-6.272,6.916-6.272c3.976,0,6.916,2.632,6.916,6.272
			C167.748,83.02,164.808,85.652,160.832,85.652z M160.832,76.16c-1.709,0-2.885,1.26-2.885,3.248c0,1.987,1.176,3.22,2.885,3.22
			c1.707,0,2.884-1.232,2.884-3.22C163.716,77.42,162.539,76.16,160.832,76.16z M171.64,94.948
			c-0.252-0.952-0.448-5.376-0.448-6.721V70.868c-0.363-0.672-1.232-1.344-2.212-1.765l0.392-1.119
			c0.057-0.141,0.141-0.225,0.449-0.225c1.483,0.057,3.863,0.504,4.955,0.98c0.336,0.14,0.477,0.42,0.448,0.84l-0.14,1.82v15.68
			c0,1.96-0.477,5.824-1.288,7.868H171.64z"/>
		<path d="M202.523,74.816c0.84-0.028,2.044,0.027,2.576,0.14c0.393,0.084,0.645,0.364,0.672,0.728
			c0.057,0.7-0.111,1.429-0.336,1.708c-0.195,0.252-0.645,0.364-0.98,0.364l-4.199,0.14c-0.141,1.456-0.616,3.36-1.12,4.284h-2.269
			c-0.168-0.476-0.308-1.567-0.363-2.604c-3.389,1.036-7.364,1.764-10.164,1.987c-0.42,0.028-0.868,0.057-1.204,0.057
			c-1.54,0-2.604-0.868-3.024-2.185c-0.111-0.336-0.195-0.979-0.195-1.624v-4.76c-0.42-0.392-1.148-0.84-1.849-1.12l0.224-0.952
			c0.029-0.14,0.197-0.279,0.477-0.279c1.288,0,3.557,0.168,4.536,0.392c0.364,0.084,0.56,0.364,0.56,0.756l-0.056,1.568v4.508
			c0,0.392,0.168,0.588,0.588,0.588c2.744,0,6.804-0.364,10.024-1.063V70.84c-0.336-0.644-1.176-1.315-2.101-1.708l0.392-1.147
			c0.057-0.141,0.168-0.225,0.477-0.225c1.456,0.057,3.752,0.504,4.816,0.98c0.308,0.14,0.447,0.42,0.42,0.84l-0.112,1.764v4.172
			l1.315-0.084L202.523,74.816z M198.52,91.42c0.924-0.028,2.268,0.112,2.912,0.28c0.336,0.084,0.561,0.336,0.561,0.672
			c0,0.812-0.225,1.399-0.421,1.596c-0.112,0.14-0.364,0.196-0.588,0.196l-12.18,0.084c-1.96-0.028-2.716-0.812-2.716-2.353v-2.239
			c-0.364-0.42-0.952-0.757-1.625-1.009l0.141-0.812c0.028-0.112,0.141-0.196,0.336-0.196c1.204,0,4.032,0.057,5.096,0.168
			c1.457,0,4.564-0.027,5.601-0.084l0.616-0.14c0.056-0.448,0.056-1.456,0.027-1.82c-1.764,0-5.32,0.028-6.188,0.084
			c-0.7,0.028-1.876,0.196-2.66,0.393c-0.98-0.532-1.96-1.316-2.688-2.044c-0.141-0.141-0.141-0.225-0.084-0.393l0.252-0.448
			c0.896,0.168,2.379,0.28,3.107,0.28c1.344,0,7.532-0.056,8.932-0.112l1.205-0.504c0.168-0.084,0.363-0.084,0.588,0
			c0.476,0.168,1.455,0.561,1.848,0.756c0.14,0.112,0.168,0.309,0.084,0.532l-0.504,1.12c-0.057,0.645-0.364,1.736-0.588,2.24
			l0.504,0.252c0.195,0.112,0.308,0.252,0.308,0.42c0,0.616-0.224,1.204-0.42,1.456l-9.996,0.112v1.428
			c0,0.42,0.168,0.588,0.532,0.588c1.764,0.028,5.432,0,7.084-0.056L198.52,91.42z"/>
		<path d="M228.508,81.815c0,7.309-3.444,10.5-7.309,10.5c-3.892,0-7.279-3.191-7.279-10.5c0-7.336,3.388-10.527,7.279-10.527
			C225.063,71.288,228.508,74.479,228.508,81.815z M221.199,91.336c1.652,0,3.08-2.044,3.08-9.521c0-7.531-1.428-9.575-3.08-9.575
			s-3.023,2.016-3.023,9.575C218.176,89.32,219.547,91.336,221.199,91.336z"/>
		<path d="M245.531,81.815c0,7.309-3.444,10.5-7.309,10.5c-3.892,0-7.279-3.191-7.279-10.5c0-7.336,3.388-10.527,7.279-10.527
			C242.087,71.288,245.531,74.479,245.531,81.815z M238.223,91.336c1.652,0,3.08-2.044,3.08-9.521c0-7.531-1.428-9.575-3.08-9.575
			s-3.023,2.016-3.023,9.575C235.199,89.32,236.57,91.336,238.223,91.336z"/>
		<path d="M269.106,80.556c1.231,0.057,3.024,0.336,3.78,0.616c0.308,0.112,0.504,0.364,0.504,0.728
			c0,0.812-0.532,1.568-0.952,1.765c-0.7-0.084-2.772-0.141-3.724-0.141c-1.933,0-12.853,0.112-14.617,0.225
			c-0.756,0.056-2.575,0.364-3.387,0.588c-1.177-0.476-2.492-1.428-3.332-2.268c-0.112-0.112-0.141-0.309-0.084-0.448l0.279-0.532
			c1.176,0.196,2.717,0.308,3.836,0.336c1.904,0.028,14.364-0.112,16.38-0.28L269.106,80.556z M252.614,72.24
			c-0.392-0.393-1.092-0.812-1.792-1.093l0.252-0.951c0.028-0.141,0.196-0.28,0.477-0.28c1.287,0,3.556,0.168,4.535,0.392
			c0.393,0.084,0.561,0.364,0.561,0.784l-0.057,1.624v3.22c0,0.477,0.196,0.7,0.672,0.7c1.82,0.028,5.572-0.028,7.336-0.112
			l1.205-0.644c0.951,0,2.352,0.112,3.023,0.28c0.336,0.084,0.561,0.336,0.561,0.672c0,0.896-0.28,1.54-0.504,1.736
			c-0.141,0.14-0.365,0.195-0.588,0.195l-12.601,0.141c-2.071-0.028-3.08-1.064-3.08-2.856V72.24z M265.887,90.775
			c1.008,0,2.492,0.112,3.191,0.28c0.364,0.084,0.588,0.364,0.588,0.7c0,0.924-0.308,1.624-0.531,1.848
			c-0.141,0.141-0.393,0.196-0.645,0.196l-12.544,0.112h-0.056c-1.961-0.057-2.772-0.98-2.772-2.744v-2.772
			c-0.448-0.392-1.204-0.84-1.932-1.092l0.252-0.952c0.028-0.14,0.168-0.279,0.448-0.279c1.315,0,3.611,0.168,4.619,0.363
			c0.336,0.112,0.532,0.364,0.532,0.784l-0.056,1.596v2.044c0,0.477,0.195,0.7,0.672,0.7c1.82,0.028,5.236-0.027,6.973-0.084
			L265.887,90.775z"/>
		<path d="M286.719,69.104c-1.597,0.784-2.633,1.736-3.276,3.164l1.651,1.148c1.037,0.728,1.26,1.4,1.26,2.184
			c0,1.232-1.035,2.128-2.155,2.128c-0.84,0-1.399-0.392-1.849-0.699c-0.476-0.784-0.728-1.708-0.728-2.604
			c0-2.632,1.933-5.012,4.788-6.02L286.719,69.104z M291.506,73.416c1.036,0.728,1.26,1.4,1.26,2.184
			c0,1.232-1.035,2.128-2.184,2.128c-0.812,0-1.372-0.392-1.82-0.699c-0.476-0.784-0.728-1.708-0.728-2.604
			c0-2.632,1.933-5.012,4.788-6.02l0.309,0.699c-1.597,0.784-2.633,1.736-3.277,3.164L291.506,73.416z"/>
		<path d="M307.887,85.288c0.027,0.14-0.057,0.308-0.253,0.448c-1.428,0.84-4.06,1.819-5.88,2.071
			c-0.477,0.057-1.008,0.112-1.344,0.112c-1.876,0-2.66-0.588-3.137-2.1c-0.055-0.168-0.111-0.841-0.111-1.54v-8.4
			c-0.364-0.448-0.98-0.868-1.68-1.148l0.252-1.008c0.056-0.111,0.14-0.195,0.336-0.195c1.148,0,3.836,0.111,4.9,0.252
			c0.531-0.028,1.764-0.084,2.155-0.141l0.812-0.56c0.729-0.028,1.933,0.056,2.521,0.14c0.336,0.084,0.504,0.309,0.504,0.616
			c0,0.84-0.252,1.512-0.532,1.792c-0.14,0.112-0.308,0.168-0.56,0.168l-4.929,0.196v8.315c0,0.336,0.141,0.477,0.504,0.477
			c1.652-0.028,4.369-0.28,5.769-0.616c0.252-0.056,0.392,0,0.448,0.196L307.887,85.288z M307.914,69.888
			c0.057-0.14,0.168-0.224,0.504-0.224c1.26,0.056,3.275,0.504,4.2,0.952c0.28,0.14,0.392,0.392,0.392,0.784l-0.111,1.512v13.384
			c0,1.792-0.448,5.208-1.148,7h-1.932c-0.252-1.064-0.448-4.732-0.448-5.992v-6.691c-0.672,0.027-1.513,0.056-1.849,0.084
			c-0.504,0.027-1.315,0.195-1.819,0.363c-0.784-0.504-1.429-1.036-1.96-1.68c-0.084-0.14-0.112-0.252-0.057-0.392l0.28-0.477
			c0.616,0.057,1.513,0.084,2.212,0.084c0.756,0,2.213-0.027,3.192-0.084v-6.048c-0.308-0.56-1.063-1.12-1.876-1.484L307.914,69.888
			z M312.954,67.984c0.084-0.141,0.196-0.225,0.504-0.225c1.344,0.057,3.528,0.504,4.536,0.98c0.308,0.14,0.447,0.392,0.42,0.812
			l-0.112,1.652v16.044c0,1.932-0.476,5.684-1.26,7.7h-2.044c-0.252-0.98-0.448-5.265-0.448-6.608V70.7
			c-0.308-0.588-1.12-1.204-1.987-1.597L312.954,67.984z"/>
		<path d="M338.686,67.984c0.057-0.141,0.141-0.225,0.448-0.225c1.483,0.057,3.864,0.504,4.956,0.98
			c0.336,0.14,0.477,0.42,0.447,0.84l-0.139,1.82v15.68c0,1.96-0.477,5.824-1.289,7.868h-2.156
			c-0.252-0.952-0.447-5.376-0.447-6.721V84.28c-1.848,0.42-4.424,0.84-6.943,1.176v1.456c0,1.848-0.617,5.571-1.261,7.168h-2.128
			c-0.195-1.092-0.447-4.732-0.447-6.021v-2.184c-0.589,0.056-1.121,0.112-1.625,0.14c-0.699,0.057-1.988,0.336-2.66,0.588
			c-1.119-0.56-2.492-1.567-3.388-2.464c-0.14-0.14-0.168-0.224-0.084-0.392l0.252-0.561c1.177,0.196,2.688,0.252,3.864,0.225
			c4.031-0.057,11.312-0.616,14.42-1.26V70.868c-0.364-0.672-1.232-1.344-2.212-1.765L338.686,67.984z M325.021,73.023
			c-0.224-0.363-0.896-0.867-1.428-1.063l0.252-0.952c0.028-0.112,0.141-0.196,0.504-0.196c1.064-0.027,3.305,0.196,4.172,0.421
			c0.28,0.084,0.393,0.308,0.364,0.672l-0.056,1.372v0.644l5.292-0.056v-1.96c-0.224-0.393-0.841-0.868-1.4-1.12l0.336-0.924
			c0.085-0.168,0.196-0.252,0.532-0.225c1.092,0.057,3.221,0.393,4.032,0.672c0.308,0.112,0.392,0.336,0.364,0.672l-0.084,1.484
			l-0.028,3.164c0,0.924-0.196,2.072-0.392,2.716l0.56,0.225c0.168,0.084,0.252,0.224,0.252,0.392c0,0.644-0.196,1.288-0.42,1.512
			c-2.156-0.027-6.804,0.028-9.324,0.084c-0.196,0.588-0.532,0.98-0.84,1.176h-2.044c-0.309-0.644-0.477-1.567-0.477-2.155
			L325.021,73.023z M328.802,76.16l-0.028,2.1l5.349-0.056v-2.101L328.802,76.16z"/>
		<path d="M367.105,80.052c-2.184,2.212-4.844,4.172-7.756,5.628c-0.225,0.112-0.42,0.141-0.532,0.057l-0.56-0.561
			c-0.141-0.14-0.168-0.252-0.028-0.448c4.06-3.052,7.196-7.252,8.849-10.947c-1.177,0-2.604,0.027-3.08,0.056
			c-0.589,0.028-1.652,0.224-2.269,0.448c-0.952-0.504-1.933-1.288-2.604-1.988c-0.14-0.168-0.168-0.28-0.084-0.42l0.252-0.42
			c0.924,0.14,2.101,0.196,2.94,0.196c1.008,0,4.704-0.057,6.048-0.112l1.288-0.532c0.224-0.084,0.504-0.084,0.728,0
			c0.588,0.225,1.709,0.729,2.129,0.952c0.168,0.112,0.195,0.336,0.084,0.532l-0.729,1.147c-0.783,1.597-1.82,3.192-3.08,4.676
			l2.324,2.129l1.316,0.392c0.504,0.644,1.147,1.708,1.399,2.296c0.196,0.504,0.224,0.868,0.112,1.12
			c-0.28,0.56-1.148,0.896-1.736,0.7c-0.279-0.112-0.615-0.393-0.84-0.645L367.105,80.052z M378.109,91.084
			c1.008-0.028,2.464,0.084,3.164,0.252c0.363,0.084,0.588,0.336,0.588,0.672c0,0.924-0.309,1.596-0.532,1.82
			c-0.14,0.14-0.392,0.195-0.644,0.195l-11.9,0.112c-2.268-0.028-3.164-0.952-3.164-2.716v-3.276
			c-0.447-0.42-1.203-0.868-1.932-1.147l0.225-0.952c0.027-0.14,0.195-0.28,0.476-0.28c1.315,0,3.668,0.168,4.676,0.393
			c0.364,0.084,0.56,0.336,0.56,0.756l-0.056,1.596v2.632c0,0.477,0.196,0.7,0.672,0.7c1.624,0.028,4.956-0.028,6.636-0.084
			L378.109,91.084z M371.334,76.607c0.644,0.112,1.567,0.141,2.295,0.141c0.588,0.028,1.681,0,2.633-0.028v-5.88
			c-0.336-0.644-1.176-1.315-2.101-1.708l0.392-1.147c0.057-0.141,0.168-0.225,0.477-0.225c1.456,0.057,3.752,0.504,4.816,0.98
			c0.308,0.14,0.447,0.42,0.42,0.84l-0.112,1.764v9.072c0,2.268-0.476,5.6-1.26,7.392h-2.185c-0.279-1.036-0.447-4.844-0.447-6.3
			v-2.66c-0.616,0.028-1.176,0.057-1.457,0.112c-0.447,0.028-1.231,0.252-1.68,0.448c-0.783-0.561-1.483-1.261-2.043-1.933
			c-0.113-0.14-0.141-0.279-0.057-0.42L371.334,76.607z"/>
		<path d="M406.473,81.815c0,7.309-3.443,10.5-7.308,10.5c-3.892,0-7.28-3.191-7.28-10.5c0-7.336,3.389-10.527,7.28-10.527
			C403.029,71.288,406.473,74.479,406.473,81.815z M399.165,91.336c1.652,0,3.08-2.044,3.08-9.521c0-7.531-1.428-9.575-3.08-9.575
			c-1.651,0-3.024,2.016-3.024,9.575C396.141,89.32,397.514,91.336,399.165,91.336z"/>
		<path d="M423.496,81.815c0,7.309-3.443,10.5-7.308,10.5c-3.892,0-7.28-3.191-7.28-10.5c0-7.336,3.389-10.527,7.28-10.527
			C420.053,71.288,423.496,74.479,423.496,81.815z M416.188,91.336c1.652,0,3.08-2.044,3.08-9.521c0-7.531-1.428-9.575-3.08-9.575
			c-1.651,0-3.024,2.016-3.024,9.575C413.164,89.32,414.537,91.336,416.188,91.336z"/>
		<path d="M443.46,90.972v0.868h-6.104l-3.975-8.232l-1.261,1.148v0.196c0,1.651,0.028,4.228,0.056,5.852l1.764,0.168v0.868h-8.26
			v-0.868l1.877-0.168c0.027-1.624,0.056-4.172,0.056-5.628V70.84l-2.044-0.196v-0.728l6.271-1.204l0.393,0.252l-0.112,4.508V83.58
			l6.048-5.853l-2.828-0.336v-0.84h7.309v0.84l-2.744,0.28l-3.36,3.08l5.097,9.996L443.46,90.972z"/>
		<path d="M460.232,78.568l-3.389-0.364c0.645,0.84,0.952,1.876,0.952,3.052c0,2.94-2.101,5.264-6.468,5.264
			c-1.344,0-2.492-0.224-3.416-0.615c-0.309,0.504-0.477,0.979-0.477,1.596c0,1.036,0.645,1.567,2.213,1.567h4.115
			c4.508,0,6.16,1.736,6.16,4.257c0,3.136-3.107,5.768-8.988,5.768c-5.096,0-6.748-1.764-6.748-3.808
			c0-1.232,0.924-2.324,2.801-3.053c-1.232-0.56-2.045-1.288-2.045-2.688c0-1.4,0.729-2.437,2.408-3.92
			c-1.707-0.924-2.52-2.521-2.52-4.368c0-2.996,2.1-5.18,6.523-5.18c2.156,0,3.725,0.531,4.789,1.428l3.584-1.428l0.504,0.308
			V78.568z M450.852,92.82c-1.652,0-2.436-0.057-3.332-0.309c-0.476,0.616-0.699,1.232-0.699,2.156c0,2.044,1.539,3.191,4.088,3.191
			c3.695,0,5.488-1.147,5.488-2.771c0-1.204-0.645-2.268-2.437-2.268H450.852z M453.82,81.256c0-2.744-0.924-4.34-2.465-4.34
			c-1.567,0-2.463,1.624-2.463,4.34s0.812,4.396,2.436,4.396C452.924,85.652,453.82,83.972,453.82,81.256z"/>
		<path d="M474.904,72.352c0.168-0.084,0.476-0.084,0.615,0c0.448,0.225,1.26,0.784,1.54,1.009c0.168,0.14,0.168,0.308,0.084,0.504
			l-0.42,1.036c-0.616,4.928-4.004,10.863-8.567,14.476c-0.168,0.168-0.336,0.196-0.477,0.14l-0.615-0.42
			c-0.168-0.112-0.197-0.224-0.113-0.448c3.193-3.863,5.32-9.407,5.881-13.72c-0.225,0-0.42,0.028-0.532,0.028
			c-0.42,0.028-1.204,0.168-1.624,0.308c-0.141-0.084-0.279-0.195-0.447-0.308c-0.757,4.284-3.893,9.408-7.925,12.46
			c-0.168,0.168-0.364,0.196-0.476,0.14l-0.532-0.392c-0.168-0.112-0.196-0.225-0.112-0.448c2.856-3.276,4.788-8.12,5.348-11.844
			c-0.447,0.028-0.896,0.028-1.063,0.056c-0.42,0.028-1.231,0.168-1.624,0.309c-0.672-0.42-1.344-1.064-1.792-1.568
			c-0.14-0.168-0.14-0.28-0.084-0.392l0.252-0.448c0.588,0.084,1.345,0.14,1.904,0.14c0.616,0,2.548-0.028,3.276-0.084l1.035-0.588
			c0.141-0.084,0.448-0.084,0.616,0c0.28,0.14,0.728,0.42,1.093,0.644c0.307,0.028,0.588,0.028,0.812,0.028
			c0.56,0,2.044-0.028,2.688-0.056L474.904,72.352z M484.451,79.016c0.841-0.027,2.045,0.028,2.576,0.141
			c0.393,0.084,0.645,0.363,0.672,0.728c0.057,0.7-0.111,1.428-0.336,1.708c-0.195,0.252-0.644,0.364-0.979,0.364l-3.948,0.14v5.04
			c0,1.932-0.476,5.769-1.26,7.812h-2.128c-0.252-0.98-0.448-5.349-0.448-6.692V70.784c-0.336-0.645-1.148-1.26-2.044-1.652
			l0.42-1.147c0.056-0.141,0.168-0.225,0.476-0.225c1.4,0.057,3.668,0.504,4.677,0.98c0.336,0.14,0.476,0.42,0.448,0.84
			l-0.141,1.708v8.399l1.12-0.056L484.451,79.016z"/>
		<path d="M503.996,82.852c0.476,0.729,1.092,1.933,1.344,2.576c0.224,0.588,0.252,0.98,0.111,1.26
			c-0.279,0.561-1.119,0.841-1.68,0.616c-0.279-0.112-0.645-0.42-0.896-0.7l-4.172-4.535c-2.239,2.464-5.012,4.676-8.063,6.355
			c-0.224,0.14-0.392,0.14-0.504,0.056l-0.644-0.56c-0.141-0.14-0.168-0.28,0-0.476c4.283-3.5,7.588-8.232,9.155-12.349
			c-1.315,0-2.94,0.028-3.5,0.057c-0.588,0.027-1.651,0.224-2.239,0.447c-0.953-0.476-1.933-1.231-2.604-1.932
			c-0.14-0.14-0.168-0.28-0.084-0.42l0.252-0.42c0.924,0.14,2.101,0.195,2.912,0.195c1.092,0,5.264-0.056,6.524-0.111l1.315-0.532
			c0.196-0.084,0.504-0.084,0.7,0c0.588,0.224,1.736,0.729,2.156,0.98c0.195,0.111,0.195,0.336,0.056,0.504l-0.7,1.092
			c-0.756,1.764-1.82,3.528-3.107,5.208l2.268,2.184L503.996,82.852z M505.396,67.984c0.056-0.141,0.14-0.225,0.448-0.225
			c1.484,0.057,3.863,0.504,4.956,0.98c0.336,0.14,0.476,0.42,0.448,0.84l-0.141,1.82v15.68c0,1.96-0.476,5.824-1.287,7.868h-2.156
			c-0.252-0.952-0.448-5.376-0.448-6.721V70.868c-0.364-0.672-1.232-1.344-2.212-1.765L505.396,67.984z"/>
		<path d="M531.996,84.84c0.195,0.14,0.252,0.252,0.252,0.476c0,0.645-0.225,1.177-0.477,1.429c-0.98,0-2.8,0.027-3.976,0.056
			c-0.168,0.448-0.392,0.756-0.589,0.952h-1.428c-0.224-0.588-0.336-1.512-0.336-2.072l-0.084-8.987
			c-0.14-0.253-0.447-0.532-0.812-0.7l0.364-1.008c0.056-0.141,0.168-0.225,0.447-0.196c0.84,0.084,1.904,0.308,2.549,0.56
			c0.224,0.112,0.279,0.252,0.279,0.561l-0.056,0.952l-0.028,1.792l1.12-0.028v-2.94c-0.14-0.279-0.42-0.531-0.784-0.699
			l0.364-0.952c0.084-0.141,0.196-0.225,0.476-0.196c0.868,0.084,1.904,0.336,2.549,0.616c0.224,0.111,0.279,0.279,0.252,0.56
			l-0.028,1.036l-0.084,5.824c0,0.896-0.168,2.072-0.392,2.744L531.996,84.84z M528.104,80.976l-0.056,3.528l1.176-0.028v-3.527
			L528.104,80.976z M539.527,84.392c0.196,0.141,0.28,0.252,0.28,0.504c0,0.645-0.224,1.148-0.476,1.429
			c-0.952,0-2.717,0.027-3.92,0.056c-0.168,0.42-0.393,0.756-0.588,0.952h-1.429c-0.224-0.616-0.336-1.54-0.336-2.101l-0.112-10.527
			c-0.14-0.252-0.42-0.532-0.783-0.7l0.363-1.008c0.057-0.141,0.168-0.225,0.448-0.196c0.841,0.056,1.904,0.28,2.548,0.504
			c0.252,0.112,0.309,0.252,0.28,0.561l-0.056,1.008l-0.028,3.08l1.036-0.028v-4.228c-0.112-0.28-0.393-0.532-0.756-0.7l0.363-0.952
			c0.084-0.14,0.196-0.224,0.477-0.196c0.867,0.084,1.904,0.336,2.548,0.616c0.252,0.112,0.308,0.252,0.28,0.56l-0.057,1.12
			l-0.084,7.309c0,0.896-0.168,2.071-0.363,2.744L539.527,84.392z M535.691,80.276l-0.027,3.808l1.092-0.028v-3.808L535.691,80.276z
			 M543.392,67.984c0.056-0.141,0.196-0.252,0.504-0.225c1.147,0.057,3.024,0.477,3.864,0.896c0.279,0.14,0.393,0.363,0.363,0.728
			l-0.084,1.428v16.912c0,1.849-0.392,5.32-1.092,7.225h-1.707c-0.252-1.177-0.449-4.9-0.449-6.217v-7.588l-1.008,0.028V86.8
			c0,1.736-0.392,4.872-1.008,6.58h-1.652c-0.224-1.12-0.42-4.424-0.42-5.656V72.156c-0.252-0.477-0.867-0.952-1.539-1.204
			l0.392-1.036c0.056-0.14,0.224-0.252,0.532-0.224c1.035,0.056,2.688,0.476,3.443,0.867c0.225,0.141,0.336,0.364,0.336,0.7
			l-0.084,1.232v6.3l1.008-0.028v-8.372c-0.308-0.531-1.008-1.063-1.791-1.372L543.392,67.984z"/>
		<path d="M566.771,82.852c0.477,0.729,1.092,1.933,1.344,2.576c0.225,0.588,0.252,0.98,0.112,1.26
			c-0.28,0.561-1.12,0.841-1.681,0.616c-0.279-0.112-0.644-0.42-0.896-0.7l-4.172-4.535c-2.239,2.464-5.012,4.676-8.063,6.355
			c-0.225,0.14-0.393,0.14-0.504,0.056l-0.645-0.56c-0.141-0.14-0.168-0.28,0-0.476c4.284-3.5,7.588-8.232,9.156-12.349
			c-1.316,0-2.94,0.028-3.5,0.057c-0.588,0.027-1.652,0.224-2.24,0.447c-0.952-0.476-1.932-1.231-2.604-1.932
			c-0.141-0.14-0.168-0.28-0.084-0.42l0.252-0.42c0.924,0.14,2.1,0.195,2.912,0.195c1.092,0,5.264-0.056,6.523-0.111L564,72.38
			c0.195-0.084,0.504-0.084,0.699,0c0.588,0.224,1.736,0.729,2.156,0.98c0.196,0.111,0.196,0.336,0.057,0.504l-0.701,1.092
			c-0.756,1.764-1.819,3.528-3.107,5.208l2.268,2.184L566.771,82.852z M568.172,67.984c0.056-0.141,0.14-0.225,0.447-0.225
			c1.484,0.057,3.864,0.504,4.957,0.98c0.336,0.14,0.475,0.42,0.447,0.84l-0.141,1.82v15.68c0,1.96-0.475,5.824-1.287,7.868h-2.156
			c-0.252-0.952-0.447-5.376-0.447-6.721V70.868c-0.365-0.672-1.232-1.344-2.213-1.765L568.172,67.984z"/>
		<path d="M8.064,115.584c-3.809,0-6.523-2.324-6.523-5.629c0-3.247,2.715-5.544,6.523-5.544s6.552,2.297,6.552,5.544
			C14.616,113.26,11.873,115.584,8.064,115.584z M8.513,124.655c0,0.225,0.084,0.336,0.336,0.336
			c1.288-0.027,3.108-0.279,4.34-0.616c0.364-1.623,2.185-2.827,4.76-2.827c2.856,0,4.761,1.512,4.761,3.388
			c0,2.044-1.904,3.668-4.761,3.668c-2.323,0-4.004-1.036-4.592-2.521c-1.315,0.616-3.304,1.288-4.788,1.681
			c-0.363,0.14-1.092,0.252-1.26,0.252c-1.316,0-2.156-0.924-2.38-2.185c-0.028-0.168-0.056-0.588-0.056-1.035v-4.341
			c-0.365-0.42-1.009-0.84-1.709-1.119l0.225-0.952c0.056-0.168,0.195-0.28,0.476-0.28c1.177,0,3.276,0.168,4.173,0.364
			c0.363,0.111,0.531,0.363,0.531,0.756l-0.056,1.483V124.655z M8.064,112.728c1.652,0,2.744-1.064,2.744-2.772
			s-1.092-2.8-2.744-2.8s-2.744,1.092-2.744,2.8S6.412,112.728,8.064,112.728z M22.316,118.775c0.756,0.028,1.904,0.224,2.408,0.393
			c0.195,0.056,0.336,0.279,0.336,0.504c0,0.644-0.42,1.26-0.7,1.428c-0.476-0.056-1.708-0.084-2.323-0.084
			c-0.953,0-6.301,0.084-7.197,0.14c-0.56,0.057-1.539,0.196-2.016,0.364c-0.84-0.42-1.68-1.12-2.24-1.708
			c-0.084-0.112-0.111-0.252-0.056-0.336l0.224-0.42c0.812,0.14,1.904,0.252,2.576,0.252c1.092,0,7.028-0.084,8.092-0.168
			L22.316,118.775z M13.973,115.584c2.324,0.363,4.619,0.447,6.244,0.447c0.336,0,0.504,0.057,0.644,0.309
			c0.28,0.476,0.168,1.54-0.168,1.848c-0.168,0.14-0.336,0.168-0.588,0.168c-1.063-0.028-2.94,0.028-4.088,0.112
			c-0.336,0.027-0.476,0.027-0.673-0.112c-0.56-0.42-1.203-1.204-1.596-1.876c-0.111-0.196-0.14-0.364-0.056-0.504L13.973,115.584z
			 M23.801,108.527c0.84-0.027,2.043,0.028,2.576,0.141c0.392,0.084,0.644,0.363,0.672,0.728c0.056,0.7-0.112,1.428-0.336,1.708
			c-0.196,0.252-0.645,0.364-0.98,0.364l-4.368,0.14c-0.224,1.204-0.588,2.548-0.979,3.22h-2.269
			c-0.28-0.812-0.448-3.164-0.448-4.115v-6.272c-0.336-0.644-1.176-1.315-2.1-1.708l0.393-1.147
			c0.056-0.141,0.168-0.225,0.476-0.225c1.456,0.057,3.752,0.504,4.815,0.98c0.309,0.14,0.448,0.42,0.42,0.84l-0.111,1.764v4.284
			l1.344-0.084L23.801,108.527z M19.377,124.936c0-0.729-0.477-1.26-1.429-1.26s-1.428,0.531-1.428,1.26
			c0,0.7,0.476,1.231,1.428,1.231S19.377,125.636,19.377,124.936z"/>
		<path d="M49.42,120.791c1.232,0.057,3.024,0.337,3.78,0.616c0.308,0.112,0.504,0.364,0.504,0.729c0,0.812-0.532,1.567-0.952,1.764
			c-0.699-0.084-2.771-0.14-3.724-0.14c-1.933,0-12.853,0.111-14.616,0.224c-0.756,0.056-2.576,0.364-3.388,0.588
			c-1.177-0.476-2.492-1.428-3.332-2.268c-0.112-0.112-0.14-0.309-0.084-0.448l0.28-0.532c1.176,0.196,2.716,0.309,3.836,0.336
			c1.904,0.028,14.363-0.111,16.38-0.279L49.42,120.791z M40.629,117.516c-4.396,0-7.812-2.716-7.812-6.44
			c0-3.724,3.416-6.439,7.812-6.439c4.396,0,7.783,2.716,7.783,6.439C48.412,114.8,45.024,117.516,40.629,117.516z M40.629,107.296
			c-2.129,0-3.781,1.456-3.781,3.779c0,2.324,1.652,3.752,3.781,3.752c2.127,0,3.779-1.428,3.779-3.752
			C44.408,108.752,42.756,107.296,40.629,107.296z"/>
		<path d="M61.012,116.928c-0.14,0.476-0.392,0.84-0.699,1.231h-2.129c-0.279-0.644-0.447-1.54-0.504-2.323l-0.588-8.484
			c-0.308-0.392-0.896-0.812-1.512-1.064l0.252-1.008c0.057-0.111,0.168-0.195,0.393-0.195c1.287,0,3.527,0.168,4.844,0.392
			c1.119,0.028,3.611,0,4.76-0.084l1.372-0.645c0.196-0.084,0.448-0.084,0.644,0c0.532,0.225,1.596,0.729,2.045,1.009
			c0.111,0.084,0.14,0.224,0.056,0.476l-0.28,1.008c0.252,0.028,0.532,0.028,0.812,0.028c0.728,0,2.072-0.028,3.191-0.084v-2.744
			c-0.336-0.644-1.176-1.315-2.1-1.708l0.392-1.147c0.056-0.141,0.168-0.225,0.476-0.225c1.457,0.057,3.752,0.504,4.816,0.98
			c0.309,0.14,0.448,0.42,0.42,0.84l-0.111,1.764v9.072c0,2.268-0.477,5.6-1.26,7.392h-2.185c-0.28-1.036-0.448-4.844-0.448-6.3
			v-1.092c-0.812,0-1.652,0.056-2.072,0.084s-1.092,0.14-1.567,0.28c-0.364-0.252-0.7-0.561-1.009-0.841l-0.14,0.925l0.308,0.168
			c0.197,0.111,0.309,0.279,0.309,0.504c0,0.812-0.225,1.456-0.477,1.735L61.012,116.928z M65.576,107.771
			c-1.372,0-3.107,0.028-4.48,0.056l0.057,6.721c1.176,0.027,2.855,0.027,3.863-0.028l0.533-0.14L65.576,107.771z M75.572,124.628
			c1.008-0.028,2.464,0.084,3.164,0.252c0.363,0.084,0.588,0.336,0.588,0.672c0,0.924-0.28,1.596-0.532,1.819
			c-0.14,0.141-0.364,0.196-0.616,0.196l-11.871,0.112c-2.269-0.028-3.164-0.952-3.164-2.716v-2.969
			c-0.448-0.42-1.205-0.867-1.933-1.147l0.224-0.952c0.028-0.14,0.196-0.28,0.477-0.28c1.316,0,3.668,0.168,4.676,0.393
			c0.364,0.084,0.561,0.336,0.561,0.756l-0.057,1.596v2.324c0,0.476,0.196,0.7,0.672,0.7c1.596,0.027,4.928-0.028,6.58-0.084
			L75.572,124.628z M73.668,109.283c-0.84,0-1.68,0.057-2.1,0.084c-0.42,0.028-1.092,0.141-1.568,0.28
			c-0.195-0.14-0.393-0.28-0.561-0.448c-0.055,0.896-0.139,1.82-0.252,2.744c0.449,0.028,0.896,0.057,1.316,0.057
			c0.729,0,2.072-0.028,3.164-0.085V109.283z"/>
		<path d="M103.797,118.888c0.027,0.14-0.057,0.308-0.253,0.448c-1.428,0.84-4.06,1.819-5.88,2.071
			c-0.477,0.057-1.008,0.112-1.344,0.112c-1.876,0-2.66-0.588-3.137-2.1c-0.055-0.168-0.111-0.841-0.111-1.54v-8.4
			c-0.364-0.448-0.98-0.868-1.68-1.148l0.252-1.008c0.056-0.111,0.14-0.195,0.336-0.195c1.148,0,3.836,0.111,4.9,0.252
			c0.531-0.028,1.764-0.084,2.155-0.141l0.812-0.56c0.729-0.028,1.933,0.056,2.521,0.14c0.336,0.084,0.504,0.309,0.504,0.616
			c0,0.84-0.252,1.512-0.532,1.792c-0.14,0.112-0.308,0.168-0.56,0.168l-4.929,0.196v8.315c0,0.336,0.141,0.477,0.504,0.477
			c1.652-0.028,4.369-0.28,5.769-0.616c0.252-0.056,0.392,0,0.448,0.196L103.797,118.888z M103.824,103.487
			c0.057-0.14,0.168-0.224,0.504-0.224c1.26,0.056,3.275,0.504,4.2,0.952c0.28,0.14,0.392,0.392,0.392,0.784l-0.111,1.512v13.384
			c0,1.792-0.448,5.208-1.148,7h-1.932c-0.252-1.064-0.448-4.732-0.448-5.992v-6.691c-0.672,0.027-1.513,0.056-1.849,0.084
			c-0.504,0.027-1.315,0.195-1.819,0.363c-0.784-0.504-1.429-1.036-1.96-1.68c-0.084-0.14-0.112-0.252-0.057-0.392l0.28-0.477
			c0.616,0.057,1.513,0.084,2.212,0.084c0.756,0,2.213-0.027,3.192-0.084v-6.048c-0.308-0.56-1.063-1.12-1.876-1.484
			L103.824,103.487z M108.864,101.584c0.084-0.141,0.196-0.225,0.504-0.225c1.344,0.057,3.528,0.504,4.536,0.98
			c0.308,0.14,0.447,0.392,0.42,0.812l-0.112,1.652v16.044c0,1.932-0.476,5.684-1.26,7.7h-2.044
			c-0.252-0.98-0.448-5.265-0.448-6.608V104.3c-0.308-0.588-1.12-1.204-1.987-1.597L108.864,101.584z"/>
		<path d="M134.596,101.584c0.057-0.141,0.141-0.225,0.448-0.225c1.483,0.057,3.864,0.504,4.956,0.98
			c0.336,0.14,0.477,0.42,0.447,0.84l-0.139,1.82v15.68c0,1.96-0.477,5.824-1.289,7.868h-2.156
			c-0.252-0.952-0.447-5.376-0.447-6.721v-3.947c-1.848,0.42-4.424,0.84-6.943,1.176v1.456c0,1.848-0.617,5.571-1.261,7.168h-2.128
			c-0.195-1.092-0.447-4.732-0.447-6.021v-2.184c-0.589,0.056-1.121,0.112-1.625,0.14c-0.699,0.057-1.988,0.336-2.66,0.588
			c-1.119-0.56-2.492-1.567-3.388-2.464c-0.14-0.14-0.168-0.224-0.084-0.392l0.252-0.561c1.177,0.196,2.688,0.252,3.864,0.225
			c4.031-0.057,11.312-0.616,14.42-1.26v-11.284c-0.364-0.672-1.232-1.344-2.212-1.765L134.596,101.584z M120.932,106.623
			c-0.224-0.363-0.896-0.867-1.428-1.063l0.252-0.952c0.028-0.112,0.141-0.196,0.504-0.196c1.064-0.027,3.305,0.196,4.172,0.421
			c0.28,0.084,0.393,0.308,0.364,0.672l-0.056,1.372v0.644l5.292-0.056v-1.96c-0.224-0.393-0.841-0.868-1.4-1.12l0.336-0.924
			c0.085-0.168,0.196-0.252,0.532-0.225c1.092,0.057,3.221,0.393,4.032,0.672c0.308,0.112,0.392,0.336,0.364,0.672l-0.084,1.484
			l-0.028,3.164c0,0.924-0.196,2.072-0.392,2.716l0.56,0.225c0.168,0.084,0.252,0.224,0.252,0.392c0,0.644-0.196,1.288-0.42,1.512
			c-2.156-0.027-6.804,0.028-9.324,0.084c-0.196,0.588-0.532,0.98-0.84,1.176h-2.044c-0.309-0.644-0.477-1.567-0.477-2.155
			L120.932,106.623z M124.712,109.76l-0.028,2.1l5.349-0.056v-2.101L124.712,109.76z"/>
		<path d="M166.292,113.791c1.231,0.057,3.052,0.337,3.78,0.616c0.308,0.112,0.504,0.336,0.504,0.7c0,0.756-0.532,1.456-0.952,1.624
			c-0.7-0.084-2.772-0.14-3.724-0.14c-1.904,0-12.937,0.111-14.645,0.224c-0.729,0.056-2.548,0.364-3.359,0.588
			c-1.177-0.42-2.492-1.315-3.332-2.1c-0.112-0.112-0.141-0.309-0.084-0.448l0.279-0.532c1.176,0.196,2.717,0.309,3.836,0.336
			c1.876,0.028,14.393-0.111,16.38-0.279L166.292,113.791z M149.939,109.283c-0.363-0.42-0.979-0.783-1.651-1.036l0.168-0.812
			c0.028-0.112,0.14-0.196,0.336-0.196c1.204,0,4.088,0.057,5.124,0.168c1.736,0,5.264-0.056,6.384-0.111l0.504-0.112
			c0.056-0.448,0.056-1.316,0.028-1.652c-1.988,0-5.852,0.028-6.776,0.084c-0.672,0.057-1.848,0.225-2.632,0.42
			c-0.98-0.504-1.96-1.231-2.66-1.932c-0.14-0.14-0.168-0.252-0.084-0.392l0.225-0.448c0.896,0.168,2.352,0.28,3.08,0.28
			c1.371,0,8.092-0.057,9.631-0.141l1.232-0.504c0.168-0.084,0.42-0.084,0.616,0c0.476,0.196,1.483,0.616,1.849,0.84
			c0.168,0.112,0.195,0.309,0.084,0.504l-0.477,0.952c-0.141,0.616-0.448,1.54-0.7,2.017l0.532,0.279
			c0.168,0.084,0.279,0.252,0.279,0.393c0,0.532-0.224,1.092-0.42,1.315l-10.752,0.141v1.176c0,0.392,0.141,0.56,0.533,0.56
			c2.127,0,5.963-0.056,7.531-0.14l0.84-0.448c0.868-0.027,2.128,0.084,2.717,0.196c0.336,0.084,0.531,0.308,0.531,0.616
			c0,0.756-0.195,1.288-0.393,1.483c-0.111,0.112-0.307,0.168-0.531,0.168l-12.656,0.196c-1.764-0.056-2.492-0.784-2.492-2.24
			V109.283z M163.324,125.552c0.924,0,2.268,0.111,2.912,0.279c0.336,0.084,0.531,0.309,0.531,0.645c0,0.756-0.224,1.315-0.42,1.512
			c-0.14,0.14-0.363,0.168-0.588,0.168l-12.88,0.084c-1.681-0.027-2.408-0.812-2.408-2.324v-1.792
			c-0.364-0.42-0.952-0.756-1.624-1.008l0.141-0.812c0.027-0.112,0.14-0.196,0.336-0.196c1.203,0,4.004,0.056,5.096,0.168
			c1.764,0,5.096-0.028,6.16-0.084l0.615-0.14c0.028-0.393,0.057-1.288,0.028-1.624c-1.932-0.028-6.02,0.027-6.972,0.084
			c-0.7,0.056-1.848,0.224-2.632,0.42c-0.952-0.504-1.933-1.26-2.632-1.933c-0.141-0.14-0.168-0.252-0.084-0.392l0.224-0.448
			c0.896,0.168,2.323,0.28,3.052,0.28c1.428,0,8.176-0.056,9.688-0.112l1.121-0.476c0.168-0.084,0.363-0.084,0.588,0
			c0.476,0.168,1.484,0.532,1.875,0.728c0.141,0.084,0.168,0.28,0.084,0.504l-0.504,1.12c-0.056,0.561-0.363,1.484-0.56,1.96
			l0.532,0.252c0.168,0.084,0.252,0.225,0.252,0.393c0,0.56-0.225,1.12-0.42,1.344l-10.473,0.112v1.231
			c0,0.393,0.168,0.561,0.533,0.561c2.071,0.027,5.795,0,7.504-0.057L163.324,125.552z"/>
		<path d="M193.479,105.84c0.896,0.056,2.185,0.252,2.716,0.447c0.225,0.084,0.364,0.336,0.364,0.589c0,0.783-0.392,1.512-0.7,1.708
			c-0.504-0.057-2.016-0.057-2.688-0.057c-1.037,0-7.28,0.141-8.316,0.225c-0.588,0.027-1.652,0.224-2.212,0.363
			c-0.925-0.504-1.876-1.315-2.492-2.044c-0.112-0.111-0.112-0.252-0.056-0.363l0.224-0.448c0.952,0.168,2.24,0.252,2.996,0.252
			c1.204,0.027,7.924-0.141,9.185-0.225L193.479,105.84z M188.719,117.264c-3.387,0-6.047-1.596-6.047-4.061
			c0-2.436,2.66-3.976,6.047-3.976c3.361,0,5.992,1.54,5.992,3.976C194.711,115.668,192.08,117.264,188.719,117.264z
			 M184.379,102.34c2.521,0.42,5.236,0.531,6.944,0.504c0.364,0,0.56,0.056,0.7,0.336c0.309,0.476,0.252,1.708-0.141,2.072
			c-0.168,0.14-0.392,0.168-0.644,0.168c-1.12,0-3.248,0.056-4.424,0.168c-0.392,0.027-0.616,0.027-0.84-0.141
			c-0.616-0.476-1.4-1.428-1.876-2.239c-0.084-0.196-0.084-0.337,0-0.477L184.379,102.34z M199.555,125.327
			c0.925,0,2.269,0.112,2.912,0.28c0.336,0.084,0.561,0.336,0.561,0.644c0,0.757-0.252,1.316-0.447,1.54
			c-0.113,0.112-0.337,0.168-0.561,0.168l-11.76,0.084c-2.101-0.027-2.885-0.812-2.885-2.296v-1.819
			c-0.363-0.42-0.951-0.756-1.623-1.008l0.14-0.812c0.028-0.112,0.14-0.196,0.336-0.196c1.204,0,4.004,0.057,5.096,0.168
			c1.456,0,4.284-0.027,5.181-0.084l0.644-0.14c0.056-0.392,0.084-1.26,0.056-1.568c-1.736,0-5.236,0.028-6.076,0.084
			c-0.699,0.028-1.848,0.196-2.631,0.393c-0.98-0.504-1.961-1.288-2.66-1.988c-0.168-0.14-0.168-0.252-0.084-0.392l0.224-0.448
			c0.896,0.168,2.353,0.28,3.08,0.28c1.344,0,7.42-0.057,8.819-0.112l1.205-0.504c0.168-0.084,0.363-0.084,0.588,0
			c0.476,0.168,1.455,0.56,1.848,0.756c0.14,0.112,0.168,0.308,0.084,0.532l-0.504,1.12c-0.084,0.588-0.364,1.483-0.588,1.903
			l0.504,0.28c0.195,0.112,0.308,0.252,0.308,0.392c0,0.589-0.224,1.148-0.42,1.372l-9.632,0.112v1.176
			c0,0.393,0.168,0.588,0.531,0.588c1.681,0.028,5.236,0,6.832-0.056L199.555,125.327z M188.719,115.052
			c1.345,0,2.324-0.7,2.324-1.849c0-1.176-0.979-1.848-2.324-1.848c-1.344,0-2.323,0.672-2.323,1.848
			C186.396,114.352,187.375,115.052,188.719,115.052z M203.447,109.76c0.84-0.028,2.044,0.027,2.576,0.14
			c0.393,0.084,0.645,0.364,0.672,0.729c0.057,0.699-0.111,1.428-0.336,1.708c-0.195,0.252-0.645,0.363-0.98,0.363l-4.256,0.141
			c-0.168,1.428-0.615,3.191-1.092,4.06h-2.268c-0.28-0.812-0.448-3.332-0.448-4.34v-8.12c-0.336-0.644-1.177-1.315-2.101-1.708
			l0.393-1.147c0.057-0.141,0.168-0.225,0.477-0.225c1.455,0.057,3.752,0.504,4.815,0.98c0.308,0.14,0.448,0.42,0.42,0.84
			l-0.112,1.764v5.517l1.344-0.084L203.447,109.76z"/>
		<path d="M237.747,115.247c1.231,0.057,3.024,0.337,3.78,0.616c0.308,0.112,0.504,0.364,0.504,0.729
			c0,0.812-0.532,1.567-0.952,1.764c-0.7-0.084-2.772-0.14-3.724-0.14c-0.869,0-3.528,0.027-6.356,0.056v2.772
			c0,1.876-0.616,5.6-1.288,7.224h-2.156c-0.195-1.12-0.447-4.76-0.447-6.076v-3.864c-2.045,0.028-3.752,0.084-4.369,0.112
			c-0.756,0.056-2.575,0.364-3.387,0.588c-1.177-0.476-2.492-1.428-3.332-2.268c-0.112-0.112-0.141-0.309-0.084-0.448l0.279-0.532
			c1.176,0.196,2.717,0.309,3.836,0.336c1.904,0.028,14.364-0.111,16.38-0.279L237.747,115.247z M218.23,113.371
			c-0.084-0.111-0.056-0.279,0.112-0.363c4.284-2.269,7.308-5.04,8.82-8.036c-0.196-0.393-0.7-0.896-1.231-1.204l0.504-0.924
			c0.084-0.141,0.252-0.196,0.56-0.168c1.344,0.14,3.556,0.728,4.396,1.176c0.364,0.168,0.561,0.448,0.561,0.756
			c-0.028,0.42-0.112,0.672-0.225,0.868c-0.308,0.532-0.644,1.036-1.063,1.54l4.2,1.876l2.184,0.056
			c0.672,0.42,1.624,1.12,2.072,1.568c0.392,0.392,0.56,0.728,0.56,1.008c-0.028,0.672-0.672,1.288-1.288,1.372
			c-0.336,0.056-0.783-0.084-1.148-0.252l-8.231-3.864c-2.491,2.296-5.964,4.172-9.884,5.265c-0.195,0.056-0.336,0.027-0.42-0.057
			L218.23,113.371z"/>
		<path d="M270.646,110.936c-0.616,0-1.204,0.028-1.512,0.084c-0.42,0.056-1.26,0.252-1.709,0.42
			c-0.363-0.224-0.699-0.448-1.008-0.7c-0.363,2.912-2.967,4.929-6.496,4.929c-3.836,0-6.523-2.381-6.523-5.685
			c0-3.248,2.688-5.6,6.523-5.6c3.389,0,5.881,1.819,6.44,4.479c0.505,0.028,1.063,0.057,1.54,0.057
			c0.616,0.027,1.736,0,2.744-0.057v-4.424c-0.336-0.644-1.176-1.315-2.1-1.708l0.392-1.147c0.056-0.141,0.168-0.225,0.476-0.225
			c1.457,0.057,3.752,0.504,4.816,0.98c0.309,0.14,0.447,0.42,0.42,0.84l-0.111,1.764v5.433c0,1.567-0.533,4.563-1.205,5.964h-2.24
			c-0.252-0.868-0.447-3.948-0.447-5.04V110.936z M275.799,124.207c0.363,0.616,0.812,1.597,0.979,2.129
			c0.14,0.476,0.14,0.783,0,1.035c-0.28,0.532-1.063,0.841-1.567,0.672c-0.309-0.084-0.617-0.363-0.84-0.672l-2.856-3.443
			c-1.204,1.624-2.828,3.164-4.816,4.536c-0.224,0.168-0.364,0.168-0.504,0.084l-0.7-0.561c-0.168-0.14-0.168-0.28,0-0.476
			l0.141-0.168c-1.54,0-4.256,0-5.797,0.027c-0.168,0.448-0.42,0.756-0.672,0.925h-1.735c-0.252-0.589-0.364-1.456-0.392-2.017
			l-0.112-6.636c-0.224-0.364-0.757-0.784-1.261-0.98l0.225-0.812c0.027-0.112,0.14-0.196,0.477-0.196
			c1.008,0,2.771,0.225,3.555,0.448c0.252,0.084,0.365,0.28,0.336,0.616l-0.055,1.204l-0.029,0.951l2.521-0.027v-1.96
			c-0.224-0.393-0.756-0.868-1.26-1.12l0.224-0.868c0.057-0.14,0.168-0.224,0.504-0.196c1.036,0.028,2.828,0.309,3.641,0.588
			c0.252,0.112,0.336,0.28,0.308,0.616l-0.056,1.148l-0.057,3.611c0,0.868-0.195,1.961-0.392,2.576l0.532,0.28
			c0.168,0.112,0.252,0.224,0.252,0.448c0,0.168-0.028,0.336-0.028,0.504c1.82-2.408,2.94-4.928,3.248-7.28
			c-0.168-0.392-0.7-0.924-1.231-1.231l0.531-0.98c0.084-0.14,0.252-0.224,0.504-0.168c1.26,0.196,3.164,0.812,3.893,1.232
			c0.336,0.195,0.504,0.447,0.504,0.699c0,0.336-0.028,0.589-0.084,0.784c-0.225,0.812-0.532,1.624-0.952,2.437l1.513,1.54
			L275.799,124.207z M259.922,112.812c1.652,0,2.744-1.092,2.744-2.828s-1.092-2.855-2.744-2.855c-1.651,0-2.743,1.119-2.743,2.855
			S258.271,112.812,259.922,112.812z M260.146,123.06l-0.057,2.072l2.604-0.028v-2.072L260.146,123.06z"/>
		<path d="M297.694,110.936c-0.616,0-1.204,0.028-1.513,0.084c-0.42,0.056-1.26,0.252-1.707,0.42c-0.364-0.224-0.672-0.448-0.98-0.7
			c-0.308,3.052-2.939,5.181-6.523,5.181c-3.809,0-6.524-2.408-6.524-5.74c0-3.276,2.716-5.656,6.524-5.656
			c3.275,0,5.768,1.764,6.384,4.34c0.532,0.028,1.12,0.057,1.596,0.057c0.616,0.027,1.736,0,2.744-0.057v-4.424
			c-0.336-0.644-1.176-1.315-2.101-1.708l0.393-1.147c0.057-0.141,0.168-0.225,0.477-0.225c1.455,0.057,3.752,0.504,4.815,0.98
			c0.308,0.14,0.448,0.42,0.42,0.84l-0.112,1.764v6.3c0,1.597-0.531,4.593-1.203,5.992h-2.24c-0.252-0.868-0.448-3.948-0.448-5.067
			V110.936z M302.034,124.291c0.392,0.589,0.841,1.484,1.009,2.017c0.139,0.448,0.139,0.756,0.027,0.979
			c-0.28,0.532-1.036,0.84-1.568,0.7c-0.279-0.056-0.588-0.336-0.84-0.616l-2.968-3.388c-1.483,1.792-3.528,3.472-6.021,4.872
			c-0.224,0.14-0.336,0.14-0.476,0.056l-0.728-0.56c-0.141-0.14-0.141-0.28,0.027-0.448c0.532-0.476,1.036-0.979,1.484-1.483
			c-0.196-0.084-0.393-0.225-0.561-0.421l-2.24-2.38c-1.512,1.765-3.639,3.389-6.215,4.704c-0.225,0.141-0.364,0.141-0.504,0.057
			l-0.701-0.589c-0.139-0.111-0.168-0.252,0.029-0.42c2.771-2.296,4.676-4.899,5.403-7.42c-0.196-0.363-0.7-0.812-1.231-1.092
			l0.531-0.979c0.084-0.141,0.252-0.196,0.504-0.168c1.232,0.168,3.164,0.756,3.893,1.176c0.308,0.168,0.476,0.42,0.476,0.672
			c0,0.364-0.056,0.588-0.14,0.784c-0.196,0.504-0.448,0.979-0.729,1.456l1.176,1.176l1.064,0.532
			c0.225,0.336,0.477,0.84,0.645,1.231c1.231-1.651,2.071-3.388,2.492-5.04c-0.168-0.392-0.701-0.924-1.232-1.231l0.531-0.98
			c0.084-0.168,0.252-0.224,0.504-0.168c1.261,0.252,3.137,0.896,3.893,1.372c0.309,0.196,0.477,0.42,0.477,0.672
			c0,0.336-0.057,0.588-0.113,0.784c-0.252,0.672-0.559,1.344-0.951,1.988l1.568,1.512L302.034,124.291z M284.227,110.18
			c0,1.792,1.092,2.884,2.744,2.884s2.744-1.092,2.744-2.884c0-1.764-1.092-2.912-2.744-2.912S284.227,108.416,284.227,110.18z"/>
		<path d="M328.998,112.308c0.84-0.028,2.044,0.028,2.576,0.14c0.393,0.084,0.645,0.364,0.672,0.729
			c0.057,0.7-0.111,1.428-0.336,1.708c-0.195,0.252-0.645,0.363-0.98,0.363l-4.115,0.141v5.292c0,1.96-0.477,5.824-1.288,7.868
			h-2.156c-0.252-0.952-0.448-5.376-0.448-6.721v-2.996c-3.359,1.12-7.447,1.96-10.248,2.24c-0.447,0.057-0.896,0.057-1.231,0.057
			c-1.568,0-2.66-0.868-3.08-2.213c-0.112-0.363-0.196-0.979-0.196-1.624v-8.371c-0.363-0.477-1.035-0.952-1.792-1.232l0.253-1.008
			c0.055-0.112,0.139-0.196,0.336-0.196c1.176,0,3.836,0.14,4.983,0.336c1.036-0.027,3.472-0.168,4.284-0.252l0.896-0.616
			c0.841,0,2.156,0.057,2.828,0.196c0.336,0.084,0.532,0.308,0.532,0.645c0,0.84-0.225,1.455-0.477,1.735
			c-0.14,0.141-0.336,0.196-0.588,0.196l-7.363,0.308v8.288c0,0.393,0.168,0.588,0.56,0.561c2.884-0.028,7.056-0.448,10.304-1.261
			v-12.151c-0.363-0.672-1.232-1.344-2.212-1.765l0.392-1.119c0.057-0.141,0.141-0.225,0.449-0.225
			c1.483,0.057,3.863,0.504,4.955,0.98c0.336,0.14,0.477,0.42,0.448,0.84l-0.14,1.82v8.008l1.287-0.084L328.998,112.308z"/>
		<path d="M334.654,106.315c-1.008-0.728-1.232-1.399-1.232-2.184c0-1.261,1.008-2.128,2.156-2.128c0.812,0,1.4,0.363,1.848,0.699
			c0.477,0.784,0.729,1.708,0.729,2.604c0,2.632-1.932,5.012-4.788,6.02l-0.336-0.699c1.596-0.784,2.632-1.765,3.276-3.164
			L334.654,106.315z M341.066,106.315c-1.008-0.728-1.232-1.399-1.232-2.184c0-1.261,1.008-2.128,2.156-2.128
			c0.812,0,1.4,0.363,1.848,0.699c0.477,0.784,0.729,1.708,0.729,2.604c0,2.632-1.961,5.012-4.789,6.02l-0.336-0.699
			c1.597-0.784,2.633-1.765,3.277-3.164L341.066,106.315z"/>
		<path d="M367.834,120.903c1.232,0.056,3.023,0.336,3.779,0.616c0.309,0.112,0.504,0.364,0.504,0.728
			c0,0.812-0.531,1.568-0.951,1.765c-0.7-0.084-2.771-0.141-3.725-0.141c-1.932,0-12.852,0.112-14.615,0.225
			c-0.756,0.056-2.576,0.363-3.389,0.588c-1.176-0.477-2.492-1.428-3.332-2.269c-0.111-0.111-0.14-0.308-0.084-0.447l0.28-0.532
			c1.177,0.196,2.716,0.308,3.836,0.336c0.757,0,3.248,0,6.076-0.028l-0.028-6.58c-0.279-0.363-1.035-0.867-1.652-1.092l0.225-1.008
			c0.027-0.112,0.112-0.196,0.477-0.196c1.063-0.027,3.724,0.196,4.508,0.42c0.336,0.084,0.476,0.336,0.42,0.673l-0.196,1.819
			l-0.112,5.908c3.053-0.056,5.797-0.112,6.664-0.196L367.834,120.903z M363.718,118.607c-0.224-0.028-0.308-0.168-0.28-0.56
			c0.477-2.576,0.616-7.448,0.561-10.557c-2.604,0.028-7.225,0.112-8.568,0.196c-0.867,0.056-2.24,0.28-3.023,0.504
			c-1.064-0.56-2.213-1.428-2.94-2.212c-0.168-0.168-0.196-0.28-0.112-0.448l0.252-0.504c1.064,0.168,2.437,0.252,3.389,0.252
			c1.484,0.028,9.324-0.111,11.479-0.252l1.372-0.672c0.196-0.112,0.477-0.112,0.672,0c0.588,0.28,1.736,0.896,2.213,1.204
			c0.139,0.112,0.168,0.28,0.084,0.532l-0.533,1.456c-0.168,3.359-1.344,8.063-2.855,11.004c-0.111,0.224-0.363,0.308-0.615,0.279
			L363.718,118.607z"/>
		<path d="M387.293,114.743c-0.168,0.42-0.392,0.784-0.699,1.148h-2.1c-0.253-0.645-0.421-1.568-0.505-2.353l-0.588-6.859
			c-0.308-0.42-0.896-0.812-1.512-1.064l0.252-1.008c0.056-0.112,0.168-0.196,0.392-0.196c1.288,0,3.528,0.168,4.844,0.393
			c1.176,0.028,3.809,0,4.984-0.084l1.372-0.645c0.196-0.084,0.448-0.084,0.644,0c0.532,0.225,1.597,0.729,2.045,1.009
			c0.111,0.084,0.14,0.224,0.056,0.476l-0.42,1.456c-0.112,1.68-0.364,3.696-0.7,5.236l0.561,0.308
			c0.195,0.084,0.308,0.252,0.308,0.504c0,0.7-0.224,1.372-0.476,1.624L387.293,114.743z M400.985,125.02
			c0.924-0.028,2.269,0.112,2.912,0.28c0.336,0.084,0.56,0.336,0.56,0.672c0,0.812-0.224,1.399-0.42,1.596
			c-0.111,0.14-0.363,0.196-0.588,0.196l-12.18,0.084c-1.96-0.028-2.717-0.812-2.717-2.353v-2.239
			c-0.363-0.42-0.951-0.757-1.623-1.009l0.14-0.812c0.028-0.112,0.14-0.196,0.336-0.196c1.204,0,4.032,0.057,5.097,0.168
			c1.455,0,4.563-0.027,5.6-0.084l0.615-0.14c0.057-0.448,0.057-1.456,0.029-1.82c-1.765,0-5.32,0.028-6.188,0.084
			c-0.7,0.028-1.876,0.196-2.66,0.393c-0.979-0.532-1.96-1.316-2.688-2.044c-0.14-0.141-0.14-0.225-0.084-0.393l0.252-0.448
			c0.896,0.168,2.381,0.28,3.108,0.28c1.345,0,7.532-0.056,8.933-0.112l1.203-0.504c0.168-0.084,0.364-0.084,0.588,0
			c0.477,0.168,1.457,0.561,1.848,0.756c0.141,0.112,0.169,0.309,0.085,0.532l-0.505,1.12c-0.055,0.645-0.363,1.736-0.588,2.24
			l0.504,0.252c0.197,0.112,0.309,0.252,0.309,0.42c0,0.616-0.225,1.204-0.42,1.456l-9.996,0.112v1.428
			c0,0.42,0.168,0.588,0.532,0.588c1.764,0.028,5.432,0,7.084-0.056L400.985,125.02z M392.109,107.1
			c-1.456,0-3.248,0.028-4.676,0.056l0.027,5.208c1.232,0.028,2.996,0,4.061-0.027l0.531-0.141L392.109,107.1z M404.989,108.416
			c0.84-0.028,2.044,0.027,2.576,0.14c0.392,0.084,0.644,0.364,0.672,0.728c0.056,0.7-0.112,1.429-0.336,1.708
			c-0.196,0.252-0.644,0.364-0.979,0.364l-4.312,0.14c-0.141,1.456-0.616,3.36-1.12,4.284h-2.269
			c-0.279-0.812-0.447-3.332-0.447-4.34v-7c-0.336-0.644-1.176-1.315-2.1-1.708l0.392-1.147c0.056-0.141,0.168-0.225,0.476-0.225
			c1.457,0.057,3.752,0.504,4.816,0.98c0.309,0.14,0.447,0.42,0.42,0.84l-0.111,1.764v4.172l1.428-0.084L404.989,108.416z"/>
		<path d="M420.081,106.987c0.728,0.028,1.904,0.168,2.408,0.309c0.196,0.084,0.336,0.279,0.336,0.56
			c0,0.84-0.392,1.512-0.756,1.708c-0.448-0.028-1.651-0.056-2.296-0.056c-0.84,0-5.6,0.168-6.496,0.224
			c-0.532,0.028-1.428,0.168-1.904,0.28c-0.783-0.477-1.568-1.204-2.072-1.82c-0.111-0.112-0.14-0.28-0.084-0.364l0.252-0.476
			c0.785,0.168,1.765,0.252,2.437,0.252c1.063,0,6.216-0.14,7.28-0.252L420.081,106.987z M416.861,117.852
			c-3.164,0-5.572-1.484-5.572-3.92c0-2.408,2.408-3.836,5.572-3.836c3.08,0,5.432,1.428,5.432,3.836
			C422.293,116.367,419.941,117.852,416.861,117.852z M432.682,124.432c0.363,0.588,0.812,1.512,0.979,2.016
			c0.14,0.448,0.14,0.756,0.028,0.98c-0.28,0.56-1.036,0.868-1.568,0.728c-0.279-0.056-0.588-0.336-0.84-0.616l-2.744-3.136
			c-1.54,1.764-3.695,3.36-6.355,4.564c-0.225,0.14-0.364,0.14-0.477,0.027l-0.645-0.644c-0.139-0.14-0.139-0.28,0.029-0.42
			c0.531-0.448,1.035-0.924,1.512-1.372c-0.168-0.084-0.336-0.224-0.477-0.393l-2.072-2.212c-1.539,1.736-3.808,3.305-6.523,4.425
			c-0.252,0.14-0.364,0.14-0.504,0.056l-0.616-0.645c-0.168-0.168-0.168-0.308,0-0.447c2.688-2.017,4.536-4.2,5.349-6.496
			c-0.197-0.364-0.701-0.812-1.232-1.092l0.531-0.98c0.084-0.14,0.252-0.196,0.504-0.168c1.232,0.168,3.164,0.756,3.893,1.176
			c0.309,0.168,0.477,0.42,0.477,0.672c0,0.364-0.057,0.589-0.141,0.784c-0.111,0.309-0.279,0.588-0.42,0.896l1.008,1.008
			l1.092,0.532c0.252,0.336,0.504,0.84,0.645,1.204c1.204-1.484,2.044-3.053,2.492-4.593c-0.168-0.392-0.7-0.924-1.232-1.231
			l0.532-0.98c0.084-0.168,0.252-0.224,0.504-0.168c1.261,0.252,3.136,0.896,3.892,1.372c0.309,0.196,0.477,0.42,0.477,0.672
			c0,0.336-0.057,0.588-0.112,0.784c-0.196,0.616-0.448,1.232-0.812,1.82l1.316,1.26L432.682,124.432z M412.661,103.544
			c2.296,0.42,4.536,0.56,6.076,0.56c0.364,0,0.56,0.056,0.7,0.336c0.308,0.504,0.224,1.652-0.168,1.96
			c-0.168,0.14-0.364,0.168-0.588,0.168c-1.064,0-2.885,0.028-4.032,0.084c-0.336,0.028-0.476,0.028-0.673-0.14
			c-0.531-0.42-1.203-1.288-1.567-1.988c-0.14-0.252-0.14-0.392-0.056-0.56L412.661,103.544z M416.861,115.695
			c1.204,0,1.988-0.644,1.988-1.764s-0.784-1.764-1.988-1.764s-1.988,0.644-1.988,1.764S415.657,115.695,416.861,115.695z
			 M423.581,105.756c-0.308-0.561-1.036-1.12-1.876-1.484l0.42-1.092c0.057-0.141,0.168-0.225,0.504-0.225
			c1.26,0.057,3.276,0.505,4.2,0.952c0.308,0.141,0.42,0.393,0.392,0.784l-0.084,1.512v4.145l1.736-0.056V104.3
			c-0.308-0.588-1.119-1.204-1.988-1.597l0.393-1.119c0.084-0.141,0.195-0.225,0.504-0.225c1.344,0.057,3.527,0.504,4.536,0.98
			c0.308,0.14,0.448,0.392,0.42,0.812l-0.112,1.652v8.008c0,1.512-0.531,4.172-1.148,5.348h-2.155
			c-0.252-0.84-0.448-3.416-0.448-4.479v-1.008l-1.764,0.056c-0.084,1.708-0.504,3.64-1.064,4.592h-2.016
			c-0.28-0.84-0.448-3.107-0.448-4.368V105.756z"/>
		<path d="M459.085,112.308c0.84-0.028,2.044,0.028,2.576,0.14c0.392,0.084,0.644,0.364,0.672,0.729
			c0.056,0.7-0.112,1.428-0.336,1.708c-0.196,0.252-0.644,0.363-0.979,0.363l-4.117,0.141v5.292c0,1.96-0.475,5.824-1.287,7.868
			h-2.156c-0.252-0.952-0.447-5.376-0.447-6.721v-2.996c-3.361,1.12-7.449,1.96-10.248,2.24c-0.449,0.057-0.896,0.057-1.232,0.057
			c-1.568,0-2.66-0.868-3.08-2.213c-0.112-0.363-0.196-0.979-0.196-1.624v-8.371c-0.364-0.477-1.036-0.952-1.792-1.232l0.252-1.008
			c0.057-0.112,0.141-0.196,0.336-0.196c1.176,0,3.836,0.14,4.984,0.336c1.036-0.027,3.472-0.168,4.283-0.252l0.896-0.616
			c0.84,0,2.156,0.057,2.828,0.196c0.336,0.084,0.532,0.308,0.532,0.645c0,0.84-0.224,1.455-0.476,1.735
			c-0.141,0.141-0.336,0.196-0.588,0.196l-7.365,0.308v8.288c0,0.393,0.168,0.588,0.561,0.561c2.884-0.028,7.057-0.448,10.305-1.261
			v-12.151c-0.365-0.672-1.232-1.344-2.213-1.765l0.393-1.119c0.056-0.141,0.14-0.225,0.447-0.225
			c1.484,0.057,3.864,0.504,4.957,0.98c0.336,0.14,0.475,0.42,0.447,0.84L456.9,105v8.008l1.289-0.084L459.085,112.308z"/>
		<path d="M464.518,123.367c0-1.372,1.147-2.548,2.575-2.548c1.429,0,2.576,1.176,2.576,2.548c0,1.4-1.147,2.521-2.576,2.521
			C465.665,125.888,464.518,124.768,464.518,123.367z"/>
	</g>
</g>
</svg>