<!-- Generator: Adobe Illustrator 21.1.0, SVG Export Plug-In  -->
<svg version="1.1"
	 xmlns="http://www.w3.org/2000/svg" xmlns:xlink="http://www.w3.org/1999/xlink" xmlns:a="http://ns.adobe.com/AdobeSVGViewerExtensions/3.0/"
	 x="0px" y="0px" width="208.069px" height="130.653px" viewBox="0 0 208.069 130.653"
	 style="enable-background:new 0 0 208.069 130.653;" xml:space="preserve">
<style type="text/css">
	.st0{fill:none;stroke:#000000;stroke-miterlimit:10;}
</style>
<defs>
</defs>
<g>
	<g>
		<rect x="204.746" y="59.267" transform="matrix(1 -0.0079 0.0079 1 -0.6961 1.626)" width="2.83" height="59.901"/>
	</g>
</g>
<g>
	<ellipse transform="matrix(0.781 -0.6245 0.6245 0.781 -32.0123 149.323)" cx="196.918" cy="120.309" rx="12.45" ry="8.737"/>
</g>
<g>
	<g>
		<rect x="18.98" y="59.267" transform="matrix(1 -0.0079 0.0079 1 -0.7018 0.1633)" width="2.83" height="59.901"/>
	</g>
</g>
<g>
	<ellipse transform="matrix(0.781 -0.6245 0.6245 0.781 -72.6921 33.31)" cx="11.152" cy="120.309" rx="12.45" ry="8.737"/>
</g>
<g>
	<g>
		<rect x="112.274" y="59.267" transform="matrix(1 -0.0079 0.0079 1 -0.699 0.8979)" width="2.83" height="59.901"/>
	</g>
</g>
<g>
	<ellipse transform="matrix(0.781 -0.6245 0.6245 0.781 -52.2622 91.5732)" cx="104.446" cy="120.309" rx="12.45" ry="8.737"/>
</g>
<g>
	<g>
		<rect x="65.627" y="59.267" transform="matrix(1 -0.0079 0.0079 1 -0.7004 0.5306)" width="2.83" height="59.901"/>
	</g>
</g>
<g>
	<ellipse transform="matrix(0.781 -0.6245 0.6245 0.781 -62.4772 62.4416)" cx="57.799" cy="120.309" rx="12.45" ry="8.737"/>
</g>
<g>
	<g>
		<rect x="158.51" y="59.267" transform="matrix(1 -0.0079 0.0079 1 -0.6975 1.262)" width="2.83" height="59.901"/>
	</g>
</g>
<g>
	<ellipse transform="matrix(0.781 -0.6245 0.6245 0.781 -42.1372 120.4481)" cx="150.682" cy="120.309" rx="12.45" ry="8.737"/>
</g>
<g>
	<g>
		<rect x="18.705" y="57.382" width="188.658" height="9.433"/>
	</g>
</g>
<polyline class="st0" points="20.436,29.118 20.436,10.118 70.436,10.118 "/>
<polyline class="st0" points="205.436,29.118 205.436,10.118 155.436,10.118 "/>
<g>
	<path d="M87.135,16.522c-0.704-0.322-1.247-0.773-1.628-1.354c-0.382-0.579-0.572-1.25-0.572-2.013c0-0.646,0.136-1.231,0.407-1.76
		c0.271-0.528,0.638-0.946,1.1-1.254c0.462-0.309,0.972-0.462,1.529-0.462c0.513,0,0.946,0.128,1.298,0.385s0.572,0.612,0.66,1.067
		c-0.763,0-1.372,0.201-1.826,0.604c-0.455,0.403-0.682,0.95-0.682,1.639c0,0.631,0.19,1.137,0.571,1.519
		c0.382,0.382,0.888,0.572,1.519,0.572c0.777,0,1.419-0.261,1.925-0.781s0.759-1.177,0.759-1.969c0-0.689-0.19-1.343-0.572-1.958
		c-0.381-0.616-0.953-1.364-1.716-2.244c-0.792-0.909-1.39-1.69-1.793-2.344c-0.403-0.652-0.604-1.367-0.604-2.145
		c0-0.763,0.212-1.448,0.638-2.057c0.425-0.608,1.012-1.09,1.76-1.441S91.498,0,92.437,0c1.188,0,2.138,0.279,2.849,0.836
		c0.712,0.558,1.067,1.306,1.067,2.244c0,0.616-0.154,1.115-0.462,1.496c-0.308,0.382-0.712,0.572-1.21,0.572
		c-0.558,0-1.005-0.228-1.342-0.682c0.278-0.206,0.498-0.477,0.659-0.814c0.162-0.337,0.242-0.689,0.242-1.056
		c0-0.47-0.14-0.844-0.418-1.122s-0.66-0.418-1.144-0.418c-0.587,0-1.067,0.209-1.441,0.627s-0.561,0.949-0.561,1.595
		c0,0.587,0.168,1.133,0.506,1.639c0.337,0.507,0.865,1.155,1.584,1.947c0.586,0.631,1.06,1.174,1.419,1.628
		c0.359,0.455,0.667,0.979,0.924,1.573s0.385,1.235,0.385,1.925c0,0.938-0.26,1.79-0.78,2.552c-0.521,0.763-1.232,1.364-2.135,1.805
		c-0.901,0.439-1.902,0.66-3.003,0.66C88.652,17.007,87.839,16.845,87.135,16.522z"/>
	<path d="M97.199,16.082c-0.433-0.439-0.648-1.1-0.648-1.979c0-0.366,0.059-0.844,0.176-1.431l1.32-6.182H97.32l0.176-0.88h0.727
		l0.66-3.036l3.256-0.439l-0.748,3.476h1.32l-0.177,0.88h-1.319l-1.408,6.601c-0.059,0.22-0.088,0.454-0.088,0.703
		c0,0.294,0.069,0.503,0.209,0.627c0.139,0.125,0.37,0.188,0.692,0.188c0.426,0,0.821-0.18,1.188-0.539
		c0.366-0.359,0.631-0.825,0.792-1.397h0.924c-0.543,1.585-1.239,2.659-2.09,3.224s-1.694,0.847-2.53,0.847
		C98.2,16.742,97.632,16.522,97.199,16.082z"/>
	<path d="M104.097,5.61h3.168l-0.286,1.364c0.498-0.44,0.949-0.777,1.354-1.013c0.402-0.234,0.839-0.352,1.309-0.352
		c0.469,0,0.84,0.161,1.111,0.484c0.271,0.322,0.406,0.711,0.406,1.166c0,0.425-0.14,0.799-0.418,1.122
		c-0.278,0.322-0.667,0.483-1.166,0.483c-0.322,0-0.539-0.077-0.648-0.23c-0.11-0.154-0.194-0.378-0.253-0.672
		c-0.044-0.19-0.088-0.329-0.132-0.418c-0.044-0.088-0.125-0.132-0.242-0.132c-0.309,0-0.568,0.062-0.781,0.188
		s-0.487,0.341-0.825,0.648l-1.76,8.36h-3.168L104.097,5.61z"/>
	<path d="M111.51,15.862c-0.631-0.558-0.945-1.438-0.945-2.64c0-0.997,0.205-2.104,0.615-3.322c0.411-1.217,1.071-2.27,1.98-3.157
		c0.909-0.887,2.053-1.331,3.432-1.331c1.878,0,2.816,1.174,2.816,3.521v0.021c0.044,0.015,0.124,0.022,0.242,0.022
		c0.483,0,1.041-0.129,1.672-0.385c0.63-0.257,1.202-0.568,1.716-0.936l0.198,0.594c-0.426,0.455-0.979,0.84-1.661,1.155
		s-1.427,0.539-2.233,0.671c-0.117,1.335-0.418,2.501-0.901,3.498c-0.484,0.998-1.108,1.768-1.87,2.311
		c-0.763,0.542-1.592,0.813-2.486,0.813C112.998,16.698,112.141,16.42,111.51,15.862z M116.021,14.113
		c0.352-0.403,0.659-0.953,0.924-1.65c0.264-0.696,0.454-1.47,0.571-2.32c-0.396-0.088-0.594-0.396-0.594-0.924
		c0-0.602,0.228-0.998,0.683-1.188c-0.03-0.484-0.104-0.817-0.221-1.001s-0.322-0.275-0.615-0.275c-0.484,0-0.954,0.353-1.408,1.057
		c-0.455,0.704-0.822,1.548-1.101,2.53s-0.418,1.848-0.418,2.596c0,0.704,0.081,1.177,0.242,1.419s0.454,0.363,0.88,0.363
		C115.317,14.719,115.668,14.517,116.021,14.113z"/>
	<path d="M126.503,16.027c-0.418-0.477-0.627-1.067-0.627-1.771c0-0.309,0.037-0.656,0.11-1.046c0.073-0.388,0.15-0.766,0.23-1.133
		c0.081-0.366,0.136-0.601,0.165-0.704c0.117-0.513,0.228-1.019,0.33-1.518c0.103-0.498,0.154-0.902,0.154-1.21
		c0-0.748-0.264-1.122-0.792-1.122c-0.382,0-0.719,0.187-1.012,0.561c-0.294,0.374-0.528,0.862-0.704,1.464l-1.496,7.062h-3.168
		l2.332-11h3.168l-0.242,1.144c0.733-0.82,1.592-1.231,2.574-1.231c0.748,0,1.342,0.205,1.782,0.616
		c0.439,0.41,0.66,1.033,0.66,1.87c0,0.425-0.052,0.898-0.154,1.419s-0.25,1.154-0.44,1.902c-0.117,0.455-0.224,0.898-0.318,1.331
		c-0.096,0.433-0.144,0.774-0.144,1.023c0,0.293,0.066,0.521,0.198,0.682c0.132,0.162,0.359,0.242,0.682,0.242
		c0.44,0,0.792-0.157,1.057-0.473c0.264-0.315,0.527-0.804,0.792-1.464h0.924c-0.543,1.614-1.17,2.695-1.881,3.245
		c-0.712,0.551-1.449,0.825-2.211,0.825C127.577,16.742,126.921,16.504,126.503,16.027z"/>
	<path d="M133.696,21.439c-0.521-0.447-0.78-1.016-0.78-1.705c0-0.646,0.161-1.174,0.483-1.584c0.322-0.411,0.74-0.733,1.254-0.968
		c0.514-0.235,1.203-0.484,2.068-0.748l0.198-0.924c-0.763,0.821-1.643,1.231-2.641,1.231c-0.836,0-1.532-0.286-2.09-0.857
		c-0.557-0.572-0.836-1.467-0.836-2.685c0-1.085,0.217-2.226,0.649-3.421s1.078-2.207,1.936-3.036
		c0.858-0.828,1.881-1.243,3.069-1.243c0.601,0,1.048,0.104,1.342,0.309c0.293,0.205,0.44,0.477,0.44,0.813v0.044l0.22-1.056h3.189
		l-2.684,12.76c-0.294,1.408-0.811,2.384-1.551,2.926c-0.741,0.543-1.559,0.814-2.453,0.814
		C134.822,22.11,134.217,21.887,133.696,21.439z M135.754,19.745c0.234-0.271,0.418-0.708,0.55-1.309l0.264-1.298
		c-0.777,0.264-1.379,0.571-1.804,0.924c-0.426,0.352-0.638,0.807-0.638,1.364c0,0.176,0.088,0.341,0.264,0.494
		c0.176,0.154,0.381,0.231,0.616,0.231C135.27,20.152,135.519,20.017,135.754,19.745z M136.733,14.18
		c0.345-0.286,0.591-0.693,0.737-1.222l1.122-5.323c-0.118-0.514-0.418-0.771-0.902-0.771c-0.587,0-1.114,0.341-1.584,1.023
		c-0.47,0.682-0.836,1.503-1.1,2.464c-0.265,0.961-0.396,1.808-0.396,2.541s0.106,1.202,0.319,1.408
		c0.212,0.205,0.473,0.308,0.781,0.308C136.047,14.608,136.388,14.466,136.733,14.18z"/>
</g>
</svg>