<!-- Generator: Adobe Illustrator 21.1.0, SVG Export Plug-In  -->
<svg version="1.1"
	 xmlns="http://www.w3.org/2000/svg" xmlns:xlink="http://www.w3.org/1999/xlink" xmlns:a="http://ns.adobe.com/AdobeSVGViewerExtensions/3.0/"
	 x="0px" y="0px" width="564.116px" height="2577.518px" viewBox="0 0 564.116 2577.518"
	 style="enable-background:new 0 0 564.116 2577.518;" xml:space="preserve">
<style type="text/css">
	.st0{fill:none;stroke:#FFFFFF;stroke-width:3;stroke-miterlimit:10;}
</style>
<defs>
</defs>
<g>
	<path class="st0" d="M0.702,1.326c77.751,41.142,176.606,110.686,216,224c43.964,126.462-22.863,201.787-52,389
		c-29.333,188.473,6.444,341.648,78,648c49.611,212.404,80.108,247.396,112,450c25.668,163.066,26.538,271.433,9,380
		c-10.034,62.111-24.914,149.569-78,250c-63.014,119.213-146.742,194.054-199,234"/>
	<path class="st0" d="M47.452,1.326c77.751,41.142,176.606,110.686,216,224c43.964,126.462-22.863,201.787-52,389
		c-29.333,188.473,6.444,341.648,78,648c49.611,212.404,80.108,247.396,112,450c25.668,163.066,26.538,271.433,9,380
		c-10.034,62.111-24.914,149.569-78,250c-63.014,119.213-146.742,194.054-199,234"/>
	<path class="st0" d="M94.202,1.326c77.751,41.142,176.606,110.686,216,224c43.964,126.462-22.863,201.787-52,389
		c-29.333,188.473,6.444,341.648,78,648c49.611,212.404,80.108,247.396,112,450c25.668,163.066,26.538,271.433,9,380
		c-10.034,62.111-24.914,149.569-78,250c-63.014,119.213-146.742,194.054-199,234"/>
	<path class="st0" d="M140.952,1.326c77.751,41.142,176.606,110.686,216,224c43.964,126.462-22.863,201.787-52,389
		c-29.333,188.473,6.444,341.648,78,648c49.611,212.404,80.108,247.396,112,450c25.668,163.066,26.538,271.433,9,380
		c-10.034,62.111-24.914,149.569-78,250c-63.014,119.213-146.742,194.054-199,234"/>
	<path class="st0" d="M187.702,1.326c77.751,41.142,176.606,110.686,216,224c43.964,126.462-22.863,201.787-52,389
		c-29.333,188.473,6.444,341.648,78,648c49.611,212.404,80.108,247.396,112,450c25.668,163.066,26.538,271.433,9,380
		c-10.034,62.111-24.914,149.569-78,250c-63.014,119.213-146.742,194.054-199,234"/>
</g>
</svg>