<!-- Generator: Adobe Illustrator 21.1.0, SVG Export Plug-In  -->
<svg version="1.1"
	 xmlns="http://www.w3.org/2000/svg" xmlns:xlink="http://www.w3.org/1999/xlink" xmlns:a="http://ns.adobe.com/AdobeSVGViewerExtensions/3.0/"
	 x="0px" y="0px" width="208.069px" height="127.136px" viewBox="0 0 208.069 127.136"
	 style="enable-background:new 0 0 208.069 127.136;" xml:space="preserve">
<style type="text/css">
	.st0{fill:none;stroke:#000000;stroke-miterlimit:10;}
</style>
<defs>
</defs>
<g>
	<g>
		<rect x="204.746" y="1.886" transform="matrix(1 -0.0079 0.0079 1 -0.2443 1.6242)" width="2.83" height="59.901"/>
	</g>
</g>
<g>
	<ellipse transform="matrix(0.781 -0.6245 0.6245 0.781 3.8233 136.7573)" cx="196.918" cy="62.927" rx="12.45" ry="8.737"/>
</g>
<g>
	<g>
		<rect x="18.98" y="1.886" transform="matrix(1 -0.0079 0.0079 1 -0.25 0.1616)" width="2.83" height="59.901"/>
	</g>
</g>
<g>
	<ellipse transform="matrix(0.781 -0.6245 0.6245 0.781 -36.8566 20.7443)" cx="11.152" cy="62.927" rx="12.45" ry="8.737"/>
</g>
<g>
	<g>
		<rect x="112.274" y="1.886" transform="matrix(1 -0.0079 0.0079 1 -0.2471 0.8961)" width="2.83" height="59.901"/>
	</g>
</g>
<g>
	<ellipse transform="matrix(0.781 -0.6245 0.6245 0.781 -16.4266 79.0074)" cx="104.446" cy="62.927" rx="12.45" ry="8.737"/>
</g>
<g>
	<g>
		<rect x="65.627" y="1.886" transform="matrix(1 -0.0079 0.0079 1 -0.2486 0.5289)" width="2.83" height="59.901"/>
	</g>
</g>
<g>
	<ellipse transform="matrix(0.781 -0.6245 0.6245 0.781 -26.6416 49.8759)" cx="57.799" cy="62.927" rx="12.45" ry="8.737"/>
</g>
<g>
	<g>
		<rect x="158.51" y="1.886" transform="matrix(1 -0.0079 0.0079 1 -0.2457 1.2602)" width="2.83" height="59.901"/>
	</g>
</g>
<g>
	<ellipse transform="matrix(0.781 -0.6245 0.6245 0.781 -6.3017 107.8824)" cx="150.682" cy="62.927" rx="12.45" ry="8.737"/>
</g>
<g>
	<g>
		<rect x="18.705" width="188.658" height="9.433"/>
	</g>
</g>
<polyline class="st0" points="11.436,99.736 11.436,118.736 68.436,118.736 "/>
<polyline class="st0" points="196.438,99.737 196.438,118.737 137.436,118.737 "/>
<g>
	<path d="M76.125,126.465c-0.521-0.447-0.781-1.016-0.781-1.705c0-0.631,0.161-1.151,0.484-1.562c0.322-0.41,0.74-0.736,1.254-0.979
		s1.195-0.495,2.045-0.759l2.662-12.562c0.293-1.408,0.811-2.383,1.551-2.926c0.741-0.542,1.559-0.813,2.453-0.813
		c0.689,0,1.295,0.224,1.815,0.671s0.781,1.016,0.781,1.705c0,0.337-0.022,0.638-0.066,0.901h-1.034
		c0.029-0.322,0.045-0.521,0.045-0.594c0-0.234-0.082-0.418-0.242-0.55c-0.162-0.132-0.359-0.198-0.594-0.198
		c-0.309,0-0.609,0.136-0.902,0.407c-0.294,0.271-0.506,0.736-0.639,1.396l-0.373,1.738h5.873l-1.584,7.48
		c-0.043,0.22-0.065,0.425-0.065,0.615c0,0.602,0.22,0.902,0.659,0.902c0.411,0,0.764-0.172,1.057-0.517s0.527-0.818,0.704-1.42
		l1.496-7.062h3.168l-1.584,7.48c-0.06,0.22-0.089,0.454-0.089,0.703c0,0.294,0.07,0.503,0.209,0.627
		c0.141,0.125,0.371,0.188,0.693,0.188c0.41,0,0.767-0.176,1.067-0.528c0.3-0.352,0.539-0.821,0.715-1.408h0.925
		c-0.543,1.585-1.215,2.659-2.014,3.224c-0.8,0.564-1.603,0.847-2.409,0.847c-0.631,0-1.133-0.176-1.507-0.528
		c-0.374-0.352-0.598-0.872-0.671-1.562c-0.499,0.807-1.022,1.356-1.573,1.65c-0.55,0.293-1.111,0.439-1.684,0.439
		c-0.703,0-1.271-0.22-1.704-0.66c-0.433-0.439-0.649-1.1-0.649-1.979c0-0.366,0.059-0.844,0.176-1.431l1.299-6.182h-2.685
		l-2.53,11.88c-0.293,1.423-0.799,2.401-1.518,2.938c-0.719,0.535-1.525,0.803-2.42,0.803
		C77.25,127.136,76.645,126.912,76.125,126.465z M78.688,123.462l0.286-1.276c-0.777,0.265-1.375,0.568-1.793,0.913
		c-0.419,0.345-0.628,0.796-0.628,1.354c0,0.176,0.089,0.341,0.265,0.494c0.177,0.154,0.382,0.231,0.616,0.231
		C78.02,125.178,78.438,124.606,78.688,123.462z"/>
	<path d="M102.877,121.053c-0.418-0.477-0.627-1.067-0.627-1.771c0-0.309,0.035-0.656,0.109-1.046
		c0.073-0.388,0.15-0.766,0.23-1.133c0.081-0.366,0.136-0.601,0.166-0.704c0.117-0.513,0.227-1.019,0.33-1.518
		c0.102-0.498,0.153-0.902,0.153-1.21c0-0.748-0.265-1.122-0.792-1.122c-0.381,0-0.719,0.187-1.012,0.561
		c-0.294,0.374-0.528,0.862-0.704,1.464l-1.496,7.062h-3.168l2.332-11h3.168l-0.242,1.144c0.733-0.82,1.591-1.231,2.574-1.231
		c0.748,0,1.342,0.205,1.782,0.616c0.439,0.41,0.66,1.033,0.66,1.87c0,0.425-0.053,0.898-0.154,1.419
		c-0.104,0.521-0.25,1.154-0.439,1.902c-0.118,0.455-0.225,0.898-0.32,1.331s-0.143,0.774-0.143,1.023
		c0,0.293,0.066,0.521,0.198,0.682c0.132,0.162,0.359,0.242,0.683,0.242c0.439,0,0.791-0.157,1.055-0.473
		c0.265-0.315,0.529-0.804,0.793-1.464h0.924c-0.543,1.614-1.17,2.695-1.881,3.245c-0.712,0.551-1.449,0.825-2.211,0.825
		C103.951,121.768,103.295,121.529,102.877,121.053z"/>
	<path d="M113.986,121.053c-0.418-0.477-0.627-1.067-0.627-1.771c0-0.309,0.035-0.656,0.109-1.046
		c0.073-0.388,0.15-0.766,0.23-1.133c0.081-0.366,0.136-0.601,0.166-0.704c0.117-0.513,0.227-1.019,0.33-1.518
		c0.102-0.498,0.153-0.902,0.153-1.21c0-0.748-0.265-1.122-0.792-1.122c-0.381,0-0.719,0.187-1.012,0.561
		c-0.294,0.374-0.528,0.862-0.704,1.464l-1.496,7.062h-3.168l2.332-11h3.168l-0.242,1.144c0.733-0.82,1.591-1.231,2.574-1.231
		c0.748,0,1.342,0.205,1.782,0.616c0.439,0.41,0.66,1.033,0.66,1.87c0,0.425-0.053,0.898-0.154,1.419
		c-0.104,0.521-0.25,1.154-0.439,1.902c-0.118,0.455-0.225,0.898-0.32,1.331s-0.143,0.774-0.143,1.023
		c0,0.293,0.066,0.521,0.198,0.682c0.132,0.162,0.359,0.242,0.683,0.242c0.439,0,0.791-0.157,1.055-0.473
		c0.265-0.315,0.529-0.804,0.793-1.464h0.924c-0.543,1.614-1.17,2.695-1.881,3.245c-0.712,0.551-1.449,0.825-2.211,0.825
		C115.061,121.768,114.404,121.529,113.986,121.053z"/>
	<path d="M120.74,126.465c-0.521-0.447-0.781-1.016-0.781-1.705c0-0.646,0.16-1.174,0.483-1.584
		c0.323-0.411,0.741-0.733,1.255-0.968c0.513-0.235,1.201-0.484,2.067-0.748l0.22-0.968c-0.748,0.851-1.643,1.275-2.684,1.275
		c-0.704,0-1.273-0.22-1.705-0.66c-0.434-0.439-0.648-1.1-0.648-1.979c0-0.366,0.059-0.844,0.176-1.431l1.496-7.062h3.168
		l-1.584,7.48c-0.045,0.176-0.066,0.359-0.066,0.55c0,0.646,0.22,0.968,0.66,0.968c0.41,0,0.762-0.172,1.056-0.517
		s0.528-0.818,0.704-1.42l1.496-7.062h3.189l-2.684,12.76c-0.293,1.408-0.811,2.384-1.551,2.926
		c-0.741,0.543-1.559,0.814-2.453,0.814C121.865,127.136,121.26,126.912,120.74,126.465z M122.797,124.771
		c0.234-0.271,0.418-0.708,0.55-1.309l0.264-1.298c-0.777,0.264-1.378,0.571-1.804,0.924c-0.426,0.352-0.639,0.807-0.639,1.364
		c0,0.176,0.088,0.341,0.265,0.494c0.176,0.154,0.382,0.231,0.616,0.231C122.313,125.178,122.563,125.042,122.797,124.771z"/>
</g>
</svg>