<!-- Generator: Adobe Illustrator 21.1.0, SVG Export Plug-In  -->
<svg version="1.1"
	 xmlns="http://www.w3.org/2000/svg" xmlns:xlink="http://www.w3.org/1999/xlink" xmlns:a="http://ns.adobe.com/AdobeSVGViewerExtensions/3.0/"
	 x="0px" y="0px" width="802.734px" height="118.648px" viewBox="0 0 802.734 118.648"
	 style="enable-background:new 0 0 802.734 118.648;" xml:space="preserve">
<defs>
</defs>
<g>
	<g>
		<path d="M16.209,23.855c3.02-2.958,6.594-4.314,10.415-4.314c7.704,0,13.683,6.225,13.683,17.75
			c0,10.169-5.732,17.996-14.422,17.996c-3.698,0-7.149-1.356-9.799-4.376l-1.295,4.253L2.219,54.239v-1.91l4.067-0.37
			c0.062-3.574,0.123-8.937,0.123-12.388V8.017L1.91,7.585V5.982l13.621-2.649l0.862,0.555l-0.185,9.922V23.855z M16.332,49.186
			c1.603,1.232,3.328,1.726,5.177,1.726c4.314,0,8.197-2.588,8.197-13.867c0-9.614-3.39-13.25-8.013-13.25
			c-1.91,0-3.513,0.246-5.361,1.849V49.186z"/>
		<path d="M78.953,50.479c-1.541,3.39-3.883,4.808-7.827,4.808c-4.068,0-6.349-2.034-7.272-5.362
			c-3.144,3.451-5.485,5.362-10.416,5.362c-5.3,0-8.998-3.205-8.998-8.382c0-5.608,3.205-8.628,13.128-11.524
			c1.726-0.493,3.882-1.048,6.039-1.603v-3.76c0-6.409-1.479-8.32-6.163-8.32c-0.862,0-1.664,0.062-2.588,0.247l-0.432,4.375
			c-0.185,4.191-2.28,5.855-4.622,5.855c-2.219,0-3.76-1.109-4.253-3.144c0.493-5.793,5.855-9.491,15.408-9.491
			c8.751,0,12.264,3.76,12.264,12.696v16.578c0,2.343,0.74,3.144,1.911,3.144c0.924,0,1.603-0.493,2.773-2.342L78.953,50.479z
			 M51.404,22.808l-0.986,0.37L51.404,22.808z M63.606,35.442c-1.417,0.369-2.649,0.739-3.39,1.047
			c-4.313,1.788-6.594,4.685-6.594,9.184c0,3.697,1.726,5.423,4.622,5.423c1.664,0,3.081-0.801,5.361-2.835V35.442z"/>
		<path d="M102.806,21.821c-0.616-0.062-1.171-0.123-1.726-0.123c-5.484,0-9.491,5.362-9.491,14.791
			c0,9.184,4.499,14.422,11.094,14.422c3.574,0,6.225-1.603,8.443-4.376l1.232,0.802c-2.835,5.115-7.334,7.95-14.052,7.95
			c-9.367,0-17.194-6.348-17.194-17.812c0-11.463,8.382-17.935,18.674-17.935c6.964,0,11.895,4.253,12.696,9.8
			c-0.617,2.219-1.973,3.267-4.068,3.267c-2.588,0-4.745-1.479-4.992-6.04L102.806,21.821z"/>
		<path d="M154.332,52.329v1.91h-13.436l-8.751-18.119l-2.773,2.526v0.432c0,3.637,0.062,9.307,0.123,12.881l3.883,0.37v1.91
			h-18.181v-1.91l4.129-0.37c0.062-3.574,0.123-9.183,0.123-12.388V8.017l-4.499-0.432V5.982l13.806-2.649l0.862,0.555l-0.246,9.922
			v22.249l13.312-12.881l-6.225-0.739v-1.85h16.085v1.85l-6.04,0.616l-7.396,6.779l11.217,22.002L154.332,52.329z"/>
		<path d="M191.252,25.026l-7.457-0.801c1.417,1.849,2.096,4.129,2.096,6.718c0,6.471-4.623,11.586-14.237,11.586
			c-2.958,0-5.484-0.493-7.519-1.355c-0.678,1.109-1.048,2.157-1.048,3.513c0,2.28,1.418,3.451,4.869,3.451h9.06
			c9.923,0,13.559,3.821,13.559,9.368c0,6.902-6.841,12.695-19.783,12.695c-11.217,0-14.853-3.883-14.853-8.382
			c0-2.711,2.033-5.115,6.162-6.717c-2.711-1.233-4.499-2.836-4.499-5.917s1.603-5.361,5.301-8.628
			c-3.76-2.034-5.547-5.547-5.547-9.614c0-6.595,4.622-11.402,14.36-11.402c4.745,0,8.196,1.171,10.538,3.144l7.889-3.144
			l1.109,0.679V25.026z M170.606,56.396c-3.637,0-5.362-0.123-7.334-0.678c-1.048,1.355-1.541,2.711-1.541,4.745
			c0,4.499,3.39,7.026,8.998,7.026c8.135,0,12.079-2.527,12.079-6.102c0-2.65-1.417-4.992-5.361-4.992H170.606z M177.139,30.943
			c0-6.04-2.033-9.553-5.423-9.553c-3.452,0-5.424,3.574-5.424,9.553c0,5.978,1.787,9.676,5.361,9.676
			C175.167,40.619,177.139,36.921,177.139,30.943z"/>
		<path d="M208.388,29.032c1.849-6.286,6.039-9.491,9.737-9.491c2.896,0,5.362,1.171,5.979,4.869
			c-0.247,2.712-1.479,4.992-4.561,4.992c-2.343,0-3.821-1.479-5.485-3.698l-0.555-0.739c-2.466,2.28-3.944,4.931-5.115,9.491v5.115
			c0,3.39,0.062,8.566,0.123,12.203l5.67,0.555v1.91h-20.03v-1.91l4.191-0.432c0.062-3.574,0.123-8.875,0.123-12.326v-5.115
			c0-4.006-0.062-6.04-0.185-8.998l-4.622-0.493v-1.479l13.373-3.882l0.863,0.616L208.388,29.032z"/>
		<path d="M225.092,37.229c0-10.909,7.766-17.688,17.441-17.688c9.737,0,17.503,6.656,17.503,17.688
			c0,11.031-7.026,18.058-17.503,18.058C231.994,55.287,225.092,48.076,225.092,37.229z M249.374,37.353
			c0-10.785-2.403-15.654-6.841-15.654s-6.902,4.869-6.902,15.654c0,10.724,2.465,15.777,6.902,15.777
			S249.374,48.076,249.374,37.353z"/>
		<path d="M303.058,52.452v1.849l-13.56,0.802l-0.308-6.163c-2.835,3.574-6.902,6.348-11.401,6.348
			c-6.163,0-10.046-3.328-9.923-12.696l0.247-18.304l-4.314-0.863V21.76l13.682-1.849l0.802,0.616l-0.37,10.046v12.942
			c0,4.931,1.91,6.471,4.869,6.471c2.342,0,4.561-1.171,6.348-2.958l0.246-22.803l-4.129-0.802v-1.355l13.374-2.157l0.801,0.616
			l-0.246,10.046v21.57L303.058,52.452z"/>
		<path d="M346.14,52.329v1.91h-17.872v-1.91l3.883-0.37c0.062-3.574,0.123-8.813,0.123-12.388v-8.875
			c0-4.807-1.356-6.532-4.253-6.532c-1.849,0-4.376,1.171-7.025,3.513v11.895c0,3.451,0.062,8.813,0.123,12.449l3.513,0.309v1.91
			H306.82v-1.91l4.129-0.37c0.062-3.636,0.123-8.937,0.123-12.388v-5.115c0-4.006-0.062-6.04-0.185-8.998l-4.622-0.493v-1.479
			l13.373-3.882l0.863,0.616l0.37,5.423c4.067-4.684,7.457-6.102,11.524-6.102c5.854,0,9.861,3.821,9.861,11.896v8.135
			c0,3.636,0.062,8.875,0.185,12.449L346.14,52.329z"/>
		<path d="M387.559,52.329v1.91l-13.189,0.739l-0.493-3.82c-2.588,2.588-5.793,4.129-9.553,4.129
			c-8.073,0-14.421-6.472-14.421-17.626c0-11.587,6.841-18.12,15.284-18.12c3.574,0,6.409,1.356,8.813,4.191V8.078l-5.054-0.493
			V5.982l13.989-2.649l0.863,0.555l-0.246,9.86v38.334L387.559,52.329z M373.63,25.396c-1.479-1.171-3.02-1.603-4.561-1.603
			c-4.684,0-8.566,3.144-8.566,13.497c0,10.046,3.574,13.62,8.319,13.62c1.726,0,3.328-0.432,4.808-1.603V25.396z"/>
		<path d="M428.3,21.821c-0.616-0.062-1.171-0.123-1.726-0.123c-5.484,0-9.491,5.362-9.491,14.791
			c0,9.184,4.499,14.422,11.094,14.422c3.574,0,6.225-1.603,8.443-4.376l1.232,0.802c-2.835,5.115-7.334,7.95-14.052,7.95
			c-9.367,0-17.194-6.348-17.194-17.812c0-11.463,8.382-17.935,18.674-17.935c6.964,0,11.895,4.253,12.696,9.8
			c-0.617,2.219-1.973,3.267-4.068,3.267c-2.588,0-4.745-1.479-4.992-6.04L428.3,21.821z"/>
		<path d="M441.862,37.229c0-10.909,7.766-17.688,17.441-17.688c9.737,0,17.503,6.656,17.503,17.688
			c0,11.031-7.026,18.058-17.503,18.058C448.765,55.287,441.862,48.076,441.862,37.229z M466.145,37.353
			c0-10.785-2.403-15.654-6.841-15.654s-6.902,4.869-6.902,15.654c0,10.724,2.465,15.777,6.902,15.777
			S466.145,48.076,466.145,37.353z"/>
		<path d="M499.674,52.329v1.91H481v-1.91l4.252-0.37c0.062-4.006,0.123-8.443,0.123-12.388V8.017l-4.499-0.432V5.982l13.806-2.649
			l0.862,0.555l-0.246,9.922v25.762c0,4.006,0.062,8.382,0.185,12.388L499.674,52.329z"/>
		<path d="M503.682,37.229c0-10.909,7.766-17.688,17.441-17.688c9.737,0,17.503,6.656,17.503,17.688
			c0,11.031-7.026,18.058-17.503,18.058C510.584,55.287,503.682,48.076,503.682,37.229z M527.964,37.353
			c0-10.785-2.403-15.654-6.841-15.654s-6.902,4.869-6.902,15.654c0,10.724,2.465,15.777,6.902,15.777
			S527.964,48.076,527.964,37.353z"/>
		<path d="M556.995,29.032c1.849-6.286,6.039-9.491,9.737-9.491c2.896,0,5.362,1.171,5.979,4.869
			c-0.247,2.712-1.479,4.992-4.561,4.992c-2.343,0-3.821-1.479-5.485-3.698l-0.555-0.739c-2.466,2.28-3.944,4.931-5.115,9.491v5.115
			c0,3.39,0.062,8.566,0.123,12.203l5.67,0.555v1.91h-20.03v-1.91l4.191-0.432c0.062-3.574,0.123-8.875,0.123-12.326v-5.115
			c0-4.006-0.062-6.04-0.185-8.998l-4.622-0.493v-1.479l13.373-3.882l0.863,0.616L556.995,29.032z"/>
		<path d="M577.089,24.965c0-3.081,2.526-5.608,5.67-5.608c3.143,0,5.67,2.527,5.67,5.608c0,3.082-2.527,5.547-5.67,5.547
			C579.615,30.512,577.089,28.047,577.089,24.965z M577.089,49.679c0-3.02,2.526-5.608,5.67-5.608c3.143,0,5.67,2.589,5.67,5.608
			c0,3.081-2.527,5.547-5.67,5.547C579.615,55.226,577.089,52.76,577.089,49.679z"/>
		<path d="M676.192,10.297l-5.608,0.801l-12.449,43.265h-5.731L642.05,19.85l-10.354,34.513h-5.608l-12.881-43.634l-4.19-0.432
			V8.201h20.831v2.096l-5.793,0.555l8.443,32.664l9.244-32.541l-5.793-0.678V8.201h20.153v2.096l-6.533,0.739l9.121,32.603
			l8.443-32.541l-5.793-0.801V8.201h14.853V10.297z"/>
		<path d="M718.23,52.329v1.91h-17.873v-1.91l3.944-0.37c0.062-3.574,0.123-8.813,0.123-12.388v-8.875
			c0-4.807-1.787-6.532-4.499-6.532c-1.972,0-4.376,1.047-6.902,3.328v12.079c0,3.451,0.062,8.813,0.123,12.449l3.575,0.309v1.91
			H678.91v-1.91l4.067-0.37c0.062-3.636,0.123-8.937,0.123-12.388V8.017l-4.499-0.432V5.982l13.621-2.649l0.862,0.555L692.9,13.81
			v11.956c3.697-4.375,6.841-6.225,11.463-6.225c5.979,0,10.046,3.637,10.046,12.019v8.012c0,3.636,0.062,8.875,0.123,12.449
			L718.23,52.329z"/>
		<path d="M740.112,52.329v1.91h-17.996v-1.91l4.067-0.37c0.062-3.636,0.123-8.937,0.123-12.388v-4.931
			c0-3.944-0.062-6.225-0.185-9.367L721.5,24.78v-1.479l14.113-3.697l0.863,0.616l-0.247,9.86v9.491
			c0,3.451,0.062,8.813,0.123,12.388L740.112,52.329z M725.752,8.448c0-2.959,2.404-5.054,5.301-5.054
			c2.958,0,5.361,2.095,5.361,5.054c0,2.896-2.403,4.992-5.361,4.992C728.156,13.44,725.752,11.345,725.752,8.448z"/>
		<path d="M766.984,50.172c-1.85,3.328-4.931,5.115-9.677,5.115c-6.286,0-9.676-2.835-9.614-9.676c0-2.342,0.062-4.13,0.062-6.718
			V23.116h-4.991v-1.973l5.484-0.616l3.205-9.86h6.348l-0.123,9.922h7.643v2.527h-7.643v23.296c0,3.328,1.603,4.746,4.067,4.746
			c1.541,0,2.589-0.617,4.191-1.973L766.984,50.172z"/>
		<path d="M800.205,46.967c-2.527,5.3-7.458,8.32-13.744,8.32c-10.169,0-17.688-6.472-17.688-17.996
			c0-11.587,8.812-17.75,17.626-17.75c9.245,0,14.236,6.225,14.236,14.052c0,1.541-0.062,2.589-0.369,3.76h-20.954
			c0.308,9.614,4.93,13.559,10.724,13.559c4.313,0,6.964-1.849,8.998-4.684L800.205,46.967z M787.693,35.134
			c2.897,0,3.637-1.417,3.637-5.238c0-5.362-2.342-8.197-5.608-8.197c-3.39,0-6.163,3.821-6.409,13.374L787.693,35.134z"/>
	</g>
</g>
</svg>