<!-- Generator: Adobe Illustrator 21.1.0, SVG Export Plug-In  -->
<svg version="1.1"
	 xmlns="http://www.w3.org/2000/svg" xmlns:xlink="http://www.w3.org/1999/xlink" xmlns:a="http://ns.adobe.com/AdobeSVGViewerExtensions/3.0/"
	 x="0px" y="0px" width="881px" height="568px" viewBox="0 0 881 568" style="enable-background:new 0 0 881 568;"
	 xml:space="preserve">
<style type="text/css">
	.st0{fill:#FFFFFF;}
</style>
<defs>
</defs>
<g>
	<g>
		<path d="M881,291c0,7.667,0,15.333,0,23c-4.609-0.035-9.219-0.032-13.828-0.112c-9.077-0.157-18.153-0.513-27.229-0.498
			c-7.602,0.013-15.202,0.524-22.806,0.65c-5.522,0.092-11.053-0.262-16.57-0.089c-5.103,0.161-10.187,0.974-15.29,1.119
			c-10.467,0.297-20.943,0.301-31.413,0.501c-6.386,0.122-12.775,0.29-19.154,0.608c-6.311,0.315-12.606,0.972-18.918,1.172
			c-1.278,0.04-2.599-1.294-3.715-1.894c-3.887,0.535-7.99,1.439-12.123,1.601c-9.519,0.374-19.052,0.419-28.58,0.514
			c-1.297,0.013-2.59-0.507-3.899-0.67c-1.538-0.192-3.091-0.382-4.636-0.37c-7.643,0.061-15.287,0.103-22.925,0.335
			c-3.339,0.102-6.665,0.644-9.997,0.986c-0.03,0.592-0.061,1.184-0.091,1.776c1.337,1.173,2.487,2.78,4.041,3.445
			c7.889,3.379,15.851,6.596,23.852,9.704c5.058,1.965,10.455,3.178,15.297,5.55c7.56,3.702,14.845,5.083,22.667,0.941
			c9.303-4.926,19.404-6.369,29.815-6.424c10.305-0.055,20.623-0.717,30.905-0.324c3.708,0.142,7.814,1.895,10.896,4.093
			c8.497,6.06,16.562,12.728,24.769,19.192c2.046,1.611,3.983,3.36,6.168,5.213c-9.055,3.807-32.941,20.92-33.518,24.201
			c8.159-5.519,15.921-11.151,24.065-16.165c7.565-4.658,15.419-10.056,24.692-3.873c3.849,2.566,6.796,1.692,10.361-0.613
			c11.955-7.726,24.469-14.053,39.264-14.014c5.966,0.016,11.934-0.357,17.901-0.553c0,72.613,0,145.227,0,218
			c-154.667,0-309.333,0-464,0c-2.991-1.639-5.982-3.277-9.119-4.996C406.615,565.2,405.808,566.6,405,568c-5,0-10,0-15,0
			c2.37-1.98,3.589-6.592,8.164-3.548c-0.016-2.821,3.63-6.25-1.422-8.208c-1.087-0.421-2.1-1.06-3.208-1.398
			c-4.304-1.313-4.365-8.875-10.664-7.227c-0.05,0.013-0.144-0.303-0.27-0.394c-3.206-2.342-6.367-4.753-9.65-6.982
			c-2.229-1.513-4.545-2.951-6.973-4.105c-8.222-3.909-16.837-7.115-24.68-11.662c-7.353-4.263-14.341-8.848-22.906-9.228
			c-0.36,1.661-1.137,3.345-0.95,4.913c0.19,1.587,1.801,4.443,1.99,4.379c4.125-1.396,6.183,2.254,9.002,3.695
			c1.163,0.595,3.945,1.585,0.887,4.698c-3.008,3.061-0.935,6.786,3.874,9.365c-0.572,3.23-1.154,6.516-1.782,10.058
			C339.922,558.501,349.66,563.8,360,568c-119.577,0-239.154,0-359,0c0-103,0-206,0-309c1.125-0.423,2.596-0.531,3.317-1.323
			c3.502-3.842,4.297,2.266,6.823,1.726c0.906,5.706,4.36,4.438,7.258,4.184c6.157,3.019,12.314,6.039,17.502,8.582
			c2.557,3.061,4.542,7.543,6.898,7.747c3.269,0.283,6.816-2.645,10.249-4.201c0.665,7.835,8.884,7.885,14.489,10.889
			c0.678,2.483,1.32,4.835,2.075,7.597c7.103-3.523,12.645-2.613,15.647,5.53c0.782-2.548,1.263-4.115,1.808-5.889
			c1.15,1.488,1.924,2.488,2.756,3.564c2.238-3.019,3.596-2.409,6.413,2.49c9.89-2.861,11.825-1.814,14.143,7.844
			c4.93,0.645,9.937,1.329,14.952,1.948c5.658,0.698,11.313,1.444,16.988,1.975c8.854,0.828,17.727,1.446,26.581,2.268
			c1.705,0.158,4.231,1.777,4.901,1.148c4.929-4.627,10.887-1.332,16.238-2.261c6.786-1.179,13.962-0.014,20.968-0.059
			c5.471-0.035,10.94-0.395,16.411-0.572c4.322-0.14,8.672,0.004,12.949-0.497c1.02-0.119,2.601-2.34,2.553-3.54
			c-0.251-6.278-0.651-12.581-1.545-18.797c-1.717-11.937,3.566-18.636,13.9-17.85c0.284-1.169,0.882-2.423,0.843-3.656
			c-0.475-14.894-1.019-29.787-1.641-44.676c-0.042-1.003-0.618-2.231-1.353-2.92c-5.666-5.31-5.653-5.252-1.696-12.341
			c0.882-1.579,1.405-3.376,1.968-5.113c7.825-24.125,20.243-44.925,40.336-61.283c9.124-7.428,18.196-13.351,29.726-15.743
			c16.439-3.41,32.935-4.918,49.414-1.188c12.263,2.776,24.209,6.942,36.461,9.776c13.19,3.051,25.609,6.798,36.226,16.141
			c8.494,7.474,13.457,16.172,15.669,26.904c0.837,4.064,1.635,8.147,2.729,12.145c3.394,12.4,7.278,24.678,10.263,37.172
			c1.805,7.555,2.307,15.422,3.37,23.152c0.442,3.213,1.578,4.988,5.036,6.769c4.86,2.503,11.489,3.471,13.675,10.034
			c0.222,0.666,1.818,0.99,2.834,1.254c3.983,1.038,8.88-0.548,11.603,4.153c0.212,0.367,1.435,0.623,1.773,0.372
			c4.929-3.658,4.555,1.093,5.153,2.988c2.699-0.332,5.292-1.467,7.132-0.728c6.033,2.424,11.793,5.529,17.658,8.372
			c4.417,2.141,8.644,4.92,13.288,6.297c11.83,3.507,23.829,6.448,35.796,9.479c3.548,0.899,7.198,1.768,10.825,1.881
			c4.068,0.126,8.26-1.292,12.208-0.722c2.163,0.313,4.292,1.343,6.654,0.958c4.414-0.72,8.95-0.996,13.219-2.215
			c5.018-1.433,10.611-0.234,11.885,3.473c1.015-1.084,1.826-2.748,2.976-3.029c3.77-0.923,7.652-1.778,11.511-1.881
			c13.929-0.371,27.869-0.343,41.802-0.619c12.705-0.252,25.405-0.75,38.11-1.043c3.888-0.09,7.803,0.43,11.669,0.154
			c5.993-0.428,11.942-1.474,17.934-1.938c6.895-0.535,13.583,2.617,20.744,0.676c3.905-1.059,8.378,0.162,12.578-0.024
			c13.005-0.575,25.996-1.522,39.005-1.959c10.605-0.357,21.229-0.119,31.842-0.313C876.67,292.224,878.832,291.441,881,291z
			 M459.299,319.594c-1.071,2.83-2.219,5.613-3.169,8.462c-0.624,1.871-0.948,3.841-1.435,5.759
			c-1.368,5.388-2.714,10.781-4.14,16.154c-0.807,3.039-1.746,6.043-2.64,9.058c-1.121,3.782-2.081,7.622-3.421,11.325
			c-2.971,8.212-5.173,16.905-9.468,24.381c-5.162,8.985-12.269,16.838-18.289,25.355c-1.068,1.511-1.809,4.191-1.215,5.776
			c2.671,7.135,6.798,9.093,14.244,7.19c2.193-0.56,4.361-1.487,6.328-2.616c14.02-8.047,29.26-11.434,45.24-12.182
			c13.846-0.648,27.682-1.601,41.535-1.96c4.266-0.11,9.044,0.364,12.739,2.241c4.539,2.305,8.299,2.518,12.699,0.418
			c7.554-3.605,15.057-7.403,22.873-10.346c5.93-2.233,12.24-4.096,18.51-4.644c10.207-0.891,20.543-0.236,30.778-0.923
			c4.487-0.301,8.859-2.3,13.284-3.527c-0.056-0.566-0.112-1.132-0.168-1.698c-2.066-0.946-4.068-2.078-6.208-2.806
			c-11.125-3.783-21.505-9.226-30.295-16.825c-5.07-4.383-8.201-10.975-12.371-16.447c-2.62-3.437-5.095-7.224-8.44-9.814
			c-5.22-4.042-11.797-6.471-16.59-10.894c-8.377-7.731-18.598-11.939-28.467-16.843c-3.62-1.799-7.916-3.04-11.925-3.101
			c-11.936-0.18-23.881,0.423-35.825,0.58C475.696,321.77,467.769,323.804,459.299,319.594z M226.905,363.255
			c1.497,2.119,2.963,4.323,4.56,6.427c3.611,4.76,9.645,5.552,14.372,8.516c2.69,1.686,4.384,3.113,4.408,6.495
			c0.01,1.433,1.351,2.979,2.373,4.241c0.69,0.852,2.767,1.397,2.711,1.914c-0.728,6.672,6.779,6.26,8.61,10.818
			c4.757-13.315,7.602-26.494,5.546-40.315c-10.301-0.606-10.17-0.651-13.696-10.826c-2.257-6.515-4.92-12.892-7.493-19.294
			c-1.642-4.086-5.168-5.5-9.137-5.205c-7.665,0.571-15.286,1.742-22.952,2.294c-3.478,0.251-7.077-0.887-10.521-0.502
			c-6.035,0.674-11.956,2.43-17.994,2.984c-4.757,0.436-9.637-0.607-14.424-0.327c-3.518,0.206-6.985,1.446-10.44,2.355
			c-0.334,0.088-0.428,1.091-0.448,1.149c4.718,2.149,9.16,4.172,14.67,6.681c1.939,0.271,5.394,0.753,9.146,1.276
			c-0.957,1.781-1.521,2.831-2.345,4.364c2.02-0.243,3.914-1.068,4.671-0.465c4.823,3.844,11.078,4.177,16.388,7.298
			c8.208,4.824,12.6,6.193,18.27,12.058c0.101,0.104,0.291,0.122,0.768,0.309C224.61,364.998,225.422,364.381,226.905,363.255z
			 M477.138,304.913c3.153-0.148,6.103,0.009,8.908-0.555c1.217-0.245,2.885-1.899,2.999-3.046c0.142-1.431-0.686-3.665-1.832-4.395
			c-4.696-2.989-9.371-6.294-15.589-4.972c-1.657,0.352-3.592-0.231-5.324-0.676c-4.598-1.182-5.627-0.209-4.679,4.55
			c0.29,1.456,0.222,2.992,0.577,4.427c0.888,3.586,2.8,5.519,6.787,3.896c3.023-1.231,5.463-0.632,6.929,2.546
			c0.107,0.231,0.491,0.334,0.815,0.54C476.9,306.262,477.063,305.336,477.138,304.913z M541.732,300.054
			c-4.568-1.509-8.842-3.412-13.309-4.156c-1.792-0.298-4.009,1.952-6.032,3.043c1.273,1.898,2.143,4.437,3.91,5.548
			c2.85,1.792,6.467,2.326,9.436,3.973c3.403,1.888,4.608-0.205,5.474-2.571C541.8,304.285,541.561,302.374,541.732,300.054z
			 M609.268,321.459c-0.299-0.148-0.599-0.296-0.898-0.444c0.05-0.897,0.261-2.55,0.126-2.579c-3.14-0.669-6.389-0.91-9.462-1.781
			c-1.913-0.542-3.569-1.99-4.596-2.593c-0.606,0.561-2.036,1.882-3.359,3.106c0.274,0.071,1.416,0.366,2.558,0.661
			c-0.292,0.46-0.585,0.921-0.877,1.381c0.817,0.7,1.63,1.404,2.451,2.099c1.414,1.196,2.829,2.392,4.261,3.566
			c0.073,0.06,0.384-0.024,0.456-0.129c2.329-3.425,5.102-1.31,7.922-0.904c1.987,0.286,4.146-0.62,6.682-1.075
			c-1.487-1.7-2.384-2.726-3.353-3.835C610.536,319.782,609.902,320.621,609.268,321.459z M812.704,393.559
			c0.194,0.766,0.388,1.532,0.581,2.298c8.636-2.36,17.273-4.72,25.909-7.079C829.76,387.866,821.099,390.156,812.704,393.559z
			 M762.932,386.131c-0.227-0.459-0.454-0.919-0.681-1.378c-7.972,2.699-14.071,8.179-19.299,14.983
			C749.612,395.201,756.272,390.666,762.932,386.131z M818.743,381.782c-0.068-0.654-0.135-1.308-0.203-1.963
			c-8.348,1.436-16.696,2.871-25.044,4.307c0.124,0.714,0.249,1.428,0.373,2.143C802.16,384.774,810.452,383.278,818.743,381.782z
			 M592.722,307.945c0.306-1.083,0.666-2.356,0.853-3.016c-2.762-1.252-4.871-2.372-7.101-3.138
			c-0.908-0.312-2.36-0.206-3.054,0.349c-0.725,0.58-1.39,2.176-1.077,2.879c0.415,0.93,1.735,1.811,2.797,2.01
			c1.39,0.26,2.914-0.3,4.371-0.248C590.344,306.811,591.16,307.354,592.722,307.945z M802.4,388.961
			c0.237,0.868,0.474,1.736,0.711,2.604c5.925-1.583,11.849-3.167,17.774-4.75c-0.175-0.688-0.35-1.376-0.525-2.064
			C814.373,386.155,808.387,387.558,802.4,388.961z M598.137,310.009c3.086,0.784,6.215,1.579,9.345,2.374
			C601.73,305.244,599.971,305.103,598.137,310.009z"/>
		<path class="st0" d="M881,291c-2.168,0.441-4.33,1.224-6.505,1.264c-10.613,0.194-21.237-0.044-31.842,0.313
			c-13.009,0.438-26,1.384-39.005,1.959c-4.2,0.186-8.674-1.035-12.578,0.024c-7.161,1.941-13.849-1.21-20.744-0.676
			c-5.992,0.465-11.94,1.51-17.934,1.938c-3.866,0.276-7.782-0.243-11.669-0.154c-12.705,0.293-25.405,0.79-38.11,1.043
			c-13.933,0.277-27.872,0.249-41.802,0.619c-3.859,0.103-7.741,0.957-11.511,1.881c-1.149,0.282-1.96,1.946-2.976,3.029
			c-1.275-3.707-6.868-4.906-11.885-3.473c-4.269,1.219-8.805,1.496-13.219,2.215c-2.361,0.385-4.491-0.646-6.654-0.958
			c-3.948-0.571-8.14,0.848-12.208,0.722c-3.627-0.112-7.277-0.982-10.825-1.881c-11.966-3.031-23.966-5.972-35.796-9.479
			c-4.643-1.376-8.871-4.156-13.288-6.297c-5.865-2.843-11.624-5.948-17.658-8.372c-1.84-0.739-4.433,0.396-7.132,0.728
			c-0.598-1.894-0.224-6.645-5.153-2.988c-0.338,0.251-1.56-0.005-1.773-0.372c-2.723-4.701-7.62-3.116-11.603-4.153
			c-1.015-0.264-2.612-0.589-2.834-1.254c-2.186-6.563-8.815-7.531-13.675-10.034c-3.458-1.781-4.594-3.556-5.036-6.769
			c-1.064-7.73-1.566-15.597-3.37-23.152c-2.985-12.495-6.869-24.772-10.263-37.172c-1.094-3.998-1.892-8.081-2.729-12.145
			c-2.211-10.732-7.175-19.43-15.669-26.904c-10.617-9.343-23.036-13.09-36.226-16.141c-12.252-2.834-24.198-7.001-36.461-9.776
			c-16.478-3.73-32.975-2.221-49.414,1.188c-11.53,2.392-20.602,8.315-29.726,15.743c-20.092,16.358-32.511,37.157-40.336,61.283
			c-0.563,1.737-1.087,3.533-1.968,5.113c-3.957,7.089-3.97,7.031,1.696,12.341c0.735,0.689,1.312,1.916,1.353,2.92
			c0.623,14.889,1.167,29.781,1.641,44.676c0.039,1.233-0.559,2.487-0.843,3.656c-10.334-0.786-15.617,5.913-13.9,17.85
			c0.894,6.216,1.294,12.519,1.545,18.797c0.048,1.199-1.533,3.42-2.553,3.54c-4.277,0.501-8.627,0.357-12.949,0.497
			c-5.471,0.177-10.94,0.537-16.411,0.572c-7.006,0.045-14.182-1.12-20.968,0.059c-5.351,0.93-11.309-2.365-16.238,2.261
			c-0.67,0.629-3.195-0.99-4.901-1.148c-8.854-0.823-17.727-1.44-26.581-2.268c-5.675-0.531-11.33-1.277-16.988-1.975
			c-5.015-0.618-10.022-1.303-14.952-1.948c-2.319-9.658-4.253-10.705-14.143-7.844c-2.817-4.899-4.175-5.508-6.413-2.49
			c-0.832-1.076-1.605-2.076-2.756-3.564c-0.545,1.774-1.026,3.341-1.808,5.889c-3.002-8.143-8.544-9.054-15.647-5.53
			c-0.754-2.763-1.396-5.114-2.075-7.597c-5.605-3.004-13.823-3.054-14.489-10.889c-3.433,1.556-6.98,4.484-10.249,4.201
			c-2.355-0.204-4.34-4.686-6.898-7.747c-5.188-2.544-11.345-5.563-17.502-8.582c-2.897,0.254-6.352,1.522-7.258-4.184
			c-2.526,0.54-3.321-5.568-6.823-1.726C3.596,258.469,2.125,258.577,1,259C1,173.03,1,87.06,1,1.051c293.333,0,586.667,0,880,0
			C881,97.734,881,194.367,881,291z"/>
		<path class="st0" d="M881,350c-5.967,0.196-11.935,0.569-17.901,0.553c-14.795-0.039-27.308,6.288-39.264,14.014
			c-3.566,2.304-6.512,3.179-10.361,0.613c-9.273-6.183-17.127-0.785-24.692,3.873c-8.143,5.014-15.906,10.646-24.065,16.165
			c0.577-3.28,24.463-20.394,33.518-24.201c-2.185-1.853-4.122-3.601-6.168-5.213c-8.207-6.464-16.272-13.132-24.769-19.192
			c-3.082-2.198-7.188-3.951-10.896-4.093c-10.282-0.393-20.6,0.269-30.905,0.324c-10.411,0.056-20.512,1.498-29.815,6.424
			c-7.822,4.142-15.107,2.761-22.667-0.941c-4.843-2.372-10.239-3.585-15.297-5.55c-8.001-3.108-15.963-6.325-23.852-9.704
			c-1.554-0.665-2.705-2.273-4.041-3.445c0.03-0.592,0.061-1.184,0.091-1.776c3.332-0.342,6.658-0.884,9.997-0.986
			c7.638-0.233,15.283-0.274,22.925-0.335c1.545-0.012,3.099,0.178,4.636,0.37c1.309,0.164,2.602,0.683,3.899,0.67
			c9.528-0.096,19.061-0.14,28.58-0.514c4.133-0.163,8.236-1.066,12.123-1.601c1.116,0.6,2.437,1.934,3.715,1.894
			c6.312-0.2,12.608-0.858,18.918-1.172c6.379-0.318,12.767-0.486,19.154-0.608c10.471-0.2,20.946-0.203,31.413-0.501
			c5.103-0.145,10.187-0.958,15.29-1.119c5.517-0.174,11.048,0.18,16.57,0.089c7.604-0.126,15.204-0.637,22.806-0.65
			c9.076-0.015,18.152,0.341,27.229,0.498c4.609,0.08,9.219,0.077,13.828,0.112C881,326,881,338,881,350z"/>
		<path class="st0" d="M360,568c-10.34-4.2-20.078-9.499-28.587-15.645c0.627-3.542,1.209-6.828,1.782-10.058
			c-4.809-2.579-6.882-6.304-3.874-9.365c3.058-3.113,0.277-4.103-0.887-4.698c-2.819-1.441-4.877-5.091-9.002-3.695
			c-0.189,0.064-1.801-2.792-1.99-4.379c-0.187-1.568,0.59-3.252,0.95-4.913c8.565,0.38,15.553,4.965,22.906,9.228
			c7.843,4.547,16.458,7.753,24.68,11.662c2.428,1.154,4.745,2.593,6.973,4.105c3.284,2.229,6.444,4.64,9.65,6.982
			c0.125,0.092,0.22,0.408,0.27,0.394c6.299-1.648,6.36,5.914,10.664,7.227c1.108,0.338,2.121,0.977,3.208,1.398
			c5.052,1.958,1.406,5.387,1.422,8.208c-4.575-3.044-5.795,1.568-8.164,3.548C380,568,370,568,360,568z"/>
		<path class="st0" d="M405,568c0.808-1.4,1.615-2.8,2.881-4.996c3.136,1.718,6.128,3.357,9.119,4.996C413,568,409,568,405,568z"/>
		<path class="st0" d="M459.299,319.594c8.47,4.21,16.396,2.175,24.163,2.073c11.944-0.158,23.889-0.761,35.825-0.58
			c4.009,0.061,8.305,1.302,11.925,3.101c9.868,4.904,20.09,9.112,28.467,16.843c4.792,4.423,11.369,6.853,16.59,10.894
			c3.345,2.59,5.82,6.377,8.44,9.814c4.17,5.471,7.301,12.063,12.371,16.447c8.789,7.599,19.17,13.041,30.295,16.825
			c2.14,0.728,4.142,1.86,6.208,2.806c0.056,0.566,0.112,1.132,0.168,1.698c-4.424,1.228-8.797,3.226-13.284,3.527
			c-10.235,0.687-20.571,0.031-30.778,0.923c-6.27,0.548-12.58,2.41-18.51,4.644c-7.816,2.944-15.319,6.742-22.873,10.346
			c-4.4,2.1-8.16,1.887-12.699-0.418c-3.695-1.877-8.473-2.351-12.739-2.241c-13.852,0.358-27.689,1.311-41.535,1.96
			c-15.98,0.749-31.22,4.135-45.24,12.182c-1.967,1.129-4.135,2.056-6.328,2.616c-7.446,1.903-11.572-0.055-14.244-7.19
			c-0.593-1.584,0.148-4.265,1.215-5.776c6.02-8.516,13.128-16.37,18.289-25.355c4.295-7.475,6.497-16.169,9.468-24.381
			c1.34-3.703,2.3-7.544,3.421-11.325c0.894-3.015,1.833-6.019,2.64-9.058c1.426-5.372,2.773-10.766,4.14-16.154
			c0.487-1.918,0.811-3.888,1.435-5.759C457.081,325.208,458.228,322.425,459.299,319.594z"/>
		<path class="st0" d="M226.905,363.255c-1.483,1.127-2.295,1.743-2.957,2.246c-0.477-0.187-0.668-0.204-0.768-0.309
			c-5.67-5.864-10.062-7.234-18.27-12.058c-5.311-3.121-11.566-3.454-16.388-7.298c-0.756-0.603-2.651,0.222-4.671,0.465
			c0.824-1.533,1.388-2.583,2.345-4.364c-3.752-0.523-7.206-1.005-9.146-1.276c-5.509-2.509-9.952-4.532-14.67-6.681
			c0.021-0.058,0.114-1.061,0.448-1.149c3.455-0.909,6.922-2.149,10.44-2.355c4.787-0.28,9.667,0.763,14.424,0.327
			c6.038-0.554,11.959-2.31,17.994-2.984c3.444-0.385,7.043,0.753,10.521,0.502c7.666-0.552,15.287-1.724,22.952-2.294
			c3.969-0.295,7.495,1.119,9.137,5.205c2.573,6.402,5.236,12.779,7.493,19.294c3.525,10.175,3.395,10.221,13.696,10.826
			c2.056,13.821-0.789,27-5.546,40.315c-1.831-4.558-9.338-4.146-8.61-10.818c0.056-0.517-2.021-1.061-2.711-1.914
			c-1.022-1.263-2.363-2.808-2.373-4.241c-0.024-3.383-1.718-4.809-4.408-6.495c-4.727-2.964-10.761-3.757-14.372-8.516
			C229.868,367.577,228.402,365.374,226.905,363.255z"/>
		<path class="st0" d="M477.138,304.913c-0.075,0.423-0.238,1.349-0.409,2.316c-0.324-0.206-0.708-0.309-0.815-0.54
			c-1.466-3.179-3.907-3.777-6.929-2.546c-3.987,1.623-5.899-0.31-6.787-3.896c-0.355-1.435-0.287-2.97-0.577-4.427
			c-0.949-4.759,0.08-5.732,4.679-4.55c1.732,0.445,3.667,1.028,5.324,0.676c6.218-1.323,10.893,1.983,15.589,4.972
			c1.146,0.729,1.974,2.963,1.832,4.395c-0.114,1.148-1.782,2.802-2.999,3.046C483.241,304.922,480.291,304.765,477.138,304.913z"/>
		<path class="st0" d="M541.732,300.054c-0.171,2.32,0.068,4.23-0.52,5.837c-0.866,2.366-2.071,4.459-5.474,2.571
			c-2.97-1.648-6.587-2.182-9.436-3.973c-1.767-1.111-2.637-3.65-3.91-5.548c2.023-1.09,4.24-3.341,6.032-3.043
			C532.89,296.642,537.165,298.545,541.732,300.054z"/>
		<path class="st0" d="M609.268,321.459c0.634-0.838,1.268-1.676,1.911-2.526c0.969,1.109,1.867,2.135,3.353,3.835
			c-2.536,0.455-4.695,1.361-6.682,1.075c-2.819-0.406-5.593-2.522-7.922,0.904c-0.071,0.105-0.382,0.189-0.456,0.129
			c-1.432-1.175-2.847-2.37-4.261-3.566c-0.821-0.695-1.635-1.399-2.451-2.099c0.292-0.46,0.585-0.921,0.877-1.381
			c-1.142-0.295-2.284-0.59-2.558-0.661c1.323-1.224,2.753-2.546,3.359-3.106c1.026,0.603,2.683,2.05,4.596,2.593
			c3.073,0.871,6.322,1.112,9.462,1.781c0.135,0.029-0.076,1.682-0.126,2.579C608.669,321.163,608.969,321.311,609.268,321.459z"/>
		<path class="st0" d="M812.704,393.559c8.395-3.403,17.056-5.694,26.491-4.781c-8.636,2.36-17.273,4.72-25.909,7.079
			C813.091,395.091,812.898,394.325,812.704,393.559z"/>
		<path class="st0" d="M762.932,386.131c-6.66,4.535-13.32,9.07-19.98,13.605c5.228-6.804,11.326-12.284,19.299-14.983
			C762.478,385.212,762.705,385.672,762.932,386.131z"/>
		<path class="st0" d="M818.743,381.782c-8.291,1.496-16.583,2.991-24.874,4.487c-0.124-0.714-0.249-1.428-0.373-2.143
			c8.348-1.436,16.696-2.871,25.044-4.307C818.608,380.474,818.675,381.128,818.743,381.782z"/>
		<path class="st0" d="M592.722,307.945c-1.562-0.591-2.378-1.134-3.212-1.164c-1.457-0.052-2.98,0.508-4.371,0.248
			c-1.062-0.199-2.382-1.08-2.797-2.01c-0.314-0.704,0.352-2.299,1.077-2.879c0.694-0.555,2.146-0.661,3.054-0.349
			c2.23,0.766,4.339,1.886,7.101,3.138C593.388,305.589,593.028,306.862,592.722,307.945z"/>
		<path class="st0" d="M802.4,388.961c5.987-1.403,11.973-2.807,17.96-4.21c0.175,0.688,0.35,1.376,0.525,2.064
			c-5.925,1.583-11.849,3.167-17.774,4.75C802.874,390.697,802.637,389.829,802.4,388.961z"/>
		<path class="st0" d="M598.137,310.009c1.834-4.907,3.593-4.766,9.345,2.374C604.352,311.588,601.223,310.793,598.137,310.009z"/>
	</g>
</g>
</svg>