<!-- Generator: Adobe Illustrator 21.1.0, SVG Export Plug-In  -->
<svg version="1.1"
	 xmlns="http://www.w3.org/2000/svg" xmlns:xlink="http://www.w3.org/1999/xlink" xmlns:a="http://ns.adobe.com/AdobeSVGViewerExtensions/3.0/"
	 x="0px" y="0px" width="12.332px" height="64.029px" viewBox="0 0 12.332 64.029"
	 style="enable-background:new 0 0 12.332 64.029;" xml:space="preserve">
<defs>
</defs>
<g>
	<g>
		<g>
			<rect x="10.154" y="0.005" transform="matrix(1 -0.0079 0.0079 1 -0.1231 0.0863)" width="1.481" height="31.342"/>
		</g>
	</g>
	<g>
		<ellipse transform="matrix(0.781 -0.6245 0.6245 0.781 -18.6227 10.7783)" cx="6.058" cy="31.944" rx="6.514" ry="4.571"/>
	</g>
</g>
<g>
	<path d="M5.127,53.474c-0.173-0.009-0.374-0.014-0.602-0.014c-0.228,0-0.46,0.005-0.697,0.014c-0.237,0.009-0.467,0.022-0.69,0.041
		c-0.224,0.019-0.417,0.032-0.581,0.041c-0.101,0.009-0.226,0.019-0.376,0.027s-0.312,0.021-0.485,0.034
		c-0.173,0.014-0.351,0.032-0.533,0.055c-0.183,0.022-0.36,0.048-0.533,0.075L0.15,52.914c0.109,0.019,0.237,0.039,0.383,0.062
		c0.146,0.022,0.301,0.041,0.465,0.055s0.33,0.025,0.499,0.034c0.168,0.009,0.326,0.014,0.472,0.014
		c0.255,0,0.551-0.002,0.889-0.007c0.337-0.005,0.697-0.012,1.08-0.021s0.774-0.025,1.176-0.048
		c0.401-0.022,0.788-0.053,1.162-0.089c-0.019,0.055-0.037,0.123-0.055,0.205c-0.019,0.083-0.037,0.167-0.055,0.254
		c-0.019,0.087-0.034,0.17-0.048,0.247c-0.014,0.078-0.025,0.14-0.034,0.186l-0.301,2.319c0.091-0.019,0.175-0.03,0.253-0.035
		c0.077-0.004,0.157-0.011,0.239-0.021l-0.068,0.659c-1.03-0.046-1.885-0.051-2.563-0.014c-0.679,0.036-1.256,0.063-1.729,0.082
		c0,0.082-0.005,0.173-0.014,0.272c-0.009,0.1-0.014,0.186-0.014,0.258v1.864c0,0.154,0.05,0.279,0.15,0.375
		c0.1,0.095,0.241,0.134,0.424,0.115c0.364-0.027,0.793-0.075,1.285-0.144s1.014-0.155,1.565-0.26
		c0.551-0.104,1.109-0.224,1.675-0.355c0.565-0.132,1.107-0.28,1.627-0.444v-6.084c0-0.31-0.137-0.556-0.41-0.738
		s-0.702-0.344-1.285-0.484l0.15-0.377c0.456,0.055,0.916,0.125,1.381,0.212s0.875,0.166,1.23,0.239
		c-0.037,0.164-0.068,0.351-0.096,0.561s-0.041,0.405-0.041,0.588v3.787c0.383-0.009,0.818-0.036,1.306-0.082
		c0.487-0.046,0.982-0.114,1.483-0.205l-0.123,0.861c-0.191-0.009-0.406-0.014-0.643-0.014c-0.237,0-0.477,0-0.718,0
		c-0.242,0-0.477,0.002-0.704,0.007c-0.228,0.005-0.429,0.007-0.602,0.007v3.295c0,0.282-0.007,0.606-0.021,0.971
		s-0.03,0.729-0.048,1.094c-0.019,0.364-0.041,0.711-0.068,1.039s-0.06,0.597-0.096,0.807l-0.574,0.068
		c-0.019-0.155-0.034-0.349-0.048-0.581s-0.027-0.483-0.041-0.752s-0.023-0.545-0.027-0.827c-0.005-0.282-0.007-0.556-0.007-0.82
		v-2.188c-0.474,0.183-1,0.357-1.579,0.526c-0.579,0.169-1.162,0.321-1.75,0.458s-1.153,0.258-1.695,0.362
		c-0.542,0.104-1.014,0.176-1.415,0.212c-0.447,0.046-0.759-0.014-0.937-0.178s-0.267-0.46-0.267-0.889v-1.791
		c0-0.183-0.012-0.33-0.034-0.444c-0.023-0.114-0.068-0.21-0.137-0.287s-0.167-0.144-0.294-0.198
		C0.378,56.578,0.209,56.518,0,56.455l0.137-0.314c0.938,0.109,1.807,0.157,2.604,0.144c0.797-0.014,1.552-0.053,2.263-0.116
		L5.127,53.474z"/>
</g>
</svg>