<!-- Generator: Adobe Illustrator 21.1.0, SVG Export Plug-In  -->
<svg version="1.1"
	 xmlns="http://www.w3.org/2000/svg" xmlns:xlink="http://www.w3.org/1999/xlink" xmlns:a="http://ns.adobe.com/AdobeSVGViewerExtensions/3.0/"
	 x="0px" y="0px" width="1010.281px" height="289.384px" viewBox="0 0 1010.281 289.384"
	 style="enable-background:new 0 0 1010.281 289.384;" xml:space="preserve">
<defs>
</defs>
<g>
	<path d="M74.847,97.535c0.15,0.75-0.3,1.65-1.35,2.4c-7.649,4.499-21.749,9.749-31.499,11.099c-2.55,0.301-5.399,0.601-7.199,0.601
		c-10.05,0-14.25-3.15-16.8-11.25c-0.3-0.899-0.6-4.499-0.6-8.249V47.138c-1.95-2.4-5.25-4.65-9-6.15l1.351-5.399
		c0.3-0.601,0.75-1.05,1.8-1.05c6.149,0,20.549,0.6,26.249,1.35c2.85-0.15,9.449-0.45,11.549-0.75l4.351-3
		c3.899-0.149,10.35,0.3,13.499,0.75c1.8,0.45,2.7,1.65,2.7,3.3c0,4.5-1.351,8.1-2.851,9.6c-0.75,0.601-1.649,0.9-2.999,0.9
		l-26.399,1.05v44.548c0,1.8,0.75,2.55,2.7,2.55c8.85-0.149,23.398-1.5,30.898-3.3c1.35-0.3,2.1,0,2.4,1.05L74.847,97.535z
		 M74.997,15.038c0.3-0.749,0.899-1.199,2.7-1.199c6.749,0.3,17.549,2.699,22.499,5.1c1.5,0.75,2.1,2.1,2.1,4.2l-0.6,8.1v71.696
		c0,9.6-2.4,27.899-6.15,37.499h-10.35c-1.35-5.7-2.399-25.349-2.399-32.099V72.486c-3.6,0.149-8.1,0.3-9.899,0.45
		c-2.7,0.149-7.05,1.05-9.75,1.949c-4.2-2.699-7.649-5.55-10.5-8.999c-0.449-0.75-0.6-1.351-0.3-2.101l1.5-2.55
		c3.3,0.301,8.1,0.45,11.85,0.45c4.05,0,11.85-0.149,17.1-0.45V28.838c-1.65-3-5.7-6-10.05-7.949L74.997,15.038z M101.996,4.839
		c0.45-0.75,1.05-1.2,2.699-1.2c7.2,0.301,18.899,2.7,24.3,5.25c1.649,0.75,2.399,2.1,2.25,4.35l-0.601,8.85v85.947
		c0,10.35-2.55,30.448-6.75,41.248h-10.949c-1.35-5.25-2.399-28.199-2.399-35.398V19.389c-1.65-3.15-6-6.45-10.65-8.55
		L101.996,4.839z"/>
	<path d="M239.845,4.839c0.3-0.75,0.75-1.2,2.399-1.2c7.95,0.301,20.699,2.7,26.549,5.25c1.801,0.75,2.551,2.25,2.4,4.5l-0.75,9.75
		v83.996c0,10.5-2.55,31.199-6.899,42.148h-11.55c-1.35-5.1-2.4-28.799-2.4-35.999V92.136c-9.899,2.25-23.698,4.5-37.198,6.3v7.8
		c0,9.899-3.3,29.849-6.75,38.398h-11.399c-1.05-5.851-2.399-25.35-2.399-32.249v-11.699c-3.15,0.3-6,0.6-8.7,0.749
		c-3.749,0.301-10.649,1.801-14.249,3.15c-6-3-13.35-8.399-18.149-13.199c-0.75-0.75-0.899-1.2-0.45-2.101l1.351-2.999
		c6.3,1.05,14.399,1.35,20.699,1.199c21.599-0.3,60.598-3.3,77.246-6.749V20.288c-1.949-3.6-6.6-7.199-11.849-9.449L239.845,4.839z
		 M166.647,31.838c-1.2-1.95-4.8-4.649-7.649-5.7l1.35-5.1c0.15-0.6,0.75-1.05,2.7-1.05c5.699-0.149,17.699,1.05,22.349,2.25
		c1.5,0.45,2.101,1.65,1.95,3.6l-0.3,7.35v3.45l28.349-0.3v-10.5c-1.2-2.1-4.5-4.649-7.5-5.999l1.8-4.95
		c0.45-0.9,1.051-1.35,2.851-1.2c5.85,0.3,17.249,2.1,21.599,3.6c1.65,0.601,2.101,1.801,1.95,3.601l-0.45,7.949l-0.149,16.949
		c0,4.95-1.051,11.1-2.101,14.55l3,1.2c0.9,0.449,1.351,1.199,1.351,2.1c0,3.45-1.051,6.899-2.25,8.1
		c-11.55-0.15-36.449,0.15-49.948,0.45c-1.05,3.149-2.85,5.25-4.5,6.3h-10.949c-1.65-3.45-2.55-8.4-2.55-11.55L166.647,31.838z
		 M186.896,48.638l-0.149,11.249l28.648-0.3v-11.25L186.896,48.638z"/>
</g>
<g>
	<path d="M778.473,69.153c-13.199,11.399-29.549,20.85-47.248,26.999c-1.351,0.45-2.25,0.6-2.7,0.15l-2.7-3
		c-0.75-0.9-0.75-1.5,0-2.4c21.149-12.449,38.249-29.549,48.898-45.598c-7.2,0-15.899,0.3-18.6,0.45
		c-3.149,0.149-8.55,1.199-11.549,2.25c-5.101-2.4-10.2-6.15-13.8-9.75c-0.75-0.75-0.75-1.5-0.45-2.25l1.351-2.4
		c4.949,0.75,11.099,1.051,15.449,1.051c5.55,0,28.349-0.301,35.248-0.9l6.9-2.55c1.199-0.45,2.85-0.45,3.899,0
		c2.85,1.2,8.25,3.899,10.35,5.25c0.9,0.6,0.9,1.8,0.3,2.699l-3.75,5.55c-3.3,5.25-7.35,10.5-11.999,15.3l7.35,5.25l6.75,1.2
		c2.699,2.85,6.149,7.499,7.649,10.199c1.35,2.399,1.649,4.05,1.2,5.55c-1.051,3.149-5.101,5.55-8.1,5.1
		c-1.65-0.15-3.601-1.35-5.101-2.7L778.473,69.153z M749.073,10.506c12.75,2.4,25.949,3.15,34.649,3c1.949,0,2.85,0.3,3.749,1.649
		c1.5,2.7,1.051,8.7-0.899,10.5c-0.75,0.75-1.8,0.9-3.15,0.9c-5.85,0-16.349,0.3-22.499,0.75c-1.949,0.149-2.85,0.149-4.05-0.75
		c-3-2.4-7.05-7.35-9.149-11.55c-0.6-1.05-0.6-1.8-0.15-2.55L749.073,10.506z M835.17,120.451c0,18.3-16.199,28.949-34.948,28.949
		s-34.948-10.649-34.948-28.949c0-16.649,16.199-26.549,34.948-26.549S835.17,103.802,835.17,120.451z M814.321,120.451
		c0-8.249-6.3-12.6-14.1-12.6s-14.1,4.351-14.1,12.6c0,8.25,6.3,12.6,14.1,12.6S814.321,128.701,814.321,120.451z M847.92,48.154
		c4.5-0.149,10.949,0.15,13.799,0.75c2.101,0.45,3.45,1.95,3.601,3.899c0.3,3.75-0.601,7.65-1.801,9.15
		c-1.05,1.35-3.449,1.949-5.249,1.949l-22.199,0.75c-0.601,8.85-3.15,21.6-6.3,28.049h-12c-1.35-4.649-2.399-21.148-2.399-26.998
		V19.506c-1.8-3.45-6.3-7.05-11.25-9.15l2.101-6.149c0.3-0.75,0.899-1.2,2.55-1.2c7.8,0.301,20.099,2.7,25.799,5.25
		c1.649,0.75,2.399,2.25,2.25,4.5l-0.601,9.449v29.699l6.9-0.45L847.92,48.154z"/>
	<path d="M992.818,51.305c4.5-0.15,10.949,0.149,13.799,0.75c2.101,0.449,3.45,1.949,3.601,3.899c0.3,3.75-0.601,7.649-1.801,9.149
		c-1.05,1.351-3.449,1.95-5.249,1.95l-22.05,0.75v3c0,12.149-2.55,29.998-6.749,39.598h-11.7c-1.35-4.949-2.25-21.749-2.399-30.898
		c-18.749,5.7-41.248,9.75-56.998,10.95c-2.25,0.149-4.5,0.3-6.3,0.3c-7.8,0-13.199-4.35-15.449-11.1
		c-0.45-1.8-0.899-5.1-0.899-8.55V37.655c-1.95-2.551-5.4-5.101-9.45-6.601l1.351-5.399c0.3-0.6,0.749-1.05,1.8-1.05
		c6.449,0,21.599,0.75,27.299,1.95c5.1-0.15,17.549-0.601,21.599-1.051l4.8-3.3c4.5,0,11.55,0.301,15.149,1.051
		c1.95,0.449,2.85,1.649,2.85,3.449c0,4.5-1.199,7.95-2.55,9.3c-0.75,0.75-1.649,1.05-3.149,1.05l-38.998,1.351v33.448
		c0,2.1,0.899,3,3.149,3c15.449-0.15,38.248-2.4,55.798-6.45V19.506c-1.8-3.45-6.3-7.05-11.25-9.15l2.101-6.149
		c0.3-0.75,0.899-1.2,2.55-1.2c7.8,0.301,20.099,2.7,25.799,5.25c1.649,0.75,2.399,2.25,2.25,4.5l-0.601,9.449v32.849l6.9-0.449
		L992.818,51.305z M971.369,127.951c5.399-0.15,13.199,0.45,16.949,1.35c1.95,0.45,3.149,1.8,3.149,3.601
		c0,4.949-1.649,8.549-2.85,9.749c-0.75,0.75-1.95,1.05-3.3,1.05l-62.397,0.601c-12.149-0.15-16.949-5.101-16.949-14.55v-16.649
		c-2.4-2.25-6.45-4.649-10.35-6.149l1.2-5.1c0.149-0.75,1.05-1.5,2.55-1.5c7.05,0,19.649,0.899,25.049,2.1c1.95,0.45,3,1.8,3,4.05
		l-0.3,8.55v13.199c0,2.55,1.05,3.75,3.6,3.75c8.25,0.15,25.499-0.15,34.049-0.45L971.369,127.951z"/>
</g>
</svg>