<!-- Generator: Adobe Illustrator 21.1.0, SVG Export Plug-In  -->
<svg version="1.1"
	 xmlns="http://www.w3.org/2000/svg" xmlns:xlink="http://www.w3.org/1999/xlink" xmlns:a="http://ns.adobe.com/AdobeSVGViewerExtensions/3.0/"
	 x="0px" y="0px" width="208.069px" height="130.543px" viewBox="0 0 208.069 130.543"
	 style="enable-background:new 0 0 208.069 130.543;" xml:space="preserve">
<style type="text/css">
	.st0{fill:none;stroke:#000000;stroke-miterlimit:10;}
</style>
<defs>
</defs>
<g>
	<g>
		<rect x="204.746" y="59.157" transform="matrix(1 -0.0079 0.0079 1 -0.6952 1.626)" width="2.83" height="59.901"/>
	</g>
</g>
<g>
	<ellipse transform="matrix(0.781 -0.6245 0.6245 0.781 -31.9434 149.2988)" cx="196.918" cy="120.198" rx="12.45" ry="8.737"/>
</g>
<g>
	<g>
		<rect x="18.98" y="59.157" transform="matrix(1 -0.0079 0.0079 1 -0.701 0.1633)" width="2.83" height="59.901"/>
	</g>
</g>
<g>
	<ellipse transform="matrix(0.781 -0.6245 0.6245 0.781 -72.6232 33.2858)" cx="11.152" cy="120.198" rx="12.45" ry="8.737"/>
</g>
<g>
	<g>
		<rect x="112.274" y="59.157" transform="matrix(1 -0.0079 0.0079 1 -0.6981 0.8979)" width="2.83" height="59.901"/>
	</g>
</g>
<g>
	<ellipse transform="matrix(0.781 -0.6245 0.6245 0.781 -52.1933 91.549)" cx="104.446" cy="120.198" rx="12.45" ry="8.737"/>
</g>
<g>
	<g>
		<rect x="65.627" y="59.157" transform="matrix(1 -0.0079 0.0079 1 -0.6995 0.5306)" width="2.83" height="59.901"/>
	</g>
</g>
<g>
	<ellipse transform="matrix(0.781 -0.6245 0.6245 0.781 -62.4083 62.4174)" cx="57.799" cy="120.198" rx="12.45" ry="8.737"/>
</g>
<g>
	<g>
		<rect x="158.51" y="59.157" transform="matrix(1 -0.0079 0.0079 1 -0.6967 1.262)" width="2.83" height="59.901"/>
	</g>
</g>
<g>
	<ellipse transform="matrix(0.781 -0.6245 0.6245 0.781 -42.0683 120.4239)" cx="150.682" cy="120.198" rx="12.45" ry="8.737"/>
</g>
<g>
	<g>
		<rect x="18.705" y="57.271" width="188.658" height="9.433"/>
	</g>
</g>
<polyline class="st0" points="20.436,29.008 20.436,10.008 53.436,10.008 "/>
<polyline class="st0" points="205.437,29.008 205.437,10.008 173.436,10.008 "/>
<g>
	<path d="M63.826,2.508l3.257-0.439l-1.562,7.348c0.704-0.059,1.354-0.366,1.947-0.924s1.06-1.247,1.396-2.068
		c0.338-0.821,0.506-1.628,0.506-2.42c0-0.88-0.228-1.599-0.682-2.156c-0.455-0.557-1.137-0.836-2.046-0.836
		c-1.789,0-3.187,0.47-4.191,1.408c-1.004,0.938-1.507,2.252-1.507,3.938c0,0.542,0.052,0.92,0.154,1.133s0.154,0.334,0.154,0.362
		c-0.792,0-1.383-0.164-1.771-0.494s-0.583-0.877-0.583-1.64c0-0.938,0.385-1.852,1.155-2.738c0.77-0.888,1.756-1.606,2.959-2.156
		C64.215,0.275,65.418,0,66.62,0c1.159,0,2.127,0.198,2.904,0.594c0.777,0.396,1.354,0.921,1.728,1.573s0.561,1.375,0.561,2.167
		c0,0.953-0.261,1.885-0.781,2.794s-1.265,1.654-2.232,2.233s-2.083,0.869-3.344,0.869h-0.11l-1.342,6.27h-3.168L63.826,2.508z"/>
	<path d="M71.989,15.785c-0.602-0.564-0.902-1.448-0.902-2.651c0-1.012,0.198-2.126,0.594-3.344c0.396-1.217,1.042-2.27,1.937-3.157
		c0.895-0.887,2.031-1.331,3.41-1.331c1.613,0,2.42,0.704,2.42,2.112c0,0.821-0.235,1.577-0.704,2.266
		c-0.47,0.689-1.093,1.243-1.87,1.661s-1.606,0.657-2.486,0.715c-0.029,0.44-0.044,0.734-0.044,0.88
		c0,0.719,0.125,1.207,0.374,1.464s0.652,0.385,1.21,0.385c0.792,0,1.471-0.184,2.035-0.55c0.564-0.367,1.185-0.925,1.859-1.673
		h0.748c-1.628,2.714-3.646,4.07-6.05,4.07C73.434,16.632,72.59,16.35,71.989,15.785z M76.114,10.428
		c0.491-0.352,0.887-0.799,1.188-1.342c0.301-0.542,0.451-1.114,0.451-1.716s-0.184-0.902-0.55-0.902
		c-0.528,0-1.045,0.462-1.551,1.386C75.147,8.778,74.783,9.827,74.564,11C75.106,10.971,75.622,10.78,76.114,10.428z"/>
	<path d="M81.317,5.5h3.168l-0.286,1.364c0.498-0.44,0.949-0.777,1.354-1.013C85.954,5.617,86.391,5.5,86.86,5.5
		c0.469,0,0.84,0.161,1.111,0.484c0.271,0.322,0.406,0.711,0.406,1.166c0,0.425-0.14,0.799-0.418,1.122
		c-0.278,0.322-0.667,0.483-1.166,0.483c-0.322,0-0.539-0.077-0.648-0.23c-0.11-0.154-0.194-0.378-0.253-0.672
		c-0.044-0.19-0.088-0.329-0.132-0.418c-0.044-0.088-0.125-0.132-0.242-0.132c-0.309,0-0.568,0.062-0.781,0.188
		S84.25,7.832,83.912,8.14l-1.76,8.36h-3.168L81.317,5.5z"/>
	<path d="M84.297,21.329c-0.521-0.447-0.781-1.016-0.781-1.705c0-0.631,0.162-1.151,0.484-1.562c0.322-0.41,0.74-0.736,1.254-0.979
		s1.195-0.495,2.046-0.759l2.662-12.562c0.293-1.408,0.811-2.383,1.551-2.926c0.74-0.542,1.559-0.813,2.453-0.813
		c0.689,0,1.294,0.224,1.815,0.671c0.52,0.447,0.78,1.016,0.78,1.705c0,0.337-0.021,0.638-0.065,0.901h-1.034
		c0.029-0.322,0.044-0.521,0.044-0.594c0-0.234-0.081-0.418-0.242-0.55s-0.359-0.198-0.594-0.198c-0.309,0-0.609,0.136-0.902,0.407
		s-0.506,0.736-0.638,1.396L92.756,5.5h1.605l-0.153,0.88H92.58l-2.53,11.88c-0.294,1.423-0.8,2.401-1.518,2.938
		C87.814,21.732,87.007,22,86.111,22C85.423,22,84.818,21.776,84.297,21.329z M86.86,18.326l0.286-1.276
		c-0.777,0.265-1.375,0.568-1.793,0.913s-0.627,0.796-0.627,1.354c0,0.176,0.088,0.341,0.265,0.494
		c0.176,0.154,0.381,0.231,0.615,0.231C86.193,20.042,86.61,19.47,86.86,18.326z"/>
	<path d="M94.604,15.752c-0.631-0.558-0.945-1.438-0.945-2.64c0-0.997,0.205-2.104,0.615-3.322c0.411-1.217,1.071-2.27,1.98-3.157
		c0.909-0.887,2.053-1.331,3.432-1.331c1.878,0,2.816,1.174,2.816,3.521v0.021c0.044,0.015,0.124,0.022,0.242,0.022
		c0.483,0,1.041-0.129,1.672-0.385c0.63-0.257,1.202-0.568,1.716-0.936l0.198,0.594c-0.426,0.455-0.979,0.84-1.661,1.155
		s-1.427,0.539-2.233,0.671c-0.117,1.335-0.418,2.501-0.901,3.498c-0.484,0.998-1.108,1.768-1.87,2.311
		c-0.763,0.542-1.592,0.813-2.486,0.813C96.092,16.588,95.235,16.31,94.604,15.752z M99.114,14.003
		c0.352-0.403,0.659-0.953,0.924-1.65c0.264-0.696,0.454-1.47,0.571-2.32c-0.396-0.088-0.594-0.396-0.594-0.924
		c0-0.602,0.228-0.998,0.683-1.188c-0.03-0.484-0.104-0.817-0.221-1.001s-0.322-0.275-0.615-0.275c-0.484,0-0.954,0.353-1.408,1.057
		c-0.455,0.704-0.822,1.548-1.101,2.53s-0.418,1.848-0.418,2.596c0,0.704,0.081,1.177,0.242,1.419s0.454,0.363,0.88,0.363
		C98.41,14.608,98.762,14.406,99.114,14.003z"/>
	<path d="M105.12,5.5h3.168l-0.286,1.364c0.498-0.44,0.949-0.777,1.354-1.013c0.402-0.234,0.839-0.352,1.309-0.352
		c0.469,0,0.84,0.161,1.111,0.484c0.271,0.322,0.406,0.711,0.406,1.166c0,0.425-0.14,0.799-0.418,1.122
		c-0.278,0.322-0.667,0.483-1.166,0.483c-0.322,0-0.539-0.077-0.648-0.23c-0.11-0.154-0.194-0.378-0.253-0.672
		c-0.044-0.19-0.088-0.329-0.132-0.418c-0.044-0.088-0.125-0.132-0.242-0.132c-0.309,0-0.568,0.062-0.781,0.188
		s-0.487,0.341-0.825,0.648l-1.76,8.36h-3.168L105.12,5.5z"/>
	<path d="M123.303,15.917c-0.418-0.477-0.627-1.067-0.627-1.771c0-0.309,0.036-0.656,0.109-1.046
		c0.073-0.388,0.15-0.766,0.231-1.133c0.08-0.366,0.136-0.601,0.165-0.704c0.117-0.513,0.228-1.019,0.33-1.518
		c0.103-0.498,0.153-0.902,0.153-1.21c0-0.748-0.264-1.122-0.792-1.122c-0.381,0-0.719,0.187-1.012,0.561s-0.527,0.862-0.704,1.464
		l-1.496,7.062h-3.168l1.606-7.59c0.044-0.176,0.065-0.359,0.065-0.55c0-0.646-0.22-0.969-0.659-0.969
		c-0.411,0-0.767,0.188-1.067,0.562s-0.539,0.869-0.715,1.485l-1.496,7.062h-3.168l2.332-11h3.168l-0.242,1.144
		c0.748-0.836,1.643-1.254,2.685-1.254c1.29,0,2.046,0.631,2.266,1.893c0.807-1.247,1.826-1.87,3.058-1.87
		c0.748,0,1.343,0.205,1.782,0.616c0.44,0.41,0.66,1.033,0.66,1.87c0,0.425-0.052,0.898-0.154,1.419s-0.249,1.154-0.439,1.902
		c-0.118,0.455-0.224,0.898-0.319,1.331s-0.143,0.774-0.143,1.023c0,0.293,0.065,0.521,0.197,0.682
		c0.133,0.162,0.359,0.242,0.683,0.242c0.439,0,0.792-0.157,1.056-0.473s0.528-0.804,0.792-1.464h0.924
		c-0.543,1.614-1.17,2.695-1.881,3.245c-0.712,0.551-1.448,0.825-2.211,0.825C124.377,16.632,123.721,16.394,123.303,15.917z"/>
	<path d="M128.989,15.774c-0.557-0.572-0.836-1.467-0.836-2.685c0-1.085,0.217-2.226,0.649-3.421s1.078-2.207,1.936-3.036
		c0.858-0.828,1.881-1.243,3.069-1.243c0.601,0,1.048,0.104,1.342,0.309c0.293,0.205,0.44,0.477,0.44,0.813v0.154l0.241-1.166h3.168
		l-1.584,7.48c-0.059,0.22-0.088,0.454-0.088,0.703c0,0.631,0.301,0.946,0.902,0.946c0.41,0,0.767-0.19,1.067-0.572
		c0.3-0.381,0.539-0.88,0.715-1.496h0.924c-0.543,1.585-1.214,2.659-2.013,3.224c-0.8,0.564-1.603,0.847-2.409,0.847
		c-0.616,0-1.111-0.172-1.485-0.517s-0.598-0.848-0.671-1.507c-0.426,0.602-0.898,1.089-1.419,1.463s-1.141,0.561-1.859,0.561
		C130.243,16.632,129.547,16.346,128.989,15.774z M133.599,13.981c0.359-0.345,0.604-0.818,0.737-1.42l1.056-4.972
		c0-0.19-0.073-0.377-0.22-0.561c-0.147-0.184-0.374-0.275-0.683-0.275c-0.587,0-1.114,0.341-1.584,1.023
		c-0.47,0.682-0.836,1.503-1.1,2.464c-0.265,0.961-0.396,1.808-0.396,2.541s0.106,1.202,0.319,1.408
		c0.212,0.205,0.473,0.308,0.781,0.308C132.876,14.498,133.239,14.326,133.599,13.981z"/>
	<path d="M145.985,15.917c-0.418-0.477-0.627-1.067-0.627-1.771c0-0.309,0.037-0.656,0.11-1.046c0.073-0.388,0.15-0.766,0.23-1.133
		c0.081-0.366,0.136-0.601,0.165-0.704c0.117-0.513,0.228-1.019,0.33-1.518c0.103-0.498,0.154-0.902,0.154-1.21
		c0-0.748-0.264-1.122-0.792-1.122c-0.382,0-0.719,0.187-1.012,0.561c-0.294,0.374-0.528,0.862-0.704,1.464l-1.496,7.062h-3.168
		l2.332-11h3.168l-0.242,1.144c0.733-0.82,1.592-1.231,2.574-1.231c0.748,0,1.342,0.205,1.782,0.616
		c0.439,0.41,0.66,1.033,0.66,1.87c0,0.425-0.052,0.898-0.154,1.419s-0.25,1.154-0.44,1.902c-0.117,0.455-0.224,0.898-0.318,1.331
		c-0.096,0.433-0.144,0.774-0.144,1.023c0,0.293,0.066,0.521,0.198,0.682c0.132,0.162,0.359,0.242,0.682,0.242
		c0.44,0,0.792-0.157,1.057-0.473c0.264-0.315,0.527-0.804,0.792-1.464h0.924c-0.543,1.614-1.17,2.695-1.881,3.245
		c-0.712,0.551-1.449,0.825-2.211,0.825C147.059,16.632,146.402,16.394,145.985,15.917z"/>
	<path d="M151.737,15.785c-0.602-0.564-0.902-1.448-0.902-2.651c0-1.012,0.202-2.126,0.605-3.344
		c0.403-1.217,1.048-2.27,1.936-3.157c0.888-0.887,2.013-1.331,3.377-1.331c0.88,0,1.507,0.191,1.881,0.572
		c0.374,0.382,0.562,0.865,0.562,1.452c0,0.514-0.11,0.909-0.33,1.188c-0.22,0.279-0.499,0.418-0.836,0.418
		c-0.25,0-0.506-0.088-0.771-0.264c0.177-0.484,0.265-0.916,0.265-1.298c0-0.278-0.052-0.499-0.154-0.66s-0.257-0.242-0.462-0.242
		c-0.44,0-0.88,0.359-1.32,1.078c-0.439,0.719-0.8,1.592-1.078,2.618s-0.418,1.951-0.418,2.771c0,0.719,0.125,1.207,0.374,1.464
		s0.652,0.385,1.21,0.385c0.792,0,1.471-0.184,2.035-0.55c0.564-0.367,1.185-0.925,1.859-1.673h0.748
		c-1.628,2.714-3.646,4.07-6.05,4.07C153.182,16.632,152.338,16.35,151.737,15.785z"/>
	<path d="M160.163,15.785c-0.601-0.564-0.901-1.448-0.901-2.651c0-1.012,0.197-2.126,0.594-3.344
		c0.396-1.217,1.041-2.27,1.936-3.157c0.895-0.887,2.031-1.331,3.41-1.331c1.613,0,2.42,0.704,2.42,2.112
		c0,0.821-0.234,1.577-0.704,2.266c-0.469,0.689-1.093,1.243-1.87,1.661s-1.605,0.657-2.485,0.715
		c-0.029,0.323-0.044,0.543-0.044,0.66c0,1.218,0.454,1.826,1.363,1.826c0.411,0,0.851-0.11,1.32-0.33s0.895-0.498,1.276-0.836
		c-0.396,2.171-1.665,3.256-3.807,3.256C161.601,16.632,160.765,16.35,160.163,15.785z M164.288,10.45
		c0.491-0.353,0.888-0.803,1.188-1.354c0.3-0.55,0.451-1.125,0.451-1.727s-0.184-0.902-0.551-0.902
		c-0.513,0-1.022,0.466-1.528,1.397s-0.884,1.977-1.133,3.135C163.273,10.985,163.797,10.802,164.288,10.45z"/>
</g>
</svg>