<!-- Generator: Adobe Illustrator 21.1.0, SVG Export Plug-In  -->
<svg version="1.1"
	 xmlns="http://www.w3.org/2000/svg" xmlns:xlink="http://www.w3.org/1999/xlink" xmlns:a="http://ns.adobe.com/AdobeSVGViewerExtensions/3.0/"
	 x="0px" y="0px" width="208.069px" height="121.768px" viewBox="0 0 208.069 121.768"
	 style="enable-background:new 0 0 208.069 121.768;" xml:space="preserve">
<style type="text/css">
	.st0{fill:none;stroke:#000000;stroke-miterlimit:10;}
</style>
<defs>
</defs>
<g>
	<g>
		<rect x="204.746" y="1.886" transform="matrix(1 -0.0079 0.0079 1 -0.2443 1.6242)" width="2.83" height="59.901"/>
	</g>
</g>
<g>
	<ellipse transform="matrix(0.781 -0.6245 0.6245 0.781 3.8233 136.7573)" cx="196.918" cy="62.927" rx="12.45" ry="8.737"/>
</g>
<g>
	<g>
		<rect x="18.98" y="1.886" transform="matrix(1 -0.0079 0.0079 1 -0.25 0.1616)" width="2.83" height="59.901"/>
	</g>
</g>
<g>
	<ellipse transform="matrix(0.781 -0.6245 0.6245 0.781 -36.8566 20.7443)" cx="11.152" cy="62.927" rx="12.45" ry="8.737"/>
</g>
<g>
	<g>
		<rect x="112.274" y="1.886" transform="matrix(1 -0.0079 0.0079 1 -0.2471 0.8961)" width="2.83" height="59.901"/>
	</g>
</g>
<g>
	<ellipse transform="matrix(0.781 -0.6245 0.6245 0.781 -16.4266 79.0074)" cx="104.446" cy="62.927" rx="12.45" ry="8.737"/>
</g>
<g>
	<g>
		<rect x="65.627" y="1.886" transform="matrix(1 -0.0079 0.0079 1 -0.2486 0.5289)" width="2.83" height="59.901"/>
	</g>
</g>
<g>
	<ellipse transform="matrix(0.781 -0.6245 0.6245 0.781 -26.6416 49.8759)" cx="57.799" cy="62.927" rx="12.45" ry="8.737"/>
</g>
<g>
	<g>
		<rect x="158.51" y="1.886" transform="matrix(1 -0.0079 0.0079 1 -0.2457 1.2602)" width="2.83" height="59.901"/>
	</g>
</g>
<g>
	<ellipse transform="matrix(0.781 -0.6245 0.6245 0.781 -6.3017 107.8824)" cx="150.682" cy="62.927" rx="12.45" ry="8.737"/>
</g>
<g>
	<g>
		<rect x="18.705" width="188.658" height="9.433"/>
	</g>
</g>
<polyline class="st0" points="11.436,99.736 11.436,118.736 44.436,118.736 "/>
<polyline class="st0" points="196.436,99.736 196.436,118.736 163.436,118.736 "/>
<g>
	<path d="M70.065,106.676c-0.983,0.411-1.742,1.026-2.277,1.848c-0.535,0.822-0.803,1.812-0.803,2.971
		c0,0.542,0.051,0.92,0.153,1.133s0.154,0.334,0.154,0.362c-0.792,0-1.383-0.164-1.771-0.494c-0.39-0.33-0.584-0.877-0.584-1.64
		c0-0.938,0.385-1.852,1.155-2.738c0.771-0.888,1.757-1.606,2.959-2.156s2.405-0.825,3.608-0.825c0.205,0,0.498,0.015,0.88,0.044
		l-1.408,6.556h3.233l1.408-6.556h3.168l-3.498,16.456h-3.168l1.76-8.272h-3.233l-1.76,8.272h-3.168L70.065,106.676z"/>
	<path d="M79.777,121.107c-0.434-0.439-0.649-1.1-0.649-1.979c0-0.366,0.059-0.844,0.176-1.431l1.496-7.062h3.168l-1.584,7.48
		c-0.06,0.22-0.088,0.454-0.088,0.703c0,0.294,0.069,0.503,0.209,0.627c0.14,0.125,0.37,0.188,0.692,0.188
		c0.426,0,0.822-0.18,1.188-0.539s0.63-0.825,0.792-1.397h0.924c-0.543,1.585-1.239,2.659-2.09,3.224s-1.693,0.847-2.529,0.847
		C80.777,121.768,80.209,121.548,79.777,121.107z M81.746,108.941c-0.338-0.337-0.506-0.748-0.506-1.231
		c0-0.484,0.168-0.898,0.506-1.243c0.337-0.345,0.748-0.517,1.231-0.517c0.484,0,0.898,0.172,1.243,0.517
		c0.344,0.345,0.518,0.759,0.518,1.243c0,0.483-0.174,0.895-0.518,1.231c-0.345,0.338-0.759,0.506-1.243,0.506
		C82.494,109.447,82.083,109.279,81.746,108.941z"/>
	<path d="M85.651,121.107c-0.433-0.439-0.648-1.1-0.648-1.979c0-0.366,0.059-0.844,0.176-1.431l2.354-11.021l3.256-0.44
		l-2.529,11.881c-0.059,0.22-0.088,0.454-0.088,0.703c0,0.294,0.069,0.503,0.209,0.627c0.139,0.125,0.37,0.188,0.693,0.188
		c0.425,0,0.82-0.18,1.188-0.539c0.366-0.359,0.631-0.825,0.792-1.397h0.924c-0.542,1.585-1.239,2.659-2.09,3.224
		s-1.694,0.847-2.53,0.847C86.652,121.768,86.083,121.548,85.651,121.107z"/>
	<path d="M91.602,120.91c-0.557-0.572-0.836-1.467-0.836-2.685c0-1.085,0.217-2.226,0.648-3.421
		c0.434-1.195,1.078-2.207,1.937-3.036c0.858-0.828,1.882-1.243,3.069-1.243c0.602,0,1.049,0.104,1.342,0.309
		s0.439,0.477,0.439,0.813v0.154l0.242-1.166h3.168l-1.584,7.48c-0.059,0.22-0.088,0.454-0.088,0.703
		c0,0.631,0.301,0.946,0.902,0.946c0.41,0,0.766-0.19,1.066-0.572c0.301-0.381,0.539-0.88,0.715-1.496h0.925
		c-0.543,1.585-1.214,2.659-2.013,3.224c-0.8,0.564-1.604,0.847-2.409,0.847c-0.616,0-1.111-0.172-1.485-0.517
		s-0.598-0.848-0.671-1.507c-0.425,0.602-0.898,1.089-1.419,1.463c-0.521,0.374-1.141,0.561-1.859,0.561
		C92.856,121.768,92.159,121.482,91.602,120.91z M96.211,119.117c0.359-0.345,0.605-0.818,0.736-1.42l1.057-4.972
		c0-0.19-0.074-0.377-0.221-0.561s-0.373-0.275-0.682-0.275c-0.586,0-1.115,0.341-1.584,1.023c-0.469,0.682-0.836,1.503-1.1,2.464
		s-0.396,1.808-0.396,2.541s0.106,1.202,0.319,1.408c0.212,0.205,0.474,0.308,0.78,0.308
		C95.488,119.634,95.852,119.462,96.211,119.117z"/>
	<path d="M104.119,110.636h3.168L107.001,112c0.499-0.44,0.95-0.777,1.353-1.013c0.404-0.234,0.84-0.352,1.31-0.352
		s0.839,0.161,1.11,0.484c0.271,0.322,0.408,0.711,0.408,1.166c0,0.425-0.141,0.799-0.418,1.122
		c-0.279,0.322-0.668,0.483-1.166,0.483c-0.323,0-0.539-0.077-0.649-0.23c-0.11-0.154-0.194-0.378-0.253-0.672
		c-0.045-0.19-0.088-0.329-0.133-0.418c-0.043-0.088-0.124-0.132-0.241-0.132c-0.308,0-0.569,0.062-0.781,0.188
		c-0.213,0.125-0.487,0.341-0.825,0.648l-1.76,8.36h-3.168L104.119,110.636z"/>
	<path d="M111.368,121.107c-0.433-0.439-0.649-1.1-0.649-1.979c0-0.366,0.059-0.844,0.176-1.431l1.496-7.062h3.168l-1.584,7.48
		c-0.059,0.22-0.088,0.454-0.088,0.703c0,0.294,0.07,0.503,0.209,0.627c0.14,0.125,0.371,0.188,0.693,0.188
		c0.426,0,0.821-0.18,1.188-0.539c0.367-0.359,0.631-0.825,0.793-1.397h0.924c-0.543,1.585-1.24,2.659-2.09,3.224
		c-0.852,0.564-1.694,0.847-2.53,0.847C112.369,121.768,111.801,121.548,111.368,121.107z M113.337,108.941
		c-0.337-0.337-0.506-0.748-0.506-1.231c0-0.484,0.169-0.898,0.506-1.243s0.748-0.517,1.231-0.517c0.484,0,0.898,0.172,1.244,0.517
		c0.344,0.345,0.517,0.759,0.517,1.243c0,0.483-0.173,0.895-0.517,1.231c-0.346,0.338-0.76,0.506-1.244,0.506
		C114.085,109.447,113.674,109.279,113.337,108.941z"/>
	<path d="M117.407,120.888c-0.631-0.558-0.946-1.438-0.946-2.64c0-0.997,0.205-2.104,0.616-3.322c0.41-1.217,1.07-2.27,1.979-3.157
		c0.91-0.887,2.054-1.331,3.433-1.331c1.877,0,2.815,1.174,2.815,3.521v0.021c0.045,0.015,0.125,0.022,0.242,0.022
		c0.484,0,1.041-0.129,1.672-0.385c0.631-0.257,1.203-0.568,1.717-0.936l0.197,0.594c-0.426,0.455-0.979,0.84-1.66,1.155
		c-0.683,0.315-1.428,0.539-2.233,0.671c-0.118,1.335-0.419,2.501-0.902,3.498c-0.483,0.998-1.107,1.768-1.87,2.311
		c-0.763,0.542-1.592,0.813-2.486,0.813C118.896,121.724,118.037,121.445,117.407,120.888z M121.917,119.139
		c0.353-0.403,0.66-0.953,0.924-1.65c0.265-0.696,0.454-1.47,0.572-2.32c-0.396-0.088-0.595-0.396-0.595-0.924
		c0-0.602,0.229-0.998,0.683-1.188c-0.029-0.484-0.103-0.817-0.22-1.001s-0.322-0.275-0.616-0.275c-0.483,0-0.954,0.353-1.408,1.057
		s-0.821,1.548-1.1,2.53s-0.418,1.848-0.418,2.596c0,0.704,0.08,1.177,0.241,1.419c0.162,0.242,0.455,0.363,0.881,0.363
		C121.213,119.744,121.565,119.542,121.917,119.139z"/>
	<path d="M126.901,121.107c-0.434-0.439-0.649-1.1-0.649-1.979c0-0.366,0.059-0.844,0.176-1.431l1.496-7.062h3.168l-1.584,7.48
		c-0.044,0.22-0.065,0.425-0.065,0.615c0,0.602,0.219,0.902,0.659,0.902c0.411,0,0.763-0.172,1.056-0.517
		c0.294-0.345,0.528-0.818,0.705-1.42l1.496-7.062h3.168l-1.584,7.48c-0.06,0.22-0.089,0.454-0.089,0.703
		c0,0.294,0.069,0.503,0.209,0.627c0.14,0.125,0.37,0.188,0.693,0.188c0.41,0,0.767-0.176,1.067-0.528
		c0.3-0.352,0.539-0.821,0.715-1.408h0.924c-0.543,1.585-1.214,2.659-2.014,3.224c-0.799,0.564-1.602,0.847-2.408,0.847
		c-0.631,0-1.133-0.176-1.508-0.528c-0.373-0.352-0.598-0.872-0.67-1.562c-0.5,0.807-1.023,1.356-1.574,1.65
		c-0.549,0.293-1.11,0.439-1.682,0.439C127.901,121.768,127.332,121.548,126.901,121.107z"/>
	<path d="M138.263,121.36c-0.483-0.271-0.843-0.623-1.078-1.056c-0.234-0.433-0.353-0.884-0.353-1.353
		c0-0.484,0.114-0.906,0.342-1.266s0.502-0.619,0.824-0.781c0.572-1.026,1.07-2.063,1.496-3.112s0.829-2.182,1.211-3.399
		l3.256-0.439c0.072,1.877,0.197,3.908,0.373,6.094c0.074,0.88,0.111,1.518,0.111,1.914c0,0.895-0.229,1.628-0.683,2.2
		c-0.455,0.571-1.016,0.982-1.683,1.231c-0.668,0.249-1.346,0.374-2.035,0.374C139.341,121.768,138.746,121.632,138.263,121.36z
		 M140.705,119.546c0.366-0.322,0.549-0.844,0.549-1.562c0-0.439-0.043-1.056-0.131-1.848c-0.146-1.672-0.242-2.794-0.287-3.366
		c-0.352,1.159-0.945,2.545-1.781,4.158c0.337,0.176,0.506,0.433,0.506,0.77c0,0.279-0.092,0.528-0.275,0.748
		c-0.184,0.221-0.414,0.33-0.692,0.33c-0.308,0-0.507-0.095-0.595-0.286c0,0.528,0.107,0.917,0.319,1.166
		c0.213,0.25,0.554,0.374,1.023,0.374C139.883,120.029,140.338,119.868,140.705,119.546z"/>
</g>
</svg>