<!-- Generator: Adobe Illustrator 21.1.0, SVG Export Plug-In  -->
<svg version="1.1"
	 xmlns="http://www.w3.org/2000/svg" xmlns:xlink="http://www.w3.org/1999/xlink" xmlns:a="http://ns.adobe.com/AdobeSVGViewerExtensions/3.0/"
	 x="0px" y="0px" width="38.164px" height="55.589px" viewBox="0 0 38.164 55.589"
	 style="enable-background:new 0 0 38.164 55.589;" xml:space="preserve">
<style type="text/css">
	.st0{fill:#FFFFFF;}
</style>
<defs>
</defs>
<g>
	<path class="st0" d="M0,48.101l5.905-8.064c3.24,3.096,6.984,5.185,11.161,5.185c4.969,0,8.209-2.089,8.209-6.121
		c0-4.608-2.448-7.345-13.681-7.345v-9.001c9.145,0,12.025-2.808,12.025-7.057c0-3.672-2.16-5.688-6.121-5.688
		c-3.6,0-6.336,1.656-9.577,4.465L1.44,6.625C6.409,2.448,11.737,0,18.074,0c11.089,0,18.361,5.185,18.361,14.762
		c0,5.328-2.88,9.505-8.641,11.809v0.36c5.977,1.8,10.369,6.12,10.369,13.033c0,10.009-9.145,15.625-19.802,15.625
		C9.865,55.589,3.889,52.637,0,48.101z"/>
</g>
</svg>