<!-- Generator: Adobe Illustrator 21.1.0, SVG Export Plug-In  -->
<svg version="1.1"
	 xmlns="http://www.w3.org/2000/svg" xmlns:xlink="http://www.w3.org/1999/xlink" xmlns:a="http://ns.adobe.com/AdobeSVGViewerExtensions/3.0/"
	 x="0px" y="0px" width="89.283px" height="126.231px" viewBox="0 0 89.283 126.231"
	 style="enable-background:new 0 0 89.283 126.231;" xml:space="preserve">
<defs>
</defs>
<g>
	<path d="M5.228,6.46C5.315,6.114,5.4,5.732,5.482,5.313s0.155-0.841,0.22-1.266S5.819,3.214,5.86,2.821s0.067-0.735,0.079-1.028
		c-0.211,0-0.444,0.002-0.698,0.005C4.985,1.801,4.732,1.804,4.48,1.806C4.229,1.81,3.983,1.815,3.747,1.823
		c-0.238,0.01-0.444,0.02-0.62,0.031C3.045,1.86,2.939,1.869,2.811,1.881s-0.266,0.025-0.409,0.04S2.112,1.954,1.962,1.978
		c-0.148,0.023-0.288,0.047-0.417,0.07c-0.07-0.141-0.143-0.281-0.216-0.421s-0.145-0.28-0.215-0.423
		c0.111,0.012,0.238,0.023,0.383,0.035C1.64,1.251,1.785,1.263,1.932,1.274s0.286,0.022,0.417,0.031
		c0.133,0.009,0.245,0.014,0.339,0.014c0.316,0,0.662-0.006,1.037-0.019C4.1,1.289,4.478,1.274,4.858,1.257s0.747-0.041,1.099-0.07
		S6.616,1.125,6.88,1.09C6.927,1.137,6.972,1.184,7.017,1.23C7.06,1.277,7.105,1.324,7.152,1.371C7.1,1.747,7.032,2.161,6.95,2.612
		C6.868,3.064,6.775,3.52,6.673,3.978s-0.211,0.9-0.324,1.329C6.233,5.735,6.121,6.111,6.01,6.434
		c0.193-0.006,0.392-0.016,0.593-0.03c0.203-0.015,0.403-0.032,0.603-0.053s0.39-0.043,0.571-0.066s0.352-0.047,0.51-0.07
		C8.269,6.349,8.251,6.486,8.233,6.627S8.195,6.905,8.172,7.04C8.055,7.034,7.914,7.03,7.75,7.026
		C7.586,7.024,7.41,7.02,7.223,7.014s-0.382-0.01-0.585-0.013C6.437,6.998,6.238,6.996,6.045,6.996c-0.615,0-1.208,0.008-1.78,0.022
		c-0.57,0.015-1.102,0.035-1.59,0.061C2.185,7.106,1.75,7.134,1.369,7.163S0.684,7.222,0.455,7.251
		C0.402,7.104,0.35,6.961,0.297,6.82S0.191,6.533,0.139,6.381c0.17,0.018,0.353,0.034,0.55,0.048
		c0.195,0.016,0.392,0.03,0.588,0.045s0.387,0.025,0.572,0.035c0.184,0.008,0.35,0.013,0.496,0.013c0.199,0,0.42-0.003,0.664-0.009
		C3.251,6.507,3.502,6.501,3.76,6.495s0.515-0.012,0.769-0.018C4.784,6.472,5.017,6.466,5.228,6.46z"/>
	<path d="M11.749,2.109c-0.094,0-0.176,0-0.246,0s-0.14,0.002-0.206,0.005c-0.068,0.003-0.14,0.008-0.216,0.018
		c-0.076,0.008-0.167,0.019-0.272,0.03c-0.047,0.006-0.122,0.013-0.225,0.022C10.481,2.192,10.37,2.205,10.25,2.22
		s-0.243,0.03-0.369,0.048S9.643,2.303,9.543,2.32L9.095,1.494c0.064,0.012,0.159,0.026,0.286,0.044
		c0.125,0.018,0.257,0.034,0.395,0.049s0.27,0.025,0.396,0.035c0.125,0.008,0.224,0.013,0.294,0.013
		c0.299,0,0.663-0.009,1.095-0.026c0.43-0.018,0.874-0.05,1.331-0.097c-0.012,0.035-0.025,0.087-0.04,0.153
		c-0.015,0.068-0.03,0.139-0.048,0.211c-0.018,0.074-0.032,0.143-0.044,0.207s-0.021,0.111-0.026,0.141l-0.132,1.169
		c0.047-0.012,0.089-0.019,0.127-0.022c0.038-0.002,0.087-0.007,0.146-0.013l-0.079,0.677c-0.445-0.041-0.84-0.053-1.182-0.035
		c-0.344,0.018-0.652,0.035-0.928,0.053c0,0.047-0.003,0.087-0.009,0.119s-0.009,0.071-0.009,0.118v1.116
		c0,0.082,0.01,0.143,0.031,0.18c0.02,0.039,0.042,0.058,0.065,0.058c0.346-0.023,0.736-0.089,1.173-0.198
		c0.437-0.107,0.898-0.229,1.385-0.364V1.45c0-0.082-0.011-0.155-0.031-0.22S13.23,1.106,13.168,1.05
		c-0.061-0.055-0.15-0.106-0.268-0.153s-0.27-0.094-0.457-0.141l0.176-0.378c0.146,0.018,0.302,0.039,0.466,0.066
		C13.249,0.47,13.41,0.5,13.568,0.532s0.309,0.064,0.453,0.096c0.143,0.033,0.271,0.063,0.382,0.093
		c-0.006,0.053-0.015,0.122-0.026,0.206c-0.012,0.086-0.021,0.171-0.031,0.256c-0.008,0.085-0.016,0.159-0.021,0.224
		s-0.009,0.1-0.009,0.105v2.18c0.105-0.012,0.229-0.022,0.374-0.03c0.143-0.01,0.265-0.02,0.364-0.031V1.116
		c0-0.17-0.069-0.311-0.206-0.422c-0.139-0.111-0.397-0.214-0.778-0.308L14.236,0c0.141,0.018,0.297,0.043,0.471,0.075
		c0.172,0.032,0.345,0.064,0.518,0.096c0.173,0.033,0.339,0.065,0.497,0.098s0.293,0.06,0.404,0.083
		c-0.012,0.053-0.022,0.123-0.03,0.211c-0.01,0.088-0.018,0.173-0.027,0.255c-0.008,0.082-0.016,0.157-0.021,0.225
		s-0.009,0.104-0.009,0.109v4.825c0,0.182-0.005,0.389-0.013,0.62c-0.01,0.231-0.021,0.465-0.035,0.703
		c-0.016,0.236-0.033,0.464-0.053,0.681c-0.021,0.217-0.04,0.398-0.058,0.545l-0.773,0.105c-0.006-0.111-0.012-0.248-0.018-0.409
		s-0.012-0.334-0.018-0.518c-0.006-0.186-0.011-0.371-0.013-0.559c-0.004-0.188-0.005-0.366-0.005-0.536V4.219
		c-0.1,0.006-0.223,0.009-0.369,0.009s-0.27,0.003-0.369,0.009V5.66c0,0.182-0.005,0.39-0.013,0.624
		c-0.01,0.234-0.021,0.471-0.035,0.707c-0.016,0.238-0.033,0.465-0.053,0.682c-0.021,0.217-0.043,0.398-0.066,0.545l-0.747,0.097
		c-0.012-0.111-0.022-0.248-0.03-0.409c-0.01-0.161-0.017-0.332-0.022-0.514s-0.012-0.366-0.018-0.554s-0.009-0.366-0.009-0.536
		V5.537c-0.469,0.17-0.917,0.324-1.345,0.462s-0.87,0.238-1.327,0.303c-0.375,0.053-0.632,0.006-0.77-0.141
		c-0.138-0.146-0.206-0.359-0.206-0.64V4.418c0-0.105-0.006-0.189-0.018-0.254S9.619,4.046,9.578,4.002S9.474,3.919,9.389,3.884
		S9.191,3.811,9.051,3.77l0.185-0.333c0.422,0.029,0.839,0.047,1.253,0.053c0.412,0.006,0.81-0.003,1.19-0.026L11.749,2.109z"/>
	<path d="M22.032,6.609c0.211-0.012,0.402-0.021,0.576-0.026c0.172-0.006,0.314-0.012,0.426-0.018
		c0.193-0.006,0.396-0.018,0.606-0.035s0.42-0.036,0.628-0.057s0.409-0.043,0.603-0.066s0.369-0.044,0.527-0.062l-0.123,0.817
		c-0.117-0.006-0.257-0.012-0.417-0.018c-0.162-0.006-0.338-0.01-0.527-0.014c-0.191-0.002-0.387-0.005-0.59-0.008
		c-0.201-0.003-0.399-0.005-0.593-0.005c-0.158,0-0.354,0.002-0.585,0.005s-0.48,0.008-0.746,0.018
		c-0.268,0.008-0.541,0.018-0.822,0.025c-0.281,0.01-0.548,0.018-0.8,0.027c-0.252,0.008-0.48,0.019-0.686,0.03
		s-0.363,0.021-0.475,0.026c-0.223,0.012-0.469,0.031-0.738,0.057c-0.27,0.027-0.513,0.058-0.729,0.093l-0.325-0.905
		c0.129,0.018,0.269,0.034,0.417,0.049c0.15,0.015,0.304,0.027,0.462,0.039s0.314,0.021,0.47,0.031
		c0.155,0.008,0.301,0.016,0.436,0.021c0.105,0.006,0.232,0.009,0.383,0.009c0.148,0,0.312,0,0.487,0s0.36-0.001,0.554-0.004
		s0.39-0.008,0.589-0.014V4.649c-0.322,0.006-0.62,0.012-0.892,0.018c-0.273,0.006-0.512,0.015-0.717,0.026
		c-0.229,0.018-0.4-0.036-0.514-0.163c-0.115-0.125-0.172-0.273-0.172-0.443V2.109c0-0.111-0.008-0.205-0.021-0.281
		c-0.016-0.076-0.049-0.141-0.102-0.193s-0.129-0.098-0.229-0.136S18.156,1.421,17.98,1.38l0.193-0.378
		c0.252,0.041,0.55,0.072,0.892,0.093c0.344,0.021,0.705,0.032,1.086,0.035s0.77,0,1.164-0.01c0.396-0.008,0.772-0.021,1.13-0.039
		s0.681-0.038,0.972-0.062c0.289-0.023,0.522-0.05,0.698-0.079l-0.158,0.773c-0.352-0.018-0.72-0.031-1.103-0.039
		c-0.385-0.01-0.764-0.014-1.139-0.014s-0.734,0.004-1.076,0.014c-0.344,0.008-0.644,0.021-0.901,0.039V3.92c0,0.047,0,0.083,0,0.11
		c0,0.025,0.007,0.047,0.022,0.061c0.014,0.016,0.036,0.024,0.065,0.027s0.073,0.004,0.132,0.004
		c0.217,0.006,0.506,0.003,0.865-0.009c0.361-0.012,0.743-0.029,1.147-0.053s0.801-0.053,1.19-0.088s0.723-0.07,0.998-0.105
		l-0.141,0.8c-0.293-0.012-0.609-0.021-0.949-0.026s-0.686-0.006-1.037,0V6.609z"/>
	<path d="M32.772,0.923c0.064,0.047,0.13,0.088,0.197,0.123s0.137,0.076,0.207,0.123c-0.176,0.451-0.413,0.882-0.712,1.292
		s-0.642,0.793-1.028,1.147s-0.809,0.676-1.266,0.967c-0.457,0.289-0.929,0.54-1.415,0.751c-0.041-0.053-0.081-0.108-0.118-0.167
		c-0.039-0.059-0.078-0.114-0.119-0.167c0.369-0.188,0.727-0.409,1.072-0.663c0.346-0.256,0.666-0.529,0.963-0.822
		c0.295-0.293,0.556-0.599,0.781-0.918s0.4-0.641,0.523-0.963c-0.264,0-0.51,0.006-0.738,0.018s-0.401,0.023-0.519,0.035
		c-0.047,0.006-0.122,0.014-0.224,0.021c-0.104,0.01-0.216,0.021-0.339,0.035c-0.123,0.016-0.249,0.033-0.378,0.053
		c-0.129,0.021-0.243,0.043-0.343,0.066c-0.1-0.135-0.195-0.271-0.286-0.408s-0.183-0.274-0.276-0.409
		c0.064,0.012,0.163,0.023,0.294,0.035c0.133,0.012,0.274,0.022,0.427,0.03c0.152,0.01,0.302,0.017,0.448,0.022
		s0.27,0.009,0.369,0.009c0.24,0,0.483-0.006,0.729-0.018s0.481-0.027,0.708-0.049c0.225-0.02,0.429-0.042,0.61-0.065
		S32.667,0.952,32.772,0.923z M33.985,6.258c0.006-0.146,0.007-0.296,0.004-0.448s-0.001-0.305,0.005-0.457
		c-0.064-0.006-0.129-0.009-0.193-0.009s-0.132,0-0.202,0c-0.135,0-0.277,0.002-0.426,0.005c-0.15,0.003-0.299,0.008-0.449,0.018
		c-0.148,0.008-0.293,0.018-0.43,0.025c-0.139,0.01-0.263,0.017-0.374,0.022c-0.064,0.006-0.152,0.013-0.264,0.022
		c-0.111,0.008-0.23,0.021-0.356,0.035s-0.256,0.032-0.391,0.053s-0.255,0.039-0.36,0.057c-0.082-0.135-0.16-0.271-0.233-0.408
		s-0.15-0.274-0.232-0.409c0.111,0.018,0.256,0.034,0.436,0.048c0.178,0.016,0.355,0.03,0.531,0.045s0.335,0.025,0.479,0.035
		c0.144,0.008,0.236,0.013,0.277,0.013c0.229,0,0.484-0.001,0.77-0.005c0.283-0.002,0.573-0.01,0.869-0.021s0.591-0.024,0.884-0.039
		s0.562-0.037,0.809-0.066c-0.023,0.117-0.041,0.214-0.053,0.29s-0.023,0.153-0.035,0.233c-0.012,0.078-0.021,0.145-0.026,0.197
		c-0.012,0.111-0.028,0.225-0.049,0.338c-0.021,0.115-0.036,0.228-0.048,0.339c0.029-0.006,0.06-0.007,0.093-0.005
		c0.031,0.004,0.062,0.002,0.092-0.004c-0.012,0.111-0.025,0.22-0.039,0.325c-0.016,0.105-0.028,0.214-0.04,0.325
		c-0.486-0.018-0.976-0.026-1.468-0.026c-0.404,0-0.773,0.003-1.107,0.009s-0.595,0.015-0.782,0.026c0,0.047-0.003,0.09-0.009,0.128
		s-0.009,0.08-0.009,0.127v0.562c0,0.1,0.027,0.152,0.083,0.158s0.146,0.009,0.269,0.009c0.234,0,0.508-0.008,0.821-0.022
		s0.633-0.035,0.959-0.061c0.324-0.027,0.641-0.057,0.949-0.088c0.307-0.033,0.572-0.069,0.795-0.11
		c-0.029,0.135-0.059,0.27-0.088,0.404s-0.059,0.27-0.088,0.404c-0.223-0.006-0.457-0.011-0.703-0.013
		c-0.246-0.004-0.501-0.005-0.765-0.005c-0.492,0-0.973,0.009-1.441,0.026s-0.867,0.026-1.195,0.026
		c-0.211,0-0.362-0.05-0.452-0.149c-0.092-0.1-0.137-0.229-0.137-0.387V7.198c0-0.105-0.008-0.19-0.021-0.255
		c-0.016-0.064-0.046-0.12-0.093-0.167s-0.111-0.088-0.193-0.123s-0.19-0.076-0.325-0.123c0.029-0.053,0.059-0.105,0.088-0.158
		s0.059-0.105,0.088-0.158c0.299,0.029,0.618,0.05,0.958,0.062s0.686,0.018,1.037,0.018c0.316,0,0.625-0.003,0.927-0.009
		S33.716,6.27,33.985,6.258z M35.084,3.067c0,0.105-0.003,0.23-0.009,0.373c-0.006,0.145-0.015,0.289-0.026,0.436
		s-0.025,0.283-0.04,0.408c-0.015,0.127-0.03,0.228-0.048,0.304c-0.135,0.018-0.266,0.037-0.392,0.058s-0.256,0.039-0.391,0.057
		c-0.012-0.059-0.021-0.139-0.031-0.242c-0.008-0.102-0.016-0.207-0.021-0.316c-0.006-0.107-0.012-0.216-0.018-0.324
		S34.1,3.615,34.1,3.533V1.125c0-0.17-0.081-0.311-0.241-0.422c-0.162-0.111-0.438-0.217-0.831-0.316
		c0.029-0.064,0.056-0.129,0.079-0.193S33.153,0.064,33.177,0c0.146,0.018,0.314,0.041,0.506,0.07
		c0.189,0.029,0.379,0.062,0.566,0.097s0.365,0.067,0.531,0.097c0.168,0.029,0.304,0.053,0.409,0.07
		c-0.012,0.053-0.023,0.123-0.035,0.211s-0.023,0.176-0.035,0.264s-0.021,0.166-0.026,0.233s-0.009,0.104-0.009,0.109V2.47
		c0.129-0.012,0.27-0.026,0.422-0.044s0.305-0.036,0.457-0.058c0.152-0.02,0.302-0.04,0.448-0.061s0.278-0.04,0.396-0.058
		c-0.023,0.129-0.041,0.261-0.053,0.396s-0.029,0.267-0.053,0.396c-0.094-0.006-0.205-0.009-0.334-0.009s-0.27,0-0.422,0h-0.861
		V3.067z"/>
	<path d="M41.025,5.502c-0.299-0.012-0.626-0.012-0.98,0s-0.695,0.029-1.023,0.053c-0.012,0.047-0.025,0.093-0.039,0.136
		c-0.016,0.045-0.028,0.09-0.04,0.137L38.213,5.95c-0.012-0.117-0.025-0.271-0.039-0.461c-0.016-0.19-0.022-0.368-0.022-0.532V2.452
		c0-0.088-0.009-0.162-0.026-0.225c-0.018-0.061-0.053-0.115-0.105-0.162s-0.129-0.088-0.229-0.123s-0.229-0.07-0.387-0.105
		l0.185-0.369c0.1,0.012,0.218,0.025,0.356,0.039c0.137,0.016,0.281,0.034,0.43,0.058c0.15,0.023,0.298,0.048,0.444,0.075
		c0.146,0.025,0.278,0.051,0.396,0.074c-0.012,0.053-0.023,0.117-0.035,0.193s-0.021,0.151-0.031,0.225
		c-0.008,0.073-0.016,0.139-0.021,0.197s-0.009,0.097-0.009,0.114v0.483c0.287-0.012,0.592-0.024,0.914-0.039
		s0.636-0.034,0.94-0.058V2.074c0-0.082-0.011-0.153-0.031-0.216c-0.021-0.061-0.059-0.115-0.113-0.162
		c-0.057-0.047-0.136-0.089-0.238-0.127S40.354,1.491,40.19,1.45l0.176-0.378c0.111,0.012,0.243,0.026,0.396,0.044
		s0.308,0.038,0.466,0.062s0.312,0.047,0.462,0.07c0.148,0.023,0.276,0.047,0.382,0.07c-0.012,0.053-0.023,0.118-0.035,0.198
		c-0.012,0.078-0.023,0.156-0.035,0.232s-0.021,0.145-0.026,0.207c-0.006,0.061-0.009,0.098-0.009,0.109v2.408
		c0,0.299-0.02,0.551-0.058,0.756s-0.065,0.372-0.083,0.501l-0.738,0.114c-0.012-0.047-0.025-0.1-0.04-0.158
		S41.025,5.566,41.025,5.502z M40.973,3.41c-0.281,0-0.586,0.003-0.914,0.009s-0.642,0.018-0.94,0.035v1.134
		c0,0.146-0.009,0.275-0.026,0.387c0.299-0.006,0.613-0.018,0.945-0.035c0.33-0.018,0.643-0.035,0.936-0.053V3.41z M42.309,0
		c0.135,0.018,0.293,0.041,0.475,0.07s0.366,0.062,0.554,0.097s0.367,0.067,0.54,0.097s0.315,0.053,0.427,0.07
		c-0.012,0.053-0.023,0.123-0.035,0.211s-0.022,0.176-0.03,0.264c-0.01,0.088-0.017,0.166-0.022,0.233s-0.009,0.104-0.009,0.109
		v4.825c0,0.182-0.004,0.392-0.014,0.628c-0.008,0.238-0.021,0.477-0.039,0.717s-0.037,0.469-0.057,0.686
		c-0.021,0.217-0.043,0.39-0.066,0.519l-0.729,0.105c-0.018-0.094-0.032-0.222-0.044-0.382c-0.012-0.162-0.021-0.336-0.031-0.523
		c-0.008-0.188-0.015-0.378-0.018-0.571s-0.004-0.375-0.004-0.545V1.116c0-0.17-0.087-0.309-0.26-0.418
		c-0.173-0.107-0.452-0.212-0.839-0.312L42.309,0z"/>
	<path d="M51.871,1.116c0-0.17-0.087-0.309-0.259-0.418c-0.174-0.107-0.453-0.212-0.84-0.312L50.957,0
		c0.141,0.018,0.299,0.041,0.475,0.07s0.354,0.062,0.536,0.097s0.353,0.067,0.514,0.097s0.301,0.053,0.418,0.07
		c-0.012,0.053-0.023,0.123-0.035,0.211s-0.023,0.176-0.035,0.264s-0.021,0.166-0.026,0.233s-0.009,0.104-0.009,0.109v4.825
		c0,0.182-0.006,0.389-0.018,0.62S52.748,7.062,52.728,7.3c-0.021,0.236-0.042,0.464-0.065,0.681s-0.047,0.398-0.07,0.545
		l-0.677,0.105c-0.006-0.094-0.012-0.222-0.018-0.382c-0.006-0.162-0.011-0.336-0.014-0.524c-0.003-0.188-0.006-0.379-0.008-0.572
		c-0.004-0.194-0.005-0.376-0.005-0.547V4.834c-0.082,0.006-0.169,0.012-0.259,0.018c-0.092,0.006-0.175,0.015-0.251,0.026
		c-0.012,0.179-0.028,0.354-0.048,0.529c-0.021,0.175-0.04,0.312-0.058,0.411L50.614,5.95c-0.012-0.105-0.021-0.214-0.026-0.325
		c-0.129-0.006-0.257-0.007-0.382-0.005c-0.127,0.004-0.248,0.008-0.365,0.014c-0.023,0.082-0.044,0.179-0.062,0.29l-0.606,0.123
		c-0.012-0.117-0.025-0.272-0.039-0.466c-0.016-0.193-0.022-0.372-0.022-0.536V2.083c0-0.082-0.006-0.154-0.018-0.215
		c-0.012-0.062-0.044-0.116-0.097-0.163c-0.012,0.053-0.025,0.118-0.039,0.197c-0.016,0.079-0.027,0.155-0.035,0.229
		c-0.01,0.072-0.017,0.137-0.022,0.192s-0.009,0.087-0.009,0.093v2.227c0,0.105-0.004,0.218-0.014,0.338
		c-0.008,0.12-0.021,0.237-0.035,0.351c-0.015,0.114-0.03,0.221-0.048,0.32s-0.032,0.185-0.044,0.255l-0.598,0.123
		c-0.023-0.088-0.041-0.205-0.053-0.352c-0.111,0.006-0.232,0.011-0.365,0.013c-0.131,0.004-0.256,0.011-0.373,0.022
		c-0.029,0.1-0.047,0.196-0.053,0.29l-0.633,0.123c-0.023-0.105-0.043-0.256-0.057-0.452c-0.016-0.196-0.022-0.376-0.022-0.539
		v-2.63c0-0.088-0.008-0.162-0.022-0.225c-0.015-0.061-0.043-0.116-0.088-0.166c-0.043-0.05-0.108-0.093-0.193-0.128
		s-0.197-0.067-0.338-0.097l0.176-0.299c0.088,0.012,0.19,0.025,0.308,0.039c0.117,0.016,0.238,0.031,0.364,0.049
		s0.251,0.038,0.374,0.062s0.237,0.047,0.343,0.07c-0.012,0.053-0.021,0.118-0.031,0.198c-0.008,0.078-0.016,0.156-0.021,0.232
		s-0.012,0.145-0.018,0.207c-0.006,0.061-0.009,0.101-0.009,0.118v0.501c0.094-0.006,0.198-0.012,0.312-0.018
		c0.115-0.006,0.222-0.012,0.321-0.018V2.355c0-0.088-0.008-0.163-0.022-0.224c-0.015-0.062-0.047-0.115-0.096-0.158
		c-0.051-0.045-0.123-0.084-0.221-0.119c-0.096-0.035-0.209-0.073-0.338-0.114l0.193-0.316c0.07,0.012,0.168,0.028,0.295,0.048
		c0.125,0.021,0.253,0.045,0.382,0.07c0.129,0.027,0.255,0.053,0.378,0.08c0.123,0.025,0.234,0.051,0.334,0.074
		c-0.047-0.047-0.109-0.088-0.189-0.123c-0.078-0.035-0.186-0.07-0.32-0.105l0.158-0.29c0.088,0.006,0.19,0.017,0.308,0.03
		c0.117,0.016,0.237,0.033,0.36,0.053c0.123,0.021,0.246,0.043,0.369,0.066s0.237,0.047,0.343,0.07
		c-0.012,0.053-0.025,0.117-0.04,0.193s-0.024,0.152-0.03,0.229s-0.012,0.145-0.018,0.207c-0.006,0.061-0.009,0.101-0.009,0.118
		v0.809c0.1-0.006,0.202-0.012,0.308-0.018s0.217-0.015,0.334-0.026v-0.94c0-0.088-0.008-0.164-0.022-0.229
		s-0.047-0.118-0.096-0.163c-0.051-0.043-0.121-0.084-0.211-0.123c-0.092-0.037-0.204-0.074-0.339-0.109l0.193-0.316
		c0.076,0.012,0.179,0.028,0.308,0.049s0.26,0.042,0.391,0.065c0.133,0.023,0.258,0.047,0.379,0.07
		c0.119,0.023,0.227,0.047,0.32,0.07c-0.012,0.053-0.021,0.12-0.031,0.202c-0.008,0.082-0.018,0.161-0.025,0.237
		c-0.01,0.076-0.017,0.144-0.022,0.202s-0.009,0.094-0.009,0.105v0.281C51.47,2.317,51.55,2.32,51.63,2.32c0.078,0,0.159,0,0.241,0
		V1.116z M48.074,3.595c-0.088,0-0.19,0.004-0.308,0.014c-0.117,0.008-0.226,0.019-0.325,0.03v1.116c0,0.17-0.009,0.316-0.026,0.439
		c0.111-0.012,0.225-0.021,0.338-0.026c0.115-0.006,0.222-0.012,0.321-0.018V3.595z M50.553,3.48c-0.1,0-0.206,0.003-0.321,0.009
		c-0.113,0.006-0.221,0.012-0.32,0.018v1.169c0,0.082-0.002,0.158-0.004,0.229c-0.004,0.07-0.008,0.138-0.014,0.202
		c0.105-0.012,0.215-0.021,0.33-0.026c0.113-0.006,0.224-0.012,0.329-0.018V3.48z M51.871,2.865
		c-0.082,0.012-0.167,0.021-0.255,0.026s-0.164,0.015-0.229,0.026v1.38C51.47,4.31,51.55,4.315,51.63,4.315
		c0.078,0,0.159-0.003,0.241-0.009V2.865z"/>
	<path d="M58.858,1.802c-0.176,0.51-0.406,1.001-0.69,1.473s-0.612,0.914-0.984,1.326c-0.372,0.414-0.781,0.795-1.23,1.143
		c-0.447,0.35-0.921,0.658-1.419,0.928l-0.272-0.325c0.41-0.246,0.794-0.537,1.151-0.874s0.678-0.691,0.962-1.064
		c0.284-0.371,0.527-0.748,0.73-1.129c0.201-0.381,0.353-0.738,0.452-1.072c-0.088,0-0.19,0.002-0.308,0.004
		c-0.117,0.004-0.239,0.008-0.365,0.014s-0.247,0.011-0.364,0.014s-0.217,0.004-0.299,0.004c-0.064,0-0.151,0.004-0.259,0.014
		c-0.109,0.008-0.227,0.021-0.352,0.035c-0.127,0.015-0.254,0.03-0.383,0.048s-0.24,0.035-0.334,0.053l-0.536-0.817
		c0.076,0.012,0.179,0.025,0.308,0.039c0.129,0.016,0.265,0.03,0.408,0.045s0.286,0.027,0.427,0.039s0.261,0.018,0.36,0.018
		c0.211,0,0.437-0.006,0.677-0.018s0.479-0.026,0.716-0.044c0.238-0.018,0.467-0.041,0.686-0.07
		c0.221-0.029,0.415-0.062,0.585-0.097L58.858,1.802z M60.774,5.977c0,0.176-0.005,0.384-0.013,0.624
		c-0.01,0.24-0.02,0.48-0.031,0.721s-0.026,0.469-0.044,0.686s-0.035,0.39-0.053,0.519L59.86,8.631
		c-0.012-0.094-0.022-0.222-0.03-0.382c-0.01-0.162-0.018-0.336-0.027-0.523c-0.008-0.188-0.015-0.378-0.018-0.571
		s-0.004-0.375-0.004-0.545V1.116c0-0.17-0.081-0.309-0.242-0.418c-0.161-0.107-0.435-0.212-0.821-0.312L58.867,0
		c0.146,0.018,0.314,0.041,0.506,0.07c0.189,0.029,0.377,0.062,0.562,0.097c0.184,0.035,0.359,0.067,0.527,0.097
		c0.166,0.029,0.303,0.053,0.408,0.07c-0.012,0.053-0.023,0.123-0.035,0.211s-0.021,0.176-0.031,0.264
		c-0.008,0.088-0.016,0.166-0.021,0.233s-0.009,0.104-0.009,0.109v2.654c0.129-0.012,0.271-0.024,0.427-0.039
		c0.154-0.015,0.309-0.031,0.461-0.049s0.299-0.035,0.439-0.053s0.267-0.038,0.378-0.062l-0.07,0.826
		c-0.094-0.006-0.206-0.01-0.339-0.013c-0.131-0.003-0.271-0.005-0.417-0.005s-0.296,0-0.448,0s-0.296,0-0.431,0V5.977z"/>
	<path d="M5.708,44.21c-0.135-0.006-0.277-0.012-0.426-0.018c-0.15-0.006-0.307-0.006-0.471,0v1.644
		c0.246-0.012,0.466-0.019,0.659-0.021s0.354-0.008,0.483-0.014c0.193-0.006,0.396-0.018,0.606-0.035s0.42-0.038,0.628-0.062
		s0.409-0.045,0.603-0.065s0.369-0.04,0.527-0.058l-0.123,0.817c-0.117-0.006-0.257-0.012-0.417-0.018
		c-0.162-0.006-0.338-0.01-0.527-0.014c-0.191-0.002-0.387-0.005-0.59-0.008c-0.201-0.003-0.399-0.005-0.593-0.005
		c-0.158,0-0.354,0.002-0.585,0.005s-0.48,0.008-0.746,0.018c-0.268,0.008-0.541,0.018-0.822,0.025
		c-0.281,0.01-0.548,0.018-0.8,0.027c-0.252,0.008-0.48,0.019-0.686,0.03s-0.363,0.021-0.475,0.026
		c-0.223,0.012-0.469,0.034-0.738,0.066s-0.513,0.06-0.729,0.083L0.162,45.73c0.129,0.018,0.269,0.034,0.417,0.049
		c0.15,0.015,0.304,0.027,0.462,0.039s0.314,0.021,0.47,0.031c0.155,0.008,0.301,0.016,0.436,0.021
		c0.199,0.012,0.467,0.017,0.805,0.014c0.336-0.003,0.692-0.011,1.067-0.022v-1.635c-0.176,0.006-0.354,0.008-0.532,0.005
		s-0.347,0.001-0.505,0.013c-0.012,0.064-0.022,0.118-0.03,0.163c-0.01,0.043-0.02,0.089-0.031,0.136l-0.703,0.114
		c-0.018-0.111-0.039-0.262-0.066-0.453c-0.025-0.189-0.039-0.367-0.039-0.531v-2.522c0-0.088-0.009-0.163-0.026-0.224
		c-0.018-0.062-0.053-0.116-0.105-0.163s-0.128-0.089-0.224-0.128c-0.098-0.037-0.225-0.074-0.383-0.109l0.158-0.343
		c0.1,0.012,0.221,0.025,0.365,0.04c0.143,0.015,0.291,0.032,0.443,0.053s0.303,0.042,0.453,0.065
		c0.148,0.023,0.282,0.044,0.399,0.062c-0.012,0.053-0.023,0.12-0.035,0.202s-0.023,0.161-0.035,0.237s-0.021,0.144-0.026,0.202
		s-0.009,0.097-0.009,0.114v0.527c0.205-0.006,0.425-0.012,0.659-0.018s0.472-0.015,0.712-0.026s0.479-0.024,0.716-0.04
		c0.238-0.014,0.468-0.03,0.69-0.048v-0.747c0-0.088-0.011-0.159-0.03-0.215c-0.021-0.056-0.062-0.105-0.123-0.15
		C5.448,40.4,5.363,40.36,5.255,40.325s-0.25-0.073-0.426-0.114l0.185-0.404c0.123,0.012,0.262,0.028,0.417,0.049
		s0.312,0.042,0.471,0.065s0.311,0.047,0.457,0.07s0.272,0.047,0.378,0.07c-0.006,0.053-0.013,0.118-0.022,0.197
		c-0.008,0.079-0.016,0.156-0.021,0.232s-0.012,0.145-0.018,0.206s-0.009,0.101-0.009,0.118v2.333c0,0.316-0.018,0.576-0.053,0.781
		c-0.035,0.204-0.073,0.374-0.114,0.509l-0.738,0.114c-0.012-0.047-0.021-0.1-0.026-0.158S5.72,44.274,5.708,44.21z M5.664,42.197
		c-0.211-0.006-0.434-0.009-0.668-0.009s-0.472,0.002-0.712,0.005S3.806,42.2,3.567,42.206c-0.236,0.006-0.464,0.015-0.681,0.026
		v1.055c0,0.082-0.002,0.158-0.005,0.229s-0.004,0.138-0.004,0.202c0.205-0.006,0.425-0.012,0.659-0.018s0.472-0.013,0.712-0.022
		c0.24-0.008,0.48-0.018,0.721-0.025c0.24-0.01,0.472-0.02,0.694-0.031V42.197z"/>
	<path d="M11.852,41.107c0.252,0.047,0.481,0.125,0.689,0.232c0.208,0.109,0.389,0.241,0.541,0.396s0.271,0.331,0.355,0.527
		s0.128,0.408,0.128,0.637c0,0.264-0.056,0.509-0.167,0.734s-0.264,0.42-0.457,0.584s-0.422,0.293-0.686,0.387
		s-0.551,0.141-0.861,0.141c-0.322,0-0.618-0.047-0.888-0.141s-0.501-0.223-0.694-0.387s-0.345-0.358-0.453-0.584
		S9.197,43.164,9.197,42.9c0-0.234,0.045-0.454,0.137-0.659c0.09-0.205,0.218-0.388,0.382-0.55c0.164-0.16,0.36-0.292,0.589-0.395
		s0.478-0.169,0.747-0.198c0.006-0.094-0.017-0.167-0.065-0.22c-0.051-0.053-0.148-0.103-0.295-0.149l0.141-0.334
		c0.07,0.018,0.156,0.038,0.26,0.062c0.102,0.023,0.209,0.047,0.32,0.07s0.218,0.046,0.32,0.066s0.187,0.039,0.251,0.057
		c-0.023,0.047-0.046,0.113-0.065,0.197C11.896,40.934,11.875,41.02,11.852,41.107z M12.555,42.874c0-0.182-0.031-0.35-0.092-0.505
		c-0.062-0.155-0.145-0.291-0.246-0.404c-0.104-0.115-0.224-0.205-0.361-0.273c-0.138-0.066-0.285-0.101-0.443-0.101
		s-0.308,0.034-0.448,0.101c-0.141,0.068-0.267,0.158-0.378,0.273c-0.111,0.113-0.199,0.249-0.264,0.404s-0.097,0.323-0.097,0.505
		c0,0.188,0.032,0.357,0.097,0.51s0.152,0.283,0.264,0.392s0.237,0.193,0.378,0.254c0.141,0.062,0.29,0.093,0.448,0.093
		s0.306-0.03,0.443-0.093c0.138-0.061,0.26-0.146,0.365-0.254s0.188-0.239,0.246-0.392S12.555,43.062,12.555,42.874z M13.97,39.2
		c0.135,0.018,0.293,0.041,0.475,0.07s0.366,0.062,0.554,0.097s0.367,0.067,0.541,0.097c0.172,0.029,0.314,0.053,0.426,0.07
		c-0.012,0.053-0.021,0.123-0.031,0.211c-0.008,0.088-0.019,0.176-0.03,0.264s-0.021,0.166-0.026,0.233s-0.009,0.104-0.009,0.109
		v4.825c0,0.182-0.005,0.392-0.013,0.628c-0.01,0.238-0.022,0.477-0.04,0.717s-0.037,0.469-0.058,0.686s-0.042,0.39-0.065,0.519
		l-0.729,0.105c-0.018-0.094-0.032-0.222-0.044-0.382c-0.012-0.162-0.022-0.336-0.03-0.523c-0.01-0.188-0.016-0.378-0.018-0.571
		c-0.004-0.193-0.005-0.375-0.005-0.545v-5.493c0-0.17-0.087-0.309-0.259-0.418c-0.174-0.107-0.453-0.212-0.84-0.312L13.97,39.2z"/>
	<path d="M25.422,44.263c-0.117-0.006-0.258-0.012-0.422-0.018s-0.34-0.012-0.527-0.018s-0.381-0.012-0.58-0.018
		s-0.393-0.009-0.58-0.009c-0.164,0-0.371,0-0.62,0s-0.518,0.004-0.809,0.014c-0.289,0.008-0.587,0.018-0.892,0.025
		c-0.305,0.01-0.595,0.02-0.87,0.031s-0.523,0.023-0.742,0.035c-0.221,0.012-0.386,0.023-0.497,0.035
		c-0.105,0.006-0.222,0.015-0.347,0.026c-0.127,0.012-0.254,0.023-0.383,0.035s-0.257,0.023-0.383,0.035s-0.238,0.023-0.338,0.035
		l-0.352-0.87c0.129,0.018,0.271,0.034,0.426,0.049s0.312,0.029,0.471,0.043c0.158,0.016,0.314,0.027,0.471,0.035
		c0.154,0.01,0.297,0.014,0.426,0.014c0.141,0.006,0.325,0.009,0.554,0.009s0.479-0.001,0.751-0.005
		c0.273-0.002,0.557-0.008,0.854-0.018c0.295-0.008,0.58-0.016,0.852-0.021c0.273-0.006,0.523-0.014,0.752-0.021
		c0.229-0.01,0.413-0.017,0.554-0.022c0.193-0.006,0.394-0.018,0.603-0.035c0.207-0.018,0.415-0.036,0.623-0.058
		c0.208-0.02,0.41-0.042,0.607-0.065c0.195-0.023,0.376-0.047,0.54-0.07L25.422,44.263z M24.112,42.654
		c-0.352-0.018-0.735-0.026-1.151-0.026s-0.831,0.003-1.243,0.009c-0.414,0.006-0.807,0.017-1.178,0.031
		c-0.373,0.015-0.688,0.027-0.945,0.039c-0.24,0.012-0.41-0.05-0.51-0.185s-0.149-0.29-0.149-0.466v-1.31
		c0-0.111-0.011-0.203-0.03-0.276c-0.021-0.073-0.062-0.137-0.123-0.189c-0.062-0.053-0.148-0.098-0.26-0.137
		c-0.111-0.037-0.258-0.077-0.439-0.118l0.193-0.404c0.076,0.012,0.191,0.028,0.348,0.048c0.154,0.021,0.318,0.042,0.492,0.062
		c0.172,0.021,0.339,0.042,0.5,0.065s0.289,0.041,0.383,0.053c0,0.035-0.004,0.082-0.014,0.141
		c-0.008,0.059-0.018,0.123-0.025,0.193c-0.01,0.07-0.017,0.14-0.022,0.206c-0.006,0.068-0.009,0.128-0.009,0.181v1.283
		c0,0.188,0.073,0.284,0.22,0.29c0.217,0,0.501-0.007,0.853-0.021s0.722-0.035,1.111-0.062c0.39-0.025,0.773-0.057,1.152-0.092
		c0.377-0.035,0.701-0.073,0.971-0.114L24.112,42.654z M24.358,47.444c-0.352-0.023-0.74-0.038-1.164-0.044
		c-0.426-0.006-0.846-0.008-1.262-0.004c-0.416,0.002-0.812,0.01-1.191,0.021c-0.377,0.012-0.695,0.023-0.953,0.035
		c-0.24,0.012-0.408-0.035-0.506-0.141c-0.096-0.105-0.145-0.226-0.145-0.36v-0.993c0-0.123-0.006-0.221-0.018-0.295
		c-0.012-0.072-0.043-0.134-0.092-0.184c-0.051-0.05-0.128-0.093-0.233-0.128s-0.249-0.076-0.431-0.123l0.167-0.396
		c0.088,0.012,0.206,0.028,0.356,0.049c0.148,0.021,0.304,0.041,0.465,0.061c0.161,0.021,0.318,0.043,0.471,0.066
		s0.272,0.041,0.36,0.053c-0.006,0.07-0.017,0.18-0.03,0.33c-0.016,0.148-0.022,0.276-0.022,0.382v0.896
		c0,0.1,0.009,0.158,0.026,0.176s0.07,0.029,0.158,0.035c0.146,0,0.328-0.002,0.545-0.005s0.451-0.01,0.703-0.021
		s0.516-0.025,0.791-0.039c0.275-0.016,0.543-0.031,0.805-0.049c0.26-0.018,0.506-0.037,0.738-0.057
		c0.23-0.021,0.429-0.043,0.593-0.066L24.358,47.444z"/>
	<path d="M33.429,40.545c-0.146,0.439-0.36,0.875-0.642,1.305c-0.281,0.432-0.614,0.843-0.997,1.235
		c-0.385,0.393-0.811,0.756-1.279,1.09s-0.961,0.624-1.477,0.87l-0.255-0.325c0.387-0.211,0.754-0.462,1.103-0.751
		c0.349-0.291,0.67-0.6,0.963-0.928s0.551-0.665,0.773-1.011s0.398-0.68,0.527-1.002c-0.264,0-0.507,0.006-0.729,0.018
		s-0.396,0.023-0.519,0.035c-0.059,0.006-0.14,0.012-0.242,0.018s-0.214,0.017-0.334,0.03c-0.12,0.016-0.243,0.031-0.369,0.049
		s-0.238,0.038-0.338,0.062l-0.545-0.826c0.07,0.012,0.17,0.023,0.299,0.035s0.268,0.025,0.418,0.04
		c0.148,0.015,0.295,0.025,0.439,0.035c0.143,0.008,0.265,0.013,0.364,0.013c0.234,0,0.475-0.007,0.721-0.022
		c0.246-0.014,0.48-0.031,0.703-0.053c0.223-0.02,0.427-0.043,0.61-0.07c0.186-0.025,0.33-0.051,0.436-0.074L33.429,40.545z
		 M35.925,47.427c-0.346-0.012-0.705-0.02-1.076-0.022c-0.373-0.003-0.737-0.003-1.095,0s-0.7,0.011-1.028,0.022
		s-0.621,0.026-0.879,0.044c-0.234,0.018-0.401-0.027-0.501-0.135c-0.1-0.108-0.149-0.229-0.149-0.362v-1.089
		c0-0.122-0.006-0.219-0.018-0.291c-0.012-0.073-0.043-0.135-0.092-0.186c-0.051-0.051-0.127-0.094-0.229-0.129
		c-0.104-0.036-0.245-0.078-0.427-0.126l0.158-0.398c0.088,0.012,0.206,0.026,0.356,0.044c0.148,0.018,0.304,0.038,0.465,0.062
		s0.318,0.046,0.471,0.065c0.152,0.021,0.272,0.04,0.36,0.058c-0.006,0.035-0.012,0.082-0.018,0.141s-0.012,0.122-0.018,0.188
		c-0.006,0.068-0.012,0.134-0.018,0.198s-0.009,0.123-0.009,0.176v1.011c0,0.1,0.01,0.158,0.031,0.176
		c0.02,0.018,0.074,0.029,0.162,0.035c0.217,0.006,0.484,0.001,0.805-0.014c0.318-0.015,0.65-0.035,0.992-0.061
		c0.344-0.027,0.683-0.058,1.02-0.093s0.632-0.07,0.884-0.105L35.925,47.427z M34.624,42.979c-0.316,0.012-0.642,0.034-0.976,0.065
		c-0.334,0.033-0.627,0.081-0.879,0.146L32.4,42.426c0.059,0.006,0.144,0.014,0.255,0.021c0.111,0.01,0.229,0.017,0.352,0.022
		s0.244,0.011,0.365,0.013c0.119,0.004,0.221,0.005,0.303,0.005c0.117-0.006,0.258-0.01,0.422-0.013s0.34-0.008,0.527-0.014v-2.145
		c0-0.17-0.087-0.309-0.26-0.418c-0.173-0.107-0.452-0.212-0.839-0.312l0.202-0.387c0.135,0.018,0.293,0.041,0.475,0.07
		s0.366,0.062,0.554,0.097s0.367,0.067,0.54,0.097s0.318,0.053,0.436,0.07c-0.012,0.053-0.023,0.123-0.035,0.211
		s-0.023,0.176-0.035,0.264s-0.021,0.166-0.031,0.233c-0.008,0.067-0.013,0.104-0.013,0.109v3.568c0,0.135-0.005,0.28-0.013,0.436
		c-0.01,0.155-0.021,0.312-0.035,0.47c-0.016,0.158-0.033,0.308-0.053,0.448c-0.021,0.141-0.04,0.261-0.058,0.36l-0.765,0.123
		c-0.012-0.07-0.021-0.17-0.026-0.299s-0.013-0.269-0.022-0.417c-0.008-0.15-0.015-0.299-0.018-0.449
		c-0.003-0.148-0.004-0.276-0.004-0.382V42.979z"/>
	<path d="M42.666,41.116c0.258,0.047,0.493,0.123,0.708,0.229c0.213,0.105,0.396,0.237,0.549,0.396s0.27,0.336,0.352,0.531
		c0.082,0.197,0.123,0.406,0.123,0.629c0,0.264-0.056,0.509-0.167,0.734s-0.266,0.42-0.462,0.584s-0.43,0.293-0.703,0.387
		c-0.271,0.094-0.566,0.141-0.883,0.141s-0.608-0.047-0.875-0.141s-0.496-0.223-0.689-0.387s-0.346-0.358-0.457-0.584
		s-0.167-0.471-0.167-0.734c0-0.234,0.045-0.454,0.136-0.659s0.217-0.387,0.379-0.545c0.16-0.158,0.354-0.29,0.58-0.396
		c0.225-0.105,0.473-0.173,0.742-0.202c0.006-0.094-0.015-0.167-0.062-0.22s-0.146-0.103-0.299-0.149l0.193-0.334
		c0.059,0.018,0.138,0.038,0.237,0.062s0.203,0.047,0.312,0.07c0.107,0.023,0.215,0.046,0.32,0.066s0.193,0.039,0.264,0.057
		C42.751,40.762,42.707,40.917,42.666,41.116z M43.369,42.874c0-0.182-0.032-0.35-0.097-0.505s-0.149-0.291-0.255-0.404
		c-0.105-0.115-0.229-0.205-0.369-0.273c-0.141-0.066-0.29-0.101-0.448-0.101s-0.307,0.034-0.443,0.101
		c-0.139,0.068-0.259,0.158-0.361,0.273c-0.103,0.113-0.184,0.249-0.246,0.404c-0.061,0.155-0.092,0.323-0.092,0.505
		c0,0.188,0.031,0.357,0.092,0.51c0.062,0.152,0.144,0.283,0.246,0.392s0.223,0.193,0.361,0.254
		c0.137,0.062,0.285,0.093,0.443,0.093s0.308-0.03,0.448-0.093c0.141-0.061,0.265-0.146,0.374-0.254
		c0.107-0.108,0.193-0.239,0.254-0.392C43.339,43.231,43.369,43.062,43.369,42.874z M46.428,45.177c0,0.182-0.005,0.392-0.013,0.628
		c-0.01,0.238-0.021,0.477-0.035,0.717c-0.016,0.24-0.03,0.469-0.045,0.686s-0.03,0.39-0.048,0.519l-0.773,0.105
		c-0.012-0.094-0.022-0.222-0.03-0.382c-0.01-0.162-0.018-0.336-0.027-0.523c-0.008-0.188-0.015-0.378-0.018-0.571
		s-0.004-0.375-0.004-0.545v-5.493c0-0.17-0.082-0.309-0.246-0.418c-0.164-0.107-0.439-0.212-0.826-0.312l0.176-0.387
		c0.146,0.018,0.312,0.041,0.496,0.07c0.186,0.029,0.371,0.062,0.559,0.097s0.365,0.067,0.531,0.097
		c0.168,0.029,0.307,0.053,0.418,0.07c-0.018,0.053-0.032,0.123-0.044,0.211s-0.023,0.176-0.035,0.264s-0.021,0.166-0.026,0.233
		s-0.009,0.104-0.009,0.109v2.355c0.129-0.012,0.272-0.024,0.431-0.039s0.314-0.031,0.471-0.049
		c0.154-0.018,0.304-0.036,0.447-0.057s0.269-0.043,0.374-0.066l-0.088,0.817c-0.088-0.006-0.198-0.009-0.329-0.009
		c-0.133,0-0.273,0-0.422,0c-0.15,0-0.301,0-0.453,0s-0.296,0-0.431,0V45.177z"/>
	<path d="M54.276,40.316c0-0.17-0.085-0.309-0.255-0.418c-0.17-0.107-0.451-0.212-0.844-0.312l0.185-0.387
		c0.141,0.018,0.304,0.041,0.487,0.07c0.186,0.029,0.369,0.062,0.555,0.097c0.184,0.035,0.361,0.067,0.531,0.097
		s0.313,0.053,0.431,0.07c-0.012,0.053-0.023,0.123-0.035,0.211s-0.022,0.176-0.03,0.264c-0.01,0.088-0.017,0.166-0.022,0.233
		s-0.009,0.104-0.009,0.109v4.825c0,0.182-0.004,0.392-0.014,0.628c-0.008,0.238-0.021,0.477-0.035,0.717s-0.032,0.469-0.053,0.686
		s-0.039,0.39-0.057,0.519l-0.747,0.105c-0.012-0.094-0.022-0.222-0.03-0.382c-0.01-0.162-0.018-0.336-0.027-0.523
		c-0.008-0.188-0.016-0.378-0.021-0.571s-0.009-0.375-0.009-0.545v-1.749c-0.27,0.1-0.573,0.204-0.909,0.312
		c-0.338,0.108-0.678,0.211-1.02,0.307c-0.344,0.098-0.678,0.184-1.002,0.26c-0.326,0.076-0.611,0.132-0.857,0.167
		c-0.316,0.053-0.553,0.012-0.707-0.123c-0.156-0.135-0.233-0.343-0.233-0.624v-2.672c0-0.088-0.009-0.161-0.026-0.22
		s-0.057-0.11-0.119-0.153c-0.061-0.045-0.15-0.084-0.268-0.119s-0.272-0.07-0.466-0.105l0.149-0.387
		c0.146,0.006,0.305,0.017,0.475,0.031s0.337,0.032,0.501,0.053s0.321,0.042,0.47,0.065c0.15,0.023,0.28,0.044,0.392,0.062
		c-0.018,0.053-0.032,0.122-0.044,0.207s-0.023,0.17-0.035,0.254c-0.012,0.086-0.021,0.16-0.026,0.225s-0.009,0.103-0.009,0.114
		v2.461c0,0.088,0.007,0.149,0.021,0.185s0.046,0.05,0.093,0.044c0.176-0.012,0.411-0.044,0.708-0.097
		c0.295-0.053,0.613-0.117,0.953-0.193s0.683-0.159,1.028-0.25s0.656-0.181,0.932-0.269V40.316z"/>
	<path d="M60.534,43.243c0.311,0.246,0.647,0.507,1.011,0.782s0.729,0.527,1.099,0.756l-0.738,0.65
		c-0.281-0.299-0.566-0.602-0.857-0.91c-0.289-0.307-0.581-0.602-0.874-0.883c-0.387,0.41-0.809,0.787-1.266,1.129
		c-0.457,0.344-0.938,0.655-1.441,0.937l-0.264-0.334c0.398-0.258,0.78-0.55,1.147-0.874c0.365-0.326,0.698-0.665,0.997-1.02
		s0.558-0.718,0.778-1.09c0.219-0.372,0.382-0.734,0.487-1.086c-0.088,0-0.19,0.003-0.308,0.009s-0.237,0.012-0.36,0.018
		s-0.243,0.012-0.36,0.018s-0.217,0.009-0.299,0.009c-0.064,0-0.151,0.006-0.26,0.018s-0.226,0.023-0.352,0.035
		s-0.252,0.026-0.377,0.044c-0.127,0.018-0.239,0.032-0.339,0.044l-0.536-0.835c0.076,0.012,0.179,0.026,0.308,0.044
		s0.267,0.034,0.413,0.049s0.288,0.027,0.426,0.039s0.257,0.018,0.356,0.018c0.211,0,0.437-0.004,0.677-0.014
		c0.24-0.008,0.479-0.021,0.717-0.039c0.236-0.018,0.464-0.041,0.681-0.07s0.41-0.062,0.58-0.097l0.334,0.308
		C61.609,41.746,61.149,42.528,60.534,43.243z M62.107,39.2c0.135,0.018,0.293,0.041,0.475,0.07s0.366,0.062,0.554,0.097
		s0.367,0.067,0.541,0.097c0.172,0.029,0.314,0.053,0.426,0.07c-0.012,0.053-0.021,0.123-0.031,0.211
		c-0.008,0.088-0.019,0.176-0.03,0.264s-0.021,0.166-0.026,0.233s-0.009,0.104-0.009,0.109v4.825c0,0.182-0.005,0.392-0.013,0.628
		c-0.01,0.238-0.022,0.477-0.04,0.717s-0.037,0.469-0.058,0.686s-0.042,0.39-0.065,0.519l-0.729,0.105
		c-0.018-0.094-0.032-0.222-0.044-0.382c-0.012-0.162-0.022-0.336-0.03-0.523c-0.01-0.188-0.016-0.378-0.018-0.571
		c-0.004-0.193-0.005-0.375-0.005-0.545v-5.493c0-0.17-0.087-0.309-0.259-0.418c-0.174-0.107-0.453-0.212-0.84-0.312L62.107,39.2z"
		/>
	<path d="M70.993,40.378c0.246,0.047,0.469,0.12,0.668,0.22s0.369,0.22,0.51,0.36s0.249,0.298,0.325,0.47
		c0.076,0.174,0.114,0.359,0.114,0.559c0,0.234-0.053,0.453-0.158,0.654c-0.105,0.203-0.252,0.377-0.439,0.523
		s-0.41,0.263-0.668,0.348s-0.539,0.127-0.844,0.127s-0.586-0.042-0.844-0.127s-0.48-0.201-0.668-0.348s-0.334-0.32-0.439-0.523
		c-0.105-0.201-0.158-0.42-0.158-0.654c0-0.211,0.042-0.407,0.127-0.589s0.205-0.344,0.361-0.487
		c0.154-0.144,0.341-0.264,0.558-0.361c0.217-0.096,0.457-0.159,0.721-0.188c-0.012-0.07-0.041-0.129-0.088-0.176
		s-0.138-0.094-0.272-0.141l0.185-0.316c0.059,0.012,0.138,0.029,0.237,0.053s0.203,0.047,0.312,0.07
		c0.107,0.023,0.215,0.046,0.32,0.065c0.105,0.021,0.193,0.04,0.264,0.058c-0.012,0.041-0.031,0.099-0.057,0.171
		C71.032,40.219,71.011,40.296,70.993,40.378z M71.863,46.627c-0.006-0.012-0.009-0.026-0.009-0.044c0-0.17,0.042-0.331,0.127-0.483
		s0.199-0.285,0.344-0.4c0.143-0.113,0.314-0.204,0.514-0.271s0.413-0.102,0.642-0.102s0.442,0.033,0.642,0.101
		s0.37,0.158,0.514,0.271c0.144,0.114,0.258,0.247,0.344,0.398c0.084,0.152,0.127,0.312,0.127,0.481c0,0.164-0.043,0.32-0.127,0.469
		c-0.086,0.149-0.2,0.279-0.344,0.39c-0.144,0.111-0.314,0.198-0.514,0.263s-0.413,0.097-0.642,0.097
		c-0.346,0-0.65-0.067-0.914-0.202s-0.463-0.308-0.598-0.519c-0.281,0.129-0.56,0.231-0.835,0.308s-0.524,0.129-0.747,0.158
		c-0.299,0.053-0.518,0.019-0.655-0.102s-0.206-0.323-0.206-0.61v-1.494c0-0.123-0.006-0.22-0.018-0.29s-0.043-0.129-0.093-0.176
		s-0.126-0.086-0.229-0.119c-0.103-0.031-0.244-0.071-0.426-0.118l0.202-0.378c0.076,0.012,0.188,0.026,0.339,0.044
		c0.148,0.018,0.304,0.038,0.465,0.062s0.318,0.046,0.471,0.066s0.27,0.036,0.352,0.048c-0.012,0.076-0.023,0.185-0.035,0.325
		s-0.018,0.267-0.018,0.378v1.564c0,0.117,0.012,0.176,0.035,0.176c0.158-0.012,0.346-0.044,0.562-0.097
		S71.594,46.703,71.863,46.627z M71.591,41.951c0-0.158-0.029-0.306-0.088-0.443s-0.14-0.258-0.242-0.361
		c-0.103-0.102-0.218-0.183-0.347-0.241s-0.264-0.088-0.404-0.088s-0.276,0.029-0.409,0.088c-0.131,0.059-0.246,0.14-0.342,0.241
		c-0.098,0.104-0.175,0.224-0.233,0.361s-0.088,0.285-0.088,0.443c0,0.164,0.029,0.313,0.088,0.448s0.136,0.251,0.233,0.347
		c0.096,0.098,0.211,0.172,0.342,0.225c0.133,0.053,0.269,0.079,0.409,0.079s0.276-0.026,0.409-0.079
		c0.131-0.053,0.247-0.127,0.347-0.225c0.1-0.096,0.179-0.212,0.237-0.347S71.591,42.115,71.591,41.951z M75.546,45.168
		c-0.176,0-0.397,0.002-0.664,0.004c-0.267,0.004-0.539,0.008-0.816,0.014c-0.279,0.006-0.547,0.015-0.805,0.026
		s-0.469,0.021-0.633,0.026c-0.064,0.006-0.152,0.015-0.264,0.026s-0.226,0.023-0.343,0.035s-0.231,0.025-0.343,0.04
		s-0.199,0.027-0.264,0.039l-0.404-0.765c0.07,0.018,0.17,0.035,0.299,0.053s0.261,0.032,0.396,0.044s0.262,0.021,0.382,0.031
		c0.12,0.008,0.21,0.013,0.269,0.013c0.176,0,0.398-0.005,0.668-0.013c0.27-0.01,0.557-0.022,0.861-0.04s0.616-0.044,0.937-0.079
		c0.318-0.035,0.619-0.079,0.9-0.132L75.546,45.168z M74.535,44.456c-0.088,0-0.19,0-0.308,0s-0.234,0-0.352,0
		s-0.229,0.002-0.334,0.005s-0.193,0.004-0.264,0.004c-0.035,0-0.084,0.003-0.145,0.009c-0.062,0.006-0.13,0.013-0.203,0.022
		c-0.073,0.008-0.15,0.018-0.232,0.025c-0.082,0.01-0.158,0.02-0.229,0.031l-0.352-0.694c0.24,0.047,0.445,0.081,0.615,0.101
		c0.17,0.021,0.334,0.031,0.492,0.031c0.064,0,0.154-0.003,0.268-0.009c0.115-0.006,0.24-0.015,0.379-0.026
		c0.137-0.012,0.276-0.023,0.417-0.035s0.27-0.026,0.387-0.044L74.535,44.456z M74.72,42.197c0,0.105-0.004,0.229-0.014,0.369
		c-0.008,0.141-0.019,0.281-0.03,0.422s-0.025,0.272-0.04,0.396s-0.03,0.223-0.048,0.299l-0.782,0.114
		c-0.012-0.059-0.021-0.139-0.031-0.242c-0.008-0.102-0.016-0.207-0.021-0.316c-0.006-0.107-0.012-0.216-0.018-0.324
		s-0.009-0.201-0.009-0.277v-2.32c0-0.17-0.081-0.309-0.241-0.418c-0.162-0.107-0.436-0.212-0.822-0.312l0.149-0.387
		c0.146,0.018,0.314,0.041,0.505,0.07s0.379,0.062,0.562,0.097c0.186,0.035,0.361,0.067,0.527,0.097
		c0.168,0.029,0.304,0.053,0.409,0.07c-0.012,0.053-0.023,0.123-0.035,0.211s-0.022,0.176-0.03,0.264
		c-0.01,0.088-0.017,0.166-0.022,0.233s-0.009,0.104-0.009,0.109v1.204c0.123-0.012,0.261-0.024,0.413-0.04
		c0.152-0.014,0.306-0.031,0.462-0.053c0.154-0.02,0.304-0.04,0.447-0.061s0.274-0.04,0.392-0.058l-0.105,0.817
		c-0.088-0.006-0.198-0.009-0.329-0.009c-0.133,0-0.271,0-0.418,0s-0.295,0-0.443,0c-0.15,0-0.289,0-0.418,0V42.197z M72.856,46.557
		c0,0.094,0.018,0.183,0.053,0.268s0.082,0.161,0.141,0.229s0.126,0.12,0.202,0.158s0.158,0.058,0.246,0.058
		c0.076,0,0.15-0.02,0.224-0.058s0.14-0.089,0.198-0.153s0.105-0.14,0.141-0.224c0.035-0.086,0.053-0.178,0.053-0.277
		c0-0.094-0.017-0.185-0.048-0.272c-0.033-0.088-0.077-0.164-0.133-0.229s-0.121-0.117-0.197-0.158s-0.155-0.062-0.237-0.062
		c-0.182,0-0.334,0.063-0.457,0.189S72.856,46.328,72.856,46.557z"/>
	<path d="M79.571,41.116c0.258,0.047,0.493,0.123,0.708,0.229c0.213,0.105,0.396,0.237,0.549,0.396s0.27,0.336,0.352,0.531
		c0.082,0.197,0.123,0.406,0.123,0.629c0,0.264-0.056,0.509-0.167,0.734s-0.266,0.42-0.462,0.584s-0.43,0.293-0.703,0.387
		c-0.271,0.094-0.566,0.141-0.883,0.141s-0.608-0.047-0.875-0.141s-0.496-0.223-0.689-0.387s-0.346-0.358-0.457-0.584
		s-0.167-0.471-0.167-0.734c0-0.234,0.045-0.454,0.136-0.659s0.217-0.387,0.379-0.545c0.16-0.158,0.354-0.29,0.58-0.396
		c0.225-0.105,0.473-0.173,0.742-0.202c0.006-0.094-0.015-0.167-0.062-0.22s-0.146-0.103-0.299-0.149l0.193-0.334
		c0.059,0.018,0.138,0.038,0.237,0.062s0.203,0.047,0.312,0.07c0.107,0.023,0.215,0.046,0.32,0.066s0.193,0.039,0.264,0.057
		C79.656,40.762,79.612,40.917,79.571,41.116z M80.274,42.874c0-0.182-0.032-0.35-0.097-0.505s-0.149-0.291-0.255-0.404
		c-0.105-0.115-0.229-0.205-0.369-0.273c-0.141-0.066-0.29-0.101-0.448-0.101s-0.307,0.034-0.443,0.101
		c-0.139,0.068-0.259,0.158-0.361,0.273c-0.103,0.113-0.184,0.249-0.246,0.404c-0.061,0.155-0.092,0.323-0.092,0.505
		c0,0.188,0.031,0.357,0.092,0.51c0.062,0.152,0.144,0.283,0.246,0.392s0.223,0.193,0.361,0.254
		c0.137,0.062,0.285,0.093,0.443,0.093s0.308-0.03,0.448-0.093c0.141-0.061,0.265-0.146,0.374-0.254
		c0.107-0.108,0.193-0.239,0.254-0.392C80.244,43.231,80.274,43.062,80.274,42.874z M83.333,45.177c0,0.182-0.005,0.392-0.013,0.628
		c-0.01,0.238-0.021,0.477-0.035,0.717c-0.016,0.24-0.03,0.469-0.045,0.686s-0.03,0.39-0.048,0.519l-0.773,0.105
		c-0.012-0.094-0.022-0.222-0.03-0.382c-0.01-0.162-0.018-0.336-0.027-0.523c-0.008-0.188-0.015-0.378-0.018-0.571
		s-0.004-0.375-0.004-0.545v-5.493c0-0.17-0.082-0.309-0.246-0.418c-0.164-0.107-0.439-0.212-0.826-0.312l0.176-0.387
		c0.146,0.018,0.312,0.041,0.496,0.07c0.186,0.029,0.371,0.062,0.559,0.097s0.365,0.067,0.531,0.097
		c0.168,0.029,0.307,0.053,0.418,0.07c-0.018,0.053-0.032,0.123-0.044,0.211s-0.023,0.176-0.035,0.264s-0.021,0.166-0.026,0.233
		s-0.009,0.104-0.009,0.109v2.355c0.129-0.012,0.272-0.024,0.431-0.039s0.314-0.031,0.471-0.049
		c0.154-0.018,0.304-0.036,0.447-0.057s0.269-0.043,0.374-0.066l-0.088,0.817c-0.088-0.006-0.198-0.009-0.329-0.009
		c-0.133,0-0.273,0-0.422,0c-0.15,0-0.301,0-0.453,0s-0.296,0-0.431,0V45.177z"/>
	<path d="M86.55,41.74c0,0.105-0.037,0.208-0.109,0.308c-0.074,0.1-0.178,0.161-0.312,0.185c-0.111,0.023-0.214,0.02-0.308-0.014
		c-0.094-0.031-0.175-0.08-0.241-0.145c-0.068-0.064-0.122-0.139-0.163-0.225c-0.041-0.084-0.062-0.171-0.062-0.259
		c-0.006-0.246,0.044-0.472,0.149-0.677s0.249-0.383,0.431-0.531c0.182-0.15,0.393-0.266,0.633-0.348s0.492-0.123,0.756-0.123
		c0.275,0,0.531,0.035,0.77,0.105c0.236,0.07,0.443,0.178,0.619,0.32c0.176,0.145,0.314,0.323,0.418,0.537
		c0.102,0.214,0.153,0.461,0.153,0.742c0,0.135-0.028,0.278-0.083,0.431c-0.057,0.152-0.13,0.307-0.221,0.462
		s-0.191,0.311-0.303,0.465c-0.111,0.156-0.223,0.304-0.334,0.444c-0.229,0.299-0.4,0.603-0.514,0.909
		c-0.115,0.309-0.172,0.658-0.172,1.051h-0.633c-0.018-0.398,0.018-0.757,0.105-1.076s0.246-0.652,0.475-0.998
		c0.07-0.105,0.146-0.225,0.229-0.355c0.082-0.133,0.156-0.271,0.225-0.418c0.066-0.146,0.121-0.297,0.162-0.453
		c0.041-0.154,0.062-0.309,0.062-0.461c-0.006-0.451-0.105-0.779-0.299-0.984s-0.425-0.308-0.694-0.308
		c-0.141,0-0.274,0.022-0.4,0.065c-0.126,0.045-0.235,0.104-0.329,0.176c-0.094,0.074-0.169,0.157-0.224,0.251
		c-0.057,0.094-0.084,0.19-0.084,0.29c0,0.053,0.016,0.097,0.049,0.132c0.031,0.035,0.065,0.073,0.101,0.114
		s0.068,0.092,0.101,0.154C86.533,41.568,86.55,41.646,86.55,41.74z M87.323,45.88c0.094,0,0.183,0.018,0.268,0.053
		s0.158,0.083,0.221,0.146c0.061,0.061,0.11,0.131,0.148,0.211c0.038,0.078,0.058,0.159,0.058,0.241s-0.02,0.163-0.058,0.241
		c-0.038,0.08-0.088,0.148-0.148,0.207c-0.062,0.059-0.136,0.105-0.221,0.141s-0.174,0.053-0.268,0.053
		c-0.193,0-0.357-0.064-0.492-0.193s-0.202-0.278-0.202-0.448c0-0.082,0.018-0.163,0.053-0.241c0.035-0.08,0.085-0.15,0.149-0.211
		c0.064-0.062,0.138-0.11,0.22-0.146S87.224,45.88,87.323,45.88z"/>
	<path d="M4.904,82.707c0.252-0.012,0.483-0.022,0.694-0.03c0.211-0.01,0.381-0.017,0.51-0.022c0.193-0.006,0.396-0.018,0.606-0.035
		s0.42-0.035,0.629-0.053c0.207-0.018,0.408-0.036,0.602-0.058c0.193-0.02,0.372-0.042,0.536-0.065l-0.141,0.817
		c-0.117-0.006-0.257-0.012-0.417-0.018c-0.162-0.006-0.336-0.012-0.523-0.018s-0.381-0.012-0.58-0.018
		C6.621,83.203,6.425,83.2,6.231,83.2c-0.158,0-0.362,0.001-0.61,0.004c-0.25,0.003-0.52,0.009-0.809,0.018
		c-0.291,0.009-0.59,0.018-0.896,0.025c-0.309,0.01-0.6,0.018-0.875,0.027c-0.275,0.008-0.523,0.018-0.742,0.025
		c-0.221,0.01-0.386,0.017-0.497,0.022c-0.105,0.006-0.222,0.015-0.347,0.026c-0.127,0.012-0.254,0.023-0.383,0.035
		s-0.257,0.025-0.383,0.039c-0.126,0.016-0.238,0.028-0.338,0.04L0,82.593c0.264,0.035,0.562,0.066,0.896,0.092
		c0.334,0.027,0.633,0.046,0.896,0.058c0.105,0.006,0.235,0.009,0.391,0.009s0.326,0,0.51,0c0.186,0,0.383-0.001,0.594-0.004
		s0.428-0.005,0.65-0.005v-0.809c-0.27,0.012-0.524,0.021-0.765,0.026s-0.454,0.015-0.642,0.026
		c-0.117,0.012-0.219,0.005-0.303-0.022c-0.086-0.025-0.157-0.068-0.216-0.127S1.91,81.71,1.881,81.63
		c-0.029-0.078-0.044-0.162-0.044-0.25v-1.45c0-0.111-0.008-0.203-0.022-0.276s-0.048-0.135-0.101-0.186
		c-0.053-0.049-0.129-0.095-0.229-0.136S1.248,79.247,1.072,79.2l0.202-0.387c0.252,0.047,0.542,0.081,0.87,0.102
		s0.675,0.033,1.041,0.039s0.735,0.003,1.107-0.009s0.727-0.027,1.064-0.048c0.336-0.021,0.644-0.043,0.922-0.066
		s0.506-0.05,0.682-0.079l-0.167,0.8c-0.352-0.018-0.708-0.031-1.067-0.039c-0.361-0.01-0.713-0.014-1.055-0.014
		c-0.344,0-0.672,0.004-0.984,0.014c-0.314,0.008-0.6,0.021-0.857,0.039v0.677c0.293-0.006,0.624-0.018,0.993-0.035
		s0.735-0.038,1.099-0.062s0.707-0.05,1.033-0.079c0.324-0.029,0.59-0.059,0.795-0.088l-0.114,0.773
		c-0.287-0.012-0.597-0.021-0.927-0.026c-0.332-0.006-0.666-0.007-1.002-0.004c-0.338,0.003-0.667,0.008-0.989,0.018
		C3.396,80.733,3.1,80.741,2.83,80.747v0.466c0,0.047,0,0.085,0,0.114s0.007,0.05,0.021,0.062s0.037,0.021,0.066,0.026
		s0.073,0.009,0.132,0.009c0.217,0.006,0.493,0.002,0.831-0.013c0.336-0.015,0.69-0.034,1.062-0.058s0.74-0.053,1.104-0.088
		s0.683-0.07,0.958-0.105l-0.167,0.791c-0.299-0.012-0.611-0.021-0.936-0.026c-0.326-0.006-0.658-0.009-0.998-0.009V82.707z
		 M4.86,83.911c0.229,0.035,0.439,0.099,0.633,0.189s0.36,0.201,0.501,0.334c0.141,0.131,0.249,0.279,0.325,0.443
		s0.114,0.337,0.114,0.519c0,0.211-0.052,0.41-0.154,0.598s-0.246,0.349-0.43,0.483c-0.186,0.135-0.403,0.242-0.655,0.32
		c-0.252,0.08-0.527,0.119-0.826,0.119s-0.574-0.039-0.826-0.119c-0.252-0.078-0.47-0.186-0.655-0.32
		c-0.184-0.135-0.328-0.296-0.43-0.483c-0.104-0.188-0.154-0.387-0.154-0.598c0-0.193,0.041-0.374,0.123-0.54
		c0.082-0.168,0.196-0.316,0.343-0.449c0.146-0.131,0.323-0.241,0.532-0.329c0.207-0.088,0.438-0.146,0.689-0.176
		c-0.012-0.088-0.046-0.152-0.102-0.193s-0.159-0.082-0.312-0.123l0.229-0.316c0.059,0.012,0.139,0.029,0.241,0.053
		s0.21,0.047,0.321,0.07s0.221,0.047,0.329,0.07s0.201,0.041,0.277,0.053c-0.012,0.047-0.031,0.104-0.057,0.171
		C4.891,83.755,4.872,83.829,4.86,83.911z M5.423,85.344c0-0.141-0.029-0.273-0.088-0.399s-0.136-0.234-0.233-0.326
		c-0.096-0.09-0.209-0.162-0.338-0.215s-0.261-0.079-0.396-0.079c-0.141,0-0.272,0.026-0.396,0.079s-0.231,0.125-0.325,0.215
		c-0.094,0.092-0.169,0.2-0.224,0.326C3.367,85.07,3.34,85.203,3.34,85.344s0.027,0.272,0.084,0.396
		c0.055,0.123,0.13,0.229,0.224,0.316s0.202,0.156,0.325,0.207c0.123,0.049,0.255,0.074,0.396,0.074s0.273-0.025,0.399-0.074
		c0.126-0.051,0.238-0.119,0.334-0.207c0.098-0.088,0.175-0.193,0.233-0.316S5.423,85.484,5.423,85.344z"/>
	<path d="M13.456,82.707c0.252-0.012,0.483-0.022,0.694-0.03c0.211-0.01,0.381-0.017,0.51-0.022
		c0.193-0.006,0.396-0.018,0.606-0.035s0.42-0.035,0.629-0.053c0.207-0.018,0.408-0.036,0.602-0.058
		c0.193-0.02,0.372-0.042,0.536-0.065l-0.141,0.817c-0.117-0.006-0.257-0.012-0.417-0.018c-0.162-0.006-0.336-0.012-0.523-0.018
		s-0.381-0.012-0.58-0.018c-0.199-0.005-0.396-0.008-0.589-0.008c-0.158,0-0.362,0.001-0.61,0.004
		c-0.25,0.003-0.52,0.009-0.809,0.018c-0.291,0.009-0.59,0.018-0.896,0.025c-0.309,0.01-0.6,0.018-0.875,0.027
		c-0.275,0.008-0.523,0.018-0.742,0.025c-0.221,0.01-0.386,0.017-0.497,0.022c-0.105,0.006-0.222,0.015-0.347,0.026
		c-0.127,0.012-0.254,0.023-0.383,0.035s-0.257,0.025-0.383,0.039c-0.126,0.016-0.238,0.028-0.338,0.04l-0.352-0.87
		c0.264,0.035,0.562,0.066,0.896,0.092c0.334,0.027,0.633,0.046,0.896,0.058c0.105,0.006,0.235,0.009,0.391,0.009s0.326,0,0.51,0
		c0.186,0,0.383-0.001,0.594-0.004s0.428-0.005,0.65-0.005v-0.809c-0.27,0.012-0.524,0.021-0.765,0.026s-0.454,0.015-0.642,0.026
		c-0.117,0.012-0.219,0.005-0.303-0.022c-0.086-0.025-0.157-0.068-0.216-0.127s-0.103-0.127-0.132-0.207
		c-0.029-0.078-0.044-0.162-0.044-0.25v-1.45c0-0.111-0.008-0.203-0.022-0.276s-0.048-0.135-0.101-0.186
		c-0.053-0.049-0.129-0.095-0.229-0.136S9.8,79.247,9.624,79.2l0.202-0.387c0.252,0.047,0.542,0.081,0.87,0.102
		s0.675,0.033,1.041,0.039s0.735,0.003,1.107-0.009s0.727-0.027,1.064-0.048c0.336-0.021,0.644-0.043,0.922-0.066
		s0.506-0.05,0.682-0.079l-0.167,0.8c-0.352-0.018-0.708-0.031-1.067-0.039c-0.361-0.01-0.713-0.014-1.055-0.014
		c-0.344,0-0.672,0.004-0.984,0.014c-0.314,0.008-0.6,0.021-0.857,0.039v0.677c0.293-0.006,0.624-0.018,0.993-0.035
		s0.735-0.038,1.099-0.062s0.707-0.05,1.033-0.079c0.324-0.029,0.59-0.059,0.795-0.088l-0.114,0.773
		c-0.287-0.012-0.597-0.021-0.927-0.026c-0.332-0.006-0.666-0.007-1.002-0.004c-0.338,0.003-0.667,0.008-0.989,0.018
		c-0.322,0.008-0.618,0.016-0.888,0.021v0.466c0,0.047,0,0.085,0,0.114s0.007,0.05,0.021,0.062s0.037,0.021,0.066,0.026
		s0.073,0.009,0.132,0.009c0.217,0.006,0.493,0.002,0.831-0.013c0.336-0.015,0.69-0.034,1.062-0.058s0.74-0.053,1.104-0.088
		s0.683-0.07,0.958-0.105l-0.167,0.791c-0.299-0.012-0.611-0.021-0.936-0.026c-0.326-0.006-0.658-0.009-0.998-0.009V82.707z
		 M13.412,83.911c0.229,0.035,0.439,0.099,0.633,0.189s0.36,0.201,0.501,0.334c0.141,0.131,0.249,0.279,0.325,0.443
		s0.114,0.337,0.114,0.519c0,0.211-0.052,0.41-0.154,0.598s-0.246,0.349-0.43,0.483c-0.186,0.135-0.403,0.242-0.655,0.32
		c-0.252,0.08-0.527,0.119-0.826,0.119s-0.574-0.039-0.826-0.119c-0.252-0.078-0.47-0.186-0.655-0.32
		c-0.184-0.135-0.328-0.296-0.43-0.483c-0.104-0.188-0.154-0.387-0.154-0.598c0-0.193,0.041-0.374,0.123-0.54
		c0.082-0.168,0.196-0.316,0.343-0.449c0.146-0.131,0.323-0.241,0.532-0.329c0.207-0.088,0.438-0.146,0.689-0.176
		c-0.012-0.088-0.046-0.152-0.102-0.193s-0.159-0.082-0.312-0.123l0.229-0.316c0.059,0.012,0.139,0.029,0.241,0.053
		s0.21,0.047,0.321,0.07s0.221,0.047,0.329,0.07s0.201,0.041,0.277,0.053c-0.012,0.047-0.031,0.104-0.057,0.171
		C13.442,83.755,13.424,83.829,13.412,83.911z M13.975,85.344c0-0.141-0.029-0.273-0.088-0.399s-0.136-0.234-0.233-0.326
		c-0.096-0.09-0.209-0.162-0.338-0.215s-0.261-0.079-0.396-0.079c-0.141,0-0.272,0.026-0.396,0.079s-0.231,0.125-0.325,0.215
		c-0.094,0.092-0.169,0.2-0.224,0.326c-0.057,0.126-0.084,0.259-0.084,0.399s0.027,0.272,0.084,0.396
		c0.055,0.123,0.13,0.229,0.224,0.316s0.202,0.156,0.325,0.207c0.123,0.049,0.255,0.074,0.396,0.074s0.273-0.025,0.399-0.074
		c0.126-0.051,0.238-0.119,0.334-0.207c0.098-0.088,0.175-0.193,0.233-0.316S13.975,85.484,13.975,85.344z"/>
	<path d="M22.553,80.668c-0.129-0.006-0.292-0.008-0.488-0.005s-0.408,0.006-0.637,0.009s-0.465,0.008-0.707,0.014
		c-0.244,0.006-0.477,0.013-0.699,0.022c-0.223,0.008-0.43,0.016-0.619,0.021c-0.191,0.006-0.348,0.012-0.471,0.018
		c-0.076,0-0.175,0.006-0.295,0.018s-0.243,0.023-0.369,0.035s-0.247,0.025-0.364,0.039c-0.117,0.016-0.211,0.028-0.281,0.04
		l-0.378-0.853c0.07,0.018,0.168,0.037,0.295,0.057c0.125,0.021,0.257,0.04,0.395,0.058s0.271,0.032,0.4,0.044
		c0.129,0.013,0.231,0.019,0.308,0.019c0.193-0.006,0.455-0.014,0.786-0.022s0.688-0.025,1.068-0.049s0.765-0.053,1.151-0.088
		s0.732-0.079,1.037-0.132L22.553,80.668z M21.955,82.461c0,0.193-0.049,0.38-0.145,0.558c-0.098,0.18-0.23,0.338-0.4,0.475
		c-0.17,0.139-0.372,0.246-0.606,0.326c-0.234,0.078-0.486,0.118-0.756,0.118s-0.521-0.041-0.751-0.123
		c-0.232-0.082-0.433-0.19-0.603-0.325s-0.304-0.291-0.399-0.471c-0.098-0.178-0.146-0.364-0.146-0.558
		c0-0.211,0.05-0.407,0.149-0.589s0.234-0.337,0.404-0.466s0.37-0.229,0.602-0.304c0.231-0.072,0.479-0.109,0.743-0.109
		c0.281,0,0.539,0.039,0.773,0.119c0.234,0.078,0.435,0.188,0.603,0.324c0.166,0.139,0.297,0.295,0.391,0.471
		S21.955,82.268,21.955,82.461z M21.252,79.666c-0.094,0-0.201,0-0.32,0c-0.121,0-0.244,0.001-0.369,0.004
		c-0.127,0.003-0.246,0.006-0.361,0.009c-0.113,0.004-0.209,0.005-0.285,0.005c-0.041,0-0.103,0.003-0.185,0.009
		s-0.173,0.014-0.272,0.021c-0.1,0.01-0.199,0.018-0.299,0.027c-0.1,0.008-0.188,0.019-0.264,0.03l-0.431-0.765
		c0.07,0.018,0.167,0.035,0.29,0.053s0.25,0.034,0.383,0.049c0.131,0.015,0.257,0.025,0.377,0.035
		c0.12,0.008,0.213,0.013,0.277,0.013c0.07,0,0.172-0.005,0.303-0.013c0.133-0.01,0.274-0.021,0.427-0.035s0.308-0.031,0.466-0.049
		s0.302-0.035,0.431-0.053L21.252,79.666z M24.486,86.609c-0.363-0.012-0.732-0.018-1.107-0.018s-0.741,0.005-1.099,0.013
		c-0.357,0.01-0.698,0.021-1.024,0.035c-0.324,0.015-0.616,0.028-0.874,0.04c-0.229,0.012-0.397-0.035-0.505-0.14
		c-0.109-0.105-0.163-0.226-0.163-0.359v-0.918c0-0.122-0.006-0.22-0.018-0.293s-0.043-0.135-0.093-0.187s-0.124-0.096-0.224-0.132
		s-0.24-0.078-0.422-0.125l0.193-0.404c0.082,0.018,0.196,0.037,0.343,0.057c0.146,0.021,0.3,0.042,0.461,0.062
		s0.316,0.041,0.467,0.061c0.148,0.021,0.271,0.04,0.364,0.058c-0.006,0.035-0.012,0.082-0.018,0.141s-0.012,0.122-0.018,0.188
		c-0.006,0.068-0.012,0.136-0.018,0.203s-0.009,0.127-0.009,0.18v0.826c0,0.1,0.009,0.158,0.026,0.176s0.076,0.029,0.176,0.035
		c0.217,0,0.484-0.008,0.804-0.021c0.319-0.016,0.65-0.037,0.994-0.066c0.342-0.029,0.681-0.061,1.015-0.092
		c0.334-0.032,0.624-0.066,0.87-0.102L24.486,86.609z M19.187,82.426c0,0.135,0.023,0.259,0.07,0.374
		c0.047,0.113,0.11,0.214,0.188,0.299c0.08,0.085,0.172,0.152,0.277,0.201c0.105,0.051,0.217,0.075,0.334,0.075
		c0.111,0,0.218-0.023,0.32-0.07s0.195-0.112,0.277-0.198c0.082-0.084,0.147-0.184,0.197-0.299c0.05-0.113,0.075-0.241,0.075-0.382
		c0-0.123-0.023-0.243-0.07-0.36s-0.111-0.22-0.193-0.308s-0.176-0.158-0.281-0.211s-0.214-0.079-0.325-0.079
		c-0.117,0-0.229,0.023-0.334,0.07s-0.197,0.113-0.277,0.197c-0.078,0.086-0.142,0.187-0.188,0.304S19.187,82.285,19.187,82.426z
		 M23.941,83.076c0,0.129-0.004,0.272-0.014,0.431c-0.008,0.158-0.019,0.316-0.03,0.475s-0.025,0.31-0.04,0.453
		s-0.03,0.262-0.048,0.355l-0.791,0.123c-0.006-0.07-0.013-0.168-0.022-0.295c-0.008-0.125-0.016-0.264-0.021-0.412
		c-0.006-0.15-0.012-0.299-0.018-0.449c-0.006-0.148-0.009-0.279-0.009-0.391v-3.85c0-0.17-0.082-0.309-0.246-0.418
		c-0.164-0.107-0.439-0.212-0.826-0.312l0.176-0.387c0.141,0.018,0.305,0.041,0.492,0.07s0.375,0.062,0.562,0.097
		s0.364,0.067,0.532,0.097c0.166,0.029,0.306,0.053,0.417,0.07c-0.018,0.053-0.032,0.123-0.044,0.211s-0.023,0.176-0.035,0.264
		s-0.021,0.166-0.026,0.233s-0.009,0.104-0.009,0.109v2.153c0.129-0.012,0.27-0.024,0.422-0.04c0.152-0.014,0.305-0.031,0.457-0.053
		c0.152-0.02,0.3-0.042,0.443-0.065s0.269-0.047,0.374-0.07l-0.07,0.8c-0.088,0-0.198,0-0.329,0c-0.133,0-0.273,0-0.422,0
		c-0.15,0-0.301,0-0.453,0s-0.293,0-0.422,0V83.076z"/>
	<path d="M33.469,79.763c-0.17,0.451-0.401,0.887-0.694,1.305c-0.293,0.42-0.632,0.813-1.015,1.183
		c-0.385,0.369-0.807,0.711-1.266,1.024c-0.461,0.313-0.942,0.596-1.446,0.848l-0.246-0.334c0.357-0.193,0.71-0.429,1.06-0.707
		c0.348-0.278,0.672-0.576,0.971-0.893s0.563-0.643,0.795-0.98c0.231-0.336,0.412-0.663,0.541-0.979
		c-0.264,0-0.507,0.006-0.729,0.018s-0.396,0.023-0.519,0.035c-0.059,0.006-0.14,0.012-0.242,0.018s-0.214,0.017-0.334,0.03
		c-0.12,0.016-0.243,0.031-0.369,0.049s-0.238,0.038-0.338,0.062l-0.545-0.826c0.07,0.012,0.17,0.023,0.299,0.035
		s0.268,0.025,0.418,0.04c0.148,0.015,0.295,0.025,0.439,0.035c0.143,0.008,0.265,0.013,0.364,0.013
		c0.234,0,0.475-0.007,0.721-0.022c0.246-0.014,0.48-0.031,0.703-0.053c0.223-0.02,0.427-0.043,0.61-0.07
		c0.186-0.025,0.33-0.051,0.436-0.074L33.469,79.763z M33.469,84.605c0.199,0.141,0.42,0.284,0.664,0.431
		c0.242,0.146,0.49,0.29,0.742,0.431s0.502,0.274,0.752,0.399c0.248,0.126,0.479,0.233,0.689,0.321l-0.721,0.694
		c-0.428-0.316-0.85-0.633-1.266-0.949s-0.826-0.624-1.23-0.923c-0.41,0.451-0.87,0.85-1.38,1.195s-1.017,0.624-1.521,0.835
		l-0.246-0.325c0.334-0.182,0.648-0.386,0.945-0.61c0.295-0.226,0.566-0.46,0.812-0.703s0.46-0.486,0.642-0.73
		c0.182-0.242,0.325-0.47,0.431-0.681c0.012-0.041,0.021-0.073,0.026-0.097s0.01-0.045,0.013-0.066
		c0.003-0.02-0.008-0.039-0.035-0.057c-0.025-0.018-0.077-0.056-0.153-0.114s-0.214-0.138-0.413-0.237l0.264-0.308
		c0.111,0.029,0.238,0.063,0.383,0.101c0.143,0.039,0.286,0.08,0.43,0.123c0.144,0.045,0.286,0.09,0.427,0.137
		s0.264,0.091,0.369,0.132c-0.082,0.17-0.176,0.34-0.281,0.51S33.592,84.447,33.469,84.605z M34.646,81.96
		c-0.311,0.012-0.626,0.037-0.945,0.074c-0.319,0.039-0.602,0.09-0.848,0.154l-0.378-0.782c0.064,0.012,0.152,0.021,0.264,0.026
		s0.229,0.012,0.352,0.018s0.243,0.011,0.36,0.014s0.217,0.004,0.299,0.004c0.117-0.006,0.249-0.01,0.396-0.014
		c0.146-0.002,0.313-0.004,0.501-0.004v-1.934c0-0.17-0.087-0.309-0.26-0.418c-0.173-0.107-0.452-0.212-0.839-0.312L33.75,78.4
		c0.135,0.018,0.293,0.041,0.475,0.07s0.366,0.062,0.554,0.097s0.367,0.067,0.54,0.097s0.318,0.053,0.436,0.07
		c-0.012,0.053-0.023,0.123-0.035,0.211s-0.023,0.176-0.035,0.264s-0.021,0.166-0.031,0.233c-0.008,0.067-0.013,0.104-0.013,0.109
		v3.111c0,0.129-0.005,0.272-0.013,0.431c-0.01,0.158-0.021,0.316-0.035,0.475c-0.016,0.158-0.033,0.308-0.053,0.448
		c-0.021,0.141-0.04,0.258-0.058,0.352L34.717,84.5c-0.012-0.076-0.021-0.181-0.026-0.312c-0.006-0.133-0.013-0.271-0.022-0.418
		c-0.008-0.146-0.015-0.293-0.018-0.439s-0.004-0.27-0.004-0.369V81.96z"/>
	<path d="M41.88,85.01c0.211-0.012,0.402-0.021,0.576-0.026c0.172-0.006,0.314-0.012,0.426-0.018
		c0.193-0.006,0.396-0.018,0.606-0.035s0.42-0.036,0.628-0.057s0.409-0.043,0.603-0.066s0.369-0.044,0.527-0.062l-0.123,0.817
		c-0.117-0.006-0.257-0.012-0.417-0.018c-0.162-0.006-0.338-0.01-0.527-0.014c-0.191-0.002-0.387-0.005-0.59-0.008
		c-0.201-0.003-0.399-0.005-0.593-0.005c-0.158,0-0.354,0.002-0.585,0.005s-0.48,0.008-0.746,0.018
		c-0.268,0.008-0.541,0.018-0.822,0.025c-0.281,0.01-0.548,0.018-0.8,0.027c-0.252,0.008-0.48,0.019-0.686,0.03
		s-0.363,0.021-0.475,0.026c-0.223,0.012-0.469,0.031-0.738,0.057c-0.27,0.027-0.513,0.058-0.729,0.093l-0.325-0.905
		c0.129,0.018,0.269,0.034,0.417,0.049c0.15,0.015,0.304,0.027,0.462,0.039s0.314,0.021,0.47,0.031
		c0.155,0.008,0.301,0.016,0.436,0.021c0.105,0.006,0.232,0.009,0.383,0.009c0.148,0,0.312,0,0.487,0s0.36-0.001,0.554-0.004
		s0.39-0.008,0.589-0.014V83.05c-0.322,0.006-0.62,0.012-0.892,0.018c-0.273,0.006-0.512,0.015-0.717,0.026
		c-0.229,0.018-0.4-0.036-0.514-0.163c-0.115-0.125-0.172-0.273-0.172-0.443V80.51c0-0.111-0.008-0.205-0.021-0.281
		c-0.016-0.076-0.049-0.141-0.102-0.193s-0.129-0.098-0.229-0.136s-0.237-0.078-0.413-0.119l0.193-0.378
		c0.252,0.041,0.55,0.072,0.892,0.093c0.344,0.021,0.705,0.032,1.086,0.035s0.77,0,1.164-0.01c0.396-0.008,0.772-0.021,1.13-0.039
		s0.681-0.038,0.972-0.062c0.289-0.023,0.522-0.05,0.698-0.079l-0.158,0.773c-0.352-0.018-0.72-0.031-1.103-0.039
		c-0.385-0.01-0.764-0.014-1.139-0.014s-0.734,0.004-1.076,0.014c-0.344,0.008-0.644,0.021-0.901,0.039v2.206
		c0,0.047,0,0.083,0,0.11c0,0.025,0.007,0.047,0.022,0.061c0.014,0.016,0.036,0.024,0.065,0.027s0.073,0.004,0.132,0.004
		c0.217,0.006,0.506,0.003,0.865-0.009c0.361-0.012,0.743-0.029,1.147-0.053s0.801-0.053,1.19-0.088s0.723-0.07,0.998-0.105
		l-0.141,0.8c-0.293-0.012-0.609-0.021-0.949-0.026s-0.686-0.006-1.037,0V85.01z"/>
	<path d="M4.128,121.89c-0.316-0.012-0.644-0.012-0.979,0c-0.338,0.012-0.661,0.029-0.972,0.053c-0.018,0.047-0.03,0.091-0.04,0.132
		c-0.008,0.041-0.019,0.082-0.03,0.123c-0.123,0.012-0.246,0.029-0.369,0.053s-0.246,0.041-0.369,0.053
		c-0.006-0.053-0.012-0.12-0.018-0.202s-0.012-0.167-0.018-0.255s-0.012-0.177-0.018-0.268s-0.009-0.175-0.009-0.251v-1.811
		c0-0.088-0.009-0.164-0.026-0.229s-0.053-0.12-0.105-0.167s-0.128-0.088-0.224-0.123c-0.098-0.035-0.225-0.07-0.383-0.105
		c0.029-0.059,0.059-0.117,0.088-0.176s0.059-0.117,0.088-0.176c0.1,0.012,0.22,0.025,0.36,0.039
		c0.141,0.016,0.286,0.033,0.435,0.053c0.15,0.021,0.298,0.043,0.444,0.066s0.275,0.044,0.387,0.062
		c-0.012,0.053-0.022,0.12-0.03,0.202c-0.01,0.082-0.02,0.161-0.031,0.237s-0.021,0.144-0.026,0.202s-0.009,0.097-0.009,0.114v0.202
		c0.281-0.006,0.578-0.021,0.893-0.044c0.312-0.023,0.619-0.044,0.918-0.062v-0.439c0-0.088-0.011-0.161-0.031-0.22
		s-0.06-0.111-0.118-0.158s-0.138-0.088-0.237-0.123s-0.231-0.076-0.396-0.123c0.029-0.064,0.058-0.128,0.083-0.188
		c0.027-0.062,0.052-0.125,0.075-0.189c0.123,0.012,0.262,0.028,0.417,0.049s0.311,0.041,0.467,0.061
		c0.154,0.021,0.304,0.043,0.447,0.066s0.271,0.047,0.383,0.07c-0.012,0.054-0.023,0.122-0.035,0.204
		c-0.012,0.083-0.023,0.163-0.035,0.239c-0.012,0.077-0.021,0.146-0.031,0.204c-0.008,0.06-0.013,0.098-0.013,0.115v0.143
		c0.111,0.012,0.243,0.019,0.396,0.022c0.152,0.003,0.296,0.004,0.431,0.004c0.047,0,0.12-0.003,0.22-0.009s0.176-0.009,0.229-0.009
		v-0.604c0-0.172-0.085-0.313-0.255-0.425s-0.451-0.217-0.844-0.316c0.035-0.064,0.07-0.129,0.105-0.193s0.067-0.129,0.097-0.193
		c0.135,0.018,0.295,0.041,0.479,0.07c0.186,0.029,0.371,0.062,0.559,0.097s0.367,0.067,0.541,0.097
		c0.172,0.029,0.314,0.053,0.426,0.07c-0.012,0.053-0.021,0.123-0.031,0.211c-0.008,0.088-0.019,0.176-0.03,0.264
		s-0.021,0.166-0.026,0.233s-0.009,0.104-0.009,0.109v2.083c0,0.105-0.006,0.23-0.018,0.374s-0.026,0.287-0.044,0.43
		c-0.018,0.145-0.037,0.279-0.057,0.404c-0.021,0.127-0.04,0.225-0.058,0.295c-0.123,0.018-0.248,0.037-0.374,0.057
		c-0.126,0.021-0.253,0.04-0.382,0.058c-0.018-0.123-0.035-0.269-0.053-0.435c-0.018-0.168-0.026-0.327-0.026-0.479v-0.132
		c-0.158,0.012-0.337,0.034-0.536,0.066s-0.375,0.065-0.527,0.101c-0.035-0.082-0.072-0.156-0.11-0.224s-0.074-0.143-0.109-0.225
		c-0.012,0.223-0.026,0.412-0.044,0.566c-0.018,0.156-0.041,0.292-0.07,0.409c-0.135,0.012-0.263,0.029-0.382,0.053
		c-0.121,0.023-0.248,0.041-0.383,0.053c0-0.035-0.004-0.08-0.014-0.136C4.15,122.015,4.14,121.954,4.128,121.89z M6.167,123.929
		c0.006-0.135,0.01-0.272,0.013-0.413s0.008-0.278,0.014-0.413c-0.064-0.006-0.129-0.009-0.193-0.009s-0.132,0-0.202,0
		c-0.275,0-0.568,0.009-0.879,0.026s-0.589,0.032-0.835,0.044c-0.053,0.006-0.134,0.014-0.242,0.021
		c-0.108,0.01-0.226,0.02-0.352,0.031s-0.253,0.025-0.382,0.039c-0.129,0.016-0.246,0.031-0.352,0.049
		c-0.082-0.129-0.166-0.26-0.251-0.391c-0.085-0.133-0.168-0.263-0.25-0.392c0.105,0.018,0.246,0.034,0.422,0.048
		c0.176,0.016,0.354,0.03,0.536,0.045s0.346,0.024,0.492,0.03s0.243,0.009,0.29,0.009c0.229,0,0.483-0.003,0.765-0.009
		s0.571-0.013,0.87-0.022c0.299-0.008,0.595-0.021,0.888-0.039s0.565-0.041,0.817-0.07c-0.018,0.059-0.037,0.143-0.057,0.25
		c-0.021,0.109-0.043,0.227-0.066,0.352c-0.023,0.127-0.047,0.254-0.07,0.383s-0.041,0.243-0.053,0.343
		c0.035-0.006,0.07-0.007,0.105-0.005c0.035,0.004,0.073,0.002,0.114-0.004c-0.012,0.111-0.025,0.22-0.04,0.325
		s-0.027,0.214-0.039,0.325c-0.492-0.018-0.987-0.026-1.485-0.026c-0.41,0-0.785,0.003-1.125,0.009s-0.601,0.015-0.782,0.026v0.747
		c0,0.047,0.003,0.082,0.009,0.105s0.021,0.039,0.044,0.049c0.023,0.008,0.062,0.013,0.114,0.013s0.126,0,0.22,0
		c0.229,0,0.498-0.008,0.809-0.022s0.627-0.035,0.949-0.061c0.322-0.027,0.634-0.057,0.936-0.088
		c0.302-0.033,0.562-0.069,0.778-0.11c-0.023,0.135-0.047,0.27-0.07,0.404s-0.047,0.27-0.07,0.404
		c-0.223-0.006-0.459-0.011-0.708-0.013c-0.249-0.004-0.505-0.005-0.769-0.005c-0.246,0-0.491,0.003-0.733,0.009
		c-0.244,0.006-0.481,0.012-0.713,0.018s-0.451,0.012-0.658,0.018c-0.209,0.006-0.395,0.009-0.559,0.009
		c-0.205,0-0.349-0.052-0.431-0.153c-0.082-0.104-0.123-0.23-0.123-0.383v-0.571c0-0.1-0.008-0.182-0.022-0.246
		s-0.045-0.118-0.092-0.163c-0.047-0.043-0.114-0.083-0.202-0.118s-0.205-0.076-0.352-0.123c0.035-0.053,0.067-0.106,0.097-0.163
		c0.029-0.055,0.059-0.109,0.088-0.162c0.311,0.029,0.636,0.05,0.976,0.062s0.686,0.018,1.037,0.018
		c0.316,0,0.624-0.003,0.923-0.009S5.897,123.94,6.167,123.929z M4.084,120.202c-0.275,0.006-0.574,0.011-0.896,0.013
		c-0.322,0.004-0.627,0.014-0.914,0.031v0.694c0,0.088,0,0.169,0,0.241c0,0.074-0.003,0.143-0.009,0.207
		c0.281-0.006,0.581-0.018,0.901-0.035c0.318-0.018,0.625-0.035,0.918-0.053V120.202z M5.06,120.791
		c0,0.012,0.001,0.023,0.005,0.035c0.002,0.012,0.004,0.023,0.004,0.035c0.105,0.006,0.231,0.014,0.378,0.021
		c0.146,0.01,0.287,0.014,0.422,0.014c0.082,0,0.159-0.003,0.233-0.009c0.072-0.006,0.15-0.009,0.232-0.009v-1.02
		c-0.158,0.012-0.337,0.032-0.536,0.062s-0.375,0.064-0.527,0.105c-0.041-0.07-0.076-0.142-0.105-0.216
		c-0.029-0.072-0.064-0.145-0.105-0.215V120.791z"/>
	<path d="M13.559,124.28c0.211-0.012,0.401-0.021,0.571-0.026s0.311-0.012,0.422-0.018c0.193-0.006,0.396-0.018,0.606-0.035
		s0.42-0.038,0.628-0.062s0.409-0.047,0.603-0.07s0.369-0.044,0.527-0.062l-0.123,0.826c-0.117-0.006-0.257-0.012-0.417-0.018
		c-0.162-0.006-0.338-0.01-0.527-0.014c-0.191-0.002-0.387-0.005-0.59-0.008c-0.201-0.003-0.399-0.005-0.593-0.005
		c-0.158,0-0.354,0.003-0.585,0.009s-0.48,0.012-0.746,0.018c-0.268,0.006-0.541,0.015-0.822,0.026s-0.548,0.022-0.8,0.03
		c-0.252,0.01-0.48,0.018-0.686,0.027c-0.205,0.008-0.363,0.016-0.475,0.021c-0.223,0.012-0.469,0.032-0.738,0.062
		s-0.513,0.05-0.729,0.062l-0.325-0.879c0.258,0.035,0.551,0.064,0.879,0.088s0.63,0.041,0.905,0.053
		c0.217,0.012,0.507,0.017,0.87,0.014s0.747-0.011,1.151-0.022v-1.371c-0.316,0.006-0.611,0.012-0.883,0.018
		c-0.273,0.006-0.512,0.012-0.717,0.018c-0.229,0.018-0.39-0.027-0.483-0.136s-0.141-0.239-0.141-0.392v-1.055
		c0-0.105-0.008-0.19-0.022-0.255s-0.043-0.12-0.088-0.167c-0.043-0.047-0.106-0.088-0.188-0.123s-0.193-0.076-0.334-0.123
		l0.193-0.308c0.281,0.029,0.603,0.05,0.962,0.062c0.361,0.012,0.732,0.018,1.117,0.018c0.383,0,0.767-0.005,1.15-0.013
		c0.384-0.01,0.743-0.02,1.077-0.031l0.053-1.327c-0.141-0.006-0.331-0.007-0.571-0.005c-0.24,0.004-0.494,0.008-0.76,0.014
		c-0.268,0.006-0.523,0.015-0.77,0.026s-0.442,0.023-0.589,0.035c-0.064,0.006-0.151,0.013-0.259,0.022
		c-0.109,0.008-0.227,0.021-0.352,0.035c-0.127,0.015-0.254,0.029-0.383,0.043c-0.129,0.016-0.249,0.031-0.36,0.049l-0.439-0.8
		c0.053,0.012,0.139,0.026,0.259,0.044s0.251,0.034,0.392,0.049s0.279,0.027,0.417,0.039s0.251,0.018,0.339,0.018
		c0.146,0,0.328,0,0.545,0s0.452-0.003,0.708-0.009c0.254-0.006,0.521-0.01,0.799-0.013s0.551-0.011,0.818-0.022
		c0.266-0.012,0.521-0.023,0.764-0.035s0.456-0.026,0.638-0.044c-0.023,0.059-0.053,0.161-0.088,0.308s-0.059,0.275-0.07,0.387
		l-0.158,1.107c0.117-0.006,0.22-0.015,0.308-0.026l-0.07,0.659c-0.211-0.012-0.443-0.021-0.699-0.026
		c-0.254-0.006-0.516-0.009-0.781-0.009c-0.268,0-0.531,0.002-0.791,0.005c-0.262,0.003-0.506,0.007-0.734,0.013
		s-0.431,0.012-0.606,0.018s-0.311,0.012-0.404,0.018c0,0.047-0.003,0.09-0.009,0.128s-0.009,0.08-0.009,0.127v0.976
		c0,0.082,0.005,0.128,0.013,0.136c0.01,0.01,0.058,0.017,0.146,0.022c0.141,0.006,0.319,0.008,0.536,0.005s0.454-0.011,0.712-0.022
		s0.525-0.024,0.804-0.04c0.278-0.014,0.551-0.033,0.818-0.057c0.266-0.023,0.517-0.049,0.751-0.074
		c0.234-0.027,0.434-0.055,0.598-0.084l-0.158,0.809c-0.27-0.012-0.579-0.019-0.927-0.021c-0.35-0.003-0.708-0.002-1.077,0.004
		V124.28z"/>
	<path d="M20.977,121.644c0.311,0.246,0.647,0.507,1.011,0.782s0.729,0.527,1.099,0.756l-0.738,0.65
		c-0.281-0.299-0.566-0.602-0.857-0.91c-0.289-0.307-0.581-0.602-0.874-0.883c-0.387,0.41-0.809,0.787-1.266,1.129
		c-0.457,0.344-0.938,0.655-1.441,0.937l-0.264-0.334c0.398-0.258,0.78-0.55,1.147-0.874c0.365-0.326,0.698-0.665,0.997-1.02
		s0.558-0.718,0.778-1.09c0.219-0.372,0.382-0.734,0.487-1.086c-0.088,0-0.19,0.003-0.308,0.009s-0.237,0.012-0.36,0.018
		s-0.243,0.012-0.36,0.018s-0.217,0.009-0.299,0.009c-0.064,0-0.151,0.006-0.26,0.018s-0.226,0.023-0.352,0.035
		s-0.252,0.026-0.377,0.044c-0.127,0.018-0.239,0.032-0.339,0.044l-0.536-0.835c0.076,0.012,0.179,0.026,0.308,0.044
		s0.267,0.034,0.413,0.049s0.288,0.027,0.426,0.039s0.257,0.018,0.356,0.018c0.211,0,0.437-0.004,0.677-0.014
		c0.24-0.008,0.479-0.021,0.717-0.039c0.236-0.018,0.464-0.041,0.681-0.07s0.41-0.062,0.58-0.097l0.334,0.308
		C22.052,120.146,21.592,120.929,20.977,121.644z M22.55,117.601c0.135,0.018,0.293,0.041,0.475,0.07s0.366,0.062,0.554,0.097
		s0.367,0.067,0.541,0.097c0.172,0.029,0.314,0.053,0.426,0.07c-0.012,0.053-0.021,0.123-0.031,0.211
		c-0.008,0.088-0.019,0.176-0.03,0.264s-0.021,0.166-0.026,0.233s-0.009,0.104-0.009,0.109v4.825c0,0.182-0.005,0.392-0.013,0.628
		c-0.01,0.238-0.022,0.477-0.04,0.717s-0.037,0.469-0.058,0.686s-0.042,0.39-0.065,0.519l-0.729,0.105
		c-0.018-0.094-0.032-0.222-0.044-0.382c-0.012-0.162-0.022-0.336-0.03-0.523c-0.01-0.188-0.016-0.378-0.018-0.571
		c-0.004-0.193-0.005-0.375-0.005-0.545v-5.493c0-0.17-0.087-0.309-0.259-0.418c-0.174-0.107-0.453-0.212-0.84-0.312L22.55,117.601z
		"/>
	<path d="M30.17,121.67c0.064-0.012,0.129-0.021,0.193-0.031c0.064-0.008,0.123-0.016,0.176-0.021l-0.193,0.747
		c-0.193-0.018-0.406-0.029-0.638-0.035s-0.467-0.01-0.707-0.013s-0.483-0.002-0.729,0.004s-0.478,0.015-0.694,0.026
		c-0.012,0.041-0.021,0.087-0.031,0.136c-0.008,0.051-0.019,0.107-0.03,0.172l-0.703,0.123c-0.029-0.123-0.059-0.277-0.088-0.461
		c-0.029-0.186-0.05-0.354-0.062-0.506l-0.158-1.978c-0.012-0.1-0.026-0.179-0.044-0.237s-0.048-0.106-0.093-0.145
		c-0.043-0.038-0.104-0.073-0.18-0.105s-0.179-0.069-0.308-0.11l0.185-0.396c0.387,0.053,0.762,0.088,1.125,0.105
		s0.727,0.023,1.09,0.018s0.729-0.021,1.099-0.044s0.75-0.053,1.143-0.088c-0.018,0.152-0.043,0.347-0.075,0.585
		c-0.032,0.236-0.065,0.489-0.101,0.756s-0.069,0.531-0.101,0.795C30.212,121.23,30.188,121.465,30.17,121.67z M32.974,125.801
		c-0.357-0.006-0.724-0.009-1.099-0.009s-0.741,0.003-1.099,0.009s-0.699,0.015-1.023,0.026c-0.326,0.012-0.617,0.026-0.875,0.044
		c-0.229,0.018-0.396-0.027-0.501-0.136s-0.158-0.229-0.158-0.363v-1.094c0-0.122-0.006-0.22-0.018-0.293s-0.043-0.135-0.093-0.186
		s-0.126-0.094-0.229-0.129c-0.103-0.036-0.244-0.078-0.426-0.126l0.176-0.398c0.082,0.012,0.196,0.026,0.343,0.044
		s0.3,0.038,0.462,0.062c0.16,0.023,0.317,0.046,0.47,0.066s0.272,0.039,0.36,0.057c-0.006,0.035-0.012,0.083-0.018,0.142
		s-0.012,0.122-0.018,0.189c-0.006,0.068-0.012,0.134-0.018,0.199c-0.006,0.064-0.009,0.123-0.009,0.176v1.016
		c0,0.101,0.012,0.159,0.035,0.177s0.085,0.029,0.185,0.035c0.217,0.006,0.484,0,0.805-0.018c0.318-0.018,0.65-0.039,0.992-0.066
		c0.344-0.025,0.682-0.057,1.016-0.092s0.624-0.07,0.87-0.105L32.974,125.801z M29.379,119.49c-0.363-0.018-0.686-0.021-0.967-0.009
		s-0.577,0.029-0.888,0.053l0.07,2.109c0,0.023,0.001,0.048,0.004,0.075c0.003,0.025,0.002,0.057-0.004,0.092
		c0.264-0.012,0.542-0.024,0.835-0.039s0.577-0.028,0.853-0.04L29.379,119.49z M32.438,122.32c0,0.135-0.003,0.28-0.009,0.436
		s-0.015,0.312-0.026,0.47s-0.025,0.308-0.04,0.448s-0.03,0.261-0.048,0.36l-0.791,0.123c-0.012-0.07-0.022-0.17-0.03-0.299
		c-0.01-0.129-0.017-0.269-0.022-0.417c-0.006-0.15-0.012-0.299-0.018-0.449c-0.006-0.148-0.009-0.276-0.009-0.382v-3.894
		c0-0.17-0.081-0.309-0.242-0.418c-0.161-0.107-0.435-0.212-0.821-0.312l0.149-0.387c0.146,0.018,0.314,0.041,0.506,0.07
		c0.189,0.029,0.377,0.062,0.562,0.097c0.184,0.035,0.359,0.067,0.527,0.097c0.166,0.029,0.303,0.053,0.408,0.07
		c-0.012,0.053-0.023,0.123-0.035,0.211s-0.021,0.176-0.031,0.264c-0.008,0.088-0.016,0.166-0.021,0.233s-0.009,0.104-0.009,0.109
		v1.758c0.123-0.012,0.261-0.024,0.413-0.039s0.306-0.031,0.461-0.049s0.307-0.036,0.453-0.057s0.278-0.043,0.396-0.066l-0.114,0.8
		c-0.088-0.006-0.197-0.01-0.33-0.013c-0.131-0.003-0.271-0.005-0.417-0.005s-0.294,0-0.444,0c-0.148,0-0.288,0-0.417,0V122.32z"/>
	<path d="M35.32,124.228c0.193,0,0.357,0.065,0.492,0.198c0.135,0.131,0.202,0.279,0.202,0.443c0,0.17-0.067,0.32-0.202,0.453
		c-0.135,0.131-0.299,0.197-0.492,0.197c-0.094,0-0.184-0.018-0.268-0.053c-0.086-0.035-0.158-0.084-0.221-0.145
		c-0.061-0.062-0.111-0.131-0.148-0.207c-0.039-0.076-0.058-0.158-0.058-0.246c0-0.082,0.019-0.161,0.058-0.237
		c0.037-0.076,0.088-0.146,0.148-0.206c0.062-0.062,0.135-0.11,0.221-0.146C35.137,124.245,35.227,124.228,35.32,124.228z"/>
</g>
</svg>