<!-- Generator: Adobe Illustrator 21.1.0, SVG Export Plug-In  -->
<svg version="1.1"
	 xmlns="http://www.w3.org/2000/svg" xmlns:xlink="http://www.w3.org/1999/xlink" xmlns:a="http://ns.adobe.com/AdobeSVGViewerExtensions/3.0/"
	 x="0px" y="0px" width="652.631px" height="184.75px" viewBox="0 0 652.631 184.75"
	 style="enable-background:new 0 0 652.631 184.75;" xml:space="preserve">
<defs>
</defs>
<g>
	<g>
		<path d="M19.992,10.221c-1.008,0-2.24,0.028-2.8,0.112c-0.448,0.056-1.288,0.224-1.735,0.42c-0.841-0.448-1.597-0.952-2.213-1.54
			c-2.492,3.22-6.271,6.104-10.556,7.924c-0.224,0.112-0.364,0.14-0.448,0.056l-0.476-0.504c-0.084-0.14-0.112-0.224,0-0.364
			c4.704-2.995,8.231-7.056,9.94-10.836c-1.4,0-3.613,0.057-4.201,0.112C6.916,5.629,5.853,5.824,5.265,5.993
			C4.396,5.629,3.473,4.957,2.856,4.369c-0.14-0.141-0.14-0.252-0.084-0.364l0.224-0.364c0.84,0.14,1.933,0.196,2.688,0.196
			c1.036,0.027,5.487-0.057,6.748-0.168l1.147-0.532c0.196-0.056,0.448-0.056,0.616,0c0.476,0.224,1.372,0.728,1.708,0.98
			c0.141,0.111,0.168,0.252,0.084,0.42l-0.531,0.979c-0.42,0.98-0.953,1.96-1.625,2.912c0.645,0.084,1.428,0.112,2.017,0.112
			c0.896,0,2.8-0.028,4.144-0.112V3.417c-0.363-0.616-1.232-1.232-2.184-1.597l0.336-1.008c0.056-0.111,0.14-0.195,0.42-0.195
			c1.316,0.056,3.416,0.476,4.396,0.896c0.279,0.14,0.392,0.392,0.392,0.756L23.24,3.921v6.188c0,1.513-0.447,3.864-0.98,4.929
			h-1.903c-0.224-0.841-0.364-3.137-0.364-4.173V10.221z M21.588,24.557c0.869-0.028,2.129,0.084,2.744,0.224
			c0.28,0.084,0.477,0.309,0.477,0.588c0,0.7-0.196,1.204-0.364,1.372c-0.14,0.141-0.308,0.168-0.504,0.168l-12.433,0.084
			c-1.848-0.027-2.52-0.699-2.52-2.155v-2.38c-0.363-0.393-0.951-0.7-1.596-0.896l0.111-0.728c0.028-0.084,0.141-0.168,0.336-0.168
			c1.037,0,3.529,0.056,4.48,0.168c1.484,0,5.628-0.057,6.691-0.112l0.561-0.14c0.057-0.561,0.084-1.792,0.057-2.297
			c-1.793-0.027-5.992,0.028-6.944,0.085c-0.644,0.027-1.765,0.224-2.521,0.42c-0.951-0.448-1.848-1.12-2.52-1.765
			c-0.141-0.111-0.141-0.195-0.084-0.363l0.195-0.393c0.869,0.168,2.213,0.28,2.912,0.28c1.429,0,7.924-0.057,9.437-0.141
			l1.063-0.447c0.168-0.084,0.364-0.084,0.561,0c0.393,0.14,1.232,0.504,1.568,0.672c0.14,0.112,0.168,0.28,0.084,0.476l-0.448,0.98
			c-0.056,0.756-0.364,1.987-0.589,2.576l0.533,0.252c0.14,0.056,0.252,0.195,0.252,0.336c0,0.531-0.196,1.008-0.365,1.204
			l-10.499,0.14v1.904c0,0.392,0.168,0.56,0.504,0.56c1.876,0.028,6.243,0,7.952-0.084L21.588,24.557z"/>
		<path d="M49.616,19.769c1.176,0.056,2.856,0.308,3.556,0.561c0.28,0.084,0.477,0.308,0.477,0.615c0,0.7-0.477,1.345-0.84,1.54
			c-0.729-0.084-2.66-0.14-3.557-0.14c-1.932-0.028-13.523,0.112-15.176,0.224c-0.756,0.057-2.436,0.336-3.191,0.561
			c-1.121-0.42-2.353-1.261-3.137-1.988c-0.111-0.112-0.14-0.252-0.084-0.392l0.252-0.477c1.092,0.196,2.549,0.309,3.584,0.309
			c1.288,0.027,7.98-0.057,12.629-0.141c0.728-3.556,1.231-9.52,1.315-13.439c-2.437,0-7.56,0.111-8.903,0.195
			c-0.812,0.057-2.129,0.252-2.912,0.505c-0.98-0.477-2.072-1.232-2.744-1.933c-0.168-0.14-0.168-0.252-0.112-0.392l0.224-0.448
			c1.008,0.168,2.268,0.252,3.164,0.252c1.456,0,9.52-0.14,11.536-0.252l1.288-0.644c0.195-0.057,0.447-0.057,0.615,0
			c0.505,0.252,1.484,0.812,1.877,1.092c0.111,0.111,0.14,0.252,0.056,0.447l-0.476,1.288c-0.112,3.893-1.232,9.408-2.744,13.272
			c0.98-0.028,1.736-0.056,2.1-0.084L49.616,19.769z"/>
		<path d="M76.664,13.524c1.176,0.028,2.855,0.28,3.557,0.532c0.279,0.112,0.476,0.336,0.476,0.644c0,0.7-0.476,1.345-0.841,1.513
			c-0.728-0.084-2.659-0.141-3.555-0.141c-0.896,0-3.865,0.028-6.945,0.057v0.252c0,1.12-0.336,2.548-0.812,3.304H66.5
			c-0.252-0.672-0.363-1.876-0.363-2.688v-0.812c-2.381,0.028-4.396,0.084-5.013,0.112c-0.756,0.056-2.437,0.364-3.192,0.588
			c-1.119-0.448-2.352-1.26-3.135-2.016c-0.113-0.084-0.141-0.253-0.084-0.364l0.252-0.504c1.092,0.195,2.547,0.308,3.584,0.336
			c1.848,0.027,14.924-0.141,16.911-0.28L76.664,13.524z M60.2,8.261c-0.392-0.392-0.979-0.729-1.651-0.924l0.139-0.729
			c0.029-0.111,0.141-0.168,0.337-0.168c1.063,0,3.584,0.057,4.508,0.141c1.903,0,6.244-0.057,7.392-0.141l0.504-0.111
			c0.112-0.505,0.141-1.624,0.112-2.101c-2.044,0-6.468,0.084-7.476,0.112c-0.645,0.056-1.736,0.196-2.521,0.392
			c-0.952-0.42-1.876-1.092-2.548-1.708c-0.168-0.168-0.168-0.252-0.084-0.363l0.196-0.393c0.84,0.168,2.239,0.252,2.911,0.252
			c1.4,0.028,8.484-0.084,10.108-0.168l1.063-0.476c0.169-0.057,0.393-0.057,0.589,0c0.392,0.195,1.26,0.56,1.567,0.756
			c0.141,0.112,0.168,0.308,0.084,0.476l-0.447,0.896c-0.084,0.644-0.393,1.764-0.616,2.324l0.56,0.279
			c0.141,0.084,0.252,0.225,0.252,0.364c0,0.476-0.195,0.952-0.363,1.148l-11.34,0.168v1.764c0,0.392,0.14,0.532,0.504,0.532
			c2.212,0,6.607-0.057,8.26-0.141l0.84-0.447c0.812-0.028,2.044,0.056,2.632,0.195c0.252,0.057,0.448,0.28,0.448,0.532
			c0,0.672-0.168,1.148-0.364,1.316c-0.084,0.111-0.28,0.168-0.448,0.168l-12.852,0.195h-0.027c-1.652-0.056-2.269-0.699-2.269-2.1
			V8.261z M75.544,25.257c0.14,0.056,0.224,0.168,0.224,0.364c0,0.531-0.14,1.063-0.308,1.26c-2.575-0.028-8.68,0.027-11.592,0.056
			c-0.168,0.42-0.392,0.7-0.616,0.896h-1.708c-0.252-0.589-0.392-1.429-0.392-1.96l-0.112-5.824c-0.28-0.364-1.008-0.784-1.624-0.98
			l0.225-0.84c0.056-0.084,0.168-0.168,0.447-0.168c0.98-0.028,3.024,0.168,3.809,0.393c0.252,0.084,0.363,0.252,0.363,0.588
			l-0.056,1.288v0.672l7.868-0.084v-1.652c-0.28-0.42-0.84-0.84-1.428-1.12l0.308-0.868c0.056-0.14,0.168-0.224,0.476-0.195
			c1.036,0.084,2.772,0.392,3.557,0.728c0.252,0.084,0.336,0.28,0.308,0.588l-0.056,1.288l-0.057,2.66
			c0,0.868-0.14,1.96-0.363,2.632L75.544,25.257z M64.148,22.904l-0.028,2.072l7.952-0.056V22.82L64.148,22.904z"/>
		<path d="M103.292,14.7c0,7.337-3.332,10.389-6.916,10.389c-3.64,0-6.916-3.052-6.916-10.389c0-7.42,3.276-10.472,6.916-10.472
			C99.96,4.229,103.292,7.28,103.292,14.7z M96.376,24.053c1.735,0,3.332-2.016,3.332-9.353c0-7.42-1.597-9.464-3.332-9.464
			c-1.792,0-3.36,2.017-3.36,9.464C93.016,22.037,94.584,24.053,96.376,24.053z"/>
		<path d="M119.645,14.7c0,7.337-3.332,10.389-6.916,10.389c-3.641,0-6.916-3.052-6.916-10.389c0-7.42,3.275-10.472,6.916-10.472
			C116.312,4.229,119.645,7.28,119.645,14.7z M112.729,24.053c1.735,0,3.332-2.016,3.332-9.353c0-7.42-1.597-9.464-3.332-9.464
			c-1.793,0-3.361,2.017-3.361,9.464C109.367,22.037,110.936,24.053,112.729,24.053z"/>
		<path d="M135.996,14.7c0,7.337-3.332,10.389-6.916,10.389c-3.641,0-6.916-3.052-6.916-10.389c0-7.42,3.275-10.472,6.916-10.472
			C132.664,4.229,135.996,7.28,135.996,14.7z M129.08,24.053c1.736,0,3.332-2.016,3.332-9.353c0-7.42-1.596-9.464-3.332-9.464
			c-1.792,0-3.36,2.017-3.36,9.464C125.72,22.037,127.288,24.053,129.08,24.053z"/>
		<path d="M152.348,14.7c0,7.337-3.332,10.389-6.916,10.389c-3.64,0-6.916-3.052-6.916-10.389c0-7.42,3.276-10.472,6.916-10.472
			C149.016,4.229,152.348,7.28,152.348,14.7z M145.432,24.053c1.736,0,3.332-2.016,3.332-9.353c0-7.42-1.596-9.464-3.332-9.464
			c-1.791,0-3.359,2.017-3.359,9.464C142.072,22.037,143.641,24.053,145.432,24.053z"/>
		<path d="M171.557,0.812c0.055-0.111,0.139-0.195,0.42-0.195c1.315,0.056,3.471,0.476,4.479,0.896
			c0.308,0.14,0.42,0.392,0.42,0.756l-0.14,1.708v16.548c0,1.849-0.393,5.292-1.064,7.196h-1.82
			c-0.195-1.036-0.336-4.872-0.336-6.188v-2.296c-3.388,0.784-9.632,1.652-13.076,1.849c-0.672,0.056-1.932,0.308-2.547,0.56
			c-1.064-0.504-2.324-1.399-3.192-2.184c-0.112-0.141-0.14-0.225-0.084-0.364l0.224-0.476c1.12,0.168,2.52,0.252,3.612,0.224
			c4.088-0.084,11.62-0.729,15.063-1.4v-14c-0.42-0.644-1.287-1.26-2.268-1.651L171.557,0.812z M157.107,9.94
			c0-3.164,2.688-5.487,6.412-5.487c3.752,0,6.469,2.323,6.469,5.487c0,3.221-2.717,5.544-6.469,5.544
			C159.796,15.484,157.107,13.161,157.107,9.94z M160.355,9.94c0,1.876,1.316,3.108,3.164,3.108c1.877,0,3.192-1.232,3.192-3.108
			c0-1.903-1.315-3.136-3.192-3.136C161.672,6.805,160.355,8.037,160.355,9.94z"/>
		<path d="M207.34,0.812c0.056-0.111,0.14-0.195,0.392-0.195c1.345,0.056,3.5,0.476,4.509,0.896c0.307,0.14,0.42,0.392,0.391,0.756
			l-0.111,1.708v16.548c0,1.849-0.393,5.292-1.064,7.196h-1.819c-0.196-1.036-0.364-4.872-0.364-6.188V14.98
			c-2.016,0.448-5.012,0.924-7.84,1.26v4.089c0,1.68-0.504,4.983-1.064,6.468h-1.791c-0.168-1.092-0.336-4.256-0.336-5.488v-4.704
			c-0.785,0.084-1.484,0.141-2.129,0.168c-0.615,0.028-1.876,0.309-2.492,0.532c-1.092-0.504-2.352-1.372-3.248-2.156
			c-0.111-0.14-0.14-0.224-0.084-0.363l0.225-0.505c1.12,0.196,2.548,0.252,3.668,0.252c2.1-0.056,5.068-0.224,7.951-0.447
			c0.393-2.044,0.561-5.488,0.533-7.645c-1.597-0.027-4.537,0.028-5.349,0.084c-0.644,0.028-1.792,0.225-2.437,0.448
			c-0.896-0.448-1.875-1.148-2.52-1.792c-0.111-0.168-0.14-0.252-0.084-0.392l0.252-0.448c0.868,0.168,2.016,0.252,2.828,0.252
			c1.148,0,6.244-0.084,7.756-0.196l1.204-0.588c0.14-0.084,0.392-0.084,0.588,0c0.448,0.225,1.316,0.7,1.652,0.952
			c0.14,0.112,0.168,0.252,0.084,0.448l-0.476,1.231c-0.112,2.269-0.896,5.292-1.849,7.448c1.933-0.196,3.724-0.448,4.956-0.672
			V3.444c-0.393-0.644-1.26-1.26-2.268-1.651L207.34,0.812z"/>
		<path d="M234.387,0.812c0.057-0.111,0.113-0.195,0.393-0.195c1.344,0.056,3.5,0.476,4.508,0.896c0.28,0.14,0.42,0.392,0.393,0.756
			l-0.112,1.708v16.548c0,1.849-0.392,5.292-1.063,7.196h-1.82c-0.196-1.036-0.364-4.872-0.364-6.188v-5.18
			c-0.84,0.028-1.765,0.084-2.212,0.112c-0.477,0.027-1.232,0.196-1.708,0.336c-0.588-0.309-1.092-0.672-1.54-1.064
			c-1.176,1.792-3.248,2.856-5.768,2.856c-3.92,0-6.776-2.576-6.776-6.3c0-3.696,2.856-6.272,6.776-6.272
			c3.892,0,6.748,2.576,6.748,6.272c0,0.84-0.141,1.624-0.42,2.323c0.476,0.028,0.979,0.057,1.399,0.057
			c0.756,0,2.296-0.028,3.5-0.084V9.493c-0.532,0-1.12,0.056-1.372,0.084c-0.477,0.056-1.232,0.195-1.736,0.363
			c-0.812-0.447-1.512-1.008-2.071-1.567c-0.112-0.141-0.112-0.252-0.085-0.364l0.281-0.42c0.644,0.112,1.567,0.168,2.323,0.168
			c0.616,0,1.765-0.028,2.66-0.084V3.444c-0.392-0.644-1.288-1.26-2.269-1.651L234.387,0.812z M228.479,12.293
			c0-2.324-1.429-3.752-3.388-3.752c-1.961,0-3.389,1.428-3.389,3.752c0,2.38,1.428,3.752,3.389,3.752
			C227.051,16.045,228.479,14.673,228.479,12.293z"/>
		<path d="M265.971,13.776c1.177,0.057,2.856,0.309,3.557,0.561c0.279,0.111,0.477,0.308,0.477,0.644c0,0.7-0.477,1.344-0.841,1.512
			c-0.728-0.084-2.659-0.14-3.556-0.14c-0.868,0-3.668,0.028-6.664,0.056v1.12c0,1.456-0.42,3.977-0.924,5.208h-2.016
			c-0.141-0.952-0.281-3.304-0.281-4.367v-1.904c-2.491,0.027-4.647,0.056-5.291,0.111c-0.756,0.057-2.437,0.337-3.192,0.561
			c-1.12-0.42-2.353-1.232-3.136-1.988c-0.112-0.084-0.141-0.252-0.084-0.363l0.252-0.505c1.092,0.196,2.548,0.309,3.584,0.336
			c1.848,0.028,14.924-0.14,16.912-0.279L265.971,13.776z M262.499,24.389c0.952-0.028,2.324,0.084,2.968,0.224
			c0.309,0.057,0.504,0.28,0.504,0.561c0,0.812-0.279,1.372-0.476,1.54c-0.112,0.14-0.308,0.195-0.532,0.195l-12.404,0.084
			c-1.987-0.027-2.743-0.84-2.743-2.52v-3.108c-0.448-0.363-1.204-0.783-1.933-1.008l0.196-0.84c0.028-0.112,0.14-0.224,0.392-0.224
			c1.177,0,3.248,0.14,4.145,0.308c0.336,0.112,0.504,0.336,0.504,0.7l-0.056,1.483v2.576c0,0.477,0.196,0.7,0.672,0.7
			c1.819,0.028,5.88,0,7.616-0.084L262.499,24.389z M250.039,7.617c0-3.108,2.801-5.349,6.889-5.349c4.115,0,6.916,2.24,6.916,5.349
			c0,3.107-2.801,5.348-6.916,5.348C252.84,12.965,250.039,10.725,250.039,7.617z M253.315,7.617c0,2.016,1.483,3.275,3.612,3.275
			c2.155,0,3.64-1.26,3.64-3.275c0-2.045-1.484-3.305-3.64-3.305C254.799,4.312,253.315,5.572,253.315,7.617z"/>
		<path d="M299.15,13.833c-0.84,0-1.764,0.056-2.184,0.111c-0.477,0.057-1.232,0.196-1.736,0.364
			c-0.615-0.336-1.176-0.756-1.623-1.176c-1.093,1.708-3.108,2.771-5.572,2.771c-3.809,0-6.496-2.464-6.496-5.964
			c0-3.472,2.688-5.88,6.496-5.88c3.779,0,6.468,2.408,6.468,5.88c0,0.756-0.14,1.484-0.364,2.128
			c0.504,0.028,1.064,0.057,1.54,0.057c0.728,0,2.269-0.028,3.472-0.084V7.757c-0.56,0-1.092,0.056-1.371,0.084
			c-0.477,0.056-1.232,0.196-1.736,0.364c-0.812-0.448-1.484-1.009-2.044-1.568c-0.112-0.14-0.14-0.252-0.084-0.364l0.252-0.392
			c0.672,0.084,1.596,0.14,2.323,0.14c0.588,0,1.652-0.027,2.66-0.056V3.417c-0.392-0.616-1.26-1.232-2.211-1.597l0.336-1.008
			c0.055-0.111,0.139-0.195,0.42-0.195c1.315,0.056,3.416,0.476,4.396,0.896c0.28,0.14,0.42,0.392,0.392,0.756l-0.111,1.652v9.996
			c0,2.184-0.393,5.124-1.036,6.775h-1.849c-0.224-1.063-0.336-4.424-0.336-5.796V13.833z M288.035,13.497
			c1.932,0,3.304-1.345,3.304-3.557s-1.372-3.584-3.304-3.584c-1.961,0-3.332,1.372-3.332,3.584S286.074,13.497,288.035,13.497z
			 M300.719,24.192c0.952-0.027,2.324,0.084,2.968,0.252c0.337,0.057,0.532,0.28,0.532,0.561c0,0.784-0.279,1.344-0.477,1.54
			c-0.111,0.111-0.308,0.168-0.531,0.168l-11.844,0.111h-0.028c-2.101-0.027-2.912-0.867-2.912-2.548v-3.5
			c-0.448-0.392-1.204-0.784-1.933-1.036l0.197-0.84c0.027-0.14,0.168-0.224,0.392-0.224c1.176,0,3.276,0.14,4.2,0.336
			c0.308,0.084,0.504,0.308,0.504,0.672l-0.057,1.484v3.023c0,0.477,0.196,0.7,0.672,0.7c1.681,0.028,5.545-0.028,7.196-0.084
			L300.719,24.192z"/>
		<path d="M328.746,12.797c1.177,0.056,2.856,0.28,3.557,0.56c0.279,0.084,0.477,0.309,0.477,0.616c0,0.7-0.477,1.344-0.841,1.512
			c-0.728-0.084-2.659-0.14-3.556-0.14c-1.932,0-13.523,0.14-15.176,0.224c-0.756,0.057-2.437,0.364-3.192,0.588
			c-1.12-0.42-2.353-1.26-3.136-1.987c-0.112-0.112-0.141-0.28-0.084-0.393l0.252-0.476c1.092,0.168,2.548,0.28,3.584,0.308
			c1.848,0.028,14.924-0.111,16.912-0.279L328.746,12.797z M309.343,11.537c-0.084-0.141-0.056-0.28,0.084-0.364
			c4.256-2.017,7.42-4.676,8.987-7.504c-0.195-0.393-0.728-0.868-1.315-1.176l0.476-0.812c0.057-0.14,0.225-0.168,0.477-0.14
			c1.232,0.14,3.164,0.672,3.92,1.063c0.336,0.168,0.504,0.42,0.504,0.7c-0.027,0.392-0.111,0.644-0.225,0.812
			c-0.307,0.531-0.699,1.035-1.119,1.539l4.199,1.849l2.156,0.084c0.729,0.392,1.709,1.036,2.184,1.456
			c0.365,0.336,0.505,0.616,0.505,0.896c0,0.561-0.532,1.12-1.009,1.176c-0.279,0.028-0.672-0.084-0.979-0.224l-8.428-3.808
			c-2.437,2.212-5.824,3.976-9.604,5.04c-0.195,0.056-0.308,0.056-0.392-0.028L309.343,11.537z M327.486,25.173
			c0.168,0.084,0.252,0.168,0.252,0.364c0,0.531-0.168,1.063-0.336,1.26c-2.548,0-8.512,0.027-11.367,0.056
			c-0.168,0.42-0.42,0.7-0.645,0.896h-1.624c-0.28-0.561-0.42-1.4-0.42-1.96l-0.112-6.244c-0.279-0.336-1.008-0.784-1.623-0.98
			l0.223-0.84c0.057-0.084,0.169-0.168,0.449-0.168c0.979-0.028,3.023,0.196,3.808,0.392c0.252,0.084,0.364,0.252,0.364,0.589
			l-0.057,1.287l-0.027,0.784l7.644-0.056V18.9c-0.336-0.42-1.008-0.868-1.681-1.12l0.336-0.896c0.029-0.14,0.141-0.196,0.421-0.168
			c1.036,0.056,3.024,0.392,3.808,0.7c0.28,0.084,0.364,0.279,0.336,0.588l-0.056,1.315l-0.028,2.996
			c0,0.84-0.168,1.904-0.363,2.548L327.486,25.173z M316.343,22.513l-0.056,2.38l7.728-0.056v-2.408L316.343,22.513z"/>
		<path d="M341.935,11.312c-1.567,2.156-3.724,4.172-6.384,5.824c-0.196,0.14-0.309,0.14-0.448,0.028l-0.532-0.504
			c-0.111-0.112-0.111-0.253,0.028-0.393c3.304-3.08,5.517-6.72,6.216-10.023c-0.252-0.448-0.84-1.009-1.484-1.345l0.448-0.896
			c0.056-0.084,0.168-0.141,0.421-0.112c1.176,0.141,3.079,0.672,3.779,1.064c0.309,0.168,0.477,0.363,0.477,0.644
			s-0.028,0.561-0.084,0.729c-0.281,1.092-0.729,2.184-1.345,3.275l2.017,2.185l1.455,0.504c0.393,0.615,0.896,1.567,1.092,2.1
			c0.141,0.448,0.141,0.729,0.029,0.924c-0.225,0.477-0.98,0.729-1.429,0.532c-0.224-0.056-0.504-0.336-0.7-0.56L341.935,11.312z
			 M356.606,22.205c0,3.247-2.856,5.292-6.384,5.292c-3.5,0-6.355-2.045-6.355-5.292c0-3.053,2.855-4.929,6.355-4.929
			C353.75,17.276,356.606,19.152,356.606,22.205z M352.519,0.841c0.084-0.14,0.196-0.224,0.448-0.224
			c1.203,0.056,3.22,0.476,4.144,0.896c0.28,0.112,0.42,0.364,0.392,0.728l-0.111,1.54v9.017c0,1.483-0.448,3.92-0.952,5.096h-1.819
			c-0.225-0.896-0.365-3.276-0.365-4.312v-2.604l-2.491,0.056v0.477c0,1.764-0.421,3.892-0.925,4.956h-1.735
			c-0.224-0.896-0.336-3.024-0.336-4.2V4.732c-0.336-0.56-1.093-1.063-1.904-1.399l0.337-0.952c0.055-0.112,0.168-0.196,0.447-0.196
			c1.12,0.056,2.968,0.448,3.836,0.868c0.252,0.112,0.364,0.336,0.336,0.672l-0.056,1.428v3.893l2.491-0.057V3.305
			c-0.363-0.588-1.176-1.148-2.043-1.512L352.519,0.841z M353.33,22.205c0-1.765-1.344-2.772-3.107-2.772s-3.08,1.008-3.08,2.772
			c0,1.764,1.316,2.743,3.08,2.743S353.33,23.969,353.33,22.205z"/>
		<path d="M384.521,15.121c0.477,0.728,1.121,1.848,1.373,2.464c0.195,0.56,0.195,0.896,0.084,1.147
			c-0.252,0.532-1.037,0.784-1.513,0.588c-0.252-0.084-0.56-0.392-0.812-0.644l-4.816-5.544c-1.764,2.576-4.199,5.04-7.195,7.027
			c-0.168,0.112-0.28,0.112-0.42,0.028l-0.561-0.476c-0.084-0.084-0.084-0.196,0.057-0.364c3.863-3.808,6.467-8.456,7.195-12.516
			c-0.279-0.532-0.952-1.177-1.652-1.568l0.42-0.84c0.084-0.112,0.196-0.168,0.42-0.14c1.205,0.14,3.305,0.728,4.088,1.176
			c0.281,0.14,0.477,0.392,0.477,0.644c0,0.28-0.027,0.561-0.084,0.756c-0.279,1.456-0.84,2.969-1.652,4.452l2.996,3.164
			L384.521,15.121z M386.874,0.812c0.056-0.111,0.14-0.195,0.42-0.195c1.315,0.056,3.5,0.476,4.479,0.896
			c0.309,0.14,0.42,0.392,0.42,0.756l-0.111,1.708v16.548c0,1.849-0.42,5.292-1.092,7.196h-1.82
			c-0.195-1.036-0.336-4.872-0.336-6.188V3.444c-0.42-0.644-1.288-1.26-2.268-1.651L386.874,0.812z"/>
		<path d="M406.781,11.089c-2.323,2.212-5.18,4.144-8.26,5.516c-0.224,0.112-0.336,0.141-0.447,0.057l-0.477-0.477
			c-0.111-0.112-0.111-0.252,0-0.392c4.284-2.828,7.7-6.692,9.52-10.164c-1.428-0.028-3.415,0-3.975,0.056
			c-0.561,0.028-1.625,0.225-2.185,0.448c-0.868-0.42-1.792-1.12-2.437-1.736c-0.111-0.14-0.14-0.224-0.084-0.363l0.225-0.393
			c0.867,0.14,1.96,0.196,2.744,0.196c1.008,0,5.236-0.057,6.607-0.112l1.148-0.504c0.195-0.084,0.447-0.084,0.644,0
			c0.505,0.196,1.484,0.616,1.849,0.84c0.14,0.084,0.168,0.28,0.056,0.448l-0.672,1.036c-0.7,1.372-1.681,2.771-2.856,4.06
			l2.156,1.904l1.26,0.364c0.504,0.588,1.12,1.54,1.344,2.071c0.196,0.448,0.252,0.756,0.168,0.98
			c-0.252,0.476-0.951,0.784-1.455,0.644c-0.252-0.084-0.561-0.336-0.784-0.531L406.781,11.089z M417.59,24.557
			c0.868-0.028,2.128,0.112,2.744,0.252c0.279,0.056,0.477,0.28,0.477,0.56c0,0.7-0.197,1.204-0.365,1.4
			c-0.14,0.112-0.308,0.168-0.504,0.168l-12.319,0.084c-1.82-0.028-2.492-0.728-2.492-2.156v-2.268
			c-0.364-0.392-0.952-0.7-1.624-0.924l0.141-0.7c0.027-0.112,0.14-0.196,0.308-0.196c1.063,0,3.556,0.057,4.479,0.168
			c1.625,0,5.545-0.027,6.608-0.084l0.532-0.14c0.056-0.504,0.084-1.652,0.056-2.1c-1.819-0.028-5.992,0.027-6.916,0.084
			c-0.644,0.027-1.792,0.195-2.521,0.392c-0.951-0.448-1.875-1.12-2.547-1.736c-0.141-0.14-0.141-0.224-0.084-0.363l0.224-0.393
			c0.84,0.168,2.184,0.252,2.911,0.252c1.373,0,7.869-0.056,9.408-0.111l1.092-0.477c0.141-0.084,0.336-0.084,0.533,0
			c0.42,0.168,1.26,0.504,1.596,0.7c0.14,0.084,0.14,0.28,0.084,0.476l-0.448,0.952c-0.056,0.7-0.364,1.849-0.588,2.38l0.532,0.252
			c0.14,0.084,0.224,0.225,0.224,0.364c0,0.504-0.196,0.98-0.364,1.204l-10.388,0.112v1.792c0,0.392,0.168,0.56,0.532,0.56
			c1.876,0.028,6.104,0,7.783-0.056L417.59,24.557z M410.73,8.121c0.644,0.111,1.539,0.14,2.268,0.14
			c0.672,0.028,1.932,0,2.996-0.056V3.417c-0.393-0.616-1.26-1.232-2.184-1.597l0.307-1.008c0.057-0.111,0.168-0.195,0.449-0.195
			c1.287,0.056,3.388,0.476,4.367,0.896c0.28,0.14,0.42,0.392,0.393,0.756l-0.084,1.652v6.468c0,1.512-0.477,3.864-1.008,4.928
			h-1.904c-0.225-0.84-0.336-3.136-0.336-4.2v-1.092c-0.7,0.028-1.4,0.057-1.736,0.112c-0.447,0.028-1.232,0.252-1.708,0.448
			c-0.756-0.477-1.456-1.092-2.017-1.681c-0.111-0.14-0.139-0.252-0.055-0.392L410.73,8.121z"/>
		<path d="M432.205,18.312c-3.891,0-6.747-2.576-6.747-6.16c0-3.611,2.856-6.188,6.747-6.188c3.893,0,6.748,2.576,6.748,6.188
			C438.953,15.736,436.098,18.312,432.205,18.312z M432.205,8.484c-1.959,0-3.387,1.4-3.387,3.668c0,2.269,1.428,3.641,3.387,3.641
			c1.961,0,3.389-1.372,3.389-3.641C435.594,9.885,434.166,8.484,432.205,8.484z M443.294,27.721
			c-0.196-1.036-0.337-4.872-0.337-6.188V3.444c-0.42-0.644-1.287-1.26-2.295-1.651l0.336-0.98c0.056-0.111,0.14-0.195,0.42-0.195
			c1.316,0.056,3.472,0.476,4.479,0.896c0.308,0.14,0.421,0.392,0.392,0.756l-0.111,1.708v16.548c0,1.849-0.393,5.292-1.064,7.196
			H443.294z"/>
		<path d="M481.346,12.965c1.176,0.027,2.855,0.28,3.556,0.532c0.28,0.111,0.476,0.336,0.476,0.644c0,0.7-0.476,1.344-0.84,1.512
			c-0.729-0.084-2.66-0.14-3.556-0.14c-1.933,0-13.524,0.112-15.177,0.224c-0.756,0.057-2.436,0.364-3.191,0.588
			c-1.12-0.447-2.352-1.26-3.136-2.016c-0.112-0.084-0.14-0.252-0.084-0.364l0.252-0.504c1.092,0.196,2.548,0.309,3.584,0.336
			c0.812,0,3.78,0,7.028-0.056l-0.028-3.444c-0.308-0.363-1.009-0.812-1.624-1.036l0.224-0.867c0.028-0.112,0.112-0.196,0.421-0.196
			c1.008,0,3.163,0.224,3.947,0.448c0.309,0.084,0.393,0.279,0.364,0.588l-0.169,1.596l-0.055,2.856
			c3.107-0.057,5.963-0.112,6.803-0.168L481.346,12.965z M477.117,11.369c-0.168-0.057-0.252-0.168-0.225-0.505
			c0.309-1.567,0.421-4.228,0.337-5.936c-2.296-0.028-6.944,0.028-8.177,0.112c-0.756,0.056-2.071,0.279-2.799,0.504
			c-1.009-0.448-2.101-1.176-2.801-1.876c-0.168-0.141-0.195-0.252-0.111-0.393l0.224-0.476c1.008,0.168,2.323,0.28,3.248,0.28
			c1.512,0,8.903-0.084,10.724-0.168l1.316-0.561c0.168-0.084,0.392-0.084,0.588,0c0.477,0.196,1.456,0.645,1.82,0.896
			c0.14,0.084,0.168,0.224,0.056,0.42l-0.532,1.26c-0.195,2.044-1.092,4.732-2.072,6.384c-0.14,0.196-0.336,0.28-0.531,0.28
			L477.117,11.369z M478.77,22.597c0,3.136-2.856,5.18-6.44,5.18s-6.44-2.044-6.44-5.18c0-2.94,2.856-4.872,6.44-4.872
			S478.77,19.656,478.77,22.597z M475.493,22.597c0-1.764-1.372-2.8-3.164-2.8c-1.819,0-3.192,1.036-3.192,2.8
			c0,1.736,1.373,2.8,3.192,2.8C474.121,25.396,475.493,24.333,475.493,22.597z"/>
		<path d="M497.165,5.629c0.168-0.084,0.448-0.084,0.616,0c0.42,0.168,1.316,0.672,1.652,0.896c0.14,0.112,0.14,0.28,0.084,0.448
			l-0.504,0.924c-1.148,4.872-5.404,10.332-10.809,13.496c-0.195,0.112-0.309,0.14-0.393,0.084l-0.531-0.476
			c-0.112-0.112-0.141-0.225-0.027-0.393c4.115-3.556,7.111-8.456,8.26-12.628c-1.148,0-2.801,0.028-3.248,0.084
			c-0.588,0.028-1.652,0.225-2.213,0.42c-0.812-0.392-1.68-1.008-2.268-1.567c-0.111-0.141-0.141-0.252-0.057-0.364l0.197-0.392
			c0.783,0.111,1.819,0.14,2.547,0.14c0.869,0.028,4.537-0.056,5.74-0.14L497.165,5.629z M505.145,0.841
			c0.057-0.14,0.168-0.224,0.449-0.224c1.203,0.056,3.191,0.476,4.115,0.896c0.28,0.112,0.42,0.364,0.393,0.728l-0.112,1.54v16.969
			c0,1.792-0.392,5.124-1.036,6.972h-1.736c-0.195-1.008-0.363-4.732-0.363-6.021v-8.008l-2.549,0.057v5.739
			c0,1.681-0.363,4.788-0.951,6.469h-1.652c-0.196-1.093-0.364-4.341-0.364-5.572V5.041c-0.336-0.532-1.092-1.064-1.903-1.4
			l0.363-0.952c0.028-0.111,0.141-0.195,0.42-0.195c1.148,0.056,2.996,0.447,3.836,0.867c0.252,0.112,0.364,0.336,0.364,0.673
			l-0.112,1.428v6.3l2.549-0.056v-8.4c-0.336-0.588-1.176-1.148-2.045-1.512L505.145,0.841z"/>
		<path d="M530.904,0.812c0.057-0.111,0.113-0.195,0.393-0.195c1.344,0.056,3.5,0.476,4.508,0.896c0.28,0.14,0.42,0.392,0.393,0.756
			l-0.112,1.708v16.548c0,1.849-0.392,5.292-1.063,7.196h-1.82c-0.196-1.036-0.364-4.872-0.364-6.188v-2.184
			c-3.388,0.784-9.688,1.652-13.132,1.876c-0.645,0.056-1.904,0.336-2.492,0.56c-1.092-0.504-2.352-1.371-3.191-2.184
			c-0.112-0.084-0.141-0.196-0.084-0.364l0.195-0.476c1.12,0.196,2.52,0.252,3.612,0.224c1.176-0.027,2.632-0.084,4.2-0.195v-4.396
			l-1.988,0.056c-2.128,0.028-2.968-0.84-2.968-2.436V6.917c-0.364-0.42-0.98-0.84-1.681-1.093l0.225-0.867
			c0.027-0.112,0.111-0.196,0.308-0.196c1.036,0,3.472,0.14,4.425,0.336c1.399,0,4.928-0.112,5.936-0.196l0.812-0.363
			c0.728-0.028,1.875,0.056,2.491,0.168c0.308,0.056,0.448,0.252,0.448,0.504c0,0.615-0.168,1.12-0.336,1.288
			c-0.141,0.14-0.309,0.168-0.477,0.168l-8.932,0.195v5.04c0,0.504,0.168,0.7,0.645,0.7c1.231,0,4.424-0.084,5.516-0.168
			l0.756-0.392c0.784-0.028,1.988,0.027,2.576,0.14c0.279,0.056,0.476,0.28,0.476,0.532c0,0.616-0.224,1.092-0.42,1.288
			c-0.112,0.111-0.28,0.168-0.504,0.168l-4.284,0.14v4.256c3.024-0.252,6.02-0.616,7.868-0.979V3.444
			c-0.392-0.644-1.288-1.26-2.269-1.651L530.904,0.812z"/>
		<path d="M559.885,9.885c-0.784,0-1.596,0.028-1.988,0.084c-0.447,0.056-1.26,0.252-1.736,0.42
			c-0.363-0.196-0.699-0.42-1.008-0.644c-0.195,3.107-2.855,5.319-6.412,5.319c-3.752,0-6.411-2.38-6.411-5.684
			c0-3.276,2.659-5.628,6.411-5.628c3.221,0,5.685,1.764,6.272,4.396c0.532,0.028,1.093,0.057,1.568,0.057
			c0.728,0,2.155-0.028,3.304-0.084V3.417c-0.393-0.616-1.232-1.232-2.184-1.597l0.336-1.008c0.027-0.111,0.14-0.195,0.42-0.195
			c1.287,0.056,3.416,0.476,4.367,0.896c0.309,0.14,0.42,0.392,0.393,0.756l-0.084,1.652v7.027c0,1.652-0.448,4.257-1.008,5.544
			h-1.876c-0.224-0.896-0.364-3.611-0.364-4.703V9.885z M563.833,23.66c0.364,0.589,0.812,1.484,0.979,1.988
			c0.141,0.42,0.141,0.672,0.057,0.896c-0.252,0.447-0.896,0.699-1.344,0.588c-0.225-0.057-0.533-0.309-0.757-0.588l-3.276-3.752
			c-1.512,1.903-3.584,3.695-6.131,5.18c-0.196,0.112-0.309,0.112-0.42,0.028l-0.588-0.448c-0.113-0.112-0.113-0.225,0.027-0.393
			c0.616-0.531,1.204-1.092,1.736-1.68h-0.057c-0.279-0.028-0.531-0.224-0.756-0.448l-2.38-2.632
			c-1.512,1.904-3.696,3.668-6.356,5.068c-0.195,0.112-0.308,0.112-0.447,0.028l-0.561-0.477c-0.111-0.112-0.14-0.224,0.057-0.364
			c2.855-2.296,4.928-5.012,5.74-7.588c-0.252-0.363-0.785-0.84-1.345-1.12l0.448-0.867c0.084-0.112,0.225-0.168,0.447-0.141
			c1.148,0.168,2.856,0.7,3.529,1.092c0.279,0.141,0.42,0.364,0.42,0.616c0,0.309-0.057,0.532-0.113,0.729
			c-0.195,0.504-0.447,0.979-0.728,1.483l1.4,1.372l0.979,0.477c0.252,0.42,0.588,1.12,0.7,1.483l0.028,0.112
			c1.484-1.792,2.52-3.696,3.023-5.516c-0.195-0.42-0.783-0.952-1.344-1.288l0.448-0.868c0.084-0.141,0.224-0.196,0.448-0.141
			c1.176,0.253,2.884,0.868,3.556,1.288c0.28,0.196,0.42,0.393,0.42,0.645c0,0.28-0.056,0.532-0.112,0.7
			c-0.252,0.699-0.588,1.399-0.979,2.071l1.876,1.876L563.833,23.66z M545.521,9.381c0,2.044,1.315,3.275,3.219,3.275
			c1.877,0,3.192-1.231,3.192-3.275c0-2.017-1.315-3.304-3.192-3.304C546.837,6.077,545.521,7.364,545.521,9.381z"/>
		<path d="M590.853,11.677c0.812-0.028,2.017,0.028,2.521,0.14c0.336,0.057,0.56,0.309,0.588,0.616
			c0.056,0.645-0.112,1.26-0.336,1.484c-0.168,0.195-0.532,0.279-0.812,0.279l-4.396,0.112v6.216c0,1.849-0.392,5.292-1.063,7.196
			h-1.819c-0.196-1.036-0.336-4.872-0.336-6.188v-3.724c-3.584,1.204-8.037,2.072-11.117,2.352c-0.42,0.057-0.84,0.057-1.147,0.057
			c-1.344,0-2.269-0.756-2.659-1.933c-0.084-0.336-0.169-0.896-0.169-1.512V7.896c-0.392-0.448-1.063-0.868-1.819-1.12l0.224-0.867
			c0.056-0.112,0.14-0.169,0.336-0.169c1.036,0,3.388,0.112,4.452,0.309c1.064-0.028,4.004-0.168,4.872-0.252l0.84-0.561
			c0.784,0,2.044,0.057,2.659,0.196c0.309,0.056,0.477,0.252,0.477,0.561c0,0.699-0.195,1.231-0.392,1.455
			c-0.14,0.112-0.308,0.169-0.532,0.169l-7.84,0.308v9.016c0,0.364,0.14,0.561,0.531,0.532c3.08-0.056,7.841-0.616,11.285-1.484
			V3.444c-0.42-0.644-1.289-1.26-2.297-1.651l0.336-0.98c0.057-0.111,0.141-0.195,0.42-0.195c1.316,0.056,3.473,0.476,4.48,0.896
			c0.309,0.14,0.42,0.392,0.42,0.756l-0.141,1.708v8.372l1.541-0.084L590.853,11.677z"/>
		<path d="M596.396,22.793c0-1.288,1.008-2.353,2.324-2.353c1.288,0,2.296,1.064,2.296,2.353c0,1.231-1.008,2.296-2.296,2.296
			C597.404,25.089,596.396,24.024,596.396,22.793z"/>
		<path d="M5.572,48.721c-0.084,0.447-0.279,0.812-0.56,1.147H3.332c-0.224-0.532-0.363-1.315-0.42-1.96l-0.504-7.476
			c-0.279-0.393-0.812-0.756-1.4-0.98l0.197-0.84c0.027-0.112,0.14-0.168,0.336-0.168c1.092,0,2.967,0.14,4.06,0.308
			c1.176,0.028,3.556,0,4.76-0.084l1.231-0.615c0.141-0.084,0.393-0.084,0.561,0c0.393,0.195,1.148,0.672,1.456,0.896
			c0.112,0.112,0.112,0.224,0.056,0.42l-0.363,1.288l-0.084,1.484c0.812,0,1.875,0,2.688-0.028v-3.724
			c-0.336-0.532-1.092-1.064-1.904-1.4l0.336-0.952c0.057-0.111,0.168-0.196,0.448-0.196c1.12,0.057,2.968,0.448,3.808,0.868
			c0.281,0.112,0.393,0.336,0.365,0.672L18.9,38.809v6.496c0,1.735-0.42,3.892-0.924,4.956H16.24
			c-0.224-0.868-0.336-3.024-0.336-4.2v-1.82c-1.035,0-2.24,0.056-2.912,0.112c-0.084,0.728-0.195,1.456-0.308,2.128l0.532,0.28
			c0.195,0.084,0.279,0.252,0.279,0.447c0,0.645-0.195,1.177-0.42,1.429L5.572,48.721z M10.137,40.656
			c-1.456,0-3.164,0.028-4.536,0.056l0.084,5.965c1.147,0.027,2.94,0,3.948-0.028l0.504-0.168V40.656z M21.924,51.156
			c0.168-0.084,0.393-0.084,0.561,0c0.448,0.196,1.316,0.588,1.624,0.812c0.112,0.084,0.14,0.224,0.084,0.42l-0.392,1.26
			c-0.141,1.399-0.393,2.968-0.729,4.368l0.561,0.279c0.195,0.112,0.279,0.252,0.279,0.448c0,0.645-0.224,1.232-0.504,1.456
			l-10.136,0.112c-0.112,0.336-0.28,0.615-0.56,0.896h-1.765c-0.252-0.476-0.42-1.147-0.448-1.792l-0.447-5.852
			c-0.336-0.393-0.98-0.784-1.596-1.036l0.252-0.868c0.027-0.084,0.111-0.168,0.308-0.168c1.092,0,3.136,0.168,4.284,0.336
			c1.68-0.028,5.711-0.084,7.392-0.196L21.924,51.156z M13.412,58.24c1.904,0,4.816-0.028,6.44-0.112l0.588-0.168l0.084-4.228
			c-2.269,0.027-5.013,0.084-7.168,0.168L13.412,58.24z M19.32,34.44c0.057-0.14,0.168-0.224,0.448-0.224
			c1.204,0.056,3.192,0.476,4.116,0.896c0.279,0.112,0.42,0.364,0.392,0.728l-0.112,1.54v7.896c0,1.484-0.42,3.92-0.951,5.096h-1.82
			c-0.196-0.896-0.364-3.248-0.364-4.312v-9.156c-0.336-0.588-1.176-1.148-2.044-1.512L19.32,34.44z"/>
		<path d="M45.08,34.412c0.057-0.111,0.112-0.195,0.393-0.195c1.344,0.056,3.5,0.476,4.508,0.896c0.279,0.14,0.42,0.392,0.392,0.756
			l-0.112,1.708v16.548c0,1.849-0.392,5.292-1.063,7.196h-1.819c-0.197-1.036-0.365-4.872-0.365-6.188v-8.819
			c-0.644,0.027-1.315,0.056-1.596,0.084c-0.476,0.056-1.371,0.28-1.848,0.448c-0.42-0.225-0.84-0.505-1.204-0.812l-0.028,1.848
			c0,0.896-0.168,2.044-0.363,2.744l0.644,0.225c0.14,0.056,0.252,0.195,0.252,0.363c0,0.561-0.196,1.12-0.42,1.316
			c-2.044,0-6.832,0.056-9.101,0.084c-0.195,0.616-0.504,1.036-0.756,1.26h-1.707c-0.252-0.616-0.393-1.567-0.393-2.156
			l-0.168-10.191c-0.309-0.393-1.036-0.84-1.68-1.064l0.252-0.867c0.027-0.084,0.14-0.169,0.42-0.169
			c1.008-0.027,3.107,0.196,3.92,0.393c0.279,0.084,0.363,0.252,0.363,0.616l-0.027,1.315v2.296L39.2,43.96v-3.892
			c-0.364-0.448-1.036-0.896-1.735-1.204l0.308-0.868c0.056-0.111,0.168-0.168,0.448-0.168c1.035,0.057,3.136,0.477,3.92,0.84
			c0.252,0.112,0.363,0.28,0.336,0.588l-0.057,1.456l-0.056,3.809c0.532,0.027,1.12,0.056,1.624,0.056
			c0.672,0,1.96-0.028,3.023-0.084v-7.448c-0.392-0.644-1.287-1.26-2.268-1.651L45.08,34.412z M33.545,45.977l-0.029,4.62
			L39.2,50.54v-4.62L33.545,45.977z"/>
		<path d="M76.244,48.3c0,7.337-3.332,10.389-6.916,10.389c-3.641,0-6.916-3.052-6.916-10.389c0-7.42,3.275-10.472,6.916-10.472
			C72.912,37.828,76.244,40.88,76.244,48.3z M69.328,57.652c1.736,0,3.332-2.016,3.332-9.353c0-7.42-1.596-9.464-3.332-9.464
			c-1.792,0-3.36,2.017-3.36,9.464C65.968,55.637,67.536,57.652,69.328,57.652z"/>
		<path d="M92.596,48.3c0,7.337-3.332,10.389-6.916,10.389c-3.64,0-6.916-3.052-6.916-10.389c0-7.42,3.276-10.472,6.916-10.472
			C89.264,37.828,92.596,40.88,92.596,48.3z M85.68,57.652c1.736,0,3.332-2.016,3.332-9.353c0-7.42-1.596-9.464-3.332-9.464
			c-1.791,0-3.359,2.017-3.359,9.464C82.32,55.637,83.889,57.652,85.68,57.652z"/>
		<path d="M116.396,47.181c1.176,0.056,2.855,0.308,3.556,0.56c0.28,0.084,0.476,0.308,0.476,0.645c0,0.699-0.476,1.344-0.84,1.512
			c-0.729-0.084-2.66-0.141-3.556-0.141c-1.933,0-13.524,0.112-15.177,0.225c-0.756,0.056-2.436,0.336-3.191,0.56
			c-1.12-0.42-2.352-1.231-3.136-1.987c-0.112-0.084-0.14-0.253-0.084-0.393l0.252-0.476c1.092,0.195,2.548,0.308,3.584,0.308
			c1.848,0.028,14.924-0.112,16.911-0.28L116.396,47.181z M99.932,38.36c-0.392-0.392-1.092-0.756-1.791-1.008l0.195-0.84
			c0.028-0.112,0.168-0.225,0.42-0.225c1.148,0,3.192,0.141,4.061,0.336c0.336,0.084,0.504,0.309,0.504,0.7l-0.057,1.484v3.668
			c0,0.504,0.196,0.728,0.7,0.728c1.876,0.028,6.216-0.056,7.952-0.14l1.092-0.588c0.924,0,2.268,0.111,2.885,0.252
			c0.308,0.084,0.504,0.279,0.504,0.588c0,0.756-0.252,1.315-0.448,1.484c-0.112,0.111-0.308,0.168-0.505,0.168l-12.627,0.14
			c-1.961,0-2.885-0.952-2.885-2.66V38.36z M113.064,57.484c0.951,0,2.352,0.112,2.996,0.252c0.308,0.084,0.504,0.308,0.504,0.588
			c0,0.812-0.252,1.372-0.448,1.568c-0.14,0.14-0.336,0.168-0.56,0.168l-12.461,0.111h-0.027c-1.877-0.027-2.633-0.867-2.633-2.548
			v-3.023c-0.476-0.364-1.231-0.784-1.959-1.009L98.7,52.78c0.028-0.14,0.14-0.252,0.392-0.252c1.176,0,3.248,0.14,4.145,0.336
			c0.308,0.084,0.476,0.308,0.476,0.7l-0.056,1.483v2.437c0,0.504,0.195,0.728,0.699,0.728c1.877,0.028,5.824-0.027,7.561-0.084
			L113.064,57.484z"/>
		<path d="M133.812,35.7c-1.597,0.924-2.576,1.848-3.193,3.36l1.4,1.008c0.952,0.728,1.204,1.372,1.204,2.128
			c0,1.148-0.924,1.932-1.932,1.932c-0.728,0-1.261-0.308-1.708-0.615c-0.42-0.757-0.645-1.597-0.645-2.437
			c0-2.604,1.877-4.928,4.508-6.076L133.812,35.7z M138.236,40.068c0.924,0.728,1.176,1.372,1.176,2.128
			c0,1.148-0.896,1.932-1.932,1.932c-0.729,0-1.261-0.308-1.709-0.615c-0.42-0.757-0.644-1.597-0.644-2.437
			c0-2.604,1.876-4.928,4.508-6.076L140,35.7c-1.596,0.924-2.576,1.848-3.192,3.36L138.236,40.068z"/>
		<path d="M163.352,45.668c1.176,0.057,2.855,0.309,3.557,0.561c0.279,0.084,0.476,0.279,0.476,0.616
			c0,0.644-0.476,1.26-0.841,1.399c-0.728-0.084-2.659-0.14-3.555-0.14c-1.933,0-13.58,0.14-15.205,0.224
			c-0.728,0.057-2.408,0.364-3.164,0.588c-1.119-0.392-2.352-1.176-3.135-1.876c-0.113-0.111-0.141-0.252-0.084-0.392l0.252-0.477
			c1.092,0.196,2.547,0.309,3.584,0.309c1.819,0.027,14.924-0.112,16.911-0.28L163.352,45.668z M147,38.305
			c-0.393-0.42-1.008-0.841-1.709-1.064l0.225-0.896c0.027-0.084,0.111-0.168,0.309-0.168c1.063,0,3.556,0.111,4.508,0.279
			c1.848,0,6.859-0.084,8.26-0.168l0.84-0.392c0.812,0,2.016,0.056,2.632,0.196c0.336,0.056,0.476,0.279,0.476,0.531
			c0,0.672-0.168,1.177-0.363,1.372c-0.141,0.141-0.28,0.168-0.504,0.168l-11.396,0.196v3.416c0,0.476,0.196,0.7,0.672,0.7
			c1.736,0,6.049-0.057,7.616-0.168l0.812-0.393c0.896-0.027,2.213,0.057,2.856,0.168c0.28,0.057,0.476,0.252,0.476,0.561
			c0,0.588-0.252,1.063-0.42,1.231c-0.14,0.112-0.336,0.168-0.504,0.168l-11.787,0.196C147.84,44.296,147,43.4,147,41.805V38.305z
			 M160.328,58.38c0.867,0,2.155,0.112,2.744,0.252c0.307,0.084,0.475,0.28,0.475,0.561c0,0.672-0.195,1.176-0.363,1.344
			c-0.141,0.112-0.309,0.168-0.504,0.168l-12.404,0.084c-1.96-0.028-2.632-0.728-2.632-2.1v-2.324
			c-0.364-0.364-0.952-0.672-1.624-0.896l0.141-0.699c0.027-0.112,0.111-0.196,0.308-0.196c1.063,0,3.556,0.056,4.479,0.168
			c1.652,0,5.797-0.056,6.832-0.112l0.588-0.14c0.057-0.56,0.084-1.68,0.057-2.128c-1.904-0.028-6.412,0-7.393,0.056
			c-0.644,0.057-1.764,0.225-2.52,0.42c-0.896-0.447-1.82-1.092-2.464-1.708c-0.14-0.111-0.168-0.195-0.084-0.336l0.196-0.42
			c0.84,0.168,2.127,0.28,2.883,0.28c1.429,0,8.261-0.056,9.856-0.14l1.009-0.448c0.168-0.057,0.336-0.057,0.531,0
			c0.42,0.168,1.288,0.504,1.624,0.672c0.112,0.084,0.14,0.28,0.056,0.476l-0.42,0.952c-0.056,0.672-0.336,1.876-0.56,2.437
			l0.504,0.224c0.14,0.084,0.224,0.224,0.224,0.364c0,0.476-0.195,0.952-0.363,1.147l-10.612,0.112v1.904
			c0,0.363,0.168,0.531,0.532,0.531c1.848,0.028,6.328,0,8.008-0.056L160.328,58.38z"/>
		<path d="M183.651,39.116c-1.54,4.844-6.496,9.716-12.655,12.32c-0.197,0.111-0.336,0.14-0.393,0.056l-0.477-0.504
			c-0.111-0.14-0.111-0.252,0-0.392c3.024-1.988,5.572-4.48,7.393-7.057c-1.092,0.168-2.352,0.309-3.275,0.393
			c-0.617,0.056-1.541,0.308-1.988,0.504c-0.868-0.42-1.764-0.98-2.408-1.597c-0.112-0.084-0.141-0.168-0.084-0.279l0.224-0.42
			c0.841,0.111,1.849,0.111,2.66,0.084c1.651-0.057,4.536-0.309,6.048-0.504c0.504-0.896,0.924-1.792,1.232-2.66
			c-1.344-0.028-3.389-0.028-3.948,0.027c-0.588,0.028-1.681,0.252-2.269,0.421c-0.867-0.393-1.819-1.036-2.407-1.624
			c-0.14-0.141-0.14-0.252-0.084-0.364l0.224-0.364c0.84,0.14,1.932,0.196,2.717,0.196c1.008,0.027,5.264-0.028,6.495-0.112
			l1.177-0.504c0.168-0.084,0.447-0.084,0.588,0c0.476,0.224,1.371,0.728,1.707,0.98c0.141,0.084,0.168,0.279,0.057,0.447
			L183.651,39.116z M189.531,58.212c0.84,0,2.1,0.112,2.688,0.252c0.309,0.084,0.505,0.28,0.505,0.588
			c0,0.7-0.224,1.204-0.392,1.372c-0.113,0.112-0.309,0.168-0.504,0.168l-12.32,0.084c-1.848-0.027-2.521-0.699-2.521-2.155v-2.464
			c-0.364-0.393-0.952-0.7-1.596-0.925l0.112-0.699c0.027-0.112,0.14-0.196,0.336-0.196c1.035,0,3.527,0.056,4.479,0.168
			c1.736,0,5.517-0.028,6.552-0.084l0.561-0.14c0.084-0.532,0.084-1.82,0.056-2.297c-1.792-0.027-5.964,0.028-6.916,0.085
			c-0.644,0.027-1.792,0.224-2.521,0.42c-0.951-0.448-1.875-1.12-2.547-1.765c-0.141-0.111-0.141-0.195-0.084-0.336l0.224-0.42
			c0.84,0.168,2.185,0.28,2.912,0.28c1.399,0,7.924-0.057,9.407-0.141l1.064-0.447c0.168-0.084,0.364-0.084,0.561,0
			c0.392,0.14,1.231,0.504,1.567,0.672c0.14,0.112,0.168,0.28,0.084,0.476l-0.448,0.98c-0.056,0.756-0.336,1.987-0.56,2.576
			l0.504,0.224c0.14,0.084,0.252,0.224,0.252,0.364c0,0.504-0.196,0.979-0.364,1.204l-10.359,0.111v2.017
			c0,0.392,0.168,0.531,0.504,0.531c1.876,0.028,6.188,0,7.84-0.056L189.531,58.212z M187.739,37.017
			c-0.392-0.616-1.231-1.232-2.184-1.597l0.336-1.008c0.028-0.111,0.14-0.195,0.42-0.195c1.288,0.056,3.416,0.476,4.368,0.896
			c0.308,0.14,0.42,0.392,0.392,0.756l-0.084,1.652v6.244c0,1.512-0.448,3.863-1.008,4.956h-1.876
			c-0.225-0.868-0.364-3.164-0.364-4.173V37.017z"/>
		<path d="M209.411,38.78c0.14-0.056,0.421-0.056,0.56,0c0.365,0.196,1.093,0.672,1.316,0.868c0.141,0.112,0.168,0.28,0.084,0.448
			l-0.392,0.951c-0.589,4.9-4.004,10.948-8.597,14.673c-0.14,0.14-0.279,0.168-0.42,0.111l-0.504-0.364
			c-0.14-0.084-0.168-0.168-0.111-0.363c3.443-4.032,5.74-9.632,6.355-14.057c-0.447,0-0.924,0-1.092,0.028
			c-0.393,0.028-1.176,0.168-1.568,0.309c-0.168-0.112-0.363-0.225-0.531-0.364c-0.756,4.284-3.948,9.492-8.064,12.655
			c-0.14,0.141-0.309,0.169-0.42,0.141l-0.447-0.364c-0.141-0.084-0.168-0.196-0.113-0.364c3.108-3.388,5.236-8.26,5.881-12.067
			c-0.616,0-1.4,0.027-1.625,0.056c-0.391,0.028-1.203,0.168-1.596,0.309c-0.615-0.364-1.26-0.925-1.707-1.4
			c-0.112-0.14-0.112-0.224-0.084-0.336l0.252-0.393c0.56,0.084,1.287,0.141,1.819,0.141c0.616,0,2.828-0.028,3.584-0.084
			l0.952-0.532c0.141-0.084,0.393-0.084,0.561,0c0.252,0.112,0.699,0.364,1.035,0.588c0.28,0.028,0.561,0.028,0.784,0.028
			c0.56,0,2.269-0.028,2.968-0.084L209.411,38.78z M218.764,45.584c0.812-0.027,2.016,0.028,2.52,0.141
			c0.336,0.084,0.561,0.336,0.588,0.644c0.057,0.645-0.111,1.232-0.336,1.456c-0.168,0.196-0.531,0.308-0.812,0.308l-4.199,0.112
			v5.937c0,1.819-0.393,5.235-1.036,7.14h-1.792c-0.225-1.064-0.363-4.872-0.363-6.16V36.988c-0.393-0.616-1.232-1.204-2.156-1.568
			l0.363-1.008c0.057-0.111,0.141-0.195,0.42-0.195c1.26,0.056,3.36,0.476,4.284,0.896c0.308,0.14,0.42,0.392,0.42,0.756
			l-0.14,1.624v8.764l1.344-0.084L218.764,45.584z"/>
		<path d="M245.811,44.996c0.812-0.027,2.017,0.028,2.521,0.141c0.336,0.084,0.56,0.336,0.588,0.644
			c0.056,0.616-0.112,1.232-0.336,1.456c-0.168,0.196-0.532,0.28-0.812,0.28l-4.368,0.111v6.496c0,1.849-0.392,5.292-1.093,7.196
			h-1.791c-0.225-1.036-0.364-4.872-0.364-6.188v-1.764c-3.136,0.729-8.708,1.54-11.845,1.764c-0.644,0.057-1.875,0.336-2.491,0.561
			c-1.093-0.504-2.353-1.4-3.192-2.185c-0.14-0.111-0.168-0.195-0.084-0.363l0.225-0.477c1.092,0.168,2.492,0.252,3.584,0.225
			c0.979-0.028,2.184-0.084,3.472-0.168v-3.977l-1.651,0.028c-0.168,0.588-0.477,0.979-0.729,1.204h-1.708
			c-0.252-0.616-0.392-1.484-0.392-2.044l-0.168-7.729c-0.309-0.363-1.037-0.812-1.625-1.008l0.225-0.868
			c0.027-0.084,0.14-0.168,0.447-0.168c0.98-0.027,3.053,0.168,3.836,0.393c0.281,0.056,0.393,0.252,0.365,0.588l-0.057,1.315v1.316
			l5.964-0.056v-2.856c-0.308-0.42-0.952-0.84-1.624-1.092l0.309-0.84c0.056-0.141,0.168-0.196,0.447-0.168
			c1.036,0.027,2.996,0.392,3.78,0.672c0.28,0.111,0.364,0.308,0.364,0.588l-0.084,1.484l-0.057,4.731
			c0,0.868-0.168,2.016-0.336,2.688l0.504,0.168c0.112,0.056,0.225,0.168,0.225,0.336c0,0.56-0.168,1.092-0.364,1.26
			c-1.063,0-2.828,0-4.647,0.028V52.5c2.771-0.252,5.571-0.588,7.308-0.924V37.044c-0.42-0.644-1.288-1.26-2.269-1.651l0.336-0.98
			c0.057-0.111,0.112-0.195,0.393-0.195c1.316,0.056,3.5,0.476,4.48,0.896c0.308,0.14,0.447,0.392,0.42,0.756l-0.112,1.708v8.092
			l1.512-0.084L245.811,44.996z M228.367,43.708l-0.027,3.137l5.991-0.057v-3.136L228.367,43.708z"/>
		<path d="M281.539,45.221c0.812-0.028,2.016,0.027,2.52,0.14c0.336,0.084,0.561,0.336,0.588,0.644
			c0.057,0.645-0.111,1.232-0.336,1.456c-0.168,0.225-0.531,0.309-0.812,0.309l-4.396,0.111v6.244c0,1.849-0.393,5.292-1.064,7.196
			h-1.82c-0.195-1.036-0.336-4.872-0.336-6.188v-1.063c-3.136,0.728-8.68,1.54-11.844,1.792c-0.645,0.056-1.876,0.308-2.492,0.532
			c-1.092-0.477-2.352-1.372-3.191-2.156c-0.112-0.112-0.141-0.224-0.084-0.364l0.224-0.504c1.093,0.196,2.492,0.252,3.584,0.252
			c1.036-0.028,2.324-0.084,3.724-0.196v-2.352c-2.576-0.392-4.479-1.96-4.479-4.144c0-2.604,2.604-4.284,5.88-4.284
			c3.248,0,5.824,1.68,5.824,4.284c0,2.128-1.764,3.64-4.2,4.115V53.2c2.688-0.252,5.376-0.588,7.056-0.952V37.044
			c-0.42-0.644-1.287-1.26-2.295-1.651l0.336-0.98c0.055-0.111,0.139-0.195,0.42-0.195c1.315,0.056,3.472,0.476,4.479,0.896
			c0.308,0.14,0.42,0.392,0.42,0.756l-0.14,1.708v8.316l1.539-0.084L281.539,45.221z M271.852,39.424
			c0.84,0.057,2.1,0.225,2.632,0.421c0.224,0.084,0.336,0.279,0.336,0.504c0,0.672-0.392,1.26-0.673,1.456
			c-0.504-0.057-1.932-0.084-2.604-0.084c-1.035,0-7.252,0.14-8.26,0.224c-0.588,0.028-1.624,0.224-2.156,0.364
			c-0.867-0.393-1.791-1.12-2.408-1.736c-0.084-0.112-0.111-0.224-0.056-0.308l0.224-0.42c0.869,0.168,2.072,0.252,2.801,0.252
			c1.148,0,7.979-0.141,9.184-0.225L271.852,39.424z M262.863,35.868c2.408,0.448,4.956,0.561,6.691,0.532
			c0.336,0,0.504,0.084,0.588,0.28c0.281,0.447,0.197,1.428-0.111,1.735c-0.141,0.141-0.336,0.168-0.532,0.168
			c-1.176,0.028-3.192,0.057-4.34,0.168c-0.336,0.028-0.532,0-0.728-0.14c-0.588-0.392-1.344-1.288-1.82-2.016
			c-0.084-0.168-0.084-0.28,0-0.393L262.863,35.868z M267.203,49.336c1.568,0,2.771-0.896,2.771-2.407
			c0-1.513-1.203-2.408-2.771-2.408c-1.54,0-2.744,0.896-2.744,2.408C264.459,48.44,265.663,49.336,267.203,49.336z"/>
		<path d="M294.811,45.305c-2.268,2.323-5.123,4.396-8.26,5.88c-0.195,0.111-0.336,0.14-0.447,0.056l-0.477-0.476
			c-0.111-0.141-0.111-0.252,0-0.393c4.312-3.023,7.672-7.111,9.436-10.752c-1.399-0.027-3.416,0-3.976,0.057
			c-0.56,0.027-1.596,0.224-2.184,0.447c-0.868-0.42-1.792-1.12-2.437-1.735c-0.111-0.141-0.14-0.252-0.056-0.364l0.224-0.392
			c0.84,0.14,1.932,0.195,2.744,0.195c1.008,0,5.264-0.056,6.58-0.111l1.148-0.505c0.195-0.084,0.447-0.084,0.644,0
			c0.504,0.196,1.456,0.616,1.849,0.841c0.14,0.084,0.168,0.279,0.056,0.447l-0.673,1.036c-0.699,1.428-1.651,2.884-2.827,4.256
			l2.38,1.82l1.316,0.224c0.504,0.561,1.147,1.484,1.428,1.988c0.252,0.448,0.279,0.729,0.195,0.952
			c-0.168,0.532-0.867,0.868-1.371,0.756c-0.252-0.028-0.588-0.252-0.812-0.476L294.811,45.305z M305.982,55.832
			c0,3.248-2.855,5.32-6.327,5.32c-3.444,0-6.3-2.072-6.3-5.32c0-3.023,2.855-4.956,6.3-4.956
			C303.127,50.876,305.982,52.809,305.982,55.832z M302.68,55.832c0-1.735-1.316-2.771-3.024-2.771
			c-1.681,0-2.996,1.036-2.996,2.771c0,1.736,1.315,2.772,2.996,2.772C301.363,58.604,302.68,57.568,302.68,55.832z M308.587,42.477
			c0.812-0.028,2.017,0.027,2.521,0.14c0.336,0.056,0.56,0.308,0.588,0.616c0.056,0.644-0.112,1.26-0.336,1.483
			c-0.168,0.196-0.532,0.28-0.812,0.28l-4.396,0.112v0.252c0,1.624-0.42,4.34-1.008,5.684h-1.875
			c-0.196-0.924-0.336-3.724-0.336-4.872v-9.155c-0.393-0.616-1.261-1.232-2.213-1.597l0.336-1.008
			c0.057-0.111,0.141-0.195,0.42-0.195c1.316,0.056,3.416,0.476,4.396,0.896c0.279,0.14,0.42,0.392,0.393,0.756l-0.113,1.652v5.628
			l1.541-0.084L308.587,42.477z"/>
		<path d="M321.915,43.513c-1.82,2.38-4.425,4.619-7.56,6.3c-0.168,0.111-0.309,0.111-0.42,0l-0.504-0.448
			c-0.113-0.084-0.084-0.224,0.055-0.364c3.752-3.136,6.385-6.943,7.336-10.443c-0.279-0.532-0.924-1.093-1.596-1.456l0.448-0.868
			c0.056-0.112,0.168-0.14,0.42-0.112c1.204,0.141,3.22,0.729,3.976,1.148c0.309,0.14,0.504,0.392,0.504,0.644
			c0,0.309-0.055,0.588-0.139,0.756c-0.309,1.036-0.757,2.101-1.373,3.137l2.828,2.323l1.484,0.393
			c0.504,0.616,1.176,1.567,1.456,2.1c0.252,0.477,0.308,0.812,0.196,1.064c-0.168,0.476-0.896,0.84-1.4,0.728
			c-0.252-0.084-0.588-0.308-0.84-0.532L321.915,43.513z M333.199,58.128c0.867-0.027,2.127,0.084,2.744,0.225
			c0.308,0.084,0.476,0.308,0.476,0.588c0,0.7-0.196,1.204-0.364,1.372c-0.14,0.14-0.308,0.168-0.504,0.168l-12.46,0.084h-0.028
			c-1.791-0.028-2.463-0.7-2.463-2.156v-2.38c-0.365-0.392-0.953-0.7-1.597-0.896l0.112-0.728c0.027-0.084,0.14-0.168,0.336-0.168
			c1.035,0,3.527,0.056,4.48,0.168c1.567,0,5.684-0.056,6.803-0.112l0.561-0.14c0.057-0.561,0.057-1.764,0.027-2.24
			c-1.848,0-6.075,0.057-7.055,0.112c-0.645,0.028-1.765,0.196-2.521,0.392c-0.952-0.447-1.849-1.12-2.548-1.764
			c-0.112-0.112-0.112-0.196-0.084-0.336l0.224-0.393c0.84,0.141,2.212,0.252,2.912,0.252c1.399,0,7.952-0.056,9.548-0.111
			l1.092-0.477c0.141-0.084,0.336-0.084,0.532,0c0.42,0.141,1.231,0.504,1.597,0.7c0.111,0.084,0.139,0.252,0.055,0.477
			l-0.447,0.951c-0.057,0.7-0.336,1.933-0.561,2.521l0.504,0.252c0.168,0.056,0.252,0.196,0.252,0.364
			c0,0.504-0.195,0.979-0.363,1.176l-10.584,0.14v1.904c0,0.392,0.168,0.56,0.504,0.56c1.932,0.028,6.216,0,7.952-0.084
			L333.199,58.128z M331.658,37.017c-0.391-0.616-1.231-1.232-2.184-1.597l0.336-1.008c0.028-0.111,0.141-0.195,0.42-0.195
			c1.289,0.056,3.416,0.476,4.368,0.896c0.308,0.14,0.421,0.392,0.392,0.756l-0.084,1.652v6.244c0,1.512-0.447,3.863-1.008,4.956
			h-1.875c-0.225-0.868-0.365-3.164-0.365-4.173V37.017z"/>
		<path d="M353.162,36.429c0.057-0.112,0.141-0.196,0.449-0.196c1.119,0.056,2.967,0.448,3.808,0.84
			c0.252,0.14,0.364,0.364,0.364,0.7l-0.084,1.428v14c0,1.708-0.393,4.788-0.98,6.468h-1.652c-0.195-1.092-0.336-4.34-0.336-5.571
			V47.04c-0.812,0-1.68,0.057-2.324,0.084c-0.531,2.856-2.883,4.76-5.991,4.76c-3.584,0-6.16-2.464-6.16-5.964
			s2.576-5.936,6.16-5.936c3.192,0,5.6,1.988,6.048,4.956c0.699,0,1.568,0,2.268-0.028v-6.16c-0.336-0.531-1.119-1.035-1.932-1.372
			L353.162,36.429z M349.41,45.92c0-2.184-1.231-3.472-2.995-3.472c-1.765,0-3.024,1.288-3.024,3.472
			c0,2.128,1.26,3.416,3.024,3.416C348.179,49.336,349.41,48.048,349.41,45.92z M358.119,34.44c0.056-0.14,0.168-0.224,0.447-0.224
			c1.204,0.056,3.192,0.476,4.116,0.896c0.28,0.112,0.42,0.364,0.392,0.728l-0.111,1.54v16.969c0,1.792-0.393,5.124-1.036,6.972
			h-1.735c-0.197-1.008-0.365-4.732-0.365-6.021V36.904c-0.336-0.588-1.176-1.148-2.043-1.512L358.119,34.44z"/>
		<path d="M397.094,46.396c1.177,0.027,2.856,0.28,3.557,0.532c0.279,0.111,0.477,0.336,0.477,0.644c0,0.7-0.477,1.344-0.841,1.512
			c-0.728-0.084-2.659-0.14-3.556-0.14s-3.809,0.028-6.86,0.056v0.896c0,0.728-0.14,1.54-0.364,2.24
			c1.121-0.028,2.156-0.057,2.801-0.084l1.203-0.477c0.168-0.084,0.393-0.084,0.588,0c0.42,0.196,1.289,0.588,1.597,0.812
			c0.14,0.056,0.14,0.224,0.084,0.42l-0.392,1.231c-0.141,1.344-0.364,2.8-0.672,4.088l0.531,0.28
			c0.168,0.112,0.28,0.252,0.28,0.448c0,0.644-0.252,1.204-0.504,1.456l-10.304,0.084c-0.112,0.336-0.28,0.588-0.561,0.868h-1.764
			c-0.252-0.448-0.393-1.148-0.448-1.765l-0.448-5.544c-0.336-0.392-0.979-0.784-1.596-1.036l0.252-0.867
			c0.027-0.084,0.111-0.169,0.336-0.169c1.092,0,3.107,0.169,4.256,0.337l2.016-0.028c-0.084-0.561-0.111-1.176-0.111-1.68v-1.456
			c-2.408,0.027-4.48,0.056-5.096,0.111c-0.756,0.057-2.437,0.336-3.192,0.561c-1.12-0.42-2.353-1.232-3.136-1.988
			c-0.112-0.084-0.141-0.252-0.084-0.364l0.252-0.504c1.092,0.196,2.548,0.309,3.584,0.336c1.848,0.028,14.924-0.14,16.912-0.279
			L397.094,46.396z M377.635,45.053c-0.084-0.112-0.057-0.28,0.084-0.337c4.312-2.128,7.476-4.844,9.1-7.728
			c-0.225-0.392-0.756-0.868-1.316-1.176L385.95,35c0.084-0.111,0.224-0.168,0.504-0.14c1.204,0.14,3.136,0.672,3.921,1.092
			c0.307,0.141,0.475,0.393,0.475,0.672c-0.027,0.393-0.111,0.616-0.195,0.784c-0.336,0.588-0.756,1.148-1.204,1.68l4.172,1.82
			l2.128,0.112c0.756,0.42,1.82,1.092,2.297,1.512c0.392,0.336,0.56,0.645,0.56,0.896c0,0.588-0.589,1.147-1.093,1.203
			c-0.279,0-0.672-0.111-0.979-0.252l-8.483-3.863c-2.437,2.239-5.797,4.031-9.576,5.124c-0.225,0.056-0.336,0.056-0.393,0
			L377.635,45.053z M384.858,58.324c1.933,0.028,4.928-0.028,6.58-0.112l0.588-0.14l0.084-3.92c-2.269,0-5.097,0.056-7.28,0.14
			L384.858,58.324z"/>
		<path d="M419.605,34.412c0.057-0.111,0.113-0.195,0.393-0.195c1.344,0.056,3.5,0.476,4.508,0.896
			c0.28,0.14,0.42,0.392,0.393,0.756l-0.112,1.708v16.548c0,1.849-0.392,5.292-1.063,7.196h-1.82
			c-0.196-1.036-0.364-4.872-0.364-6.188v-8.54c-0.588,0.028-1.204,0.057-1.483,0.085c-0.477,0.056-1.4,0.336-1.877,0.504
			c-0.42-0.196-0.812-0.42-1.176-0.673c-0.279,3.332-3.052,5.629-6.691,5.629c-3.893,0-6.748-2.576-6.748-6.217
			c0-3.611,2.855-6.216,6.748-6.216c3.443,0,6.104,2.072,6.636,5.097c0.56,0.027,1.176,0.056,1.68,0.056
			c0.673,0,1.904-0.028,2.912-0.084v-7.729c-0.392-0.644-1.288-1.26-2.269-1.651L419.605,34.412z M413.67,45.92
			c0-2.296-1.4-3.695-3.359-3.695c-1.961,0-3.36,1.399-3.36,3.695s1.399,3.696,3.36,3.696C412.27,49.616,413.67,48.216,413.67,45.92
			z"/>
		<path d="M443.154,48.944c0.447,0.756,1.008,1.932,1.232,2.548c0.168,0.532,0.195,0.896,0.055,1.148
			c-0.308,0.504-1.092,0.756-1.539,0.56c-0.252-0.14-0.561-0.448-0.784-0.728l-4.368-5.517c-1.736,2.464-4.088,4.816-6.973,6.72
			c-0.168,0.084-0.279,0.084-0.42,0l-0.56-0.447c-0.084-0.112-0.084-0.225,0.056-0.364c3.865-3.836,6.469-8.456,7.196-12.516
			c-0.28-0.532-0.952-1.177-1.651-1.568l0.42-0.84c0.084-0.14,0.195-0.168,0.42-0.14c1.203,0.14,3.304,0.728,4.088,1.147
			c0.279,0.168,0.477,0.42,0.477,0.672c0,0.28-0.029,0.561-0.085,0.756c-0.308,1.54-0.924,3.164-1.819,4.761l2.66,3.079
			L443.154,48.944z M446.654,34.412c0.027-0.111,0.111-0.195,0.392-0.195c1.315,0.056,3.5,0.476,4.479,0.896
			c0.309,0.14,0.449,0.392,0.42,0.756l-0.111,1.708v16.548c0,1.849-0.42,5.292-1.092,7.196h-1.82
			c-0.195-1.036-0.336-4.872-0.336-6.188v-9.128c-0.84,0.028-1.792,0.084-2.212,0.141c-0.448,0.056-1.399,0.279-1.849,0.504
			c-0.979-0.504-1.791-1.148-2.463-1.82c-0.141-0.112-0.168-0.224-0.084-0.364l0.224-0.42c0.756,0.141,1.932,0.196,2.743,0.196
			c0.785,0,2.437-0.028,3.641-0.112v-7.084c-0.42-0.644-1.288-1.26-2.268-1.651L446.654,34.412z"/>
		<path d="M486.918,47.068c1.176,0.056,2.855,0.28,3.556,0.56c0.28,0.084,0.476,0.309,0.476,0.616c0,0.7-0.476,1.344-0.84,1.54
			c-0.729-0.084-2.66-0.14-3.556-0.14c-1.933-0.028-13.524,0.111-15.177,0.224c-0.756,0.056-2.436,0.336-3.191,0.561
			c-1.12-0.421-2.352-1.261-3.136-1.988c-0.112-0.112-0.14-0.252-0.084-0.393l0.252-0.476c1.092,0.168,2.548,0.28,3.584,0.308
			c1.848,0.028,14.924-0.111,16.911-0.279L486.918,47.068z M483.334,51.521c0.168-0.084,0.392-0.084,0.588,0
			c0.42,0.195,1.287,0.588,1.596,0.812c0.141,0.084,0.141,0.225,0.084,0.42l-0.393,1.261c-0.14,1.344-0.392,2.827-0.699,4.144
			l0.56,0.308c0.168,0.112,0.28,0.252,0.28,0.448c0,0.645-0.252,1.232-0.504,1.456l-10.332,0.084
			c-0.112,0.336-0.28,0.616-0.532,0.896h-1.792c-0.224-0.505-0.393-1.177-0.447-1.82l-0.449-5.6
			c-0.336-0.393-0.951-0.812-1.567-1.036l0.224-0.868c0.028-0.112,0.141-0.168,0.336-0.168c1.092,0,3.137,0.14,4.256,0.308
			c1.736-0.027,5.937-0.084,7.588-0.168L483.334,51.521z M471.154,41.021c0-2.968,2.715-5.181,6.747-5.181s6.748,2.213,6.748,5.181
			c0,2.996-2.716,5.208-6.748,5.208S471.154,44.017,471.154,41.021z M474.401,41.021c0,1.932,1.429,3.136,3.5,3.136
			c2.044,0,3.472-1.204,3.472-3.136c0-1.904-1.428-3.136-3.472-3.136C475.83,37.885,474.401,39.116,474.401,41.021z M474.653,58.38
			c1.933,0.028,4.956,0,6.608-0.111l0.588-0.141l0.084-4.004c-2.268,0-5.124,0.057-7.309,0.112L474.653,58.38z"/>
		<path d="M501.533,44.128c-1.792,2.408-4.312,4.648-7.392,6.385c-0.168,0.111-0.308,0.111-0.42,0.027l-0.505-0.476
			c-0.084-0.112-0.084-0.252,0.057-0.364c3.752-3.276,6.355-7.252,7.252-10.864c-0.252-0.504-0.896-1.092-1.568-1.456l0.448-0.84
			c0.056-0.14,0.168-0.168,0.42-0.14c1.177,0.14,3.22,0.728,3.976,1.147c0.281,0.169,0.477,0.421,0.477,0.645
			c0,0.308-0.057,0.56-0.111,0.756c-0.309,1.148-0.812,2.324-1.484,3.472l2.939,2.576l1.484,0.42
			c0.504,0.645,1.148,1.624,1.428,2.185c0.225,0.476,0.28,0.812,0.168,1.036c-0.195,0.531-0.951,0.84-1.455,0.699
			c-0.253-0.056-0.561-0.308-0.812-0.56L501.533,44.128z M512.537,51.269c0.141-0.084,0.393-0.084,0.561,0
			c0.447,0.224,1.287,0.672,1.596,0.896c0.111,0.112,0.111,0.252,0.057,0.448l-0.365,1.147l-0.084,3.473
			c0,1.288-0.392,3.332-0.896,4.34h-1.933c-0.223-0.84-0.336-2.66-0.336-3.612v-4.256c-2.211-0.028-6.691,0.056-7.783,0.141
			c-0.756,0.027-2.016,0.252-2.744,0.504c-1.036-0.42-2.072-1.093-2.8-1.736c-0.14-0.112-0.168-0.252-0.112-0.392l0.252-0.477
			c1.008,0.14,2.297,0.225,3.192,0.225c1.344,0,8.624-0.141,10.388-0.253L512.537,51.269z M511.305,37.017
			c-0.363-0.616-1.231-1.232-2.184-1.597l0.336-1.008c0.057-0.111,0.141-0.195,0.42-0.195c1.316,0.056,3.416,0.476,4.396,0.896
			c0.279,0.14,0.393,0.392,0.393,0.756l-0.113,1.652v7.504c0,1.624-0.42,4.228-1.008,5.516h-1.875
			c-0.197-0.896-0.365-3.611-0.365-4.704V37.017z"/>
		<path d="M541.014,45.977c1.176,0.056,2.855,0.308,3.556,0.56c0.28,0.084,0.476,0.309,0.476,0.616c0,0.672-0.476,1.26-0.84,1.4
			c-0.729-0.084-2.66-0.141-3.556-0.141c-1.933,0-13.58,0.141-15.204,0.225c-0.729,0.056-2.408,0.363-3.164,0.588
			c-1.12-0.393-2.352-1.177-3.136-1.876c-0.112-0.084-0.14-0.252-0.084-0.393l0.252-0.476c1.092,0.196,2.548,0.308,3.584,0.336
			c1.819,0.028,14.924-0.14,16.911-0.28L541.014,45.977z M537.821,58.353c0.868,0,2.128,0.111,2.716,0.252
			c0.309,0.084,0.504,0.279,0.504,0.56c0,0.672-0.224,1.176-0.392,1.344c-0.112,0.112-0.308,0.168-0.505,0.168l-12.348,0.084h-0.027
			c-1.904-0.027-2.576-0.728-2.576-2.128v-2.239c-0.364-0.393-0.952-0.672-1.624-0.896l0.14-0.7
			c0.028-0.111,0.112-0.195,0.309-0.195c1.063,0,3.527,0.056,4.479,0.168c1.736,0,5.824-0.057,6.86-0.112l0.588-0.14
			c0.057-0.532,0.084-1.624,0.057-2.072c-1.904-0.028-6.356,0.028-7.337,0.084c-0.644,0.056-1.764,0.224-2.491,0.42
			c-0.924-0.448-1.82-1.092-2.492-1.708c-0.141-0.14-0.168-0.224-0.084-0.364l0.195-0.392c0.84,0.168,2.156,0.28,2.885,0.28
			c1.399,0,8.147-0.084,9.771-0.141l1.008-0.448c0.168-0.084,0.364-0.084,0.561,0c0.392,0.169,1.26,0.505,1.596,0.673
			c0.141,0.084,0.168,0.252,0.084,0.447l-0.448,0.98c-0.056,0.7-0.336,1.792-0.56,2.352l0.531,0.252
			c0.112,0.057,0.196,0.196,0.196,0.336c0,0.477-0.196,0.952-0.336,1.148l-10.64,0.112v1.819c0,0.393,0.168,0.561,0.531,0.561
			c1.877,0.027,6.272,0,7.953-0.057L537.821,58.353z M525.277,40.349c0-2.856,2.716-4.816,6.72-4.816c4.005,0,6.72,1.96,6.72,4.816
			c0,2.884-2.715,4.844-6.72,4.844C527.993,45.192,525.277,43.232,525.277,40.349z M528.553,40.349c0,1.735,1.4,2.771,3.444,2.771
			s3.444-1.036,3.444-2.771c0-1.736-1.4-2.772-3.444-2.772S528.553,38.612,528.553,40.349z"/>
		<path d="M6.553,82.349c-0.112,0.477-0.309,0.868-0.616,1.26H4.201c-0.225-0.588-0.365-1.399-0.421-2.1l-0.588-8.12
			c-0.308-0.363-0.896-0.756-1.512-0.979l0.224-0.868c0.057-0.112,0.141-0.168,0.364-0.168c1.12,0,3.164,0.14,4.284,0.336
			c1.4,0.028,4.312,0,5.712-0.112l1.231-0.588c0.168-0.084,0.393-0.084,0.561,0c0.476,0.196,1.4,0.645,1.792,0.896
			c0.084,0.084,0.112,0.195,0.056,0.42l-0.42,1.288c-0.027,0.615-0.057,1.26-0.111,1.932c0.42,0,0.84,0.028,1.203,0.028
			c0.729,0.027,2.24-0.028,3.416-0.084v-4.872c-0.363-0.616-1.232-1.232-2.184-1.597l0.336-1.008c0.056-0.111,0.14-0.195,0.42-0.195
			c1.316,0.056,3.416,0.476,4.396,0.896c0.279,0.14,0.392,0.392,0.392,0.756l-0.112,1.652v7.532c0,1.651-0.42,4.256-1.008,5.516
			h-1.876c-0.196-0.868-0.364-3.584-0.364-4.676v-2.24c-0.812,0-1.68,0.028-2.1,0.084c-0.448,0.056-1.26,0.224-1.736,0.42
			c-0.336-0.196-0.645-0.392-0.924-0.616c-0.141,1.092-0.279,2.156-0.42,3.108l0.531,0.252c0.168,0.084,0.281,0.224,0.281,0.42
			c0,0.588-0.225,1.12-0.42,1.344L6.553,82.349z M21.225,84.925c0.14-0.056,0.392-0.056,0.531,0c0.449,0.224,1.289,0.7,1.597,0.924
			c0.14,0.084,0.14,0.225,0.084,0.42l-0.364,1.148l-0.084,3.416c0,1.315-0.42,3.359-0.924,4.368h-1.932
			c-0.196-0.841-0.336-2.66-0.336-3.612v-4.228c-2.24,0-6.664,0.084-7.756,0.168c-0.729,0.027-2.017,0.252-2.717,0.476
			c-1.035-0.392-2.072-1.064-2.828-1.708c-0.14-0.14-0.168-0.252-0.111-0.392l0.252-0.477c1.008,0.14,2.296,0.225,3.22,0.225
			c1.315,0,8.567-0.141,10.36-0.28L21.225,84.925z M12.152,73.557c-1.764,0-3.863,0.028-5.572,0.084l0.084,6.776
			c1.428,0.028,3.696,0,4.873-0.084l0.56-0.14L12.152,73.557z"/>
		<path d="M47.012,77.085c-0.783,0-1.596,0.028-1.987,0.084c-0.448,0.056-1.261,0.252-1.736,0.42c-0.364-0.196-0.7-0.42-1.008-0.644
			c-0.196,3.107-2.856,5.319-6.412,5.319c-3.752,0-6.411-2.38-6.411-5.684c0-3.276,2.659-5.628,6.411-5.628
			c3.22,0,5.685,1.764,6.272,4.396c0.531,0.028,1.092,0.057,1.568,0.057c0.727,0,2.155-0.028,3.303-0.084v-4.704
			c-0.392-0.616-1.231-1.232-2.184-1.597l0.336-1.008c0.028-0.111,0.141-0.195,0.42-0.195c1.288,0.056,3.416,0.476,4.368,0.896
			c0.308,0.14,0.42,0.392,0.392,0.756l-0.084,1.652v7.027c0,1.652-0.447,4.257-1.008,5.544h-1.875
			c-0.225-0.896-0.365-3.611-0.365-4.703V77.085z M50.961,90.86c0.363,0.589,0.812,1.484,0.979,1.988
			c0.14,0.42,0.14,0.672,0.056,0.896c-0.252,0.447-0.896,0.699-1.344,0.588c-0.225-0.057-0.532-0.309-0.756-0.588l-3.276-3.752
			c-1.512,1.903-3.584,3.695-6.132,5.18c-0.195,0.112-0.309,0.112-0.42,0.028l-0.588-0.448c-0.112-0.112-0.112-0.224,0.027-0.393
			c0.617-0.531,1.205-1.092,1.736-1.68h-0.056c-0.28-0.028-0.532-0.224-0.757-0.448l-2.379-2.632
			c-1.512,1.904-3.696,3.668-6.356,5.068c-0.196,0.112-0.308,0.112-0.448,0.028l-0.56-0.477c-0.112-0.112-0.14-0.224,0.056-0.364
			c2.855-2.296,4.928-5.012,5.74-7.588c-0.252-0.363-0.784-0.84-1.344-1.12l0.447-0.867c0.084-0.112,0.225-0.168,0.448-0.141
			c1.147,0.168,2.856,0.7,3.528,1.092c0.279,0.141,0.42,0.364,0.42,0.616c0,0.309-0.057,0.532-0.112,0.729
			c-0.196,0.504-0.448,0.979-0.728,1.483l1.4,1.372l0.979,0.477c0.252,0.42,0.588,1.12,0.7,1.483l0.027,0.112
			c1.484-1.792,2.521-3.696,3.024-5.516c-0.196-0.421-0.784-0.952-1.345-1.288l0.449-0.868c0.084-0.141,0.224-0.196,0.447-0.141
			c1.176,0.253,2.885,0.868,3.557,1.288c0.279,0.196,0.42,0.393,0.42,0.645c0,0.28-0.057,0.532-0.112,0.7
			c-0.252,0.699-0.588,1.399-0.979,2.071l1.875,1.876L50.961,90.86z M32.648,76.581c0,2.044,1.316,3.275,3.22,3.275
			c1.876,0,3.192-1.231,3.192-3.275c0-2.017-1.316-3.304-3.192-3.304C33.965,73.277,32.648,74.564,32.648,76.581z"/>
		<path d="M77.98,78.877c0.812-0.028,2.016,0.028,2.52,0.14c0.336,0.057,0.561,0.309,0.588,0.616
			c0.057,0.645-0.111,1.26-0.336,1.484c-0.168,0.195-0.531,0.279-0.812,0.279l-4.396,0.112v6.216c0,1.849-0.392,5.292-1.063,7.196
			h-1.82c-0.196-1.036-0.336-4.872-0.336-6.188v-3.724c-3.584,1.204-8.036,2.072-11.116,2.353c-0.42,0.056-0.84,0.056-1.147,0.056
			c-1.344,0-2.269-0.756-2.66-1.933c-0.084-0.336-0.168-0.896-0.168-1.512v-8.876c-0.393-0.448-1.064-0.868-1.82-1.12l0.225-0.867
			c0.056-0.112,0.14-0.169,0.336-0.169c1.035,0,3.388,0.112,4.451,0.309c1.064-0.028,4.004-0.168,4.872-0.252l0.841-0.561
			c0.783,0,2.043,0.057,2.659,0.196c0.308,0.056,0.476,0.252,0.476,0.561c0,0.699-0.195,1.231-0.392,1.455
			c-0.14,0.112-0.308,0.168-0.532,0.168l-7.84,0.309v9.016c0,0.364,0.141,0.561,0.532,0.532c3.08-0.056,7.84-0.616,11.284-1.484
			V70.645c-0.42-0.644-1.288-1.26-2.296-1.651l0.336-0.98c0.056-0.111,0.14-0.195,0.42-0.195c1.315,0.056,3.472,0.476,4.479,0.896
			c0.309,0.14,0.42,0.392,0.42,0.756l-0.14,1.708v8.372l1.54-0.084L77.98,78.877z"/>
		<path d="M83.721,72.661c-0.953-0.7-1.205-1.372-1.205-2.128c0-1.148,0.924-1.933,1.933-1.933c0.728,0,1.26,0.309,1.708,0.616
			c0.42,0.756,0.644,1.596,0.644,2.464c0,2.576-1.876,4.9-4.508,6.048l-0.364-0.672c1.596-0.952,2.576-1.876,3.192-3.388
			L83.721,72.661z M89.908,72.661c-0.952-0.7-1.204-1.372-1.204-2.128c0-1.148,0.924-1.933,1.96-1.933
			c0.699,0,1.232,0.309,1.68,0.616c0.448,0.756,0.645,1.596,0.645,2.464c0,2.576-1.877,4.9-4.508,6.048l-0.364-0.672
			c1.596-0.952,2.575-1.876,3.192-3.388L89.908,72.661z"/>
		<path d="M112.111,68.013c0.028-0.111,0.112-0.195,0.393-0.195c1.316,0.056,3.5,0.476,4.48,0.896
			c0.308,0.14,0.447,0.392,0.42,0.756l-0.112,1.708v16.548c0,1.849-0.42,5.292-1.093,7.196h-1.819
			c-0.196-1.036-0.336-4.872-0.336-6.188v-5.936c-0.784,0.028-1.597,0.084-1.988,0.112c-0.476,0.027-1.231,0.195-1.708,0.336
			c-0.504-0.252-0.98-0.561-1.4-0.896l-0.168,1.316l0.42,0.224c0.168,0.112,0.281,0.252,0.281,0.448
			c0,0.644-0.225,1.231-0.449,1.484l-8.707,0.084c-0.112,0.504-0.309,0.924-0.616,1.344h-1.82c-0.224-0.616-0.336-1.456-0.42-2.185
			l-0.532-9.968c-0.308-0.392-0.896-0.784-1.512-1.008l0.225-0.868c0.027-0.111,0.14-0.168,0.336-0.168
			c1.147,0,3.164,0.141,4.312,0.364c1.429,0,4.479-0.028,5.908-0.112l1.288-0.644c0.168-0.084,0.392-0.084,0.588,0
			c0.476,0.224,1.371,0.672,1.736,0.924c0.111,0.084,0.14,0.224,0.084,0.42l-0.42,1.288v0.224c0.447,0.028,0.924,0.057,1.344,0.057
			c0.699,0,2.072-0.028,3.22-0.084v-4.845c-0.42-0.644-1.288-1.26-2.269-1.651L112.111,68.013z M100.408,83.861
			c1.512,0.027,3.808,0,5.039-0.057l0.561-0.168l0.057-8.344c-1.793,0-3.977,0.028-5.74,0.084L100.408,83.861z M114.044,77.253
			c-0.756,0.028-1.54,0.056-1.933,0.112c-0.476,0.027-1.231,0.195-1.707,0.336c-0.364-0.196-0.7-0.393-1.008-0.616
			c-0.057,1.288-0.168,2.66-0.309,3.948c0.531,0.056,1.148,0.084,1.68,0.084c0.7,0,2.129-0.028,3.276-0.084V77.253z"/>
		<path d="M140.504,81.145c-2.324,1.96-5.124,3.668-8.148,4.816c-0.224,0.084-0.363,0.112-0.447,0.028l-0.42-0.477
			c-0.112-0.112-0.141-0.252,0-0.364c4.283-2.604,7.728-6.159,9.688-9.436c-1.512,0.028-3.584,0.056-4.172,0.112
			c-0.588,0.027-1.596,0.224-2.156,0.42c-0.867-0.393-1.764-1.008-2.38-1.624c-0.112-0.112-0.14-0.225-0.084-0.364l0.224-0.392
			c0.84,0.14,1.933,0.195,2.66,0.195c1.036,0,5.656-0.056,7-0.168l1.148-0.476c0.195-0.056,0.477-0.056,0.645,0
			c0.476,0.196,1.344,0.616,1.68,0.84c0.168,0.112,0.168,0.308,0.056,0.476l-0.644,0.952c-0.785,1.4-1.877,2.801-3.192,4.116
			l2.155,1.876l1.316,0.393c0.42,0.56,0.924,1.428,1.148,1.903c0.168,0.42,0.168,0.7,0.084,0.896
			c-0.196,0.476-0.896,0.812-1.372,0.699c-0.252-0.056-0.56-0.279-0.784-0.531L140.504,81.145z M135.688,69.553
			c2.381,0.448,4.76,0.561,6.469,0.532c0.308,0,0.476,0.084,0.588,0.308c0.224,0.42,0.168,1.316-0.141,1.624
			c-0.111,0.141-0.279,0.168-0.504,0.168c-1.176,0-3.136,0.028-4.283,0.112c-0.309,0.028-0.448,0.028-0.645-0.112
			c-0.561-0.392-1.288-1.204-1.708-1.932c-0.112-0.168-0.112-0.28-0.028-0.392L135.688,69.553z M151.256,91.421
			c0.952-0.028,2.324,0.084,2.968,0.224c0.308,0.084,0.532,0.28,0.532,0.588c0,0.784-0.279,1.345-0.477,1.54
			c-0.111,0.112-0.308,0.168-0.504,0.168l-11.899,0.084c-2.128-0.027-2.912-0.84-2.912-2.52v-3.136
			c-0.448-0.393-1.231-0.812-1.96-1.036l0.195-0.84c0.029-0.141,0.169-0.252,0.421-0.252c1.176,0,3.276,0.14,4.172,0.363
			c0.336,0.057,0.504,0.28,0.504,0.672l-0.056,1.484v2.632c0,0.477,0.195,0.7,0.699,0.7c1.652,0.028,5.545,0,7.196-0.084
			L151.256,91.421z M144.648,78.121c0.672,0.111,1.567,0.14,2.268,0.14c0.645,0.028,1.792,0,2.828-0.056v-7.588
			c-0.393-0.616-1.232-1.232-2.184-1.597l0.336-1.008c0.027-0.111,0.139-0.195,0.42-0.195c1.287,0.056,3.416,0.476,4.367,0.896
			c0.309,0.14,0.42,0.392,0.393,0.756l-0.084,1.652v10.107c0,2.156-0.393,5.097-1.064,6.776h-1.82
			c-0.224-1.092-0.363-4.424-0.363-5.824v-2.156c-0.616,0.028-1.232,0.057-1.54,0.112c-0.476,0.028-1.232,0.252-1.708,0.448
			c-0.784-0.477-1.484-1.092-2.045-1.68c-0.084-0.141-0.139-0.252-0.055-0.393L144.648,78.121z"/>
		<path d="M168.027,79.521c-2.324,2.324-5.207,4.396-8.399,5.88c-0.196,0.084-0.336,0.112-0.42,0.028l-0.448-0.448
			c-0.111-0.14-0.111-0.252,0-0.392c4.424-3.136,7.924-7.308,9.744-11.06c-1.428-0.028-3.5,0-4.088,0.056
			c-0.588,0.028-1.624,0.224-2.184,0.448c-0.869-0.448-1.793-1.12-2.437-1.736c-0.112-0.14-0.14-0.252-0.084-0.364l0.224-0.392
			c0.868,0.14,1.961,0.196,2.744,0.196c1.064,0,5.46-0.057,6.721-0.112l1.147-0.504c0.196-0.057,0.448-0.057,0.644,0
			c0.504,0.196,1.484,0.616,1.848,0.812c0.141,0.112,0.168,0.309,0.057,0.477l-0.672,1.036c-0.729,1.567-1.764,3.136-3.053,4.619
			l2.437,2.129l1.288,0.392c0.477,0.588,1.064,1.596,1.316,2.128c0.195,0.42,0.224,0.756,0.14,0.979
			c-0.196,0.477-0.896,0.729-1.399,0.589c-0.252-0.084-0.533-0.336-0.785-0.561L168.027,79.521z M178.304,91.421
			c0.924-0.028,2.324,0.084,2.968,0.252c0.309,0.056,0.504,0.28,0.504,0.56c0,0.812-0.224,1.345-0.42,1.54
			c-0.14,0.112-0.308,0.168-0.531,0.168l-11.873,0.112c-2.127-0.028-2.939-0.868-2.939-2.548v-3.444
			c-0.447-0.392-1.204-0.784-1.932-1.036l0.195-0.84c0.028-0.14,0.168-0.252,0.393-0.252c1.203,0,3.275,0.141,4.199,0.364
			c0.336,0.056,0.504,0.28,0.504,0.672l-0.055,1.484v2.968c0,0.476,0.195,0.7,0.672,0.7c1.651,0.027,5.543-0.028,7.195-0.084
			L178.304,91.421z M176.707,70.617c-0.363-0.616-1.231-1.232-2.184-1.597l0.336-1.008c0.057-0.111,0.141-0.195,0.42-0.195
			c1.316,0.056,3.416,0.476,4.396,0.896c0.279,0.14,0.393,0.392,0.393,0.756l-0.113,1.652v9.939c0,2.156-0.392,5.097-1.063,6.748
			h-1.819c-0.225-1.063-0.365-4.396-0.365-5.796V70.617z"/>
		<path d="M207.731,76.44c0.812-0.027,2.017,0.028,2.521,0.141c0.336,0.056,0.56,0.308,0.588,0.616
			c0.056,0.644-0.112,1.26-0.336,1.483c-0.168,0.196-0.532,0.28-0.812,0.28l-4.396,0.112v1.987c0,2.156-0.392,5.097-1.035,6.748
			h-1.848c-0.225-1.063-0.336-4.396-0.336-5.796v-0.504c-3.557,1.092-7.896,1.904-10.92,2.128c-0.393,0.028-0.785,0.056-1.121,0.056
			c-1.315,0-2.211-0.756-2.604-1.903c-0.111-0.309-0.168-0.896-0.168-1.512v-6.356c-0.42-0.392-1.176-0.812-1.876-1.036l0.196-0.868
			c0.027-0.14,0.168-0.252,0.42-0.252c1.148,0,3.164,0.141,4.06,0.364c0.336,0.056,0.504,0.308,0.504,0.672l-0.056,1.484v6.216
			c0,0.364,0.168,0.56,0.561,0.56c2.995-0.027,7.588-0.504,11.004-1.344v-9.1c-0.393-0.616-1.261-1.232-2.213-1.597l0.336-1.008
			c0.057-0.111,0.141-0.195,0.42-0.195c1.316,0.056,3.416,0.476,4.396,0.896c0.279,0.14,0.42,0.392,0.393,0.756l-0.113,1.652v5.964
			l1.541-0.084L207.731,76.44z M204.035,91.393c0.953-0.027,2.324,0.084,2.969,0.252c0.308,0.057,0.531,0.28,0.531,0.561
			c0,0.784-0.252,1.344-0.476,1.54c-0.112,0.111-0.308,0.168-0.504,0.168l-11.677,0.111c-2.127-0.027-2.939-0.867-2.939-2.548
			v-3.472c-0.447-0.392-1.203-0.784-1.932-1.036l0.195-0.84c0.028-0.14,0.168-0.252,0.42-0.252c1.177,0,3.276,0.168,4.172,0.364
			c0.337,0.056,0.505,0.279,0.505,0.672l-0.056,1.483v2.996c0,0.477,0.195,0.7,0.672,0.7c1.623,0.028,5.403-0.028,7-0.084
			L204.035,91.393z"/>
		<path d="M216.72,82.601c-0.112,0.477-0.308,0.84-0.589,1.232h-1.764c-0.224-0.561-0.363-1.4-0.42-2.072l-0.615-8.12
			c-0.309-0.363-0.896-0.756-1.484-0.979l0.224-0.868c0.028-0.112,0.14-0.168,0.337-0.168c1.147,0,3.163,0.14,4.312,0.336
			c1.399,0.028,4.368,0,5.768-0.084l1.231-0.616c0.169-0.084,0.393-0.084,0.561,0c0.477,0.196,1.4,0.645,1.792,0.896
			c0.084,0.084,0.112,0.224,0.056,0.447l-0.392,1.261c-0.084,2.071-0.392,4.592-0.7,6.58l0.561,0.279
			c0.168,0.084,0.252,0.225,0.252,0.42c0,0.616-0.196,1.177-0.42,1.372L216.72,82.601z M222.375,73.865
			c-1.764,0-3.947,0.027-5.655,0.084l0.112,6.664c1.455,0.027,3.752,0,4.955-0.057l0.532-0.14L222.375,73.865z M230.859,91.449
			c0.952,0,2.352,0.084,2.996,0.252c0.309,0.056,0.504,0.279,0.504,0.56c0,0.784-0.252,1.344-0.447,1.54
			c-0.113,0.14-0.309,0.168-0.533,0.168l-11.647,0.112h-0.028c-2.1-0.028-2.912-0.84-2.912-2.548v-3.444
			c-0.447-0.392-1.203-0.784-1.932-1.036l0.168-0.812c0.028-0.141,0.196-0.252,0.42-0.252c1.176,0,3.276,0.14,4.172,0.336
			c0.336,0.084,0.532,0.308,0.532,0.699l-0.056,1.456v2.969c0,0.476,0.195,0.699,0.672,0.699c1.624,0.028,5.404-0.027,7-0.084
			L230.859,91.449z M234.779,76.945c0.812-0.028,2.016,0.027,2.52,0.14c0.336,0.056,0.561,0.308,0.588,0.616
			c0.057,0.644-0.111,1.26-0.336,1.483c-0.168,0.196-0.531,0.28-0.812,0.28l-4.396,0.112v1.483c0,2.156-0.393,5.097-1.036,6.748
			h-1.849c-0.224-1.063-0.336-4.396-0.336-5.796V70.617c-0.392-0.616-1.26-1.232-2.211-1.597l0.336-1.008
			c0.055-0.111,0.139-0.195,0.42-0.195c1.315,0.056,3.416,0.476,4.396,0.896c0.28,0.14,0.42,0.392,0.392,0.756l-0.111,1.652v6.496
			l1.539-0.084L234.779,76.945z"/>
		<path d="M250.039,73.333c0.729,0.028,1.904,0.168,2.381,0.308c0.195,0.084,0.336,0.252,0.336,0.504c0,0.7-0.393,1.288-0.701,1.456
			c-0.476-0.027-1.68-0.056-2.295-0.056c-0.869,0-5.908,0.14-6.805,0.196c-0.504,0.056-1.428,0.195-1.904,0.336
			c-0.756-0.42-1.539-1.064-2.071-1.624c-0.112-0.112-0.112-0.252-0.084-0.336l0.252-0.42c0.756,0.168,1.735,0.252,2.38,0.252
			c1.064,0,6.58-0.141,7.672-0.252L250.039,73.333z M241.135,80.165c0-2.437,2.381-3.92,5.461-3.92c2.996,0,5.348,1.483,5.348,3.92
			c0,2.436-2.352,3.948-5.348,3.948C243.516,84.113,241.135,82.601,241.135,80.165z M262.303,91.057
			c0.336,0.561,0.785,1.456,0.953,1.96c0.139,0.393,0.139,0.672,0.055,0.868c-0.252,0.476-0.896,0.729-1.344,0.616
			c-0.224-0.057-0.504-0.309-0.728-0.561l-3.08-3.556c-1.512,1.848-3.696,3.528-6.356,4.844c-0.195,0.112-0.336,0.112-0.42,0.028
			l-0.531-0.532c-0.112-0.111-0.112-0.224,0.056-0.364c0.56-0.476,1.12-0.951,1.624-1.428c-0.252-0.056-0.504-0.224-0.729-0.476
			l-2.239-2.464c-1.513,1.819-3.724,3.472-6.44,4.676c-0.224,0.14-0.308,0.14-0.447,0.056l-0.504-0.504
			c-0.141-0.168-0.141-0.28,0.027-0.42c2.744-2.044,4.732-4.368,5.572-6.72c-0.225-0.364-0.756-0.84-1.316-1.148l0.448-0.84
			c0.084-0.112,0.224-0.168,0.448-0.14c1.148,0.168,2.855,0.7,3.527,1.092c0.28,0.14,0.42,0.364,0.42,0.616
			c0,0.308-0.056,0.531-0.14,0.7c-0.14,0.336-0.308,0.699-0.504,1.035l1.231,1.232l1.037,0.504c0.308,0.448,0.615,1.12,0.728,1.484
			l0.028,0.111c1.455-1.68,2.492-3.443,3.023-5.151c-0.195-0.42-0.756-0.952-1.344-1.288l0.477-0.868
			c0.084-0.14,0.195-0.196,0.447-0.14c1.148,0.252,2.855,0.867,3.557,1.287c0.252,0.196,0.42,0.393,0.42,0.645
			c0,0.28-0.057,0.532-0.112,0.7c-0.224,0.644-0.505,1.26-0.868,1.876l1.652,1.651L262.303,91.057z M242.508,70.057
			c2.295,0.42,4.508,0.561,6.104,0.561c0.336,0,0.504,0.056,0.588,0.308c0.252,0.42,0.196,1.344-0.111,1.624
			c-0.141,0.14-0.336,0.168-0.533,0.168c-1.119,0-2.939,0.028-4.06,0.084c-0.308,0.028-0.42,0.028-0.588-0.112
			c-0.56-0.392-1.204-1.147-1.624-1.819c-0.111-0.196-0.111-0.309-0.027-0.448L242.508,70.057z M244.159,80.165
			c0,1.344,1.009,2.1,2.437,2.1c1.399,0,2.408-0.756,2.408-2.1c0-1.372-1.009-2.156-2.408-2.156
			C245.168,78.009,244.159,78.793,244.159,80.165z M253.68,71.905c-0.336-0.561-1.092-1.064-1.904-1.4l0.336-0.952
			c0.057-0.111,0.168-0.196,0.447-0.196c1.148,0.057,2.996,0.448,3.837,0.841c0.28,0.14,0.364,0.363,0.364,0.699l-0.084,1.429v4.508
			l2.295-0.056v-6.272c-0.336-0.588-1.176-1.148-2.043-1.512l0.336-0.952c0.056-0.14,0.168-0.224,0.447-0.224
			c1.204,0.056,3.192,0.476,4.116,0.896c0.28,0.112,0.42,0.364,0.392,0.729l-0.111,1.539v8.54c0,1.484-0.42,3.92-0.952,5.068h-1.819
			c-0.197-0.868-0.365-3.248-0.365-4.284v-1.54l-2.295,0.057c0,1.735-0.42,3.836-0.924,4.899h-1.709
			c-0.252-0.868-0.363-2.996-0.363-4.2V71.905z"/>
		<path d="M281.791,82.097c0.028,0.141-0.056,0.252-0.252,0.364c-2.38,1.036-6.16,1.904-8.54,1.988
			c-0.42,0.027-0.812,0.027-1.231,0.027c-1.82,0-2.437-0.308-2.996-1.68c-0.084-0.168-0.141-0.896-0.141-1.708v-7.084
			c-0.363-0.42-1.008-0.84-1.736-1.092l0.197-0.868c0.055-0.112,0.14-0.196,0.336-0.196c1.063,0,3.556,0.141,4.508,0.336
			c1.119-0.027,4.088-0.168,4.899-0.252l0.841-0.531c0.783,0,2.016,0.056,2.631,0.195c0.309,0.057,0.477,0.252,0.477,0.532
			c0,0.7-0.196,1.26-0.42,1.484c-0.112,0.111-0.28,0.168-0.504,0.168l-7.98,0.279v7.28c0,0.364,0.168,0.532,0.588,0.532
			c2.437,0,6.608-0.336,8.764-0.756c0.225-0.057,0.365,0,0.393,0.168L281.791,82.097z M286.495,91.365
			c0.979-0.028,2.324,0.084,2.996,0.252c0.308,0.056,0.504,0.279,0.504,0.56c0,0.784-0.252,1.344-0.476,1.54
			c-0.112,0.14-0.309,0.168-0.504,0.168l-12.068,0.112h-0.028c-2.1-0.028-2.911-0.84-2.911-2.548v-3.053
			c-0.449-0.392-1.205-0.783-1.933-1.008l0.196-0.84c0.027-0.14,0.168-0.252,0.392-0.252c1.204,0,3.276,0.14,4.2,0.336
			c0.336,0.084,0.504,0.308,0.504,0.7l-0.057,1.456v2.576c0,0.476,0.197,0.699,0.673,0.699c1.708,0.028,5.712-0.027,7.392-0.084
			L286.495,91.365z M284.982,70.617c-0.391-0.616-1.231-1.232-2.184-1.597l0.336-1.008c0.028-0.111,0.141-0.195,0.42-0.195
			c1.289,0.056,3.416,0.476,4.369,0.896c0.307,0.14,0.42,0.392,0.391,0.756l-0.084,1.652v10.416c0,2.155-0.392,5.096-1.063,6.748
			h-1.819c-0.225-1.064-0.365-4.396-0.365-5.796v-4.593c-1.176,0.028-2.883,0.112-3.527,0.196c-0.477,0.056-1.316,0.252-1.764,0.42
			c-0.868-0.448-1.652-1.008-2.268-1.596c-0.113-0.14-0.141-0.252-0.057-0.393l0.252-0.392c0.7,0.084,1.708,0.14,2.492,0.14
			c1.035,0,3.472-0.084,4.871-0.224V70.617z"/>
		<path d="M316.287,82.321c0.476,0.728,1.119,1.848,1.371,2.464c0.196,0.56,0.196,0.896,0.084,1.147
			c-0.252,0.532-1.035,0.784-1.512,0.588c-0.252-0.084-0.56-0.392-0.812-0.644l-4.815-5.544c-1.764,2.576-4.2,5.04-7.196,7.028
			c-0.168,0.111-0.279,0.111-0.42,0.027l-0.56-0.476c-0.084-0.084-0.084-0.196,0.056-0.364c3.864-3.808,6.469-8.456,7.196-12.516
			c-0.28-0.532-0.952-1.177-1.651-1.568l0.42-0.84c0.084-0.112,0.195-0.168,0.42-0.14c1.203,0.14,3.304,0.728,4.088,1.176
			c0.279,0.14,0.476,0.392,0.476,0.644c0,0.28-0.028,0.561-0.084,0.756c-0.28,1.456-0.84,2.969-1.651,4.452l2.996,3.164
			L316.287,82.321z M318.639,68.013c0.057-0.111,0.141-0.195,0.42-0.195c1.316,0.056,3.5,0.476,4.48,0.896
			c0.308,0.14,0.42,0.392,0.42,0.756l-0.112,1.708v16.548c0,1.849-0.42,5.292-1.092,7.196h-1.82
			c-0.196-1.036-0.336-4.872-0.336-6.188V70.645c-0.42-0.644-1.288-1.26-2.269-1.651L318.639,68.013z"/>
		<path d="M338.547,78.289c-2.324,2.212-5.18,4.144-8.26,5.516c-0.225,0.112-0.336,0.141-0.449,0.057l-0.475-0.477
			c-0.113-0.112-0.113-0.252,0-0.392c4.283-2.828,7.699-6.692,9.52-10.164c-1.428-0.028-3.416,0-3.977,0.056
			c-0.56,0.028-1.623,0.225-2.184,0.448c-0.868-0.42-1.792-1.12-2.436-1.736c-0.112-0.14-0.141-0.224-0.084-0.364l0.224-0.392
			c0.868,0.14,1.96,0.196,2.743,0.196c1.009,0,5.236-0.057,6.608-0.112l1.148-0.504c0.196-0.084,0.448-0.084,0.644,0
			c0.504,0.196,1.484,0.616,1.848,0.84c0.141,0.084,0.168,0.28,0.057,0.448l-0.672,1.036c-0.7,1.372-1.68,2.771-2.855,4.06
			l2.155,1.904l1.26,0.364c0.505,0.588,1.12,1.54,1.345,2.071c0.195,0.448,0.252,0.756,0.168,0.98
			c-0.252,0.476-0.953,0.784-1.457,0.644c-0.252-0.084-0.56-0.336-0.783-0.531L338.547,78.289z M349.354,91.757
			c0.868-0.028,2.128,0.112,2.744,0.252c0.28,0.056,0.476,0.28,0.476,0.56c0,0.7-0.195,1.204-0.363,1.4
			c-0.141,0.112-0.309,0.168-0.504,0.168l-12.32,0.084c-1.82-0.028-2.492-0.728-2.492-2.156v-2.268
			c-0.363-0.392-0.952-0.7-1.624-0.924l0.14-0.7c0.028-0.112,0.141-0.196,0.309-0.196c1.064,0,3.556,0.057,4.48,0.168
			c1.623,0,5.543-0.027,6.607-0.084l0.531-0.14c0.057-0.504,0.084-1.652,0.057-2.1c-1.82-0.028-5.992,0.027-6.916,0.084
			c-0.645,0.027-1.792,0.195-2.52,0.392c-0.953-0.448-1.877-1.12-2.549-1.736c-0.14-0.14-0.14-0.224-0.084-0.363l0.225-0.393
			c0.84,0.168,2.184,0.252,2.912,0.252c1.371,0,7.867-0.056,9.408-0.111l1.092-0.477c0.14-0.084,0.336-0.084,0.531,0
			c0.42,0.168,1.26,0.504,1.596,0.7c0.141,0.084,0.141,0.28,0.084,0.476l-0.447,0.952c-0.057,0.7-0.364,1.849-0.588,2.38
			l0.531,0.252c0.141,0.084,0.225,0.225,0.225,0.364c0,0.504-0.195,0.98-0.364,1.204l-10.388,0.112v1.792
			c0,0.392,0.168,0.56,0.531,0.56c1.877,0.028,6.104,0,7.785-0.056L349.354,91.757z M342.494,75.321
			c0.645,0.111,1.541,0.14,2.269,0.14c0.672,0.028,1.932,0,2.995-0.056v-4.788c-0.391-0.616-1.26-1.232-2.184-1.597l0.309-1.008
			c0.056-0.111,0.168-0.195,0.447-0.195c1.289,0.056,3.389,0.476,4.369,0.896c0.279,0.14,0.42,0.392,0.391,0.756l-0.084,1.652v6.468
			c0,1.512-0.476,3.864-1.008,4.928h-1.903c-0.224-0.84-0.337-3.136-0.337-4.2v-1.092c-0.699,0.028-1.399,0.057-1.735,0.112
			c-0.448,0.028-1.231,0.252-1.708,0.448c-0.756-0.477-1.456-1.092-2.016-1.681c-0.112-0.14-0.141-0.252-0.057-0.392L342.494,75.321
			z"/>
		<path d="M377.383,79.577c1.176,0.056,2.855,0.308,3.556,0.56c0.28,0.084,0.476,0.309,0.476,0.616c0,0.672-0.476,1.26-0.84,1.4
			c-0.729-0.084-2.66-0.141-3.556-0.141c-1.933,0-13.58,0.141-15.204,0.225c-0.729,0.056-2.408,0.363-3.164,0.588
			c-1.12-0.393-2.352-1.177-3.136-1.876c-0.112-0.084-0.14-0.252-0.084-0.393l0.252-0.476c1.092,0.196,2.548,0.308,3.584,0.336
			c1.819,0.028,14.924-0.14,16.911-0.28L377.383,79.577z M374.19,91.953c0.868,0,2.128,0.111,2.716,0.252
			c0.309,0.084,0.504,0.279,0.504,0.56c0,0.672-0.224,1.176-0.392,1.344c-0.112,0.112-0.308,0.168-0.505,0.168l-12.348,0.084h-0.027
			c-1.904-0.027-2.576-0.728-2.576-2.128v-2.239c-0.364-0.393-0.952-0.672-1.624-0.896l0.14-0.7
			c0.028-0.111,0.112-0.195,0.309-0.195c1.063,0,3.527,0.056,4.479,0.168c1.736,0,5.824-0.057,6.86-0.112l0.588-0.14
			c0.057-0.532,0.084-1.624,0.057-2.072c-1.904-0.028-6.356,0.028-7.337,0.084c-0.644,0.056-1.764,0.224-2.491,0.42
			c-0.924-0.448-1.82-1.092-2.492-1.708c-0.141-0.14-0.168-0.224-0.084-0.364l0.195-0.392c0.84,0.168,2.156,0.28,2.885,0.28
			c1.399,0,8.147-0.084,9.771-0.141l1.008-0.447c0.168-0.085,0.364-0.085,0.561,0c0.392,0.168,1.26,0.504,1.596,0.672
			c0.141,0.084,0.168,0.252,0.084,0.447l-0.448,0.98c-0.056,0.7-0.336,1.792-0.56,2.352l0.531,0.252
			c0.112,0.057,0.196,0.196,0.196,0.336c0,0.477-0.196,0.952-0.336,1.148l-10.64,0.112v1.819c0,0.393,0.168,0.561,0.531,0.561
			c1.877,0.027,6.272,0,7.953-0.057L374.19,91.953z M361.646,73.949c0-2.856,2.716-4.816,6.72-4.816c4.005,0,6.72,1.96,6.72,4.816
			c0,2.884-2.715,4.844-6.72,4.844C364.362,78.793,361.646,76.833,361.646,73.949z M364.922,73.949c0,1.735,1.4,2.771,3.444,2.771
			s3.444-1.036,3.444-2.771c0-1.736-1.4-2.772-3.444-2.772S364.922,72.213,364.922,73.949z"/>
		<path d="M413.109,87.501c1.177,0.028,2.856,0.28,3.557,0.532c0.279,0.111,0.477,0.336,0.477,0.644c0,0.7-0.477,1.344-0.841,1.512
			c-0.728-0.084-2.659-0.14-3.556-0.14c-1.932,0-13.523,0.112-15.176,0.224c-0.756,0.057-2.437,0.364-3.192,0.588
			c-1.12-0.42-2.353-1.26-3.136-2.016c-0.112-0.084-0.141-0.252-0.084-0.364l0.252-0.504c1.092,0.196,2.548,0.309,3.584,0.336
			c0.783,0,3.5,0,6.552-0.056l-0.028-6.916c-0.308-0.364-1.063-0.812-1.707-1.036l0.195-0.896c0.028-0.084,0.112-0.168,0.42-0.168
			c1.008-0.028,3.305,0.195,4.061,0.42c0.308,0.084,0.42,0.308,0.392,0.588l-0.196,1.624l-0.084,6.355
			c3.332-0.056,6.412-0.14,7.309-0.195L413.109,87.501z M409.021,85.037c-0.195-0.028-0.252-0.141-0.224-0.477
			c0.504-2.912,0.728-7.84,0.672-11.004c-2.575,0-7.868,0.112-9.239,0.196c-0.812,0.028-2.156,0.252-2.912,0.476
			c-0.98-0.476-2.072-1.231-2.744-1.903c-0.168-0.168-0.196-0.252-0.112-0.42l0.224-0.448c0.98,0.168,2.269,0.252,3.164,0.252
			c1.484,0.028,9.801-0.112,11.928-0.224l1.261-0.616c0.168-0.112,0.42-0.112,0.588,0c0.504,0.224,1.483,0.784,1.876,1.036
			c0.141,0.111,0.168,0.279,0.084,0.476l-0.477,1.288c-0.14,3.332-1.231,8.176-2.631,11.312c-0.113,0.196-0.309,0.252-0.533,0.252
			L409.021,85.037z"/>
		<path d="M431.029,81.285c0.141,0.027,0.252,0.195,0.252,0.363c0,0.561-0.195,1.093-0.42,1.316
			c-1.707-0.028-5.543,0.028-7.531,0.084c-0.168,0.504-0.448,0.84-0.7,1.064h-1.54c-0.252-0.589-0.393-1.429-0.393-1.988
			l-0.111-8.092c-0.309-0.336-0.98-0.729-1.568-0.868l0.225-0.868c0.027-0.084,0.14-0.168,0.42-0.168
			c0.979,0,2.855,0.168,3.64,0.364c0.252,0.084,0.336,0.252,0.308,0.588l-0.027,1.315v1.261l4.256-0.084v-2.717
			c-0.28-0.363-0.868-0.756-1.456-0.979l0.308-0.868c0.028-0.112,0.141-0.196,0.42-0.168c1.008,0.056,2.717,0.364,3.473,0.672
			c0.279,0.084,0.363,0.28,0.336,0.561l-0.084,1.399l-0.084,4.9c0,0.924-0.168,2.044-0.364,2.688L431.029,81.285z M423.582,77.617
			l-0.028,3.416l4.284-0.057v-3.443L423.582,77.617z M439.654,85.345c0.14-0.084,0.392-0.084,0.531,0
			c0.448,0.224,1.288,0.672,1.596,0.896c0.141,0.111,0.168,0.252,0.084,0.42l-0.363,1.176l-0.084,3.052
			c0,1.316-0.42,3.248-0.924,4.229h-1.933c-0.196-0.812-0.336-2.576-0.336-3.5v-3.836c-2.353-0.028-7.084,0.056-8.231,0.14
			c-0.756,0.028-2.016,0.252-2.717,0.504c-1.035-0.42-2.071-1.092-2.828-1.736c-0.14-0.111-0.168-0.252-0.084-0.392l0.225-0.476
			c1.008,0.14,2.296,0.224,3.22,0.224c1.345,0,8.988-0.14,10.836-0.252L439.654,85.345z M433.326,71.905
			c-0.336-0.532-1.092-1.036-1.904-1.372l0.336-0.952c0.057-0.112,0.168-0.196,0.447-0.196c1.121,0.057,2.969,0.448,3.809,0.84
			c0.28,0.141,0.393,0.364,0.364,0.7l-0.056,1.428v3.92l2.268-0.056v-5.712c-0.364-0.588-1.176-1.148-2.072-1.512l0.336-0.952
			c0.084-0.14,0.168-0.224,0.448-0.224c1.204,0.056,3.22,0.476,4.144,0.896c0.28,0.112,0.393,0.364,0.364,0.729l-0.084,1.539v8.513
			c0,1.483-0.448,3.92-0.979,5.096h-1.82c-0.195-0.896-0.336-3.276-0.336-4.312v-2.072l-2.268,0.056v1.4
			c0,1.735-0.42,3.892-0.924,4.956h-1.736c-0.225-0.896-0.336-3.024-0.336-4.229V71.905z"/>
		<path d="M456.733,73.333c0.728,0.028,1.904,0.168,2.38,0.308c0.196,0.084,0.336,0.252,0.336,0.504c0,0.7-0.392,1.288-0.699,1.456
			c-0.477-0.027-1.68-0.056-2.297-0.056c-0.867,0-5.907,0.14-6.803,0.196c-0.505,0.056-1.429,0.195-1.904,0.336
			c-0.756-0.42-1.541-1.064-2.072-1.624c-0.112-0.112-0.112-0.252-0.084-0.336l0.252-0.42c0.756,0.168,1.736,0.252,2.38,0.252
			c1.063,0,6.58-0.141,7.672-0.252L456.733,73.333z M447.83,80.165c0-2.437,2.379-3.92,5.459-3.92c2.996,0,5.349,1.483,5.349,3.92
			c0,2.436-2.353,3.948-5.349,3.948C450.209,84.113,447.83,82.601,447.83,80.165z M468.998,91.057
			c0.336,0.561,0.783,1.456,0.951,1.96c0.141,0.393,0.141,0.672,0.057,0.868c-0.252,0.476-0.896,0.729-1.344,0.616
			c-0.225-0.057-0.504-0.309-0.729-0.561l-3.08-3.556c-1.512,1.848-3.695,3.528-6.355,4.844c-0.196,0.112-0.336,0.112-0.42,0.028
			l-0.533-0.532c-0.111-0.111-0.111-0.224,0.057-0.364c0.561-0.476,1.12-0.951,1.624-1.428c-0.252-0.056-0.504-0.224-0.728-0.476
			l-2.24-2.464c-1.512,1.819-3.725,3.472-6.439,4.676c-0.225,0.14-0.309,0.14-0.449,0.056l-0.504-0.504
			c-0.14-0.168-0.14-0.28,0.028-0.42c2.744-2.044,4.731-4.368,5.572-6.72c-0.224-0.364-0.757-0.84-1.316-1.148l0.448-0.84
			c0.084-0.112,0.225-0.168,0.448-0.14c1.147,0.168,2.856,0.7,3.528,1.092c0.279,0.14,0.42,0.364,0.42,0.616
			c0,0.308-0.057,0.531-0.141,0.7c-0.14,0.336-0.309,0.699-0.504,1.035l1.232,1.232l1.035,0.504c0.309,0.448,0.616,1.12,0.729,1.484
			l0.027,0.111c1.457-1.68,2.492-3.443,3.024-5.151c-0.196-0.42-0.756-0.952-1.344-1.288l0.476-0.868
			c0.084-0.14,0.196-0.196,0.448-0.14c1.147,0.252,2.856,0.867,3.556,1.287c0.252,0.196,0.42,0.393,0.42,0.645
			c0,0.28-0.056,0.532-0.111,0.7c-0.225,0.644-0.504,1.26-0.868,1.876l1.651,1.651L468.998,91.057z M449.201,70.057
			c2.297,0.42,4.508,0.561,6.104,0.561c0.336,0,0.504,0.056,0.588,0.308c0.252,0.42,0.196,1.344-0.112,1.624
			c-0.14,0.14-0.336,0.168-0.531,0.168c-1.12,0-2.94,0.028-4.061,0.084c-0.308,0.028-0.42,0.028-0.588-0.112
			c-0.561-0.392-1.204-1.147-1.624-1.819c-0.112-0.196-0.112-0.309-0.028-0.448L449.201,70.057z M450.854,80.165
			c0,1.344,1.008,2.1,2.436,2.1c1.4,0,2.408-0.756,2.408-2.1c0-1.372-1.008-2.156-2.408-2.156
			C451.861,78.009,450.854,78.793,450.854,80.165z M460.373,71.905c-0.336-0.561-1.092-1.064-1.903-1.4l0.336-0.952
			c0.056-0.111,0.168-0.196,0.448-0.196c1.148,0.057,2.996,0.448,3.836,0.841c0.279,0.14,0.363,0.363,0.363,0.699l-0.084,1.429
			v4.508l2.297-0.056v-6.272c-0.336-0.588-1.176-1.148-2.045-1.512l0.336-0.952c0.057-0.14,0.168-0.224,0.449-0.224
			c1.203,0.056,3.191,0.476,4.115,0.896c0.28,0.112,0.42,0.364,0.393,0.729l-0.112,1.539v8.54c0,1.484-0.42,3.92-0.952,5.068h-1.82
			c-0.195-0.868-0.363-3.248-0.363-4.284v-1.54l-2.297,0.057c0,1.735-0.42,3.836-0.924,4.899h-1.707
			c-0.252-0.868-0.365-2.996-0.365-4.2V71.905z"/>
		<path d="M495.569,78.877c0.812-0.028,2.017,0.028,2.521,0.14c0.336,0.057,0.56,0.309,0.588,0.616
			c0.056,0.645-0.112,1.26-0.336,1.484c-0.168,0.195-0.532,0.279-0.812,0.279l-4.396,0.112v6.216c0,1.849-0.392,5.292-1.063,7.196
			h-1.819c-0.196-1.036-0.336-4.872-0.336-6.188v-3.724c-3.584,1.204-8.037,2.072-11.117,2.353c-0.42,0.056-0.84,0.056-1.147,0.056
			c-1.344,0-2.269-0.756-2.659-1.933c-0.084-0.336-0.169-0.896-0.169-1.512v-8.876c-0.392-0.448-1.063-0.868-1.819-1.12l0.224-0.867
			c0.056-0.112,0.14-0.169,0.336-0.169c1.036,0,3.388,0.112,4.452,0.309c1.064-0.028,4.004-0.168,4.872-0.252l0.84-0.561
			c0.784,0,2.044,0.057,2.659,0.196c0.309,0.056,0.477,0.252,0.477,0.561c0,0.699-0.195,1.231-0.392,1.455
			c-0.14,0.112-0.308,0.168-0.532,0.168l-7.84,0.309v9.016c0,0.364,0.14,0.561,0.531,0.532c3.08-0.056,7.841-0.616,11.285-1.484
			V70.645c-0.42-0.644-1.289-1.26-2.297-1.651l0.336-0.98c0.057-0.111,0.141-0.195,0.42-0.195c1.316,0.056,3.473,0.476,4.48,0.896
			c0.309,0.14,0.42,0.392,0.42,0.756l-0.141,1.708v8.372l1.541-0.084L495.569,78.877z"/>
		<path d="M501.113,89.993c0-1.288,1.008-2.353,2.324-2.353c1.288,0,2.296,1.064,2.296,2.353c0,1.231-1.008,2.296-2.296,2.296
			C502.121,92.289,501.113,91.225,501.113,89.993z"/>
	</g>
</g>
<rect x="87.631" y="2.414" width="68.659" height="24.378"/>
<rect x="62.629" y="35.414" width="31.879" height="24.378"/>
</svg>