<!-- Generator: Adobe Illustrator 21.1.0, SVG Export Plug-In  -->
<svg version="1.1"
	 xmlns="http://www.w3.org/2000/svg" xmlns:xlink="http://www.w3.org/1999/xlink" xmlns:a="http://ns.adobe.com/AdobeSVGViewerExtensions/3.0/"
	 x="0px" y="0px" width="654px" height="184.553px" viewBox="0 0 654 184.553" style="enable-background:new 0 0 654 184.553;"
	 xml:space="preserve">
<style type="text/css">
	.st0{fill:url(#SVGID_1_);}
	.st1{fill:url(#SVGID_2_);}
	.st2{fill:url(#SVGID_3_);}
	.st3{fill:url(#SVGID_4_);}
	.st4{fill:url(#SVGID_5_);}
	.st5{fill:url(#SVGID_6_);}
	.st6{fill:url(#SVGID_7_);}
	.st7{fill:url(#SVGID_8_);}
</style>
<defs>
</defs>
<g>
	<g>
		<path d="M17.189,14.615c0,7.309-3.443,10.5-7.308,10.5c-3.892,0-7.28-3.191-7.28-10.5c0-7.336,3.389-10.527,7.28-10.527
			C13.746,4.088,17.189,7.279,17.189,14.615z M9.882,24.136c1.651,0,3.079-2.044,3.079-9.521c0-7.531-1.428-9.575-3.079-9.575
			c-1.652,0-3.024,2.016-3.024,9.575C6.857,22.12,8.229,24.136,9.882,24.136z"/>
		<path d="M34.213,14.615c0,7.309-3.443,10.5-7.308,10.5c-3.892,0-7.28-3.191-7.28-10.5c0-7.336,3.389-10.527,7.28-10.527
			C30.77,4.088,34.213,7.279,34.213,14.615z M26.905,24.136c1.651,0,3.079-2.044,3.079-9.521c0-7.531-1.428-9.575-3.079-9.575
			c-1.652,0-3.024,2.016-3.024,9.575C23.881,22.12,25.253,24.136,26.905,24.136z"/>
		<path d="M51.236,14.615c0,7.309-3.443,10.5-7.308,10.5c-3.892,0-7.28-3.191-7.28-10.5c0-7.336,3.389-10.527,7.28-10.527
			C47.793,4.088,51.236,7.279,51.236,14.615z M43.929,24.136c1.651,0,3.079-2.044,3.079-9.521c0-7.531-1.428-9.575-3.079-9.575
			c-1.652,0-3.024,2.016-3.024,9.575C40.904,22.12,42.276,24.136,43.929,24.136z"/>
		<path d="M68.26,14.615c0,7.309-3.443,10.5-7.308,10.5c-3.892,0-7.28-3.191-7.28-10.5c0-7.336,3.389-10.527,7.28-10.527
			C64.816,4.088,68.26,7.279,68.26,14.615z M60.952,24.136c1.651,0,3.079-2.044,3.079-9.521c0-7.531-1.428-9.575-3.079-9.575
			c-1.652,0-3.024,2.016-3.024,9.575C57.928,22.12,59.3,24.136,60.952,24.136z"/>
		<path d="M87.131,0.784c0.057-0.141,0.141-0.225,0.448-0.225c1.484,0.057,3.864,0.504,4.956,0.98c0.336,0.14,0.477,0.42,0.448,0.84
			l-0.14,1.82v15.68c0,1.96-0.477,5.824-1.289,7.868h-2.155c-0.252-0.952-0.448-5.376-0.448-6.721v-1.624
			c-3.304,0.757-8.988,1.568-12.264,1.765c-0.729,0.056-2.044,0.336-2.717,0.615c-1.119-0.588-2.491-1.596-3.387-2.491
			c-0.141-0.141-0.168-0.225-0.084-0.393l0.252-0.56c1.176,0.196,2.688,0.252,3.863,0.224c4.032-0.084,11.229-0.644,14.336-1.315
			V3.668c-0.363-0.672-1.232-1.344-2.212-1.765L87.131,0.784z M72.795,10.023c0-3.191,2.717-5.544,6.553-5.544
			s6.607,2.353,6.607,5.544c0,3.276-2.771,5.628-6.607,5.628S72.795,13.3,72.795,10.023z M76.631,10.023
			c0,1.652,1.092,2.716,2.717,2.716c1.623,0,2.716-1.063,2.716-2.716c0-1.651-1.093-2.716-2.716-2.716
			C77.723,7.308,76.631,8.372,76.631,10.023z"/>
		<path d="M111.071,15.26c-0.112,0.42-0.336,0.784-0.644,1.147h-2.016c-0.253-0.588-0.421-1.428-0.477-2.155l-0.477-7.28
			c-0.279-0.42-0.84-0.812-1.455-1.063l0.252-0.98c0.027-0.112,0.14-0.196,0.363-0.196c1.232,0,3.305,0.168,4.536,0.364
			c1.009,0.028,3.024,0,4.004-0.056l1.372-0.672c0.168-0.084,0.448-0.084,0.616,0c0.448,0.224,1.288,0.756,1.624,1.008
			c0.14,0.111,0.14,0.252,0.084,0.476l-0.393,1.456c-0.027,0.393-0.056,0.784-0.084,1.204c0.7,0,1.541-0.028,2.185-0.056v-3.5
			c-0.308-0.561-1.036-1.12-1.876-1.484l0.42-1.092c0.057-0.14,0.168-0.225,0.504-0.225c1.26,0.057,3.275,0.505,4.2,0.952
			c0.308,0.141,0.42,0.393,0.392,0.784l-0.084,1.512v5.937c0,1.82-0.476,4.116-1.092,5.18h-2.016
			c-0.28-0.84-0.448-3.107-0.448-4.368v-1.288c-0.868,0-1.792,0.057-2.464,0.112c-0.084,0.588-0.168,1.148-0.28,1.68l0.532,0.309
			c0.195,0.112,0.308,0.28,0.308,0.504c0,0.784-0.224,1.428-0.504,1.708L111.071,15.26z M114.739,7.392
			c-1.12,0-2.464,0.028-3.528,0.056v5.376c0.896,0.028,2.185,0,2.996-0.027l0.532-0.168V7.392z M127.004,17.416
			c0.195-0.084,0.447-0.084,0.644,0c0.504,0.224,1.483,0.672,1.848,0.924c0.14,0.084,0.168,0.252,0.084,0.476l-0.448,1.4
			c-0.14,1.288-0.392,2.688-0.728,3.892l0.56,0.309c0.225,0.14,0.336,0.308,0.336,0.531c0,0.784-0.279,1.456-0.588,1.736
			l-9.771,0.084c-0.141,0.364-0.364,0.672-0.672,0.98h-2.129c-0.279-0.532-0.475-1.316-0.531-2.017l-0.42-5.628
			c-0.364-0.42-1.036-0.868-1.68-1.12l0.279-1.036c0.028-0.111,0.141-0.195,0.364-0.195c1.231,0,3.556,0.168,4.872,0.336
			c1.428-0.028,5.18-0.084,6.607-0.168L127.004,17.416z M119.107,24.275c1.68,0.028,4.031,0,5.488-0.084l0.615-0.168l0.057-3.584
			c-1.932,0.028-4.312,0.084-6.16,0.141V24.275z M124.231,0.784c0.084-0.141,0.196-0.225,0.504-0.225
			c1.344,0.057,3.528,0.504,4.536,0.98c0.308,0.14,0.447,0.392,0.42,0.812l-0.112,1.652v7.308c0,1.484-0.532,4.145-1.147,5.349
			h-2.156c-0.252-0.868-0.448-3.444-0.448-4.509V3.5c-0.308-0.588-1.12-1.204-1.987-1.597L124.231,0.784z"/>
		<path d="M149.936,0.784c0.056-0.141,0.14-0.225,0.447-0.225c1.484,0.057,3.864,0.504,4.957,0.98c0.336,0.14,0.475,0.42,0.447,0.84
			l-0.141,1.82v15.68c0,1.96-0.475,5.824-1.287,7.868h-2.156c-0.252-0.952-0.447-5.376-0.447-6.721V13.02
			c-0.393,0-0.757,0.028-0.925,0.057c-0.448,0.056-1.399,0.279-1.876,0.447c-0.447-0.279-0.867-0.588-1.232-0.952l-0.027,1.345
			c0,0.952-0.168,2.128-0.393,2.828l0.672,0.252c0.141,0.056,0.252,0.224,0.252,0.42c0,0.672-0.223,1.344-0.476,1.596
			c-2.071-0.028-6.495,0.028-8.903,0.084c-0.225,0.644-0.561,1.064-0.869,1.288h-2.016c-0.308-0.729-0.476-1.792-0.476-2.408
			l-0.168-9.828c-0.252-0.392-1.009-0.924-1.597-1.147l0.252-0.952c0.057-0.112,0.168-0.196,0.505-0.196
			c1.063-0.027,3.472,0.196,4.312,0.42c0.309,0.084,0.42,0.28,0.42,0.672l-0.056,1.4v1.82l4.788-0.057V6.636
			c-0.309-0.448-0.98-0.952-1.624-1.26l0.336-0.952c0.056-0.14,0.168-0.224,0.504-0.196c1.12,0.057,3.5,0.532,4.312,0.896
			c0.309,0.14,0.42,0.336,0.393,0.672l-0.084,1.624l-0.057,3.416c0.561,0.027,1.205,0.056,1.736,0.056
			c0.532,0,1.456-0.028,2.297-0.056V3.668c-0.365-0.672-1.232-1.344-2.213-1.765L149.936,0.784z M139.127,12.487l-0.027,4.2
			l4.844-0.056v-4.2L139.127,12.487z"/>
		<path d="M182.023,14.615c0,7.309-3.444,10.5-7.309,10.5c-3.892,0-7.279-3.191-7.279-10.5c0-7.336,3.388-10.527,7.279-10.527
			C178.579,4.088,182.023,7.279,182.023,14.615z M174.715,24.136c1.652,0,3.08-2.044,3.08-9.521c0-7.531-1.428-9.575-3.08-9.575
			s-3.023,2.016-3.023,9.575C171.691,22.12,173.062,24.136,174.715,24.136z"/>
		<path d="M199.047,14.615c0,7.309-3.444,10.5-7.309,10.5c-3.892,0-7.279-3.191-7.279-10.5c0-7.336,3.388-10.527,7.279-10.527
			C195.603,4.088,199.047,7.279,199.047,14.615z M191.738,24.136c1.652,0,3.08-2.044,3.08-9.521c0-7.531-1.428-9.575-3.08-9.575
			s-3.023,2.016-3.023,9.575C188.715,22.12,190.086,24.136,191.738,24.136z"/>
		<path d="M212.766,5.012c0.196-0.084,0.504-0.084,0.7,0c0.532,0.252,1.597,0.812,2.017,1.092c0.168,0.112,0.168,0.309,0.056,0.504
			l-0.56,1.064c-1.484,5.264-6.272,10.668-12.433,13.804c-0.196,0.112-0.364,0.112-0.476,0.028l-0.588-0.561
			c-0.141-0.14-0.168-0.279-0.028-0.447c4.508-3.612,7.84-8.513,9.071-12.769c-1.26,0-2.912,0.028-3.443,0.057
			c-0.645,0.027-1.792,0.224-2.436,0.447c-0.98-0.476-1.988-1.204-2.66-1.876c-0.141-0.168-0.168-0.279-0.084-0.42l0.252-0.42
			c0.924,0.14,2.128,0.224,2.968,0.224c1.063,0,5.18-0.056,6.468-0.14L212.766,5.012z M224.05,11.563
			c0.84-0.027,2.044,0.028,2.576,0.141c0.392,0.084,0.644,0.363,0.672,0.728c0.056,0.7-0.112,1.428-0.336,1.708
			c-0.196,0.252-0.644,0.364-0.979,0.364l-4.117,0.14v5.236c0,1.96-0.475,5.824-1.287,7.868h-2.156
			c-0.252-0.952-0.447-5.376-0.447-6.721V3.668c-0.365-0.672-1.232-1.344-2.213-1.765l0.393-1.119
			c0.056-0.141,0.14-0.225,0.447-0.225c1.484,0.057,3.864,0.504,4.957,0.98c0.336,0.14,0.475,0.42,0.447,0.84l-0.141,1.82v8.063
			l1.289-0.084L224.05,11.563z"/>
		<path d="M259.777,11.424c0.84-0.028,2.044,0.028,2.576,0.14c0.393,0.084,0.645,0.364,0.672,0.729
			c0.057,0.7-0.111,1.428-0.336,1.708c-0.195,0.252-0.645,0.363-0.98,0.363l-4.115,0.141v5.376c0,1.96-0.477,5.824-1.288,7.868
			h-2.156c-0.252-0.952-0.448-5.376-0.448-6.721v-2.38c-3.416,1.12-7.588,1.904-10.472,2.185c-0.42,0.027-0.868,0.056-1.176,0.056
			c-1.513,0-2.548-0.84-2.968-2.156c-0.112-0.336-0.196-0.952-0.196-1.596v-3.92c-0.364-0.42-0.979-0.784-1.652-1.036l0.196-0.896
			c0.027-0.112,0.141-0.196,0.336-0.196c1.176,0,4.032,0.056,5.068,0.168c0.896,0,2.463-0.084,3.052-0.141l0.532-0.14
			c0.084-0.616,0.084-3.136,0.027-3.724c-1.176-0.028-3.304,0-3.863,0.027c-0.645,0.057-1.681,0.252-2.408,0.448
			c-0.924-0.56-1.82-1.288-2.52-1.988c-0.113-0.111-0.141-0.224-0.084-0.392l0.252-0.476c0.84,0.168,2.211,0.252,2.939,0.252
			c1.092,0,5.208-0.028,6.271-0.084l1.344-0.561c0.197-0.084,0.42-0.084,0.645,0c0.477,0.196,1.512,0.672,1.96,0.924
			c0.14,0.084,0.168,0.252,0.112,0.448l-0.42,1.344c-0.084,1.064-0.477,2.885-0.784,3.78l0.644,0.364
			c0.168,0.084,0.252,0.252,0.252,0.42c0,0.588-0.195,1.204-0.42,1.456l-7.588,0.28v3.752c0,0.363,0.168,0.56,0.588,0.56
			c2.856-0.028,7.084-0.448,10.332-1.231V3.668c-0.363-0.672-1.232-1.344-2.212-1.765l0.392-1.119
			c0.057-0.141,0.141-0.225,0.449-0.225c1.483,0.057,3.863,0.504,4.955,0.98c0.336,0.14,0.477,0.42,0.448,0.84l-0.14,1.82v7.924
			l1.287-0.084L259.777,11.424z"/>
		<path d="M280.75,0.784c0.055-0.141,0.139-0.225,0.447-0.225c1.484,0.057,3.864,0.504,4.956,0.98c0.336,0.14,0.476,0.42,0.448,0.84
			l-0.141,1.82v15.68c0,1.96-0.476,5.824-1.287,7.868h-2.156c-0.252-0.952-0.448-5.376-0.448-6.721v-3.191
			c-3.724,1.176-8.204,2.071-11.284,2.38c-0.447,0.056-0.896,0.056-1.232,0.056c-1.567,0-2.659-0.868-3.08-2.212
			c-0.111-0.364-0.195-0.979-0.195-1.652V8.176c-0.363-0.476-1.036-0.952-1.792-1.232l0.252-1.008
			c0.056-0.111,0.14-0.196,0.336-0.196c1.177,0,3.808,0.141,4.983,0.337c1.037-0.028,3.416-0.168,4.201-0.28l0.896-0.616
			c0.84,0,2.156,0.084,2.828,0.196c0.364,0.084,0.532,0.308,0.532,0.644c0,0.84-0.225,1.484-0.477,1.736
			c-0.14,0.14-0.308,0.196-0.588,0.196l-7.279,0.336v8.176c0,0.392,0.168,0.56,0.56,0.56c3.136-0.027,7.784-0.504,11.34-1.372V3.668
			c-0.364-0.672-1.231-1.344-2.212-1.765L280.75,0.784z"/>
		<path d="M312.445,20.104c1.232,0.057,3.023,0.336,3.779,0.616c0.309,0.112,0.504,0.364,0.504,0.728
			c0,0.812-0.531,1.568-0.951,1.765c-0.7-0.084-2.771-0.141-3.725-0.141c-1.932,0-12.852,0.112-14.615,0.225
			c-0.756,0.056-2.576,0.363-3.389,0.588c-1.176-0.477-2.492-1.428-3.332-2.269c-0.111-0.111-0.14-0.308-0.084-0.447l0.28-0.532
			c1.177,0.196,2.716,0.308,3.836,0.336c0.841,0,3.808,0,7-0.056v-5.013c-3.388-0.615-5.768-2.911-5.768-6.048
			c0-3.724,3.276-6.244,7.644-6.244c4.368,0,7.645,2.521,7.645,6.244c0,3.137-2.353,5.404-5.713,6.048v4.956
			c2.576-0.056,4.816-0.111,5.572-0.168L312.445,20.104z M303.625,13.384c2.072,0,3.612-1.288,3.612-3.528
			c0-2.268-1.54-3.584-3.612-3.584s-3.611,1.316-3.611,3.584C300.014,12.096,301.553,13.384,303.625,13.384z"/>
		<path d="M331.064,2.8c0.057-0.14,0.168-0.224,0.504-0.224c1.261,0.056,3.277,0.504,4.201,0.951
			c0.279,0.141,0.392,0.393,0.392,0.784l-0.112,1.513v13.468c0,1.792-0.447,5.208-1.148,7h-1.932
			c-0.252-1.064-0.447-4.732-0.447-5.992v-6.552c-0.616,0.027-1.232,0.056-1.736,0.084c-0.616,2.771-2.969,4.62-6.104,4.62
			c-3.641,0-6.244-2.492-6.244-6.049c0-3.527,2.604-5.991,6.244-5.991c3.275,0,5.711,2.016,6.159,4.983c0.56,0,1.148,0,1.681-0.027
			V5.376c-0.309-0.561-1.064-1.12-1.877-1.484L331.064,2.8z M327.201,12.403c0-1.903-1.008-3.052-2.52-3.052
			c-1.513,0-2.521,1.148-2.521,3.052c0,1.876,1.008,3.024,2.521,3.024C326.193,15.428,327.201,14.279,327.201,12.403z
			 M336.161,0.784c0.084-0.141,0.196-0.225,0.504-0.225c1.344,0.057,3.528,0.504,4.536,0.98c0.308,0.14,0.447,0.392,0.42,0.812
			l-0.112,1.652v16.044c0,1.932-0.476,5.684-1.26,7.7h-2.044c-0.252-0.98-0.448-5.265-0.448-6.608V3.5
			c-0.308-0.588-1.12-1.204-1.987-1.597L336.161,0.784z"/>
		<path d="M358.785,15.147c0.447,0.784,1.008,2.017,1.232,2.66c0.195,0.616,0.195,1.008,0.027,1.288
			c-0.336,0.588-1.26,0.896-1.82,0.644c-0.279-0.14-0.615-0.476-0.84-0.783l-4.088-5.236c-1.736,2.38-4.088,4.62-6.943,6.44
			c-0.197,0.111-0.336,0.111-0.477,0.027l-0.672-0.56c-0.112-0.112-0.112-0.252,0.027-0.42c3.809-3.809,6.217-8.316,6.86-12.376
			c-0.28-0.561-0.924-1.204-1.624-1.568l0.477-0.979c0.084-0.141,0.195-0.196,0.476-0.168c1.315,0.111,3.668,0.728,4.563,1.176
			c0.336,0.168,0.561,0.447,0.561,0.728c0,0.309-0.027,0.616-0.084,0.84c-0.28,1.54-0.896,3.164-1.792,4.761l2.407,2.827
			L358.785,15.147z M361.865,0.784c0.056-0.141,0.14-0.225,0.447-0.225c1.484,0.057,3.864,0.504,4.957,0.98
			c0.336,0.14,0.475,0.42,0.447,0.84l-0.141,1.82v15.68c0,1.96-0.475,5.824-1.287,7.868h-2.156
			c-0.252-0.952-0.447-5.376-0.447-6.721v-8.344c-0.729,0.028-1.457,0.084-1.793,0.14c-0.42,0.057-1.428,0.309-1.875,0.505
			c-1.037-0.589-1.904-1.316-2.633-2.072c-0.14-0.141-0.168-0.28-0.084-0.42l0.28-0.477c0.784,0.141,2.071,0.225,2.94,0.225
			c0.699,0,2.071-0.028,3.164-0.084V3.668c-0.365-0.672-1.232-1.344-2.213-1.765L361.865,0.784z"/>
		<path d="M399.496,14.027c-0.728,0.028-1.428,0.057-1.791,0.112c-0.449,0.056-1.232,0.196-1.709,0.336
			c-0.588-0.364-1.119-0.784-1.596-1.231c-1.092,1.68-3.107,2.716-5.628,2.716c-3.864,0-6.58-2.492-6.58-6.021
			c0-3.5,2.716-5.936,6.58-5.936c3.892,0,6.58,2.436,6.58,5.936c0,0.7-0.112,1.372-0.308,1.988c0.476,0.028,1.008,0.056,1.455,0.056
			c0.672,0,1.933-0.027,2.996-0.084v-3.92c-0.363,0.028-0.699,0.057-0.896,0.084c-0.448,0.057-1.232,0.196-1.708,0.336
			c-0.84-0.504-1.54-1.147-2.1-1.792c-0.141-0.168-0.141-0.279-0.084-0.42l0.308-0.448c0.644,0.112,1.624,0.169,2.38,0.169
			c0.477,0,1.288,0,2.1-0.028V3.64c-0.336-0.644-1.176-1.315-2.1-1.708l0.393-1.147c0.055-0.141,0.168-0.225,0.476-0.225
			c1.456,0.057,3.752,0.504,4.815,0.98c0.309,0.14,0.448,0.42,0.42,0.84l-0.111,1.764v9.072c0,2.268-0.477,5.6-1.26,7.392h-2.185
			c-0.28-1.036-0.448-4.844-0.448-6.3V14.027z M388.772,13.104c1.681,0,2.8-1.204,2.8-3.164s-1.119-3.191-2.8-3.191
			s-2.8,1.231-2.8,3.191S387.092,13.104,388.772,13.104z M401.4,23.884c1.008-0.028,2.464,0.084,3.164,0.252
			c0.363,0.084,0.588,0.336,0.588,0.672c0,0.924-0.309,1.596-0.531,1.82c-0.141,0.14-0.365,0.195-0.617,0.195l-11.787,0.112
			c-2.269-0.028-3.164-0.952-3.164-2.716v-3.276c-0.448-0.42-1.204-0.868-1.932-1.147l0.223-0.952c0.029-0.14,0.197-0.28,0.477-0.28
			c1.316,0,3.668,0.168,4.676,0.393c0.364,0.084,0.561,0.336,0.561,0.756L393,21.308v2.632c0,0.477,0.196,0.7,0.672,0.7
			c1.597,0.028,4.845-0.028,6.496-0.084L401.4,23.884z"/>
		<path d="M429.316,12.628c1.232,0.056,3.023,0.336,3.779,0.616c0.309,0.111,0.504,0.363,0.504,0.728
			c0,0.812-0.531,1.568-0.951,1.764c-0.7-0.084-2.771-0.14-3.725-0.14c-1.932,0-12.852,0.112-14.615,0.224
			c-0.756,0.057-2.576,0.364-3.389,0.588c-1.176-0.476-2.492-1.428-3.332-2.268c-0.111-0.112-0.14-0.308-0.084-0.448l0.28-0.531
			c1.177,0.195,2.716,0.308,3.836,0.336c1.904,0.027,14.364-0.112,16.38-0.28L429.316,12.628z M409.996,11.508
			c-0.111-0.14-0.084-0.309,0.084-0.393c4.172-2.016,7.112-4.508,8.652-7.279c-0.196-0.393-0.7-0.896-1.232-1.204l0.504-0.924
			c0.084-0.141,0.252-0.196,0.561-0.168c1.344,0.14,3.556,0.728,4.396,1.176c0.363,0.168,0.56,0.448,0.56,0.756
			c-0.028,0.448-0.112,0.7-0.224,0.896c-0.281,0.476-0.617,0.951-1.009,1.399l3.612,1.568h2.296
			c0.728,0.392,1.735,1.036,2.212,1.483c0.393,0.364,0.561,0.673,0.561,0.98c0,0.672-0.645,1.344-1.205,1.428
			c-0.336,0.028-0.756-0.084-1.092-0.224l-8.035-3.584c-2.492,2.156-5.908,3.836-9.688,4.788c-0.252,0.084-0.364,0.056-0.448-0.028
			L409.996,11.508z M428.477,24.947c0.168,0.084,0.252,0.196,0.252,0.42c0,0.645-0.168,1.261-0.364,1.513
			c-2.604-0.028-8.344,0-11.312,0.056c-0.225,0.42-0.504,0.729-0.756,0.896h-1.933c-0.336-0.645-0.504-1.597-0.504-2.185
			l-0.112-5.88c-0.252-0.364-0.979-0.84-1.568-1.063l0.252-0.925c0.057-0.111,0.168-0.195,0.505-0.195
			c1.063-0.028,3.388,0.195,4.228,0.42c0.28,0.084,0.393,0.279,0.393,0.672l-0.057,1.372v0.448l6.86-0.084v-1.261
			c-0.28-0.42-0.952-0.896-1.567-1.176l0.363-1.008c0.057-0.14,0.168-0.224,0.504-0.196c1.092,0.057,3.332,0.448,4.145,0.756
			c0.308,0.112,0.42,0.336,0.392,0.672l-0.056,1.429l-0.028,2.323c0,0.896-0.196,2.045-0.448,2.66L428.477,24.947z M417.444,22.735
			l-0.056,1.876l6.972-0.056v-1.904L417.444,22.735z"/>
		<path d="M442.756,11.844c-1.568,2.072-3.724,4.004-6.328,5.544c-0.224,0.14-0.363,0.14-0.504,0.028l-0.672-0.616
			c-0.14-0.14-0.111-0.28,0.028-0.448c3.22-3.107,5.264-6.636,5.88-9.939c-0.225-0.448-0.784-1.009-1.4-1.345l0.504-1.008
			c0.057-0.112,0.196-0.168,0.477-0.14c1.26,0.111,3.416,0.672,4.199,1.092c0.337,0.168,0.533,0.42,0.533,0.7
			c0.027,0.308,0,0.616-0.057,0.812c-0.252,1.092-0.699,2.212-1.344,3.332l1.512,1.708l1.624,0.532
			c0.392,0.672,0.896,1.708,1.093,2.296c0.168,0.504,0.139,0.84,0.027,1.036c-0.279,0.56-1.176,0.84-1.708,0.616
			c-0.252-0.084-0.56-0.393-0.784-0.645L442.756,11.844z M457.484,22.092c0,3.388-3.024,5.404-6.553,5.404
			c-3.527,0-6.551-2.017-6.551-5.404c0-3.108,3.023-4.956,6.551-4.956C454.46,17.136,457.484,18.983,457.484,22.092z M453.032,0.784
			c0.084-0.141,0.196-0.225,0.504-0.225c1.344,0.057,3.528,0.504,4.536,0.98c0.308,0.14,0.447,0.392,0.42,0.812l-0.112,1.652v8.428
			c0,1.484-0.532,4.145-1.147,5.348h-2.156c-0.252-0.867-0.448-3.443-0.448-4.508v-2.128l-1.903,0.056v0.141
			c0,1.82-0.477,4.116-1.092,5.18h-2.017c-0.28-0.84-0.448-3.107-0.448-4.368V4.956c-0.308-0.561-1.035-1.12-1.876-1.484l0.42-1.092
			c0.056-0.14,0.168-0.225,0.505-0.225c1.26,0.057,3.275,0.505,4.199,0.952c0.309,0.141,0.42,0.393,0.393,0.784l-0.084,1.512v3.416
			l1.903-0.056V3.5c-0.308-0.588-1.12-1.204-1.987-1.597L453.032,0.784z M453.592,22.092c0-1.512-1.176-2.353-2.66-2.353
			c-1.483,0-2.66,0.841-2.66,2.353c0,1.54,1.177,2.352,2.66,2.352C452.416,24.443,453.592,23.632,453.592,22.092z"/>
		<path d="M485.371,14.84c0.477,0.756,1.121,1.96,1.373,2.604c0.224,0.616,0.224,1.009,0.084,1.288
			c-0.309,0.616-1.232,0.924-1.793,0.7c-0.279-0.112-0.615-0.448-0.867-0.728l-4.48-5.181c-1.764,2.492-4.199,4.872-7.168,6.748
			c-0.195,0.112-0.336,0.112-0.476,0.028l-0.673-0.561c-0.111-0.111-0.111-0.252,0.029-0.42c3.807-3.808,6.215-8.315,6.859-12.376
			c-0.28-0.56-0.924-1.204-1.624-1.567l0.476-0.98c0.084-0.14,0.196-0.195,0.477-0.168c1.316,0.112,3.668,0.729,4.564,1.176
			c0.336,0.168,0.56,0.448,0.56,0.729c0,0.308-0.028,0.616-0.085,0.84c-0.279,1.456-0.84,2.968-1.651,4.452l2.66,2.8L485.371,14.84z
			 M487.388,0.784c0.056-0.141,0.14-0.225,0.448-0.225c1.484,0.057,3.863,0.504,4.955,0.98c0.336,0.14,0.477,0.42,0.449,0.84
			L493.1,4.2v15.68c0,1.96-0.477,5.824-1.288,7.868h-2.155c-0.252-0.952-0.449-5.376-0.449-6.721V3.668
			c-0.363-0.672-1.231-1.344-2.211-1.765L487.388,0.784z"/>
		<path d="M507.576,11.34c-2.297,2.156-5.097,4.032-8.148,5.348c-0.252,0.112-0.42,0.141-0.532,0.057l-0.56-0.589
			c-0.141-0.14-0.141-0.279,0-0.447c3.947-2.688,7.084-6.44,8.82-9.8c-1.177,0-2.604,0.027-3.08,0.056
			c-0.589,0.028-1.652,0.224-2.269,0.448c-0.952-0.504-1.933-1.288-2.604-1.988c-0.14-0.168-0.168-0.28-0.084-0.42l0.252-0.42
			c0.924,0.14,2.101,0.195,2.94,0.195c1.008,0,4.704-0.056,6.048-0.111l1.288-0.532c0.224-0.084,0.504-0.084,0.728,0
			c0.588,0.224,1.709,0.728,2.129,0.952c0.168,0.112,0.195,0.336,0.084,0.532l-0.729,1.147c-0.672,1.316-1.568,2.604-2.632,3.836
			l1.765,1.568l1.315,0.336c0.532,0.644,1.204,1.68,1.456,2.268c0.224,0.477,0.279,0.84,0.168,1.093
			c-0.28,0.588-1.12,0.924-1.708,0.756c-0.308-0.084-0.644-0.364-0.896-0.616L507.576,11.34z M518.271,24.248
			c0.924-0.028,2.268,0.111,2.912,0.279c0.336,0.084,0.561,0.336,0.561,0.672c0,0.812-0.225,1.4-0.421,1.597
			c-0.14,0.14-0.364,0.195-0.588,0.195l-12.18,0.084c-1.96-0.027-2.716-0.812-2.716-2.352v-2.1c-0.364-0.42-0.952-0.757-1.625-1.009
			l0.141-0.812c0.028-0.112,0.141-0.196,0.336-0.196c1.204,0,4.032,0.057,5.096,0.168c1.512,0,4.592-0.027,5.601-0.084l0.588-0.14
			c0.056-0.42,0.084-1.344,0.056-1.68c-1.82,0-5.432,0.027-6.3,0.084c-0.7,0.027-1.876,0.195-2.66,0.392
			c-0.979-0.532-1.96-1.316-2.688-2.044c-0.14-0.14-0.14-0.224-0.085-0.392l0.253-0.448c0.896,0.168,2.38,0.28,3.108,0.28
			c1.344,0,7.588-0.057,9.043-0.112l1.205-0.504c0.168-0.084,0.363-0.084,0.588,0c0.476,0.168,1.455,0.56,1.848,0.756
			c0.14,0.112,0.168,0.308,0.084,0.532l-0.504,1.12c-0.057,0.615-0.364,1.624-0.588,2.1l0.531,0.252
			c0.168,0.084,0.28,0.252,0.28,0.42c0,0.616-0.224,1.204-0.42,1.456l-9.996,0.112v1.288c0,0.42,0.168,0.588,0.532,0.588
			c1.764,0.027,5.432,0,7.084-0.057L518.271,24.248z M511.523,7.896c0.645,0.112,1.568,0.141,2.296,0.141
			c0.589,0.027,1.597,0,2.521-0.028V3.64c-0.336-0.644-1.176-1.315-2.101-1.708l0.392-1.147c0.057-0.141,0.168-0.225,0.477-0.225
			c1.456,0.057,3.752,0.504,4.816,0.98c0.308,0.14,0.447,0.42,0.42,0.84l-0.112,1.764v5.824c0,1.428-0.56,4.06-1.176,5.18h-2.269
			c-0.279-0.812-0.447-3.332-0.447-4.368v-0.644c-0.561,0.028-1.064,0.056-1.344,0.112c-0.449,0.027-1.232,0.252-1.681,0.447
			c-0.784-0.56-1.483-1.26-2.044-1.932c-0.111-0.14-0.141-0.28-0.057-0.42L511.523,7.896z"/>
		<path d="M541.483,0.784c0.056-0.141,0.14-0.225,0.448-0.225c1.484,0.057,3.863,0.504,4.955,0.98c0.336,0.14,0.477,0.42,0.449,0.84
			l-0.141,1.82v15.68c0,1.96-0.477,5.824-1.288,7.868h-2.155c-0.252-0.952-0.449-5.376-0.449-6.721v-1.624
			c-3.303,0.757-8.987,1.568-12.264,1.765c-0.728,0.056-2.043,0.336-2.716,0.615c-1.12-0.588-2.491-1.596-3.388-2.491
			c-0.141-0.141-0.168-0.225-0.084-0.393l0.252-0.56c1.176,0.196,2.688,0.252,3.863,0.224c4.033-0.084,11.229-0.644,14.336-1.315
			V3.668c-0.363-0.672-1.231-1.344-2.211-1.765L541.483,0.784z M527.147,10.023c0-3.191,2.716-5.544,6.552-5.544
			s6.607,2.353,6.607,5.544c0,3.276-2.771,5.628-6.607,5.628S527.147,13.3,527.147,10.023z M530.983,10.023
			c0,1.652,1.092,2.716,2.716,2.716s2.717-1.063,2.717-2.716c0-1.651-1.093-2.716-2.717-2.716S530.983,8.372,530.983,10.023z"/>
		<path d="M574.663,12.235c0,3.612-2.94,6.272-6.916,6.272s-6.916-2.66-6.916-6.272c0-3.611,2.94-6.3,6.916-6.3
			S574.663,8.624,574.663,12.235z M570.631,12.235c0-1.987-1.176-3.275-2.884-3.275s-2.884,1.288-2.884,3.275
			c0,1.988,1.176,3.248,2.884,3.248S570.631,14.224,570.631,12.235z M583.343,10.947c0.84-0.027,2.044,0.028,2.576,0.141
			c0.392,0.084,0.644,0.364,0.672,0.728c0.056,0.7-0.112,1.429-0.336,1.708c-0.196,0.252-0.644,0.364-0.979,0.364l-4.117,0.14v5.853
			c0,1.96-0.475,5.824-1.287,7.868h-2.156c-0.252-0.952-0.447-5.376-0.447-6.721V3.668c-0.365-0.672-1.232-1.344-2.213-1.765
			l0.393-1.119c0.056-0.141,0.14-0.225,0.447-0.225c1.484,0.057,3.864,0.504,4.957,0.98c0.336,0.14,0.475,0.42,0.447,0.84
			l-0.141,1.82v7.447l1.289-0.084L583.343,10.947z"/>
		<path d="M608.963,13.775c1.232,0.057,3.023,0.336,3.779,0.616c0.309,0.112,0.504,0.364,0.504,0.729
			c0,0.812-0.531,1.567-0.951,1.764c-0.7-0.084-2.771-0.14-3.725-0.14c-1.932,0-12.852,0.111-14.615,0.224
			c-0.756,0.056-2.576,0.364-3.389,0.588c-1.176-0.476-2.492-1.428-3.332-2.268c-0.111-0.112-0.14-0.309-0.084-0.448l0.28-0.532
			c1.177,0.196,2.716,0.308,3.836,0.336c1.904,0.028,14.364-0.112,16.38-0.28L608.963,13.775z M606.135,2.24
			c1.036,0.027,2.492,0.224,3.052,0.42c0.252,0.084,0.448,0.363,0.448,0.615c0,0.812-0.448,1.568-0.756,1.792
			c-0.561-0.056-2.324-0.056-3.053-0.056c-1.344,0-9.127,0.112-10.332,0.168c-0.615,0.028-1.735,0.224-2.323,0.392
			c-0.979-0.504-2.017-1.371-2.688-2.128c-0.084-0.111-0.084-0.252-0.027-0.363l0.224-0.448c1.036,0.168,2.408,0.28,3.192,0.28
			c1.428,0.027,9.604-0.112,11.172-0.196L606.135,2.24z M591.043,10.443c1.035,0.168,2.408,0.28,3.191,0.28h1.037l-0.309-2.52
			c-0.168-0.336-0.588-0.7-1.008-0.925l0.336-0.924c0.084-0.168,0.195-0.252,0.531-0.224c1.037,0.084,2.549,0.392,3.305,0.728
			c0.279,0.112,0.336,0.309,0.308,0.616l-0.056,1.036l0.111,2.156l3.528-0.084l0.028-3.192c-0.196-0.28-0.616-0.56-1.036-0.672
			l0.28-0.952c0.056-0.14,0.168-0.224,0.531-0.224c1.037,0.027,2.66,0.224,3.473,0.448c0.252,0.084,0.336,0.279,0.308,0.644
			l-0.084,0.979l-0.28,2.828h0.084l1.037-0.42c0.924,0.028,2.239,0.225,2.799,0.42c0.225,0.084,0.393,0.336,0.393,0.616
			c0,0.784-0.448,1.54-0.756,1.736c-0.504-0.057-2.072-0.057-2.744-0.057c-1.288,0-8.932,0.168-10.191,0.253
			c-0.617,0.027-1.736,0.224-2.324,0.392c-0.98-0.504-2.017-1.372-2.688-2.128c-0.084-0.112-0.084-0.252-0.028-0.364L591.043,10.443
			z M605.49,18.256c0.196-0.084,0.449-0.084,0.645,0c0.504,0.224,1.484,0.672,1.848,0.924c0.141,0.084,0.168,0.252,0.084,0.476
			l-0.447,1.4c-0.168,1.036-0.393,2.156-0.729,3.164l0.561,0.308c0.195,0.112,0.336,0.28,0.336,0.504
			c0,0.784-0.309,1.456-0.588,1.736l-9.996,0.084c-0.141,0.364-0.364,0.672-0.672,0.952h-2.129
			c-0.279-0.561-0.476-1.344-0.531-2.044l-0.42-4.816c-0.364-0.42-1.036-0.868-1.68-1.12l0.279-1.035
			c0.027-0.112,0.141-0.196,0.364-0.196c1.231,0,3.556,0.168,4.872,0.336c1.484-0.028,5.375-0.084,6.832-0.168L605.49,18.256z
			 M597.371,24.359c1.707,0.028,4.172,0,5.684-0.084l0.645-0.168l0.056-2.828c-2.017,0.028-4.479,0.084-6.384,0.141V24.359z"/>
		<path d="M636.011,12.124c1.231,0.056,3.052,0.336,3.78,0.615c0.308,0.112,0.504,0.337,0.504,0.7c0,0.756-0.532,1.456-0.952,1.624
			c-0.7-0.084-2.772-0.14-3.724-0.14c-1.904,0-12.937,0.112-14.645,0.224c-0.729,0.057-2.548,0.364-3.359,0.588
			c-1.177-0.42-2.492-1.315-3.332-2.1c-0.112-0.112-0.141-0.308-0.084-0.448l0.279-0.532c1.176,0.196,2.717,0.309,3.836,0.337
			c1.876,0.027,14.393-0.112,16.38-0.28L636.011,12.124z M632.875,24.472c0.896,0,2.24,0.112,2.855,0.28
			c0.336,0.084,0.561,0.336,0.561,0.644c0,0.784-0.225,1.344-0.42,1.54c-0.141,0.14-0.365,0.196-0.588,0.196l-12.097,0.084h-0.028
			c-2.072-0.028-2.855-0.84-2.855-2.324v-2.044c-0.364-0.42-0.952-0.756-1.624-1.008l0.14-0.812
			c0.028-0.111,0.141-0.195,0.336-0.195c1.204,0,4.032,0.056,5.096,0.168c1.568,0,4.761-0.028,5.769-0.084l0.672-0.141
			c0.028-0.447,0.056-1.344,0.028-1.68c-1.848-0.028-5.74,0-6.637,0.056c-0.699,0.057-1.848,0.225-2.631,0.42
			c-0.953-0.531-1.933-1.288-2.633-1.987c-0.14-0.141-0.168-0.225-0.084-0.393l0.225-0.447c0.896,0.168,2.324,0.279,3.08,0.279
			c1.371,0,7.867-0.056,9.324-0.111l1.119-0.477c0.168-0.084,0.364-0.084,0.588,0c0.477,0.168,1.484,0.532,1.877,0.729
			c0.139,0.084,0.168,0.279,0.084,0.504l-0.505,1.12c-0.056,0.615-0.336,1.624-0.56,2.1l0.531,0.252
			c0.141,0.084,0.252,0.224,0.252,0.392c0,0.589-0.224,1.177-0.42,1.4l-10.135,0.112v1.344c0,0.392,0.168,0.588,0.559,0.588
			c1.765,0.028,5.517,0,7.168-0.056L632.875,24.472z M620.33,6.775c0-2.828,2.688-4.815,6.86-4.815c4.173,0,6.86,1.987,6.86,4.815
			c0,2.856-2.688,4.845-6.86,4.845C623.019,11.62,620.33,9.632,620.33,6.775z M624.25,6.775c0,1.484,1.121,2.408,2.94,2.408
			c1.82,0,2.94-0.924,2.94-2.408c0-1.483-1.12-2.407-2.94-2.407C625.371,4.368,624.25,5.292,624.25,6.775z"/>
		<path d="M17.89,46.955c0.028,0.168-0.056,0.309-0.28,0.42c-2.128,1.008-5.684,1.876-8.008,2.017
			c-0.477,0.027-0.896,0.027-1.316,0.027c-2.016,0-2.688-0.363-3.304-1.903c-0.056-0.141-0.112-0.896-0.112-1.736v-5.964
			c-0.363-0.477-1.008-0.952-1.764-1.232l0.252-1.008c0.057-0.112,0.141-0.196,0.336-0.196c1.204,0,4.032,0.141,5.068,0.364
			c0.924-0.027,3.052-0.168,3.752-0.252l0.867-0.588c0.869,0,2.156,0.056,2.828,0.196c0.365,0.084,0.533,0.308,0.533,0.644
			c0,0.812-0.225,1.456-0.477,1.708c-0.141,0.141-0.309,0.196-0.588,0.196l-6.944,0.308v2.212c0.896-0.027,2.072-0.111,2.604-0.224
			l0.812-0.448c0.757-0.027,1.904,0,2.437,0.112c0.363,0.056,0.56,0.336,0.56,0.616c0,0.699-0.196,1.288-0.392,1.483
			c-0.141,0.141-0.42,0.196-0.7,0.225l-5.32,0.363v1.624c0,0.393,0.168,0.561,0.589,0.561c2.239-0.028,5.963-0.336,7.924-0.7
			c0.252-0.056,0.392,0,0.42,0.196L17.89,46.955z M22.901,57.932c0.896-0.028,2.24,0.111,2.884,0.279
			c0.336,0.084,0.561,0.336,0.561,0.672c0,0.812-0.225,1.4-0.42,1.597c-0.141,0.14-0.364,0.195-0.588,0.195l-12.125,0.084
			c-1.987-0.027-2.743-0.812-2.743-2.352v-1.96c-0.364-0.42-0.952-0.756-1.624-1.008l0.14-0.812c0.028-0.111,0.14-0.195,0.337-0.195
			c1.203,0,4.004,0.056,5.096,0.168c1.623,0,4.479-0.028,5.488-0.084l0.615-0.141c0.027-0.42,0.057-1.26,0.027-1.596
			c-1.764,0-5.348,0.028-6.215,0.084c-0.7,0.028-1.877,0.196-2.66,0.392c-0.98-0.531-1.961-1.315-2.688-2.044
			c-0.14-0.14-0.14-0.224-0.084-0.392l0.253-0.448c0.896,0.168,2.379,0.28,3.107,0.28c1.344,0,7.615-0.056,8.96-0.112l1.204-0.504
			c0.168-0.084,0.363-0.084,0.588,0c0.477,0.168,1.456,0.561,1.848,0.756c0.141,0.112,0.168,0.309,0.084,0.532l-0.504,1.12
			c-0.056,0.588-0.336,1.568-0.561,2.016l0.505,0.252c0.168,0.084,0.28,0.252,0.28,0.42c0,0.616-0.225,1.204-0.42,1.456
			l-9.885,0.112v1.148c0,0.42,0.168,0.588,0.532,0.588c1.735,0.027,5.403,0,7.084-0.057L22.901,57.932z M16.238,41.384
			c0.643,0.084,1.567,0.14,2.323,0.14c0.56,0,1.513-0.028,2.38-0.056v-4.229c-0.336-0.644-1.176-1.315-2.1-1.708l0.392-1.147
			c0.056-0.141,0.168-0.225,0.476-0.225c1.457,0.057,3.752,0.504,4.816,0.98c0.309,0.14,0.448,0.42,0.42,0.84l-0.111,1.764v6.3
			c0,1.429-0.561,4.061-1.176,5.181H21.39c-0.28-0.812-0.448-3.332-0.448-4.34v-1.288c-0.504,0.027-0.98,0.056-1.232,0.111
			c-0.42,0.057-1.203,0.252-1.651,0.42c-0.784-0.531-1.513-1.26-2.072-1.932c-0.112-0.168-0.14-0.28-0.056-0.42L16.238,41.384z"/>
		<path d="M46.113,34.384c0.057-0.141,0.141-0.225,0.448-0.225c1.483,0.057,3.864,0.504,4.956,0.98
			c0.336,0.14,0.476,0.42,0.447,0.84l-0.14,1.82v15.68c0,1.96-0.476,5.824-1.288,7.868h-2.156c-0.252-0.952-0.447-5.376-0.447-6.721
			v-7.699c-0.336,0-0.672,0.027-0.812,0.056c-0.447,0.056-1.428,0.336-1.875,0.504c-0.449-0.224-0.869-0.476-1.232-0.756
			c-0.364,3.248-3.192,5.544-6.889,5.544c-4.004,0-6.916-2.632-6.916-6.272c0-3.64,2.912-6.3,6.916-6.3
			c3.5,0,6.217,2.072,6.805,5.068c0.615,0.027,1.26,0.056,1.791,0.056c0.533,0,1.429,0,2.213-0.056v-7.504
			c-0.364-0.672-1.232-1.344-2.213-1.765L46.113,34.384z M40.01,46.003c0-2.016-1.176-3.275-2.885-3.275
			c-1.707,0-2.884,1.26-2.884,3.275c0,1.988,1.177,3.248,2.884,3.248C38.834,49.251,40.01,47.991,40.01,46.003z"/>
		<path d="M77.838,45.388c1.231,0.056,3.051,0.336,3.779,0.615c0.309,0.112,0.504,0.336,0.504,0.7c0,0.756-0.531,1.456-0.951,1.624
			c-0.701-0.084-2.772-0.14-3.725-0.14c-1.904,0-12.936,0.111-14.645,0.224c-0.728,0.057-2.547,0.364-3.359,0.588
			c-1.176-0.42-2.492-1.315-3.332-2.1c-0.111-0.112-0.141-0.308-0.084-0.448l0.279-0.532c1.177,0.196,2.717,0.309,3.836,0.336
			c0.841,0,3.865,0,7.113-0.056v-2.548l-2.828,0.028c-2.072-0.028-3.08-1.064-3.08-2.856v-2.744
			c-0.393-0.392-1.092-0.812-1.793-1.092l0.252-0.952c0.029-0.14,0.197-0.28,0.477-0.28c1.288,0,3.557,0.169,4.536,0.393
			c0.392,0.084,0.56,0.364,0.56,0.784l-0.056,1.624v2.155c0,0.477,0.196,0.7,0.672,0.7c1.82,0.028,5.685-0.027,7.448-0.111
			l1.035-0.645c0.953,0,2.353,0.112,3.025,0.28c0.363,0.084,0.559,0.336,0.559,0.672c0,0.896-0.279,1.54-0.475,1.736
			c-0.141,0.14-0.365,0.195-0.617,0.195l-5.908,0.057v2.548c2.549-0.057,4.732-0.112,5.461-0.168L77.838,45.388z M75.289,52.023
			c0.84,0.028,2.1,0.224,2.633,0.42c0.195,0.056,0.336,0.28,0.336,0.532c0,0.644-0.42,1.288-0.701,1.456
			c-0.504-0.028-1.903-0.057-2.575-0.057c-1.261,0-9.24,0.141-10.472,0.225c-0.588,0.027-1.625,0.224-2.185,0.392
			c-0.868-0.448-1.819-1.176-2.437-1.82c-0.084-0.111-0.111-0.252-0.055-0.336l0.223-0.42c0.896,0.168,2.129,0.252,2.856,0.252
			c1.372,0.028,9.968-0.14,11.425-0.224L75.289,52.023z M74.365,58.184c0,2.155-2.268,3.584-5.348,3.584
			c-3.108,0-5.404-1.429-5.404-3.584c0-1.96,2.296-3.248,5.404-3.248C72.098,54.936,74.365,56.224,74.365,58.184z M64.649,49.056
			c2.772,0.42,5.655,0.531,7.616,0.504c0.308,0,0.447,0.084,0.56,0.279c0.224,0.393,0.14,1.372-0.14,1.652
			c-0.141,0.168-0.309,0.196-0.532,0.196c-1.456-0.028-3.976,0-5.433,0.084c-0.308,0.027-0.447,0.027-0.644-0.112
			c-0.56-0.392-1.204-1.147-1.651-1.848c-0.084-0.168-0.084-0.28-0.028-0.42L64.649,49.056z M70.781,58.184
			c0-0.896-0.672-1.456-1.764-1.456s-1.764,0.56-1.764,1.456c0,0.896,0.672,1.456,1.764,1.456S70.781,59.079,70.781,58.184z"/>
		<path d="M84.109,42.839c0-3.304,2.716-5.655,6.468-5.655c3.78,0,6.496,2.352,6.496,5.655c0,3.36-2.716,5.74-6.496,5.74
			C86.825,48.579,84.109,46.199,84.109,42.839z M105.165,56.951c0.392,0.588,0.84,1.484,1.008,2.016
			c0.14,0.448,0.14,0.757,0.028,0.98c-0.28,0.532-1.036,0.84-1.568,0.7c-0.279-0.057-0.588-0.336-0.84-0.616l-3.023-3.444
			c-1.484,1.82-3.557,3.528-6.076,4.956c-0.225,0.141-0.336,0.141-0.477,0.057l-0.728-0.561c-0.14-0.14-0.14-0.28,0.028-0.448
			c0.588-0.531,1.119-1.063,1.596-1.596c-0.196-0.084-0.364-0.252-0.532-0.42l-2.155-2.296c-1.513,1.764-3.641,3.388-6.217,4.704
			c-0.224,0.14-0.363,0.14-0.504,0.056l-0.699-0.588c-0.141-0.112-0.168-0.252,0.027-0.42c2.771-2.296,4.676-4.9,5.404-7.42
			c-0.196-0.364-0.7-0.812-1.232-1.092l0.532-0.98c0.084-0.14,0.252-0.195,0.504-0.168c1.231,0.168,3.164,0.756,3.892,1.176
			c0.309,0.168,0.477,0.42,0.477,0.673c0,0.363-0.057,0.588-0.141,0.783c-0.195,0.504-0.447,0.98-0.728,1.456l1.092,1.092
			l1.063,0.532c0.197,0.336,0.449,0.812,0.617,1.204c1.176-1.624,1.987-3.275,2.379-4.899c-0.168-0.393-0.699-0.925-1.231-1.232
			l0.532-0.979c0.084-0.169,0.252-0.225,0.504-0.169c1.26,0.253,3.136,0.896,3.892,1.372c0.308,0.196,0.476,0.42,0.476,0.673
			c0,0.336-0.055,0.588-0.111,0.783c-0.225,0.645-0.532,1.288-0.896,1.904l1.625,1.568L105.165,56.951z M87.889,42.839
			c0,1.792,1.092,2.885,2.688,2.885s2.688-1.093,2.688-2.885c0-1.764-1.092-2.911-2.688-2.911S87.889,41.075,87.889,42.839z
			 M106.312,41.468c0.841-0.028,2.045,0.027,2.576,0.14c0.393,0.084,0.645,0.364,0.672,0.728c0.057,0.7-0.111,1.429-0.336,1.708
			c-0.195,0.252-0.644,0.364-0.979,0.364l-4.2,0.14c-0.14,1.624-0.588,3.864-1.148,5.013h-2.239
			c-0.252-0.896-0.448-3.948-0.448-5.068v-7.252c-0.336-0.644-1.176-1.315-2.1-1.708l0.392-1.147
			c0.056-0.141,0.168-0.225,0.476-0.225c1.457,0.057,3.752,0.504,4.816,0.98c0.309,0.14,0.448,0.42,0.42,0.84l-0.111,1.764v4.424
			l1.315-0.084L106.312,41.468z"/>
		<path d="M133.361,45.107c0.84-0.028,2.043,0.028,2.576,0.14c0.392,0.084,0.644,0.364,0.672,0.729
			c0.056,0.7-0.112,1.428-0.336,1.708c-0.196,0.252-0.645,0.363-0.98,0.363l-4.116,0.141v5.292c0,1.96-0.476,5.824-1.288,7.868
			h-2.156c-0.252-0.952-0.447-5.376-0.447-6.721v-2.996c-3.36,1.12-7.448,1.96-10.248,2.24c-0.448,0.057-0.896,0.057-1.232,0.057
			c-1.568,0-2.66-0.868-3.08-2.213c-0.111-0.363-0.195-0.979-0.195-1.624V41.72c-0.364-0.477-1.036-0.952-1.793-1.232l0.253-1.008
			c0.056-0.112,0.14-0.196,0.336-0.196c1.176,0,3.836,0.141,4.983,0.336c1.037-0.027,3.473-0.168,4.284-0.252l0.896-0.616
			c0.841,0,2.156,0.057,2.828,0.196c0.336,0.084,0.533,0.308,0.533,0.645c0,0.84-0.225,1.455-0.477,1.735
			c-0.141,0.141-0.336,0.196-0.588,0.196l-7.364,0.308v8.288c0,0.393,0.168,0.588,0.56,0.561c2.885-0.028,7.057-0.448,10.305-1.261
			V37.268c-0.364-0.672-1.232-1.344-2.213-1.765l0.393-1.119c0.057-0.141,0.141-0.225,0.448-0.225
			c1.483,0.057,3.864,0.504,4.956,0.98c0.336,0.14,0.476,0.42,0.447,0.84l-0.14,1.82v8.008l1.288-0.084L133.361,45.107z"/>
		<path d="M138.793,56.167c0-1.372,1.148-2.548,2.576-2.548s2.576,1.176,2.576,2.548c0,1.4-1.148,2.521-2.576,2.521
			S138.793,57.567,138.793,56.167z"/>
		<path d="M162.201,52.052c-4.004,0-6.916-2.633-6.916-6.244c0-3.641,2.912-6.272,6.916-6.272c3.976,0,6.916,2.632,6.916,6.272
			C169.117,49.419,166.177,52.052,162.201,52.052z M162.201,42.56c-1.709,0-2.885,1.26-2.885,3.248c0,1.987,1.176,3.22,2.885,3.22
			c1.707,0,2.884-1.232,2.884-3.22C165.085,43.819,163.908,42.56,162.201,42.56z M173.009,61.348
			c-0.252-0.952-0.448-5.376-0.448-6.721V37.268c-0.363-0.672-1.232-1.344-2.212-1.765l0.392-1.119
			c0.057-0.141,0.141-0.225,0.449-0.225c1.483,0.057,3.863,0.504,4.955,0.98c0.336,0.14,0.477,0.42,0.448,0.84l-0.14,1.82v15.68
			c0,1.96-0.477,5.824-1.288,7.868H173.009z"/>
		<path d="M203.893,41.215c0.84-0.027,2.044,0.028,2.576,0.141c0.393,0.084,0.645,0.364,0.672,0.728
			c0.057,0.7-0.111,1.429-0.336,1.708c-0.195,0.252-0.645,0.364-0.98,0.364l-4.199,0.14c-0.141,1.456-0.616,3.36-1.12,4.284h-2.269
			c-0.168-0.476-0.308-1.567-0.363-2.604c-3.389,1.036-7.364,1.764-10.164,1.987c-0.42,0.028-0.868,0.057-1.204,0.057
			c-1.54,0-2.604-0.868-3.024-2.185c-0.111-0.336-0.195-0.979-0.195-1.624v-4.76c-0.42-0.392-1.148-0.84-1.849-1.12l0.224-0.952
			c0.029-0.14,0.197-0.279,0.477-0.279c1.288,0,3.557,0.168,4.536,0.392c0.364,0.084,0.56,0.364,0.56,0.756l-0.056,1.568v4.508
			c0,0.392,0.168,0.588,0.588,0.588c2.744,0,6.804-0.364,10.024-1.063v-6.608c-0.336-0.644-1.176-1.315-2.101-1.708l0.392-1.147
			c0.057-0.141,0.168-0.225,0.477-0.225c1.456,0.057,3.752,0.504,4.816,0.98c0.308,0.14,0.447,0.42,0.42,0.84l-0.112,1.764v4.172
			l1.315-0.084L203.893,41.215z M199.889,57.819c0.924-0.028,2.268,0.112,2.912,0.28c0.336,0.084,0.561,0.336,0.561,0.672
			c0,0.812-0.225,1.399-0.421,1.596c-0.112,0.14-0.364,0.196-0.588,0.196l-12.18,0.084c-1.96-0.028-2.716-0.812-2.716-2.353v-2.239
			c-0.364-0.42-0.952-0.757-1.625-1.009l0.141-0.812c0.028-0.112,0.141-0.196,0.336-0.196c1.204,0,4.032,0.057,5.096,0.168
			c1.457,0,4.564-0.027,5.601-0.084l0.616-0.14c0.056-0.448,0.056-1.456,0.027-1.82c-1.764,0-5.32,0.028-6.188,0.084
			c-0.7,0.028-1.876,0.196-2.66,0.393c-0.98-0.532-1.96-1.316-2.688-2.044c-0.141-0.141-0.141-0.225-0.084-0.393l0.252-0.448
			c0.896,0.168,2.379,0.28,3.107,0.28c1.344,0,7.532-0.056,8.932-0.112l1.205-0.504c0.168-0.084,0.363-0.084,0.588,0
			c0.476,0.168,1.455,0.561,1.848,0.757c0.14,0.111,0.168,0.308,0.084,0.531l-0.504,1.12c-0.057,0.645-0.364,1.736-0.588,2.24
			l0.504,0.252c0.195,0.112,0.308,0.252,0.308,0.42c0,0.616-0.224,1.204-0.42,1.456l-9.996,0.112v1.428
			c0,0.42,0.168,0.588,0.532,0.588c1.764,0.028,5.432,0,7.084-0.056L199.889,57.819z"/>
		<path d="M229.877,48.215c0,7.309-3.444,10.5-7.309,10.5c-3.892,0-7.279-3.191-7.279-10.5c0-7.336,3.388-10.527,7.279-10.527
			C226.433,37.688,229.877,40.879,229.877,48.215z M222.568,57.735c1.652,0,3.08-2.044,3.08-9.521c0-7.531-1.428-9.575-3.08-9.575
			s-3.023,2.016-3.023,9.575C219.545,55.72,220.916,57.735,222.568,57.735z"/>
		<path d="M246.9,48.215c0,7.309-3.444,10.5-7.309,10.5c-3.892,0-7.279-3.191-7.279-10.5c0-7.336,3.388-10.527,7.279-10.527
			C243.456,37.688,246.9,40.879,246.9,48.215z M239.592,57.735c1.652,0,3.08-2.044,3.08-9.521c0-7.531-1.428-9.575-3.08-9.575
			s-3.023,2.016-3.023,9.575C236.568,55.72,237.939,57.735,239.592,57.735z"/>
		<path d="M270.476,46.955c1.231,0.057,3.024,0.336,3.78,0.616c0.308,0.112,0.504,0.364,0.504,0.728
			c0,0.812-0.532,1.568-0.952,1.765c-0.7-0.084-2.772-0.141-3.724-0.141c-1.933,0-12.853,0.112-14.617,0.225
			c-0.756,0.056-2.575,0.364-3.387,0.588c-1.177-0.476-2.492-1.428-3.332-2.268c-0.112-0.112-0.141-0.309-0.084-0.448l0.279-0.532
			c1.176,0.196,2.717,0.308,3.836,0.336c1.904,0.028,14.364-0.112,16.38-0.28L270.476,46.955z M253.983,38.64
			c-0.392-0.393-1.092-0.812-1.792-1.093l0.252-0.951c0.028-0.141,0.196-0.28,0.477-0.28c1.287,0,3.556,0.168,4.535,0.392
			c0.393,0.084,0.561,0.364,0.561,0.784l-0.057,1.624v3.22c0,0.477,0.196,0.7,0.672,0.7c1.82,0.028,5.572-0.027,7.336-0.112
			l1.205-0.644c0.951,0,2.352,0.112,3.023,0.28c0.336,0.084,0.561,0.336,0.561,0.672c0,0.896-0.28,1.54-0.504,1.736
			c-0.141,0.14-0.365,0.195-0.588,0.195l-12.601,0.141c-2.071-0.028-3.08-1.064-3.08-2.856V38.64z M267.256,57.175
			c1.008,0,2.492,0.112,3.191,0.28c0.364,0.084,0.588,0.364,0.588,0.7c0,0.924-0.308,1.624-0.531,1.848
			c-0.141,0.141-0.393,0.196-0.645,0.196l-12.544,0.112h-0.056c-1.961-0.057-2.772-0.98-2.772-2.744v-2.772
			c-0.448-0.392-1.204-0.84-1.932-1.092l0.252-0.952c0.028-0.14,0.168-0.279,0.448-0.279c1.315,0,3.611,0.168,4.619,0.363
			c0.336,0.112,0.532,0.364,0.532,0.784l-0.056,1.596v2.044c0,0.477,0.195,0.7,0.672,0.7c1.82,0.028,5.236-0.027,6.973-0.084
			L267.256,57.175z"/>
		<path d="M288.088,35.503c-1.597,0.784-2.633,1.736-3.276,3.164l1.651,1.148c1.037,0.728,1.26,1.399,1.26,2.184
			c0,1.232-1.035,2.128-2.155,2.128c-0.84,0-1.399-0.392-1.849-0.699c-0.476-0.784-0.728-1.708-0.728-2.604
			c0-2.632,1.933-5.012,4.788-6.02L288.088,35.503z M292.875,39.815c1.036,0.728,1.26,1.399,1.26,2.184
			c0,1.232-1.035,2.128-2.184,2.128c-0.812,0-1.372-0.392-1.82-0.699c-0.476-0.784-0.728-1.708-0.728-2.604
			c0-2.632,1.933-5.012,4.788-6.02l0.309,0.699c-1.597,0.784-2.633,1.736-3.277,3.164L292.875,39.815z"/>
		<path d="M309.256,51.688c0.027,0.14-0.057,0.308-0.253,0.448c-1.428,0.84-4.06,1.819-5.88,2.071
			c-0.477,0.057-1.008,0.112-1.344,0.112c-1.876,0-2.66-0.588-3.137-2.1c-0.055-0.168-0.111-0.841-0.111-1.54v-8.4
			c-0.364-0.448-0.98-0.868-1.68-1.148l0.252-1.008c0.056-0.111,0.14-0.195,0.336-0.195c1.148,0,3.836,0.111,4.9,0.252
			c0.531-0.028,1.764-0.084,2.155-0.141l0.812-0.56c0.729-0.028,1.933,0.056,2.521,0.14c0.336,0.084,0.504,0.309,0.504,0.616
			c0,0.84-0.252,1.512-0.532,1.792c-0.14,0.112-0.308,0.168-0.56,0.168l-4.929,0.196v8.315c0,0.336,0.141,0.477,0.504,0.477
			c1.652-0.028,4.369-0.28,5.769-0.616c0.252-0.056,0.392,0,0.448,0.196L309.256,51.688z M309.283,36.287
			c0.057-0.14,0.168-0.224,0.504-0.224c1.26,0.056,3.275,0.504,4.2,0.952c0.28,0.14,0.392,0.392,0.392,0.784l-0.111,1.512v13.384
			c0,1.792-0.448,5.208-1.148,7h-1.932c-0.252-1.064-0.448-4.732-0.448-5.992v-6.691c-0.672,0.027-1.513,0.056-1.849,0.084
			c-0.504,0.027-1.315,0.195-1.819,0.363c-0.784-0.504-1.429-1.036-1.96-1.68c-0.084-0.14-0.112-0.252-0.057-0.392l0.28-0.477
			c0.616,0.057,1.513,0.084,2.212,0.084c0.756,0,2.213-0.027,3.192-0.084v-6.048c-0.308-0.56-1.063-1.12-1.876-1.484L309.283,36.287
			z M314.323,34.384c0.084-0.141,0.196-0.225,0.504-0.225c1.344,0.057,3.528,0.504,4.536,0.98c0.308,0.14,0.447,0.392,0.42,0.812
			l-0.112,1.652v16.044c0,1.932-0.476,5.684-1.26,7.7h-2.044c-0.252-0.98-0.448-5.265-0.448-6.608V37.1
			c-0.308-0.588-1.12-1.204-1.987-1.597L314.323,34.384z"/>
		<path d="M340.055,34.384c0.057-0.141,0.141-0.225,0.448-0.225c1.483,0.057,3.864,0.504,4.956,0.98
			c0.336,0.14,0.477,0.42,0.447,0.84l-0.139,1.82v15.68c0,1.96-0.477,5.824-1.289,7.868h-2.156
			c-0.252-0.952-0.447-5.376-0.447-6.721V50.68c-1.848,0.42-4.424,0.84-6.943,1.176v1.456c0,1.848-0.617,5.571-1.261,7.168h-2.128
			c-0.195-1.092-0.447-4.732-0.447-6.021v-2.184c-0.589,0.056-1.121,0.112-1.625,0.14c-0.699,0.057-1.988,0.336-2.66,0.588
			c-1.119-0.56-2.492-1.567-3.388-2.464c-0.14-0.14-0.168-0.224-0.084-0.392l0.252-0.561c1.177,0.196,2.688,0.252,3.864,0.225
			c4.031-0.057,11.312-0.616,14.42-1.26V37.268c-0.364-0.672-1.232-1.344-2.212-1.765L340.055,34.384z M326.391,39.424
			c-0.224-0.364-0.896-0.868-1.428-1.064l0.252-0.952c0.028-0.112,0.141-0.196,0.504-0.196c1.064-0.027,3.305,0.196,4.172,0.42
			c0.28,0.085,0.393,0.309,0.364,0.673l-0.056,1.372v0.644l5.292-0.056v-1.96c-0.224-0.393-0.841-0.868-1.4-1.12l0.336-0.924
			c0.085-0.168,0.196-0.252,0.532-0.225c1.092,0.057,3.221,0.393,4.032,0.672c0.308,0.112,0.392,0.336,0.364,0.672l-0.084,1.484
			l-0.028,3.164c0,0.924-0.196,2.072-0.392,2.716l0.56,0.225c0.168,0.084,0.252,0.224,0.252,0.392c0,0.644-0.196,1.288-0.42,1.512
			c-2.156-0.027-6.804,0.028-9.324,0.084c-0.196,0.588-0.532,0.98-0.84,1.176h-2.044c-0.309-0.644-0.477-1.567-0.477-2.155
			L326.391,39.424z M330.171,42.56l-0.028,2.1l5.349-0.056v-2.101L330.171,42.56z"/>
		<path d="M368.475,46.451c-2.184,2.212-4.844,4.172-7.756,5.628c-0.225,0.112-0.42,0.141-0.532,0.057l-0.56-0.561
			c-0.141-0.14-0.168-0.252-0.028-0.448c4.06-3.052,7.196-7.252,8.849-10.947c-1.177,0-2.604,0.027-3.08,0.056
			c-0.589,0.028-1.652,0.224-2.269,0.448c-0.952-0.504-1.933-1.288-2.604-1.988c-0.14-0.168-0.168-0.28-0.084-0.42l0.252-0.42
			c0.924,0.14,2.101,0.196,2.94,0.196c1.008,0,4.704-0.057,6.048-0.112l1.288-0.532c0.224-0.084,0.504-0.084,0.728,0
			c0.588,0.224,1.709,0.729,2.129,0.952c0.168,0.112,0.195,0.336,0.084,0.532l-0.729,1.147c-0.783,1.597-1.82,3.192-3.08,4.676
			l2.324,2.129l1.316,0.392c0.504,0.644,1.147,1.708,1.399,2.296c0.196,0.504,0.224,0.868,0.112,1.12
			c-0.28,0.56-1.148,0.896-1.736,0.7c-0.279-0.112-0.615-0.393-0.84-0.645L368.475,46.451z M379.479,57.483
			c1.008-0.028,2.464,0.084,3.164,0.252c0.363,0.084,0.588,0.336,0.588,0.672c0,0.924-0.309,1.596-0.532,1.82
			c-0.14,0.14-0.392,0.195-0.644,0.195l-11.9,0.112c-2.268-0.028-3.164-0.952-3.164-2.716v-3.276
			c-0.447-0.42-1.203-0.868-1.932-1.147l0.225-0.952c0.027-0.14,0.195-0.28,0.476-0.28c1.315,0,3.668,0.168,4.676,0.393
			c0.364,0.084,0.56,0.336,0.56,0.756l-0.056,1.596v2.632c0,0.477,0.196,0.7,0.672,0.7c1.624,0.028,4.956-0.028,6.636-0.084
			L379.479,57.483z M372.703,43.008c0.644,0.111,1.567,0.14,2.295,0.14c0.588,0.028,1.681,0,2.633-0.028v-5.88
			c-0.336-0.644-1.176-1.315-2.101-1.708l0.392-1.147c0.057-0.141,0.168-0.225,0.477-0.225c1.456,0.057,3.752,0.504,4.816,0.98
			c0.308,0.14,0.447,0.42,0.42,0.84l-0.112,1.764v9.072c0,2.268-0.476,5.6-1.26,7.392h-2.185c-0.279-1.036-0.447-4.844-0.447-6.3
			v-2.66c-0.616,0.028-1.176,0.057-1.457,0.112c-0.447,0.028-1.231,0.252-1.68,0.448c-0.783-0.561-1.483-1.261-2.043-1.933
			c-0.113-0.14-0.141-0.279-0.057-0.42L372.703,43.008z"/>
		<path d="M407.842,48.215c0,7.309-3.443,10.5-7.308,10.5c-3.892,0-7.28-3.191-7.28-10.5c0-7.336,3.389-10.527,7.28-10.527
			C404.398,37.688,407.842,40.879,407.842,48.215z M400.534,57.735c1.652,0,3.08-2.044,3.08-9.521c0-7.531-1.428-9.575-3.08-9.575
			c-1.651,0-3.024,2.016-3.024,9.575C397.51,55.72,398.883,57.735,400.534,57.735z"/>
		<path d="M424.865,48.215c0,7.309-3.443,10.5-7.308,10.5c-3.892,0-7.28-3.191-7.28-10.5c0-7.336,3.389-10.527,7.28-10.527
			C421.422,37.688,424.865,40.879,424.865,48.215z M417.558,57.735c1.652,0,3.08-2.044,3.08-9.521c0-7.531-1.428-9.575-3.08-9.575
			c-1.651,0-3.024,2.016-3.024,9.575C414.533,55.72,415.906,57.735,417.558,57.735z"/>
		<path d="M444.829,57.371v0.868h-6.104l-3.975-8.232l-1.261,1.148v0.196c0,1.651,0.028,4.228,0.056,5.852l1.764,0.168v0.868h-8.26
			v-0.868l1.877-0.168c0.027-1.624,0.056-4.172,0.056-5.628V37.239l-2.044-0.196v-0.728l6.271-1.204l0.393,0.252l-0.112,4.508
			v10.108l6.048-5.853l-2.828-0.336v-0.84h7.309v0.84l-2.744,0.28l-3.36,3.08l5.097,9.996L444.829,57.371z"/>
		<path d="M461.602,44.968l-3.389-0.364c0.645,0.84,0.952,1.876,0.952,3.052c0,2.94-2.101,5.264-6.468,5.264
			c-1.344,0-2.492-0.224-3.416-0.615c-0.309,0.504-0.477,0.979-0.477,1.596c0,1.036,0.645,1.567,2.213,1.567h4.115
			c4.508,0,6.16,1.736,6.16,4.257c0,3.136-3.107,5.768-8.988,5.768c-5.096,0-6.748-1.764-6.748-3.808
			c0-1.232,0.924-2.324,2.801-3.053c-1.232-0.56-2.045-1.287-2.045-2.688s0.729-2.437,2.408-3.92
			c-1.707-0.924-2.52-2.521-2.52-4.368c0-2.996,2.1-5.18,6.523-5.18c2.156,0,3.725,0.532,4.789,1.428l3.584-1.428l0.504,0.308
			V44.968z M452.221,59.22c-1.652,0-2.436-0.057-3.332-0.309c-0.476,0.616-0.699,1.232-0.699,2.156c0,2.044,1.539,3.191,4.088,3.191
			c3.695,0,5.488-1.147,5.488-2.771c0-1.204-0.645-2.268-2.437-2.268H452.221z M455.189,47.655c0-2.744-0.924-4.34-2.465-4.34
			c-1.567,0-2.463,1.624-2.463,4.34s0.812,4.396,2.436,4.396C454.293,52.052,455.189,50.371,455.189,47.655z"/>
		<path d="M476.273,38.751c0.168-0.084,0.476-0.084,0.615,0c0.448,0.225,1.26,0.784,1.54,1.009c0.168,0.14,0.168,0.308,0.084,0.504
			l-0.42,1.036c-0.616,4.928-4.004,10.863-8.567,14.476c-0.168,0.168-0.336,0.196-0.477,0.14l-0.615-0.42
			c-0.168-0.112-0.197-0.224-0.113-0.448c3.193-3.863,5.32-9.407,5.881-13.72c-0.225,0-0.42,0.028-0.532,0.028
			c-0.42,0.028-1.204,0.168-1.624,0.308c-0.141-0.084-0.279-0.195-0.447-0.308c-0.757,4.284-3.893,9.408-7.925,12.46
			c-0.168,0.168-0.364,0.196-0.476,0.14l-0.532-0.392c-0.168-0.112-0.196-0.225-0.112-0.448c2.856-3.276,4.788-8.12,5.348-11.844
			c-0.447,0.028-0.896,0.028-1.063,0.056c-0.42,0.028-1.231,0.168-1.624,0.309c-0.672-0.421-1.344-1.064-1.792-1.568
			c-0.14-0.168-0.14-0.28-0.084-0.392l0.252-0.448c0.588,0.084,1.345,0.14,1.904,0.14c0.616,0,2.548-0.028,3.276-0.084l1.035-0.588
			c0.141-0.084,0.448-0.084,0.616,0c0.28,0.14,0.728,0.42,1.093,0.644c0.307,0.028,0.588,0.028,0.812,0.028
			c0.56,0,2.044-0.028,2.688-0.056L476.273,38.751z M485.82,45.415c0.841-0.027,2.045,0.028,2.576,0.141
			c0.393,0.084,0.645,0.363,0.672,0.728c0.057,0.7-0.111,1.428-0.336,1.708c-0.195,0.252-0.644,0.364-0.979,0.364l-3.948,0.14v5.04
			c0,1.932-0.476,5.769-1.26,7.812h-2.128c-0.252-0.98-0.448-5.349-0.448-6.692V37.184c-0.336-0.645-1.148-1.26-2.044-1.652
			l0.42-1.147c0.056-0.141,0.168-0.225,0.476-0.225c1.4,0.057,3.668,0.504,4.677,0.98c0.336,0.14,0.476,0.42,0.448,0.84
			l-0.141,1.708v8.399l1.12-0.056L485.82,45.415z"/>
		<path d="M505.365,49.251c0.476,0.729,1.092,1.933,1.344,2.576c0.224,0.588,0.252,0.98,0.111,1.26
			c-0.279,0.561-1.119,0.841-1.68,0.616c-0.279-0.112-0.645-0.42-0.896-0.7l-4.172-4.535c-2.239,2.464-5.012,4.676-8.063,6.355
			c-0.224,0.14-0.392,0.14-0.504,0.056l-0.644-0.56c-0.141-0.14-0.168-0.28,0-0.476c4.283-3.5,7.588-8.232,9.155-12.349
			c-1.315,0-2.94,0.028-3.5,0.057c-0.588,0.027-1.651,0.224-2.239,0.447c-0.953-0.476-1.933-1.231-2.604-1.932
			c-0.14-0.14-0.168-0.28-0.084-0.42l0.252-0.42c0.924,0.14,2.101,0.196,2.912,0.196c1.092,0,5.264-0.057,6.524-0.112l1.315-0.532
			c0.196-0.084,0.504-0.084,0.7,0c0.588,0.224,1.736,0.729,2.156,0.98c0.195,0.111,0.195,0.336,0.056,0.504l-0.7,1.092
			c-0.756,1.764-1.82,3.528-3.107,5.208l2.268,2.184L505.365,49.251z M506.765,34.384c0.056-0.141,0.14-0.225,0.448-0.225
			c1.484,0.057,3.863,0.504,4.956,0.98c0.336,0.14,0.476,0.42,0.448,0.84l-0.141,1.82v15.68c0,1.96-0.476,5.824-1.287,7.868h-2.156
			c-0.252-0.952-0.448-5.376-0.448-6.721V37.268c-0.364-0.672-1.232-1.344-2.212-1.765L506.765,34.384z"/>
		<path d="M533.365,51.239c0.195,0.14,0.252,0.252,0.252,0.476c0,0.645-0.225,1.177-0.477,1.429c-0.98,0-2.8,0.027-3.976,0.056
			c-0.168,0.448-0.392,0.756-0.589,0.952h-1.428c-0.224-0.588-0.336-1.512-0.336-2.072l-0.084-8.987
			c-0.14-0.253-0.447-0.532-0.812-0.7l0.364-1.008c0.056-0.141,0.168-0.225,0.447-0.196c0.84,0.084,1.904,0.308,2.549,0.56
			c0.224,0.112,0.279,0.252,0.279,0.561l-0.056,0.952l-0.028,1.792l1.12-0.028v-2.94c-0.14-0.279-0.42-0.531-0.784-0.699
			l0.364-0.952c0.084-0.141,0.196-0.225,0.476-0.196c0.868,0.084,1.904,0.336,2.549,0.616c0.224,0.111,0.279,0.279,0.252,0.56
			l-0.028,1.036l-0.084,5.824c0,0.896-0.168,2.072-0.392,2.744L533.365,51.239z M529.473,47.375l-0.056,3.528l1.176-0.028v-3.527
			L529.473,47.375z M540.896,50.791c0.196,0.141,0.28,0.252,0.28,0.504c0,0.645-0.224,1.148-0.476,1.429
			c-0.952,0-2.717,0.027-3.92,0.056c-0.168,0.42-0.393,0.756-0.588,0.952h-1.429c-0.224-0.616-0.336-1.54-0.336-2.101l-0.112-10.527
			c-0.14-0.252-0.42-0.532-0.783-0.7l0.363-1.008c0.057-0.141,0.168-0.225,0.448-0.196c0.841,0.056,1.904,0.28,2.548,0.504
			c0.252,0.112,0.309,0.252,0.28,0.561l-0.056,1.008l-0.028,3.08l1.036-0.028v-4.228c-0.112-0.28-0.393-0.532-0.756-0.7l0.363-0.952
			c0.084-0.14,0.196-0.224,0.477-0.196c0.867,0.084,1.904,0.336,2.548,0.616c0.252,0.112,0.308,0.252,0.28,0.561l-0.057,1.119
			l-0.084,7.309c0,0.896-0.168,2.071-0.363,2.744L540.896,50.791z M537.061,46.676l-0.027,3.808l1.092-0.028v-3.808L537.061,46.676z
			 M544.761,34.384c0.056-0.141,0.196-0.252,0.504-0.225c1.147,0.057,3.024,0.477,3.864,0.896c0.279,0.14,0.393,0.363,0.363,0.728
			l-0.084,1.428v16.912c0,1.849-0.392,5.32-1.092,7.225h-1.707c-0.252-1.177-0.449-4.9-0.449-6.217v-7.588l-1.008,0.028v5.628
			c0,1.736-0.392,4.872-1.008,6.58h-1.652c-0.224-1.12-0.42-4.424-0.42-5.656V38.556c-0.252-0.477-0.867-0.952-1.539-1.204
			l0.392-1.036c0.056-0.14,0.224-0.252,0.532-0.224c1.035,0.056,2.688,0.476,3.443,0.867c0.225,0.141,0.336,0.364,0.336,0.7
			l-0.084,1.232v6.3l1.008-0.028v-8.372c-0.308-0.531-1.008-1.063-1.791-1.372L544.761,34.384z"/>
		<path d="M568.141,49.251c0.477,0.729,1.092,1.933,1.344,2.576c0.225,0.588,0.252,0.98,0.112,1.26
			c-0.28,0.561-1.12,0.841-1.681,0.616c-0.279-0.112-0.644-0.42-0.896-0.7l-4.172-4.535c-2.239,2.464-5.012,4.676-8.063,6.355
			c-0.225,0.14-0.393,0.14-0.504,0.056l-0.645-0.56c-0.141-0.14-0.168-0.28,0-0.476c4.284-3.5,7.588-8.232,9.156-12.349
			c-1.316,0-2.94,0.028-3.5,0.057c-0.588,0.027-1.652,0.224-2.24,0.447c-0.952-0.476-1.932-1.231-2.604-1.932
			c-0.141-0.14-0.168-0.28-0.084-0.42l0.252-0.42c0.924,0.14,2.1,0.196,2.912,0.196c1.092,0,5.264-0.057,6.523-0.112l1.316-0.532
			c0.195-0.084,0.504-0.084,0.699,0c0.588,0.224,1.736,0.729,2.156,0.98c0.196,0.111,0.196,0.336,0.057,0.504l-0.701,1.092
			c-0.756,1.764-1.819,3.528-3.107,5.208l2.268,2.184L568.141,49.251z M569.541,34.384c0.056-0.141,0.14-0.225,0.447-0.225
			c1.484,0.057,3.864,0.504,4.957,0.98c0.336,0.14,0.475,0.42,0.447,0.84l-0.141,1.82v15.68c0,1.96-0.475,5.824-1.287,7.868h-2.156
			c-0.252-0.952-0.447-5.376-0.447-6.721V37.268c-0.365-0.672-1.232-1.344-2.213-1.765L569.541,34.384z"/>
		<path d="M9.434,81.984c-3.809,0-6.523-2.324-6.523-5.629c0-3.247,2.715-5.544,6.523-5.544s6.552,2.297,6.552,5.544
			C15.985,79.66,13.242,81.984,9.434,81.984z M9.882,91.056c0,0.225,0.084,0.336,0.336,0.336c1.288-0.027,3.108-0.279,4.34-0.616
			c0.364-1.623,2.185-2.827,4.76-2.827c2.856,0,4.761,1.512,4.761,3.388c0,2.044-1.904,3.668-4.761,3.668
			c-2.323,0-4.004-1.036-4.592-2.521c-1.315,0.616-3.304,1.288-4.788,1.681c-0.363,0.14-1.092,0.252-1.26,0.252
			c-1.316,0-2.156-0.924-2.38-2.185c-0.028-0.168-0.056-0.588-0.056-1.035v-4.341c-0.365-0.42-1.009-0.84-1.709-1.119l0.225-0.952
			c0.056-0.168,0.195-0.28,0.476-0.28c1.177,0,3.276,0.168,4.173,0.364c0.363,0.111,0.531,0.363,0.531,0.756l-0.056,1.483V91.056z
			 M9.434,79.128c1.652,0,2.744-1.064,2.744-2.772s-1.092-2.8-2.744-2.8s-2.744,1.092-2.744,2.8S7.781,79.128,9.434,79.128z
			 M23.686,85.176c0.756,0.028,1.904,0.224,2.408,0.393c0.195,0.056,0.336,0.279,0.336,0.504c0,0.644-0.42,1.26-0.7,1.428
			c-0.476-0.056-1.708-0.084-2.323-0.084c-0.953,0-6.301,0.084-7.197,0.14c-0.56,0.057-1.539,0.196-2.016,0.364
			c-0.84-0.42-1.68-1.12-2.24-1.708c-0.084-0.112-0.111-0.252-0.056-0.336l0.224-0.42c0.812,0.14,1.904,0.252,2.576,0.252
			c1.092,0,7.028-0.084,8.092-0.168L23.686,85.176z M15.342,81.984c2.324,0.363,4.619,0.447,6.244,0.447
			c0.336,0,0.504,0.057,0.644,0.309c0.28,0.476,0.168,1.54-0.168,1.848c-0.168,0.14-0.336,0.168-0.588,0.168
			c-1.063-0.028-2.94,0.028-4.088,0.112c-0.336,0.027-0.476,0.027-0.673-0.112c-0.56-0.42-1.203-1.204-1.596-1.876
			c-0.111-0.196-0.14-0.364-0.056-0.504L15.342,81.984z M25.17,74.928c0.84-0.027,2.043,0.028,2.576,0.141
			c0.392,0.084,0.644,0.363,0.672,0.728c0.056,0.7-0.112,1.428-0.336,1.708c-0.196,0.252-0.645,0.364-0.98,0.364l-4.368,0.14
			c-0.224,1.204-0.588,2.548-0.979,3.22h-2.269c-0.28-0.812-0.448-3.164-0.448-4.115V70.84c-0.336-0.644-1.176-1.315-2.1-1.708
			l0.393-1.147c0.056-0.141,0.168-0.225,0.476-0.225c1.456,0.057,3.752,0.504,4.815,0.98c0.309,0.14,0.448,0.42,0.42,0.84
			l-0.111,1.764v4.284l1.344-0.084L25.17,74.928z M20.746,91.336c0-0.729-0.477-1.26-1.429-1.26s-1.428,0.531-1.428,1.26
			c0,0.7,0.476,1.231,1.428,1.231S20.746,92.036,20.746,91.336z"/>
		<path d="M50.789,87.191c1.232,0.057,3.024,0.337,3.78,0.616c0.308,0.112,0.504,0.364,0.504,0.729c0,0.812-0.532,1.567-0.952,1.764
			c-0.699-0.084-2.771-0.14-3.724-0.14c-1.933,0-12.853,0.111-14.616,0.224c-0.756,0.056-2.576,0.364-3.388,0.588
			c-1.177-0.476-2.492-1.428-3.332-2.268c-0.112-0.112-0.14-0.309-0.084-0.448l0.28-0.532c1.176,0.196,2.716,0.309,3.836,0.336
			c1.904,0.028,14.363-0.111,16.38-0.279L50.789,87.191z M41.998,83.916c-4.396,0-7.812-2.716-7.812-6.44
			c0-3.724,3.416-6.439,7.812-6.439c4.396,0,7.783,2.716,7.783,6.439C49.781,81.2,46.394,83.916,41.998,83.916z M41.998,73.696
			c-2.129,0-3.781,1.456-3.781,3.779c0,2.324,1.652,3.752,3.781,3.752c2.127,0,3.779-1.428,3.779-3.752
			C45.777,75.152,44.125,73.696,41.998,73.696z"/>
		<path d="M62.381,83.328c-0.14,0.476-0.392,0.84-0.699,1.231h-2.129c-0.279-0.644-0.447-1.54-0.504-2.323l-0.588-8.484
			c-0.308-0.392-0.896-0.812-1.512-1.064l0.252-1.008c0.057-0.111,0.168-0.195,0.393-0.195c1.287,0,3.527,0.168,4.844,0.392
			c1.119,0.028,3.611,0,4.76-0.084l1.372-0.645c0.196-0.084,0.448-0.084,0.644,0c0.532,0.225,1.596,0.729,2.045,1.009
			c0.111,0.084,0.14,0.224,0.056,0.476l-0.28,1.008c0.252,0.028,0.532,0.028,0.812,0.028c0.728,0,2.072-0.028,3.191-0.084V70.84
			c-0.336-0.644-1.176-1.315-2.1-1.708l0.392-1.147c0.056-0.141,0.168-0.225,0.476-0.225c1.457,0.057,3.752,0.504,4.816,0.98
			c0.309,0.14,0.448,0.42,0.42,0.84l-0.111,1.764v9.072c0,2.268-0.477,5.6-1.26,7.392h-2.185c-0.28-1.036-0.448-4.844-0.448-6.3
			v-1.092c-0.812,0-1.652,0.056-2.072,0.084s-1.092,0.14-1.567,0.28c-0.364-0.252-0.7-0.561-1.009-0.841l-0.14,0.925l0.308,0.168
			c0.197,0.111,0.309,0.279,0.309,0.504c0,0.812-0.225,1.456-0.477,1.735L62.381,83.328z M66.945,74.172
			c-1.372,0-3.107,0.028-4.48,0.056l0.057,6.721c1.176,0.027,2.855,0.027,3.863-0.028l0.533-0.14L66.945,74.172z M76.941,91.028
			c1.008-0.028,2.464,0.084,3.164,0.252c0.363,0.084,0.588,0.336,0.588,0.672c0,0.924-0.28,1.596-0.532,1.819
			c-0.14,0.141-0.364,0.196-0.616,0.196L67.674,94.08c-2.269-0.028-3.164-0.952-3.164-2.716v-2.969
			c-0.448-0.42-1.205-0.867-1.933-1.147l0.224-0.952c0.028-0.14,0.196-0.28,0.477-0.28c1.316,0,3.668,0.168,4.676,0.393
			c0.364,0.084,0.561,0.336,0.561,0.756l-0.057,1.596v2.324c0,0.476,0.196,0.7,0.672,0.7c1.596,0.027,4.928-0.028,6.58-0.084
			L76.941,91.028z M75.037,75.684c-0.84,0-1.68,0.057-2.1,0.084c-0.42,0.028-1.092,0.141-1.568,0.28
			c-0.195-0.14-0.393-0.28-0.561-0.448c-0.055,0.896-0.139,1.82-0.252,2.744c0.449,0.028,0.896,0.057,1.316,0.057
			c0.729,0,2.072-0.028,3.164-0.085V75.684z"/>
		<path d="M105.166,85.288c0.027,0.14-0.057,0.308-0.253,0.448c-1.428,0.84-4.06,1.819-5.88,2.071
			c-0.477,0.057-1.008,0.112-1.344,0.112c-1.876,0-2.66-0.588-3.137-2.1c-0.055-0.168-0.111-0.841-0.111-1.54v-8.4
			c-0.364-0.448-0.98-0.868-1.68-1.148l0.252-1.008c0.056-0.111,0.14-0.195,0.336-0.195c1.148,0,3.836,0.111,4.9,0.252
			c0.531-0.028,1.764-0.084,2.155-0.141l0.812-0.56c0.729-0.028,1.933,0.056,2.521,0.14c0.336,0.084,0.504,0.309,0.504,0.616
			c0,0.84-0.252,1.512-0.532,1.792c-0.14,0.112-0.308,0.168-0.56,0.168l-4.929,0.196v8.315c0,0.336,0.141,0.477,0.504,0.477
			c1.652-0.028,4.369-0.28,5.769-0.616c0.252-0.056,0.392,0,0.448,0.196L105.166,85.288z M105.193,69.888
			c0.057-0.14,0.168-0.224,0.504-0.224c1.26,0.056,3.275,0.504,4.2,0.952c0.28,0.14,0.392,0.392,0.392,0.784l-0.111,1.512v13.384
			c0,1.792-0.448,5.208-1.148,7h-1.932c-0.252-1.064-0.448-4.732-0.448-5.992v-6.691c-0.672,0.027-1.513,0.056-1.849,0.084
			c-0.504,0.027-1.315,0.195-1.819,0.363c-0.784-0.504-1.429-1.036-1.96-1.68c-0.084-0.14-0.112-0.252-0.057-0.392l0.28-0.477
			c0.616,0.057,1.513,0.084,2.212,0.084c0.756,0,2.213-0.027,3.192-0.084v-6.048c-0.308-0.56-1.063-1.12-1.876-1.484L105.193,69.888
			z M110.233,67.984c0.084-0.141,0.196-0.225,0.504-0.225c1.344,0.057,3.528,0.504,4.536,0.98c0.308,0.14,0.447,0.392,0.42,0.812
			l-0.112,1.652v16.044c0,1.932-0.476,5.684-1.26,7.7h-2.044c-0.252-0.98-0.448-5.265-0.448-6.608V70.7
			c-0.308-0.588-1.12-1.204-1.987-1.597L110.233,67.984z"/>
		<path d="M135.965,67.984c0.057-0.141,0.141-0.225,0.448-0.225c1.483,0.057,3.864,0.504,4.956,0.98
			c0.336,0.14,0.477,0.42,0.447,0.84l-0.139,1.82v15.68c0,1.96-0.477,5.824-1.289,7.868h-2.156
			c-0.252-0.952-0.447-5.376-0.447-6.721V84.28c-1.848,0.42-4.424,0.84-6.943,1.176v1.456c0,1.848-0.617,5.571-1.261,7.168h-2.128
			c-0.195-1.092-0.447-4.732-0.447-6.021v-2.184c-0.589,0.056-1.121,0.112-1.625,0.14c-0.699,0.057-1.988,0.336-2.66,0.588
			c-1.119-0.56-2.492-1.567-3.388-2.464c-0.14-0.14-0.168-0.224-0.084-0.392l0.252-0.561c1.177,0.196,2.688,0.252,3.864,0.225
			c4.031-0.057,11.312-0.616,14.42-1.26V70.868c-0.364-0.672-1.232-1.344-2.212-1.765L135.965,67.984z M122.301,73.023
			c-0.224-0.363-0.896-0.867-1.428-1.063l0.252-0.952c0.028-0.112,0.141-0.196,0.504-0.196c1.064-0.027,3.305,0.196,4.172,0.421
			c0.28,0.084,0.393,0.308,0.364,0.672l-0.056,1.372v0.644l5.292-0.056v-1.96c-0.224-0.393-0.841-0.868-1.4-1.12l0.336-0.924
			c0.085-0.168,0.196-0.252,0.532-0.225c1.092,0.057,3.221,0.393,4.032,0.672c0.308,0.112,0.392,0.336,0.364,0.672l-0.084,1.484
			l-0.028,3.164c0,0.924-0.196,2.072-0.392,2.716l0.56,0.225c0.168,0.084,0.252,0.224,0.252,0.392c0,0.644-0.196,1.288-0.42,1.512
			c-2.156-0.027-6.804,0.028-9.324,0.084c-0.196,0.588-0.532,0.98-0.84,1.176h-2.044c-0.309-0.644-0.477-1.567-0.477-2.155
			L122.301,73.023z M126.081,76.16l-0.028,2.1l5.349-0.056v-2.101L126.081,76.16z"/>
		<path d="M167.661,80.191c1.231,0.057,3.052,0.337,3.78,0.616c0.308,0.112,0.504,0.336,0.504,0.7c0,0.756-0.532,1.456-0.952,1.624
			c-0.7-0.084-2.772-0.14-3.724-0.14c-1.904,0-12.937,0.111-14.645,0.224c-0.729,0.056-2.548,0.364-3.359,0.588
			c-1.177-0.42-2.492-1.315-3.332-2.1c-0.112-0.112-0.141-0.309-0.084-0.448l0.279-0.532c1.176,0.196,2.717,0.309,3.836,0.336
			c1.876,0.028,14.393-0.111,16.38-0.279L167.661,80.191z M151.309,75.684c-0.363-0.42-0.979-0.783-1.651-1.036l0.168-0.812
			c0.028-0.112,0.14-0.196,0.336-0.196c1.204,0,4.088,0.057,5.124,0.168c1.736,0,5.264-0.056,6.384-0.111l0.504-0.112
			c0.056-0.448,0.056-1.316,0.028-1.652c-1.988,0-5.852,0.028-6.776,0.084c-0.672,0.057-1.848,0.225-2.632,0.42
			c-0.98-0.504-1.96-1.231-2.66-1.932c-0.14-0.14-0.168-0.252-0.084-0.392l0.225-0.448c0.896,0.168,2.352,0.28,3.08,0.28
			c1.371,0,8.092-0.057,9.631-0.141l1.232-0.504c0.168-0.084,0.42-0.084,0.616,0c0.476,0.196,1.483,0.616,1.849,0.84
			c0.168,0.112,0.195,0.309,0.084,0.504l-0.477,0.952c-0.141,0.616-0.448,1.54-0.7,2.017l0.532,0.279
			c0.168,0.084,0.279,0.252,0.279,0.393c0,0.532-0.224,1.092-0.42,1.315l-10.752,0.141v1.176c0,0.392,0.141,0.56,0.533,0.56
			c2.127,0,5.963-0.056,7.531-0.14l0.84-0.448c0.868-0.027,2.128,0.084,2.717,0.196c0.336,0.084,0.531,0.308,0.531,0.616
			c0,0.756-0.195,1.288-0.393,1.483c-0.111,0.112-0.307,0.168-0.531,0.168l-12.656,0.196c-1.764-0.056-2.492-0.784-2.492-2.24
			V75.684z M164.693,91.952c0.924,0,2.268,0.111,2.912,0.279c0.336,0.084,0.531,0.309,0.531,0.645c0,0.756-0.224,1.315-0.42,1.512
			c-0.14,0.14-0.363,0.168-0.588,0.168l-12.88,0.084c-1.681-0.027-2.408-0.812-2.408-2.324v-1.792
			c-0.364-0.42-0.952-0.756-1.624-1.008l0.141-0.812c0.027-0.112,0.14-0.196,0.336-0.196c1.203,0,4.004,0.056,5.096,0.168
			c1.764,0,5.096-0.028,6.16-0.084l0.615-0.14c0.028-0.393,0.057-1.288,0.028-1.624c-1.932-0.028-6.02,0.027-6.972,0.084
			c-0.7,0.056-1.848,0.224-2.632,0.42c-0.952-0.504-1.933-1.26-2.632-1.933c-0.141-0.14-0.168-0.252-0.084-0.392l0.224-0.448
			c0.896,0.168,2.323,0.28,3.052,0.28c1.428,0,8.176-0.056,9.688-0.112l1.121-0.476c0.168-0.084,0.363-0.084,0.588,0
			c0.476,0.168,1.484,0.532,1.875,0.728c0.141,0.084,0.168,0.28,0.084,0.504l-0.504,1.12c-0.056,0.561-0.363,1.484-0.56,1.96
			l0.532,0.252c0.168,0.084,0.252,0.225,0.252,0.393c0,0.56-0.225,1.12-0.42,1.344l-10.473,0.112v1.231
			c0,0.393,0.168,0.561,0.533,0.561c2.071,0.027,5.795,0,7.504-0.057L164.693,91.952z"/>
		<path d="M194.849,72.24c0.896,0.056,2.185,0.252,2.716,0.447c0.225,0.084,0.364,0.336,0.364,0.589c0,0.783-0.392,1.512-0.7,1.708
			c-0.504-0.057-2.016-0.057-2.688-0.057c-1.037,0-7.28,0.141-8.316,0.225c-0.588,0.027-1.652,0.224-2.212,0.363
			c-0.925-0.504-1.876-1.315-2.492-2.044c-0.112-0.111-0.112-0.252-0.056-0.363l0.224-0.448c0.952,0.168,2.24,0.252,2.996,0.252
			c1.204,0.027,7.924-0.141,9.185-0.225L194.849,72.24z M190.088,83.664c-3.387,0-6.047-1.596-6.047-4.061
			c0-2.436,2.66-3.976,6.047-3.976c3.361,0,5.992,1.54,5.992,3.976C196.08,82.068,193.449,83.664,190.088,83.664z M185.748,68.74
			c2.521,0.42,5.236,0.531,6.944,0.504c0.364,0,0.56,0.056,0.7,0.336c0.309,0.476,0.252,1.708-0.141,2.072
			c-0.168,0.14-0.392,0.168-0.644,0.168c-1.12,0-3.248,0.056-4.424,0.168c-0.392,0.027-0.616,0.027-0.84-0.141
			c-0.616-0.476-1.4-1.428-1.876-2.239c-0.084-0.196-0.084-0.337,0-0.477L185.748,68.74z M200.924,91.728
			c0.925,0,2.269,0.112,2.912,0.28c0.336,0.084,0.561,0.336,0.561,0.644c0,0.757-0.252,1.316-0.447,1.54
			c-0.113,0.112-0.337,0.168-0.561,0.168l-11.76,0.084c-2.101-0.027-2.885-0.812-2.885-2.296v-1.819
			c-0.363-0.42-0.951-0.756-1.623-1.008l0.14-0.812c0.028-0.112,0.14-0.196,0.336-0.196c1.204,0,4.004,0.057,5.096,0.168
			c1.456,0,4.284-0.027,5.181-0.084l0.644-0.14c0.056-0.392,0.084-1.26,0.056-1.568c-1.736,0-5.236,0.028-6.076,0.084
			c-0.699,0.028-1.848,0.196-2.631,0.393c-0.98-0.504-1.961-1.288-2.66-1.988c-0.168-0.14-0.168-0.252-0.084-0.392l0.224-0.448
			c0.896,0.168,2.353,0.28,3.08,0.28c1.344,0,7.42-0.057,8.819-0.112L200.449,84c0.168-0.084,0.363-0.084,0.588,0
			c0.476,0.168,1.455,0.56,1.848,0.756c0.14,0.112,0.168,0.308,0.084,0.532l-0.504,1.12c-0.084,0.588-0.364,1.483-0.588,1.903
			l0.504,0.28c0.195,0.112,0.308,0.252,0.308,0.392c0,0.589-0.224,1.148-0.42,1.372l-9.632,0.112v1.176
			c0,0.393,0.168,0.588,0.531,0.588c1.681,0.028,5.236,0,6.832-0.056L200.924,91.728z M190.088,81.452
			c1.345,0,2.324-0.7,2.324-1.849c0-1.176-0.979-1.848-2.324-1.848c-1.344,0-2.323,0.672-2.323,1.848
			C187.765,80.752,188.744,81.452,190.088,81.452z M204.816,76.16c0.84-0.028,2.044,0.027,2.576,0.14
			c0.393,0.084,0.645,0.364,0.672,0.729c0.057,0.699-0.111,1.428-0.336,1.708c-0.195,0.252-0.645,0.363-0.98,0.363l-4.256,0.141
			c-0.168,1.428-0.615,3.191-1.092,4.06h-2.268c-0.28-0.812-0.448-3.332-0.448-4.34v-8.12c-0.336-0.644-1.177-1.315-2.101-1.708
			l0.393-1.147c0.057-0.141,0.168-0.225,0.477-0.225c1.455,0.057,3.752,0.504,4.815,0.98c0.308,0.14,0.448,0.42,0.42,0.84
			l-0.112,1.764v5.517l1.344-0.084L204.816,76.16z"/>
		<path d="M239.116,81.647c1.231,0.057,3.024,0.337,3.78,0.616c0.308,0.112,0.504,0.364,0.504,0.729
			c0,0.812-0.532,1.567-0.952,1.764c-0.7-0.084-2.772-0.14-3.724-0.14c-0.869,0-3.528,0.027-6.356,0.056v2.772
			c0,1.876-0.616,5.6-1.288,7.224h-2.156c-0.195-1.12-0.447-4.76-0.447-6.076v-3.864c-2.045,0.028-3.752,0.084-4.369,0.112
			c-0.756,0.056-2.575,0.364-3.387,0.588c-1.177-0.476-2.492-1.428-3.332-2.268c-0.112-0.112-0.141-0.309-0.084-0.448l0.279-0.532
			c1.176,0.196,2.717,0.309,3.836,0.336c1.904,0.028,14.364-0.111,16.38-0.279L239.116,81.647z M219.6,79.771
			c-0.084-0.111-0.056-0.279,0.112-0.363c4.284-2.269,7.308-5.04,8.82-8.036c-0.196-0.393-0.7-0.896-1.231-1.204l0.504-0.924
			c0.084-0.141,0.252-0.196,0.56-0.168c1.344,0.14,3.556,0.728,4.396,1.176c0.364,0.168,0.561,0.448,0.561,0.756
			c-0.028,0.42-0.112,0.672-0.225,0.868c-0.308,0.532-0.644,1.036-1.063,1.54l4.2,1.876l2.184,0.056
			c0.672,0.42,1.624,1.12,2.072,1.568c0.392,0.392,0.56,0.728,0.56,1.008c-0.028,0.672-0.672,1.288-1.288,1.372
			c-0.336,0.056-0.783-0.084-1.148-0.252l-8.231-3.864c-2.491,2.296-5.964,4.172-9.884,5.265c-0.195,0.056-0.336,0.027-0.42-0.057
			L219.6,79.771z"/>
		<path d="M272.016,77.336c-0.616,0-1.204,0.028-1.512,0.084c-0.42,0.056-1.26,0.252-1.709,0.42c-0.363-0.224-0.699-0.448-1.008-0.7
			c-0.363,2.912-2.967,4.929-6.496,4.929c-3.836,0-6.523-2.381-6.523-5.685c0-3.248,2.688-5.6,6.523-5.6
			c3.389,0,5.881,1.819,6.44,4.479c0.505,0.028,1.063,0.057,1.54,0.057c0.616,0.027,1.736,0,2.744-0.057V70.84
			c-0.336-0.644-1.176-1.315-2.1-1.708l0.392-1.147c0.056-0.141,0.168-0.225,0.476-0.225c1.457,0.057,3.752,0.504,4.816,0.98
			c0.309,0.14,0.447,0.42,0.42,0.84l-0.111,1.764v5.433c0,1.567-0.533,4.563-1.205,5.964h-2.24c-0.252-0.868-0.447-3.948-0.447-5.04
			V77.336z M277.168,90.607c0.363,0.616,0.812,1.597,0.979,2.129c0.14,0.476,0.14,0.783,0,1.035
			c-0.28,0.532-1.063,0.841-1.567,0.672c-0.309-0.084-0.617-0.363-0.84-0.672l-2.856-3.443c-1.204,1.624-2.828,3.164-4.816,4.536
			c-0.224,0.168-0.364,0.168-0.504,0.084l-0.7-0.561c-0.168-0.14-0.168-0.28,0-0.476l0.141-0.168c-1.54,0-4.256,0-5.797,0.027
			c-0.168,0.448-0.42,0.756-0.672,0.925H258.8c-0.252-0.589-0.364-1.456-0.392-2.017l-0.112-6.636
			c-0.224-0.364-0.757-0.784-1.261-0.98l0.225-0.812c0.027-0.112,0.14-0.196,0.477-0.196c1.008,0,2.771,0.225,3.555,0.448
			c0.252,0.084,0.365,0.28,0.336,0.616l-0.055,1.204l-0.029,0.951l2.521-0.027v-1.96c-0.224-0.393-0.756-0.868-1.26-1.12
			l0.224-0.868c0.057-0.14,0.168-0.224,0.504-0.196c1.036,0.028,2.828,0.309,3.641,0.588c0.252,0.112,0.336,0.28,0.308,0.616
			l-0.056,1.148l-0.057,3.611c0,0.868-0.195,1.961-0.392,2.576l0.532,0.28c0.168,0.112,0.252,0.224,0.252,0.448
			c0,0.168-0.028,0.336-0.028,0.504c1.82-2.408,2.94-4.928,3.248-7.28c-0.168-0.392-0.7-0.924-1.231-1.231l0.531-0.98
			c0.084-0.14,0.252-0.224,0.504-0.168c1.26,0.196,3.164,0.812,3.893,1.232c0.336,0.195,0.504,0.447,0.504,0.699
			c0,0.336-0.028,0.589-0.084,0.784c-0.225,0.812-0.532,1.624-0.952,2.437l1.513,1.54L277.168,90.607z M261.291,79.212
			c1.652,0,2.744-1.092,2.744-2.828s-1.092-2.855-2.744-2.855c-1.651,0-2.743,1.119-2.743,2.855S259.64,79.212,261.291,79.212z
			 M261.516,89.46l-0.057,2.072l2.604-0.028v-2.072L261.516,89.46z"/>
		<path d="M299.063,77.336c-0.616,0-1.204,0.028-1.513,0.084c-0.42,0.056-1.26,0.252-1.707,0.42c-0.364-0.224-0.672-0.448-0.98-0.7
			c-0.308,3.052-2.939,5.181-6.523,5.181c-3.809,0-6.524-2.408-6.524-5.74c0-3.276,2.716-5.656,6.524-5.656
			c3.275,0,5.768,1.764,6.384,4.34c0.532,0.028,1.12,0.057,1.596,0.057c0.616,0.027,1.736,0,2.744-0.057V70.84
			c-0.336-0.644-1.176-1.315-2.101-1.708l0.393-1.147c0.057-0.141,0.168-0.225,0.477-0.225c1.455,0.057,3.752,0.504,4.815,0.98
			c0.308,0.14,0.448,0.42,0.42,0.84l-0.112,1.764v6.3c0,1.597-0.531,4.593-1.203,5.992h-2.24c-0.252-0.868-0.448-3.948-0.448-5.067
			V77.336z M303.403,90.691c0.392,0.589,0.841,1.484,1.009,2.017c0.139,0.448,0.139,0.756,0.027,0.979
			c-0.28,0.532-1.036,0.84-1.568,0.7c-0.279-0.056-0.588-0.336-0.84-0.616l-2.968-3.388c-1.483,1.792-3.528,3.472-6.021,4.872
			c-0.224,0.14-0.336,0.14-0.476,0.056l-0.728-0.56c-0.141-0.14-0.141-0.28,0.027-0.448c0.532-0.476,1.036-0.979,1.484-1.483
			c-0.196-0.084-0.393-0.225-0.561-0.421l-2.24-2.38c-1.512,1.765-3.639,3.389-6.215,4.704c-0.225,0.141-0.364,0.141-0.504,0.057
			l-0.701-0.589c-0.139-0.111-0.168-0.252,0.029-0.42c2.771-2.296,4.676-4.899,5.403-7.42c-0.196-0.363-0.7-0.812-1.231-1.092
			l0.531-0.979c0.084-0.141,0.252-0.196,0.504-0.168c1.232,0.168,3.164,0.756,3.893,1.176c0.308,0.168,0.476,0.42,0.476,0.672
			c0,0.364-0.056,0.588-0.14,0.784c-0.196,0.504-0.448,0.979-0.729,1.456l1.176,1.176l1.064,0.532
			c0.225,0.336,0.477,0.84,0.645,1.231c1.231-1.651,2.071-3.388,2.492-5.04c-0.168-0.392-0.701-0.924-1.232-1.231l0.531-0.98
			c0.084-0.168,0.252-0.224,0.504-0.168c1.261,0.252,3.137,0.896,3.893,1.372c0.309,0.196,0.477,0.42,0.477,0.672
			c0,0.336-0.057,0.588-0.113,0.784c-0.252,0.672-0.559,1.344-0.951,1.988l1.568,1.512L303.403,90.691z M285.596,76.58
			c0,1.792,1.092,2.884,2.744,2.884s2.744-1.092,2.744-2.884c0-1.764-1.092-2.912-2.744-2.912S285.596,74.816,285.596,76.58z"/>
		<path d="M330.367,78.708c0.84-0.028,2.044,0.028,2.576,0.14c0.393,0.084,0.645,0.364,0.672,0.729
			c0.057,0.7-0.111,1.428-0.336,1.708c-0.195,0.252-0.645,0.363-0.98,0.363l-4.115,0.141v5.292c0,1.96-0.477,5.824-1.288,7.868
			h-2.156c-0.252-0.952-0.448-5.376-0.448-6.721v-2.996c-3.359,1.12-7.447,1.96-10.248,2.24c-0.447,0.057-0.896,0.057-1.231,0.057
			c-1.568,0-2.66-0.868-3.08-2.213c-0.112-0.363-0.196-0.979-0.196-1.624V75.32c-0.363-0.477-1.035-0.952-1.792-1.232l0.253-1.008
			c0.055-0.112,0.139-0.196,0.336-0.196c1.176,0,3.836,0.14,4.983,0.336c1.036-0.027,3.472-0.168,4.284-0.252l0.896-0.616
			c0.841,0,2.156,0.057,2.828,0.196c0.336,0.084,0.532,0.308,0.532,0.645c0,0.84-0.225,1.455-0.477,1.735
			c-0.14,0.141-0.336,0.196-0.588,0.196l-7.363,0.308v8.288c0,0.393,0.168,0.588,0.56,0.561c2.884-0.028,7.056-0.448,10.304-1.261
			V70.868c-0.363-0.672-1.232-1.344-2.212-1.765l0.392-1.119c0.057-0.141,0.141-0.225,0.449-0.225
			c1.483,0.057,3.863,0.504,4.955,0.98c0.336,0.14,0.477,0.42,0.448,0.84l-0.14,1.82v8.008l1.287-0.084L330.367,78.708z"/>
		<path d="M336.023,72.716c-1.008-0.728-1.232-1.399-1.232-2.184c0-1.261,1.008-2.128,2.156-2.128c0.812,0,1.4,0.363,1.848,0.699
			c0.477,0.784,0.729,1.708,0.729,2.604c0,2.632-1.932,5.012-4.788,6.02l-0.336-0.699c1.596-0.784,2.632-1.765,3.276-3.164
			L336.023,72.716z M342.436,72.716c-1.008-0.728-1.232-1.399-1.232-2.184c0-1.261,1.008-2.128,2.156-2.128
			c0.812,0,1.4,0.363,1.848,0.699c0.477,0.784,0.729,1.708,0.729,2.604c0,2.632-1.961,5.012-4.789,6.02l-0.336-0.699
			c1.597-0.784,2.633-1.765,3.277-3.164L342.436,72.716z"/>
		<path d="M369.203,87.304c1.232,0.056,3.023,0.336,3.779,0.616c0.309,0.112,0.504,0.364,0.504,0.728
			c0,0.812-0.531,1.568-0.951,1.765c-0.7-0.084-2.771-0.141-3.725-0.141c-1.932,0-12.852,0.112-14.615,0.225
			c-0.756,0.056-2.576,0.363-3.389,0.588c-1.176-0.477-2.492-1.428-3.332-2.269c-0.111-0.111-0.14-0.308-0.084-0.447l0.28-0.532
			c1.177,0.196,2.716,0.308,3.836,0.336c0.757,0,3.248,0,6.076-0.028l-0.028-6.58c-0.279-0.363-1.035-0.867-1.652-1.092l0.225-1.008
			c0.027-0.112,0.112-0.196,0.477-0.196c1.063-0.027,3.724,0.196,4.508,0.42c0.336,0.084,0.476,0.336,0.42,0.673l-0.196,1.819
			l-0.112,5.908c3.053-0.056,5.797-0.112,6.664-0.196L369.203,87.304z M365.087,85.008c-0.224-0.028-0.308-0.168-0.28-0.56
			c0.477-2.576,0.616-7.448,0.561-10.557c-2.604,0.028-7.225,0.112-8.568,0.196c-0.867,0.056-2.24,0.28-3.023,0.504
			c-1.064-0.56-2.213-1.428-2.94-2.212c-0.168-0.168-0.196-0.28-0.112-0.448l0.252-0.504c1.064,0.168,2.437,0.252,3.389,0.252
			c1.484,0.028,9.324-0.111,11.479-0.252l1.372-0.672c0.196-0.112,0.477-0.112,0.672,0c0.588,0.28,1.736,0.896,2.213,1.204
			c0.139,0.112,0.168,0.28,0.084,0.532l-0.533,1.456c-0.168,3.359-1.344,8.063-2.855,11.004c-0.111,0.224-0.363,0.308-0.615,0.279
			L365.087,85.008z"/>
		<path d="M388.662,81.144c-0.168,0.42-0.392,0.784-0.699,1.148h-2.1c-0.253-0.645-0.421-1.568-0.505-2.353l-0.588-6.859
			c-0.308-0.42-0.896-0.812-1.512-1.064l0.252-1.008c0.056-0.112,0.168-0.196,0.392-0.196c1.288,0,3.528,0.168,4.844,0.393
			c1.176,0.028,3.809,0,4.984-0.084l1.372-0.645c0.196-0.084,0.448-0.084,0.644,0c0.532,0.225,1.597,0.729,2.045,1.009
			c0.111,0.084,0.14,0.224,0.056,0.476l-0.42,1.456c-0.112,1.68-0.364,3.696-0.7,5.236l0.561,0.308
			c0.195,0.084,0.308,0.252,0.308,0.504c0,0.7-0.224,1.372-0.476,1.624L388.662,81.144z M402.354,91.42
			c0.924-0.028,2.269,0.112,2.912,0.28c0.336,0.084,0.56,0.336,0.56,0.672c0,0.812-0.224,1.399-0.42,1.596
			c-0.111,0.14-0.363,0.196-0.588,0.196l-12.18,0.084c-1.96-0.028-2.717-0.812-2.717-2.353v-2.239
			c-0.363-0.42-0.951-0.757-1.623-1.009l0.14-0.812c0.028-0.112,0.14-0.196,0.336-0.196c1.204,0,4.032,0.057,5.097,0.168
			c1.455,0,4.563-0.027,5.6-0.084l0.615-0.14c0.057-0.448,0.057-1.456,0.029-1.82c-1.765,0-5.32,0.028-6.188,0.084
			c-0.7,0.028-1.876,0.196-2.66,0.393c-0.979-0.532-1.96-1.316-2.688-2.044c-0.14-0.141-0.14-0.225-0.084-0.393l0.252-0.448
			c0.896,0.168,2.381,0.28,3.108,0.28c1.345,0,7.532-0.056,8.933-0.112l1.203-0.504c0.168-0.084,0.364-0.084,0.588,0
			c0.477,0.168,1.457,0.561,1.848,0.756c0.141,0.112,0.169,0.309,0.085,0.532l-0.505,1.12c-0.055,0.645-0.363,1.736-0.588,2.24
			l0.504,0.252c0.197,0.112,0.309,0.252,0.309,0.42c0,0.616-0.225,1.204-0.42,1.456l-9.996,0.112v1.428
			c0,0.42,0.168,0.588,0.532,0.588c1.764,0.028,5.432,0,7.084-0.056L402.354,91.42z M393.479,73.5c-1.456,0-3.248,0.028-4.676,0.056
			l0.027,5.208c1.232,0.028,2.996,0,4.061-0.027l0.531-0.141L393.479,73.5z M406.358,74.816c0.84-0.028,2.044,0.027,2.576,0.14
			c0.392,0.084,0.644,0.364,0.672,0.728c0.056,0.7-0.112,1.429-0.336,1.708c-0.196,0.252-0.644,0.364-0.979,0.364l-4.312,0.14
			c-0.141,1.456-0.616,3.36-1.12,4.284h-2.269c-0.279-0.812-0.447-3.332-0.447-4.34v-7c-0.336-0.644-1.176-1.315-2.1-1.708
			l0.392-1.147c0.056-0.141,0.168-0.225,0.476-0.225c1.457,0.057,3.752,0.504,4.816,0.98c0.309,0.14,0.447,0.42,0.42,0.84
			l-0.111,1.764v4.172l1.428-0.084L406.358,74.816z"/>
		<path d="M421.45,73.388c0.728,0.028,1.904,0.168,2.408,0.309c0.196,0.084,0.336,0.279,0.336,0.56c0,0.84-0.392,1.512-0.756,1.708
			c-0.448-0.028-1.651-0.056-2.296-0.056c-0.84,0-5.6,0.168-6.496,0.224c-0.532,0.028-1.428,0.168-1.904,0.28
			c-0.783-0.477-1.568-1.204-2.072-1.82c-0.111-0.112-0.14-0.28-0.084-0.364l0.252-0.476c0.785,0.168,1.765,0.252,2.437,0.252
			c1.063,0,6.216-0.14,7.28-0.252L421.45,73.388z M418.23,84.252c-3.164,0-5.572-1.484-5.572-3.92c0-2.408,2.408-3.836,5.572-3.836
			c3.08,0,5.432,1.428,5.432,3.836C423.662,82.768,421.311,84.252,418.23,84.252z M434.051,90.832
			c0.363,0.588,0.812,1.512,0.979,2.016c0.14,0.448,0.14,0.756,0.028,0.98c-0.28,0.56-1.036,0.868-1.568,0.728
			c-0.279-0.056-0.588-0.336-0.84-0.616l-2.744-3.136c-1.54,1.764-3.695,3.36-6.355,4.564c-0.225,0.14-0.364,0.14-0.477,0.027
			l-0.645-0.644c-0.139-0.14-0.139-0.28,0.029-0.42c0.531-0.448,1.035-0.924,1.512-1.372c-0.168-0.084-0.336-0.224-0.477-0.393
			l-2.072-2.212c-1.539,1.736-3.808,3.305-6.523,4.425c-0.252,0.14-0.364,0.14-0.504,0.056l-0.616-0.645
			c-0.168-0.168-0.168-0.308,0-0.447c2.688-2.017,4.536-4.2,5.349-6.496c-0.197-0.364-0.701-0.812-1.232-1.092l0.531-0.98
			c0.084-0.14,0.252-0.196,0.504-0.168c1.232,0.168,3.164,0.756,3.893,1.176c0.309,0.168,0.477,0.42,0.477,0.672
			c0,0.364-0.057,0.589-0.141,0.784c-0.111,0.309-0.279,0.588-0.42,0.896l1.008,1.008l1.092,0.532
			c0.252,0.336,0.504,0.84,0.645,1.204c1.204-1.484,2.044-3.053,2.492-4.593c-0.168-0.392-0.7-0.924-1.232-1.231l0.532-0.98
			c0.084-0.168,0.252-0.224,0.504-0.168c1.261,0.252,3.136,0.896,3.892,1.372c0.309,0.196,0.477,0.42,0.477,0.672
			c0,0.336-0.057,0.588-0.112,0.784c-0.196,0.616-0.448,1.232-0.812,1.82l1.316,1.26L434.051,90.832z M414.03,69.944
			c2.296,0.42,4.536,0.56,6.076,0.56c0.364,0,0.56,0.056,0.7,0.336c0.308,0.504,0.224,1.652-0.168,1.96
			c-0.168,0.14-0.364,0.168-0.588,0.168c-1.064,0-2.885,0.028-4.032,0.084c-0.336,0.028-0.476,0.028-0.673-0.14
			c-0.531-0.42-1.203-1.288-1.567-1.988c-0.14-0.252-0.14-0.392-0.056-0.56L414.03,69.944z M418.23,82.096
			c1.204,0,1.988-0.644,1.988-1.764s-0.784-1.764-1.988-1.764s-1.988,0.644-1.988,1.764S417.026,82.096,418.23,82.096z
			 M424.95,72.156c-0.308-0.561-1.036-1.12-1.876-1.484l0.42-1.092c0.057-0.141,0.168-0.225,0.504-0.225
			c1.26,0.057,3.276,0.505,4.2,0.952c0.308,0.141,0.42,0.393,0.392,0.784l-0.084,1.512v4.145l1.736-0.056V70.7
			c-0.308-0.588-1.119-1.204-1.988-1.597l0.393-1.119c0.084-0.141,0.195-0.225,0.504-0.225c1.344,0.057,3.527,0.504,4.536,0.98
			c0.308,0.14,0.448,0.392,0.42,0.812l-0.112,1.652v8.008c0,1.512-0.531,4.172-1.148,5.348h-2.155
			c-0.252-0.84-0.448-3.416-0.448-4.479v-1.008l-1.764,0.056c-0.084,1.708-0.504,3.64-1.064,4.592h-2.016
			c-0.28-0.84-0.448-3.107-0.448-4.368V72.156z"/>
		<path d="M460.454,78.708c0.84-0.028,2.044,0.028,2.576,0.14c0.392,0.084,0.644,0.364,0.672,0.729
			c0.056,0.7-0.112,1.428-0.336,1.708c-0.196,0.252-0.644,0.363-0.979,0.363l-4.117,0.141v5.292c0,1.96-0.475,5.824-1.287,7.868
			h-2.156c-0.252-0.952-0.447-5.376-0.447-6.721v-2.996c-3.361,1.12-7.449,1.96-10.248,2.24c-0.449,0.057-0.896,0.057-1.232,0.057
			c-1.568,0-2.66-0.868-3.08-2.213c-0.112-0.363-0.196-0.979-0.196-1.624V75.32c-0.364-0.477-1.036-0.952-1.792-1.232l0.252-1.008
			c0.057-0.112,0.141-0.196,0.336-0.196c1.176,0,3.836,0.14,4.984,0.336c1.036-0.027,3.472-0.168,4.283-0.252l0.896-0.616
			c0.84,0,2.156,0.057,2.828,0.196c0.336,0.084,0.532,0.308,0.532,0.645c0,0.84-0.224,1.455-0.476,1.735
			c-0.141,0.141-0.336,0.196-0.588,0.196l-7.365,0.308v8.288c0,0.393,0.168,0.588,0.561,0.561c2.884-0.028,7.057-0.448,10.305-1.261
			V70.868c-0.365-0.672-1.232-1.344-2.213-1.765l0.393-1.119c0.056-0.141,0.14-0.225,0.447-0.225
			c1.484,0.057,3.864,0.504,4.957,0.98c0.336,0.14,0.475,0.42,0.447,0.84l-0.141,1.82v8.008l1.289-0.084L460.454,78.708z"/>
		<path d="M465.887,89.768c0-1.372,1.147-2.548,2.575-2.548c1.429,0,2.576,1.176,2.576,2.548c0,1.4-1.147,2.521-2.576,2.521
			C467.034,92.288,465.887,91.168,465.887,89.768z"/>
	</g>
</g>
<radialGradient id="SVGID_1_" cx="182.9371" cy="16.1004" r="38.8175" gradientUnits="userSpaceOnUse">
	<stop  offset="0.1303" style="stop-color:#000000"/>
	<stop  offset="0.1932" style="stop-color:#090909"/>
	<stop  offset="0.2975" style="stop-color:#232323"/>
	<stop  offset="0.4304" style="stop-color:#4C4C4C"/>
	<stop  offset="0.5867" style="stop-color:#858585"/>
	<stop  offset="0.7607" style="stop-color:#CDCDCD"/>
	<stop  offset="0.7989" style="stop-color:#DEDEDE"/>
	<stop  offset="0.9039" style="stop-color:#EDEDED"/>
	<stop  offset="1" style="stop-color:#FFFFFF"/>
</radialGradient>
<rect x="166.998" y="1.217" class="st0" width="31.879" height="24.378"/>
<radialGradient id="SVGID_2_" cx="230.9371" cy="52.1004" r="38.8175" gradientUnits="userSpaceOnUse">
	<stop  offset="0.1303" style="stop-color:#000000"/>
	<stop  offset="0.1932" style="stop-color:#090909"/>
	<stop  offset="0.2975" style="stop-color:#232323"/>
	<stop  offset="0.4304" style="stop-color:#4C4C4C"/>
	<stop  offset="0.5867" style="stop-color:#858585"/>
	<stop  offset="0.7607" style="stop-color:#CDCDCD"/>
	<stop  offset="0.7989" style="stop-color:#DEDEDE"/>
	<stop  offset="0.9039" style="stop-color:#EDEDED"/>
	<stop  offset="1" style="stop-color:#FFFFFF"/>
</radialGradient>
<rect x="214.998" y="37.217" class="st1" width="31.879" height="24.378"/>
<radialGradient id="SVGID_3_" cx="175.5696" cy="16.1004" r="38.8175" gradientTransform="matrix(2.1538 0 0 1 -343.8079 0)" gradientUnits="userSpaceOnUse">
	<stop  offset="0.1303" style="stop-color:#000000"/>
	<stop  offset="0.1932" style="stop-color:#090909"/>
	<stop  offset="0.2975" style="stop-color:#232323"/>
	<stop  offset="0.4304" style="stop-color:#4C4C4C"/>
	<stop  offset="0.5867" style="stop-color:#858585"/>
	<stop  offset="0.7607" style="stop-color:#CDCDCD"/>
	<stop  offset="0.7989" style="stop-color:#DEDEDE"/>
	<stop  offset="0.9039" style="stop-color:#EDEDED"/>
	<stop  offset="1" style="stop-color:#FFFFFF"/>
</radialGradient>
<rect y="1.217" class="st2" width="68.659" height="24.378"/>
<radialGradient id="SVGID_4_" cx="408.9371" cy="51.1004" r="38.8175" gradientUnits="userSpaceOnUse">
	<stop  offset="0.1303" style="stop-color:#000000"/>
	<stop  offset="0.1932" style="stop-color:#090909"/>
	<stop  offset="0.2975" style="stop-color:#232323"/>
	<stop  offset="0.4304" style="stop-color:#4C4C4C"/>
	<stop  offset="0.5867" style="stop-color:#858585"/>
	<stop  offset="0.7607" style="stop-color:#CDCDCD"/>
	<stop  offset="0.7989" style="stop-color:#DEDEDE"/>
	<stop  offset="0.9039" style="stop-color:#EDEDED"/>
	<stop  offset="1" style="stop-color:#FFFFFF"/>
</radialGradient>
<rect x="392.998" y="36.217" class="st3" width="31.879" height="24.378"/>
</svg>