<!-- Generator: Adobe Illustrator 21.1.0, SVG Export Plug-In  -->
<svg version="1.1"
	 xmlns="http://www.w3.org/2000/svg" xmlns:xlink="http://www.w3.org/1999/xlink" xmlns:a="http://ns.adobe.com/AdobeSVGViewerExtensions/3.0/"
	 x="0px" y="0px" width="33.959px" height="126.293px" viewBox="0 0 33.959 126.293"
	 style="enable-background:new 0 0 33.959 126.293;" xml:space="preserve">
<defs>
</defs>
<g>
	<path d="M4.779,6.601C4.996,6.589,5.19,6.58,5.363,6.574s0.318-0.012,0.436-0.018c0.193-0.006,0.396-0.018,0.606-0.035
		s0.42-0.036,0.628-0.058c0.208-0.02,0.409-0.042,0.603-0.065s0.369-0.044,0.527-0.062L8.04,7.154
		C7.923,7.148,7.783,7.143,7.623,7.137c-0.162-0.006-0.338-0.01-0.527-0.013c-0.191-0.003-0.387-0.006-0.59-0.01
		C6.305,7.112,6.106,7.11,5.913,7.11c-0.158,0-0.354,0.003-0.585,0.009s-0.48,0.012-0.746,0.018C4.314,7.143,4.041,7.151,3.76,7.163
		s-0.548,0.021-0.8,0.031C2.708,7.202,2.479,7.212,2.274,7.22C2.069,7.229,1.911,7.236,1.8,7.242C1.577,7.254,1.331,7.272,1.062,7.3
		c-0.27,0.025-0.513,0.057-0.729,0.092L0.007,6.478c0.258,0.035,0.551,0.066,0.879,0.092c0.328,0.027,0.63,0.046,0.905,0.058
		c0.211,0.012,0.496,0.017,0.857,0.014c0.359-0.003,0.733-0.011,1.12-0.022V5.247c0-0.082-0.009-0.15-0.026-0.207
		C3.725,4.985,3.689,4.939,3.637,4.904S3.506,4.84,3.404,4.816c-0.104-0.023-0.236-0.044-0.4-0.062l0.149-0.378
		c0.1,0,0.224,0.003,0.374,0.009c0.148,0.006,0.304,0.014,0.465,0.021c0.161,0.01,0.318,0.021,0.471,0.035
		C4.615,4.458,4.744,4.474,4.85,4.491C4.838,4.544,4.828,4.61,4.818,4.689C4.811,4.77,4.803,4.849,4.797,4.928
		c-0.006,0.08-0.011,0.149-0.014,0.208S4.779,5.232,4.779,5.25V6.601z M4.393,2.259c0.252,0.158,0.523,0.319,0.812,0.483
		c0.291,0.164,0.58,0.321,0.871,0.47c0.289,0.15,0.567,0.286,0.834,0.409S7.413,3.844,7.618,3.92L6.906,4.667
		C6.701,4.509,6.479,4.345,6.238,4.175S5.752,3.834,5.5,3.661S4.994,3.319,4.74,3.155C4.484,2.991,4.243,2.839,4.015,2.698
		C3.575,3.19,3.077,3.621,2.521,3.99S1.387,4.688,0.789,4.975L0.552,4.632c0.738-0.428,1.381-0.9,1.929-1.42
		c0.548-0.518,0.975-1.07,1.279-1.656c0.023-0.047,0.033-0.094,0.031-0.141C3.787,1.368,3.777,1.333,3.76,1.31
		C3.736,1.286,3.696,1.259,3.641,1.226C3.585,1.194,3.527,1.162,3.465,1.13c-0.061-0.032-0.12-0.061-0.176-0.084
		S3.194,1.008,3.171,1.002l0.281-0.316c0.111,0.029,0.24,0.065,0.387,0.11c0.146,0.043,0.294,0.089,0.444,0.136
		c0.148,0.047,0.294,0.093,0.435,0.136c0.141,0.045,0.264,0.084,0.369,0.119c-0.1,0.199-0.206,0.387-0.321,0.562
		C4.652,1.925,4.527,2.095,4.393,2.259z"/>
	<path d="M9.771,2.487c0-0.088-0.009-0.161-0.026-0.22s-0.057-0.11-0.119-0.153C9.565,2.069,9.476,2.03,9.358,1.995
		S9.086,1.925,8.893,1.89l0.149-0.387C9.188,1.509,9.347,1.52,9.517,1.534s0.337,0.032,0.501,0.053s0.319,0.042,0.466,0.065
		s0.272,0.044,0.378,0.062c-0.012,0.053-0.023,0.122-0.035,0.207s-0.022,0.17-0.03,0.254c-0.01,0.086-0.017,0.16-0.022,0.225
		s-0.009,0.103-0.009,0.114v2.584c0,0.082,0.009,0.14,0.026,0.171c0.018,0.033,0.047,0.049,0.088,0.049
		c0.205-0.018,0.434-0.045,0.686-0.084c0.252-0.037,0.52-0.088,0.804-0.148c0.284-0.062,0.579-0.137,0.884-0.225
		s0.609-0.188,0.914-0.299v0.457c-0.258,0.105-0.529,0.21-0.813,0.312s-0.574,0.196-0.869,0.281
		c-0.297,0.085-0.594,0.162-0.893,0.232s-0.592,0.129-0.879,0.176c-0.316,0.059-0.553,0.021-0.707-0.114
		C9.849,5.771,9.771,5.558,9.771,5.265V2.487z M14.518,2.654c-0.193,0.012-0.396,0.025-0.606,0.04s-0.415,0.03-0.611,0.048
		S12.923,2.779,12.755,2.8c-0.166,0.021-0.303,0.039-0.408,0.057L11.995,2.03c0.059,0.012,0.142,0.025,0.25,0.039
		c0.108,0.016,0.225,0.03,0.348,0.045s0.244,0.024,0.365,0.03c0.119,0.006,0.221,0.009,0.303,0.009
		c0.152-0.006,0.338-0.009,0.559-0.009c0.219,0,0.452-0.009,0.698-0.026V1.116c0-0.17-0.085-0.309-0.255-0.418
		c-0.17-0.107-0.451-0.212-0.844-0.312L13.604,0c0.141,0.018,0.304,0.041,0.487,0.07c0.186,0.029,0.369,0.062,0.555,0.097
		c0.184,0.035,0.361,0.067,0.531,0.097s0.313,0.053,0.431,0.07c-0.012,0.053-0.023,0.123-0.035,0.211s-0.022,0.176-0.03,0.264
		c-0.01,0.088-0.017,0.166-0.022,0.233s-0.009,0.104-0.009,0.109v4.825c0,0.182-0.004,0.392-0.014,0.628
		c-0.008,0.238-0.021,0.477-0.035,0.717S15.43,7.79,15.409,8.007s-0.039,0.39-0.057,0.519l-0.747,0.105
		c-0.012-0.094-0.022-0.222-0.03-0.382c-0.01-0.162-0.018-0.336-0.027-0.523c-0.008-0.188-0.016-0.378-0.021-0.571
		s-0.009-0.375-0.009-0.545V4.236c-0.193,0.012-0.396,0.025-0.606,0.04S13.496,4.309,13.3,4.329S12.923,4.37,12.755,4.39
		c-0.166,0.021-0.303,0.043-0.408,0.066l-0.352-0.817c0.059,0.012,0.142,0.025,0.25,0.04s0.225,0.029,0.348,0.043
		c0.123,0.016,0.244,0.025,0.365,0.031c0.119,0.006,0.221,0.009,0.303,0.009c0.152-0.006,0.338-0.01,0.559-0.013
		c0.219-0.003,0.452-0.011,0.698-0.022V2.654z"/>
	<path d="M25.398,3.586c-0.023,0.135-0.046,0.272-0.066,0.412s-0.042,0.278-0.065,0.414c-0.117-0.006-0.258-0.012-0.422-0.018
		s-0.34-0.013-0.527-0.022c-0.188-0.008-0.381-0.016-0.58-0.021s-0.393-0.009-0.58-0.009c-0.645,0-1.274,0.009-1.89,0.026
		s-1.184,0.041-1.705,0.07s-0.981,0.061-1.38,0.092c-0.398,0.033-0.7,0.061-0.905,0.084c-0.059-0.146-0.119-0.291-0.18-0.434
		c-0.062-0.143-0.119-0.288-0.172-0.437c0.416,0.035,0.832,0.064,1.248,0.089c0.416,0.023,0.817,0.035,1.204,0.035
		c0.281,0,0.599-0.005,0.954-0.014c0.354-0.009,0.703-0.018,1.045-0.026c0.344-0.009,0.662-0.019,0.959-0.026
		c0.295-0.01,0.528-0.017,0.698-0.022c0.193-0.006,0.394-0.015,0.603-0.026c0.207-0.012,0.415-0.026,0.623-0.044
		s0.409-0.036,0.603-0.058C25.056,3.632,25.234,3.609,25.398,3.586z M18.042,0.817c0.029-0.064,0.062-0.127,0.097-0.189
		c0.035-0.061,0.067-0.124,0.097-0.188c0.281,0.047,0.609,0.082,0.984,0.105s0.768,0.035,1.178,0.035
		c0.34,0,0.681-0.006,1.024-0.018c0.342-0.012,0.668-0.027,0.975-0.048c0.309-0.021,0.588-0.043,0.84-0.066s0.457-0.047,0.615-0.07
		c-0.029,0.129-0.056,0.261-0.079,0.396s-0.05,0.27-0.079,0.404c-0.352-0.018-0.705-0.03-1.059-0.04
		c-0.355-0.008-0.699-0.013-1.033-0.013s-0.652,0.005-0.953,0.013c-0.303,0.01-0.582,0.02-0.84,0.031v1.213
		c0,0.059,0.001,0.103,0.004,0.132s0.017,0.052,0.04,0.065c0.023,0.016,0.06,0.022,0.11,0.022c0.049,0,0.121,0,0.215,0
		c0.234,0,0.513-0.007,0.835-0.022c0.322-0.014,0.655-0.033,0.997-0.057c0.344-0.023,0.68-0.053,1.012-0.088
		c0.33-0.035,0.625-0.07,0.883-0.105c-0.023,0.135-0.05,0.268-0.079,0.4c-0.029,0.131-0.059,0.262-0.088,0.391
		c-0.264-0.012-0.535-0.021-0.813-0.026s-0.558-0.009-0.839-0.009c-0.504,0-0.987,0.012-1.45,0.035s-0.861,0.035-1.195,0.035
		c-0.205,0-0.362-0.057-0.471-0.172C18.86,2.87,18.807,2.73,18.807,2.566V1.556c0-0.111-0.008-0.203-0.021-0.277
		c-0.016-0.072-0.049-0.136-0.102-0.188s-0.131-0.1-0.232-0.141C18.348,0.908,18.212,0.864,18.042,0.817z M22.647,6.381
		c0.006-0.129,0.01-0.259,0.013-0.392c0.003-0.131,0.008-0.259,0.014-0.382c-0.064-0.006-0.134-0.009-0.207-0.009s-0.15,0-0.232,0
		c-0.152,0-0.318,0.002-0.496,0.004c-0.18,0.004-0.356,0.008-0.532,0.014s-0.343,0.014-0.501,0.021
		c-0.158,0.01-0.299,0.017-0.422,0.022c-0.059,0.006-0.141,0.013-0.246,0.022c-0.105,0.008-0.223,0.019-0.352,0.03
		s-0.258,0.026-0.387,0.044s-0.246,0.035-0.352,0.053c-0.076-0.129-0.154-0.26-0.232-0.391c-0.08-0.133-0.157-0.263-0.233-0.392
		c0.1,0.023,0.235,0.043,0.409,0.058c0.172,0.015,0.347,0.027,0.522,0.039S19.752,5.145,19.9,5.15
		c0.15,0.006,0.251,0.009,0.304,0.009c0.24,0,0.519-0.001,0.835-0.004s0.64-0.011,0.971-0.022s0.656-0.024,0.977-0.04
		c0.318-0.014,0.602-0.036,0.848-0.065c-0.023,0.059-0.046,0.141-0.066,0.246s-0.039,0.219-0.057,0.339s-0.034,0.241-0.049,0.364
		s-0.027,0.231-0.039,0.325c0.029-0.006,0.06-0.009,0.092-0.009s0.063-0.003,0.093-0.009c-0.012,0.111-0.025,0.219-0.04,0.32
		c-0.015,0.104-0.027,0.21-0.039,0.321c-0.24-0.012-0.494-0.019-0.76-0.022c-0.268-0.002-0.535-0.004-0.805-0.004
		c-0.451,0-0.87,0.003-1.257,0.009s-0.674,0.015-0.861,0.026V7.55c0,0.064,0,0.112,0,0.145s0.01,0.055,0.03,0.066
		s0.056,0.016,0.105,0.014c0.05-0.004,0.125-0.005,0.225-0.005c0.24,0,0.533-0.008,0.879-0.022s0.699-0.033,1.059-0.057
		c0.361-0.023,0.709-0.053,1.047-0.088c0.336-0.035,0.616-0.07,0.839-0.105c-0.029,0.135-0.059,0.268-0.088,0.4
		c-0.029,0.131-0.059,0.265-0.088,0.399c-0.205-0.006-0.427-0.011-0.663-0.013c-0.238-0.004-0.485-0.005-0.743-0.005
		c-0.281,0-0.564,0.003-0.849,0.009s-0.561,0.012-0.83,0.018s-0.521,0.012-0.752,0.018s-0.435,0.009-0.61,0.009
		c-0.217,0-0.363-0.052-0.439-0.153c-0.076-0.104-0.114-0.23-0.114-0.383V7.33c0-0.105-0.008-0.191-0.021-0.259
		c-0.016-0.067-0.046-0.123-0.093-0.168C18.892,6.86,18.825,6.82,18.74,6.785s-0.2-0.076-0.347-0.123
		c0.029-0.053,0.059-0.106,0.088-0.163c0.029-0.055,0.062-0.109,0.097-0.162c0.311,0.029,0.647,0.05,1.011,0.062
		s0.738,0.018,1.125,0.018c0.34,0,0.673-0.003,0.997-0.009C22.037,6.401,22.349,6.393,22.647,6.381z"/>
	<path d="M33.818,5.186c-0.117-0.006-0.257-0.012-0.417-0.018c-0.162-0.006-0.336-0.01-0.523-0.013s-0.381-0.008-0.58-0.014
		s-0.396-0.009-0.589-0.009c-0.158-0.006-0.362-0.008-0.61-0.005c-0.25,0.003-0.52,0.008-0.809,0.014
		c-0.291,0.006-0.59,0.014-0.896,0.021c-0.309,0.01-0.6,0.018-0.875,0.027c-0.275,0.008-0.523,0.019-0.742,0.03
		c-0.221,0.012-0.386,0.021-0.497,0.026c-0.105,0.006-0.222,0.015-0.347,0.026c-0.127,0.012-0.254,0.023-0.383,0.035
		s-0.257,0.025-0.383,0.04s-0.238,0.027-0.338,0.039l-0.352-0.879c0.264,0.029,0.562,0.058,0.896,0.084s0.633,0.048,0.896,0.066
		c0.141,0,0.325,0,0.554,0s0.479-0.003,0.751-0.01c0.273-0.006,0.557-0.012,0.854-0.018c0.295-0.006,0.58-0.014,0.852-0.021
		c0.273-0.01,0.523-0.017,0.752-0.022s0.413-0.012,0.554-0.018c0.193-0.006,0.396-0.018,0.606-0.035s0.42-0.036,0.629-0.058
		c0.207-0.02,0.408-0.04,0.602-0.061s0.372-0.043,0.536-0.066L33.818,5.186z M32.764,8.271c-0.357-0.018-0.747-0.031-1.169-0.039
		c-0.422-0.01-0.84-0.013-1.252-0.01c-0.414,0.003-0.808,0.01-1.183,0.018c-0.375,0.01-0.691,0.022-0.949,0.04
		c-0.24,0.018-0.409-0.028-0.505-0.136c-0.098-0.109-0.146-0.23-0.146-0.365V6.873c0-0.123-0.006-0.221-0.018-0.294
		S27.5,6.444,27.45,6.394c-0.05-0.049-0.127-0.092-0.232-0.127s-0.249-0.076-0.431-0.123l0.167-0.387
		c0.088,0.012,0.207,0.026,0.355,0.044c0.15,0.018,0.305,0.038,0.467,0.062c0.16,0.023,0.317,0.046,0.47,0.066
		s0.272,0.036,0.36,0.048c-0.006,0.035-0.012,0.082-0.018,0.141s-0.012,0.122-0.018,0.188c-0.006,0.068-0.011,0.136-0.014,0.203
		s-0.004,0.127-0.004,0.18v0.809c0,0.1,0.009,0.158,0.026,0.176s0.07,0.029,0.158,0.035c0.146,0,0.326-0.002,0.54-0.004
		c0.214-0.004,0.449-0.01,0.703-0.018c0.256-0.01,0.52-0.02,0.791-0.031c0.273-0.012,0.538-0.028,0.796-0.049
		s0.502-0.041,0.733-0.061c0.231-0.021,0.43-0.046,0.594-0.075L32.764,8.271z M30.312,0.677c0.252,0.041,0.483,0.109,0.694,0.207
		c0.211,0.096,0.392,0.214,0.54,0.352c0.15,0.138,0.266,0.293,0.348,0.465c0.082,0.174,0.123,0.356,0.123,0.55
		c0,0.229-0.056,0.442-0.167,0.642s-0.267,0.372-0.466,0.519s-0.436,0.261-0.707,0.343c-0.273,0.082-0.567,0.123-0.884,0.123
		s-0.606-0.041-0.87-0.123s-0.492-0.196-0.686-0.343s-0.345-0.319-0.453-0.519s-0.162-0.413-0.162-0.642
		c0-0.199,0.044-0.387,0.132-0.562s0.212-0.334,0.374-0.475c0.16-0.141,0.352-0.258,0.57-0.352c0.221-0.094,0.462-0.155,0.726-0.185
		c-0.012-0.082-0.043-0.146-0.093-0.193s-0.142-0.094-0.276-0.141l0.167-0.308c0.064,0.012,0.149,0.028,0.255,0.048
		c0.105,0.021,0.216,0.043,0.329,0.066c0.115,0.023,0.228,0.046,0.339,0.066s0.205,0.036,0.281,0.048
		c-0.012,0.047-0.029,0.107-0.053,0.181S30.329,0.595,30.312,0.677z M30.988,2.215c0-0.146-0.032-0.287-0.097-0.422
		s-0.149-0.252-0.255-0.352s-0.229-0.179-0.369-0.237s-0.287-0.088-0.439-0.088c-0.158,0-0.307,0.029-0.444,0.088
		s-0.259,0.138-0.364,0.237s-0.188,0.217-0.251,0.352c-0.061,0.135-0.092,0.275-0.092,0.422c0,0.164,0.031,0.313,0.092,0.448
		c0.062,0.135,0.144,0.249,0.246,0.343s0.225,0.167,0.365,0.22s0.29,0.079,0.448,0.079s0.308-0.026,0.448-0.079
		s0.264-0.126,0.369-0.22s0.189-0.208,0.25-0.343C30.958,2.528,30.988,2.379,30.988,2.215z"/>
	<path d="M3.766,45.476c0,0.152-0.004,0.318-0.014,0.497c-0.008,0.179-0.021,0.355-0.035,0.531s-0.03,0.346-0.048,0.51
		s-0.038,0.308-0.062,0.431l-0.756,0.123c-0.012-0.1-0.021-0.226-0.031-0.378c-0.008-0.152-0.016-0.312-0.021-0.479
		c-0.006-0.168-0.011-0.334-0.014-0.502c-0.003-0.166-0.004-0.314-0.004-0.443v-1.397c-0.117,0.012-0.231,0.02-0.343,0.022
		s-0.223,0.01-0.334,0.021c-0.064,0.006-0.155,0.015-0.272,0.026s-0.245,0.025-0.383,0.04s-0.275,0.03-0.412,0.048
		c-0.139,0.018-0.257,0.035-0.356,0.053l-0.492-0.87c0.088,0.012,0.202,0.025,0.343,0.039c0.141,0.016,0.285,0.028,0.436,0.04
		c0.148,0.012,0.291,0.021,0.426,0.026s0.237,0.006,0.308,0c0.861-0.035,1.661-0.094,2.399-0.176s1.444-0.202,2.118-0.36v0.475
		c-0.428,0.105-0.841,0.196-1.239,0.272s-0.803,0.146-1.213,0.211V45.476z M5.11,42.266c0.064-0.006,0.126-0.012,0.185-0.018
		s0.114-0.012,0.167-0.018l-0.185,0.749c-0.205-0.012-0.431-0.021-0.677-0.026s-0.501-0.01-0.765-0.014
		c-0.264-0.002-0.529-0.002-0.795,0c-0.268,0.004-0.518,0.008-0.752,0.014c-0.006,0.029-0.012,0.063-0.018,0.102
		s-0.015,0.083-0.026,0.136L1.56,43.296c-0.029-0.111-0.059-0.254-0.088-0.427s-0.053-0.336-0.07-0.489l-0.105-1.27
		c-0.012-0.105-0.023-0.189-0.035-0.251c-0.012-0.062-0.037-0.113-0.075-0.154s-0.095-0.078-0.171-0.11s-0.182-0.066-0.316-0.102
		l0.193-0.37c0.768,0.1,1.532,0.14,2.294,0.119s1.529-0.063,2.303-0.128c-0.029,0.141-0.061,0.303-0.092,0.484
		c-0.033,0.183-0.066,0.371-0.102,0.564c-0.035,0.194-0.069,0.387-0.102,0.578C5.161,41.932,5.134,42.106,5.11,42.266z
		 M4.293,40.765c-0.357-0.018-0.696-0.021-1.016-0.009s-0.646,0.029-0.979,0.053l0.062,1.415c0,0.041,0,0.075,0,0.101
		c0,0.027,0.003,0.061,0.009,0.102c0.281-0.012,0.587-0.024,0.919-0.039c0.33-0.015,0.646-0.037,0.944-0.066L4.293,40.765z
		 M6.358,45.379c-0.17,0.006-0.351,0.017-0.54,0.031c-0.191,0.015-0.377,0.03-0.559,0.048s-0.352,0.037-0.51,0.058
		s-0.29,0.039-0.396,0.057L3.977,44.79c0.059,0.012,0.144,0.022,0.255,0.03c0.111,0.01,0.229,0.017,0.352,0.022
		s0.246,0.011,0.369,0.013c0.123,0.004,0.229,0.005,0.316,0.005c0.129-0.006,0.29-0.012,0.483-0.018s0.396-0.012,0.606-0.018v-4.509
		c0-0.17-0.085-0.309-0.255-0.418c-0.17-0.107-0.451-0.212-0.844-0.312L5.444,39.2c0.141,0.018,0.304,0.041,0.487,0.07
		c0.186,0.029,0.369,0.062,0.555,0.097c0.184,0.035,0.361,0.067,0.531,0.097s0.311,0.053,0.422,0.07
		c-0.012,0.053-0.021,0.123-0.031,0.211c-0.008,0.088-0.018,0.176-0.025,0.264c-0.01,0.088-0.017,0.166-0.022,0.233
		s-0.009,0.104-0.009,0.109v4.825c0,0.182-0.004,0.392-0.014,0.628c-0.008,0.238-0.021,0.477-0.035,0.717S7.271,46.99,7.25,47.207
		s-0.039,0.39-0.057,0.519L6.42,47.831c-0.006-0.094-0.012-0.222-0.018-0.382c-0.006-0.162-0.012-0.336-0.018-0.523
		s-0.012-0.378-0.018-0.571s-0.009-0.375-0.009-0.545V45.379z"/>
	<path d="M16.738,44.377c-0.117-0.006-0.257-0.012-0.417-0.018c-0.162-0.006-0.336-0.01-0.523-0.014
		c-0.188-0.002-0.381-0.007-0.58-0.013s-0.396-0.009-0.589-0.009c-0.158-0.006-0.362-0.008-0.61-0.005
		c-0.25,0.003-0.52,0.008-0.809,0.014c-0.291,0.006-0.59,0.013-0.896,0.022c-0.309,0.008-0.6,0.018-0.875,0.025
		c-0.275,0.01-0.523,0.02-0.742,0.031c-0.221,0.012-0.386,0.021-0.497,0.026c-0.105,0.006-0.222,0.015-0.347,0.026
		C9.726,44.477,9.599,44.488,9.47,44.5s-0.257,0.025-0.383,0.039c-0.126,0.016-0.238,0.028-0.338,0.04L8.397,43.7
		c0.264,0.029,0.562,0.058,0.896,0.084s0.633,0.048,0.896,0.066c0.141,0,0.325,0,0.554,0s0.479-0.003,0.751-0.01
		c0.273-0.006,0.557-0.012,0.854-0.018c0.295-0.006,0.58-0.013,0.852-0.022c0.273-0.008,0.523-0.016,0.752-0.021
		s0.413-0.012,0.554-0.018c0.193-0.006,0.396-0.018,0.606-0.035s0.42-0.036,0.629-0.057c0.207-0.021,0.408-0.041,0.602-0.062
		c0.193-0.02,0.372-0.042,0.536-0.065L16.738,44.377z M9.716,39.763c0.252,0.047,0.541,0.081,0.865,0.101
		c0.326,0.021,0.668,0.033,1.029,0.035c0.359,0.004,0.723,0,1.09-0.008c0.365-0.01,0.716-0.023,1.05-0.045
		c0.334-0.02,0.638-0.043,0.909-0.07c0.273-0.025,0.494-0.054,0.664-0.083l-0.149,0.782c-0.709-0.029-1.406-0.044-2.092-0.044
		s-1.286,0.015-1.802,0.044v1.626c0,0.094,0.009,0.149,0.026,0.167s0.079,0.029,0.185,0.035c0.217,0,0.49-0.006,0.822-0.018
		c0.33-0.012,0.678-0.029,1.041-0.053s0.724-0.05,1.081-0.079s0.674-0.062,0.949-0.097l-0.167,0.8
		c-0.352-0.018-0.723-0.03-1.111-0.04c-0.391-0.008-0.773-0.011-1.152-0.008c-0.377,0.003-0.738,0.012-1.08,0.025
		c-0.344,0.016-0.644,0.031-0.901,0.049c-0.229,0.018-0.401-0.038-0.519-0.167s-0.176-0.281-0.176-0.457V40.87
		c0-0.111-0.008-0.203-0.021-0.276c-0.016-0.073-0.049-0.137-0.102-0.189s-0.129-0.098-0.229-0.137
		c-0.1-0.037-0.237-0.08-0.413-0.127L9.716,39.763z M15.684,47.471c-0.357-0.018-0.747-0.031-1.169-0.039
		c-0.422-0.01-0.84-0.013-1.252-0.01c-0.414,0.003-0.808,0.01-1.183,0.018c-0.375,0.01-0.691,0.022-0.949,0.04
		c-0.24,0.018-0.409-0.028-0.505-0.136c-0.098-0.109-0.146-0.23-0.146-0.365v-0.923c0-0.123-0.006-0.221-0.018-0.294
		s-0.043-0.135-0.093-0.186c-0.05-0.049-0.127-0.092-0.232-0.127s-0.249-0.076-0.431-0.123l0.167-0.404
		c0.088,0.018,0.207,0.037,0.355,0.057c0.15,0.021,0.305,0.043,0.467,0.066c0.16,0.023,0.317,0.046,0.47,0.066
		s0.272,0.036,0.36,0.048c-0.006,0.035-0.012,0.082-0.018,0.141s-0.012,0.122-0.018,0.188c-0.006,0.068-0.011,0.136-0.014,0.203
		s-0.004,0.127-0.004,0.18v0.826c0,0.1,0.009,0.158,0.026,0.176s0.07,0.029,0.158,0.035c0.146,0,0.326-0.002,0.54-0.004
		c0.214-0.004,0.449-0.01,0.703-0.018c0.256-0.01,0.52-0.02,0.791-0.031c0.273-0.012,0.538-0.028,0.796-0.049
		s0.502-0.041,0.733-0.061c0.231-0.021,0.43-0.046,0.594-0.075L15.684,47.471z"/>
	<path d="M20.799,43.243c0.311,0.246,0.647,0.507,1.011,0.782s0.729,0.527,1.099,0.756l-0.738,0.65
		c-0.281-0.299-0.566-0.602-0.857-0.91c-0.289-0.307-0.581-0.602-0.874-0.883c-0.387,0.41-0.809,0.787-1.266,1.129
		c-0.457,0.344-0.938,0.655-1.441,0.937l-0.264-0.334c0.398-0.258,0.78-0.55,1.147-0.874c0.365-0.326,0.698-0.665,0.997-1.02
		s0.558-0.718,0.778-1.09c0.219-0.372,0.382-0.734,0.487-1.086c-0.088,0-0.19,0.003-0.308,0.009s-0.237,0.012-0.36,0.018
		s-0.243,0.012-0.36,0.018s-0.217,0.009-0.299,0.009c-0.064,0-0.151,0.006-0.26,0.018s-0.226,0.023-0.352,0.035
		s-0.252,0.026-0.377,0.044c-0.127,0.018-0.239,0.032-0.339,0.044l-0.536-0.835c0.076,0.012,0.179,0.026,0.308,0.044
		s0.267,0.034,0.413,0.049s0.288,0.027,0.426,0.039s0.257,0.018,0.356,0.018c0.211,0,0.437-0.004,0.677-0.014
		c0.24-0.008,0.479-0.021,0.717-0.039c0.236-0.018,0.464-0.041,0.681-0.07s0.41-0.062,0.58-0.097l0.334,0.308
		C21.874,41.746,21.414,42.528,20.799,43.243z M22.372,39.2c0.135,0.018,0.293,0.041,0.475,0.07s0.366,0.062,0.554,0.097
		s0.367,0.067,0.541,0.097c0.172,0.029,0.314,0.053,0.426,0.07c-0.012,0.053-0.021,0.123-0.031,0.211
		c-0.008,0.088-0.019,0.176-0.03,0.264s-0.021,0.166-0.026,0.233s-0.009,0.104-0.009,0.109v4.825c0,0.182-0.005,0.392-0.013,0.628
		c-0.01,0.238-0.022,0.477-0.04,0.717s-0.037,0.469-0.058,0.686s-0.042,0.39-0.065,0.519l-0.729,0.105
		c-0.018-0.094-0.032-0.222-0.044-0.382c-0.012-0.162-0.022-0.336-0.03-0.523c-0.01-0.188-0.016-0.378-0.018-0.571
		c-0.004-0.193-0.005-0.375-0.005-0.545v-5.493c0-0.17-0.087-0.309-0.259-0.418c-0.174-0.107-0.453-0.212-0.84-0.312L22.372,39.2z"
		/>
	<path d="M5.44,79.569c-0.018,0.129-0.038,0.257-0.062,0.383s-0.047,0.253-0.07,0.382H4.975c-0.967,0-1.851,0.018-2.649,0.053
		c-0.801,0.035-1.449,0.091-1.947,0.167c-0.064-0.141-0.127-0.282-0.189-0.426C0.128,79.984,0.064,79.845,0,79.71
		c0.07,0.018,0.168,0.035,0.294,0.053s0.26,0.034,0.4,0.049s0.275,0.025,0.404,0.035c0.129,0.008,0.231,0.013,0.308,0.013
		c0.193,0,0.455-0.006,0.786-0.018s0.688-0.027,1.068-0.048s0.763-0.05,1.146-0.088S5.136,79.622,5.44,79.569z M4.711,81.942
		c0,0.188-0.048,0.365-0.146,0.531c-0.096,0.168-0.229,0.314-0.399,0.439c-0.17,0.127-0.372,0.227-0.606,0.299
		c-0.234,0.074-0.486,0.11-0.756,0.11s-0.521-0.036-0.752-0.11C1.82,83.14,1.62,83.038,1.45,82.909s-0.303-0.275-0.4-0.439
		c-0.096-0.164-0.145-0.34-0.145-0.527c0-0.199,0.049-0.384,0.145-0.554c0.098-0.17,0.23-0.316,0.4-0.439s0.37-0.22,0.602-0.29
		s0.482-0.105,0.752-0.105c0.281,0,0.539,0.038,0.773,0.114s0.436,0.179,0.602,0.308c0.168,0.129,0.298,0.277,0.392,0.443
		C4.664,81.587,4.711,81.761,4.711,81.942z M4.184,78.822c-0.029,0.117-0.058,0.23-0.083,0.339
		c-0.027,0.108-0.055,0.221-0.084,0.338c-0.1,0-0.213,0-0.338,0c-0.127,0-0.251,0.002-0.374,0.004
		c-0.123,0.004-0.239,0.007-0.347,0.01c-0.109,0.003-0.201,0.004-0.277,0.004c-0.047,0-0.111,0.002-0.193,0.004
		c-0.082,0.004-0.172,0.01-0.268,0.018c-0.098,0.01-0.195,0.018-0.295,0.027c-0.1,0.008-0.188,0.019-0.264,0.03
		c-0.076-0.135-0.148-0.265-0.215-0.392c-0.068-0.125-0.14-0.256-0.216-0.391c0.07,0.018,0.167,0.035,0.29,0.053
		s0.25,0.034,0.383,0.049c0.131,0.015,0.256,0.027,0.373,0.039s0.208,0.018,0.272,0.018c0.07,0,0.171-0.004,0.304-0.014
		c0.131-0.008,0.274-0.02,0.43-0.035c0.155-0.014,0.312-0.03,0.471-0.048S4.055,78.84,4.184,78.822z M5.616,84.816
		c0.006-0.129,0.01-0.255,0.014-0.378c0.002-0.123,0.007-0.246,0.013-0.369c-0.053,0-0.107-0.001-0.163-0.004
		s-0.115-0.005-0.18-0.005c-0.275,0-0.568,0.011-0.879,0.03c-0.311,0.021-0.586,0.037-0.826,0.049
		c-0.064,0.006-0.151,0.014-0.26,0.021c-0.108,0.01-0.226,0.02-0.352,0.031s-0.254,0.028-0.387,0.049
		c-0.131,0.021-0.253,0.042-0.364,0.065c-0.076-0.135-0.155-0.267-0.237-0.396s-0.161-0.261-0.237-0.396
		c0.105,0.029,0.251,0.052,0.435,0.065c0.186,0.016,0.368,0.027,0.55,0.035c0.182,0.01,0.344,0.016,0.487,0.018
		c0.144,0.004,0.225,0.005,0.242,0.005c0.229,0,0.483-0.001,0.765-0.005c0.281-0.002,0.569-0.01,0.866-0.021
		c0.295-0.012,0.588-0.024,0.879-0.039c0.289-0.015,0.558-0.037,0.804-0.066c-0.023,0.111-0.044,0.205-0.062,0.281
		s-0.035,0.152-0.053,0.229s-0.029,0.138-0.035,0.185c-0.018,0.088-0.035,0.178-0.053,0.269s-0.032,0.177-0.044,0.259
		c0.035-0.006,0.073-0.007,0.114-0.005c0.041,0.004,0.076,0.002,0.105-0.004c-0.012,0.111-0.025,0.22-0.039,0.325
		c-0.016,0.105-0.028,0.214-0.04,0.325c-0.457-0.018-0.917-0.026-1.38-0.026c-0.416,0-0.8,0.006-1.151,0.018
		s-0.624,0.023-0.817,0.035c-0.006,0.053-0.011,0.096-0.014,0.128s-0.004,0.068-0.004,0.109v0.404c0,0.047,0.001,0.082,0.004,0.105
		s0.017,0.039,0.04,0.049c0.023,0.008,0.062,0.013,0.114,0.013s0.129,0,0.229,0c0.229,0,0.496-0.008,0.805-0.022
		c0.307-0.015,0.622-0.035,0.944-0.061c0.322-0.027,0.636-0.057,0.94-0.088c0.305-0.033,0.568-0.069,0.791-0.11
		c-0.029,0.135-0.059,0.27-0.088,0.404s-0.059,0.27-0.088,0.404c-0.24-0.012-0.492-0.02-0.756-0.022s-0.533-0.004-0.809-0.004
		c-0.475,0-0.935,0.01-1.38,0.031c-0.445,0.02-0.826,0.03-1.143,0.03c-0.217,0-0.368-0.052-0.452-0.153
		c-0.086-0.104-0.128-0.23-0.128-0.383v-0.483c0-0.1-0.008-0.182-0.022-0.246s-0.043-0.118-0.088-0.163
		c-0.043-0.043-0.106-0.083-0.188-0.118s-0.193-0.076-0.334-0.123c0.029-0.053,0.059-0.106,0.088-0.163
		c0.029-0.055,0.062-0.109,0.097-0.162c0.293,0.029,0.602,0.05,0.928,0.062c0.324,0.012,0.657,0.018,0.997,0.018
		c0.316,0,0.627-0.003,0.932-0.009S5.341,84.828,5.616,84.816z M1.951,81.911c0,0.118,0.023,0.23,0.07,0.336
		c0.047,0.106,0.11,0.2,0.188,0.283c0.08,0.082,0.17,0.146,0.273,0.194c0.102,0.047,0.212,0.07,0.329,0.07
		c0.111,0,0.218-0.022,0.321-0.066c0.102-0.044,0.194-0.105,0.276-0.186c0.082-0.079,0.147-0.174,0.198-0.282
		c0.049-0.109,0.074-0.226,0.074-0.35c0-0.117-0.025-0.23-0.074-0.34c-0.051-0.108-0.115-0.204-0.193-0.287
		c-0.08-0.082-0.172-0.146-0.277-0.194c-0.105-0.047-0.214-0.07-0.325-0.07c-0.234,0-0.437,0.083-0.606,0.247
		C2.036,81.432,1.951,81.646,1.951,81.911z M6.732,81.942c0,0.105-0.006,0.222-0.018,0.348s-0.025,0.252-0.04,0.377
		c-0.015,0.127-0.029,0.246-0.043,0.361c-0.016,0.113-0.028,0.206-0.04,0.276c-0.123,0.018-0.251,0.037-0.382,0.058
		c-0.133,0.021-0.263,0.039-0.392,0.057c-0.012-0.059-0.022-0.137-0.03-0.232c-0.01-0.098-0.017-0.199-0.022-0.309
		c-0.006-0.107-0.012-0.216-0.018-0.324s-0.009-0.204-0.009-0.286v-2.742c0-0.17-0.082-0.311-0.246-0.422s-0.448-0.217-0.853-0.316
		c0.035-0.064,0.07-0.129,0.105-0.193s0.067-0.129,0.097-0.193c0.141,0.018,0.305,0.043,0.492,0.075s0.375,0.064,0.562,0.096
		c0.188,0.033,0.366,0.063,0.536,0.093s0.311,0.053,0.422,0.07c-0.018,0.053-0.034,0.123-0.048,0.211
		c-0.016,0.088-0.028,0.176-0.04,0.264s-0.021,0.166-0.026,0.233s-0.009,0.104-0.009,0.109v1.749
		c0.129-0.012,0.271-0.026,0.427-0.044c0.154-0.018,0.309-0.036,0.461-0.057s0.3-0.041,0.443-0.062
		c0.144-0.02,0.269-0.039,0.374-0.057c-0.012,0.129-0.028,0.261-0.048,0.396c-0.021,0.135-0.037,0.267-0.049,0.396
		c-0.088,0-0.196-0.001-0.325-0.004s-0.267-0.005-0.413-0.005s-0.296,0-0.448,0s-0.293,0-0.422,0V81.942z"/>
	<path d="M16.04,84.896c0,0.158-0.004,0.327-0.014,0.506c-0.008,0.179-0.019,0.355-0.03,0.531s-0.028,0.346-0.048,0.51
		c-0.021,0.164-0.04,0.308-0.058,0.431L15.1,87.005c-0.012-0.1-0.021-0.226-0.026-0.378s-0.011-0.313-0.014-0.483
		s-0.004-0.338-0.004-0.506c0-0.166,0-0.314,0-0.443v-1.775c-0.223,0-0.439,0.003-0.65,0.009s-0.407,0.012-0.589,0.018
		s-0.345,0.013-0.487,0.022c-0.145,0.008-0.26,0.016-0.348,0.021c-0.111,0.012-0.231,0.023-0.36,0.035s-0.257,0.025-0.382,0.039
		c-0.127,0.016-0.251,0.028-0.374,0.04s-0.234,0.023-0.334,0.035l-0.352-0.861c0.129,0.018,0.271,0.034,0.427,0.048
		c0.154,0.016,0.312,0.028,0.475,0.04c0.16,0.012,0.318,0.022,0.475,0.03c0.154,0.009,0.294,0.017,0.417,0.022
		c0.141,0.005,0.322,0.008,0.545,0.008s0.466-0.001,0.729-0.004s0.537-0.009,0.822-0.018c0.283-0.009,0.558-0.016,0.821-0.021
		s0.505-0.013,0.726-0.022c0.219-0.008,0.399-0.016,0.54-0.021c0.193-0.006,0.396-0.018,0.606-0.035s0.42-0.036,0.629-0.057
		c0.207-0.021,0.408-0.043,0.602-0.066s0.369-0.047,0.527-0.07l-0.123,0.826c-0.117-0.006-0.257-0.012-0.418-0.018
		s-0.335-0.012-0.522-0.018s-0.381-0.012-0.58-0.018s-0.396-0.009-0.589-0.009c-0.152,0-0.333,0-0.541,0s-0.443,0.009-0.707,0.026
		V84.896z M15.68,79.947c0.498,0.258,1.028,0.5,1.591,0.726s1.104,0.423,1.626,0.593l-0.703,0.721
		c-0.193-0.111-0.409-0.235-0.646-0.374c-0.238-0.137-0.484-0.279-0.738-0.426c-0.256-0.146-0.512-0.291-0.77-0.436
		c-0.258-0.143-0.504-0.279-0.738-0.408c-0.457,0.451-0.967,0.838-1.529,1.16s-1.14,0.595-1.731,0.817l-0.264-0.369
		c0.732-0.322,1.38-0.708,1.942-1.155c0.562-0.449,0.996-0.916,1.301-1.402c0.029-0.053,0.041-0.102,0.035-0.145
		c-0.006-0.045-0.018-0.075-0.035-0.093c-0.029-0.018-0.07-0.044-0.123-0.079s-0.109-0.068-0.172-0.102
		c-0.061-0.031-0.118-0.061-0.171-0.088c-0.053-0.025-0.091-0.042-0.114-0.048l0.281-0.316c0.111,0.035,0.24,0.073,0.387,0.114
		s0.296,0.084,0.448,0.127c0.152,0.045,0.302,0.088,0.448,0.133c0.146,0.043,0.272,0.086,0.378,0.127
		c-0.1,0.164-0.208,0.324-0.325,0.479C15.94,79.659,15.814,79.807,15.68,79.947z"/>
	<path d="M3.319,118.787c0.24,0.041,0.458,0.111,0.654,0.211s0.365,0.222,0.506,0.365s0.249,0.306,0.325,0.487
		s0.114,0.372,0.114,0.571c0,0.24-0.053,0.461-0.158,0.664c-0.105,0.201-0.25,0.377-0.436,0.527
		c-0.184,0.148-0.402,0.267-0.654,0.352s-0.527,0.127-0.826,0.127c-0.305,0-0.586-0.042-0.844-0.127s-0.479-0.203-0.664-0.352
		c-0.184-0.15-0.328-0.326-0.43-0.527c-0.104-0.203-0.154-0.424-0.154-0.664c0-0.205,0.041-0.401,0.123-0.589
		s0.199-0.356,0.352-0.505c0.152-0.15,0.335-0.273,0.549-0.369c0.214-0.098,0.45-0.16,0.708-0.189
		c-0.012-0.064-0.044-0.117-0.097-0.158s-0.146-0.085-0.281-0.132l0.185-0.316c0.064,0.012,0.147,0.028,0.251,0.048
		c0.102,0.021,0.207,0.043,0.316,0.066c0.107,0.023,0.213,0.046,0.316,0.066c0.102,0.021,0.188,0.039,0.259,0.057
		c-0.012,0.047-0.03,0.104-0.058,0.172C3.351,118.64,3.331,118.711,3.319,118.787z M3.855,124.113
		c0.182,0.176,0.358,0.334,0.532,0.475c0.172,0.141,0.361,0.281,0.566,0.422c0.188-0.264,0.355-0.537,0.506-0.822
		c0.148-0.283,0.265-0.558,0.347-0.821c0.018-0.059,0.023-0.11,0.018-0.153c-0.006-0.045-0.012-0.069-0.018-0.075
		s-0.03-0.023-0.075-0.053c-0.043-0.029-0.094-0.062-0.148-0.097c-0.057-0.035-0.112-0.07-0.168-0.105s-0.098-0.062-0.127-0.079
		l0.22-0.308c0.076,0.012,0.185,0.035,0.325,0.07s0.287,0.073,0.439,0.114s0.299,0.082,0.439,0.123s0.252,0.076,0.334,0.105
		c-0.064,0.211-0.144,0.416-0.237,0.615s-0.193,0.39-0.299,0.571c0.299,0.299,0.61,0.574,0.937,0.826
		c0.324,0.252,0.622,0.469,0.892,0.65l-0.756,0.659l-1.424-1.644c-0.264,0.352-0.553,0.668-0.866,0.949s-0.637,0.533-0.971,0.756
		l-0.299-0.281c0.082-0.064,0.155-0.127,0.22-0.189c0.064-0.061,0.123-0.13,0.176-0.206l-0.896-1.028
		c-0.281,0.322-0.591,0.621-0.927,0.896c-0.338,0.275-0.699,0.533-1.086,0.773l-0.281-0.334c0.223-0.152,0.432-0.328,0.629-0.527
		c0.195-0.199,0.377-0.407,0.545-0.624c0.166-0.217,0.317-0.437,0.452-0.659s0.252-0.439,0.352-0.65
		c0.047-0.088,0.059-0.15,0.035-0.189c-0.023-0.037-0.035-0.06-0.035-0.065c-0.012-0.006-0.038-0.023-0.079-0.053
		s-0.09-0.062-0.145-0.097c-0.057-0.035-0.112-0.068-0.168-0.102c-0.056-0.031-0.098-0.057-0.127-0.074l0.211-0.316
		c0.076,0.018,0.185,0.046,0.325,0.084s0.287,0.077,0.439,0.118s0.297,0.082,0.435,0.123s0.248,0.073,0.33,0.097
		c-0.064,0.199-0.146,0.395-0.246,0.584C4.081,123.764,3.973,123.943,3.855,124.113z M3.899,120.387
		c0-0.158-0.028-0.308-0.084-0.448s-0.131-0.262-0.229-0.364c-0.096-0.103-0.208-0.184-0.334-0.242s-0.259-0.088-0.399-0.088
		c-0.152,0-0.293,0.029-0.422,0.088s-0.241,0.14-0.339,0.242c-0.096,0.103-0.173,0.224-0.229,0.364s-0.083,0.29-0.083,0.448
		c0,0.164,0.027,0.315,0.083,0.453s0.133,0.256,0.229,0.355c0.098,0.1,0.21,0.178,0.339,0.232c0.129,0.057,0.27,0.084,0.422,0.084
		c0.141,0,0.275-0.027,0.404-0.084c0.129-0.055,0.24-0.133,0.334-0.232s0.168-0.218,0.224-0.355S3.899,120.551,3.899,120.387z
		 M5.297,117.601c0.135,0.018,0.293,0.041,0.475,0.07s0.366,0.062,0.554,0.097s0.367,0.067,0.541,0.097
		c0.172,0.029,0.314,0.053,0.426,0.07c-0.012,0.053-0.023,0.123-0.035,0.211s-0.021,0.176-0.031,0.264
		c-0.008,0.088-0.018,0.166-0.025,0.233c-0.01,0.067-0.014,0.104-0.014,0.109v2.232c0,0.105-0.006,0.23-0.018,0.373
		c-0.012,0.145-0.025,0.288-0.039,0.432c-0.016,0.144-0.031,0.279-0.049,0.408s-0.035,0.229-0.053,0.299l-0.765,0.105
		c-0.012-0.059-0.021-0.137-0.026-0.232c-0.006-0.098-0.014-0.199-0.021-0.309c-0.01-0.107-0.016-0.216-0.018-0.324
		c-0.004-0.108-0.005-0.204-0.005-0.286v-2.733c0-0.17-0.087-0.309-0.259-0.418c-0.174-0.107-0.453-0.212-0.84-0.312L5.297,117.601z
		"/>
	<path d="M14.191,118.717c0-0.17-0.081-0.309-0.242-0.418c-0.161-0.107-0.435-0.212-0.821-0.312l0.149-0.387
		c0.146,0.018,0.314,0.041,0.506,0.07c0.189,0.029,0.377,0.062,0.562,0.097c0.184,0.035,0.359,0.067,0.527,0.097
		c0.166,0.029,0.303,0.053,0.408,0.07c-0.012,0.053-0.023,0.123-0.035,0.211s-0.021,0.176-0.031,0.264
		c-0.008,0.088-0.016,0.166-0.021,0.233s-0.009,0.104-0.009,0.109v2.355c0.129-0.012,0.271-0.024,0.427-0.039
		c0.154-0.015,0.312-0.031,0.47-0.049s0.311-0.036,0.457-0.057s0.278-0.043,0.396-0.066l-0.105,0.817
		c-0.094-0.006-0.207-0.009-0.338-0.009c-0.133,0-0.273,0-0.422,0c-0.15,0-0.303,0-0.457,0c-0.156,0-0.298,0-0.427,0v1.872
		c0,0.182-0.003,0.392-0.009,0.628c-0.006,0.238-0.015,0.477-0.026,0.717s-0.026,0.469-0.044,0.686s-0.035,0.39-0.053,0.519
		l-0.773,0.105c-0.012-0.094-0.021-0.222-0.031-0.382c-0.008-0.162-0.018-0.336-0.025-0.523c-0.01-0.188-0.017-0.378-0.022-0.571
		s-0.009-0.375-0.009-0.545v-1.608c-0.27,0.105-0.57,0.213-0.9,0.32c-0.332,0.109-0.664,0.213-0.998,0.312s-0.658,0.187-0.971,0.26
		c-0.314,0.073-0.591,0.127-0.831,0.162c-0.334,0.053-0.574,0.014-0.721-0.119c-0.146-0.131-0.22-0.341-0.22-0.628v-2.549
		c0-0.1-0.009-0.186-0.026-0.259s-0.055-0.138-0.11-0.193s-0.135-0.105-0.236-0.15c-0.104-0.043-0.236-0.089-0.4-0.136l0.149-0.396
		c0.34,0.053,0.706,0.087,1.099,0.102s0.787,0.015,1.182,0c0.396-0.015,0.778-0.041,1.147-0.08c0.369-0.037,0.7-0.083,0.993-0.136
		l-0.141,0.782c-0.545-0.023-1.041-0.032-1.49-0.026c-0.447,0.006-0.842,0.023-1.182,0.053v2.812c0,0.082,0.009,0.14,0.026,0.171
		c0.018,0.033,0.047,0.049,0.088,0.049c0.176-0.012,0.409-0.045,0.698-0.102c0.291-0.055,0.6-0.119,0.928-0.193
		c0.328-0.072,0.66-0.154,0.998-0.246c0.336-0.09,0.643-0.177,0.918-0.259V118.717z"/>
	<path d="M18.085,124.228c0.193,0,0.357,0.065,0.492,0.198c0.135,0.131,0.202,0.279,0.202,0.443c0,0.17-0.067,0.32-0.202,0.453
		c-0.135,0.131-0.299,0.197-0.492,0.197c-0.094,0-0.184-0.018-0.268-0.053c-0.086-0.035-0.158-0.084-0.221-0.145
		c-0.061-0.062-0.111-0.131-0.148-0.207c-0.039-0.076-0.058-0.158-0.058-0.246c0-0.082,0.019-0.161,0.058-0.237
		c0.037-0.076,0.088-0.146,0.148-0.206c0.062-0.062,0.135-0.11,0.221-0.146C17.901,124.245,17.991,124.228,18.085,124.228z"/>
</g>
</svg>