<!-- Generator: Adobe Illustrator 21.1.0, SVG Export Plug-In  -->
<svg version="1.1"
	 xmlns="http://www.w3.org/2000/svg" xmlns:xlink="http://www.w3.org/1999/xlink" xmlns:a="http://ns.adobe.com/AdobeSVGViewerExtensions/3.0/"
	 x="0px" y="0px" width="202px" height="26.28px" viewBox="0 0 202 26.28" style="enable-background:new 0 0 202 26.28;"
	 xml:space="preserve">
<style type="text/css">
	.st0{fill:none;stroke:#000000;stroke-miterlimit:10;}
</style>
<defs>
</defs>
<g>
	<path d="M101.874,0v13.618c0,0.402,0.048,0.716,0.145,0.945c0.096,0.228,0.242,0.397,0.436,0.509
		c0.194,0.111,0.436,0.179,0.727,0.208s0.623,0.049,0.996,0.062v0.581h-5.958V15.32c0.332-0.013,0.636-0.031,0.913-0.052
		c0.277-0.021,0.519-0.086,0.727-0.197c0.208-0.111,0.37-0.28,0.488-0.509c0.117-0.228,0.176-0.558,0.176-0.986V3.384
		c0-0.374-0.031-0.664-0.093-0.872s-0.184-0.335-0.363-0.384c-0.18-0.049-0.433-0.024-0.758,0.073
		c-0.325,0.096-0.744,0.257-1.256,0.477V2.034L101.874,0z"/>
</g>
<line class="st0" x1="0" y1="21.78" x2="202" y2="21.78"/>
<line class="st0" x1="0" y1="25.78" x2="202" y2="25.78"/>
</svg>