<!-- Generator: Adobe Illustrator 21.1.0, SVG Export Plug-In  -->
<svg version="1.1"
	 xmlns="http://www.w3.org/2000/svg" xmlns:xlink="http://www.w3.org/1999/xlink" xmlns:a="http://ns.adobe.com/AdobeSVGViewerExtensions/3.0/"
	 x="0px" y="0px" width="83.608px" height="420.822px" viewBox="0 0 83.608 420.822"
	 style="enable-background:new 0 0 83.608 420.822;" xml:space="preserve">
<defs>
</defs>
<g>
	<path d="M77.624,36.663v4.888L57.986,37.59v10.62l-3.287-0.591V37l-17.868-3.54v11.463l-3.118-0.843V32.786l-20.902-4.13v-5.058
		l20.902,4.215v-11.8l-20.902-4.299V6.489l20.902,4.468V0l3.118,0.759v10.788l17.868,3.708v-11.8l3.287,0.675v11.8l19.638,4.13
		v5.057L57.986,21.07v11.631L77.624,36.663z M54.699,20.312l-17.868-3.624v11.8l17.868,3.624V20.312z"/>
	<path d="M33.039,87.485c0.224,1.629,0.463,3.272,0.716,4.931c0.253,1.656,0.548,3.384,0.886,5.183h-2.444
		c-1.181-5.17-2.107-9.776-2.781-13.822c-0.675-4.045-1.209-8.035-1.602-11.968c-0.057-0.619-0.127-1.405-0.211-2.36
		c-0.084-0.956-0.197-1.995-0.337-3.118c-0.141-1.124-0.268-2.248-0.38-3.371c-0.113-1.125-0.252-2.136-0.421-3.034l5.562-3.118
		c-0.337,1.797-0.562,3.722-0.674,5.773c-0.113,2.05-0.113,3.974,0,5.773c0,0.561,0.027,0.954,0.084,1.18l17.952-1.349
		c1.854-0.113,3.287-0.521,4.299-1.223c1.011-0.703,1.656-2.262,1.938-4.677l2.19,0.421c0,1.686-0.07,3.371-0.21,5.057
		c-0.142,1.686-0.352,3.512-0.633,5.479c-0.956-0.281-2.163-0.394-3.624-0.337c-1.462,0.056-2.726,0.14-3.792,0.253L31.69,74.421
		c0.111,1.404,0.238,2.795,0.379,4.173c0.14,1.376,0.267,2.767,0.38,4.172l18.71,0.843c0.955,0.055,1.771,0.013,2.444-0.127
		c0.675-0.141,1.265-0.436,1.771-0.885c0.505-0.45,0.927-1.082,1.264-1.896s0.646-1.841,0.928-3.076l2.022,0.843
		c-0.169,1.686-0.337,3.553-0.506,5.604c-0.169,2.051-0.478,4.004-0.927,5.858c-1.068-0.338-2.248-0.633-3.54-0.886
		c-1.293-0.252-2.474-0.436-3.54-0.548L33.039,87.485z M63.112,93.975c0.055-1.967,0.068-4.045,0.04-6.236
		c-0.027-2.191-0.083-4.313-0.164-6.363c-0.082-2.052-0.178-3.99-0.287-5.815c-0.109-1.827-0.192-3.358-0.248-4.594
		c-0.057-0.674-0.113-1.518-0.168-2.528c-0.057-1.012-0.127-2.052-0.211-3.118c-0.084-1.068-0.184-2.107-0.295-3.119
		c-0.113-1.011-0.226-1.883-0.337-2.612l5.226-2.191c-0.169,0.843-0.31,1.77-0.422,2.781c-0.113,1.012-0.211,2.064-0.295,3.16
		s-0.155,2.149-0.211,3.161c-0.057,1.011-0.084,1.938-0.084,2.781c0,2.641,0.168,6.208,0.506,10.704
		c0.337,4.494,0.954,9.551,1.854,15.171L63.112,93.975z M47.114,102.824c-0.169-3.821-0.703-7.529-1.602-11.125l4.889-2.359
		c-0.226,0.897-0.408,2.078-0.548,3.539c-0.142,1.461-0.184,2.921-0.127,4.383c0.056,1.461,0.112,2.599,0.169,3.414
		c0.055,0.813,0.111,1.53,0.168,2.148h20.06c1.854,0,3.329-0.59,4.425-1.77s2.077-3.428,2.943-6.742l2.324,0.927
		c-0.337,2.809-0.703,5.28-1.096,7.417c-0.394,2.135-0.872,4.298-1.433,6.489c-1.012-0.225-2.178-0.421-3.498-0.59
		c-1.32-0.168-2.543-0.253-3.666-0.253h-40.54c-1.742,0-3.708-0.042-5.899-0.126c-2.191-0.085-4.397-0.198-6.616-0.337
		c-2.221-0.142-4.355-0.296-6.405-0.464c-2.051-0.169-3.778-0.366-5.184-0.59l-0.422-3.287c1.068-0.113,2.318-0.197,3.751-0.253
		c1.433-0.057,2.964-0.127,4.594-0.211c1.629-0.084,3.3-0.141,5.015-0.168c1.713-0.029,3.384-0.043,5.015-0.043H47.114z
		 M83.608,108.809c-0.394,2.809-0.843,5.449-1.349,7.923c-0.506,2.472-0.983,4.804-1.433,6.995c-1.012-0.225-2.164-0.421-3.456-0.59
		c-1.293-0.169-2.501-0.253-3.624-0.253H26.549c-1.742,0-3.708-0.042-5.899-0.126c-2.191-0.085-4.397-0.184-6.616-0.295
		c-2.219-0.113-4.354-0.253-6.405-0.422c-2.051-0.169-3.778-0.366-5.184-0.59l-0.422-3.456c1.068-0.113,2.333-0.21,3.793-0.295
		c1.462-0.084,3.007-0.155,4.636-0.21c1.63-0.057,3.287-0.113,4.973-0.169c1.686-0.057,3.342-0.084,4.973-0.084h53.351
		c1.854,0,3.343-0.675,4.467-2.023s2.146-3.792,3.071-7.332L83.608,108.809z"/>
	<path d="M36.831,177.415c0.056,0.674,0.112,1.306,0.169,1.896c0.056,0.591,0.112,1.166,0.169,1.729l-4.636-1.096
		c0.28-4.496,0.407-9.201,0.379-14.117c-0.028-4.918-0.155-9.819-0.379-14.708c-1.293-0.113-2.444-0.281-3.456-0.506l-0.505-3.286
		c1.123-0.282,2.387-0.493,3.792-0.633c1.404-0.141,2.837-0.268,4.299-0.379l21.998-1.518c1.066-0.057,1.938-0.183,2.612-0.379
		c0.674-0.197,1.222-0.521,1.644-0.97c0.421-0.45,0.786-1.053,1.096-1.812c0.308-0.759,0.632-1.728,0.969-2.908l2.107,0.928
		c-0.45,3.595-0.745,7.065-0.885,10.408c-0.141,3.343-0.184,6.672-0.127,9.988c0.056,3.314,0.196,6.686,0.422,10.113
		c0.224,3.427,0.506,7.051,0.843,10.873c-1.068-0.169-2.389-0.352-3.961-0.548c-1.574-0.198-3.302-0.408-5.184-0.633
		c-1.884-0.225-3.835-0.463-5.857-0.716c-2.023-0.253-3.977-0.493-5.858-0.717c-1.883-0.225-3.666-0.421-5.352-0.59
		S38.012,177.526,36.831,177.415z M63.043,174.043c0.056-1.799,0.098-3.737,0.127-5.815c0.027-2.079,0.013-4.158-0.042-6.236
		c-0.057-2.08-0.127-4.103-0.211-6.068c-0.084-1.968-0.183-3.737-0.295-5.311l-24.442,0.759h-2.528
		c0,3.652,0.056,7.304,0.169,10.957c0.111,3.651,0.308,7.164,0.59,10.535L63.043,174.043z M83.608,187.107
		c-0.337,2.865-0.773,5.717-1.307,8.555c-0.534,2.836-1.025,5.379-1.475,7.627c-1.012-0.281-2.164-0.506-3.456-0.674
		c-1.293-0.169-2.501-0.253-3.624-0.253H26.549c-1.742,0-3.737-0.042-5.983-0.127c-2.248-0.084-4.496-0.183-6.743-0.295
		c-2.246-0.113-4.383-0.253-6.405-0.421c-2.022-0.169-3.68-0.366-4.973-0.59l-0.422-3.54c0.956-0.113,2.149-0.211,3.582-0.295
		c1.434-0.084,2.979-0.155,4.636-0.211c1.658-0.057,3.357-0.099,5.1-0.126c1.74-0.029,3.426-0.043,5.057-0.043h53.351
		c1.91,0,3.427-0.856,4.552-2.57c1.123-1.715,2.118-4.369,2.985-7.965L83.608,187.107z"/>
	<path d="M0,214.836h3.624v43.321H0V214.836z"/>
	<path d="M58.745,304.597c-2.414-0.281-4.766-0.562-7.055-0.843c-2.29-0.281-4.244-0.478-5.864-0.59
		c0.055,0.618,0.111,1.193,0.167,1.728c0.056,0.533,0.112,1.054,0.169,1.56l-4.526-1.096c0.28-4.439,0.407-8.977,0.379-13.611
		c-0.028-4.636-0.155-9.37-0.379-14.202c-1.068,0-2.221-0.141-3.456-0.421l-0.505-3.287c1.123-0.282,2.401-0.535,3.834-0.759
		c1.434-0.226,2.852-0.394,4.257-0.506l17.783-1.349c1.067-0.113,1.952-0.267,2.655-0.463c0.702-0.198,1.264-0.521,1.686-0.97
		c0.421-0.45,0.771-1.054,1.054-1.812c0.28-0.759,0.59-1.729,0.927-2.908l2.191,0.927c-0.45,3.596-0.745,7.009-0.885,10.24
		c-0.141,3.23-0.184,6.448-0.127,9.65c0.056,3.203,0.196,6.476,0.422,9.819c0.224,3.343,0.506,6.925,0.843,10.746
		c-1.573-0.226-3.484-0.492-5.731-0.801c-2.248-0.31-4.636-0.632-7.164-0.969c-0.168,1.18-0.31,2.64-0.421,4.382
		c-0.113,1.741-0.142,3.427-0.085,5.058c0.056,1.292,0.085,2.641,0.085,4.045s0.027,2.725,0.084,3.962h14.665
		c1.91,0,3.427-0.857,4.552-2.571c1.123-1.714,2.118-4.369,2.985-7.964l2.324,0.927c-0.337,2.865-0.773,5.717-1.307,8.555
		c-0.534,2.837-1.027,5.38-1.478,7.628c-1.014-0.282-2.17-0.506-3.466-0.675c-1.297-0.168-2.509-0.253-3.636-0.253H50.063
		c-1.011,0-2.191-0.042-3.539-0.126c-1.349-0.085-2.67-0.198-3.962-0.337c-1.293-0.142-2.528-0.282-3.708-0.422
		c-1.18-0.141-2.107-0.295-2.781-0.464l-0.506-3.708c1.18-0.169,2.725-0.31,4.636-0.422c1.909-0.113,3.651-0.168,5.226-0.168h10.705
		c-0.227-6.125-0.758-11.323-1.595-15.593L58.745,304.597z M68.101,299.456c0.055-1.799,0.098-3.682,0.126-5.647
		c0.028-1.968,0.014-3.934-0.042-5.899c-0.057-1.968-0.141-3.892-0.253-5.773c-0.113-1.884-0.225-3.611-0.337-5.184l-20.228,0.675
		c-0.395,0-0.83,0.013-1.307,0.042c-0.479,0.027-0.941,0.013-1.391-0.042c0,3.651,0.069,7.233,0.211,10.745
		c0.14,3.512,0.322,6.897,0.548,10.156L68.101,299.456z M30.932,289.763c0,2.922,0.042,6.124,0.127,9.608
		c0.084,3.483,0.21,6.953,0.379,10.409s0.351,6.729,0.548,9.819c0.196,3.089,0.435,5.73,0.716,7.922
		c-0.73-0.113-1.335-0.183-1.812-0.21c-0.479-0.029-0.899-0.071-1.265-0.127c-0.366-0.057-0.73-0.084-1.096-0.084
		c-0.366,0-0.772,0-1.222,0H15.171c-0.843,0-1.812-0.042-2.908-0.127c-1.096-0.084-2.19-0.183-3.286-0.295
		c-1.096-0.113-2.135-0.253-3.119-0.421c-0.982-0.169-1.755-0.338-2.317-0.506l-0.675-3.709c1.405-0.168,3.105-0.323,5.1-0.463
		c1.995-0.142,3.75-0.211,5.268-0.211H28.74c0.056-2.191,0.056-4.551,0-7.08c-0.057-2.528-0.141-5.099-0.253-7.712
		c-0.113-2.612-0.253-5.183-0.421-7.712c-0.169-2.528-0.338-4.917-0.506-7.163c-0.113-1.8-0.253-3.4-0.422-4.805
		c-0.168-1.405-0.394-3.034-0.674-4.889l5.226-2.528c-0.226,1.629-0.408,3.329-0.548,5.1
		C31.002,286.35,30.932,288.077,30.932,289.763z"/>
	<path d="M39.022,419.979c0.169-2.248,0.281-5.015,0.338-8.302c0.055-3.287,0.111-6.841,0.168-10.662
		c0-1.573-0.015-3.596-0.042-6.068c-0.029-2.473-0.084-5.155-0.169-8.049c-0.084-2.895-0.168-5.857-0.252-8.892
		c-0.085-3.034-0.169-5.929-0.253-8.681c-0.085-2.754-0.184-5.226-0.295-7.417c-0.113-2.191-0.198-3.85-0.253-4.973
		c-0.113-2.191-0.253-4.37-0.422-6.532c-0.168-2.164-0.394-4.285-0.674-6.363l5.899-2.191c-0.337,2.641-0.577,5.142-0.717,7.501
		c-0.141,2.36-0.267,4.859-0.379,7.501c-0.057,1.404-0.084,3.259-0.084,5.563c0,2.303,0.013,4.816,0.042,7.543
		c0.027,2.725,0.084,5.562,0.169,8.513c0.084,2.949,0.168,5.786,0.252,8.513c0.085,2.725,0.169,5.226,0.253,7.501
		c0.085,2.275,0.154,4.115,0.211,5.521c0.169,3.877,0.393,7.557,0.675,11.041c0.28,3.483,0.645,6.742,1.096,9.776L39.022,419.979z
		 M11.041,401.943c0.113,0.617,0.183,1.207,0.211,1.77c0.028,0.562,0.071,1.067,0.126,1.518l-4.72-1.096
		c0.169-2.305,0.295-4.96,0.38-7.965c0.084-3.007,0.126-6.125,0.126-9.355c0-3.231-0.027-6.405-0.084-9.524
		c-0.056-3.118-0.14-5.914-0.253-8.386c-1.292-0.113-2.444-0.281-3.456-0.506l-0.59-3.287c1.068-0.281,2.332-0.492,3.793-0.632
		c1.462-0.141,2.922-0.268,4.383-0.379l11.041-1.096c1.066-0.113,1.938-0.253,2.612-0.422c0.675-0.168,1.223-0.436,1.644-0.801
		c0.422-0.366,0.771-0.914,1.054-1.644c0.28-0.73,0.59-1.686,0.927-2.865l2.191,0.927c-0.843,7.304-1.167,14.918-0.969,22.841
		c0.196,7.923,0.603,15.732,1.222,23.431c-3.202-0.45-6.561-0.914-10.071-1.391C17.095,402.603,13.906,402.224,11.041,401.943z
		 M78.72,384.581c-0.281,2.415-0.829,4.648-1.644,6.7c-0.814,2.051-1.854,3.806-3.118,5.268c-1.265,1.461-2.712,2.613-4.341,3.456
		c-1.63,0.843-3.371,1.264-5.226,1.264c-2.136,0-4.088-0.492-5.857-1.475c-1.77-0.983-3.302-2.36-4.594-4.13
		c-1.293-1.77-2.304-3.85-3.034-6.237c-0.73-2.389-1.096-4.959-1.096-7.711c0-2.754,0.365-5.311,1.096-7.67
		c0.73-2.36,1.741-4.397,3.034-6.11c1.292-1.715,2.824-3.063,4.594-4.046c1.77-0.983,3.722-1.475,5.857-1.475
		c1.967,0,3.807,0.463,5.521,1.391c1.714,0.927,3.216,2.191,4.51,3.792c1.292,1.602,2.331,3.512,3.118,5.731
		c0.786,2.219,1.235,4.621,1.349,7.206c0.617-0.113,1.138-0.436,1.559-0.969c0.422-0.535,0.829-1.447,1.223-2.739l1.602,0.759
		c-0.282,1.403-0.521,2.767-0.717,4.087c-0.197,1.32-0.436,2.711-0.716,4.172c-0.562-0.225-1.083-0.45-1.56-0.674
		C79.801,384.945,79.281,384.75,78.72,384.581z M64.729,395.2c1.572,0,3.062-0.337,4.467-1.011c1.403-0.675,2.64-1.602,3.708-2.781
		c1.066-1.181,1.909-2.571,2.528-4.172c0.618-1.602,0.928-3.33,0.928-5.184c0-1.911-0.31-3.681-0.928-5.31
		c-0.619-1.631-1.462-3.049-2.528-4.257c-1.068-1.209-2.305-2.149-3.708-2.823c-1.405-0.675-2.895-1.012-4.467-1.012
		c-1.687,0-3.232,0.337-4.636,1.012c-1.405,0.674-2.613,1.614-3.624,2.823c-1.012,1.208-1.799,2.626-2.36,4.257
		c-0.562,1.629-0.843,3.398-0.843,5.31c0,1.854,0.28,3.582,0.843,5.184c0.562,1.601,1.349,2.991,2.36,4.172
		c1.011,1.18,2.219,2.106,3.624,2.781C61.497,394.863,63.043,395.2,64.729,395.2z M26.464,397.813
		c0.057-1.799,0.099-4.018,0.127-6.658c0.028-2.642,0.014-5.353-0.043-8.134s-0.128-5.45-0.212-8.007
		c-0.085-2.558-0.184-4.622-0.295-6.194l-13.554,0.337H9.861c0,2.135,0.015,4.41,0.042,6.827c0.029,2.415,0.086,4.859,0.169,7.332
		c0.085,2.473,0.171,4.902,0.254,7.291c0.085,2.388,0.213,4.648,0.382,6.784L26.464,397.813z"/>
</g>
</svg>