<!-- Generator: Adobe Illustrator 21.1.0, SVG Export Plug-In  -->
<svg version="1.1"
	 xmlns="http://www.w3.org/2000/svg" xmlns:xlink="http://www.w3.org/1999/xlink" xmlns:a="http://ns.adobe.com/AdobeSVGViewerExtensions/3.0/"
	 x="0px" y="0px" width="20.604px" height="73.045px" viewBox="0 0 20.604 73.045"
	 style="enable-background:new 0 0 20.604 73.045;" xml:space="preserve">
<defs>
</defs>
<g>
	<g>
		<polygon points="10.988,40.491 10.741,0.015 12.222,0 12.469,40.477 		"/>
	</g>
</g>
<g>
	<ellipse transform="matrix(0.781 -0.6245 0.6245 0.781 -24.1745 13.2237)" cx="6.769" cy="41.083" rx="6.514" ry="4.571"/>
</g>
<g>
	<path d="M12.674,67.166c-0.365-0.027-0.813-0.046-1.347-0.055s-1.11-0.019-1.729-0.027c-0.255,0-0.583,0.002-0.984,0.007
		c-0.401,0.005-0.836,0.014-1.306,0.027c-0.47,0.014-0.95,0.027-1.442,0.041S4.903,67.187,4.457,67.2
		c-0.447,0.014-0.848,0.029-1.203,0.048s-0.625,0.032-0.807,0.041c-0.355,0.019-0.709,0.041-1.06,0.068
		c-0.351,0.027-0.695,0.063-1.032,0.109L0,66.51c0.428,0.055,0.834,0.094,1.217,0.116s0.788,0.043,1.217,0.062
		c0.228,0.009,0.528,0.014,0.902,0.014c0.374,0,0.781-0.002,1.224-0.007c0.442-0.005,0.902-0.014,1.381-0.027
		s0.938-0.027,1.381-0.041c0.442-0.014,0.848-0.027,1.217-0.041s0.667-0.025,0.896-0.034c0.629-0.027,1.226-0.063,1.791-0.109
		c0.565-0.046,1.094-0.104,1.586-0.178L12.674,67.166z M9.748,71.705c0.1-0.019,0.196-0.029,0.287-0.034
		c0.091-0.005,0.173-0.012,0.246-0.021l-0.178,0.766c-0.374-0.027-0.805-0.048-1.292-0.062c-0.488-0.014-0.994-0.021-1.518-0.021
		c-0.524,0-1.039,0.005-1.545,0.014s-0.959,0.022-1.36,0.041c-0.019,0.21-0.046,0.396-0.082,0.561l-0.533,0.096
		c-0.046-0.173-0.08-0.378-0.103-0.615c-0.023-0.237-0.043-0.474-0.062-0.711l-0.178-1.791c-0.019-0.173-0.041-0.314-0.068-0.424
		s-0.071-0.198-0.13-0.267c-0.06-0.068-0.148-0.125-0.267-0.171c-0.119-0.046-0.273-0.096-0.465-0.15l0.15-0.355
		c1.185,0.137,2.42,0.189,3.705,0.157s2.552-0.098,3.801-0.198c-0.073,0.52-0.148,1.064-0.226,1.634
		C9.855,70.723,9.793,71.24,9.748,71.705z M6.932,60.727c0.392,0.046,0.754,0.135,1.087,0.267c0.333,0.132,0.617,0.301,0.854,0.506
		c0.237,0.205,0.424,0.439,0.561,0.704s0.205,0.547,0.205,0.848c0,0.347-0.08,0.663-0.239,0.95c-0.16,0.287-0.383,0.535-0.67,0.745
		s-0.625,0.374-1.012,0.492c-0.388,0.118-0.805,0.178-1.251,0.178c-0.447,0-0.861-0.06-1.244-0.178s-0.713-0.282-0.991-0.492
		c-0.278-0.21-0.497-0.458-0.656-0.745c-0.16-0.287-0.239-0.604-0.239-0.95c0-0.319,0.075-0.617,0.226-0.896
		s0.355-0.521,0.615-0.731s0.569-0.378,0.93-0.506c0.36-0.128,0.75-0.2,1.169-0.219c-0.019-0.101-0.071-0.185-0.157-0.253
		c-0.087-0.068-0.235-0.135-0.444-0.198l0.123-0.26c0.228,0.046,0.449,0.084,0.663,0.116c0.214,0.032,0.439,0.07,0.677,0.116
		c-0.037,0.091-0.073,0.176-0.109,0.253C6.991,60.551,6.959,60.636,6.932,60.727z M8.654,62.996c0-0.255-0.055-0.497-0.164-0.725
		s-0.26-0.429-0.451-0.602s-0.417-0.31-0.677-0.41s-0.54-0.15-0.841-0.15c-0.31,0-0.597,0.05-0.861,0.15
		c-0.265,0.101-0.495,0.237-0.69,0.41c-0.196,0.173-0.349,0.374-0.458,0.602s-0.164,0.47-0.164,0.725
		c0,0.273,0.055,0.524,0.164,0.752s0.262,0.424,0.458,0.588c0.196,0.164,0.426,0.292,0.69,0.383
		c0.264,0.091,0.551,0.137,0.861,0.137c0.301,0,0.581-0.046,0.841-0.137s0.485-0.219,0.677-0.383s0.342-0.36,0.451-0.588
		S8.654,63.27,8.654,62.996z M9.078,69.203c-0.292-0.009-0.652-0.016-1.08-0.021c-0.429-0.005-0.868-0.002-1.319,0.007
		c-0.451,0.01-0.884,0.021-1.299,0.034c-0.415,0.014-0.75,0.03-1.005,0.048l0.055,2.199v0.426c0.346,0,0.715-0.002,1.107-0.007
		c0.392-0.005,0.788-0.014,1.189-0.027c0.401-0.014,0.795-0.027,1.183-0.041c0.387-0.014,0.754-0.035,1.101-0.062L9.078,69.203z"/>
</g>
<path d="M12.256,9c0,0,2.084,6.349,4.267,8.966c2.743,3.287,4.572,6.575,3.963,9.862S17.133,35,17.133,35s2.896-4.931,2.286-7.92
	s-3.895-6.362-5.03-7.92c-1.524-2.092-2.286-3.736-2.286-3.736L12.256,9z"/>
<path d="M12.256,0c0,0,2.084,6.349,4.267,8.966c2.743,3.287,4.572,6.575,3.963,9.862S17.133,26,17.133,26s2.896-4.931,2.286-7.92
	s-3.895-6.362-5.03-7.92c-1.524-2.092-2.286-3.736-2.286-3.736L12.256,0z"/>
</svg>