<!-- Generator: Adobe Illustrator 21.1.0, SVG Export Plug-In  -->
<svg version="1.1"
	 xmlns="http://www.w3.org/2000/svg" xmlns:xlink="http://www.w3.org/1999/xlink" xmlns:a="http://ns.adobe.com/AdobeSVGViewerExtensions/3.0/"
	 x="0px" y="0px" width="652.631px" height="184.553px" viewBox="0 0 652.631 184.553"
	 style="enable-background:new 0 0 652.631 184.553;" xml:space="preserve">
<style type="text/css">
	.st0{fill:url(#SVGID_1_);}
	.st1{fill:url(#SVGID_2_);}
	.st2{fill:url(#SVGID_3_);}
	.st3{fill:url(#SVGID_4_);}
</style>
<defs>
</defs>
<g>
	<g>
		<path d="M19.572,10.275c-1.008,0-2.128,0.028-2.632,0.112c-0.42,0.056-1.288,0.252-1.735,0.42
			c-0.729-0.392-1.345-0.84-1.877-1.344c-2.492,3.191-6.244,6.02-10.527,7.756c-0.252,0.112-0.42,0.14-0.504,0.056L1.736,16.66
			c-0.111-0.141-0.14-0.253,0-0.421c4.424-2.884,7.756-6.831,9.324-10.5C9.856,5.768,8.232,5.768,7.729,5.824
			c-0.616,0.027-1.708,0.224-2.352,0.42C4.453,5.796,3.444,5.04,2.801,4.368C2.66,4.2,2.66,4.088,2.717,3.947l0.252-0.363
			c0.924,0.14,2.072,0.195,2.884,0.195c1.008,0.028,5.067-0.056,6.244-0.168l1.26-0.56c0.196-0.084,0.504-0.084,0.672,0
			c0.56,0.252,1.597,0.84,1.988,1.12c0.168,0.14,0.196,0.308,0.084,0.504l-0.56,1.063c-0.365,0.841-0.785,1.652-1.316,2.465
			c0.504,0.027,1.008,0.056,1.456,0.056c0.84,0.028,2.604,0,3.892-0.084V3.64c-0.336-0.644-1.176-1.315-2.1-1.708l0.392-1.147
			C17.92,0.644,18.032,0.56,18.34,0.56c1.457,0.057,3.752,0.504,4.816,0.98c0.309,0.14,0.448,0.42,0.42,0.84l-0.111,1.764V9.8
			c0,1.428-0.561,4.06-1.176,5.18h-2.269c-0.28-0.812-0.448-3.332-0.448-4.34V10.275z M21.532,24.248
			c0.925-0.028,2.24,0.111,2.884,0.279c0.336,0.084,0.561,0.336,0.561,0.672c0,0.812-0.225,1.4-0.42,1.597
			c-0.141,0.14-0.364,0.195-0.588,0.195l-12.264,0.084c-1.988-0.027-2.744-0.812-2.744-2.352v-2.212
			c-0.364-0.42-0.953-0.756-1.625-1.008l0.141-0.812c0.027-0.111,0.14-0.195,0.336-0.195c1.204,0,4.031,0.056,5.096,0.168
			c1.4,0,4.648-0.028,5.713-0.084l0.615-0.141c0.057-0.476,0.057-1.483,0.028-1.876c-1.792,0-5.433,0.028-6.3,0.084
			c-0.7,0.028-1.877,0.196-2.66,0.393c-0.98-0.532-1.961-1.316-2.688-2.044c-0.14-0.141-0.14-0.225-0.084-0.393l0.253-0.448
			c0.896,0.168,2.379,0.28,3.107,0.28c1.372,0,7.615-0.056,9.044-0.112l1.204-0.504c0.168-0.084,0.363-0.084,0.588,0
			c0.477,0.168,1.456,0.561,1.848,0.757c0.141,0.111,0.168,0.308,0.084,0.531l-0.504,1.12c-0.056,0.672-0.363,1.792-0.588,2.296
			l0.532,0.252c0.168,0.084,0.28,0.252,0.28,0.42c0,0.616-0.225,1.204-0.42,1.456l-10.108,0.112v1.4c0,0.42,0.168,0.588,0.532,0.588
			c1.764,0.027,5.516,0,7.224-0.057L21.532,24.248z"/>
		<path d="M49.42,19.628c1.232,0.056,3.024,0.336,3.78,0.616c0.308,0.111,0.504,0.363,0.504,0.728c0,0.812-0.532,1.568-0.952,1.764
			c-0.699-0.084-2.771-0.14-3.724-0.14c-1.933,0-12.853,0.112-14.616,0.224c-0.756,0.057-2.576,0.364-3.388,0.588
			c-1.177-0.476-2.492-1.428-3.332-2.268c-0.112-0.112-0.14-0.308-0.084-0.448l0.28-0.531c1.176,0.195,2.716,0.308,3.836,0.336
			c1.316,0.027,7.672-0.028,12.152-0.141c0.699-3.22,1.176-9.128,1.26-13.02c-2.465,0-7,0.111-8.316,0.195
			c-0.868,0.057-2.212,0.253-3.023,0.505c-1.064-0.561-2.213-1.429-2.94-2.212c-0.168-0.169-0.168-0.28-0.112-0.448l0.252-0.504
			c1.064,0.168,2.436,0.252,3.389,0.252c1.483,0.027,9.184-0.112,11.172-0.252l1.428-0.7c0.195-0.084,0.477-0.084,0.672,0
			c0.588,0.28,1.736,0.924,2.212,1.231c0.14,0.112,0.168,0.28,0.084,0.505L49.42,7.392c-0.111,3.864-1.231,9.212-2.828,12.908
			c0.672-0.028,1.205-0.056,1.513-0.084L49.42,19.628z"/>
		<path d="M76.469,13.355c1.231,0.057,3.023,0.336,3.779,0.616c0.309,0.112,0.504,0.364,0.504,0.728
			c0,0.812-0.531,1.568-0.951,1.765c-0.701-0.084-2.772-0.141-3.725-0.141c-0.868,0-3.527,0.028-6.355,0.057v0.056
			c0,1.148-0.393,2.521-0.953,3.22h-2.436c-0.309-0.588-0.447-1.708-0.447-2.491v-0.729c-2.072,0.028-3.809,0.084-4.425,0.112
			c-0.756,0.056-2.575,0.364-3.388,0.588c-1.176-0.476-2.492-1.428-3.332-2.268c-0.111-0.112-0.141-0.309-0.084-0.448l0.279-0.532
			c1.177,0.196,2.717,0.308,3.836,0.336c1.904,0.028,14.365-0.112,16.381-0.28L76.469,13.355z M60.032,8.399
			c-0.364-0.42-0.979-0.784-1.651-1.036l0.168-0.812c0.027-0.112,0.139-0.196,0.336-0.196c1.203,0,4.088,0.057,5.123,0.168
			c1.793,0,5.293-0.056,6.469-0.14l0.531-0.112c0.112-0.392,0.141-1.344,0.112-1.735c-2.044,0-6.048,0.084-6.972,0.111
			c-0.7,0.057-1.82,0.196-2.633,0.393c-0.979-0.504-1.959-1.288-2.66-1.988C58.688,2.884,58.688,2.8,58.771,2.66l0.225-0.448
			c0.896,0.168,2.408,0.28,3.08,0.28c1.316,0.027,8.204-0.084,9.828-0.168l1.232-0.505c0.168-0.084,0.42-0.084,0.615,0
			c0.477,0.196,1.484,0.616,1.848,0.841c0.168,0.111,0.196,0.308,0.084,0.504L75.208,4.2c-0.112,0.615-0.448,1.596-0.7,2.071
			l0.616,0.309c0.168,0.084,0.28,0.252,0.28,0.42c0,0.56-0.225,1.147-0.42,1.372L63.952,8.54v1.288c0,0.392,0.14,0.56,0.532,0.56
			c2.128,0,6.076-0.056,7.728-0.14L73.053,9.8c0.84-0.028,2.1,0.056,2.715,0.196c0.309,0.084,0.533,0.336,0.533,0.644
			c0,0.784-0.197,1.344-0.393,1.54c-0.112,0.112-0.336,0.168-0.532,0.168l-12.853,0.196h-0.027
			c-1.736-0.057-2.464-0.812-2.464-2.296V8.399z M75.852,25.06c0.168,0.084,0.252,0.196,0.252,0.42c0,0.645-0.168,1.26-0.363,1.512
			c-2.633-0.027-8.484,0-11.508,0.057c-0.196,0.42-0.477,0.728-0.729,0.896H61.46c-0.308-0.644-0.476-1.596-0.476-2.184L60.9,20.188
			c-0.252-0.364-0.98-0.84-1.568-1.063l0.252-0.925c0.057-0.111,0.168-0.195,0.504-0.195c1.064-0.028,3.389,0.195,4.229,0.42
			c0.279,0.084,0.392,0.28,0.392,0.672l-0.056,1.372v0.42l7.084-0.084v-1.4c-0.196-0.42-0.729-0.896-1.232-1.176l0.364-0.979
			c0.056-0.168,0.196-0.252,0.532-0.225c1.119,0.084,3.023,0.448,3.836,0.784c0.279,0.112,0.363,0.336,0.336,0.672l-0.057,1.4
			l-0.027,2.128c0,0.896-0.196,2.072-0.448,2.716L75.852,25.06z M64.596,23.128l-0.027,1.596l7.168-0.056v-1.624L64.596,23.128z"/>
		<path d="M103.88,14.615c0,7.309-3.444,10.5-7.308,10.5c-3.893,0-7.28-3.191-7.28-10.5c0-7.336,3.388-10.527,7.28-10.527
			C100.436,4.088,103.88,7.279,103.88,14.615z M96.572,24.136c1.652,0,3.08-2.044,3.08-9.521c0-7.531-1.428-9.575-3.08-9.575
			s-3.024,2.016-3.024,9.575C93.548,22.12,94.92,24.136,96.572,24.136z"/>
		<path d="M120.903,14.615c0,7.309-3.444,10.5-7.308,10.5c-3.893,0-7.28-3.191-7.28-10.5c0-7.336,3.388-10.527,7.28-10.527
			C117.459,4.088,120.903,7.279,120.903,14.615z M113.596,24.136c1.652,0,3.08-2.044,3.08-9.521c0-7.531-1.428-9.575-3.08-9.575
			s-3.024,2.016-3.024,9.575C110.571,22.12,111.943,24.136,113.596,24.136z"/>
		<path d="M137.927,14.615c0,7.309-3.444,10.5-7.308,10.5c-3.893,0-7.28-3.191-7.28-10.5c0-7.336,3.388-10.527,7.28-10.527
			C134.482,4.088,137.927,7.279,137.927,14.615z M130.619,24.136c1.652,0,3.08-2.044,3.08-9.521c0-7.531-1.428-9.575-3.08-9.575
			s-3.024,2.016-3.024,9.575C127.595,22.12,128.967,24.136,130.619,24.136z"/>
		<path d="M154.95,14.615c0,7.309-3.444,10.5-7.308,10.5c-3.893,0-7.28-3.191-7.28-10.5c0-7.336,3.388-10.527,7.28-10.527
			C151.506,4.088,154.95,7.279,154.95,14.615z M147.643,24.136c1.652,0,3.08-2.044,3.08-9.521c0-7.531-1.428-9.575-3.08-9.575
			s-3.024,2.016-3.024,9.575C144.618,22.12,145.99,24.136,147.643,24.136z"/>
		<path d="M173.822,0.784c0.056-0.141,0.14-0.225,0.447-0.225c1.484,0.057,3.864,0.504,4.956,0.98c0.336,0.14,0.476,0.42,0.448,0.84
			l-0.141,1.82v15.68c0,1.96-0.476,5.824-1.287,7.868h-2.156c-0.252-0.952-0.448-5.376-0.448-6.721v-1.624
			c-3.304,0.757-8.987,1.568-12.264,1.765c-0.728,0.056-2.044,0.336-2.716,0.615c-1.12-0.588-2.492-1.596-3.389-2.491
			c-0.14-0.141-0.168-0.225-0.084-0.393l0.252-0.56c1.176,0.196,2.688,0.252,3.864,0.224c4.032-0.084,11.228-0.644,14.336-1.315
			V3.668c-0.364-0.672-1.231-1.344-2.212-1.765L173.822,0.784z M159.486,10.023c0-3.191,2.715-5.544,6.551-5.544
			s6.608,2.353,6.608,5.544c0,3.276-2.772,5.628-6.608,5.628S159.486,13.3,159.486,10.023z M163.322,10.023
			c0,1.652,1.092,2.716,2.715,2.716c1.625,0,2.717-1.063,2.717-2.716c0-1.651-1.092-2.716-2.717-2.716
			C164.414,7.308,163.322,8.372,163.322,10.023z"/>
		<path d="M209.605,0.784c0.057-0.141,0.141-0.225,0.448-0.225c1.483,0.057,3.864,0.504,4.956,0.98
			c0.336,0.14,0.477,0.42,0.447,0.84l-0.139,1.82v15.68c0,1.96-0.477,5.824-1.289,7.868h-2.156
			c-0.252-0.952-0.447-5.376-0.447-6.721V15.26c-1.876,0.42-4.536,0.84-7.111,1.176v3.22c0,1.849-0.617,5.572-1.261,7.168h-2.128
			c-0.195-1.092-0.447-4.731-0.447-6.02v-3.92c-0.533,0.056-1.009,0.084-1.457,0.112c-0.699,0.056-1.988,0.336-2.66,0.588
			c-1.119-0.561-2.492-1.568-3.388-2.464c-0.14-0.141-0.168-0.225-0.084-0.393l0.252-0.56c1.177,0.195,2.688,0.252,3.864,0.224
			c1.96-0.028,4.648-0.168,7.279-0.392c0.336-1.765,0.449-5.152,0.42-7.225c-1.455,0-3.752,0.028-4.508,0.084
			c-0.699,0.028-1.932,0.225-2.631,0.448c-0.98-0.532-2.017-1.344-2.717-2.1c-0.14-0.168-0.168-0.28-0.084-0.448l0.28-0.476
			c0.952,0.168,2.185,0.252,3.052,0.252c1.148,0,5.74-0.057,7.196-0.168l1.399-0.673c0.168-0.084,0.448-0.084,0.645,0
			c0.531,0.28,1.568,0.841,1.988,1.12c0.14,0.112,0.168,0.28,0.084,0.504l-0.561,1.4c-0.111,2.184-0.924,5.04-1.932,7.028
			c1.82-0.168,3.416-0.393,4.508-0.616V3.668c-0.364-0.672-1.232-1.344-2.212-1.765L209.605,0.784z"/>
		<path d="M236.625,0.784c0.057-0.141,0.141-0.225,0.449-0.225c1.483,0.057,3.863,0.504,4.955,0.98
			c0.336,0.14,0.477,0.42,0.448,0.84l-0.14,1.82v15.68c0,1.96-0.477,5.824-1.288,7.868h-2.156c-0.252-0.952-0.448-5.376-0.448-6.721
			v-4.283c-0.728,0.027-1.4,0.084-1.764,0.111c-0.448,0.028-1.232,0.196-1.68,0.309c-0.588-0.336-1.092-0.729-1.541-1.148
			c-1.203,1.736-3.275,2.772-5.823,2.772c-4.004,0-6.916-2.604-6.916-6.385c0-3.779,2.912-6.384,6.916-6.384
			s6.916,2.604,6.916,6.384c0,0.812-0.14,1.568-0.392,2.269c0.447,0.027,0.896,0.056,1.315,0.056c0.644,0,1.904-0.028,2.968-0.084
			V9.8c-0.336,0-0.644,0.028-0.783,0.056c-0.449,0.057-1.232,0.196-1.709,0.336c-0.84-0.504-1.539-1.147-2.1-1.792
			c-0.14-0.168-0.14-0.279-0.084-0.42l0.309-0.448c0.644,0.112,1.623,0.169,2.379,0.169c0.504,0,1.289,0,1.988-0.085V3.668
			c-0.363-0.672-1.232-1.344-2.212-1.765L236.625,0.784z M230.521,12.403c0-2.1-1.176-3.359-2.884-3.359s-2.884,1.26-2.884,3.359
			c0,2.101,1.176,3.332,2.884,3.332S230.521,14.504,230.521,12.403z"/>
		<path d="M268.35,13.607c1.232,0.057,3.023,0.336,3.779,0.616c0.309,0.112,0.504,0.364,0.504,0.729
			c0,0.812-0.531,1.567-0.951,1.764c-0.7-0.084-2.771-0.14-3.725-0.14c-0.84,0-3.359,0.027-6.076,0.056v0.7
			c0,1.54-0.504,4.199-1.092,5.403h-2.436c-0.168-0.896-0.336-3.388-0.336-4.424v-1.624c-2.184,0.028-4.032,0.084-4.676,0.112
			c-0.756,0.056-2.576,0.364-3.389,0.588c-1.176-0.476-2.492-1.428-3.332-2.268c-0.111-0.112-0.14-0.309-0.084-0.448l0.28-0.532
			c1.177,0.196,2.716,0.308,3.836,0.336c1.904,0.028,14.364-0.112,16.38-0.28L268.35,13.607z M264.989,24.08
			c1.009-0.028,2.464,0.111,3.164,0.252c0.336,0.084,0.56,0.336,0.56,0.672c0,0.924-0.308,1.596-0.531,1.819
			c-0.141,0.141-0.393,0.196-0.616,0.196l-12.487,0.112c-2.072-0.028-2.912-0.952-2.912-2.716v-2.801
			c-0.449-0.392-1.205-0.84-1.933-1.092l0.252-0.952c0.028-0.14,0.168-0.279,0.448-0.279c1.316,0,3.611,0.168,4.62,0.363
			c0.336,0.112,0.532,0.364,0.532,0.784l-0.057,1.597v2.1c0,0.476,0.196,0.7,0.672,0.7c1.82,0.027,5.293-0.028,7.028-0.084
			L264.989,24.08z M252.474,7.672c0-3.08,2.8-5.404,7.056-5.404s7.057,2.324,7.057,5.404s-2.801,5.404-7.057,5.404
			S252.474,10.752,252.474,7.672z M256.365,7.672c0,1.792,1.232,2.968,3.164,2.968s3.164-1.176,3.164-2.968
			c0-1.82-1.232-2.996-3.164-2.996S256.365,5.852,256.365,7.672z"/>
		<path d="M301.305,14.027c-0.728,0.028-1.428,0.057-1.791,0.112c-0.449,0.056-1.232,0.196-1.709,0.336
			c-0.588-0.364-1.119-0.784-1.596-1.231c-1.092,1.68-3.107,2.716-5.628,2.716c-3.864,0-6.58-2.492-6.58-6.021
			c0-3.5,2.716-5.936,6.58-5.936c3.892,0,6.58,2.436,6.58,5.936c0,0.7-0.112,1.372-0.308,1.988c0.476,0.028,1.008,0.056,1.455,0.056
			c0.672,0,1.933-0.027,2.996-0.084v-3.92c-0.363,0.028-0.699,0.057-0.896,0.084c-0.448,0.057-1.232,0.196-1.708,0.336
			c-0.84-0.504-1.54-1.147-2.1-1.792c-0.141-0.168-0.141-0.279-0.084-0.42l0.308-0.448c0.644,0.112,1.624,0.169,2.38,0.169
			c0.477,0,1.288,0,2.1-0.028V3.64c-0.336-0.644-1.176-1.315-2.1-1.708l0.393-1.147c0.055-0.141,0.168-0.225,0.476-0.225
			c1.456,0.057,3.752,0.504,4.815,0.98c0.309,0.14,0.448,0.42,0.42,0.84l-0.111,1.764v9.072c0,2.268-0.477,5.6-1.26,7.392h-2.185
			c-0.28-1.036-0.448-4.844-0.448-6.3V14.027z M290.581,13.104c1.681,0,2.8-1.204,2.8-3.164s-1.119-3.191-2.8-3.191
			s-2.8,1.231-2.8,3.191S288.9,13.104,290.581,13.104z M303.209,23.884c1.008-0.028,2.464,0.084,3.164,0.252
			c0.363,0.084,0.588,0.336,0.588,0.672c0,0.924-0.309,1.596-0.531,1.82c-0.141,0.14-0.365,0.195-0.617,0.195l-11.787,0.112
			c-2.269-0.028-3.164-0.952-3.164-2.716v-3.276c-0.448-0.42-1.204-0.868-1.932-1.147l0.223-0.952c0.029-0.14,0.197-0.28,0.477-0.28
			c1.316,0,3.668,0.168,4.676,0.393c0.364,0.084,0.561,0.336,0.561,0.756l-0.057,1.596v2.632c0,0.477,0.196,0.7,0.672,0.7
			c1.597,0.028,4.845-0.028,6.496-0.084L303.209,23.884z"/>
		<path d="M331.125,12.628c1.232,0.056,3.023,0.336,3.779,0.616c0.309,0.111,0.504,0.363,0.504,0.728
			c0,0.812-0.531,1.568-0.951,1.764c-0.7-0.084-2.771-0.14-3.725-0.14c-1.932,0-12.852,0.112-14.615,0.224
			c-0.756,0.057-2.576,0.364-3.389,0.588c-1.176-0.476-2.492-1.428-3.332-2.268c-0.111-0.112-0.14-0.308-0.084-0.448l0.28-0.531
			c1.177,0.195,2.716,0.308,3.836,0.336c1.904,0.027,14.364-0.112,16.38-0.28L331.125,12.628z M311.805,11.508
			c-0.111-0.14-0.084-0.309,0.084-0.393c4.172-2.016,7.112-4.508,8.652-7.279c-0.196-0.393-0.7-0.896-1.232-1.204l0.504-0.924
			c0.084-0.141,0.252-0.196,0.561-0.168c1.344,0.14,3.556,0.728,4.396,1.176c0.363,0.168,0.56,0.448,0.56,0.756
			c-0.028,0.448-0.112,0.7-0.224,0.896c-0.281,0.476-0.617,0.951-1.009,1.399l3.612,1.568h2.296
			c0.728,0.392,1.735,1.036,2.212,1.483c0.393,0.364,0.561,0.673,0.561,0.98c0,0.672-0.645,1.344-1.205,1.428
			c-0.336,0.028-0.756-0.084-1.092-0.224l-8.035-3.584c-2.492,2.156-5.908,3.836-9.688,4.788c-0.252,0.084-0.364,0.056-0.448-0.028
			L311.805,11.508z M330.285,24.947c0.168,0.084,0.252,0.196,0.252,0.42c0,0.645-0.168,1.261-0.364,1.513
			c-2.604-0.028-8.344,0-11.312,0.056c-0.225,0.42-0.504,0.729-0.756,0.896h-1.933c-0.336-0.645-0.504-1.597-0.504-2.185
			l-0.112-5.88c-0.252-0.364-0.979-0.84-1.568-1.063l0.252-0.925c0.057-0.111,0.168-0.195,0.505-0.195
			c1.063-0.028,3.388,0.195,4.228,0.42c0.28,0.084,0.393,0.279,0.393,0.672l-0.057,1.372v0.448l6.86-0.084v-1.261
			c-0.28-0.42-0.952-0.896-1.567-1.176l0.363-1.008c0.057-0.14,0.168-0.224,0.504-0.196c1.092,0.057,3.332,0.448,4.145,0.756
			c0.308,0.112,0.42,0.336,0.392,0.672l-0.056,1.429l-0.028,2.323c0,0.896-0.196,2.045-0.448,2.66L330.285,24.947z M319.253,22.735
			l-0.056,1.876l6.972-0.056v-1.904L319.253,22.735z"/>
		<path d="M344.564,11.844c-1.568,2.072-3.724,4.004-6.328,5.544c-0.224,0.14-0.363,0.14-0.504,0.028l-0.672-0.616
			c-0.14-0.14-0.111-0.28,0.028-0.448c3.22-3.107,5.264-6.636,5.88-9.939c-0.225-0.448-0.784-1.009-1.4-1.345l0.504-1.008
			c0.057-0.112,0.196-0.168,0.477-0.14c1.26,0.111,3.416,0.672,4.199,1.092c0.337,0.168,0.533,0.42,0.533,0.7
			c0.027,0.308,0,0.616-0.057,0.812c-0.252,1.092-0.699,2.212-1.344,3.332l1.512,1.708l1.624,0.532
			c0.392,0.672,0.896,1.708,1.093,2.296c0.168,0.504,0.139,0.84,0.027,1.036c-0.279,0.56-1.176,0.84-1.708,0.616
			c-0.252-0.084-0.56-0.393-0.784-0.645L344.564,11.844z M359.293,22.092c0,3.388-3.024,5.404-6.553,5.404
			c-3.527,0-6.551-2.017-6.551-5.404c0-3.108,3.023-4.956,6.551-4.956C356.269,17.136,359.293,18.983,359.293,22.092z
			 M354.841,0.784c0.084-0.141,0.196-0.225,0.504-0.225c1.344,0.057,3.528,0.504,4.536,0.98c0.308,0.14,0.447,0.392,0.42,0.812
			l-0.112,1.652v8.428c0,1.484-0.532,4.145-1.147,5.348h-2.156c-0.252-0.867-0.448-3.443-0.448-4.508v-2.128l-1.903,0.056v0.141
			c0,1.82-0.477,4.116-1.092,5.18h-2.017c-0.28-0.84-0.448-3.107-0.448-4.368V4.956c-0.308-0.561-1.035-1.12-1.876-1.484l0.42-1.092
			c0.056-0.14,0.168-0.225,0.505-0.225c1.26,0.057,3.275,0.505,4.199,0.952c0.309,0.141,0.42,0.393,0.393,0.784l-0.084,1.512v3.416
			l1.903-0.056V3.5c-0.308-0.588-1.12-1.204-1.987-1.597L354.841,0.784z M355.4,22.092c0-1.512-1.176-2.353-2.66-2.353
			c-1.483,0-2.66,0.841-2.66,2.353c0,1.54,1.177,2.352,2.66,2.352C354.225,24.443,355.4,23.632,355.4,22.092z"/>
		<path d="M387.18,14.84c0.477,0.756,1.121,1.96,1.373,2.604c0.224,0.616,0.224,1.009,0.084,1.288
			c-0.309,0.616-1.232,0.924-1.793,0.7c-0.279-0.112-0.615-0.448-0.867-0.728l-4.48-5.181c-1.764,2.492-4.199,4.872-7.168,6.748
			c-0.195,0.112-0.336,0.112-0.476,0.028l-0.673-0.561c-0.111-0.111-0.111-0.252,0.029-0.42c3.807-3.808,6.215-8.315,6.859-12.376
			c-0.28-0.56-0.924-1.204-1.624-1.567l0.476-0.98c0.084-0.14,0.196-0.195,0.477-0.168c1.316,0.112,3.668,0.729,4.564,1.176
			c0.336,0.168,0.56,0.448,0.56,0.729c0,0.308-0.028,0.616-0.085,0.84c-0.279,1.456-0.84,2.968-1.651,4.452l2.66,2.8L387.18,14.84z
			 M389.196,0.784c0.056-0.141,0.14-0.225,0.448-0.225c1.484,0.057,3.863,0.504,4.955,0.98c0.336,0.14,0.477,0.42,0.449,0.84
			l-0.141,1.82v15.68c0,1.96-0.477,5.824-1.288,7.868h-2.155c-0.252-0.952-0.449-5.376-0.449-6.721V3.668
			c-0.363-0.672-1.231-1.344-2.211-1.765L389.196,0.784z"/>
		<path d="M409.385,11.34c-2.297,2.156-5.097,4.032-8.148,5.348c-0.252,0.112-0.42,0.141-0.532,0.057l-0.56-0.589
			c-0.141-0.14-0.141-0.279,0-0.447c3.947-2.688,7.084-6.44,8.82-9.8c-1.177,0-2.604,0.027-3.08,0.056
			c-0.589,0.028-1.652,0.224-2.269,0.448c-0.952-0.504-1.933-1.288-2.604-1.988c-0.14-0.168-0.168-0.28-0.084-0.42l0.252-0.42
			c0.924,0.14,2.101,0.195,2.94,0.195c1.008,0,4.704-0.056,6.048-0.111l1.288-0.532c0.224-0.084,0.504-0.084,0.728,0
			c0.588,0.224,1.709,0.728,2.129,0.952c0.168,0.112,0.195,0.336,0.084,0.532l-0.729,1.147c-0.672,1.316-1.568,2.604-2.632,3.836
			l1.765,1.568l1.315,0.336c0.532,0.644,1.204,1.68,1.456,2.268c0.224,0.477,0.279,0.84,0.168,1.093
			c-0.28,0.588-1.12,0.924-1.708,0.756c-0.308-0.084-0.644-0.364-0.896-0.616L409.385,11.34z M420.08,24.248
			c0.924-0.028,2.268,0.111,2.912,0.279c0.336,0.084,0.561,0.336,0.561,0.672c0,0.812-0.225,1.4-0.421,1.597
			c-0.14,0.14-0.364,0.195-0.588,0.195l-12.18,0.084c-1.96-0.027-2.716-0.812-2.716-2.352v-2.1c-0.364-0.42-0.952-0.757-1.625-1.009
			l0.141-0.812c0.028-0.112,0.141-0.196,0.336-0.196c1.204,0,4.032,0.057,5.096,0.168c1.512,0,4.592-0.027,5.601-0.084l0.588-0.14
			c0.056-0.42,0.084-1.344,0.056-1.68c-1.82,0-5.432,0.027-6.3,0.084c-0.7,0.027-1.876,0.195-2.66,0.392
			c-0.979-0.532-1.96-1.316-2.688-2.044c-0.14-0.14-0.14-0.224-0.085-0.392l0.253-0.448c0.896,0.168,2.38,0.28,3.108,0.28
			c1.344,0,7.588-0.057,9.043-0.112l1.205-0.504c0.168-0.084,0.363-0.084,0.588,0c0.476,0.168,1.455,0.56,1.848,0.756
			c0.14,0.112,0.168,0.308,0.084,0.532l-0.504,1.12c-0.057,0.615-0.364,1.624-0.588,2.1l0.531,0.252
			c0.168,0.084,0.28,0.252,0.28,0.42c0,0.616-0.224,1.204-0.42,1.456l-9.996,0.112v1.288c0,0.42,0.168,0.588,0.532,0.588
			c1.764,0.027,5.432,0,7.084-0.057L420.08,24.248z M413.332,7.896c0.645,0.112,1.568,0.141,2.296,0.141
			c0.589,0.027,1.597,0,2.521-0.028V3.64c-0.336-0.644-1.176-1.315-2.101-1.708l0.392-1.147c0.057-0.141,0.168-0.225,0.477-0.225
			c1.456,0.057,3.752,0.504,4.816,0.98c0.308,0.14,0.447,0.42,0.42,0.84l-0.112,1.764v5.824c0,1.428-0.56,4.06-1.176,5.18h-2.269
			c-0.279-0.812-0.447-3.332-0.447-4.368v-0.644c-0.561,0.028-1.064,0.056-1.344,0.112c-0.449,0.027-1.232,0.252-1.681,0.447
			c-0.784-0.56-1.483-1.26-2.044-1.932c-0.111-0.14-0.141-0.28-0.057-0.42L413.332,7.896z"/>
		<path d="M434.779,18.452c-4.004,0-6.915-2.633-6.915-6.244c0-3.641,2.911-6.272,6.915-6.272c3.977,0,6.916,2.632,6.916,6.272
			C441.695,15.819,438.756,18.452,434.779,18.452z M434.779,8.96c-1.707,0-2.883,1.26-2.883,3.248c0,1.987,1.176,3.22,2.883,3.22
			c1.709,0,2.885-1.232,2.885-3.22C437.664,10.22,436.488,8.96,434.779,8.96z M445.588,27.748c-0.252-0.952-0.447-5.376-0.447-6.721
			V3.668c-0.365-0.672-1.232-1.344-2.213-1.765l0.393-1.119c0.056-0.141,0.14-0.225,0.447-0.225c1.484,0.057,3.864,0.504,4.957,0.98
			c0.336,0.14,0.475,0.42,0.447,0.84l-0.141,1.82v15.68c0,1.96-0.475,5.824-1.287,7.868H445.588z"/>
		<path d="M483.724,12.684c1.231,0.056,3.024,0.336,3.78,0.616c0.308,0.112,0.504,0.364,0.504,0.728
			c0,0.812-0.532,1.568-0.952,1.765c-0.7-0.084-2.772-0.141-3.724-0.141c-1.933,0-12.853,0.112-14.617,0.225
			c-0.756,0.056-2.575,0.363-3.387,0.588c-1.177-0.477-2.492-1.428-3.332-2.269c-0.112-0.111-0.141-0.308-0.084-0.447l0.279-0.532
			c1.176,0.196,2.717,0.308,3.836,0.336c0.784,0,3.444,0,6.412-0.056l-0.027-3.08c-0.252-0.393-0.98-0.868-1.541-1.093l0.225-1.008
			c0.027-0.111,0.14-0.195,0.504-0.195c1.064-0.028,3.556,0.195,4.367,0.42c0.337,0.084,0.449,0.336,0.393,0.672l-0.195,1.819
			l-0.057,2.437c2.912-0.056,5.488-0.14,6.3-0.196L483.724,12.684z M479.523,11.228c-0.225-0.056-0.309-0.196-0.279-0.588
			c0.279-1.316,0.336-3.836,0.223-5.404c-2.239-0.027-6.271,0.028-7.475,0.112c-0.812,0.056-2.185,0.28-2.969,0.504
			c-1.092-0.532-2.268-1.372-3.023-2.156c-0.168-0.168-0.196-0.279-0.112-0.447l0.252-0.504c1.12,0.168,2.521,0.252,3.5,0.252
			c1.512,0,8.456-0.084,10.248-0.168l1.512-0.616c0.196-0.084,0.448-0.084,0.644,0c0.588,0.224,1.709,0.728,2.156,1.008
			c0.141,0.084,0.168,0.252,0.057,0.476l-0.588,1.456c-0.252,1.988-1.205,4.564-2.24,6.021c-0.168,0.224-0.393,0.308-0.616,0.308
			L479.523,11.228z M481.483,22.596c0,3.248-2.996,5.292-6.58,5.292s-6.579-2.044-6.579-5.292c0-2.968,2.995-4.844,6.579-4.844
			S481.483,19.628,481.483,22.596z M477.592,22.596c0-1.512-1.176-2.38-2.688-2.38c-1.512,0-2.688,0.868-2.688,2.38
			s1.177,2.38,2.688,2.38C476.416,24.976,477.592,24.107,477.592,22.596z"/>
		<path d="M499.403,5.571c0.168-0.084,0.476-0.084,0.672,0c0.505,0.225,1.54,0.812,1.933,1.064c0.168,0.112,0.168,0.308,0.084,0.504
			l-0.504,0.98c-1.121,4.928-5.293,10.304-10.668,13.327c-0.225,0.141-0.393,0.168-0.477,0.084l-0.615-0.56
			c-0.141-0.14-0.169-0.252-0.057-0.448c3.836-3.416,6.607-8.204,7.645-12.235c-0.896,0.027-1.933,0.056-2.269,0.084
			c-0.644,0.027-1.765,0.224-2.38,0.42c-0.868-0.448-1.792-1.148-2.408-1.792c-0.141-0.168-0.168-0.28-0.084-0.42l0.252-0.448
			c0.84,0.112,1.932,0.14,2.688,0.14c0.896,0.028,4.088-0.027,5.181-0.14L499.403,5.571z M507.439,0.784
			c0.084-0.141,0.195-0.225,0.504-0.225c1.344,0.057,3.527,0.504,4.536,0.98c0.308,0.14,0.448,0.392,0.42,0.812l-0.112,1.652v16.044
			c0,1.932-0.476,5.684-1.26,7.7h-2.044c-0.252-0.98-0.448-5.265-0.448-6.608v-7.224l-2.016,0.056v5.152
			c0,1.792-0.448,5.208-1.148,7h-1.932c-0.252-1.064-0.448-4.732-0.448-5.992V5.208c-0.308-0.561-1.063-1.12-1.876-1.484l0.42-1.092
			c0.057-0.14,0.168-0.224,0.504-0.224c1.26,0.056,3.276,0.504,4.2,0.951c0.28,0.141,0.392,0.393,0.392,0.784l-0.111,1.512v5.937
			l2.016-0.056V3.5c-0.308-0.588-1.119-1.204-1.988-1.597L507.439,0.784z"/>
		<path d="M533.143,0.784c0.057-0.141,0.141-0.225,0.449-0.225c1.483,0.057,3.863,0.504,4.955,0.98
			c0.336,0.14,0.477,0.42,0.448,0.84l-0.14,1.82v15.68c0,1.96-0.477,5.824-1.288,7.868h-2.156c-0.252-0.952-0.448-5.376-0.448-6.721
			v-1.483c-3.304,0.784-9.072,1.596-12.348,1.819c-0.7,0.057-1.988,0.336-2.66,0.588c-1.119-0.56-2.492-1.567-3.388-2.464
			c-0.112-0.111-0.14-0.224-0.084-0.392l0.252-0.56c1.176,0.195,2.688,0.252,3.864,0.224c1.035-0.028,2.324-0.084,3.668-0.168
			v-4.004l-1.625,0.056c-2.323,0.028-3.275-0.924-3.275-2.576V7.224c-0.336-0.476-0.952-0.952-1.652-1.231l0.252-1.009
			c0.057-0.111,0.141-0.195,0.336-0.195c1.177,0,3.92,0.168,4.957,0.363c1.315,0,4.535-0.111,5.487-0.195l0.812-0.393
			c0.757,0,1.933,0.084,2.549,0.196c0.336,0.084,0.504,0.28,0.504,0.588c0,0.729-0.196,1.288-0.393,1.484
			c-0.14,0.14-0.308,0.195-0.531,0.195l-8.484,0.225v4.508c0,0.476,0.196,0.7,0.672,0.7c1.148,0,3.893-0.112,4.928-0.196
			l0.756-0.392c0.841-0.028,2.101,0.027,2.717,0.168c0.336,0.056,0.531,0.308,0.531,0.615c0,0.7-0.252,1.261-0.476,1.484
			c-0.14,0.112-0.308,0.168-0.56,0.168l-3.92,0.14v3.893c2.8-0.252,5.516-0.588,7.111-0.924V3.668
			c-0.363-0.672-1.232-1.344-2.212-1.765L533.143,0.784z"/>
		<path d="M562.039,10.136c-0.616,0-1.204,0.028-1.512,0.084c-0.42,0.056-1.26,0.252-1.709,0.42c-0.363-0.224-0.672-0.448-0.979-0.7
			c-0.308,3.053-2.94,5.181-6.524,5.181c-3.807,0-6.523-2.408-6.523-5.74c0-3.276,2.717-5.656,6.523-5.656
			c3.276,0,5.769,1.764,6.385,4.34c0.531,0.028,1.119,0.057,1.596,0.057c0.616,0.027,1.736,0,2.744-0.057V3.64
			c-0.336-0.644-1.176-1.315-2.1-1.708l0.392-1.147c0.056-0.141,0.168-0.225,0.476-0.225c1.457,0.057,3.752,0.504,4.816,0.98
			c0.309,0.14,0.447,0.42,0.42,0.84l-0.111,1.764v6.3c0,1.597-0.533,4.593-1.205,5.992h-2.24c-0.252-0.868-0.447-3.948-0.447-5.067
			V10.136z M566.379,23.491c0.393,0.589,0.84,1.484,1.008,2.017c0.141,0.448,0.141,0.756,0.028,0.979
			c-0.28,0.532-1.036,0.841-1.567,0.7c-0.281-0.056-0.589-0.336-0.841-0.616l-2.968-3.388c-1.484,1.792-3.527,3.472-6.02,4.872
			c-0.225,0.14-0.336,0.14-0.477,0.056l-0.729-0.56c-0.139-0.14-0.139-0.28,0.029-0.448c0.531-0.476,1.035-0.979,1.483-1.483
			c-0.196-0.085-0.392-0.225-0.56-0.421l-2.24-2.38c-1.512,1.765-3.641,3.389-6.217,4.704c-0.224,0.141-0.363,0.141-0.504,0.057
			l-0.699-0.589c-0.141-0.111-0.168-0.252,0.027-0.42c2.772-2.296,4.676-4.899,5.404-7.42c-0.195-0.363-0.7-0.812-1.232-1.092
			l0.532-0.979c0.084-0.141,0.253-0.196,0.505-0.168c1.231,0.168,3.163,0.756,3.891,1.176c0.309,0.168,0.477,0.42,0.477,0.672
			c0,0.364-0.056,0.588-0.14,0.784c-0.196,0.504-0.448,0.979-0.728,1.456l1.176,1.176l1.063,0.532
			c0.224,0.336,0.476,0.84,0.644,1.231c1.232-1.651,2.072-3.388,2.492-5.04c-0.168-0.392-0.699-0.924-1.232-1.231l0.533-0.98
			c0.084-0.168,0.252-0.224,0.504-0.168c1.26,0.252,3.136,0.896,3.892,1.372c0.308,0.196,0.476,0.42,0.476,0.672
			c0,0.336-0.056,0.588-0.111,0.784c-0.252,0.672-0.561,1.344-0.952,1.988l1.567,1.512L566.379,23.491z M548.571,9.38
			c0,1.792,1.092,2.884,2.743,2.884c1.652,0,2.744-1.092,2.744-2.884c0-1.765-1.092-2.912-2.744-2.912
			C549.663,6.468,548.571,7.615,548.571,9.38z"/>
		<path d="M593.343,11.508c0.84-0.028,2.044,0.028,2.576,0.14c0.392,0.084,0.644,0.364,0.672,0.729
			c0.056,0.7-0.112,1.428-0.336,1.708c-0.196,0.252-0.644,0.363-0.979,0.363l-4.117,0.141v5.292c0,1.96-0.475,5.824-1.287,7.868
			h-2.156c-0.252-0.952-0.447-5.376-0.447-6.721v-2.996c-3.361,1.12-7.449,1.96-10.248,2.24c-0.449,0.057-0.896,0.057-1.232,0.057
			c-1.568,0-2.66-0.868-3.08-2.213c-0.112-0.363-0.196-0.979-0.196-1.624V8.12c-0.364-0.477-1.036-0.952-1.792-1.232l0.252-1.008
			c0.057-0.112,0.141-0.196,0.336-0.196c1.176,0,3.836,0.141,4.984,0.336c1.036-0.027,3.472-0.168,4.283-0.252l0.896-0.616
			c0.84,0,2.156,0.057,2.828,0.196c0.336,0.084,0.532,0.308,0.532,0.645c0,0.84-0.224,1.455-0.476,1.735
			c-0.141,0.141-0.336,0.196-0.588,0.196l-7.365,0.308v8.288c0,0.393,0.168,0.588,0.561,0.561c2.884-0.028,7.057-0.448,10.305-1.261
			V3.668c-0.365-0.672-1.232-1.344-2.213-1.765l0.393-1.119c0.056-0.141,0.14-0.225,0.447-0.225c1.484,0.057,3.864,0.504,4.957,0.98
			c0.336,0.14,0.475,0.42,0.447,0.84l-0.141,1.82v8.008l1.289-0.084L593.343,11.508z"/>
		<path d="M598.775,22.567c0-1.372,1.147-2.548,2.575-2.548c1.429,0,2.576,1.176,2.576,2.548c0,1.4-1.147,2.521-2.576,2.521
			C599.923,25.088,598.775,23.968,598.775,22.567z"/>
		<path d="M5.881,48.859c-0.112,0.42-0.336,0.784-0.645,1.147H3.221c-0.252-0.588-0.42-1.428-0.477-2.155l-0.476-7.28
			c-0.28-0.42-0.84-0.812-1.456-1.063l0.252-0.98c0.027-0.112,0.141-0.196,0.364-0.196c1.231,0,3.304,0.168,4.536,0.364
			c1.008,0.028,3.023,0,4.004-0.056l1.371-0.672c0.168-0.084,0.449-0.084,0.617,0c0.447,0.224,1.287,0.756,1.623,1.008
			c0.141,0.111,0.141,0.252,0.084,0.476l-0.392,1.456c-0.028,0.393-0.056,0.784-0.084,1.204c0.7,0,1.54-0.028,2.185-0.056v-3.5
			c-0.309-0.561-1.037-1.12-1.877-1.484l0.42-1.092c0.057-0.14,0.168-0.225,0.504-0.225c1.261,0.057,3.276,0.505,4.201,0.952
			c0.307,0.141,0.42,0.393,0.391,0.784l-0.084,1.512v5.937c0,1.82-0.475,4.116-1.092,5.18H15.82
			c-0.279-0.84-0.447-3.107-0.447-4.368v-1.288c-0.869,0-1.793,0.057-2.465,0.112c-0.084,0.588-0.168,1.148-0.279,1.68l0.531,0.309
			c0.196,0.112,0.309,0.28,0.309,0.504c0,0.784-0.225,1.428-0.504,1.708L5.881,48.859z M9.549,40.991
			c-1.121,0-2.465,0.028-3.528,0.056v5.376c0.896,0.028,2.185,0,2.996-0.027l0.532-0.168V40.991z M21.812,51.016
			c0.195-0.084,0.447-0.084,0.645,0c0.504,0.224,1.483,0.672,1.848,0.924c0.14,0.084,0.168,0.252,0.084,0.476l-0.448,1.4
			c-0.14,1.288-0.392,2.688-0.728,3.892l0.56,0.309c0.224,0.14,0.336,0.308,0.336,0.531c0,0.784-0.28,1.456-0.588,1.736
			l-9.772,0.084c-0.14,0.364-0.363,0.672-0.672,0.98h-2.128c-0.28-0.532-0.476-1.316-0.532-2.017l-0.42-5.628
			c-0.363-0.42-1.035-0.868-1.68-1.12l0.28-1.036c0.028-0.111,0.14-0.195,0.364-0.195c1.231,0,3.556,0.168,4.871,0.336
			c1.428-0.028,5.18-0.084,6.608-0.168L21.812,51.016z M13.916,57.875c1.68,0.028,4.032,0,5.488-0.084l0.616-0.168l0.056-3.584
			c-1.932,0.028-4.312,0.084-6.16,0.141V57.875z M19.041,34.384c0.084-0.141,0.195-0.225,0.504-0.225
			c1.344,0.057,3.527,0.504,4.535,0.98c0.309,0.14,0.448,0.392,0.42,0.812l-0.111,1.652v7.308c0,1.484-0.532,4.145-1.148,5.349
			h-2.156c-0.252-0.868-0.447-3.444-0.447-4.509V37.1c-0.309-0.588-1.12-1.204-1.988-1.597L19.041,34.384z"/>
		<path d="M44.744,34.384c0.057-0.141,0.141-0.225,0.448-0.225c1.483,0.057,3.864,0.504,4.956,0.98
			c0.336,0.14,0.476,0.42,0.447,0.84l-0.14,1.82v15.68c0,1.96-0.476,5.824-1.288,7.868h-2.156c-0.252-0.952-0.447-5.376-0.447-6.721
			v-8.008c-0.393,0-0.756,0.028-0.924,0.057c-0.448,0.056-1.4,0.279-1.877,0.447c-0.447-0.279-0.867-0.588-1.231-0.952l-0.028,1.345
			c0,0.952-0.168,2.128-0.392,2.828l0.672,0.252c0.14,0.056,0.252,0.224,0.252,0.42c0,0.672-0.224,1.344-0.476,1.596
			c-2.072-0.028-6.496,0.028-8.904,0.084c-0.225,0.644-0.561,1.064-0.868,1.288h-2.016c-0.308-0.729-0.476-1.792-0.476-2.408
			l-0.168-9.828c-0.252-0.392-1.009-0.924-1.597-1.147l0.252-0.952c0.056-0.112,0.168-0.196,0.504-0.196
			c1.064-0.027,3.472,0.196,4.312,0.42c0.309,0.084,0.421,0.28,0.421,0.672l-0.056,1.4v1.82l4.787-0.057v-3.472
			c-0.308-0.448-0.979-0.952-1.623-1.26l0.336-0.952c0.056-0.14,0.168-0.224,0.504-0.196c1.119,0.057,3.5,0.532,4.312,0.896
			c0.308,0.14,0.42,0.336,0.392,0.672l-0.084,1.624l-0.056,3.416c0.56,0.027,1.204,0.056,1.735,0.056
			c0.533,0,1.457-0.028,2.297-0.056v-7.168c-0.364-0.672-1.232-1.344-2.213-1.765L44.744,34.384z M33.937,46.087l-0.028,4.2
			l4.844-0.056v-4.2L33.937,46.087z"/>
		<path d="M76.832,48.215c0,7.309-3.443,10.5-7.308,10.5c-3.892,0-7.28-3.191-7.28-10.5c0-7.336,3.389-10.527,7.28-10.527
			C73.389,37.688,76.832,40.879,76.832,48.215z M69.524,57.735c1.651,0,3.079-2.044,3.079-9.521c0-7.531-1.428-9.575-3.079-9.575
			c-1.652,0-3.024,2.016-3.024,9.575C66.5,55.72,67.872,57.735,69.524,57.735z"/>
		<path d="M93.855,48.215c0,7.309-3.443,10.5-7.308,10.5c-3.892,0-7.28-3.191-7.28-10.5c0-7.336,3.389-10.527,7.28-10.527
			C90.412,37.688,93.855,40.879,93.855,48.215z M86.548,57.735c1.651,0,3.079-2.044,3.079-9.521c0-7.531-1.428-9.575-3.079-9.575
			c-1.652,0-3.024,2.016-3.024,9.575C83.523,55.72,84.896,57.735,86.548,57.735z"/>
		<path d="M117.432,46.955c1.231,0.057,3.023,0.336,3.779,0.616c0.309,0.112,0.504,0.364,0.504,0.728
			c0,0.812-0.531,1.568-0.951,1.765c-0.701-0.084-2.772-0.141-3.725-0.141c-1.932,0-12.852,0.112-14.616,0.225
			c-0.756,0.056-2.575,0.364-3.388,0.588c-1.176-0.476-2.492-1.428-3.332-2.268c-0.111-0.112-0.141-0.309-0.084-0.448l0.279-0.532
			c1.177,0.196,2.717,0.308,3.836,0.336c1.904,0.028,14.365-0.112,16.381-0.28L117.432,46.955z M100.939,38.64
			c-0.393-0.393-1.092-0.812-1.793-1.093l0.252-0.951c0.029-0.141,0.197-0.28,0.477-0.28c1.288,0,3.557,0.168,4.536,0.392
			c0.392,0.084,0.56,0.364,0.56,0.784l-0.056,1.624v3.22c0,0.477,0.196,0.7,0.672,0.7c1.82,0.028,5.572-0.027,7.336-0.112
			l1.204-0.644c0.952,0,2.352,0.112,3.023,0.28c0.336,0.084,0.561,0.336,0.561,0.672c0,0.896-0.279,1.54-0.504,1.736
			c-0.141,0.14-0.364,0.195-0.588,0.195l-12.6,0.141c-2.072-0.028-3.08-1.064-3.08-2.856V38.64z M114.211,57.175
			c1.008,0,2.492,0.112,3.191,0.28c0.365,0.084,0.589,0.364,0.589,0.7c0,0.924-0.308,1.624-0.532,1.848
			c-0.141,0.141-0.393,0.196-0.645,0.196l-12.543,0.112h-0.057c-1.96-0.057-2.771-0.98-2.771-2.744v-2.772
			c-0.448-0.392-1.204-0.84-1.932-1.092l0.252-0.952c0.027-0.14,0.168-0.279,0.447-0.279c1.316,0,3.612,0.168,4.62,0.363
			c0.336,0.112,0.532,0.364,0.532,0.784l-0.057,1.596v2.044c0,0.477,0.196,0.7,0.672,0.7c1.82,0.028,5.236-0.027,6.973-0.084
			L114.211,57.175z"/>
		<path d="M135.043,35.503c-1.596,0.784-2.632,1.736-3.275,3.164l1.651,1.148c1.036,0.728,1.26,1.399,1.26,2.184
			c0,1.232-1.036,2.128-2.155,2.128c-0.84,0-1.4-0.392-1.849-0.699c-0.476-0.784-0.728-1.708-0.728-2.604
			c0-2.632,1.932-5.012,4.787-6.02L135.043,35.503z M139.831,39.815c1.036,0.728,1.26,1.399,1.26,2.184
			c0,1.232-1.036,2.128-2.185,2.128c-0.812,0-1.371-0.392-1.819-0.699c-0.476-0.784-0.728-1.708-0.728-2.604
			c0-2.632,1.932-5.012,4.787-6.02l0.309,0.699c-1.596,0.784-2.633,1.736-3.276,3.164L139.831,39.815z"/>
		<path d="M164.61,45.388c1.231,0.056,3.052,0.336,3.78,0.615c0.308,0.112,0.504,0.336,0.504,0.7c0,0.756-0.532,1.456-0.952,1.624
			c-0.7-0.084-2.772-0.14-3.724-0.14c-1.904,0-12.937,0.111-14.645,0.224c-0.729,0.057-2.548,0.364-3.359,0.588
			c-1.177-0.42-2.492-1.315-3.332-2.1c-0.112-0.112-0.141-0.308-0.084-0.448l0.279-0.532c1.176,0.196,2.717,0.309,3.836,0.336
			c1.876,0.028,14.393-0.111,16.38-0.279L164.61,45.388z M148.314,38.499c-0.364-0.476-0.98-0.924-1.68-1.204l0.252-1.008
			c0.027-0.111,0.14-0.195,0.336-0.195c1.203,0,4.031,0.14,5.096,0.308c1.764,0,6.328-0.084,7.729-0.168l0.84-0.42
			c0.84,0,2.071,0.084,2.715,0.224c0.365,0.084,0.533,0.309,0.533,0.616c0,0.784-0.197,1.372-0.42,1.596
			c-0.141,0.168-0.309,0.196-0.561,0.196l-10.893,0.196v2.912c0,0.476,0.196,0.699,0.672,0.699c1.652,0,5.433-0.056,6.945-0.168
			l0.812-0.363c0.952-0.057,2.323,0.027,2.995,0.168c0.336,0.084,0.533,0.308,0.533,0.644c0,0.672-0.281,1.232-0.504,1.428
			c-0.141,0.141-0.365,0.196-0.589,0.196l-11.536,0.224c-2.324,0.057-3.275-0.924-3.275-2.604V38.499z M161.698,58.071
			c0.924,0,2.269,0.112,2.912,0.28c0.336,0.084,0.532,0.336,0.532,0.644c0,0.784-0.225,1.344-0.42,1.54
			c-0.141,0.14-0.336,0.196-0.561,0.196l-12.292,0.084c-2.071-0.028-2.856-0.812-2.856-2.296v-2.128
			c-0.363-0.42-0.951-0.756-1.623-1.009l0.14-0.812c0.028-0.112,0.14-0.196,0.336-0.196c1.204,0,4.032,0.057,5.097,0.168
			c1.512,0,4.787-0.027,5.823-0.084l0.672-0.14c0.028-0.476,0.056-1.4,0.028-1.764c-1.876-0.028-5.88,0-6.775,0.056
			c-0.701,0.056-1.849,0.224-2.633,0.42c-0.951-0.532-1.932-1.288-2.632-1.988c-0.14-0.14-0.168-0.224-0.084-0.392l0.224-0.448
			c0.896,0.168,2.324,0.28,3.08,0.28c1.372,0,8.036-0.056,9.465-0.112l1.119-0.476c0.168-0.084,0.364-0.084,0.588,0
			c0.477,0.168,1.484,0.532,1.877,0.728c0.139,0.084,0.168,0.28,0.084,0.504l-0.505,1.12c-0.056,0.616-0.336,1.681-0.56,2.185
			l0.531,0.252c0.141,0.084,0.252,0.224,0.252,0.392c0,0.588-0.224,1.176-0.42,1.4l-10.191,0.111v1.429
			c0,0.392,0.168,0.56,0.532,0.56c1.764,0.028,5.628,0,7.336-0.056L161.698,58.071z"/>
		<path d="M185.387,39.283c-1.652,4.9-6.553,9.688-12.685,12.208c-0.224,0.14-0.392,0.14-0.476,0.056l-0.561-0.615
			c-0.14-0.168-0.14-0.28,0-0.448c2.771-1.904,5.124-4.229,6.832-6.664c-0.812,0.112-1.708,0.224-2.436,0.28
			c-0.616,0.056-1.541,0.279-2.017,0.504c-0.896-0.477-1.819-1.148-2.491-1.82c-0.113-0.112-0.141-0.196-0.084-0.336l0.252-0.448
			c0.896,0.112,1.932,0.141,2.799,0.112c1.541-0.056,4.061-0.28,5.349-0.448c0.42-0.812,0.784-1.624,1.063-2.408
			c-1.119-0.027-2.604,0-3.08,0.028c-0.588,0.028-1.735,0.225-2.352,0.42c-0.924-0.448-1.932-1.204-2.576-1.876
			c-0.14-0.168-0.14-0.28-0.084-0.42l0.252-0.364c0.924,0.141,2.072,0.196,2.885,0.196c1.008,0.028,4.815-0.028,5.963-0.084
			l1.261-0.56c0.196-0.084,0.504-0.084,0.672,0c0.56,0.252,1.597,0.84,1.988,1.12c0.168,0.111,0.196,0.308,0.084,0.504
			L185.387,39.283z M190.986,57.959c0.896-0.027,2.24,0.112,2.855,0.28c0.364,0.084,0.561,0.336,0.561,0.672
			c0,0.812-0.225,1.4-0.42,1.596c-0.141,0.141-0.364,0.196-0.588,0.196l-12.152,0.084c-1.988-0.028-2.744-0.812-2.744-2.352v-2.353
			c-0.363-0.42-0.952-0.756-1.624-1.008l0.14-0.812c0.028-0.112,0.141-0.196,0.336-0.196c1.205,0,4.004,0.056,5.097,0.168
			c1.596,0,4.508-0.028,5.544-0.084l0.615-0.14c0.057-0.477,0.057-1.513,0.029-1.904c-1.793,0-5.377,0.028-6.244,0.084
			c-0.701,0.028-1.877,0.196-2.66,0.392c-0.98-0.531-1.961-1.315-2.688-2.044c-0.14-0.14-0.14-0.224-0.084-0.392l0.252-0.448
			c0.896,0.168,2.38,0.28,3.108,0.28c1.344,0,7.588-0.057,8.988-0.112l1.203-0.504c0.168-0.084,0.364-0.084,0.588,0
			c0.477,0.168,1.457,0.56,1.848,0.756c0.141,0.112,0.169,0.309,0.085,0.532l-0.505,1.12c-0.055,0.672-0.336,1.792-0.588,2.324
			l0.533,0.252c0.168,0.084,0.279,0.252,0.279,0.42c0,0.615-0.225,1.204-0.42,1.456l-9.939,0.111v1.54
			c0,0.42,0.168,0.588,0.531,0.588c1.736,0.028,5.46,0,7.112-0.056L190.986,57.959z M188.857,37.239
			c-0.336-0.644-1.176-1.315-2.1-1.708l0.393-1.147c0.056-0.141,0.168-0.225,0.476-0.225c1.456,0.057,3.752,0.504,4.815,0.98
			c0.309,0.14,0.449,0.42,0.42,0.84l-0.111,1.764v5.656c0,1.428-0.561,4.06-1.176,5.18h-2.268c-0.281-0.812-0.449-3.332-0.449-4.34
			V37.239z"/>
		<path d="M210.586,38.751c0.168-0.084,0.477-0.084,0.616,0c0.448,0.225,1.26,0.784,1.54,1.009c0.168,0.14,0.168,0.308,0.084,0.504
			l-0.42,1.036c-0.616,4.928-4.004,10.863-8.568,14.476c-0.168,0.168-0.336,0.196-0.477,0.14l-0.615-0.42
			c-0.168-0.112-0.196-0.224-0.112-0.448c3.192-3.863,5.32-9.407,5.88-13.72c-0.224,0-0.42,0.028-0.531,0.028
			c-0.42,0.028-1.205,0.168-1.625,0.308c-0.14-0.084-0.279-0.195-0.447-0.308c-0.756,4.284-3.893,9.408-7.924,12.46
			c-0.168,0.168-0.364,0.196-0.477,0.14l-0.531-0.392c-0.168-0.112-0.196-0.225-0.112-0.448c2.856-3.276,4.788-8.12,5.348-11.844
			c-0.448,0.028-0.896,0.028-1.063,0.056c-0.42,0.028-1.232,0.168-1.625,0.309c-0.672-0.421-1.344-1.064-1.791-1.568
			c-0.141-0.168-0.141-0.28-0.084-0.392l0.252-0.448c0.588,0.084,1.344,0.14,1.904,0.14c0.615,0,2.547-0.028,3.275-0.084
			l1.036-0.588c0.14-0.084,0.448-0.084,0.616,0c0.279,0.14,0.728,0.42,1.092,0.644c0.308,0.028,0.588,0.028,0.812,0.028
			c0.56,0,2.044-0.028,2.688-0.056L210.586,38.751z M220.134,45.415c0.84-0.027,2.044,0.028,2.576,0.141
			c0.392,0.084,0.644,0.363,0.672,0.728c0.056,0.7-0.112,1.428-0.336,1.708c-0.196,0.252-0.644,0.364-0.979,0.364l-3.949,0.14v5.04
			c0,1.932-0.475,5.769-1.26,7.812h-2.127c-0.252-0.98-0.449-5.349-0.449-6.692V37.184c-0.336-0.645-1.147-1.26-2.043-1.652
			l0.42-1.147c0.056-0.141,0.168-0.225,0.476-0.225c1.399,0.057,3.668,0.504,4.677,0.98c0.336,0.14,0.476,0.42,0.447,0.84
			l-0.141,1.708v8.399l1.121-0.056L220.134,45.415z"/>
		<path d="M247.182,44.799c0.84-0.027,2.044,0.028,2.576,0.141c0.393,0.084,0.645,0.364,0.672,0.728
			c0.057,0.7-0.111,1.429-0.336,1.708c-0.195,0.252-0.645,0.364-0.98,0.364l-4.115,0.14v5.601c0,1.96-0.477,5.824-1.288,7.868
			h-2.156c-0.252-0.952-0.448-5.376-0.448-6.721v-1.008c-2.996,0.729-8.063,1.456-11.06,1.68c-0.7,0.057-1.988,0.337-2.66,0.589
			c-1.12-0.561-2.491-1.568-3.388-2.465c-0.141-0.14-0.168-0.224-0.084-0.392l0.252-0.56c1.176,0.195,2.688,0.252,3.863,0.224
			c0.84,0,1.82-0.056,2.856-0.112v-3.724l-0.952,0.028c-0.224,0.644-0.56,1.035-0.867,1.26h-2.045
			c-0.308-0.672-0.476-1.68-0.476-2.269l-0.168-7.476c-0.252-0.364-0.979-0.868-1.54-1.064l0.252-0.951
			c0.027-0.112,0.141-0.196,0.504-0.196c1.064-0.028,3.416,0.196,4.256,0.42c0.28,0.056,0.42,0.28,0.393,0.672l-0.057,1.372v1.008
			l5.068-0.056V39.06c-0.28-0.42-0.924-0.868-1.54-1.12l0.336-0.952c0.056-0.14,0.168-0.224,0.504-0.196
			c1.093,0.028,3.36,0.42,4.172,0.729c0.308,0.111,0.421,0.336,0.392,0.672l-0.084,1.652l-0.027,4.06c0,0.952-0.168,2.128-0.393,2.8
			l0.504,0.196c0.141,0.056,0.252,0.196,0.252,0.392c0,0.645-0.195,1.288-0.42,1.513h-4.479v3.527
			c2.576-0.224,5.067-0.532,6.636-0.84V37.268c-0.363-0.672-1.232-1.344-2.212-1.765l0.392-1.119
			c0.057-0.141,0.141-0.225,0.449-0.225c1.483,0.057,3.863,0.504,4.955,0.98c0.336,0.14,0.477,0.42,0.448,0.84l-0.14,1.82v7.699
			l1.287-0.084L247.182,44.799z M230.158,43.959l-0.028,2.633l5.124-0.057v-2.632L230.158,43.959z"/>
		<path d="M282.909,44.995c0.84-0.027,2.044,0.028,2.576,0.141c0.392,0.084,0.644,0.363,0.672,0.728
			c0.056,0.7-0.112,1.428-0.336,1.708c-0.196,0.252-0.644,0.364-0.979,0.364l-4.117,0.14v5.404c0,1.96-0.475,5.824-1.287,7.868
			h-2.156c-0.252-0.952-0.447-5.376-0.447-6.721v-0.279c-2.996,0.728-8.064,1.456-11.061,1.68c-0.7,0.056-1.988,0.336-2.66,0.588
			c-1.12-0.56-2.492-1.568-3.388-2.464c-0.112-0.112-0.14-0.224-0.084-0.392l0.252-0.561c1.176,0.196,2.688,0.252,3.864,0.224
			c0.924,0,2.043-0.056,3.22-0.14v-2.1c-2.521-0.477-4.312-1.96-4.312-4.088c0-2.604,2.631-4.284,5.991-4.284
			c3.304,0,5.908,1.68,5.908,4.284c0,2.044-1.652,3.527-4.004,4.031v1.904c2.436-0.224,4.788-0.504,6.272-0.812V37.268
			c-0.365-0.672-1.232-1.344-2.213-1.765l0.393-1.119c0.056-0.141,0.14-0.225,0.447-0.225c1.484,0.057,3.864,0.504,4.957,0.98
			c0.336,0.14,0.475,0.42,0.447,0.84l-0.141,1.82v7.896l1.289-0.084L282.909,44.995z M273.082,39.451
			c0.867,0.057,2.184,0.252,2.715,0.448c0.225,0.084,0.364,0.308,0.364,0.588c0,0.756-0.42,1.456-0.728,1.652
			c-0.504-0.028-1.988-0.057-2.66-0.057c-1.008,0-6.944,0.168-7.924,0.225c-0.616,0.056-1.652,0.224-2.213,0.363
			c-0.924-0.476-1.875-1.287-2.491-1.987c-0.112-0.112-0.112-0.252-0.056-0.364l0.224-0.448c0.952,0.168,2.212,0.28,2.968,0.28
			c1.148,0,7.588-0.168,8.792-0.252L273.082,39.451z M264.233,35.783c2.437,0.42,5.04,0.561,6.692,0.532
			c0.363,0,0.56,0.056,0.699,0.308c0.336,0.532,0.252,1.736-0.168,2.101c-0.168,0.14-0.363,0.168-0.615,0.168
			c-1.064,0-3.053,0.056-4.172,0.14c-0.393,0.056-0.617,0.028-0.841-0.14c-0.616-0.448-1.399-1.456-1.876-2.269
			c-0.084-0.195-0.084-0.336,0-0.476L264.233,35.783z M268.657,49.167c1.315,0,2.269-0.756,2.269-2.071
			c0-1.316-0.953-2.101-2.269-2.101s-2.269,0.784-2.269,2.101C266.389,48.411,267.342,49.167,268.657,49.167z"/>
		<path d="M296.266,45.64c-2.269,2.268-5.068,4.256-8.148,5.684c-0.252,0.112-0.42,0.14-0.531,0.056l-0.561-0.588
			c-0.141-0.14-0.141-0.279,0-0.447c4.004-2.885,7.14-6.889,8.82-10.416c-1.177,0-2.604,0.027-3.08,0.056
			c-0.588,0.028-1.652,0.224-2.269,0.448c-0.952-0.504-1.932-1.288-2.604-1.988c-0.139-0.168-0.168-0.28-0.084-0.42l0.252-0.42
			c0.925,0.14,2.101,0.196,2.94,0.196c1.009,0,4.704-0.057,6.048-0.112l1.289-0.532c0.223-0.084,0.504-0.084,0.727,0
			c0.589,0.224,1.709,0.729,2.129,0.952c0.168,0.112,0.195,0.336,0.084,0.532l-0.729,1.147c-0.699,1.4-1.596,2.8-2.688,4.116
			l1.988,1.54l1.399,0.168c0.532,0.616,1.231,1.596,1.54,2.156c0.28,0.504,0.336,0.84,0.225,1.092
			c-0.225,0.616-1.064,1.036-1.652,0.896c-0.28-0.056-0.645-0.308-0.896-0.56L296.266,45.64z M307.549,55.72
			c0,3.359-2.996,5.403-6.468,5.403s-6.468-2.044-6.468-5.403c0-3.08,2.996-4.956,6.468-4.956S307.549,52.64,307.549,55.72z
			 M303.657,55.72c0-1.513-1.147-2.353-2.576-2.353c-1.428,0-2.575,0.84-2.575,2.353c0,1.512,1.147,2.352,2.575,2.352
			C302.51,58.071,303.657,57.231,303.657,55.72z M309.957,42.195c0.84-0.028,2.044,0.028,2.576,0.14
			c0.393,0.084,0.645,0.364,0.672,0.729c0.057,0.7-0.111,1.428-0.336,1.708c-0.195,0.252-0.645,0.364-0.98,0.364l-4.115,0.14
			c-0.084,1.624-0.588,4.284-1.204,5.544h-2.24c-0.252-0.868-0.448-3.92-0.448-5.04v-8.54c-0.336-0.644-1.176-1.315-2.1-1.708
			l0.393-1.147c0.055-0.141,0.168-0.225,0.475-0.225c1.457,0.057,3.753,0.504,4.816,0.98c0.309,0.14,0.448,0.42,0.42,0.84
			l-0.111,1.764v5.152l1.287-0.084L309.957,42.195z"/>
		<path d="M323.425,43.819c-1.819,2.324-4.424,4.479-7.532,6.076c-0.195,0.111-0.336,0.111-0.476,0l-0.588-0.532
			c-0.14-0.112-0.112-0.28,0.056-0.42c3.668-3.164,6.104-6.888,6.944-10.388c-0.28-0.504-0.896-1.064-1.567-1.4l0.504-1.008
			c0.056-0.14,0.195-0.168,0.476-0.14c1.315,0.111,3.612,0.728,4.479,1.176c0.336,0.168,0.561,0.447,0.561,0.7
			c0,0.336-0.057,0.644-0.141,0.84c-0.279,1.036-0.728,2.071-1.344,3.107l2.408,1.96l1.652,0.364c0.531,0.644,1.231,1.68,1.512,2.24
			c0.279,0.532,0.336,0.896,0.224,1.176c-0.224,0.588-1.063,1.008-1.651,0.868c-0.309-0.084-0.672-0.336-0.952-0.588L323.425,43.819
			z M334.682,57.819c0.924-0.028,2.239,0.112,2.883,0.28c0.365,0.084,0.561,0.336,0.561,0.672c0,0.812-0.225,1.399-0.42,1.596
			c-0.141,0.14-0.364,0.196-0.588,0.196l-12.376,0.084c-1.96-0.028-2.716-0.812-2.716-2.353v-2.239
			c-0.364-0.42-0.952-0.757-1.625-1.009l0.141-0.812c0.027-0.112,0.141-0.196,0.336-0.196c1.204,0,4.032,0.057,5.096,0.168
			c1.512,0,4.789-0.027,5.881-0.084l0.615-0.14c0.057-0.448,0.057-1.428,0.028-1.82c-1.82,0-5.572,0.028-6.468,0.084
			c-0.7,0.028-1.877,0.196-2.66,0.393c-0.98-0.532-1.96-1.316-2.688-2.044c-0.141-0.141-0.141-0.225-0.084-0.393l0.252-0.448
			c0.896,0.168,2.379,0.28,3.107,0.28c1.372,0,7.784-0.056,9.212-0.112l1.204-0.504c0.168-0.084,0.363-0.084,0.588,0
			c0.477,0.168,1.456,0.561,1.848,0.757c0.141,0.111,0.168,0.308,0.084,0.531l-0.504,1.12c-0.056,0.645-0.363,1.736-0.588,2.24
			l0.532,0.252c0.168,0.084,0.28,0.252,0.28,0.42c0,0.616-0.225,1.204-0.42,1.456l-10.276,0.112v1.428
			c0,0.42,0.168,0.588,0.532,0.588c1.764,0.028,5.572,0,7.308-0.056L334.682,57.819z M332.777,37.239
			c-0.336-0.644-1.176-1.315-2.101-1.708l0.392-1.147c0.057-0.141,0.168-0.225,0.477-0.225c1.456,0.057,3.752,0.504,4.816,0.98
			c0.308,0.14,0.447,0.42,0.42,0.84l-0.112,1.764v5.656c0,1.428-0.56,4.06-1.176,5.18h-2.269c-0.279-0.812-0.447-3.332-0.447-4.34
			V37.239z"/>
		<path d="M354.197,36.399c0.056-0.14,0.168-0.224,0.504-0.224c1.26,0.056,3.275,0.504,4.199,0.951
			c0.28,0.141,0.393,0.393,0.393,0.784l-0.112,1.513v13.468c0,1.792-0.448,5.208-1.147,7h-1.932
			c-0.253-1.064-0.449-4.732-0.449-5.992v-6.552c-0.615,0.027-1.231,0.056-1.735,0.084c-0.616,2.771-2.968,4.62-6.104,4.62
			c-3.64,0-6.244-2.492-6.244-6.049c0-3.527,2.604-5.991,6.244-5.991c3.276,0,5.713,2.016,6.16,4.983c0.561,0,1.148,0,1.68-0.027
			v-5.992c-0.308-0.561-1.063-1.12-1.875-1.484L354.197,36.399z M350.333,46.003c0-1.903-1.009-3.052-2.521-3.052
			s-2.52,1.148-2.52,3.052c0,1.876,1.008,3.024,2.52,3.024S350.333,47.879,350.333,46.003z M359.293,34.384
			c0.084-0.141,0.195-0.225,0.504-0.225c1.344,0.057,3.527,0.504,4.536,0.98c0.308,0.14,0.448,0.392,0.42,0.812l-0.112,1.652v16.044
			c0,1.932-0.476,5.684-1.26,7.7h-2.044c-0.252-0.98-0.448-5.265-0.448-6.608V37.1c-0.308-0.588-1.119-1.204-1.988-1.597
			L359.293,34.384z"/>
		<path d="M398.353,46.255c1.231,0.057,3.024,0.337,3.78,0.616c0.308,0.112,0.504,0.364,0.504,0.729
			c0,0.812-0.532,1.567-0.952,1.764c-0.7-0.084-2.772-0.14-3.724-0.14c-0.869,0-3.5,0.027-6.301,0.056v0.812
			c0,0.645-0.14,1.316-0.336,1.904c0.868-0.028,1.652-0.056,2.156-0.084l1.372-0.504c0.196-0.084,0.448-0.084,0.644,0
			c0.504,0.224,1.484,0.672,1.848,0.924c0.141,0.084,0.168,0.252,0.084,0.477l-0.447,1.399c-0.168,1.204-0.393,2.492-0.672,3.584
			l0.504,0.309c0.195,0.111,0.336,0.279,0.336,0.504c0,0.784-0.309,1.456-0.588,1.735l-9.939,0.084
			c-0.141,0.364-0.365,0.645-0.673,0.952h-2.128c-0.279-0.532-0.477-1.315-0.531-2.016l-0.42-5.264
			c-0.365-0.421-1.037-0.868-1.681-1.12l0.28-1.036c0.027-0.112,0.14-0.196,0.363-0.196c1.232,0,3.557,0.168,4.873,0.336
			l1.176-0.027c-0.084-0.421-0.112-0.841-0.112-1.232v-1.484c-2.072,0.028-3.808,0.084-4.425,0.112
			c-0.756,0.056-2.575,0.364-3.387,0.588c-1.177-0.476-2.492-1.428-3.332-2.268c-0.112-0.112-0.141-0.309-0.084-0.448l0.279-0.532
			c1.176,0.196,2.717,0.309,3.836,0.336c1.904,0.028,14.364-0.111,16.38-0.279L398.353,46.255z M379.004,45.023
			c-0.084-0.14-0.056-0.309,0.112-0.393c4.173-2.128,7.112-4.676,8.652-7.504c-0.196-0.392-0.7-0.896-1.231-1.203l0.504-0.925
			c0.084-0.14,0.252-0.195,0.56-0.168c1.344,0.141,3.556,0.729,4.396,1.177c0.364,0.168,0.561,0.447,0.561,0.756
			c-0.028,0.42-0.112,0.672-0.225,0.867c-0.308,0.532-0.699,1.064-1.119,1.568l3.64,1.54l2.269,0.028
			c0.783,0.392,1.903,1.092,2.379,1.512c0.448,0.392,0.616,0.729,0.616,1.036c0,0.7-0.672,1.372-1.288,1.428
			c-0.308,0.028-0.728-0.112-1.092-0.252l-8.176-3.612c-2.436,2.129-5.824,3.864-9.576,4.872c-0.252,0.057-0.363,0.057-0.447-0.027
			L379.004,45.023z M386.789,57.932c1.68,0.027,4.144,0,5.627-0.084l0.645-0.168l0.056-3.248c-1.987,0.027-4.452,0.084-6.327,0.14
			V57.932z"/>
		<path d="M420.725,34.384c0.056-0.141,0.14-0.225,0.447-0.225c1.484,0.057,3.864,0.504,4.957,0.98
			c0.336,0.14,0.475,0.42,0.447,0.84l-0.141,1.82v15.68c0,1.96-0.475,5.824-1.287,7.868h-2.156
			c-0.252-0.952-0.447-5.376-0.447-6.721v-7.699c-0.337,0-0.673,0.027-0.812,0.056c-0.448,0.056-1.428,0.336-1.876,0.504
			c-0.448-0.224-0.868-0.476-1.232-0.756c-0.364,3.248-3.192,5.544-6.888,5.544c-4.004,0-6.916-2.632-6.916-6.272
			c0-3.64,2.912-6.3,6.916-6.3c3.5,0,6.216,2.072,6.804,5.068c0.616,0.027,1.261,0.056,1.792,0.056c0.532,0,1.428,0,2.213-0.056
			v-7.504c-0.365-0.672-1.232-1.344-2.213-1.765L420.725,34.384z M414.62,46.003c0-2.016-1.176-3.275-2.884-3.275
			s-2.884,1.26-2.884,3.275c0,1.988,1.176,3.248,2.884,3.248S414.62,47.991,414.62,46.003z"/>
		<path d="M444.691,48.747c0.449,0.784,1.009,2.017,1.232,2.66c0.196,0.616,0.196,1.008,0.028,1.288
			c-0.336,0.588-1.261,0.896-1.819,0.644c-0.281-0.14-0.617-0.476-0.841-0.783l-4.088-5.236c-1.735,2.38-4.088,4.62-6.944,6.44
			c-0.195,0.111-0.336,0.111-0.476,0.027l-0.672-0.56c-0.112-0.112-0.112-0.252,0.028-0.42c3.808-3.809,6.215-8.316,6.859-12.376
			c-0.279-0.561-0.924-1.204-1.624-1.568l0.476-0.979c0.084-0.141,0.197-0.196,0.477-0.168c1.316,0.111,3.668,0.728,4.564,1.176
			c0.336,0.168,0.56,0.447,0.56,0.728c0,0.309-0.028,0.616-0.084,0.84c-0.28,1.54-0.896,3.164-1.792,4.761l2.408,2.827
			L444.691,48.747z M447.771,34.384c0.057-0.141,0.141-0.225,0.449-0.225c1.483,0.057,3.863,0.504,4.955,0.98
			c0.336,0.14,0.477,0.42,0.448,0.84l-0.14,1.82v15.68c0,1.96-0.477,5.824-1.288,7.868h-2.156c-0.252-0.952-0.448-5.376-0.448-6.721
			v-8.344c-0.728,0.028-1.455,0.084-1.791,0.14c-0.421,0.057-1.429,0.309-1.877,0.505c-1.035-0.589-1.904-1.316-2.632-2.072
			c-0.14-0.141-0.168-0.28-0.084-0.42l0.28-0.477c0.783,0.141,2.072,0.225,2.939,0.225c0.7,0,2.072-0.028,3.164-0.084v-6.832
			c-0.363-0.672-1.232-1.344-2.212-1.765L447.771,34.384z"/>
		<path d="M488.176,46.844c1.232,0.056,3.023,0.336,3.779,0.615c0.309,0.112,0.504,0.364,0.504,0.729
			c0,0.812-0.531,1.567-0.951,1.764c-0.7-0.084-2.771-0.14-3.725-0.14c-1.932,0-12.852,0.111-14.615,0.224
			c-0.756,0.056-2.576,0.364-3.389,0.588c-1.176-0.476-2.492-1.428-3.332-2.268c-0.111-0.112-0.14-0.309-0.084-0.448l0.28-0.532
			c1.177,0.196,2.716,0.309,3.836,0.336c1.904,0.028,14.364-0.111,16.38-0.279L488.176,46.844z M484.703,51.352
			c0.196-0.084,0.449-0.084,0.645,0c0.504,0.224,1.484,0.672,1.848,0.924c0.141,0.084,0.168,0.252,0.084,0.476l-0.447,1.4
			c-0.168,1.231-0.42,2.548-0.729,3.668l0.561,0.336c0.195,0.112,0.336,0.28,0.336,0.504c0,0.784-0.309,1.456-0.588,1.736
			l-9.969,0.084c-0.14,0.363-0.363,0.672-0.672,0.952h-2.128c-0.28-0.561-0.476-1.345-0.532-2.044l-0.42-5.349
			c-0.363-0.42-1.035-0.868-1.68-1.12l0.279-1.036c0.029-0.111,0.141-0.195,0.365-0.195c1.231,0,3.556,0.168,4.871,0.336
			c1.512-0.028,5.377-0.084,6.805-0.168L484.703,51.352z M472.439,41.047c0-2.911,2.717-5.207,6.916-5.207
			c4.2,0,6.916,2.296,6.916,5.207c0,2.94-2.716,5.236-6.916,5.236C475.156,46.283,472.439,43.987,472.439,41.047z M476.332,41.047
			c0,1.681,1.176,2.801,3.023,2.801s3.024-1.12,3.024-2.801c0-1.651-1.177-2.8-3.024-2.8S476.332,39.396,476.332,41.047z
			 M476.611,57.987c1.709,0.028,4.145,0,5.656-0.084l0.645-0.168l0.056-3.36c-1.988,0.028-4.479,0.084-6.356,0.141V57.987z"/>
		<path d="M503.127,44.463c-1.819,2.324-4.367,4.48-7.447,6.104c-0.196,0.112-0.336,0.112-0.477,0.028l-0.615-0.561
			c-0.112-0.112-0.112-0.28,0.056-0.42c3.696-3.276,6.132-7.14,6.972-10.724c-0.279-0.504-0.896-1.064-1.568-1.4l0.505-1.008
			c0.056-0.14,0.196-0.168,0.476-0.14c1.316,0.111,3.612,0.728,4.48,1.176c0.336,0.168,0.56,0.448,0.56,0.7
			c0,0.336-0.056,0.615-0.14,0.84c-0.28,1.12-0.756,2.268-1.428,3.388l2.492,2.24l1.623,0.42c0.504,0.672,1.148,1.736,1.428,2.324
			c0.225,0.531,0.28,0.896,0.168,1.176c-0.252,0.616-1.147,0.979-1.735,0.812c-0.28-0.084-0.644-0.363-0.896-0.615L503.127,44.463z
			 M513.936,51.184c0.168-0.084,0.447-0.084,0.615,0c0.533,0.252,1.513,0.783,1.877,1.036c0.14,0.111,0.14,0.252,0.084,0.476
			l-0.393,1.316l-0.084,3.107c0,1.372-0.504,3.472-1.092,4.452h-2.296c-0.252-0.756-0.42-2.66-0.42-3.584v-3.976
			c-2.212,0-6.048,0.056-7.084,0.14c-0.812,0.028-2.101,0.252-2.856,0.504c-1.119-0.476-2.24-1.232-3.023-1.96
			c-0.168-0.14-0.196-0.28-0.112-0.448l0.28-0.532c1.092,0.141,2.464,0.225,3.443,0.225c1.316,0,8.176-0.141,9.94-0.28
			L513.936,51.184z M512.424,37.239c-0.336-0.644-1.176-1.315-2.101-1.708l0.392-1.147c0.057-0.141,0.168-0.225,0.477-0.225
			c1.456,0.057,3.752,0.504,4.816,0.98c0.308,0.14,0.447,0.42,0.42,0.84l-0.112,1.764v6.776c0,1.596-0.532,4.592-1.204,5.992h-2.24
			c-0.252-0.868-0.447-3.948-0.447-5.068V37.239z"/>
		<path d="M542.271,45.724c1.232,0.056,3.052,0.336,3.779,0.615c0.309,0.112,0.504,0.337,0.504,0.7c0,0.756-0.531,1.456-0.951,1.624
			c-0.7-0.084-2.771-0.14-3.725-0.14c-1.904,0-12.936,0.112-14.644,0.224c-0.728,0.057-2.548,0.364-3.36,0.588
			c-1.176-0.42-2.492-1.315-3.332-2.1c-0.111-0.112-0.14-0.308-0.084-0.448l0.28-0.532c1.177,0.196,2.716,0.309,3.836,0.337
			c1.876,0.027,14.392-0.112,16.38-0.28L542.271,45.724z M539.135,58.071c0.896,0,2.24,0.112,2.856,0.28
			c0.336,0.084,0.56,0.336,0.56,0.644c0,0.784-0.224,1.344-0.42,1.54c-0.14,0.14-0.363,0.196-0.588,0.196l-12.096,0.084h-0.027
			c-2.072-0.028-2.856-0.84-2.856-2.324v-2.044c-0.364-0.42-0.952-0.756-1.624-1.008l0.141-0.812
			c0.027-0.111,0.139-0.195,0.336-0.195c1.203,0,4.031,0.056,5.096,0.168c1.568,0,4.76-0.028,5.768-0.084l0.672-0.141
			c0.028-0.447,0.057-1.344,0.028-1.68c-1.849-0.028-5.74,0-6.636,0.056c-0.7,0.057-1.848,0.225-2.633,0.42
			c-0.951-0.531-1.932-1.288-2.631-1.987c-0.141-0.141-0.168-0.225-0.084-0.393l0.223-0.447c0.896,0.168,2.324,0.279,3.08,0.279
			c1.373,0,7.869-0.056,9.324-0.111l1.12-0.477c0.168-0.084,0.364-0.084,0.589,0c0.475,0.168,1.483,0.532,1.875,0.729
			c0.141,0.084,0.168,0.279,0.084,0.504l-0.504,1.12c-0.056,0.615-0.336,1.624-0.56,2.1l0.532,0.252
			c0.14,0.084,0.252,0.224,0.252,0.392c0,0.589-0.225,1.177-0.42,1.4l-10.137,0.112v1.344c0,0.392,0.168,0.588,0.561,0.588
			c1.764,0.028,5.516,0,7.168-0.056L539.135,58.071z M526.592,40.375c0-2.828,2.688-4.815,6.859-4.815s6.86,1.987,6.86,4.815
			c0,2.856-2.688,4.845-6.86,4.845S526.592,43.231,526.592,40.375z M530.512,40.375c0,1.484,1.119,2.408,2.939,2.408
			s2.939-0.924,2.939-2.408c0-1.483-1.119-2.407-2.939-2.407S530.512,38.892,530.512,40.375z"/>
		<path d="M7,82.46c-0.14,0.476-0.392,0.896-0.728,1.288H4.172c-0.252-0.645-0.42-1.568-0.504-2.353L3.08,73.528
			c-0.308-0.393-0.896-0.812-1.512-1.064l0.252-1.008c0.057-0.112,0.168-0.196,0.393-0.196c1.287,0,3.527,0.168,4.844,0.393
			c1.176,0.027,3.752,0,4.955-0.084l1.373-0.645c0.195-0.084,0.447-0.084,0.644,0c0.532,0.224,1.597,0.729,2.044,1.008
			c0.112,0.084,0.141,0.225,0.057,0.477l-0.42,1.456c-0.028,0.504-0.057,1.036-0.113,1.567c0.421,0.028,0.812,0.028,1.177,0.028
			c0.644,0.028,1.792,0,2.8-0.056V70.84c-0.336-0.644-1.176-1.315-2.1-1.708l0.392-1.147c0.056-0.141,0.168-0.225,0.476-0.225
			c1.457,0.057,3.752,0.504,4.816,0.98c0.309,0.14,0.448,0.42,0.42,0.84l-0.111,1.764v6.776c0,1.596-0.532,4.592-1.205,5.992h-2.239
			c-0.252-0.868-0.448-3.948-0.448-5.068v-1.568c-0.645,0-1.26,0.028-1.568,0.084c-0.42,0.057-1.26,0.252-1.707,0.42
			c-0.309-0.195-0.616-0.392-0.896-0.615c-0.111,0.951-0.252,1.876-0.393,2.688l0.561,0.28c0.168,0.084,0.309,0.252,0.309,0.476
			c0,0.672-0.252,1.345-0.477,1.597L7,82.46z M21.084,84.84c0.168-0.084,0.448-0.084,0.616,0c0.532,0.252,1.513,0.784,1.876,1.036
			c0.141,0.112,0.141,0.252,0.084,0.476l-0.392,1.316l-0.084,3.107c0,1.372-0.505,3.473-1.093,4.452h-2.295
			c-0.252-0.756-0.42-2.66-0.42-3.584v-3.976c-2.185,0-5.965,0.056-6.973,0.14c-0.783,0.028-2.1,0.252-2.855,0.504
			c-1.121-0.476-2.24-1.231-3.024-1.96c-0.168-0.14-0.196-0.279-0.112-0.447l0.28-0.532c1.093,0.14,2.464,0.224,3.444,0.224
			c1.344,0,8.092-0.14,9.828-0.28L21.084,84.84z M11.76,73.892c-1.455,0-3.247,0.028-4.676,0.057l0.057,6.216
			c1.203,0.027,2.996,0,3.976-0.057l0.589-0.14L11.76,73.892z"/>
		<path d="M46.592,77.336c-0.615,0-1.203,0.028-1.512,0.084c-0.42,0.056-1.26,0.252-1.708,0.42c-0.364-0.224-0.672-0.448-0.979-0.7
			c-0.309,3.052-2.94,5.181-6.524,5.181c-3.808,0-6.524-2.408-6.524-5.74c0-3.276,2.717-5.656,6.524-5.656
			c3.276,0,5.769,1.764,6.384,4.34c0.532,0.028,1.12,0.057,1.596,0.057c0.617,0.027,1.736,0,2.744-0.057V70.84
			c-0.336-0.644-1.176-1.315-2.1-1.708l0.393-1.147c0.056-0.141,0.168-0.225,0.476-0.225c1.456,0.057,3.752,0.504,4.815,0.98
			c0.309,0.14,0.448,0.42,0.42,0.84l-0.111,1.764v6.3c0,1.597-0.532,4.593-1.204,5.992h-2.24c-0.252-0.868-0.448-3.948-0.448-5.067
			V77.336z M50.932,90.691c0.393,0.589,0.841,1.484,1.009,2.017c0.14,0.448,0.14,0.756,0.028,0.979
			c-0.28,0.532-1.037,0.84-1.568,0.7c-0.28-0.056-0.588-0.336-0.84-0.616l-2.969-3.388c-1.483,1.792-3.527,3.472-6.02,4.872
			c-0.225,0.14-0.336,0.14-0.477,0.056l-0.728-0.56c-0.14-0.14-0.14-0.28,0.028-0.448c0.531-0.476,1.035-0.979,1.484-1.483
			c-0.197-0.084-0.393-0.225-0.561-0.421l-2.24-2.38c-1.512,1.765-3.64,3.389-6.216,4.704c-0.224,0.141-0.364,0.141-0.504,0.057
			l-0.7-0.589c-0.14-0.111-0.168-0.252,0.028-0.42c2.772-2.296,4.676-4.899,5.403-7.42c-0.195-0.363-0.699-0.812-1.231-1.092
			l0.532-0.979c0.084-0.141,0.252-0.196,0.504-0.168c1.232,0.168,3.164,0.756,3.892,1.176c0.308,0.168,0.476,0.42,0.476,0.672
			c0,0.364-0.055,0.588-0.139,0.784c-0.197,0.504-0.449,0.979-0.729,1.456l1.176,1.176l1.064,0.532
			c0.224,0.336,0.476,0.84,0.644,1.231c1.231-1.651,2.071-3.388,2.492-5.04c-0.168-0.392-0.7-0.924-1.232-1.231l0.532-0.98
			c0.084-0.168,0.252-0.224,0.504-0.168c1.26,0.252,3.137,0.896,3.893,1.372c0.308,0.196,0.476,0.42,0.476,0.672
			c0,0.336-0.056,0.588-0.112,0.784c-0.252,0.672-0.56,1.344-0.951,1.988l1.567,1.512L50.932,90.691z M33.125,76.58
			c0,1.792,1.092,2.884,2.743,2.884c1.652,0,2.744-1.092,2.744-2.884c0-1.764-1.092-2.912-2.744-2.912
			C34.217,73.668,33.125,74.816,33.125,76.58z"/>
		<path d="M77.896,78.708c0.84-0.028,2.043,0.028,2.576,0.14c0.392,0.084,0.644,0.364,0.672,0.729
			c0.056,0.7-0.112,1.428-0.336,1.708c-0.196,0.252-0.645,0.363-0.98,0.363l-4.116,0.141v5.292c0,1.96-0.476,5.824-1.288,7.868
			h-2.156c-0.252-0.952-0.447-5.376-0.447-6.721v-2.996c-3.36,1.12-7.448,1.96-10.248,2.24c-0.448,0.057-0.896,0.057-1.232,0.057
			c-1.568,0-2.66-0.868-3.08-2.213c-0.111-0.363-0.195-0.979-0.195-1.624V75.32c-0.364-0.477-1.036-0.952-1.793-1.232l0.253-1.008
			c0.056-0.112,0.14-0.196,0.336-0.196c1.176,0,3.836,0.14,4.983,0.336c1.037-0.027,3.473-0.168,4.284-0.252l0.896-0.616
			c0.841,0,2.156,0.057,2.828,0.196c0.336,0.084,0.533,0.308,0.533,0.645c0,0.84-0.225,1.455-0.477,1.735
			c-0.141,0.141-0.336,0.196-0.588,0.196l-7.364,0.308v8.288c0,0.393,0.168,0.588,0.56,0.561c2.885-0.028,7.057-0.448,10.305-1.261
			V70.868c-0.364-0.672-1.232-1.344-2.213-1.765L70,67.984c0.057-0.141,0.141-0.225,0.448-0.225c1.483,0.057,3.864,0.504,4.956,0.98
			c0.336,0.14,0.476,0.42,0.447,0.84l-0.14,1.82v8.008L77,79.324L77.896,78.708z"/>
		<path d="M83.553,72.716c-1.009-0.728-1.232-1.399-1.232-2.184c0-1.261,1.008-2.128,2.156-2.128c0.812,0,1.399,0.363,1.848,0.699
			c0.476,0.784,0.729,1.708,0.729,2.604c0,2.632-1.933,5.012-4.789,6.02l-0.336-0.699c1.596-0.784,2.633-1.765,3.276-3.164
			L83.553,72.716z M89.964,72.716c-1.008-0.728-1.231-1.399-1.231-2.184c0-1.261,1.008-2.128,2.156-2.128
			c0.812,0,1.399,0.363,1.848,0.699c0.476,0.784,0.728,1.708,0.728,2.604c0,2.632-1.96,5.012-4.788,6.02l-0.336-0.699
			c1.596-0.784,2.633-1.765,3.276-3.164L89.964,72.716z"/>
		<path d="M112.111,67.984c0.057-0.141,0.141-0.225,0.447-0.225c1.484,0.057,3.865,0.504,4.957,0.98
			c0.336,0.14,0.476,0.42,0.447,0.84l-0.14,1.82v15.68c0,1.96-0.476,5.824-1.288,7.868h-2.156c-0.252-0.952-0.447-5.376-0.447-6.721
			v-5.151c-0.645,0.027-1.26,0.056-1.596,0.084c-0.449,0.027-1.232,0.195-1.681,0.308c-0.504-0.28-0.952-0.616-1.344-0.952
			l-0.14,0.98l0.392,0.224c0.168,0.112,0.308,0.28,0.308,0.504c0,0.784-0.252,1.484-0.531,1.765l-8.373,0.084
			c-0.14,0.504-0.392,0.951-0.728,1.372h-2.185c-0.252-0.673-0.391-1.597-0.475-2.408l-0.533-9.772
			c-0.308-0.42-0.896-0.812-1.512-1.063l0.252-1.008c0.057-0.112,0.168-0.196,0.393-0.196c1.287,0,3.527,0.168,4.844,0.392
			c1.232,0.028,3.977,0,5.152-0.084l1.428-0.672c0.195-0.112,0.447-0.112,0.672,0c0.531,0.224,1.568,0.729,1.988,1.008
			c0.14,0.084,0.168,0.252,0.084,0.477l-0.42,1.428c0.447,0.028,0.867,0.056,1.26,0.056c0.615,0,1.736-0.027,2.744-0.056v-4.676
			c-0.364-0.672-1.232-1.344-2.213-1.765L112.111,67.984z M101.079,83.636c1.288,0.028,3.08,0,4.144-0.056l0.589-0.141l0.028-7.756
			c-1.484,0-3.305,0.028-4.761,0.057V83.636z M113.932,77.644c-0.645,0.028-1.232,0.057-1.541,0.084
			c-0.447,0.028-1.231,0.196-1.68,0.309c-0.308-0.168-0.615-0.364-0.896-0.588c-0.056,1.147-0.168,2.352-0.308,3.5
			c0.531,0.056,1.119,0.084,1.623,0.084c0.616,0,1.765-0.028,2.801-0.057V77.644z"/>
		<path d="M140.867,81.452c-2.297,1.932-5.041,3.556-8.008,4.647c-0.252,0.112-0.42,0.112-0.532,0.028l-0.505-0.56
			c-0.111-0.141-0.139-0.28,0-0.448c3.949-2.492,7.113-5.937,8.988-9.072c-1.26,0-2.8,0.056-3.304,0.084
			c-0.588,0.028-1.596,0.224-2.155,0.42c-0.953-0.448-1.904-1.147-2.576-1.82c-0.141-0.14-0.141-0.279-0.084-0.42l0.252-0.447
			c0.924,0.14,2.071,0.195,2.883,0.195c1.009,0,5.152-0.056,6.412-0.168l1.289-0.476c0.224-0.084,0.531-0.084,0.728,0
			c0.532,0.224,1.54,0.728,1.933,0.979c0.168,0.112,0.168,0.336,0.055,0.505l-0.699,1.035c-0.756,1.345-1.764,2.66-2.939,3.893
			l1.903,1.708l1.288,0.336c0.42,0.588,0.952,1.512,1.148,2.016c0.195,0.477,0.195,0.784,0.084,1.036
			c-0.252,0.56-1.064,0.924-1.625,0.784c-0.308-0.056-0.644-0.309-0.896-0.588L140.867,81.452z M135.995,69.412
			c2.38,0.448,4.844,0.588,6.468,0.56c0.363,0,0.531,0.057,0.7,0.309c0.28,0.504,0.196,1.624-0.169,1.96
			c-0.139,0.14-0.336,0.168-0.588,0.168c-1.092,0-3.051,0.056-4.199,0.14c-0.364,0.028-0.532,0.028-0.756-0.14
			c-0.561-0.448-1.316-1.372-1.709-2.156c-0.111-0.196-0.111-0.336-0.027-0.476L135.995,69.412z M151.479,91.084
			c1.008-0.028,2.465,0.084,3.164,0.252c0.364,0.084,0.588,0.336,0.588,0.672c0,0.924-0.308,1.596-0.531,1.82
			c-0.141,0.14-0.364,0.195-0.616,0.195l-11.929,0.112c-2.268-0.028-3.164-0.952-3.164-2.716v-2.856
			c-0.447-0.42-1.203-0.867-1.932-1.147l0.225-0.952c0.027-0.14,0.195-0.28,0.476-0.28c1.315,0,3.668,0.168,4.677,0.393
			c0.363,0.084,0.559,0.336,0.559,0.756l-0.055,1.596v2.212c0,0.477,0.195,0.7,0.672,0.7c1.623,0.028,4.955-0.028,6.636-0.084
			L151.479,91.084z M144.955,78.036c0.644,0.111,1.568,0.14,2.296,0.14c0.56,0.028,1.512,0,2.407-0.028V70.84
			c-0.336-0.644-1.176-1.315-2.1-1.708l0.393-1.147c0.056-0.141,0.168-0.225,0.476-0.225c1.456,0.057,3.752,0.504,4.815,0.98
			c0.309,0.14,0.449,0.42,0.42,0.84l-0.111,1.764V80.5c0,2.268-0.477,5.6-1.26,7.392h-2.184c-0.281-1.063-0.449-4.844-0.449-6.3
			v-1.288c-0.504,0-0.979,0.057-1.231,0.084c-0.448,0.028-1.231,0.252-1.68,0.448c-0.784-0.56-1.484-1.26-2.044-1.932
			c-0.112-0.141-0.141-0.28-0.057-0.42L144.955,78.036z"/>
		<path d="M168.335,79.828c-2.296,2.268-5.152,4.284-8.316,5.712c-0.252,0.112-0.42,0.14-0.504,0.028l-0.532-0.532
			c-0.14-0.141-0.14-0.28,0-0.448c4.145-3.024,7.42-7.112,9.184-10.78c-1.26,0-2.771,0.028-3.303,0.057
			c-0.617,0.027-1.652,0.224-2.269,0.447c-0.952-0.504-1.933-1.288-2.604-1.987c-0.14-0.168-0.168-0.28-0.084-0.42l0.252-0.42
			c0.924,0.14,2.101,0.195,2.94,0.195c1.036,0,4.983-0.056,6.272-0.111l1.287-0.532c0.225-0.057,0.504-0.057,0.729,0
			c0.588,0.224,1.708,0.728,2.128,0.952c0.168,0.111,0.196,0.336,0.084,0.531l-0.728,1.148c-0.729,1.512-1.709,2.996-2.912,4.424
			l2.128,1.904l1.315,0.364c0.504,0.644,1.12,1.708,1.373,2.296c0.223,0.504,0.252,0.867,0.139,1.119
			c-0.223,0.561-1.063,0.868-1.651,0.673c-0.28-0.084-0.616-0.364-0.868-0.616L168.335,79.828z M178.611,91.112
			c1.008-0.028,2.463,0.084,3.163,0.252c0.364,0.084,0.589,0.336,0.589,0.672c0,0.952-0.281,1.596-0.504,1.819
			c-0.141,0.141-0.365,0.196-0.617,0.196l-11.899,0.112c-2.269-0.028-3.164-0.952-3.164-2.716v-3.053
			c-0.448-0.42-1.204-0.867-1.933-1.147l0.225-0.952c0.027-0.14,0.195-0.28,0.477-0.28c1.315,0,3.668,0.168,4.676,0.393
			c0.363,0.084,0.56,0.336,0.56,0.756l-0.056,1.596v2.408c0,0.476,0.195,0.7,0.672,0.7c1.596,0.027,4.928-0.028,6.58-0.084
			L178.611,91.112z M176.707,70.84c-0.336-0.644-1.176-1.315-2.101-1.708l0.392-1.147c0.057-0.141,0.168-0.225,0.477-0.225
			c1.456,0.057,3.752,0.504,4.816,0.98c0.308,0.14,0.447,0.42,0.42,0.84l-0.112,1.764v9.072c0,2.268-0.476,5.6-1.26,7.392h-2.185
			c-0.279-1.036-0.447-4.844-0.447-6.3V70.84z"/>
		<path d="M207.982,76.216c0.84-0.028,2.044,0.028,2.576,0.14c0.393,0.084,0.645,0.364,0.672,0.729
			c0.057,0.7-0.111,1.428-0.336,1.708c-0.195,0.252-0.645,0.364-0.98,0.364l-4.115,0.14v1.12c0,2.268-0.477,5.6-1.26,7.392h-2.185
			c-0.252-0.979-0.42-4.368-0.448-5.992c-3.359,1.009-7.308,1.736-10.08,1.96c-0.42,0.028-0.867,0.057-1.203,0.057
			c-1.541,0-2.604-0.868-3.024-2.185c-0.112-0.336-0.196-0.979-0.196-1.624v-5.88c-0.42-0.42-1.148-0.867-1.848-1.12l0.225-0.979
			c0.027-0.14,0.195-0.28,0.475-0.28c1.289,0,3.557,0.168,4.537,0.393c0.363,0.084,0.56,0.363,0.56,0.756l-0.056,1.567v5.656
			c0,0.393,0.168,0.588,0.588,0.588c2.744,0,6.804-0.363,10.023-1.063v-8.82c-0.336-0.644-1.176-1.315-2.1-1.708l0.393-1.147
			c0.055-0.141,0.168-0.225,0.475-0.225c1.457,0.057,3.753,0.504,4.816,0.98c0.309,0.14,0.448,0.42,0.42,0.84l-0.111,1.764v5.572
			l1.287-0.084L207.982,76.216z M204.258,91.084c1.009-0.028,2.465,0.084,3.164,0.252c0.365,0.084,0.589,0.336,0.589,0.672
			c0,0.924-0.28,1.596-0.532,1.82c-0.141,0.14-0.363,0.195-0.616,0.195l-11.647,0.112c-2.268-0.028-3.164-0.952-3.164-2.716v-3.192
			c-0.448-0.42-1.204-0.868-1.932-1.147l0.224-0.952c0.028-0.14,0.196-0.28,0.476-0.28c1.316,0,3.668,0.168,4.676,0.393
			c0.364,0.084,0.561,0.336,0.561,0.756l-0.057,1.596v2.548c0,0.477,0.196,0.7,0.672,0.7c1.541,0.028,4.761-0.028,6.356-0.084
			L204.258,91.084z"/>
		<path d="M217.334,82.768c-0.14,0.448-0.363,0.812-0.672,1.204h-2.127c-0.253-0.644-0.421-1.567-0.505-2.352l-0.588-7.84
			c-0.308-0.393-0.896-0.812-1.512-1.064l0.252-1.008c0.056-0.112,0.168-0.196,0.392-0.196c1.288,0,3.528,0.168,4.844,0.393
			c1.205,0.027,3.864,0,5.013-0.084l1.372-0.645c0.195-0.084,0.447-0.084,0.644,0c0.532,0.225,1.597,0.729,2.044,1.008
			c0.112,0.084,0.141,0.225,0.057,0.477l-0.42,1.456c-0.084,1.987-0.393,4.368-0.701,6.16l0.561,0.308
			c0.196,0.084,0.309,0.252,0.309,0.504c0,0.7-0.225,1.372-0.477,1.624L217.334,82.768z M231.026,91.14
			c1.008-0.027,2.464,0.084,3.164,0.252c0.364,0.084,0.588,0.336,0.588,0.672c0,0.925-0.308,1.597-0.532,1.82
			c-0.14,0.14-0.363,0.196-0.615,0.196l-11.648,0.111c-2.268-0.027-3.164-0.951-3.164-2.716v-3.164
			c-0.447-0.42-1.204-0.867-1.932-1.147l0.224-0.952c0.028-0.14,0.196-0.28,0.476-0.28c1.316,0,3.668,0.168,4.676,0.393
			c0.365,0.084,0.561,0.336,0.561,0.756l-0.056,1.596v2.521c0,0.476,0.196,0.699,0.672,0.699c1.54,0.028,4.76-0.027,6.356-0.084
			L231.026,91.14z M222.178,74.2c-1.455,0-3.303,0.027-4.731,0.056l0.056,6.132c1.232,0.028,3.024,0,4.088-0.027l0.533-0.141
			L222.178,74.2z M235.03,76.776c0.84-0.028,2.044,0.027,2.576,0.14c0.392,0.084,0.644,0.364,0.672,0.728
			c0.056,0.7-0.112,1.429-0.336,1.708c-0.196,0.252-0.644,0.364-0.979,0.364l-4.117,0.14v0.561c0,2.268-0.475,5.6-1.26,7.392h-2.184
			c-0.279-1.036-0.447-4.844-0.447-6.3V70.84c-0.337-0.644-1.177-1.315-2.101-1.708l0.392-1.147
			c0.057-0.141,0.168-0.225,0.477-0.225c1.455,0.057,3.752,0.504,4.816,0.98c0.307,0.14,0.447,0.42,0.42,0.84l-0.113,1.764v6.132
			l1.289-0.084L235.03,76.776z"/>
		<path d="M250.122,73.388c0.728,0.028,1.904,0.168,2.408,0.309c0.196,0.084,0.336,0.279,0.336,0.56c0,0.84-0.392,1.512-0.756,1.708
			c-0.448-0.028-1.651-0.056-2.296-0.056c-0.84,0-5.6,0.168-6.496,0.224c-0.532,0.028-1.428,0.168-1.904,0.28
			c-0.783-0.477-1.568-1.204-2.072-1.82c-0.111-0.112-0.14-0.28-0.084-0.364l0.252-0.476c0.785,0.168,1.765,0.252,2.437,0.252
			c1.063,0,6.216-0.14,7.28-0.252L250.122,73.388z M246.902,84.252c-3.164,0-5.572-1.484-5.572-3.92
			c0-2.408,2.408-3.836,5.572-3.836c3.08,0,5.432,1.428,5.432,3.836C252.334,82.768,249.982,84.252,246.902,84.252z M262.723,90.832
			c0.363,0.588,0.812,1.512,0.979,2.016c0.14,0.448,0.14,0.756,0.028,0.98c-0.28,0.56-1.036,0.868-1.568,0.728
			c-0.279-0.056-0.588-0.336-0.84-0.616l-2.744-3.136c-1.54,1.764-3.695,3.36-6.355,4.564c-0.225,0.14-0.364,0.14-0.477,0.027
			l-0.645-0.644c-0.139-0.14-0.139-0.28,0.029-0.42c0.531-0.448,1.035-0.924,1.512-1.372c-0.168-0.084-0.336-0.224-0.477-0.393
			l-2.072-2.212c-1.539,1.736-3.808,3.305-6.523,4.425c-0.252,0.14-0.364,0.14-0.504,0.056l-0.616-0.645
			c-0.168-0.168-0.168-0.308,0-0.447c2.688-2.017,4.536-4.2,5.349-6.496c-0.197-0.364-0.701-0.812-1.232-1.092l0.531-0.98
			c0.084-0.14,0.252-0.196,0.504-0.168c1.232,0.168,3.164,0.756,3.893,1.176c0.309,0.168,0.477,0.42,0.477,0.672
			c0,0.364-0.057,0.589-0.141,0.784c-0.111,0.309-0.279,0.588-0.42,0.896l1.008,1.008l1.092,0.532
			c0.252,0.336,0.504,0.84,0.645,1.204c1.204-1.484,2.044-3.053,2.492-4.593c-0.168-0.392-0.7-0.924-1.232-1.231l0.532-0.98
			c0.084-0.168,0.252-0.224,0.504-0.168c1.261,0.252,3.136,0.896,3.892,1.372c0.309,0.196,0.477,0.42,0.477,0.672
			c0,0.336-0.057,0.588-0.112,0.784c-0.196,0.616-0.448,1.232-0.812,1.82l1.316,1.26L262.723,90.832z M242.702,69.944
			c2.296,0.42,4.536,0.56,6.076,0.56c0.364,0,0.56,0.056,0.7,0.336c0.308,0.504,0.224,1.652-0.168,1.96
			c-0.168,0.14-0.364,0.168-0.588,0.168c-1.064,0-2.885,0.028-4.032,0.084c-0.336,0.028-0.476,0.028-0.673-0.14
			c-0.531-0.42-1.203-1.288-1.567-1.988c-0.14-0.252-0.14-0.392-0.056-0.56L242.702,69.944z M246.902,82.096
			c1.204,0,1.988-0.644,1.988-1.764s-0.784-1.764-1.988-1.764s-1.988,0.644-1.988,1.764S245.698,82.096,246.902,82.096z
			 M253.622,72.156c-0.308-0.561-1.036-1.12-1.876-1.484l0.42-1.092c0.057-0.141,0.168-0.225,0.504-0.225
			c1.26,0.057,3.276,0.505,4.2,0.952c0.308,0.141,0.42,0.393,0.392,0.784l-0.084,1.512v4.145l1.736-0.056V70.7
			c-0.308-0.588-1.119-1.204-1.988-1.597l0.393-1.119c0.084-0.141,0.195-0.225,0.504-0.225c1.344,0.057,3.527,0.504,4.536,0.98
			c0.308,0.14,0.448,0.392,0.42,0.812l-0.112,1.652v8.008c0,1.512-0.531,4.172-1.148,5.348h-2.155
			c-0.252-0.84-0.448-3.416-0.448-4.479v-1.008l-1.764,0.056c-0.084,1.708-0.504,3.64-1.064,4.592h-2.016
			c-0.28-0.84-0.448-3.107-0.448-4.368V72.156z"/>
		<path d="M282.182,82.124c0.028,0.168-0.056,0.308-0.279,0.448c-2.24,1.063-5.768,1.987-8.092,2.071
			c-0.504,0.028-0.896,0.028-1.373,0.028c-2.155,0-2.827-0.336-3.471-1.96c-0.084-0.14-0.141-0.952-0.141-1.82v-6.664
			c-0.364-0.476-1.008-0.951-1.764-1.231l0.252-1.008c0.056-0.112,0.14-0.196,0.336-0.196c1.203,0,4.031,0.14,5.068,0.364
			c1.035-0.028,3.5-0.168,4.283-0.252l0.896-0.588c0.84,0,2.156,0.056,2.828,0.195c0.336,0.084,0.531,0.309,0.531,0.645
			c0,0.812-0.224,1.456-0.476,1.708c-0.14,0.14-0.336,0.195-0.588,0.195l-7.505,0.309v6.691c0,0.393,0.168,0.561,0.617,0.561
			c2.268,0,6.188-0.28,8.203-0.645c0.28-0.056,0.42,0,0.448,0.196L282.182,82.124z M286.746,91.028
			c1.036-0.028,2.464,0.084,3.191,0.252c0.336,0.084,0.561,0.336,0.561,0.672c0,0.924-0.279,1.596-0.532,1.819
			c-0.14,0.141-0.364,0.196-0.616,0.196l-12.096,0.112h-0.027c-2.24-0.028-3.137-0.952-3.137-2.716v-2.66
			c-0.447-0.42-1.203-0.868-1.932-1.148l0.225-0.952c0.027-0.14,0.195-0.279,0.475-0.279c1.316,0,3.669,0.168,4.677,0.392
			c0.364,0.084,0.56,0.336,0.56,0.756l-0.056,1.596v2.017c0,0.476,0.196,0.7,0.672,0.7c1.652,0.027,5.097-0.028,6.804-0.084
			L286.746,91.028z M284.898,70.84c-0.336-0.644-1.176-1.315-2.101-1.708l0.392-1.147c0.057-0.141,0.168-0.225,0.477-0.225
			c1.456,0.057,3.752,0.504,4.816,0.98c0.308,0.14,0.447,0.42,0.42,0.84l-0.112,1.764v9.632c0,2.269-0.476,5.601-1.26,7.393h-2.185
			c-0.279-1.036-0.447-4.845-0.447-6.3v-3.977c-1.064,0.028-2.465,0.112-2.996,0.196c-0.448,0.056-1.316,0.252-1.764,0.392
			c-0.925-0.504-1.709-1.12-2.353-1.819c-0.112-0.141-0.14-0.28-0.056-0.421l0.279-0.447c0.7,0.111,1.793,0.168,2.604,0.168
			c0.952,0,3.024-0.057,4.284-0.196V70.84z"/>
		<path d="M316.705,82.04c0.477,0.756,1.121,1.96,1.373,2.604c0.224,0.616,0.224,1.009,0.084,1.288
			c-0.309,0.616-1.232,0.924-1.793,0.7c-0.279-0.112-0.615-0.448-0.867-0.728l-4.48-5.181c-1.764,2.492-4.199,4.872-7.168,6.748
			c-0.195,0.112-0.336,0.112-0.476,0.028l-0.673-0.561c-0.111-0.111-0.111-0.252,0.029-0.42c3.807-3.808,6.215-8.315,6.859-12.376
			c-0.28-0.56-0.924-1.204-1.624-1.567l0.476-0.98c0.084-0.14,0.196-0.195,0.477-0.168c1.316,0.112,3.668,0.729,4.564,1.176
			c0.336,0.168,0.56,0.448,0.56,0.729c0,0.308-0.028,0.616-0.085,0.84c-0.279,1.456-0.84,2.968-1.651,4.452l2.66,2.8L316.705,82.04z
			 M318.722,67.984c0.056-0.141,0.14-0.225,0.448-0.225c1.484,0.057,3.863,0.504,4.955,0.98c0.336,0.14,0.477,0.42,0.449,0.84
			l-0.141,1.82v15.68c0,1.96-0.477,5.824-1.288,7.868h-2.155c-0.252-0.952-0.449-5.376-0.449-6.721V70.868
			c-0.363-0.672-1.231-1.344-2.211-1.765L318.722,67.984z"/>
		<path d="M338.91,78.54c-2.297,2.156-5.097,4.032-8.148,5.348c-0.252,0.112-0.42,0.141-0.532,0.057l-0.56-0.589
			c-0.141-0.14-0.141-0.279,0-0.447c3.947-2.688,7.084-6.44,8.82-9.8c-1.177,0-2.604,0.027-3.08,0.056
			c-0.589,0.028-1.652,0.224-2.269,0.448c-0.952-0.504-1.933-1.288-2.604-1.988c-0.14-0.168-0.168-0.28-0.084-0.42l0.252-0.42
			c0.924,0.14,2.101,0.195,2.94,0.195c1.008,0,4.704-0.056,6.048-0.111l1.288-0.532c0.224-0.084,0.504-0.084,0.728,0
			c0.588,0.224,1.709,0.728,2.129,0.952c0.168,0.112,0.195,0.336,0.084,0.532l-0.729,1.147c-0.672,1.316-1.568,2.604-2.632,3.836
			l1.765,1.568l1.315,0.336c0.532,0.644,1.204,1.68,1.456,2.268c0.224,0.477,0.279,0.84,0.168,1.093
			c-0.28,0.588-1.12,0.924-1.708,0.756c-0.308-0.084-0.644-0.364-0.896-0.616L338.91,78.54z M349.605,91.448
			c0.924-0.028,2.268,0.111,2.912,0.279c0.336,0.084,0.561,0.336,0.561,0.672c0,0.812-0.225,1.4-0.421,1.597
			c-0.14,0.14-0.364,0.195-0.588,0.195l-12.18,0.084c-1.96-0.027-2.716-0.812-2.716-2.352v-2.1c-0.364-0.42-0.952-0.757-1.625-1.009
			l0.141-0.812c0.028-0.112,0.141-0.196,0.336-0.196c1.204,0,4.032,0.057,5.096,0.168c1.512,0,4.592-0.027,5.601-0.084l0.588-0.14
			c0.056-0.42,0.084-1.344,0.056-1.68c-1.82,0-5.432,0.027-6.3,0.084c-0.7,0.027-1.876,0.195-2.66,0.392
			c-0.979-0.532-1.96-1.316-2.688-2.044c-0.14-0.14-0.14-0.224-0.085-0.392l0.253-0.448c0.896,0.168,2.38,0.28,3.108,0.28
			c1.344,0,7.588-0.057,9.043-0.112l1.205-0.504c0.168-0.084,0.363-0.084,0.588,0c0.476,0.168,1.455,0.56,1.848,0.756
			c0.14,0.112,0.168,0.308,0.084,0.532l-0.504,1.12c-0.057,0.615-0.364,1.623-0.588,2.1l0.531,0.252
			c0.168,0.084,0.28,0.252,0.28,0.42c0,0.616-0.224,1.204-0.42,1.456l-9.996,0.112v1.288c0,0.42,0.168,0.588,0.532,0.588
			c1.764,0.027,5.432,0,7.084-0.057L349.605,91.448z M342.857,75.096c0.645,0.112,1.568,0.141,2.296,0.141
			c0.589,0.027,1.597,0,2.521-0.028V70.84c-0.336-0.644-1.176-1.315-2.101-1.708l0.392-1.147c0.057-0.141,0.168-0.225,0.477-0.225
			c1.456,0.057,3.752,0.504,4.816,0.98c0.308,0.14,0.447,0.42,0.42,0.84l-0.112,1.764v5.824c0,1.428-0.56,4.06-1.176,5.18h-2.269
			c-0.279-0.812-0.447-3.332-0.447-4.368v-0.644c-0.561,0.028-1.064,0.056-1.344,0.112c-0.449,0.027-1.232,0.252-1.681,0.447
			c-0.784-0.56-1.483-1.26-2.044-1.932c-0.111-0.14-0.141-0.28-0.057-0.42L342.857,75.096z"/>
		<path d="M377.521,79.324c1.232,0.056,3.052,0.336,3.779,0.615c0.309,0.112,0.504,0.337,0.504,0.7c0,0.756-0.531,1.456-0.951,1.624
			c-0.7-0.084-2.771-0.14-3.725-0.14c-1.904,0-12.936,0.112-14.644,0.224c-0.728,0.057-2.548,0.364-3.36,0.588
			c-1.176-0.42-2.492-1.315-3.332-2.1c-0.111-0.112-0.14-0.308-0.084-0.448l0.28-0.532c1.177,0.196,2.716,0.309,3.836,0.336
			c1.876,0.028,14.392-0.111,16.38-0.279L377.521,79.324z M374.385,91.672c0.896,0,2.24,0.112,2.856,0.28
			c0.336,0.084,0.56,0.336,0.56,0.644c0,0.784-0.224,1.344-0.42,1.54c-0.14,0.14-0.363,0.196-0.588,0.196l-12.096,0.084h-0.027
			c-2.072-0.028-2.856-0.84-2.856-2.324v-2.044c-0.364-0.42-0.952-0.756-1.624-1.008l0.141-0.812
			c0.027-0.111,0.139-0.195,0.336-0.195c1.203,0,4.031,0.056,5.096,0.168c1.568,0,4.76-0.028,5.768-0.084l0.672-0.141
			c0.028-0.447,0.057-1.344,0.028-1.68c-1.849-0.028-5.74,0-6.636,0.056c-0.7,0.057-1.848,0.225-2.633,0.42
			c-0.951-0.531-1.932-1.288-2.631-1.987c-0.141-0.141-0.168-0.225-0.084-0.393l0.223-0.447c0.896,0.168,2.324,0.279,3.08,0.279
			c1.373,0,7.869-0.056,9.324-0.111l1.12-0.477c0.168-0.084,0.364-0.084,0.589,0c0.475,0.168,1.483,0.532,1.875,0.729
			c0.141,0.084,0.168,0.279,0.084,0.504l-0.504,1.12c-0.056,0.615-0.336,1.624-0.56,2.1l0.532,0.252
			c0.14,0.084,0.252,0.224,0.252,0.392c0,0.589-0.225,1.177-0.42,1.4l-10.137,0.112v1.344c0,0.392,0.168,0.588,0.561,0.588
			c1.764,0.028,5.516,0,7.168-0.056L374.385,91.672z M361.842,73.976c0-2.828,2.688-4.815,6.859-4.815s6.86,1.987,6.86,4.815
			c0,2.856-2.688,4.845-6.86,4.845S361.842,76.832,361.842,73.976z M365.762,73.976c0,1.484,1.119,2.408,2.939,2.408
			s2.939-0.924,2.939-2.408c0-1.483-1.119-2.407-2.939-2.407S365.762,72.492,365.762,73.976z"/>
		<path d="M413.249,87.304c1.231,0.056,3.024,0.336,3.78,0.616c0.308,0.112,0.504,0.364,0.504,0.728
			c0,0.812-0.532,1.568-0.952,1.765c-0.7-0.084-2.772-0.141-3.724-0.141c-1.933,0-12.853,0.112-14.617,0.225
			c-0.756,0.056-2.575,0.363-3.387,0.588c-1.177-0.477-2.492-1.428-3.332-2.269c-0.112-0.111-0.141-0.308-0.084-0.447l0.279-0.532
			c1.176,0.196,2.717,0.308,3.836,0.336c0.756,0,3.248,0,6.076-0.028l-0.027-6.58c-0.281-0.363-1.037-0.867-1.652-1.092l0.224-1.008
			c0.028-0.112,0.112-0.196,0.476-0.196c1.064-0.027,3.725,0.196,4.508,0.42c0.336,0.084,0.477,0.336,0.42,0.673l-0.195,1.819
			l-0.111,5.908c3.051-0.056,5.795-0.112,6.663-0.196L413.249,87.304z M409.133,85.008c-0.225-0.028-0.309-0.168-0.279-0.56
			c0.476-2.576,0.615-7.448,0.56-10.557c-2.604,0.028-7.224,0.112-8.568,0.196c-0.868,0.056-2.239,0.28-3.024,0.504
			c-1.063-0.56-2.211-1.428-2.939-2.212c-0.168-0.168-0.195-0.28-0.111-0.448l0.252-0.504c1.063,0.168,2.436,0.252,3.387,0.252
			c1.484,0.028,9.324-0.111,11.48-0.252l1.372-0.672c0.196-0.112,0.476-0.112,0.672,0c0.589,0.28,1.736,0.896,2.212,1.204
			c0.141,0.112,0.168,0.28,0.084,0.532l-0.531,1.456c-0.168,3.359-1.344,8.063-2.856,11.004c-0.112,0.224-0.364,0.308-0.616,0.279
			L409.133,85.008z"/>
		<path d="M431.449,80.948c0.14,0.056,0.252,0.224,0.252,0.42c0,0.672-0.225,1.344-0.477,1.596c-1.736-0.028-5.18,0.028-7.252,0.084
			c-0.224,0.504-0.531,0.868-0.812,1.064h-1.791c-0.309-0.645-0.477-1.597-0.477-2.185l-0.111-7.644
			c-0.252-0.364-0.953-0.784-1.484-0.952l0.252-0.924c0.027-0.112,0.141-0.196,0.477-0.196c1.035-0.028,3.164,0.168,3.976,0.392
			c0.28,0.084,0.392,0.28,0.364,0.645l-0.028,1.372v0.84l3.388-0.056V73.08c-0.252-0.393-0.812-0.812-1.372-1.036l0.337-0.952
			c0.055-0.14,0.168-0.224,0.504-0.196c1.092,0.057,3.023,0.421,3.836,0.729c0.279,0.112,0.363,0.308,0.336,0.644l-0.084,1.568
			l-0.084,4.088c0,0.924-0.196,2.1-0.393,2.772L431.449,80.948z M424.309,77.784l-0.027,2.855l3.443-0.056v-2.856L424.309,77.784z
			 M439.849,85.176c0.168-0.084,0.448-0.084,0.616,0c0.531,0.252,1.512,0.784,1.876,1.036c0.14,0.112,0.168,0.252,0.084,0.476
			l-0.392,1.316l-0.084,2.8c0,1.372-0.504,3.36-1.092,4.312h-2.297c-0.252-0.757-0.42-2.549-0.42-3.473v-3.64
			c-2.324,0-6.384,0.056-7.477,0.14c-0.812,0.028-2.1,0.252-2.855,0.504c-1.119-0.476-2.24-1.231-3.023-1.96
			c-0.168-0.14-0.196-0.279-0.112-0.447l0.28-0.532c1.092,0.14,2.464,0.224,3.443,0.224c1.344,0,8.484-0.14,10.332-0.279
			L439.849,85.176z M433.24,72.128c-0.308-0.56-1.035-1.12-1.875-1.484l0.42-1.092c0.056-0.14,0.168-0.224,0.504-0.224
			c1.26,0.056,3.275,0.504,4.199,0.952c0.309,0.14,0.42,0.392,0.393,0.783l-0.084,1.513v3.472l1.708-0.056V70.7
			c-0.308-0.588-1.12-1.204-1.988-1.597l0.392-1.119c0.084-0.141,0.196-0.225,0.504-0.225c1.345,0.057,3.529,0.504,4.537,0.98
			c0.308,0.14,0.447,0.392,0.42,0.812l-0.112,1.652v7.868c0,1.483-0.532,4.144-1.147,5.348h-2.156
			c-0.252-0.868-0.448-3.444-0.448-4.508v-1.54l-1.708,0.056v0.896c0,1.819-0.477,4.115-1.092,5.18h-2.016
			c-0.281-0.84-0.449-3.108-0.449-4.368V72.128z"/>
		<path d="M456.816,73.388c0.729,0.028,1.904,0.168,2.408,0.309c0.195,0.084,0.336,0.279,0.336,0.56c0,0.84-0.393,1.512-0.756,1.708
			c-0.448-0.028-1.652-0.056-2.296-0.056c-0.841,0-5.601,0.168-6.496,0.224c-0.532,0.028-1.429,0.168-1.904,0.28
			c-0.784-0.477-1.567-1.204-2.071-1.82c-0.112-0.112-0.141-0.28-0.084-0.364l0.252-0.476c0.783,0.168,1.764,0.252,2.436,0.252
			c1.064,0,6.216-0.14,7.279-0.252L456.816,73.388z M453.597,84.252c-3.164,0-5.572-1.484-5.572-3.92
			c0-2.408,2.408-3.836,5.572-3.836c3.08,0,5.433,1.428,5.433,3.836C459.029,82.768,456.677,84.252,453.597,84.252z M469.416,90.832
			c0.365,0.588,0.812,1.512,0.98,2.016c0.141,0.448,0.141,0.756,0.027,0.98c-0.279,0.56-1.035,0.868-1.567,0.728
			c-0.28-0.056-0.588-0.336-0.84-0.616l-2.744-3.136c-1.54,1.764-3.696,3.36-6.356,4.564c-0.224,0.14-0.363,0.14-0.476,0.027
			l-0.644-0.644c-0.141-0.14-0.141-0.28,0.027-0.42c0.532-0.448,1.036-0.924,1.512-1.372c-0.168-0.084-0.336-0.224-0.476-0.393
			l-2.071-2.212c-1.541,1.736-3.809,3.305-6.524,4.425c-0.252,0.14-0.364,0.14-0.504,0.056l-0.616-0.645
			c-0.168-0.168-0.168-0.308,0-0.447c2.688-2.017,4.536-4.2,5.348-6.496c-0.195-0.364-0.699-0.812-1.231-1.092l0.532-0.98
			c0.084-0.14,0.252-0.196,0.504-0.168c1.232,0.168,3.164,0.756,3.892,1.176c0.308,0.168,0.476,0.42,0.476,0.672
			c0,0.364-0.056,0.589-0.14,0.784c-0.112,0.309-0.28,0.588-0.42,0.896l1.009,1.008l1.092,0.532c0.252,0.336,0.504,0.84,0.644,1.204
			c1.204-1.484,2.044-3.053,2.492-4.593c-0.169-0.392-0.7-0.924-1.232-1.231l0.532-0.98c0.084-0.168,0.252-0.224,0.504-0.168
			c1.26,0.252,3.137,0.896,3.893,1.372c0.308,0.196,0.476,0.42,0.476,0.672c0,0.336-0.056,0.588-0.112,0.784
			c-0.195,0.616-0.447,1.232-0.812,1.82l1.316,1.26L469.416,90.832z M449.396,69.944c2.296,0.42,4.536,0.56,6.076,0.56
			c0.363,0,0.561,0.056,0.7,0.336c0.308,0.504,0.224,1.652-0.169,1.96c-0.168,0.14-0.363,0.168-0.588,0.168
			c-1.063,0-2.883,0.028-4.031,0.084c-0.336,0.028-0.477,0.028-0.672-0.14c-0.532-0.42-1.204-1.288-1.568-1.988
			c-0.14-0.252-0.14-0.392-0.056-0.56L449.396,69.944z M453.597,82.096c1.204,0,1.987-0.644,1.987-1.764s-0.783-1.764-1.987-1.764
			s-1.988,0.644-1.988,1.764S452.393,82.096,453.597,82.096z M460.316,72.156c-0.308-0.561-1.035-1.12-1.876-1.484l0.42-1.092
			c0.056-0.141,0.169-0.225,0.505-0.225c1.26,0.057,3.275,0.505,4.199,0.952c0.309,0.141,0.42,0.393,0.393,0.784l-0.084,1.512v4.145
			l1.735-0.056V70.7c-0.308-0.588-1.12-1.204-1.987-1.597l0.392-1.119c0.084-0.141,0.196-0.225,0.504-0.225
			c1.344,0.057,3.528,0.504,4.536,0.98c0.308,0.14,0.447,0.392,0.42,0.812l-0.112,1.652v8.008c0,1.512-0.532,4.172-1.147,5.348
			h-2.156c-0.252-0.84-0.448-3.416-0.448-4.479v-1.008l-1.764,0.056c-0.084,1.708-0.504,3.64-1.063,4.592h-2.017
			c-0.28-0.84-0.448-3.107-0.448-4.368V72.156z"/>
		<path d="M495.82,78.708c0.84-0.028,2.044,0.028,2.576,0.14c0.393,0.084,0.645,0.364,0.672,0.729
			c0.057,0.7-0.111,1.428-0.336,1.708c-0.195,0.252-0.645,0.363-0.98,0.363l-4.115,0.141v5.292c0,1.96-0.477,5.824-1.288,7.868
			h-2.156c-0.252-0.952-0.448-5.376-0.448-6.721v-2.996c-3.359,1.12-7.447,1.96-10.248,2.24c-0.447,0.057-0.896,0.057-1.231,0.057
			c-1.568,0-2.66-0.868-3.08-2.213c-0.112-0.363-0.196-0.979-0.196-1.624V75.32c-0.363-0.477-1.035-0.952-1.792-1.232l0.253-1.008
			c0.055-0.112,0.139-0.196,0.336-0.196c1.176,0,3.836,0.14,4.983,0.336c1.036-0.027,3.472-0.168,4.284-0.252l0.896-0.616
			c0.841,0,2.156,0.057,2.828,0.196c0.336,0.084,0.532,0.308,0.532,0.645c0,0.84-0.225,1.455-0.477,1.735
			c-0.14,0.141-0.336,0.196-0.588,0.196l-7.363,0.308v8.288c0,0.393,0.168,0.588,0.56,0.561c2.884-0.028,7.056-0.448,10.304-1.261
			V70.868c-0.363-0.672-1.232-1.344-2.212-1.765l0.392-1.119c0.057-0.141,0.141-0.225,0.449-0.225
			c1.483,0.057,3.863,0.504,4.955,0.98c0.336,0.14,0.477,0.42,0.448,0.84l-0.14,1.82v8.008l1.287-0.084L495.82,78.708z"/>
		<path d="M501.252,89.768c0-1.372,1.148-2.548,2.576-2.548s2.576,1.176,2.576,2.548c0,1.4-1.148,2.521-2.576,2.521
			S501.252,91.168,501.252,89.768z"/>
	</g>
</g>
<radialGradient id="SVGID_1_" cx="216.0589" cy="17.1004" r="38.8175" gradientTransform="matrix(2.1538 0 0 1 -343.382 0)" gradientUnits="userSpaceOnUse">
	<stop  offset="0.1303" style="stop-color:#000000"/>
	<stop  offset="0.1932" style="stop-color:#090909"/>
	<stop  offset="0.2975" style="stop-color:#232323"/>
	<stop  offset="0.4304" style="stop-color:#4C4C4C"/>
	<stop  offset="0.5867" style="stop-color:#858585"/>
	<stop  offset="0.7607" style="stop-color:#CDCDCD"/>
	<stop  offset="0.7989" style="stop-color:#DEDEDE"/>
	<stop  offset="0.9039" style="stop-color:#EDEDED"/>
	<stop  offset="1" style="stop-color:#FFFFFF"/>
</radialGradient>
<rect x="87.631" y="2.217" class="st0" width="68.659" height="24.378"/>
<radialGradient id="SVGID_2_" cx="78.568" cy="50.1004" r="38.8175" gradientUnits="userSpaceOnUse">
	<stop  offset="0.1303" style="stop-color:#000000"/>
	<stop  offset="0.1932" style="stop-color:#090909"/>
	<stop  offset="0.2975" style="stop-color:#232323"/>
	<stop  offset="0.4304" style="stop-color:#4C4C4C"/>
	<stop  offset="0.5867" style="stop-color:#858585"/>
	<stop  offset="0.7607" style="stop-color:#CDCDCD"/>
	<stop  offset="0.7989" style="stop-color:#DEDEDE"/>
	<stop  offset="0.9039" style="stop-color:#EDEDED"/>
	<stop  offset="1" style="stop-color:#FFFFFF"/>
</radialGradient>
<rect x="62.629" y="35.217" class="st1" width="31.879" height="24.378"/>
</svg>