<!-- Generator: Adobe Illustrator 21.1.0, SVG Export Plug-In  -->
<svg version="1.1"
	 xmlns="http://www.w3.org/2000/svg" xmlns:xlink="http://www.w3.org/1999/xlink" xmlns:a="http://ns.adobe.com/AdobeSVGViewerExtensions/3.0/"
	 x="0px" y="0px" width="12.767px" height="39.459px" viewBox="0 0 12.767 39.459"
	 style="enable-background:new 0 0 12.767 39.459;" xml:space="preserve">
<defs>
</defs>
<g>
	<g>
		<path d="M1.799,18.214c-1.081-0.591-1.621-1.731-1.621-3.42c0-1.098,0.266-1.976,0.798-2.634c0.532-0.659,1.288-0.988,2.267-0.988
			c1.148,0,1.807,0.431,1.976,1.292C4.357,12.514,3.77,12.81,3.458,13.35c-0.313,0.541-0.469,1.157-0.469,1.849
			c0,0.726,0.211,1.292,0.633,1.697c0.422,0.405,0.937,0.608,1.545,0.608c0.54,0,1.06-0.16,1.558-0.481
			c0.498-0.321,0.908-0.81,1.229-1.469c0.321-0.658,0.481-1.452,0.481-2.381c0-1.03-0.283-1.988-0.849-2.875
			C7.021,9.411,6.181,8.773,5.067,8.385C5.962,8.132,6.738,7.73,7.397,7.182c0.659-0.548,1.156-1.157,1.495-1.824
			c0.338-0.667,0.507-1.304,0.507-1.913c0-0.624-0.165-1.127-0.494-1.507c-0.329-0.38-0.807-0.57-1.431-0.57
			c-0.608,0-1.094,0.182-1.457,0.545c-0.363,0.363-0.545,0.84-0.545,1.431c0,0.405,0.08,0.785,0.241,1.14
			c0.16,0.355,0.401,0.574,0.722,0.659C5.809,5.717,5.168,6.003,4.509,6.003c-0.524,0-0.959-0.19-1.304-0.57
			C2.858,5.054,2.685,4.526,2.685,3.85c0-0.76,0.232-1.431,0.696-2.014c0.464-0.583,1.093-1.034,1.887-1.355
			C6.063,0.161,6.949,0,7.929,0c0.996,0,1.849,0.169,2.558,0.507c0.709,0.338,1.245,0.785,1.609,1.342
			c0.363,0.557,0.545,1.174,0.545,1.849c0,0.878-0.296,1.739-0.887,2.584C11.163,7.127,10.302,7.836,9.17,8.41
			c1.064,0.355,1.862,0.899,2.394,1.634c0.532,0.734,0.798,1.583,0.798,2.546c0,1.047-0.3,2.073-0.899,3.078
			c-0.6,1.005-1.444,1.828-2.533,2.47C7.84,18.779,6.603,19.1,5.219,19.1C4.019,19.1,2.879,18.805,1.799,18.214z"/>
	</g>
	<g>
		<path d="M10.753,29.934c0.431,0.49,0.798,1.051,1.102,1.684c0.304,0.633,0.456,1.313,0.456,2.039c0,1.047-0.3,2.014-0.899,2.901
			c-0.6,0.887-1.41,1.592-2.432,2.115c-1.022,0.524-2.14,0.785-3.356,0.785c-1.081,0-2.048-0.207-2.901-0.621
			c-0.853-0.413-1.52-0.988-2.001-1.722S0,35.532,0,34.57c0-1.182,0.388-2.217,1.165-3.103c0.777-0.887,1.992-1.701,3.648-2.444
			c-0.726-0.76-1.288-1.473-1.685-2.141c-0.397-0.667-0.595-1.389-0.595-2.166c0-0.844,0.244-1.617,0.734-2.318
			c0.49-0.701,1.161-1.254,2.014-1.659c0.853-0.405,1.794-0.608,2.824-0.608c0.895,0,1.697,0.152,2.407,0.456
			c0.709,0.304,1.262,0.731,1.659,1.279c0.397,0.549,0.595,1.162,0.595,1.837c0,1.655-1.241,3.158-3.724,4.509
			C9.753,28.87,10.323,29.444,10.753,29.934z M7.714,36.799c0.549-0.608,0.823-1.326,0.823-2.153c0-0.793-0.228-1.536-0.684-2.229
			c-0.456-0.692-1.123-1.477-2.001-2.356c-0.811,0.541-1.431,1.203-1.862,1.989c-0.431,0.785-0.646,1.634-0.646,2.546
			c0,0.946,0.219,1.701,0.659,2.267c0.439,0.566,1.022,0.848,1.748,0.848C6.51,37.711,7.165,37.407,7.714,36.799z M6.776,22.043
			c-0.431,0.465-0.646,1.06-0.646,1.786c0,0.608,0.16,1.178,0.481,1.71c0.321,0.532,0.785,1.094,1.393,1.685
			c0.625-0.557,1.123-1.191,1.495-1.9c0.371-0.709,0.557-1.393,0.557-2.052c0-0.591-0.148-1.06-0.443-1.406
			c-0.296-0.346-0.705-0.519-1.229-0.519C7.743,21.346,7.207,21.579,6.776,22.043z"/>
	</g>
</g>
</svg>