<!-- Generator: Adobe Illustrator 21.1.0, SVG Export Plug-In  -->
<svg version="1.1"
	 xmlns="http://www.w3.org/2000/svg" xmlns:xlink="http://www.w3.org/1999/xlink" xmlns:a="http://ns.adobe.com/AdobeSVGViewerExtensions/3.0/"
	 x="0px" y="0px" width="11.67px" height="64.029px" viewBox="0 0 11.67 64.029" style="enable-background:new 0 0 11.67 64.029;"
	 xml:space="preserve">
<defs>
</defs>
<g>
	<g>
		<g>
			<rect x="9.931" y="0.005" transform="matrix(1 -0.0079 0.0079 1 -0.1231 0.0845)" width="1.481" height="31.342"/>
		</g>
	</g>
	<g>
		<ellipse transform="matrix(0.781 -0.6245 0.6245 0.781 -18.6715 10.6391)" cx="5.835" cy="31.944" rx="6.514" ry="4.571"/>
	</g>
</g>
<g>
	<path d="M3.646,53.734c0.401,0.036,0.772,0.132,1.114,0.287s0.636,0.351,0.882,0.588s0.439,0.513,0.581,0.827
		c0.141,0.314,0.212,0.649,0.212,1.005c0,0.392-0.082,0.754-0.246,1.087s-0.39,0.62-0.677,0.861s-0.625,0.431-1.012,0.567
		c-0.388,0.137-0.809,0.205-1.265,0.205c-0.456,0-0.88-0.068-1.271-0.205c-0.392-0.137-0.729-0.326-1.012-0.567
		c-0.283-0.241-0.504-0.528-0.663-0.861c-0.16-0.333-0.239-0.695-0.239-1.087c0-0.374,0.075-0.725,0.226-1.053
		s0.357-0.613,0.622-0.854c0.264-0.241,0.579-0.436,0.943-0.581c0.364-0.146,0.761-0.228,1.189-0.246
		c-0.009-0.128-0.053-0.23-0.13-0.308c-0.078-0.077-0.23-0.152-0.458-0.226l0.15-0.26c0.209,0.046,0.415,0.084,0.615,0.116
		c0.2,0.032,0.415,0.07,0.643,0.116c-0.037,0.091-0.075,0.185-0.116,0.28S3.664,53.625,3.646,53.734z M5.464,56.4
		c0-0.301-0.055-0.586-0.164-0.854s-0.265-0.501-0.465-0.697c-0.201-0.196-0.436-0.351-0.704-0.465
		c-0.269-0.114-0.559-0.171-0.868-0.171c-0.31,0-0.6,0.057-0.868,0.171c-0.269,0.114-0.504,0.269-0.704,0.465
		c-0.201,0.196-0.358,0.429-0.472,0.697c-0.114,0.269-0.171,0.554-0.171,0.854c0,0.31,0.057,0.595,0.171,0.854
		c0.114,0.26,0.271,0.485,0.472,0.677c0.2,0.191,0.435,0.342,0.704,0.451c0.269,0.109,0.558,0.164,0.868,0.164
		c0.319,0,0.613-0.055,0.882-0.164c0.269-0.109,0.501-0.26,0.697-0.451c0.196-0.191,0.349-0.417,0.458-0.677S5.464,56.71,5.464,56.4
		z M7.611,50.794c0.465,0.055,0.927,0.125,1.388,0.212c0.46,0.087,0.873,0.166,1.237,0.239c-0.046,0.164-0.082,0.351-0.109,0.561
		s-0.041,0.405-0.041,0.588v7.656c0,0.282-0.007,0.606-0.021,0.971s-0.03,0.729-0.048,1.094c-0.019,0.364-0.041,0.711-0.068,1.039
		s-0.06,0.597-0.096,0.807l-0.574,0.068c-0.019-0.155-0.034-0.349-0.048-0.581s-0.025-0.483-0.034-0.752
		c-0.009-0.269-0.016-0.545-0.021-0.827c-0.005-0.282-0.007-0.556-0.007-0.82v-8.654c0-0.31-0.139-0.556-0.417-0.738
		c-0.278-0.183-0.709-0.344-1.292-0.484L7.611,50.794z"/>
</g>
</svg>