<!-- Generator: Adobe Illustrator 21.1.0, SVG Export Plug-In  -->
<svg version="1.1"
	 xmlns="http://www.w3.org/2000/svg" xmlns:xlink="http://www.w3.org/1999/xlink" xmlns:a="http://ns.adobe.com/AdobeSVGViewerExtensions/3.0/"
	 x="0px" y="0px" width="11.67px" height="63.527px" viewBox="0 0 11.67 63.527" style="enable-background:new 0 0 11.67 63.527;"
	 xml:space="preserve">
<defs>
</defs>
<g>
	<g>
		<g>
			<rect x="9.931" y="0.005" transform="matrix(1 -0.0079 0.0079 1 -0.1231 0.0845)" width="1.481" height="31.342"/>
		</g>
	</g>
	<g>
		<ellipse transform="matrix(0.781 -0.6245 0.6245 0.781 -18.6715 10.6391)" cx="5.835" cy="31.944" rx="6.514" ry="4.571"/>
	</g>
</g>
<g>
	<path d="M5.218,53.078c-0.173-0.009-0.369-0.014-0.588-0.014s-0.44,0.005-0.663,0.014c-0.224,0.009-0.442,0.022-0.656,0.041
		c-0.214,0.019-0.403,0.032-0.567,0.041c-0.101,0.009-0.226,0.019-0.376,0.027s-0.312,0.021-0.485,0.034
		c-0.173,0.014-0.354,0.032-0.54,0.055c-0.187,0.022-0.367,0.053-0.54,0.089l-0.465-0.848c0.209,0.046,0.492,0.084,0.848,0.116
		s0.679,0.048,0.971,0.048c0.246,0,0.533-0.002,0.861-0.007s0.677-0.012,1.046-0.021s0.75-0.025,1.142-0.048
		c0.392-0.022,0.779-0.053,1.162-0.089c-0.027,0.109-0.062,0.262-0.103,0.458s-0.071,0.344-0.089,0.444L5.875,55.21l0.41-0.041
		l-0.068,0.656c-0.52-0.027-0.982-0.041-1.388-0.041c-0.406,0-0.772,0.007-1.101,0.021s-0.625,0.029-0.889,0.048
		c-0.265,0.019-0.511,0.032-0.738,0.041c0,0.073-0.005,0.162-0.014,0.267c-0.009,0.104-0.014,0.193-0.014,0.267v1.367
		c0,0.164,0.05,0.294,0.15,0.39c0.1,0.096,0.241,0.135,0.424,0.116c0.738-0.055,1.463-0.15,2.174-0.287s1.485-0.328,2.324-0.574
		v0.369C6.344,58.1,5.548,58.357,4.76,58.581c-0.789,0.224-1.588,0.371-2.399,0.444c-0.447,0.046-0.759-0.012-0.937-0.171
		s-0.267-0.458-0.267-0.896V56.66c0-0.173-0.012-0.316-0.034-0.431c-0.023-0.114-0.068-0.21-0.137-0.287s-0.167-0.144-0.294-0.198
		c-0.128-0.055-0.301-0.118-0.52-0.191l0.15-0.301c0.957,0.101,1.813,0.144,2.57,0.13c0.756-0.014,1.49-0.048,2.201-0.103
		L5.218,53.078z M10.687,63.468c-0.574-0.027-1.142-0.046-1.702-0.055c-0.561-0.01-1.107-0.01-1.641,0
		c-0.533,0.009-1.044,0.022-1.531,0.041c-0.488,0.019-0.937,0.041-1.347,0.068c-0.255,0.019-0.44-0.034-0.554-0.158
		c-0.114-0.123-0.171-0.276-0.171-0.46v-1.47c0-0.211-0.012-0.383-0.034-0.516c-0.023-0.133-0.075-0.242-0.157-0.329
		s-0.201-0.159-0.355-0.219c-0.155-0.06-0.369-0.125-0.643-0.198l0.164-0.342c0.137,0.019,0.292,0.036,0.465,0.055
		c0.173,0.019,0.353,0.039,0.54,0.062c0.187,0.022,0.369,0.046,0.547,0.068s0.335,0.043,0.472,0.062
		c-0.019,0.109-0.034,0.262-0.048,0.458s-0.021,0.381-0.021,0.554v1.367c0,0.2,0.045,0.33,0.137,0.39
		c0.091,0.06,0.269,0.094,0.533,0.103c0.355,0.009,0.766,0.007,1.23-0.007s0.948-0.034,1.449-0.062
		c0.501-0.027,0.998-0.063,1.49-0.109s0.938-0.101,1.34-0.164L10.687,63.468z M9.047,55.703c-0.41,0.019-0.795,0.041-1.155,0.068
		c-0.36,0.027-0.713,0.077-1.06,0.15l-0.396-0.779c0.155,0.036,0.357,0.063,0.608,0.082c0.25,0.018,0.49,0.022,0.718,0.014
		c0.209-0.009,0.431-0.016,0.663-0.021s0.439-0.012,0.622-0.021v-2.803c0-0.31-0.139-0.556-0.417-0.738
		c-0.278-0.183-0.709-0.344-1.292-0.484l0.15-0.377c0.456,0.055,0.916,0.125,1.381,0.212s0.875,0.166,1.23,0.239
		c-0.037,0.163-0.068,0.35-0.096,0.559s-0.041,0.404-0.041,0.586v5.801c0,0.21-0.005,0.431-0.014,0.663
		c-0.009,0.232-0.025,0.465-0.048,0.697c-0.023,0.232-0.048,0.453-0.075,0.663s-0.055,0.392-0.082,0.547l-0.602,0.096
		c-0.019-0.109-0.032-0.255-0.041-0.438c-0.009-0.183-0.019-0.376-0.027-0.581c-0.009-0.205-0.016-0.412-0.021-0.622
		c-0.005-0.21-0.007-0.396-0.007-0.561V55.703z"/>
</g>
</svg>