<!-- Generator: Adobe Illustrator 21.1.0, SVG Export Plug-In  -->
<svg version="1.1"
	 xmlns="http://www.w3.org/2000/svg" xmlns:xlink="http://www.w3.org/1999/xlink" xmlns:a="http://ns.adobe.com/AdobeSVGViewerExtensions/3.0/"
	 x="0px" y="0px" width="1330px" height="547px" viewBox="0 0 1330 547" style="enable-background:new 0 0 1330 547;"
	 xml:space="preserve">
<style type="text/css">
	.st0{fill:none;stroke:#000000;stroke-width:5;stroke-miterlimit:10;}
	.st1{fill:#FFFFFF;}
</style>
<defs>
</defs>
<path d="M1132.092,504H197.908C119.534,504,56,440.466,56,362.092V184.908C56,106.534,119.534,43,197.908,43h934.185
	C1210.466,43,1274,106.534,1274,184.908v177.185C1274,440.466,1210.466,504,1132.092,504z"/>
<path class="st0" d="M1185.592,544.5H144.408C66.034,544.5,2.5,480.966,2.5,402.592V144.408C2.5,66.034,66.034,2.5,144.408,2.5
	h1041.185c78.373,0,141.908,63.534,141.908,141.908v258.185C1327.5,480.966,1263.966,544.5,1185.592,544.5z"/>
<g>
	<path class="st1" d="M455.147,344.168h53.134v-142.25H462.21v-36.991c26.902-5.045,44.39-11.771,61.877-22.531h44.054v201.772
		h45.062v48.426H455.147V344.168z"/>
	<path class="st1" d="M648.272,372.419c0-12.688,9.151-22.88,22.047-22.88c12.688,0,22.048,10.191,22.048,22.88
		c0,12.896-9.36,23.087-22.048,23.087C657.424,395.506,648.272,385.314,648.272,372.419z"/>
	<path class="st1" d="M715.247,314.389c0-53.246,22.048-79.453,54.702-79.453c32.655,0,54.91,26.623,54.91,79.453
		c0,53.246-22.255,81.117-54.91,81.117C737.295,395.506,715.247,367.635,715.247,314.389z M789.917,314.389
		c0-42.223-8.944-50.958-19.968-50.958s-19.759,8.735-19.759,50.958c0,42.431,8.735,52.414,19.759,52.414
		S789.917,356.819,789.917,314.389z"/>
	<path class="st1" d="M841.918,314.389c0-53.246,22.048-79.453,54.702-79.453c32.655,0,54.91,26.623,54.91,79.453
		c0,53.246-22.255,81.117-54.91,81.117C863.966,395.506,841.918,367.635,841.918,314.389z M916.588,314.389
		c0-42.223-8.944-50.958-19.968-50.958s-19.759,8.735-19.759,50.958c0,42.431,8.735,52.414,19.759,52.414
		S916.588,356.819,916.588,314.389z"/>
	<path class="st1" d="M1022.667,274.246h30.159l2.495,11.439h0.832c9.36-8.319,21.008-14.352,33.279-14.352
		c28.287,0,46.174,23.711,46.174,60.11c0,40.767-24.335,64.062-49.71,64.062c-9.983,0-19.551-4.368-27.455-12.271l1.04,18.511
		v33.903h-36.814V274.246z M1097.544,332.068c0-20.8-6.031-30.575-19.135-30.575c-6.864,0-12.479,3.12-18.928,9.983v46.799
		c5.824,5.199,12.063,6.863,17.68,6.863C1088.393,365.139,1097.544,355.779,1097.544,332.068z"/>
	<path class="st1" d="M1157.657,348.707v-45.55h-16.016v-27.455l18.095-1.456l4.16-31.199h30.783v31.199h27.871v28.911h-27.871
		v45.134c0,13.104,6.239,18.304,14.976,18.304c3.743,0,7.903-1.248,10.815-2.08l5.823,26.623
		c-6.239,1.872-14.768,4.368-26.831,4.368C1169.721,395.506,1157.657,376.786,1157.657,348.707z"/>
</g>
</svg>