<!-- Generator: Adobe Illustrator 21.1.0, SVG Export Plug-In  -->
<svg version="1.1"
	 xmlns="http://www.w3.org/2000/svg" xmlns:xlink="http://www.w3.org/1999/xlink" xmlns:a="http://ns.adobe.com/AdobeSVGViewerExtensions/3.0/"
	 x="0px" y="0px" width="338.815px" height="83.608px" viewBox="0 0 338.815 83.608"
	 style="enable-background:new 0 0 338.815 83.608;" xml:space="preserve">
<defs>
</defs>
<g>
	<path d="M36.663,5.984h4.888L37.59,25.622h10.62l-0.591,3.287H37l-3.54,17.868h11.463l-0.843,3.118H32.786l-4.13,20.902h-5.058
		l4.215-20.902h-11.8l-4.299,20.902H6.489l4.468-20.902H0l0.759-3.118h10.788l3.708-17.868h-11.8l0.675-3.287h11.8l4.13-19.638
		h5.057L21.07,25.622h11.631L36.663,5.984z M20.312,28.909l-3.624,17.868h11.8l3.624-17.868H20.312z"/>
	<path d="M78.13,13.569c2.359,0.226,4.522,0.773,6.489,1.644c1.967,0.872,3.667,1.98,5.1,3.329s2.542,2.895,3.329,4.636
		c0.786,1.742,1.18,3.624,1.18,5.647c0,2.19-0.478,4.229-1.433,6.11c-0.956,1.883-2.275,3.512-3.961,4.888
		c-1.686,1.378-3.667,2.444-5.942,3.203s-4.762,1.138-7.459,1.138s-5.184-0.379-7.459-1.138s-4.243-1.825-5.899-3.203
		c-1.658-1.376-2.95-3.005-3.877-4.888c-0.928-1.882-1.391-3.92-1.391-6.11c0-2.078,0.435-4.046,1.306-5.9s2.093-3.469,3.667-4.846
		c1.572-1.377,3.413-2.473,5.521-3.287c2.106-0.814,4.425-1.277,6.953-1.391c-0.113-0.729-0.436-1.32-0.97-1.771
		c-0.534-0.449-1.447-0.87-2.739-1.264l0.928-1.602c1.292,0.281,2.556,0.521,3.793,0.716c1.234,0.198,2.556,0.437,3.961,0.717
		C79,10.704,78.79,11.238,78.594,11.8C78.396,12.362,78.242,12.952,78.13,13.569z M88.159,28.403c0-1.686-0.323-3.287-0.969-4.804
		c-0.646-1.518-1.532-2.824-2.655-3.92c-1.125-1.096-2.459-1.966-4.003-2.612c-1.547-0.646-3.218-0.97-5.016-0.97
		c-1.799,0-3.47,0.324-5.015,0.97c-1.546,0.646-2.895,1.517-4.045,2.612c-1.152,1.096-2.052,2.402-2.697,3.92
		c-0.646,1.517-0.97,3.118-0.97,4.804c0,1.799,0.323,3.428,0.97,4.889c0.646,1.462,1.545,2.739,2.697,3.835
		c1.15,1.096,2.499,1.938,4.045,2.528c1.545,0.59,3.216,0.885,5.015,0.885c1.798,0,3.469-0.295,5.016-0.885
		c1.544-0.59,2.878-1.433,4.003-2.528c1.123-1.096,2.009-2.373,2.655-3.835C87.836,31.831,88.159,30.202,88.159,28.403z
		 M120.271,77.709c-3.54-0.057-7.067-0.085-10.578-0.085c-3.512,0-6.926,0.028-10.24,0.085c-3.315,0.055-6.489,0.14-9.523,0.253
		c-3.034,0.111-5.815,0.252-8.345,0.421c-1.573,0.112-2.711-0.211-3.413-0.969c-0.703-0.759-1.054-1.7-1.054-2.824V64.224
		c0-1.292-0.071-2.346-0.21-3.161c-0.142-0.813-0.464-1.488-0.97-2.022c-0.506-0.533-1.236-0.982-2.191-1.349
		c-0.956-0.364-2.275-0.771-3.961-1.222l1.011-2.191c0.843,0.113,1.798,0.239,2.866,0.379c1.066,0.141,2.162,0.282,3.287,0.422
		c1.123,0.141,2.246,0.281,3.371,0.421c1.123,0.141,2.106,0.268,2.95,0.38c-0.113,0.674-0.211,1.615-0.296,2.823
		c-0.084,1.209-0.126,2.317-0.126,3.329v9.861c0,1.234,0.28,2.035,0.843,2.401c0.562,0.365,1.657,0.576,3.287,0.633
		c2.135,0.055,4.663,0.027,7.585-0.085c2.921-0.113,5.955-0.281,9.103-0.506c3.146-0.225,6.251-0.492,9.313-0.801
		c3.062-0.309,5.829-0.66,8.302-1.053L120.271,77.709z M114.961,44.839c0,1.293-0.042,2.654-0.126,4.087
		c-0.084,1.434-0.184,2.866-0.295,4.299c-0.113,1.433-0.253,2.796-0.422,4.088c-0.168,1.293-0.366,2.416-0.59,3.371l-3.708,0.59
		c-0.113-0.729-0.198-1.656-0.253-2.781c-0.057-1.123-0.113-2.317-0.169-3.582c-0.057-1.265-0.099-2.542-0.126-3.835
		c-0.029-1.292-0.042-2.444-0.042-3.455V9.861c0-1.91-0.857-3.427-2.571-4.552c-1.714-1.123-4.369-2.118-7.965-2.985L99.706,0
		c2.809,0.337,5.647,0.773,8.513,1.307c2.865,0.534,5.394,1.025,7.585,1.475c-0.225,1.012-0.421,2.164-0.59,3.456
		c-0.168,1.293-0.253,2.501-0.253,3.624v18.458c2.304-0.112,4.916-0.323,7.839-0.633c2.921-0.308,5.87-0.716,8.85-1.222
		l-0.759,5.226c-1.18-0.056-2.459-0.084-3.835-0.084c-1.377,0-2.781,0-4.214,0s-2.823,0.014-4.172,0.042s-2.585,0.042-3.709,0.042
		V44.839z"/>
	<path d="M132.829,83.608v-3.624h43.321v3.624H132.829z"/>
	<path d="M221.831,43.899c0,3.57-0.365,6.555-1.095,8.952c0.729,0.225,1.433,0.434,2.106,0.629c0.675,0.194,1.376,0.433,2.107,0.713
		c-0.788,1.349-1.631,2.67-2.528,3.962c-0.899,1.293-1.911,2.558-3.034,3.792c2.078,1.349,4.368,2.67,6.869,3.962
		c2.499,1.293,5.042,2.558,7.627,3.793c2.584,1.236,5.169,2.373,7.754,3.413c2.584,1.039,5.001,1.98,7.249,2.823l-4.974,4.805
		c-4.607-3.147-9.047-6.014-13.316-8.598c-4.271-2.583-8.71-5.225-13.316-7.922c-1.911,1.967-3.976,3.821-6.194,5.562
		c-2.221,1.741-4.51,3.356-6.869,4.846c-2.36,1.488-4.749,2.837-7.164,4.046c-2.417,1.208-4.749,2.233-6.996,3.076l-1.77-1.854
		c6.629-2.979,12.249-6.448,16.856-10.409c4.606-3.962,8.091-7.908,10.451-11.842c0.393-0.618,0.59-1.123,0.59-1.518
		c0-0.392-0.31-0.813-0.927-1.264c-0.506-0.28-1.125-0.632-1.854-1.054c-0.73-0.421-1.799-0.94-3.203-1.56l1.602-1.854
		c1.461,0.337,2.978,0.73,4.552,1.18c-0.113-1.012-0.226-2.078-0.338-3.203c-0.113-1.123-0.168-2.219-0.168-3.287V42.31
		c-2.417,0.057-4.791,0.127-7.122,0.211c-2.332,0.084-4.509,0.155-6.532,0.211c-2.022,0.057-3.849,0.126-5.479,0.211
		c-1.63,0.084-2.895,0.155-3.792,0.21c-2.191,0.113-4.37,0.253-6.532,0.422c-2.164,0.169-4.285,0.394-6.363,0.674l-2.191-5.815
		c2.641,0.282,5.142,0.493,7.501,0.633c2.36,0.141,4.859,0.267,7.501,0.379c1.404,0.057,3.259,0.084,5.563,0.084
		c2.303,0,4.816-0.013,7.543-0.042c2.725-0.027,5.562-0.084,8.513-0.168c2.949-0.085,5.786-0.154,8.513-0.211
		c2.725-0.056,5.226-0.127,7.501-0.211s4.115-0.154,5.521-0.211c3.877-0.168,7.557-0.406,11.041-0.716
		c3.483-0.309,6.742-0.688,9.776-1.138l-0.843,5.646c-2.248-0.112-5.015-0.197-8.302-0.256c-3.287-0.058-6.841-0.114-10.662-0.172
		c-1.686,0-3.863,0.015-6.531,0.043c-2.67,0.029-5.55,0.101-8.64,0.216V43.899z M220.567,4.889c2.415,0.281,4.648,0.829,6.7,1.644
		c2.051,0.814,3.806,1.854,5.268,3.118c1.461,1.265,2.613,2.712,3.456,4.341c0.843,1.63,1.264,3.371,1.264,5.226
		c0,2.136-0.492,4.088-1.475,5.857c-0.983,1.77-2.36,3.302-4.13,4.594c-1.77,1.293-3.85,2.304-6.237,3.034
		c-2.389,0.73-4.959,1.096-7.711,1.096c-2.754,0-5.311-0.365-7.67-1.096c-2.36-0.73-4.397-1.741-6.11-3.034
		c-1.715-1.292-3.063-2.824-4.046-4.594c-0.983-1.77-1.475-3.722-1.475-5.857c0-1.967,0.463-3.807,1.391-5.521
		c0.927-1.714,2.191-3.216,3.792-4.51c1.602-1.292,3.512-2.331,5.731-3.118c2.219-0.786,4.621-1.235,7.206-1.349
		c-0.113-0.617-0.436-1.138-0.969-1.559c-0.535-0.422-1.447-0.829-2.739-1.223l0.759-1.602c1.403,0.282,2.767,0.521,4.087,0.717
		c1.32,0.197,2.711,0.436,4.172,0.716c-0.225,0.562-0.45,1.083-0.674,1.56C220.932,3.808,220.736,4.327,220.567,4.889z
		 M231.187,18.879c0-1.572-0.337-3.062-1.011-4.467c-0.675-1.403-1.602-2.64-2.781-3.708c-1.181-1.066-2.571-1.909-4.172-2.528
		c-1.602-0.618-3.33-0.928-5.184-0.928c-1.911,0-3.681,0.31-5.31,0.928c-1.631,0.619-3.049,1.462-4.257,2.528
		c-1.209,1.068-2.149,2.305-2.823,3.708c-0.675,1.405-1.012,2.895-1.012,4.467c0,1.687,0.337,3.232,1.012,4.636
		c0.674,1.405,1.614,2.613,2.823,3.624c1.208,1.012,2.626,1.799,4.257,2.36c1.629,0.562,3.398,0.843,5.31,0.843
		c1.854,0,3.582-0.28,5.184-0.843c1.601-0.562,2.991-1.349,4.172-2.36c1.18-1.011,2.106-2.219,2.781-3.624
		C230.85,22.111,231.187,20.565,231.187,18.879z"/>
	<path d="M337.973,44.586c-2.248-0.169-5.015-0.281-8.302-0.338c-3.287-0.055-6.841-0.111-10.662-0.168
		c-1.573,0-3.596,0.015-6.068,0.042c-2.473,0.029-5.155,0.084-8.049,0.169c-2.895,0.084-5.857,0.168-8.892,0.252
		c-3.034,0.085-5.929,0.169-8.681,0.253c-2.754,0.085-5.226,0.184-7.417,0.295c-2.191,0.113-3.85,0.198-4.973,0.253
		c-2.191,0.113-4.37,0.253-6.532,0.422c-2.164,0.168-4.285,0.394-6.363,0.674l-2.191-5.899c2.641,0.337,5.142,0.577,7.501,0.717
		c2.36,0.141,4.859,0.267,7.501,0.379c1.404,0.057,3.259,0.084,5.563,0.084c2.303,0,4.816-0.013,7.543-0.042
		c2.725-0.027,5.562-0.084,8.513-0.169c2.949-0.084,5.786-0.168,8.513-0.252c2.725-0.085,5.226-0.169,7.501-0.253
		c2.275-0.085,4.115-0.154,5.521-0.211c3.877-0.169,7.557-0.393,11.041-0.675c3.483-0.28,6.742-0.645,9.776-1.096L337.973,44.586z
		 M319.937,72.567c0.617-0.113,1.207-0.183,1.77-0.211c0.562-0.028,1.067-0.071,1.518-0.126l-1.096,4.72
		c-2.305-0.169-4.96-0.295-7.965-0.38c-3.007-0.084-6.125-0.126-9.355-0.126c-3.231,0-6.405,0.027-9.524,0.084
		c-3.118,0.056-5.914,0.14-8.386,0.253c-0.113,1.292-0.281,2.444-0.506,3.456l-3.287,0.59c-0.281-1.068-0.492-2.332-0.632-3.793
		c-0.141-1.462-0.268-2.922-0.379-4.383l-1.096-11.041c-0.113-1.066-0.253-1.938-0.422-2.612c-0.168-0.675-0.436-1.223-0.801-1.644
		c-0.366-0.422-0.914-0.771-1.644-1.054c-0.73-0.28-1.686-0.59-2.865-0.927l0.927-2.191c7.304,0.843,14.918,1.167,22.841,0.969
		c7.923-0.196,15.732-0.603,23.431-1.222c-0.45,3.202-0.914,6.561-1.391,10.071C320.596,66.514,320.217,69.702,319.937,72.567z
		 M302.574,4.889c2.415,0.281,4.648,0.829,6.7,1.644c2.051,0.814,3.806,1.854,5.268,3.118c1.461,1.265,2.613,2.712,3.456,4.341
		c0.843,1.63,1.264,3.371,1.264,5.226c0,2.136-0.492,4.088-1.475,5.857c-0.983,1.77-2.36,3.302-4.13,4.594
		c-1.77,1.293-3.85,2.304-6.237,3.034c-2.389,0.73-4.959,1.096-7.711,1.096c-2.754,0-5.311-0.365-7.67-1.096
		c-2.36-0.73-4.397-1.741-6.11-3.034c-1.715-1.292-3.063-2.824-4.046-4.594c-0.983-1.77-1.475-3.722-1.475-5.857
		c0-1.967,0.463-3.807,1.391-5.521c0.927-1.714,2.191-3.216,3.792-4.51c1.602-1.292,3.512-2.331,5.731-3.118
		c2.219-0.786,4.621-1.235,7.206-1.349c-0.113-0.617-0.436-1.138-0.969-1.559c-0.535-0.422-1.447-0.829-2.739-1.223l0.759-1.602
		c1.403,0.282,2.767,0.521,4.087,0.717c1.32,0.197,2.711,0.436,4.172,0.716c-0.225,0.562-0.45,1.083-0.674,1.56
		C302.938,3.808,302.743,4.327,302.574,4.889z M313.193,18.879c0-1.572-0.337-3.062-1.011-4.467
		c-0.675-1.403-1.602-2.64-2.781-3.708c-1.181-1.066-2.571-1.909-4.172-2.528c-1.602-0.618-3.33-0.928-5.184-0.928
		c-1.911,0-3.681,0.31-5.31,0.928c-1.631,0.619-3.049,1.462-4.257,2.528c-1.209,1.068-2.149,2.305-2.823,3.708
		c-0.675,1.405-1.012,2.895-1.012,4.467c0,1.687,0.337,3.232,1.012,4.636c0.674,1.405,1.614,2.613,2.823,3.624
		c1.208,1.012,2.626,1.799,4.257,2.36c1.629,0.562,3.398,0.843,5.31,0.843c1.854,0,3.582-0.28,5.184-0.843
		c1.601-0.562,2.991-1.349,4.172-2.36c1.18-1.011,2.106-2.219,2.781-3.624C312.856,22.111,313.193,20.565,313.193,18.879z
		 M315.807,57.145c-1.799-0.057-4.018-0.099-6.658-0.127c-2.642-0.028-5.353-0.014-8.134,0.043s-5.45,0.128-8.007,0.212
		c-2.558,0.085-4.622,0.184-6.194,0.295l0.337,13.554v2.626c2.135,0,4.41-0.015,6.827-0.042c2.415-0.029,4.859-0.086,7.332-0.169
		c2.473-0.085,4.902-0.171,7.291-0.254c2.388-0.085,4.648-0.213,6.784-0.382L315.807,57.145z"/>
</g>
</svg>