<!-- Generator: Adobe Illustrator 21.1.0, SVG Export Plug-In  -->
<svg version="1.1"
	 xmlns="http://www.w3.org/2000/svg" xmlns:xlink="http://www.w3.org/1999/xlink" xmlns:a="http://ns.adobe.com/AdobeSVGViewerExtensions/3.0/"
	 x="0px" y="0px" width="349.574px" height="349.574px" viewBox="0 0 349.574 349.574"
	 style="enable-background:new 0 0 349.574 349.574;" xml:space="preserve">
<style type="text/css">
	.st0{fill:#F2F2F2;}
	.st1{fill:#E6E6E6;}
	.st2{fill:#CCCCCC;}
	.st3{fill:#B3B3B3;}
	.st4{fill:#999999;}
</style>
<defs>
</defs>
<g>
	<rect class="st0" width="49.939" height="49.939"/>
	<rect x="49.939" class="st1" width="49.939" height="49.939"/>
	<rect x="99.878" class="st2" width="49.939" height="49.939"/>
	<rect x="149.817" class="st1" width="49.939" height="49.939"/>
	<rect x="199.756" class="st0" width="49.939" height="49.939"/>
	<rect x="249.696" class="st1" width="49.939" height="49.939"/>
	<rect x="299.635" class="st0" width="49.939" height="49.939"/>
	<rect y="49.939" class="st1" width="49.939" height="49.939"/>
	<rect x="49.939" y="49.939" class="st2" width="49.939" height="49.939"/>
	<rect x="99.878" y="49.939" class="st0" width="49.939" height="49.939"/>
	<rect x="149.817" y="49.939" class="st3" width="49.939" height="49.939"/>
	<rect x="199.756" y="49.939" class="st2" width="49.939" height="49.939"/>
	<rect x="249.696" y="49.939" class="st0" width="49.939" height="49.939"/>
	<rect x="299.635" y="49.939" class="st1" width="49.939" height="49.939"/>
	<rect y="99.878" class="st2" width="49.939" height="49.939"/>
	<rect x="49.939" y="99.878" class="st0" width="49.939" height="49.939"/>
	<rect x="99.878" y="99.878" class="st2" width="49.939" height="49.939"/>
	<rect x="149.817" y="99.878" class="st0" width="49.939" height="49.939"/>
	<rect x="199.756" y="99.878" class="st0" width="49.939" height="49.939"/>
	<rect x="249.696" y="99.878" class="st2" width="49.939" height="49.939"/>
	<rect x="299.635" y="99.878" class="st0" width="49.939" height="49.939"/>
	<rect y="149.817" class="st0" width="49.939" height="49.939"/>
	<rect x="49.939" y="149.817" class="st2" width="49.939" height="49.939"/>
	<rect x="99.878" y="149.817" class="st0" width="49.939" height="49.939"/>
	<rect x="149.817" y="149.817" class="st3" width="49.939" height="49.939"/>
	<rect x="199.756" y="149.817" class="st0" width="49.939" height="49.939"/>
	<rect x="249.696" y="149.817" class="st1" width="49.939" height="49.939"/>
	<rect x="299.635" y="149.817" class="st3" width="49.939" height="49.939"/>
	<rect y="199.756" class="st0" width="49.939" height="49.939"/>
	<rect x="49.939" y="199.756" class="st3" width="49.939" height="49.939"/>
	<rect x="99.878" y="199.756" class="st0" width="49.939" height="49.939"/>
	<rect x="149.817" y="199.756" class="st0" width="49.939" height="49.939"/>
	<rect x="199.756" y="199.756" class="st2" width="49.939" height="49.939"/>
	<rect x="249.696" y="199.756" class="st3" width="49.939" height="49.939"/>
	<rect x="299.635" y="199.756" class="st1" width="49.939" height="49.939"/>
	<rect y="249.696" class="st2" width="49.939" height="49.939"/>
	<rect x="49.939" y="249.696" class="st4" width="49.939" height="49.939"/>
	<rect x="99.878" y="249.696" class="st2" width="49.939" height="49.939"/>
	<rect x="149.817" y="249.696" class="st3" width="49.939" height="49.939"/>
	<rect x="199.756" y="249.696" class="st1" width="49.939" height="49.939"/>
	<rect x="249.696" y="249.696" class="st0" width="49.939" height="49.939"/>
	<rect x="299.635" y="249.696" class="st4" width="49.939" height="49.939"/>
	<rect y="299.635" class="st1" width="49.939" height="49.939"/>
	<rect x="49.939" y="299.635" class="st0" width="49.939" height="49.939"/>
	<rect x="99.878" y="299.635" class="st3" width="49.939" height="49.939"/>
	<rect x="149.817" y="299.635" class="st1" width="49.939" height="49.939"/>
	<rect x="199.756" y="299.635" class="st4" width="49.939" height="49.939"/>
	<rect x="249.696" y="299.635" class="st2" width="49.939" height="49.939"/>
	<rect x="299.635" y="299.635" class="st1" width="49.939" height="49.939"/>
</g>
</svg>