<!-- Generator: Adobe Illustrator 21.1.0, SVG Export Plug-In  -->
<svg version="1.1"
	 xmlns="http://www.w3.org/2000/svg" xmlns:xlink="http://www.w3.org/1999/xlink" xmlns:a="http://ns.adobe.com/AdobeSVGViewerExtensions/3.0/"
	 x="0px" y="0px" width="208.069px" height="130.543px" viewBox="0 0 208.069 130.543"
	 style="enable-background:new 0 0 208.069 130.543;" xml:space="preserve">
<style type="text/css">
	.st0{fill:none;stroke:#000000;stroke-miterlimit:10;}
</style>
<defs>
</defs>
<g>
	<g>
		<rect x="204.746" y="59.157" transform="matrix(1 -0.0079 0.0079 1 -0.6952 1.626)" width="2.83" height="59.901"/>
	</g>
</g>
<g>
	<ellipse transform="matrix(0.781 -0.6245 0.6245 0.781 -31.9434 149.2988)" cx="196.918" cy="120.198" rx="12.45" ry="8.737"/>
</g>
<g>
	<g>
		<rect x="18.98" y="59.157" transform="matrix(1 -0.0079 0.0079 1 -0.701 0.1633)" width="2.83" height="59.901"/>
	</g>
</g>
<g>
	<ellipse transform="matrix(0.781 -0.6245 0.6245 0.781 -72.6232 33.2858)" cx="11.152" cy="120.198" rx="12.45" ry="8.737"/>
</g>
<g>
	<g>
		<rect x="112.274" y="59.157" transform="matrix(1 -0.0079 0.0079 1 -0.6981 0.8979)" width="2.83" height="59.901"/>
	</g>
</g>
<g>
	<ellipse transform="matrix(0.781 -0.6245 0.6245 0.781 -52.1933 91.549)" cx="104.446" cy="120.198" rx="12.45" ry="8.737"/>
</g>
<g>
	<g>
		<rect x="65.627" y="59.157" transform="matrix(1 -0.0079 0.0079 1 -0.6995 0.5306)" width="2.83" height="59.901"/>
	</g>
</g>
<g>
	<ellipse transform="matrix(0.781 -0.6245 0.6245 0.781 -62.4083 62.4174)" cx="57.799" cy="120.198" rx="12.45" ry="8.737"/>
</g>
<g>
	<g>
		<rect x="158.51" y="59.157" transform="matrix(1 -0.0079 0.0079 1 -0.6967 1.262)" width="2.83" height="59.901"/>
	</g>
</g>
<g>
	<ellipse transform="matrix(0.781 -0.6245 0.6245 0.781 -42.0683 120.4239)" cx="150.682" cy="120.198" rx="12.45" ry="8.737"/>
</g>
<g>
	<g>
		<rect x="18.705" y="57.271" width="188.658" height="9.433"/>
	</g>
</g>
<polyline class="st0" points="20.436,29.008 20.436,10.008 62.436,10.008 "/>
<polyline class="st0" points="205.436,29.008 205.436,10.008 163.436,10.008 "/>
<g>
	<path d="M74.32,18.876c-0.411-0.088-0.767-0.301-1.067-0.638c-0.301-0.338-0.451-0.858-0.451-1.562c0-0.982,0.297-2.302,0.892-3.96
		c0.594-1.657,1.375-3.322,2.343-4.994c-0.733,0.044-1.312,0.154-1.738,0.33S73.594,8.5,73.462,8.866
		c0.059,0,0.121,0.073,0.188,0.22c0.065,0.146,0.099,0.301,0.099,0.462c0,0.264-0.117,0.474-0.352,0.627
		c-0.235,0.154-0.528,0.231-0.881,0.231c-0.41,0-0.74-0.11-0.989-0.33c-0.25-0.22-0.374-0.535-0.374-0.946
		c0-0.498,0.194-0.953,0.583-1.364c0.389-0.41,0.927-0.736,1.617-0.979c0.688-0.242,1.451-0.363,2.287-0.363
		c0.309,0,0.689,0.022,1.145,0.066c1.202-1.906,2.475-3.465,3.817-4.675C81.943,0.605,83.223,0,84.441,0
		c0.704,0,1.283,0.103,1.737,0.308L82.724,16.5h-3.168l1.694-7.986c-0.543-0.249-1.041-0.432-1.496-0.55
		c-0.454-0.117-0.938-0.198-1.452-0.242c-0.836,1.805-1.521,3.648-2.057,5.533s-0.803,3.392-0.803,4.521
		c0,0.557,0.103,0.968,0.308,1.231C75.207,19.008,74.731,18.964,74.32,18.876z M82.724,1.562c-0.63,0.338-1.286,0.965-1.969,1.882
		c-0.682,0.916-1.346,2.027-1.991,3.333c1.057,0.205,1.951,0.462,2.685,0.77L82.724,1.562z"/>
	<path d="M86.2,15.774c-0.557-0.572-0.836-1.467-0.836-2.685c0-1.085,0.217-2.226,0.649-3.421s1.078-2.207,1.936-3.036
		c0.858-0.828,1.881-1.243,3.069-1.243c0.601,0,1.048,0.104,1.342,0.309c0.293,0.205,0.44,0.477,0.44,0.813V6.6l1.077-5.06
		l3.257-0.44l-2.53,11.881c-0.059,0.22-0.088,0.454-0.088,0.703c0,0.294,0.069,0.503,0.209,0.627
		c0.139,0.125,0.37,0.188,0.692,0.188c0.411,0,0.767-0.176,1.067-0.528c0.301-0.352,0.539-0.821,0.715-1.408h0.924
		c-0.895,2.626-2.368,3.938-4.422,3.938c-0.602,0-1.089-0.161-1.463-0.484c-0.374-0.322-0.604-0.792-0.692-1.407
		c-0.382,0.586-0.84,1.07-1.375,1.451c-0.536,0.382-1.163,0.572-1.882,0.572C87.454,16.632,86.758,16.346,86.2,15.774z
		 M90.787,14.014c0.359-0.322,0.605-0.77,0.737-1.342v-0.11l1.078-5.037C92.471,7.011,92.17,6.754,91.7,6.754
		c-0.587,0-1.114,0.341-1.584,1.023c-0.47,0.682-0.836,1.503-1.1,2.464c-0.265,0.961-0.396,1.808-0.396,2.541
		s0.106,1.202,0.319,1.408c0.212,0.205,0.473,0.308,0.781,0.308C90.072,14.498,90.428,14.337,90.787,14.014z"/>
	<path d="M108.608,15.917c-0.418-0.477-0.627-1.067-0.627-1.771c0-0.309,0.036-0.656,0.109-1.046
		c0.073-0.388,0.15-0.766,0.231-1.133c0.08-0.366,0.136-0.601,0.165-0.704c0.117-0.513,0.228-1.019,0.33-1.518
		c0.103-0.498,0.153-0.902,0.153-1.21c0-0.748-0.264-1.122-0.792-1.122c-0.381,0-0.719,0.187-1.012,0.561s-0.527,0.862-0.704,1.464
		l-1.496,7.062h-3.168l1.606-7.59c0.044-0.176,0.065-0.359,0.065-0.55c0-0.646-0.22-0.969-0.659-0.969
		c-0.411,0-0.767,0.188-1.067,0.562s-0.539,0.869-0.715,1.485L99.532,16.5h-3.168l2.332-11h3.168l-0.242,1.144
		c0.748-0.836,1.643-1.254,2.685-1.254c1.29,0,2.046,0.631,2.266,1.893c0.807-1.247,1.826-1.87,3.058-1.87
		c0.748,0,1.343,0.205,1.782,0.616c0.44,0.41,0.66,1.033,0.66,1.87c0,0.425-0.052,0.898-0.154,1.419s-0.249,1.154-0.439,1.902
		c-0.118,0.455-0.224,0.898-0.319,1.331s-0.143,0.774-0.143,1.023c0,0.293,0.065,0.521,0.197,0.682
		c0.133,0.162,0.359,0.242,0.683,0.242c0.439,0,0.792-0.157,1.056-0.473s0.528-0.804,0.792-1.464h0.924
		c-0.543,1.614-1.17,2.695-1.881,3.245c-0.712,0.551-1.448,0.825-2.211,0.825C109.682,16.632,109.026,16.394,108.608,15.917z"/>
	<path d="M114.217,15.972c-0.433-0.439-0.648-1.1-0.648-1.979c0-0.366,0.059-0.844,0.176-1.431L115.24,5.5h3.168l-1.584,7.48
		c-0.059,0.22-0.088,0.454-0.088,0.703c0,0.294,0.069,0.503,0.209,0.627c0.139,0.125,0.37,0.188,0.692,0.188
		c0.426,0,0.821-0.18,1.188-0.539c0.366-0.359,0.631-0.825,0.792-1.397h0.924c-0.543,1.585-1.239,2.659-2.09,3.224
		s-1.694,0.847-2.53,0.847C115.218,16.632,114.65,16.412,114.217,15.972z M116.187,3.806c-0.338-0.337-0.507-0.748-0.507-1.231
		c0-0.484,0.169-0.898,0.507-1.243c0.337-0.345,0.748-0.517,1.231-0.517c0.484,0,0.898,0.172,1.243,0.517s0.517,0.759,0.517,1.243
		c0,0.483-0.172,0.895-0.517,1.231c-0.345,0.338-0.759,0.506-1.243,0.506C116.935,4.312,116.524,4.144,116.187,3.806z"/>
	<path d="M121.114,5.5h3.168l-0.286,1.364c0.498-0.44,0.949-0.777,1.354-1.013c0.402-0.234,0.839-0.352,1.309-0.352
		c0.469,0,0.84,0.161,1.111,0.484c0.271,0.322,0.406,0.711,0.406,1.166c0,0.425-0.14,0.799-0.418,1.122
		c-0.278,0.322-0.667,0.483-1.166,0.483c-0.322,0-0.539-0.077-0.648-0.23c-0.11-0.154-0.194-0.378-0.253-0.672
		c-0.044-0.19-0.088-0.329-0.132-0.418c-0.044-0.088-0.125-0.132-0.242-0.132c-0.309,0-0.568,0.062-0.781,0.188
		s-0.487,0.341-0.825,0.648l-1.76,8.36h-3.168L121.114,5.5z"/>
	<path d="M128.362,15.972c-0.433-0.439-0.648-1.1-0.648-1.979c0-0.366,0.059-0.844,0.176-1.431l1.496-7.062h3.168l-1.584,7.48
		c-0.059,0.22-0.088,0.454-0.088,0.703c0,0.294,0.069,0.503,0.209,0.627c0.139,0.125,0.37,0.188,0.692,0.188
		c0.426,0,0.821-0.18,1.188-0.539c0.366-0.359,0.631-0.825,0.792-1.397h0.924c-0.543,1.585-1.239,2.659-2.09,3.224
		s-1.694,0.847-2.53,0.847C129.363,16.632,128.795,16.412,128.362,15.972z M130.332,3.806c-0.338-0.337-0.507-0.748-0.507-1.231
		c0-0.484,0.169-0.898,0.507-1.243c0.337-0.345,0.748-0.517,1.231-0.517c0.484,0,0.898,0.172,1.243,0.517s0.517,0.759,0.517,1.243
		c0,0.483-0.172,0.895-0.517,1.231c-0.345,0.338-0.759,0.506-1.243,0.506C131.08,4.312,130.669,4.144,130.332,3.806z"/>
	<path d="M139.736,15.917c-0.418-0.477-0.627-1.067-0.627-1.771c0-0.309,0.037-0.656,0.11-1.046c0.073-0.388,0.15-0.766,0.23-1.133
		c0.081-0.366,0.136-0.601,0.165-0.704c0.117-0.513,0.228-1.019,0.33-1.518c0.103-0.498,0.154-0.902,0.154-1.21
		c0-0.748-0.264-1.122-0.792-1.122c-0.382,0-0.719,0.187-1.012,0.561c-0.294,0.374-0.528,0.862-0.704,1.464l-1.496,7.062h-3.168
		l2.332-11h3.168l-0.242,1.144c0.733-0.82,1.592-1.231,2.574-1.231c0.748,0,1.342,0.205,1.782,0.616
		c0.439,0.41,0.66,1.033,0.66,1.87c0,0.425-0.052,0.898-0.154,1.419s-0.25,1.154-0.44,1.902c-0.117,0.455-0.224,0.898-0.318,1.331
		c-0.096,0.433-0.144,0.774-0.144,1.023c0,0.293,0.066,0.521,0.198,0.682c0.132,0.162,0.359,0.242,0.682,0.242
		c0.44,0,0.792-0.157,1.057-0.473c0.264-0.315,0.527-0.804,0.792-1.464h0.924c-0.543,1.614-1.17,2.695-1.881,3.245
		c-0.712,0.551-1.449,0.825-2.211,0.825C140.811,16.632,140.154,16.394,139.736,15.917z"/>
	<path d="M146.93,21.329c-0.521-0.447-0.78-1.016-0.78-1.705c0-0.646,0.161-1.174,0.483-1.584c0.322-0.411,0.74-0.733,1.254-0.968
		c0.514-0.235,1.203-0.484,2.068-0.748l0.198-0.924c-0.763,0.821-1.643,1.231-2.641,1.231c-0.836,0-1.532-0.286-2.09-0.857
		c-0.557-0.572-0.836-1.467-0.836-2.685c0-1.085,0.217-2.226,0.649-3.421s1.078-2.207,1.936-3.036
		c0.858-0.828,1.881-1.243,3.069-1.243c0.601,0,1.048,0.104,1.342,0.309c0.293,0.205,0.44,0.477,0.44,0.813v0.044l0.22-1.056h3.189
		l-2.684,12.76c-0.294,1.408-0.811,2.384-1.551,2.926C150.457,21.729,149.64,22,148.745,22C148.056,22,147.45,21.776,146.93,21.329z
		 M148.987,19.635c0.234-0.271,0.418-0.708,0.55-1.309l0.264-1.298c-0.777,0.264-1.379,0.571-1.804,0.924
		c-0.426,0.352-0.638,0.807-0.638,1.364c0,0.176,0.088,0.341,0.264,0.494c0.176,0.154,0.381,0.231,0.616,0.231
		C148.503,20.042,148.752,19.906,148.987,19.635z M149.966,14.069c0.345-0.286,0.591-0.693,0.737-1.222l1.122-5.323
		c-0.118-0.514-0.418-0.771-0.902-0.771c-0.587,0-1.114,0.341-1.584,1.023c-0.47,0.682-0.836,1.503-1.1,2.464
		c-0.265,0.961-0.396,1.808-0.396,2.541s0.106,1.202,0.319,1.408c0.212,0.205,0.473,0.308,0.781,0.308
		C149.28,14.498,149.621,14.355,149.966,14.069z"/>
</g>
</svg>