<!-- Generator: Adobe Illustrator 21.1.0, SVG Export Plug-In  -->
<svg version="1.1"
	 xmlns="http://www.w3.org/2000/svg" xmlns:xlink="http://www.w3.org/1999/xlink" xmlns:a="http://ns.adobe.com/AdobeSVGViewerExtensions/3.0/"
	 x="0px" y="0px" width="126.157px" height="69.919px" viewBox="0 0 126.157 69.919"
	 style="enable-background:new 0 0 126.157 69.919;" xml:space="preserve">
<style type="text/css">
	.st0{fill:#FFFFFF;}
</style>
<defs>
</defs>
<g>
	<path class="st0" d="M31.899,45.076c0.072,0.36-0.144,0.792-0.648,1.152c-3.672,2.16-10.441,4.681-15.122,5.328
		c-1.224,0.145-2.592,0.288-3.456,0.288c-4.825,0-6.841-1.512-8.065-5.4c-0.144-0.432-0.288-2.16-0.288-3.96V20.882
		C3.384,19.73,1.8,18.65,0,17.93l0.648-2.592c0.144-0.288,0.36-0.504,0.864-0.504c2.952,0,9.865,0.288,12.601,0.647
		c1.368-0.071,4.537-0.216,5.544-0.359l2.088-1.44c1.872-0.072,4.968,0.144,6.48,0.36c0.864,0.216,1.296,0.792,1.296,1.584
		c0,2.16-0.648,3.888-1.368,4.608c-0.36,0.288-0.792,0.432-1.44,0.432L14.042,21.17v21.386c0,0.864,0.36,1.225,1.296,1.225
		c4.249-0.072,11.233-0.72,14.833-1.584c0.648-0.145,1.008,0,1.152,0.504L31.899,45.076z M31.971,5.473
		c0.144-0.359,0.432-0.576,1.296-0.576c3.24,0.145,8.425,1.297,10.801,2.448c0.72,0.36,1.008,1.009,1.008,2.017l-0.288,3.889v34.419
		c0,4.608-1.152,13.393-2.952,18.001h-4.969c-0.648-2.736-1.152-12.169-1.152-15.409V33.052c-1.728,0.071-3.889,0.144-4.752,0.216
		c-1.296,0.071-3.384,0.504-4.681,0.936c-2.016-1.296-3.672-2.664-5.04-4.32c-0.216-0.359-0.288-0.647-0.144-1.008l0.72-1.225
		c1.584,0.145,3.889,0.217,5.688,0.217c1.944,0,5.688-0.072,8.209-0.217V12.098c-0.792-1.44-2.736-2.881-4.825-3.816L31.971,5.473z
		 M44.932,0.576C45.148,0.217,45.436,0,46.228,0c3.457,0.145,9.073,1.297,11.665,2.521c0.792,0.36,1.152,1.008,1.08,2.088
		l-0.288,4.249v41.26c0,4.968-1.224,14.617-3.24,19.802h-5.256c-0.648-2.521-1.152-13.538-1.152-16.994V7.562
		c-0.792-1.513-2.88-3.097-5.112-4.104L44.932,0.576z"/>
	<path class="st0" d="M111.099,0.576C111.243,0.217,111.459,0,112.251,0c3.816,0.145,9.937,1.297,12.745,2.521
		c0.864,0.36,1.224,1.08,1.152,2.16l-0.36,4.681v40.323c0,5.041-1.224,14.978-3.312,20.234h-5.544
		c-0.648-2.448-1.152-13.825-1.152-17.282V42.484c-4.752,1.08-11.377,2.16-17.857,3.024v3.744c0,4.752-1.584,14.329-3.24,18.434
		h-5.473c-0.504-2.809-1.152-12.169-1.152-15.481v-5.616c-1.512,0.144-2.88,0.288-4.176,0.359c-1.8,0.145-5.113,0.864-6.841,1.513
		c-2.88-1.44-6.409-4.032-8.713-6.337c-0.36-0.36-0.432-0.576-0.216-1.008l0.648-1.44c3.024,0.504,6.913,0.648,9.937,0.576
		c10.369-0.145,29.09-1.584,37.083-3.24V7.993c-0.936-1.729-3.168-3.456-5.688-4.536L111.099,0.576z M75.96,13.537
		c-0.576-0.936-2.304-2.231-3.672-2.735l0.648-2.448c0.072-0.288,0.36-0.505,1.296-0.505c2.736-0.071,8.497,0.505,10.729,1.081
		c0.72,0.216,1.008,0.792,0.936,1.728l-0.144,3.528v1.656l13.609-0.144v-5.041c-0.576-1.008-2.16-2.232-3.6-2.88l0.864-2.376
		c0.216-0.433,0.504-0.648,1.368-0.576c2.809,0.144,8.281,1.008,10.369,1.728c0.792,0.288,1.008,0.864,0.936,1.729l-0.216,3.816
		l-0.072,8.137c0,2.376-0.504,5.328-1.008,6.984l1.44,0.576c0.432,0.216,0.648,0.576,0.648,1.008c0,1.656-0.504,3.312-1.08,3.889
		c-5.544-0.072-17.498,0.072-23.978,0.216c-0.504,1.512-1.368,2.521-2.16,3.024h-5.256c-0.792-1.656-1.224-4.032-1.224-5.545
		L75.96,13.537z M85.681,21.603l-0.072,5.4l13.753-0.145v-5.4L85.681,21.603z"/>
</g>
</svg>