<!-- Generator: Adobe Illustrator 21.1.0, SVG Export Plug-In  -->
<svg version="1.1"
	 xmlns="http://www.w3.org/2000/svg" xmlns:xlink="http://www.w3.org/1999/xlink" xmlns:a="http://ns.adobe.com/AdobeSVGViewerExtensions/3.0/"
	 x="0px" y="0px" width="12.811px" height="63.892px" viewBox="0 0 12.811 63.892"
	 style="enable-background:new 0 0 12.811 63.892;" xml:space="preserve">
<defs>
</defs>
<g>
	<g>
		<g>
			<rect x="10.865" y="0.005" transform="matrix(1 -0.0079 0.0079 1 -0.1231 0.0919)" width="1.481" height="31.342"/>
		</g>
	</g>
	<g>
		<ellipse transform="matrix(0.781 -0.6245 0.6245 0.781 -18.467 11.2223)" cx="6.769" cy="31.944" rx="6.514" ry="4.571"/>
	</g>
</g>
<g>
	<path d="M7.137,57.904c0,0.675-0.064,1.239-0.191,1.695l-0.643,0.082c-0.019-0.091-0.034-0.2-0.048-0.328s-0.027-0.262-0.041-0.403
		s-0.025-0.285-0.034-0.431c-0.009-0.146-0.014-0.282-0.014-0.41v-0.342c-0.392,0.009-0.777,0.021-1.155,0.034
		c-0.378,0.014-0.731,0.025-1.06,0.034s-0.625,0.021-0.889,0.034c-0.265,0.014-0.47,0.025-0.615,0.034
		c-0.355,0.019-0.709,0.043-1.06,0.075c-0.351,0.032-0.695,0.07-1.032,0.116L0,57.138c0.428,0.046,0.834,0.08,1.217,0.103
		s0.788,0.043,1.217,0.062c0.228,0.009,0.528,0.014,0.902,0.014c0.374,0,0.781-0.002,1.224-0.007
		c0.442-0.005,0.902-0.014,1.381-0.027s0.938-0.025,1.381-0.034c0.442-0.009,0.848-0.021,1.217-0.034s0.667-0.025,0.896-0.034
		c0.629-0.027,1.226-0.063,1.791-0.109c0.565-0.046,1.094-0.104,1.586-0.178l-0.137,0.889c-0.365-0.019-0.813-0.032-1.347-0.041
		s-1.11-0.019-1.729-0.027c-0.273,0-0.627,0.002-1.06,0.007c-0.433,0.005-0.9,0.016-1.401,0.034V57.904z M9.078,51.984
		c-0.228-0.009-0.545-0.014-0.95-0.014c-0.406,0-0.832,0.005-1.278,0.014c-0.447,0.009-0.875,0.021-1.285,0.034
		s-0.734,0.029-0.971,0.048c-0.101,0.009-0.224,0.019-0.369,0.027c-0.146,0.009-0.306,0.021-0.479,0.034
		c-0.173,0.014-0.354,0.032-0.54,0.055c-0.187,0.022-0.367,0.053-0.54,0.089L2.188,51.41c0.109,0.019,0.237,0.039,0.383,0.062
		c0.146,0.022,0.301,0.043,0.465,0.062s0.33,0.032,0.499,0.041c0.168,0.009,0.326,0.014,0.472,0.014
		c0.355,0.009,0.795,0.012,1.319,0.007c0.524-0.005,1.075-0.014,1.654-0.027c0.579-0.014,1.153-0.032,1.723-0.055
		c0.569-0.022,1.078-0.053,1.524-0.089c-0.027,0.082-0.057,0.21-0.089,0.383c-0.032,0.173-0.062,0.347-0.089,0.52L9.83,53.392
		c0.082-0.009,0.152-0.014,0.212-0.014c0.059,0,0.116-0.005,0.171-0.014l-0.068,0.656c-0.529-0.027-1.103-0.041-1.723-0.041
		c-0.62,0-1.222,0.007-1.805,0.021c-0.583,0.014-1.114,0.029-1.593,0.048s-0.836,0.032-1.073,0.041
		c-0.009,0.082-0.016,0.173-0.021,0.273c-0.005,0.101-0.007,0.187-0.007,0.26v0.547c0,0.155,0.036,0.258,0.109,0.308
		c0.073,0.05,0.228,0.08,0.465,0.089c0.337,0.009,0.774,0.009,1.312,0c0.538-0.009,1.101-0.029,1.688-0.062s1.162-0.07,1.723-0.116
		s1.037-0.101,1.429-0.164l-0.205,0.848c-0.501-0.019-1.058-0.029-1.668-0.034c-0.611-0.005-1.224-0.002-1.839,0.007
		s-1.208,0.022-1.777,0.041c-0.57,0.019-1.064,0.036-1.483,0.055c-0.237,0.019-0.408-0.039-0.513-0.171
		c-0.105-0.132-0.157-0.303-0.157-0.513v-0.602c0-0.173-0.012-0.316-0.034-0.431c-0.023-0.114-0.068-0.21-0.137-0.287
		s-0.169-0.144-0.301-0.198c-0.132-0.055-0.303-0.118-0.513-0.191l0.137-0.301c0.501,0.055,1.05,0.091,1.647,0.109
		c0.597,0.019,1.203,0.025,1.818,0.021s1.217-0.019,1.805-0.041s1.123-0.048,1.606-0.075L9.078,51.984z M9.256,63.195
		c-0.729-0.027-1.522-0.027-2.379,0c-0.857,0.027-1.718,0.063-2.584,0.109c-0.019,0.091-0.034,0.178-0.048,0.26
		s-0.03,0.159-0.048,0.232l-0.561,0.096c-0.027-0.183-0.05-0.39-0.068-0.622c-0.019-0.232-0.027-0.477-0.027-0.731V60.46
		c0-0.31-0.073-0.54-0.219-0.69c-0.146-0.15-0.442-0.275-0.889-0.376l0.137-0.342c0.31,0.027,0.629,0.063,0.957,0.109
		s0.67,0.104,1.025,0.178c-0.037,0.164-0.068,0.34-0.096,0.526s-0.041,0.371-0.041,0.554v0.178c0.766-0.009,1.549-0.025,2.352-0.048
		c0.802-0.022,1.618-0.07,2.447-0.144v-0.369c0-0.155-0.019-0.287-0.055-0.396c-0.037-0.109-0.103-0.205-0.198-0.287
		s-0.224-0.152-0.383-0.212c-0.16-0.06-0.362-0.121-0.608-0.185l0.137-0.342c0.383,0.046,0.747,0.089,1.094,0.13
		c0.346,0.041,0.697,0.098,1.053,0.171c-0.037,0.173-0.068,0.351-0.096,0.533s-0.041,0.364-0.041,0.547v1.723
		c0,0.328-0.025,0.677-0.075,1.046c-0.05,0.369-0.103,0.663-0.157,0.882l-0.574,0.082c-0.019-0.073-0.03-0.155-0.034-0.246
		C9.271,63.391,9.265,63.295,9.256,63.195z M9.215,62.361v-1.326c-0.757-0.027-1.543-0.032-2.358-0.014
		c-0.816,0.019-1.629,0.05-2.44,0.096v0.82c0,0.137-0.005,0.275-0.014,0.417c-0.009,0.142-0.027,0.285-0.055,0.431
		c0.774-0.009,1.586-0.029,2.434-0.062s1.659-0.075,2.434-0.13V62.361z"/>
</g>
</svg>