<!-- Generator: Adobe Illustrator 21.1.0, SVG Export Plug-In  -->
<svg version="1.1"
	 xmlns="http://www.w3.org/2000/svg" xmlns:xlink="http://www.w3.org/1999/xlink" xmlns:a="http://ns.adobe.com/AdobeSVGViewerExtensions/3.0/"
	 x="0px" y="0px" width="208.069px" height="121.987px" viewBox="0 0 208.069 121.987"
	 style="enable-background:new 0 0 208.069 121.987;" xml:space="preserve">
<style type="text/css">
	.st0{fill:none;stroke:#000000;stroke-miterlimit:10;}
</style>
<defs>
</defs>
<g>
	<g>
		<rect x="204.746" y="1.886" transform="matrix(1 -0.0079 0.0079 1 -0.2443 1.6242)" width="2.83" height="59.901"/>
	</g>
</g>
<g>
	<ellipse transform="matrix(0.781 -0.6245 0.6245 0.781 3.8233 136.7573)" cx="196.918" cy="62.927" rx="12.45" ry="8.737"/>
</g>
<g>
	<g>
		<rect x="18.98" y="1.886" transform="matrix(1 -0.0079 0.0079 1 -0.25 0.1616)" width="2.83" height="59.901"/>
	</g>
</g>
<g>
	<ellipse transform="matrix(0.781 -0.6245 0.6245 0.781 -36.8566 20.7443)" cx="11.152" cy="62.927" rx="12.45" ry="8.737"/>
</g>
<g>
	<g>
		<rect x="112.274" y="1.886" transform="matrix(1 -0.0079 0.0079 1 -0.2471 0.8961)" width="2.83" height="59.901"/>
	</g>
</g>
<g>
	<ellipse transform="matrix(0.781 -0.6245 0.6245 0.781 -16.4266 79.0074)" cx="104.446" cy="62.927" rx="12.45" ry="8.737"/>
</g>
<g>
	<g>
		<rect x="65.627" y="1.886" transform="matrix(1 -0.0079 0.0079 1 -0.2486 0.5289)" width="2.83" height="59.901"/>
	</g>
</g>
<g>
	<ellipse transform="matrix(0.781 -0.6245 0.6245 0.781 -26.6416 49.8759)" cx="57.799" cy="62.927" rx="12.45" ry="8.737"/>
</g>
<g>
	<g>
		<rect x="158.51" y="1.886" transform="matrix(1 -0.0079 0.0079 1 -0.2457 1.2602)" width="2.83" height="59.901"/>
	</g>
</g>
<g>
	<ellipse transform="matrix(0.781 -0.6245 0.6245 0.781 -6.3017 107.8824)" cx="150.682" cy="62.927" rx="12.45" ry="8.737"/>
</g>
<g>
	<g>
		<rect x="18.705" width="188.658" height="9.433"/>
	</g>
</g>
<polyline class="st0" points="11.436,99.736 11.436,118.736 68.436,118.736 "/>
<polyline class="st0" points="196.437,99.737 196.437,118.737 142.436,118.737 "/>
<g>
	<path d="M88.18,120.733c-0.777-0.836-1.166-2.222-1.166-4.157c0-1.54,0.261-3.197,0.781-4.973c0.521-1.774,1.357-3.296,2.508-4.564
		c1.152-1.269,2.615-1.903,4.39-1.903c1.1,0,1.987,0.242,2.661,0.726c0.676,0.484,1.013,1.226,1.013,2.223
		c0,0.631-0.125,1.126-0.374,1.484c-0.25,0.36-0.639,0.539-1.166,0.539s-0.945-0.19-1.254-0.571
		c0.264-0.133,0.498-0.396,0.704-0.792c0.205-0.396,0.308-0.807,0.308-1.232c0-0.396-0.106-0.719-0.318-0.968
		c-0.213-0.249-0.555-0.374-1.023-0.374c-0.777,0-1.518,0.531-2.223,1.595c-0.703,1.063-1.271,2.402-1.704,4.015
		c-0.433,1.614-0.649,3.168-0.649,4.664c0,1.115,0.19,1.966,0.572,2.553c0.381,0.587,1.07,0.88,2.068,0.88
		c0.865,0,1.664-0.19,2.397-0.572c0.733-0.381,1.364-0.924,1.892-1.628l0.506,0.22c-0.366,0.924-0.908,1.694-1.627,2.311
		c-0.719,0.615-1.489,1.066-2.311,1.353s-1.599,0.429-2.332,0.429C90.175,121.987,88.957,121.569,88.18,120.733z"/>
	<path d="M98.004,121.107c-0.434-0.439-0.649-1.1-0.649-1.979c0-0.366,0.059-0.844,0.176-1.431l1.496-7.062h3.168l-1.584,7.48
		c-0.044,0.22-0.065,0.425-0.065,0.615c0,0.602,0.219,0.902,0.659,0.902c0.411,0,0.763-0.172,1.056-0.517
		c0.294-0.345,0.528-0.818,0.705-1.42l1.496-7.062h3.168l-1.584,7.48c-0.06,0.22-0.089,0.454-0.089,0.703
		c0,0.294,0.069,0.503,0.209,0.627c0.14,0.125,0.37,0.188,0.693,0.188c0.41,0,0.767-0.176,1.067-0.528
		c0.3-0.352,0.539-0.821,0.715-1.408h0.924c-0.543,1.585-1.214,2.659-2.014,3.224c-0.799,0.564-1.602,0.847-2.408,0.847
		c-0.631,0-1.133-0.176-1.508-0.528c-0.373-0.352-0.598-0.872-0.67-1.562c-0.5,0.807-1.023,1.356-1.574,1.65
		c-0.549,0.293-1.11,0.439-1.682,0.439C99.004,121.768,98.436,121.548,98.004,121.107z"/>
	<path d="M109.113,121.107c-0.434-0.439-0.649-1.1-0.649-1.979c0-0.366,0.059-0.844,0.176-1.431l1.319-6.182h-0.725l0.176-0.88
		h0.726l0.659-3.036l3.257-0.439l-0.748,3.476h1.319l-0.176,0.88h-1.32l-1.407,6.601c-0.06,0.22-0.088,0.454-0.088,0.703
		c0,0.294,0.069,0.503,0.209,0.627c0.14,0.125,0.37,0.188,0.692,0.188c0.426,0,0.822-0.18,1.188-0.539s0.63-0.825,0.792-1.397h0.924
		c-0.543,1.585-1.239,2.659-2.09,3.224s-1.693,0.847-2.529,0.847C110.113,121.768,109.545,121.548,109.113,121.107z"/>
	<path d="M115.108,120.921c-0.602-0.564-0.902-1.448-0.902-2.651c0-1.012,0.199-2.126,0.595-3.344
		c0.396-1.217,1.041-2.27,1.937-3.157c0.894-0.887,2.031-1.331,3.409-1.331c1.613,0,2.42,0.704,2.42,2.112
		c0,0.821-0.234,1.577-0.704,2.266c-0.469,0.689-1.092,1.243-1.869,1.661c-0.778,0.418-1.606,0.657-2.486,0.715
		c-0.029,0.323-0.044,0.543-0.044,0.66c0,1.218,0.454,1.826,1.364,1.826c0.41,0,0.85-0.11,1.319-0.33s0.895-0.498,1.276-0.836
		c-0.396,2.171-1.665,3.256-3.807,3.256C116.545,121.768,115.709,121.485,115.108,120.921z M119.233,115.586
		c0.492-0.353,0.888-0.803,1.188-1.354c0.3-0.55,0.45-1.125,0.45-1.727s-0.184-0.902-0.549-0.902c-0.514,0-1.023,0.466-1.529,1.397
		s-0.885,1.977-1.133,3.135C118.217,116.121,118.741,115.938,119.233,115.586z"/>
</g>
</svg>