<!-- Generator: Adobe Illustrator 21.1.0, SVG Export Plug-In  -->
<svg version="1.1"
	 xmlns="http://www.w3.org/2000/svg" xmlns:xlink="http://www.w3.org/1999/xlink" xmlns:a="http://ns.adobe.com/AdobeSVGViewerExtensions/3.0/"
	 x="0px" y="0px" width="20.412px" height="73.154px" viewBox="0 0 20.412 73.154"
	 style="enable-background:new 0 0 20.412 73.154;" xml:space="preserve">
<defs>
</defs>
<g>
	<g>
		<polygon points="10.797,40.491 10.55,0.015 12.03,0 12.277,40.477 		"/>
	</g>
</g>
<g>
	<ellipse transform="matrix(0.781 -0.6245 0.6245 0.781 -24.2164 13.1041)" cx="6.577" cy="41.083" rx="6.514" ry="4.571"/>
</g>
<g>
	<path d="M4.129,68.861c0.911-0.082,1.782-0.188,2.611-0.32c0.829-0.133,1.627-0.289,2.393-0.471v-6.538
		c0-0.31-0.137-0.555-0.41-0.737s-0.702-0.344-1.285-0.484l0.15-0.377c0.456,0.055,0.916,0.125,1.381,0.212s0.875,0.166,1.23,0.239
		c-0.037,0.164-0.068,0.351-0.096,0.561s-0.041,0.405-0.041,0.588v4.416c0.374-0.019,0.802-0.053,1.285-0.103
		c0.483-0.05,0.971-0.111,1.463-0.185l-0.123,0.861c-0.191-0.009-0.401-0.014-0.629-0.014c-0.228,0-0.46,0-0.697,0
		c-0.237,0-0.467,0.002-0.69,0.007c-0.224,0.005-0.426,0.007-0.608,0.007v2.653c0,0.282-0.007,0.605-0.021,0.97
		s-0.03,0.729-0.048,1.094c-0.019,0.364-0.041,0.711-0.068,1.039s-0.06,0.597-0.096,0.807l-0.574,0.068
		c-0.019-0.155-0.034-0.349-0.048-0.581s-0.027-0.483-0.041-0.752s-0.023-0.545-0.027-0.827c-0.005-0.282-0.007-0.556-0.007-0.82
		V68.47c-0.574,0.136-1.151,0.261-1.729,0.374c-0.579,0.113-1.148,0.213-1.709,0.3c-0.561,0.086-1.105,0.163-1.634,0.23
		c-0.529,0.068-1.025,0.121-1.49,0.157c-0.101,0.009-0.235,0.021-0.403,0.034c-0.169,0.014-0.349,0.029-0.54,0.048
		s-0.383,0.036-0.574,0.055s-0.365,0.041-0.52,0.068L0,68.875c0.301,0.055,0.629,0.096,0.984,0.122
		c0.355,0.027,0.684,0.031,0.984,0.014c0.219-0.009,0.435-0.018,0.649-0.026c0.214-0.009,0.421-0.019,0.622-0.027v-2.734
		c0-0.155-0.014-0.285-0.041-0.39s-0.078-0.196-0.15-0.273c-0.073-0.077-0.18-0.144-0.321-0.198
		c-0.142-0.055-0.326-0.109-0.554-0.164l0.137-0.328c0.31,0.019,0.624,0.043,0.943,0.075c0.319,0.032,0.656,0.084,1.012,0.157
		c-0.037,0.172-0.068,0.35-0.096,0.531s-0.041,0.363-0.041,0.545V68.861z M5.783,67.221c0.082-0.392,0.159-0.802,0.232-1.23
		c0.073-0.429,0.137-0.853,0.191-1.271s0.098-0.822,0.13-1.21c0.032-0.388,0.048-0.731,0.048-1.032
		c-0.574,0-1.137,0.022-1.688,0.068c-0.552,0.046-1.11,0.077-1.675,0.096c-0.283,0.019-0.579,0.036-0.889,0.055
		c-0.31,0.019-0.638,0.06-0.984,0.123L0.67,61.957c0.364,0.046,0.706,0.082,1.025,0.109c0.319,0.027,0.624,0.041,0.916,0.041
		c0.72,0,1.474-0.021,2.263-0.062c0.788-0.041,1.606-0.135,2.454-0.28l0.26,0.246c-0.073,0.383-0.153,0.805-0.239,1.265
		c-0.087,0.46-0.185,0.923-0.294,1.388s-0.226,0.911-0.349,1.34s-0.249,0.807-0.376,1.135L5.783,67.221z"/>
</g>
<path d="M12.065,9c0,0,2.084,6.349,4.267,8.966c2.743,3.287,4.572,6.575,3.963,9.862S16.942,35,16.942,35s2.896-4.931,2.286-7.92
	s-3.895-6.362-5.03-7.92c-1.524-2.092-2.286-3.736-2.286-3.736L12.065,9z"/>
<path d="M12.065,0c0,0,2.084,6.349,4.267,8.966c2.743,3.287,4.572,6.575,3.963,9.862S16.942,26,16.942,26s2.896-4.931,2.286-7.92
	s-3.895-6.362-5.03-7.92c-1.524-2.092-2.286-3.736-2.286-3.736L12.065,0z"/>
</svg>