<!-- Generator: Adobe Illustrator 21.1.0, SVG Export Plug-In  -->
<svg version="1.1"
	 xmlns="http://www.w3.org/2000/svg" xmlns:xlink="http://www.w3.org/1999/xlink" xmlns:a="http://ns.adobe.com/AdobeSVGViewerExtensions/3.0/"
	 x="0px" y="0px" width="95.84px" height="62.911px" viewBox="0 0 95.84 62.911" style="enable-background:new 0 0 95.84 62.911;"
	 xml:space="preserve">
<defs>
</defs>
<path d="M67.32,39.991v-8.28l0.72-17.64c0.36-4.68-1.08-7.561-4.68-8.64C52.2,2.55,23.4-0.33,9.721,0.031
	c-4.681,0-6.12,1.08-6.48,2.52L0,14.79c6.84,2.521,15.48,9,18.36,13.68l0.879,34.275l1.695,0.166L20.06,27.756
	c-3.6-4.68-12.6-10.439-19.8-12.96l2.88-11.16c0.36-1.08,1.439-2.16,5.76-2.16C21.5,1.117,46.699,3.996,57.5,6.516
	c3.239,1.08,4.319,3.601,3.96,7.561l-0.36,16.92v12.24L93.273,42.8c0.829-1.059,1.685-2.096,2.566-3.111L67.32,39.991z"/>
</svg>