<!-- Generator: Adobe Illustrator 21.1.0, SVG Export Plug-In  -->
<svg version="1.1"
	 xmlns="http://www.w3.org/2000/svg" xmlns:xlink="http://www.w3.org/1999/xlink" xmlns:a="http://ns.adobe.com/AdobeSVGViewerExtensions/3.0/"
	 x="0px" y="0px" width="313.232px" height="121.129px" viewBox="0 0 313.232 121.129"
	 style="enable-background:new 0 0 313.232 121.129;" xml:space="preserve">
<defs>
</defs>
<g>
	<g>
		<path d="M18.144,0.812c0.057-0.111,0.141-0.195,0.42-0.195c1.316,0.056,3.416,0.476,4.396,0.896
			c0.28,0.14,0.392,0.392,0.392,0.756L23.24,3.921v7.728c0,1.54-0.448,4.256-1.009,5.601h-1.876
			c-0.14-0.673-0.279-2.324-0.336-3.612c-1.035,0-2.323,0.028-2.884,0.084c-0.476,0.056-1.288,0.252-1.764,0.392
			c-0.868-0.42-1.596-0.979-2.212-1.567c-0.112-0.112-0.141-0.252-0.084-0.364l0.252-0.42c0.7,0.112,1.708,0.168,2.492,0.168
			c0.867,0.028,2.827,0,4.172-0.112V8.429c-0.924,0-1.933,0.056-2.38,0.112c-0.504,0.056-1.288,0.224-1.765,0.392
			c-0.504-0.252-0.952-0.532-1.372-0.84c-2.268,4.088-6.607,7.979-11.787,10.36c-0.196,0.111-0.337,0.111-0.421,0.027l-0.476-0.504
			c-0.112-0.14-0.14-0.252-0.028-0.392c4.761-3.248,8.316-7.616,9.94-11.62c-1.4,0-3.641,0.028-4.229,0.084
			c-0.56,0.028-1.624,0.224-2.239,0.42C4.396,6.104,3.444,5.433,2.828,4.845c-0.112-0.14-0.14-0.252-0.084-0.364l0.252-0.363
			c0.812,0.14,1.932,0.195,2.688,0.195c1.009,0.028,5.488-0.056,6.748-0.168l1.148-0.532c0.168-0.084,0.448-0.084,0.588,0
			c0.504,0.225,1.4,0.729,1.736,0.952c0.14,0.112,0.168,0.28,0.056,0.448l-0.504,0.98c-0.084,0.252-0.196,0.476-0.28,0.728
			c0.393,0.028,0.784,0.028,1.12,0.028c0.784,0.027,2.408,0,3.696-0.084V3.417c-0.364-0.616-1.232-1.232-2.185-1.597L18.144,0.812z
			 M22.988,22.064c0,3.36-2.828,5.433-6.301,5.433c-3.472,0-6.3-2.072-6.3-5.433c0-3.191,2.828-5.124,6.3-5.124
			C20.16,16.94,22.988,18.873,22.988,22.064z M19.712,22.064c0-1.904-1.316-2.968-3.024-2.968s-3.023,1.063-3.023,2.968
			c0,1.876,1.315,2.912,3.023,2.912S19.712,23.94,19.712,22.064z"/>
		<path d="M40.852,12.32c0,3.557-2.576,5.964-6.132,5.964c-3.584,0-6.16-2.407-6.16-5.964c0-3.5,2.576-5.88,6.16-5.88
			C38.275,6.44,40.852,8.82,40.852,12.32z M37.744,12.32c0-2.155-1.261-3.443-3.024-3.443s-3.023,1.288-3.023,3.443
			c0,2.156,1.26,3.416,3.023,3.416S37.744,14.477,37.744,12.32z M46.34,0.841c0.056-0.14,0.168-0.224,0.448-0.224
			c1.204,0.056,3.22,0.476,4.115,0.896c0.309,0.112,0.421,0.364,0.393,0.728l-0.084,1.54v16.969c0,1.792-0.42,5.124-1.064,6.972
			h-1.735c-0.196-1.008-0.336-4.732-0.336-6.021v-8.092l-2.324,0.057v5.796c0,1.68-0.364,4.788-0.98,6.468h-1.624
			c-0.224-1.092-0.363-4.34-0.363-5.572V5.068c-0.336-0.531-1.093-1.063-1.904-1.399l0.336-0.924
			c0.056-0.141,0.168-0.225,0.448-0.225c1.147,0.057,2.996,0.477,3.836,0.868c0.252,0.112,0.364,0.336,0.364,0.7l-0.112,1.399v6.188
			l2.324-0.056V3.305c-0.364-0.588-1.177-1.148-2.072-1.512L46.34,0.841z"/>
		<path d="M68.04,7.421c0.867,0.056,2.1,0.224,2.659,0.42c0.196,0.084,0.336,0.28,0.336,0.532c0,0.672-0.363,1.315-0.672,1.512
			c-0.504-0.084-1.96-0.084-2.632-0.084c-1.063-0.028-7.532,0.112-8.567,0.196c-0.589,0.027-1.624,0.224-2.156,0.392
			C56.14,9.94,55.216,9.213,54.6,8.568c-0.112-0.111-0.112-0.224-0.056-0.336l0.195-0.392c0.925,0.14,2.129,0.224,2.828,0.224
			c1.204,0.028,8.261-0.111,9.492-0.195L68.04,7.421z M69.104,16.24c0,3.08-2.8,4.956-5.992,4.956c-3.191,0-6.02-1.876-6.02-4.956
			c0-3.079,2.828-5.012,6.02-5.012C66.304,11.229,69.104,13.161,69.104,16.24z M58.716,3.276c2.576,0.448,5.32,0.561,7.14,0.532
			c0.336,0,0.504,0.056,0.645,0.309c0.224,0.42,0.168,1.455-0.168,1.792c-0.141,0.14-0.309,0.168-0.561,0.168
			c-1.231,0-3.443,0.084-4.647,0.168c-0.364,0.027-0.561,0-0.784-0.141c-0.588-0.42-1.372-1.315-1.849-2.1
			c-0.084-0.168-0.084-0.28-0.027-0.393L58.716,3.276z M66.023,16.24c0-1.876-1.344-2.911-2.912-2.911
			c-1.567,0-2.884,1.035-2.884,2.911c0,1.849,1.316,2.885,2.884,2.885C64.68,19.125,66.023,18.089,66.023,16.24z M77.979,12.404
			c0.812-0.027,2.016,0.028,2.521,0.141c0.336,0.084,0.56,0.336,0.588,0.644c0.056,0.616-0.112,1.232-0.336,1.456
			c-0.168,0.196-0.532,0.28-0.812,0.28l-4.396,0.112v5.487c0,1.849-0.393,5.292-1.064,7.196h-1.82
			c-0.195-1.036-0.336-4.872-0.336-6.188V3.444c-0.42-0.644-1.288-1.26-2.296-1.651l0.336-0.98c0.057-0.111,0.141-0.195,0.42-0.195
			c1.316,0.056,3.473,0.476,4.48,0.896c0.308,0.14,0.42,0.392,0.42,0.756l-0.14,1.708v9.101l1.54-0.085L77.979,12.404z"/>
		<path d="M103.711,13.581c1.176,0.056,2.855,0.308,3.556,0.56c0.28,0.084,0.476,0.308,0.476,0.645c0,0.699-0.476,1.344-0.84,1.512
			c-0.728-0.084-2.66-0.141-3.556-0.141c-1.933,0-13.524,0.112-15.176,0.225c-0.756,0.056-2.437,0.336-3.192,0.56
			c-1.12-0.42-2.352-1.231-3.136-1.987c-0.112-0.084-0.141-0.253-0.084-0.393l0.252-0.476c1.092,0.195,2.548,0.308,3.584,0.308
			c1.848,0.028,14.924-0.112,16.912-0.28L103.711,13.581z M87.246,4.761c-0.392-0.392-1.092-0.756-1.792-1.008l0.196-0.84
			c0.028-0.112,0.168-0.225,0.42-0.225c1.148,0,3.192,0.141,4.061,0.336c0.336,0.084,0.504,0.309,0.504,0.7l-0.057,1.484v3.668
			c0,0.504,0.196,0.728,0.7,0.728c1.876,0.028,6.216-0.056,7.952-0.14l1.092-0.588c0.924,0,2.269,0.111,2.884,0.252
			c0.309,0.084,0.505,0.279,0.505,0.588c0,0.756-0.253,1.315-0.448,1.484c-0.112,0.111-0.309,0.168-0.504,0.168l-12.628,0.14
			c-1.96,0-2.885-0.952-2.885-2.66V4.761z M100.379,23.885c0.951,0,2.352,0.112,2.995,0.252c0.309,0.084,0.505,0.308,0.505,0.588
			c0,0.812-0.252,1.372-0.448,1.568c-0.141,0.14-0.336,0.168-0.561,0.168l-12.46,0.111h-0.027c-1.876-0.027-2.632-0.867-2.632-2.548
			v-3.023c-0.477-0.364-1.232-0.784-1.96-1.009l0.224-0.812c0.028-0.14,0.14-0.252,0.392-0.252c1.177,0,3.248,0.14,4.145,0.336
			c0.308,0.084,0.476,0.308,0.476,0.7l-0.056,1.483v2.437c0,0.504,0.196,0.728,0.7,0.728c1.876,0.028,5.823-0.027,7.56-0.084
			L100.379,23.885z"/>
		<path d="M132.634,5.937c-1.819,4.844-6.859,9.66-12.936,12.404c-0.225,0.084-0.336,0.112-0.448,0.028l-0.504-0.532
			c-0.084-0.112-0.112-0.225,0.028-0.364c4.788-3.248,8.428-7.588,10.136-11.563c-1.428,0-3.696,0.056-4.312,0.111
			c-0.56,0.028-1.624,0.225-2.239,0.393c-0.84-0.364-1.792-1.036-2.408-1.624c-0.112-0.141-0.112-0.252-0.084-0.364l0.252-0.364
			c0.84,0.141,1.932,0.196,2.688,0.196c1.036,0.028,5.544-0.056,6.832-0.168l1.148-0.532c0.168-0.084,0.448-0.084,0.588,0
			c0.504,0.252,1.4,0.729,1.736,0.952c0.14,0.112,0.168,0.28,0.056,0.448L132.634,5.937z M137.87,17.249
			c0.168-0.084,0.392-0.084,0.56,0c0.448,0.195,1.316,0.588,1.624,0.812c0.112,0.084,0.141,0.224,0.084,0.42l-0.392,1.26
			c-0.14,1.513-0.392,3.248-0.729,4.761l0.589,0.279c0.168,0.112,0.252,0.252,0.252,0.477c0,0.616-0.225,1.204-0.504,1.428
			l-9.772,0.112c-0.112,0.336-0.308,0.616-0.56,0.896h-1.792c-0.225-0.476-0.393-1.176-0.448-1.792l-0.448-6.244
			c-0.336-0.392-0.979-0.783-1.596-1.035l0.224-0.868c0.028-0.112,0.141-0.168,0.336-0.168c1.092,0,3.136,0.168,4.284,0.308
			c1.596-0.028,5.432-0.084,7.056-0.168L137.87,17.249z M129.694,24.725c1.848,0,4.592-0.028,6.076-0.112l0.615-0.168l0.084-4.62
			c-2.155,0.028-4.76,0.084-6.832,0.141L129.694,24.725z M136.806,3.417c-0.363-0.616-1.231-1.232-2.184-1.597l0.336-1.008
			c0.056-0.111,0.14-0.195,0.42-0.195c1.316,0.056,3.416,0.476,4.396,0.896c0.279,0.14,0.392,0.392,0.392,0.756l-0.112,1.652v6.943
			c0,1.652-0.42,4.257-1.008,5.544h-1.876c-0.196-0.896-0.364-3.611-0.364-4.703V3.417z"/>
		<path d="M154.754,11.732c-2.296,2.296-5.124,4.368-8.232,5.853c-0.224,0.111-0.336,0.14-0.447,0.056l-0.477-0.476
			c-0.111-0.141-0.111-0.252,0-0.393c4.312-3.023,7.672-7.14,9.437-10.779c-1.372,0-3.36,0.027-3.948,0.084
			c-0.56,0.027-1.624,0.224-2.184,0.42c-0.868-0.42-1.792-1.093-2.437-1.708c-0.112-0.141-0.14-0.252-0.084-0.364l0.225-0.392
			c0.867,0.14,1.96,0.195,2.743,0.195c1.036,0,5.349-0.056,6.58-0.14l1.148-0.504c0.195-0.057,0.448-0.057,0.644,0
			c0.504,0.195,1.456,0.644,1.82,0.84c0.168,0.112,0.196,0.308,0.084,0.476l-0.672,1.036c-0.7,1.456-1.652,2.912-2.856,4.312
			l2.185,1.932l1.26,0.364c0.476,0.588,1.063,1.567,1.288,2.1c0.196,0.448,0.224,0.756,0.14,0.98
			c-0.196,0.476-0.924,0.756-1.399,0.588c-0.252-0.028-0.532-0.28-0.757-0.504L154.754,11.732z M166.906,22.373
			c0,3.164-2.828,5.235-6.328,5.235c-3.528,0-6.356-2.071-6.356-5.235c0-2.969,2.828-4.9,6.356-4.9
			C164.078,17.473,166.906,19.404,166.906,22.373z M163.63,22.373c0-1.708-1.316-2.744-3.052-2.744c-1.765,0-3.08,1.036-3.08,2.744
			s1.315,2.743,3.08,2.743C162.313,25.116,163.63,24.081,163.63,22.373z M162.062,0.812c0.057-0.111,0.141-0.195,0.42-0.195
			c1.316,0.056,3.416,0.476,4.396,0.896c0.28,0.14,0.392,0.392,0.392,0.756l-0.111,1.652v8.12c0,1.54-0.448,4.256-1.009,5.628
			h-1.876c-0.195-0.924-0.363-3.696-0.363-4.816v-2.38c-0.7,0.028-1.4,0.084-1.736,0.112c-0.448,0.056-1.231,0.252-1.708,0.476
			c-0.756-0.504-1.456-1.12-2.016-1.708c-0.112-0.112-0.141-0.252-0.057-0.364l0.252-0.392c0.645,0.084,1.54,0.14,2.269,0.14
			c0.672,0,1.932-0.027,2.996-0.084V3.417c-0.364-0.616-1.232-1.232-2.185-1.597L162.062,0.812z"/>
		<path d="M193.534,14.001c1.176,0.056,2.855,0.308,3.556,0.56c0.28,0.084,0.476,0.309,0.476,0.645c0,0.699-0.476,1.344-0.84,1.512
			c-0.728-0.084-2.66-0.141-3.556-0.141c-1.933,0-13.524,0.112-15.176,0.225c-0.757,0.056-2.437,0.336-3.192,0.56
			c-1.12-0.42-2.352-1.231-3.136-1.987c-0.112-0.084-0.141-0.252-0.084-0.393l0.252-0.476c1.092,0.195,2.548,0.308,3.584,0.308
			c1.848,0.028,14.924-0.112,16.912-0.28L193.534,14.001z M190.006,24.165c0.952-0.028,2.324,0.111,2.996,0.224
			c0.279,0.084,0.504,0.28,0.504,0.588c0,0.784-0.28,1.344-0.477,1.54c-0.111,0.112-0.308,0.168-0.531,0.168l-12.181,0.084
			c-1.96,0-2.716-0.84-2.716-2.52v-3.108c-0.476-0.364-1.231-0.756-1.96-0.98l0.225-0.84c0.027-0.14,0.14-0.252,0.392-0.252
			c1.176,0,3.248,0.141,4.144,0.336c0.309,0.084,0.477,0.309,0.477,0.7l-0.057,1.484v2.548c0,0.504,0.196,0.728,0.7,0.728
			c1.82,0.028,5.712-0.027,7.364-0.084L190.006,24.165z M177.658,7.701c0-3.08,2.827-5.349,6.832-5.349
			c4.031,0,6.859,2.269,6.859,5.349c0,3.052-2.828,5.319-6.859,5.319C180.485,13.021,177.658,10.753,177.658,7.701z M180.906,7.701
			c0,1.987,1.512,3.247,3.584,3.247c2.1,0,3.584-1.26,3.584-3.247c0-2.017-1.484-3.305-3.584-3.305
			C182.418,4.396,180.906,5.685,180.906,7.701z"/>
		<path d="M220.582,13.553c1.176,0.056,2.855,0.308,3.556,0.56c0.28,0.084,0.476,0.309,0.476,0.645c0,0.7-0.476,1.315-0.84,1.512
			c-0.728-0.084-2.66-0.14-3.556-0.14c-1.933-0.028-13.524,0.111-15.176,0.224c-0.756,0.056-2.437,0.336-3.192,0.561
			c-1.12-0.421-2.352-1.232-3.136-1.988c-0.112-0.112-0.141-0.252-0.084-0.393l0.252-0.476c1.092,0.196,2.548,0.308,3.584,0.308
			c0.868,0,4.144,0,7.616-0.056v-2.855l-3.137,0.056c-2.1,0.056-2.939-0.84-2.939-2.492v-4.2c-0.42-0.42-1.064-0.812-1.82-1.063
			l0.224-0.868c0.057-0.112,0.141-0.196,0.309-0.196c1.092,0,3.668,0.112,4.62,0.28c1.876,0.028,6.748-0.056,8.26-0.14l0.896-0.477
			c0.896,0,2.213,0.084,2.912,0.225c0.309,0.084,0.504,0.308,0.504,0.56c0,0.672-0.195,1.148-0.392,1.372
			c-0.14,0.14-0.308,0.168-0.56,0.168l-11.677,0.196v4.06c0,0.476,0.196,0.7,0.673,0.7c1.792,0,6.355-0.056,8.063-0.168l0.812-0.42
			c0.925,0,2.269,0.084,2.912,0.224c0.309,0.056,0.504,0.28,0.504,0.561c0,0.615-0.252,1.119-0.447,1.287
			c-0.112,0.112-0.28,0.169-0.504,0.169l-6.021,0.111v2.856c2.856-0.028,5.32-0.112,6.104-0.168L220.582,13.553z M217.894,22.736
			c0,3.024-2.828,5.068-6.355,5.068c-3.528,0-6.328-2.044-6.328-5.068c0-2.8,2.8-4.704,6.328-4.704
			C215.065,18.032,217.894,19.937,217.894,22.736z M214.617,22.736c0-1.651-1.315-2.66-3.079-2.66c-1.736,0-3.08,1.009-3.08,2.66
			c0,1.652,1.344,2.632,3.08,2.632C213.302,25.368,214.617,24.389,214.617,22.736z"/>
		<path d="M241.386,15.933c0.476,0.7,1.063,1.792,1.315,2.408c0.196,0.504,0.225,0.868,0.112,1.092
			c-0.224,0.504-0.952,0.756-1.428,0.56c-0.252-0.084-0.588-0.363-0.812-0.615l-4.536-4.816c-2.239,2.521-5.067,4.816-8.176,6.552
			c-0.196,0.112-0.336,0.112-0.42,0.057l-0.56-0.477c-0.112-0.111-0.141-0.224,0.027-0.392c4.564-3.64,8.093-8.456,9.716-12.684
			c-1.483-0.028-3.64,0-4.256,0.056c-0.588,0.028-1.651,0.224-2.212,0.42c-0.868-0.392-1.792-1.064-2.436-1.68
			c-0.112-0.112-0.141-0.225-0.084-0.336l0.224-0.393c0.868,0.112,1.96,0.168,2.744,0.168c1.092,0,5.684-0.056,6.972-0.112
			l1.177-0.504c0.168-0.056,0.447-0.056,0.615,0c0.504,0.196,1.513,0.645,1.876,0.868c0.168,0.084,0.168,0.28,0.028,0.448
			l-0.644,0.979c-0.757,1.82-1.849,3.641-3.221,5.404l2.632,2.492L241.386,15.933z M243.01,0.812c0.056-0.111,0.14-0.195,0.42-0.195
			c1.315,0.056,3.472,0.476,4.479,0.896c0.309,0.14,0.42,0.392,0.393,0.756l-0.112,1.708v16.548c0,1.849-0.392,5.292-1.064,7.196
			h-1.819c-0.196-1.036-0.336-4.872-0.336-6.188V3.444c-0.42-0.644-1.288-1.26-2.296-1.651L243.01,0.812z"/>
		<path d="M267.285,2.829c0.056-0.112,0.196-0.225,0.477-0.196c1.092,0.056,2.855,0.448,3.668,0.84
			c0.252,0.112,0.363,0.336,0.363,0.7l-0.084,1.344v14.028c0,1.708-0.392,4.76-0.979,6.412h-1.596
			c-0.225-1.093-0.364-4.312-0.364-5.517v-6.748c-0.448,0.028-0.896,0.057-1.12,0.084c-0.448,0.057-1.12,0.196-1.596,0.364
			c-0.336-0.224-0.673-0.476-0.98-0.7c-1.372,3.08-3.5,6.132-6.02,8.316c-0.168,0.168-0.309,0.196-0.42,0.168l-0.505-0.364
			c-0.14-0.084-0.195-0.196-0.111-0.392c2.968-3.752,4.956-9.101,5.46-13.188c-0.364,0-0.784-0.027-0.952,0
			c-0.308,0-0.924,0.112-1.232,0.225l-0.252-0.168c-0.672,4.004-3.556,8.903-7.224,11.871c-0.168,0.141-0.308,0.196-0.392,0.141
			l-0.477-0.336c-0.112-0.084-0.168-0.168-0.112-0.336c2.801-3.305,4.732-8.036,5.292-11.648c-0.531,0-1.147-0.027-1.371,0
			c-0.393,0.028-1.148,0.141-1.513,0.28c-0.56-0.364-1.147-0.896-1.54-1.344c-0.111-0.141-0.111-0.252-0.084-0.336l0.252-0.336
			c0.504,0.084,1.148,0.14,1.624,0.14c0.561,0,2.464-0.028,3.192-0.084l1.008-0.561c0.168-0.056,0.42-0.056,0.561,0
			c0.308,0.168,0.896,0.561,1.203,0.784h0.028c0.477,0,1.932-0.027,2.548-0.056l1.064-0.532c0.168-0.056,0.42-0.056,0.56,0
			c0.336,0.225,0.98,0.672,1.232,0.868c0.111,0.14,0.111,0.28,0.056,0.42l-0.336,0.98c-0.14,1.26-0.448,2.632-0.952,4.004h0.84
			c0.588,0,1.513-0.028,2.269-0.057V5.097c-0.309-0.504-1.036-1.008-1.82-1.316L267.285,2.829z M271.766,0.841
			c0.084-0.14,0.195-0.224,0.447-0.224c1.177,0.056,3.108,0.476,4.004,0.867c0.253,0.141,0.393,0.364,0.364,0.7l-0.111,1.512V20.86
			c0,1.792-0.364,5.04-0.98,6.86h-1.652c-0.195-1.12-0.363-4.62-0.363-5.908V3.249c-0.364-0.588-1.148-1.148-2.017-1.484
			L271.766,0.841z"/>
		<path d="M293.688,15.345c0.447,0.756,1.008,1.932,1.231,2.548c0.168,0.532,0.196,0.896,0.057,1.148
			c-0.309,0.504-1.093,0.756-1.54,0.56c-0.252-0.14-0.561-0.448-0.784-0.728l-4.368-5.517c-1.736,2.464-4.088,4.816-6.972,6.72
			c-0.168,0.084-0.28,0.084-0.42,0l-0.561-0.447c-0.084-0.112-0.084-0.225,0.057-0.364c3.863-3.836,6.468-8.456,7.195-12.516
			c-0.279-0.532-0.952-1.177-1.651-1.568l0.42-0.84c0.084-0.14,0.195-0.168,0.42-0.14c1.204,0.14,3.304,0.728,4.088,1.147
			c0.28,0.168,0.476,0.42,0.476,0.672c0,0.28-0.027,0.561-0.084,0.756c-0.308,1.54-0.924,3.164-1.819,4.761l2.659,3.079
			L293.688,15.345z M297.188,0.812c0.027-0.111,0.111-0.195,0.392-0.195c1.316,0.056,3.5,0.476,4.48,0.896
			c0.308,0.14,0.447,0.392,0.42,0.756l-0.112,1.708v16.548c0,1.849-0.42,5.292-1.092,7.196h-1.82
			c-0.196-1.036-0.336-4.872-0.336-6.188v-9.128c-0.84,0.028-1.792,0.084-2.212,0.141c-0.448,0.056-1.4,0.279-1.848,0.504
			c-0.98-0.504-1.792-1.148-2.464-1.82c-0.141-0.112-0.169-0.224-0.085-0.364l0.225-0.42c0.756,0.141,1.932,0.196,2.744,0.196
			c0.784,0,2.436-0.028,3.64-0.112V3.444c-0.42-0.644-1.288-1.26-2.268-1.651L297.188,0.812z"/>
		<path d="M13.02,48.889c0.393,0.756,0.868,1.876,1.064,2.491c0.168,0.504,0.168,0.841,0.056,1.064
			c-0.279,0.42-1.008,0.644-1.428,0.448c-0.224-0.112-0.504-0.42-0.728-0.7l-3.641-4.648c-1.512,2.212-3.556,4.34-6.076,6.132
			C2.1,53.816,1.96,53.816,1.82,53.704L1.26,53.2c-0.111-0.084-0.111-0.224,0.028-0.364c3.36-3.668,5.6-7.951,6.188-11.704
			c-0.224-0.447-0.84-1.008-1.483-1.344L6.44,38.92c0.056-0.111,0.168-0.168,0.42-0.14c1.203,0.14,3.08,0.644,3.808,1.064
			c0.308,0.14,0.476,0.363,0.476,0.644c0.028,0.28,0,0.56-0.056,0.729c-0.28,1.455-0.812,2.995-1.624,4.508l2.324,2.66L13.02,48.889
			z M19.32,34.44c0.056-0.14,0.168-0.224,0.447-0.224c1.204,0.056,3.192,0.476,4.116,0.896c0.28,0.112,0.42,0.364,0.393,0.728
			l-0.112,1.54v16.969c0,1.792-0.393,5.124-1.036,6.972h-1.736c-0.195-1.008-0.363-4.732-0.363-6.021V47.32l-2.576,0.056v5.656
			c0,1.708-0.393,4.788-0.98,6.468h-1.624c-0.224-1.092-0.363-4.34-0.363-5.571V38.641c-0.337-0.532-1.093-1.064-1.904-1.4
			l0.336-0.952c0.056-0.111,0.168-0.195,0.448-0.195c1.147,0.056,2.996,0.447,3.836,0.867c0.252,0.112,0.363,0.336,0.363,0.673
			l-0.111,1.428v6.3l2.576-0.056v-8.4c-0.336-0.588-1.177-1.148-2.044-1.512L19.32,34.44z"/>
		<path d="M49.616,54.32c1.176,0.056,2.855,0.308,3.556,0.56c0.28,0.084,0.476,0.309,0.476,0.645c0,0.7-0.476,1.344-0.84,1.512
			c-0.728-0.084-2.66-0.14-3.556-0.14c-1.933,0-13.524,0.111-15.176,0.224c-0.757,0.056-2.437,0.336-3.192,0.561
			c-1.12-0.421-2.352-1.232-3.136-1.988c-0.112-0.084-0.141-0.252-0.084-0.393l0.252-0.476c1.092,0.196,2.548,0.308,3.584,0.308
			c0.868,0,4.144,0,7.616-0.056v-4.479l-3.78,0.056c-1.736-0.028-2.437-0.812-2.437-2.38v-3.444c-0.392-0.392-0.979-0.7-1.624-0.896
			l0.141-0.756c0.027-0.112,0.14-0.196,0.336-0.196c1.036,0,3.556,0.056,4.508,0.14c1.988,0.028,6.72-0.056,8.036-0.14l0.644-0.141
			c0.084-0.783,0.112-2.632,0.057-3.331c-1.96-0.028-7.084,0.027-8.177,0.111c-0.672,0.028-1.848,0.196-2.604,0.393
			c-0.98-0.477-1.904-1.177-2.604-1.876c-0.141-0.112-0.169-0.225-0.084-0.364l0.224-0.448c0.868,0.168,2.268,0.28,2.996,0.28
			c1.512,0,8.987-0.057,10.611-0.141l1.232-0.531c0.168-0.084,0.364-0.084,0.588,0c0.42,0.168,1.372,0.588,1.708,0.784
			c0.168,0.111,0.196,0.279,0.084,0.504l-0.448,1.119c-0.111,1.009-0.476,2.688-0.756,3.528l0.616,0.309
			c0.14,0.084,0.196,0.224,0.196,0.363c0,0.532-0.196,1.064-0.393,1.261l-11.983,0.195v3.052c0,0.421,0.168,0.645,0.615,0.645
			c2.269,0.028,7.168-0.056,9.045-0.168l0.812-0.477c0.924-0.027,2.268,0.084,2.912,0.225c0.308,0.084,0.504,0.28,0.504,0.588
			c0,0.7-0.252,1.204-0.42,1.4c-0.14,0.111-0.336,0.168-0.532,0.168l-6.832,0.111v4.48c2.856-0.028,5.32-0.112,6.104-0.168
			L49.616,54.32z"/>
		<path d="M85.344,54.208c1.176,0.057,2.855,0.309,3.556,0.561c0.28,0.084,0.476,0.308,0.476,0.644c0,0.7-0.476,1.344-0.84,1.512
			c-0.728-0.084-2.66-0.14-3.556-0.14c-1.933,0-13.524,0.112-15.176,0.224c-0.756,0.057-2.437,0.336-3.192,0.561
			c-1.12-0.42-2.352-1.232-3.136-1.988c-0.112-0.084-0.141-0.252-0.084-0.392l0.252-0.477c1.092,0.196,2.548,0.309,3.584,0.309
			c0.868,0,4.284,0,7.84-0.057l-0.028-3.92c-0.308-0.392-1.036-0.868-1.68-1.063l0.196-0.896c0.027-0.084,0.084-0.168,0.42-0.168
			c0.979,0,3.275,0.196,4.031,0.42c0.309,0.084,0.421,0.28,0.393,0.588l-0.168,1.624l-0.084,3.36c2.8-0.056,5.236-0.112,5.992-0.168
			L85.344,54.208z M65.295,49.561c-0.111-0.141-0.111-0.28,0.112-0.364c5.712-2.632,10.416-5.824,13.3-9.296
			c-2.212,0-5.348,0.056-6.244,0.112c-0.699,0.027-1.96,0.252-2.659,0.476c-1.009-0.42-2.101-1.092-2.828-1.764
			c-0.141-0.141-0.168-0.252-0.084-0.393l0.224-0.447c1.008,0.14,2.324,0.224,3.248,0.224c1.456,0.028,8.26-0.084,9.856-0.168
			l1.371-0.561c0.169-0.056,0.448-0.056,0.673,0c0.56,0.225,1.624,0.645,2.044,0.868c0.168,0.112,0.168,0.309,0.027,0.477
			l-1.008,1.063c-1.344,1.624-2.996,3.136-4.899,4.508l3.92,1.345l1.932,0.111c0.756,0.336,1.792,0.98,2.268,1.372
			c0.421,0.309,0.616,0.616,0.616,0.896c0.028,0.504-0.504,1.036-1.036,1.092c-0.308,0.056-0.699-0.028-1.063-0.168l-8.624-3.304
			c-3.052,1.876-6.58,3.416-10.332,4.508c-0.224,0.056-0.364,0.027-0.42-0.057L65.295,49.561z"/>
		<path d="M101.079,45.389c-2.324,2.296-5.18,4.367-8.315,5.852c-0.168,0.084-0.337,0.112-0.421,0.028l-0.476-0.477
			c-0.112-0.111-0.14-0.224,0-0.363c4.396-3.053,7.84-7.141,9.632-10.809c-1.456-0.027-3.556,0-4.144,0.057
			c-0.588,0.027-1.597,0.224-2.185,0.447c-0.867-0.42-1.792-1.12-2.436-1.735c-0.112-0.141-0.14-0.252-0.084-0.364l0.224-0.392
			c0.868,0.14,1.96,0.195,2.772,0.195c1.008,0,5.403-0.056,6.748-0.111l1.176-0.505c0.196-0.056,0.448-0.056,0.644,0
			c0.504,0.196,1.456,0.616,1.82,0.841c0.168,0.084,0.196,0.279,0.084,0.447l-0.672,1.036c-0.756,1.484-1.764,2.968-3.024,4.396
			l2.548,2.1l1.288,0.336c0.448,0.588,1.064,1.54,1.345,2.072c0.195,0.42,0.252,0.728,0.14,0.952
			c-0.168,0.476-0.868,0.756-1.372,0.615c-0.224-0.056-0.532-0.279-0.784-0.504L101.079,45.389z M110.963,51.521
			c0.141-0.057,0.393-0.057,0.532,0c0.476,0.195,1.316,0.672,1.624,0.896c0.112,0.112,0.112,0.225,0.056,0.42l-0.363,1.177
			l-0.084,3.22c0,1.315-0.393,3.332-0.896,4.34h-1.932c-0.225-0.812-0.336-2.632-0.336-3.584v-4.032
			c-2.24-0.027-6.692,0.057-7.784,0.141c-0.756,0.027-2.016,0.252-2.744,0.476c-1.036-0.392-2.072-1.064-2.8-1.708
			c-0.141-0.14-0.168-0.252-0.112-0.392l0.252-0.477c1.008,0.141,2.296,0.225,3.192,0.225c1.344,0,8.567-0.141,10.388-0.28
			L110.963,51.521z M109.731,37.017c-0.393-0.616-1.261-1.232-2.212-1.597l0.336-1.008c0.056-0.111,0.14-0.195,0.42-0.195
			c1.315,0.056,3.416,0.476,4.396,0.896c0.28,0.14,0.42,0.392,0.393,0.756l-0.112,1.652v7.728c0,1.624-0.42,4.256-1.008,5.517
			h-1.876c-0.196-0.868-0.336-3.584-0.336-4.677V37.017z"/>
		<path d="M137.17,54.433c-0.168-0.812-0.28-2.912-0.308-4.509c-3.416,0.784-9.744,1.652-13.244,1.904
			c-0.645,0.028-1.848,0.309-2.464,0.532c-1.008-0.532-2.185-1.344-2.996-2.128c-0.112-0.112-0.14-0.196-0.084-0.364l0.224-0.476
			c1.036,0.195,2.353,0.252,3.389,0.224c1.231-0.028,2.771-0.084,4.424-0.196v-3.191l-1.849,0.056
			c-2.1,0.056-2.968-0.812-2.968-2.408v-4.312c-0.364-0.448-0.952-0.868-1.624-1.12l0.196-0.868c0.056-0.084,0.14-0.168,0.336-0.168
			c1.036,0,3.416,0.14,4.34,0.336c1.372,0,4.732-0.111,5.656-0.196l0.812-0.363c0.729,0,1.876,0.084,2.464,0.195
			c0.309,0.057,0.448,0.225,0.448,0.477c0,0.616-0.168,1.092-0.364,1.288c-0.14,0.14-0.279,0.168-0.476,0.168l-8.596,0.168v4.312
			c0,0.477,0.195,0.7,0.672,0.7c1.204,0,4.284-0.112,5.32-0.196l0.756-0.392c0.783-0.028,1.96,0.028,2.52,0.168
			c0.309,0.028,0.477,0.252,0.477,0.532c0,0.588-0.225,1.036-0.421,1.231c-0.084,0.112-0.252,0.168-0.447,0.168l-4.229,0.141v3.052
			c2.94-0.224,5.853-0.56,7.7-0.924V37.017c-0.392-0.616-1.232-1.232-2.184-1.597l0.336-1.008c0.027-0.111,0.14-0.195,0.42-0.195
			c1.288,0.056,3.388,0.476,4.368,0.896c0.279,0.14,0.42,0.392,0.392,0.756l-0.084,1.652v10.164c0,2.184-0.42,5.124-1.064,6.748
			H137.17z M138.206,57.933c0.952-0.028,2.324,0.084,2.968,0.252c0.309,0.056,0.504,0.279,0.504,0.56c0,0.812-0.224,1.344-0.42,1.54
			c-0.14,0.112-0.336,0.168-0.532,0.168l-12.123,0.112c-2.101,0-2.94-0.84-2.94-2.521v-2.548c-0.448-0.392-1.204-0.784-1.932-1.036
			l0.195-0.84c0.028-0.14,0.168-0.252,0.42-0.252c1.177,0,3.276,0.168,4.173,0.364c0.336,0.084,0.504,0.28,0.504,0.672l-0.057,1.484
			v2.071c0,0.477,0.196,0.7,0.672,0.7c1.708,0.028,5.769-0.028,7.448-0.084L138.206,57.933z"/>
		<path d="M166.066,48.3c0,7.337-3.332,10.389-6.916,10.389c-3.64,0-6.916-3.052-6.916-10.389c0-7.42,3.276-10.472,6.916-10.472
			C162.734,37.828,166.066,40.88,166.066,48.3z M159.15,57.652c1.736,0,3.332-2.016,3.332-9.353c0-7.42-1.596-9.464-3.332-9.464
			c-1.792,0-3.36,2.017-3.36,9.464C155.79,55.637,157.358,57.652,159.15,57.652z"/>
		<path d="M182.418,48.3c0,7.337-3.332,10.389-6.916,10.389c-3.64,0-6.916-3.052-6.916-10.389c0-7.42,3.276-10.472,6.916-10.472
			C179.086,37.828,182.418,40.88,182.418,48.3z M175.502,57.652c1.736,0,3.332-2.016,3.332-9.353c0-7.42-1.596-9.464-3.332-9.464
			c-1.792,0-3.36,2.017-3.36,9.464C172.142,55.637,173.71,57.652,175.502,57.652z"/>
		<path d="M198.771,48.3c0,7.337-3.332,10.389-6.916,10.389c-3.64,0-6.916-3.052-6.916-10.389c0-7.42,3.276-10.472,6.916-10.472
			C195.438,37.828,198.771,40.88,198.771,48.3z M191.854,57.652c1.736,0,3.332-2.016,3.332-9.353c0-7.42-1.596-9.464-3.332-9.464
			c-1.792,0-3.36,2.017-3.36,9.464C188.494,55.637,190.062,57.652,191.854,57.652z"/>
		<path d="M215.122,48.3c0,7.337-3.332,10.389-6.916,10.389c-3.64,0-6.916-3.052-6.916-10.389c0-7.42,3.276-10.472,6.916-10.472
			C211.79,37.828,215.122,40.88,215.122,48.3z M208.206,57.652c1.736,0,3.332-2.016,3.332-9.353c0-7.42-1.596-9.464-3.332-9.464
			c-1.792,0-3.36,2.017-3.36,9.464C204.846,55.637,206.414,57.652,208.206,57.652z"/>
		<path d="M231.475,48.3c0,7.337-3.332,10.389-6.916,10.389c-3.64,0-6.916-3.052-6.916-10.389c0-7.42,3.276-10.472,6.916-10.472
			C228.143,37.828,231.475,40.88,231.475,48.3z M224.559,57.652c1.736,0,3.332-2.016,3.332-9.353c0-7.42-1.596-9.464-3.332-9.464
			c-1.792,0-3.36,2.017-3.36,9.464C221.198,55.637,222.767,57.652,224.559,57.652z"/>
		<path d="M250.682,34.412c0.057-0.111,0.141-0.195,0.42-0.195c1.316,0.056,3.473,0.476,4.48,0.896
			c0.308,0.14,0.42,0.392,0.42,0.756l-0.14,1.708v16.548c0,1.849-0.393,5.292-1.064,7.196h-1.82
			c-0.195-1.036-0.336-4.872-0.336-6.188v-2.296c-3.388,0.784-9.632,1.652-13.075,1.849c-0.673,0.056-1.933,0.308-2.549,0.56
			c-1.063-0.504-2.323-1.399-3.191-2.184c-0.112-0.141-0.14-0.225-0.084-0.364l0.224-0.476c1.12,0.168,2.521,0.252,3.612,0.224
			c4.088-0.084,11.62-0.729,15.063-1.4v-14c-0.42-0.644-1.288-1.26-2.268-1.651L250.682,34.412z M236.234,43.54
			c0-3.164,2.688-5.487,6.412-5.487c3.752,0,6.468,2.323,6.468,5.487c0,3.221-2.716,5.544-6.468,5.544
			C238.922,49.084,236.234,46.761,236.234,43.54z M239.482,43.54c0,1.876,1.315,3.108,3.164,3.108c1.876,0,3.191-1.232,3.191-3.108
			c0-1.903-1.315-3.136-3.191-3.136C240.798,40.404,239.482,41.637,239.482,43.54z"/>
		<path d="M15.568,82.321c0.476,0.728,1.119,1.848,1.371,2.464c0.196,0.56,0.196,0.896,0.085,1.147
			c-0.253,0.532-1.036,0.784-1.513,0.588c-0.252-0.084-0.56-0.392-0.812-0.644l-4.816-5.544c-1.764,2.576-4.2,5.04-7.195,7.028
			c-0.169,0.111-0.28,0.111-0.421,0.027l-0.56-0.476c-0.084-0.084-0.084-0.196,0.056-0.364c3.864-3.808,6.469-8.456,7.196-12.516
			c-0.28-0.532-0.952-1.177-1.652-1.568l0.42-0.84c0.084-0.112,0.196-0.168,0.421-0.14c1.203,0.14,3.304,0.728,4.088,1.176
			c0.279,0.14,0.476,0.392,0.476,0.644c0,0.28-0.028,0.561-0.084,0.756c-0.28,1.456-0.84,2.969-1.652,4.452l2.996,3.164
			L15.568,82.321z M17.92,68.013c0.056-0.111,0.14-0.195,0.42-0.195c1.316,0.056,3.5,0.476,4.48,0.896
			c0.308,0.14,0.42,0.392,0.42,0.756l-0.112,1.708v16.548c0,1.849-0.42,5.292-1.092,7.196h-1.82
			c-0.196-1.036-0.336-4.872-0.336-6.188V70.645c-0.42-0.644-1.288-1.26-2.268-1.651L17.92,68.013z"/>
		<path d="M45.191,68.013c0.028-0.111,0.141-0.195,0.42-0.195c1.288,0.056,3.416,0.476,4.368,0.896
			c0.309,0.14,0.42,0.392,0.393,0.756l-0.084,1.652v7.224c0,1.624-0.448,4.256-1.009,5.517h-1.876
			c-0.224-0.868-0.363-3.584-0.363-4.677v-1.96c-0.756,0-1.54,0.028-1.904,0.084c-0.448,0.057-1.26,0.252-1.708,0.42
			c-0.364-0.195-0.7-0.392-1.008-0.615v0.615c0,0.925-0.168,2.072-0.364,2.744l0.561,0.225c0.14,0.027,0.224,0.14,0.224,0.336
			c0,0.531-0.168,1.063-0.364,1.26c-2.044-0.028-6.859,0.028-9.128,0.084c-0.168,0.56-0.448,0.924-0.7,1.147h-1.735
			c-0.252-0.588-0.393-1.483-0.393-2.044l-0.168-8.119c-0.279-0.364-0.979-0.812-1.596-1.009l0.224-0.84
			c0.028-0.111,0.141-0.168,0.448-0.168c1.008-0.027,3.052,0.168,3.836,0.393c0.252,0.056,0.393,0.252,0.364,0.588l-0.056,1.288
			v1.344l5.739-0.084v-2.744c-0.308-0.42-0.952-0.868-1.596-1.12l0.308-0.84c0.057-0.14,0.141-0.196,0.448-0.196
			c1.008,0.057,2.996,0.393,3.752,0.7c0.309,0.112,0.393,0.28,0.364,0.588l-0.084,1.484l-0.056,2.744
			c0.476,0.027,0.951,0.056,1.371,0.056c0.729,0.028,2.101-0.028,3.221-0.084v-4.844c-0.393-0.616-1.232-1.232-2.185-1.597
			L45.191,68.013z M33.544,76.833l-0.028,3.612l5.796-0.057v-3.611L33.544,76.833z M48.02,84.673c0.168-0.084,0.42-0.084,0.588,0
			c0.448,0.168,1.288,0.588,1.597,0.784c0.14,0.111,0.168,0.252,0.084,0.448l-0.393,1.231c-0.111,1.428-0.363,2.968-0.7,4.34
			l0.561,0.309c0.168,0.111,0.28,0.279,0.28,0.476c0,0.645-0.252,1.204-0.504,1.456l-10.305,0.084
			c-0.111,0.364-0.279,0.644-0.56,0.924h-1.765c-0.252-0.476-0.42-1.176-0.476-1.792l-0.448-5.852
			c-0.336-0.393-0.979-0.812-1.596-1.036l0.252-0.868c0.028-0.112,0.112-0.168,0.308-0.168c1.12,0,3.137,0.14,4.284,0.308
			c1.708-0.027,5.908-0.084,7.588-0.195L48.02,84.673z M39.368,91.729c1.932,0.028,4.928-0.027,6.58-0.111l0.588-0.141l0.084-4.228
			c-2.269,0-5.097,0.084-7.309,0.14L39.368,91.729z"/>
		<path d="M76.664,80.165c1.176,0.028,2.855,0.28,3.556,0.532c0.28,0.111,0.476,0.336,0.476,0.644c0,0.7-0.476,1.344-0.84,1.512
			c-0.728-0.084-2.66-0.14-3.556-0.14c-1.933,0-13.524,0.112-15.176,0.224c-0.756,0.057-2.437,0.364-3.192,0.588
			c-1.12-0.447-2.352-1.26-3.136-2.016c-0.112-0.084-0.141-0.252-0.084-0.364l0.252-0.504c1.092,0.196,2.548,0.309,3.584,0.336
			c0.812,0,3.78,0,7.027-0.056l-0.027-3.444c-0.309-0.363-1.008-0.812-1.624-1.036l0.224-0.867c0.028-0.112,0.112-0.196,0.42-0.196
			c1.008,0,3.164,0.224,3.948,0.448c0.308,0.084,0.392,0.279,0.364,0.588l-0.168,1.596l-0.057,2.856
			c3.108-0.057,5.964-0.112,6.805-0.168L76.664,80.165z M72.436,78.569c-0.168-0.057-0.252-0.169-0.224-0.505
			c0.308-1.567,0.42-4.228,0.336-5.936c-2.296-0.028-6.944,0.028-8.176,0.112c-0.757,0.056-2.072,0.279-2.801,0.504
			c-1.008-0.448-2.1-1.176-2.8-1.876c-0.168-0.141-0.196-0.252-0.111-0.393l0.224-0.476c1.008,0.168,2.324,0.28,3.248,0.28
			c1.512,0,8.903-0.084,10.724-0.168l1.316-0.561c0.168-0.084,0.392-0.084,0.588,0c0.476,0.196,1.456,0.645,1.82,0.896
			c0.14,0.084,0.168,0.224,0.056,0.42l-0.532,1.26c-0.196,2.044-1.092,4.732-2.072,6.384c-0.14,0.196-0.336,0.28-0.531,0.28
			L72.436,78.569z M74.088,89.797c0,3.136-2.856,5.18-6.44,5.18s-6.439-2.044-6.439-5.18c0-2.94,2.855-4.872,6.439-4.872
			S74.088,86.856,74.088,89.797z M70.812,89.797c0-1.764-1.372-2.8-3.164-2.8c-1.819,0-3.191,1.036-3.191,2.8
			c0,1.736,1.372,2.8,3.191,2.8C69.439,92.597,70.812,91.533,70.812,89.797z"/>
		<path d="M101.162,81.033c-0.84,0-1.764,0.056-2.184,0.111c-0.476,0.057-1.232,0.196-1.736,0.364
			c-0.615-0.336-1.176-0.756-1.624-1.176c-1.092,1.708-3.107,2.771-5.571,2.771c-3.809,0-6.496-2.464-6.496-5.964
			c0-3.472,2.688-5.88,6.496-5.88c3.779,0,6.468,2.408,6.468,5.88c0,0.756-0.141,1.484-0.364,2.128
			c0.504,0.028,1.064,0.057,1.54,0.057c0.729,0,2.268-0.028,3.472-0.084v-4.284c-0.56,0-1.092,0.056-1.372,0.084
			c-0.476,0.056-1.231,0.196-1.735,0.364c-0.812-0.448-1.484-1.009-2.044-1.568c-0.112-0.14-0.141-0.252-0.084-0.364l0.252-0.392
			c0.672,0.084,1.596,0.14,2.324,0.14c0.588,0,1.651-0.027,2.659-0.056v-2.548c-0.392-0.616-1.26-1.232-2.212-1.597l0.336-1.008
			c0.057-0.111,0.141-0.195,0.42-0.195c1.316,0.056,3.416,0.476,4.396,0.896c0.28,0.14,0.42,0.392,0.392,0.756l-0.111,1.652v9.996
			c0,2.184-0.393,5.124-1.036,6.775h-1.849c-0.224-1.063-0.336-4.424-0.336-5.796V81.033z M90.047,80.697
			c1.932,0,3.304-1.345,3.304-3.557s-1.372-3.584-3.304-3.584c-1.96,0-3.332,1.372-3.332,3.584S88.087,80.697,90.047,80.697z
			 M102.73,91.393c0.952-0.027,2.324,0.084,2.968,0.252c0.336,0.057,0.532,0.28,0.532,0.561c0,0.784-0.28,1.344-0.476,1.54
			c-0.112,0.111-0.309,0.168-0.532,0.168l-11.844,0.111h-0.028c-2.1-0.027-2.912-0.867-2.912-2.548v-3.5
			c-0.448-0.392-1.204-0.784-1.932-1.036l0.195-0.84c0.028-0.14,0.168-0.224,0.393-0.224c1.176,0,3.275,0.14,4.2,0.336
			c0.308,0.084,0.504,0.308,0.504,0.672l-0.057,1.484v3.023c0,0.477,0.196,0.7,0.672,0.7c1.681,0.028,5.544-0.028,7.196-0.084
			L102.73,91.393z"/>
		<path d="M130.759,79.577c1.176,0.056,2.855,0.308,3.556,0.56c0.28,0.084,0.476,0.309,0.476,0.616c0,0.672-0.476,1.26-0.84,1.4
			c-0.728-0.084-2.66-0.141-3.556-0.141c-1.933,0-13.58,0.141-15.204,0.225c-0.729,0.056-2.408,0.363-3.164,0.588
			c-1.12-0.393-2.352-1.177-3.136-1.876c-0.112-0.084-0.141-0.252-0.084-0.393l0.252-0.476c1.092,0.196,2.548,0.308,3.584,0.336
			c1.819,0.028,14.924-0.14,16.912-0.28L130.759,79.577z M127.566,91.953c0.868,0,2.128,0.111,2.716,0.252
			c0.309,0.084,0.504,0.279,0.504,0.56c0,0.672-0.224,1.176-0.392,1.344c-0.112,0.112-0.309,0.168-0.504,0.168l-12.349,0.084h-0.027
			c-1.904-0.027-2.576-0.728-2.576-2.128v-2.239c-0.364-0.393-0.952-0.672-1.624-0.896l0.14-0.7
			c0.028-0.111,0.112-0.195,0.309-0.195c1.063,0,3.527,0.056,4.479,0.168c1.736,0,5.824-0.057,6.86-0.112l0.588-0.14
			c0.056-0.532,0.084-1.624,0.056-2.072c-1.903-0.028-6.355,0.028-7.336,0.084c-0.644,0.056-1.764,0.224-2.492,0.42
			c-0.924-0.448-1.819-1.092-2.491-1.708c-0.141-0.14-0.168-0.224-0.084-0.364l0.195-0.392c0.84,0.168,2.156,0.28,2.885,0.28
			c1.399,0,8.147-0.084,9.771-0.141l1.008-0.447c0.168-0.085,0.364-0.085,0.561,0c0.392,0.168,1.26,0.504,1.596,0.672
			c0.14,0.084,0.168,0.252,0.084,0.447l-0.448,0.98c-0.056,0.7-0.336,1.792-0.56,2.352l0.532,0.252
			c0.111,0.057,0.195,0.196,0.195,0.336c0,0.477-0.195,0.952-0.336,1.148l-10.64,0.112v1.819c0,0.393,0.168,0.561,0.532,0.561
			c1.876,0.027,6.271,0,7.951-0.057L127.566,91.953z M115.022,73.949c0-2.856,2.716-4.816,6.72-4.816s6.72,1.96,6.72,4.816
			c0,2.884-2.716,4.844-6.72,4.844S115.022,76.833,115.022,73.949z M118.299,73.949c0,1.735,1.399,2.771,3.443,2.771
			s3.444-1.036,3.444-2.771c0-1.736-1.4-2.772-3.444-2.772S118.299,72.213,118.299,73.949z"/>
		<path d="M167.802,77.449c0.812-0.028,2.016,0.027,2.521,0.14c0.336,0.056,0.56,0.308,0.588,0.616
			c0.056,0.644-0.112,1.26-0.336,1.483c-0.168,0.196-0.532,0.28-0.812,0.28l-4.368,0.112v1.036c0,2.155-0.392,5.096-1.063,6.748
			h-1.82c-0.196-0.896-0.308-3.416-0.364-5.013c-3.164,0.784-8.903,1.652-12.096,1.904c-0.7,0.056-1.876,0.308-2.52,0.532
			c-0.98-0.532-2.156-1.344-2.912-2.101c-0.141-0.14-0.168-0.224-0.084-0.392l0.224-0.476c1.008,0.195,2.296,0.252,3.332,0.252
			c0.7-0.028,1.512-0.057,2.408-0.112l-0.056-4.145c-0.252-0.363-0.812-0.728-1.345-0.924l0.196-0.924
			c0.028-0.112,0.112-0.168,0.448-0.168c1.008,0,2.771,0.196,3.556,0.42c0.252,0.084,0.364,0.28,0.308,0.588l-0.111,1.597
			l-0.084,3.359c3.22-0.28,6.691-0.672,8.735-1.092V70.617c-0.392-0.616-1.231-1.232-2.184-1.597l0.336-1.008
			c0.056-0.111,0.14-0.195,0.42-0.195c1.316,0.056,3.416,0.476,4.396,0.896c0.279,0.14,0.392,0.392,0.392,0.756l-0.112,1.652v7
			l1.513-0.084L167.802,77.449z M155.79,79.801c-0.168-0.028-0.252-0.168-0.225-0.476c0.309-1.652,0.393-4.396,0.364-6.16
			c-1.456-0.028-4.088,0.028-4.788,0.084c-0.644,0.056-1.848,0.252-2.52,0.448c-0.952-0.42-1.932-1.12-2.604-1.792
			c-0.14-0.141-0.168-0.225-0.084-0.393l0.252-0.42c0.925,0.168,2.101,0.252,2.969,0.252c1.063,0,5.796-0.084,7.195-0.168
			l1.148-0.588c0.196-0.084,0.42-0.084,0.588,0c0.42,0.196,1.26,0.7,1.596,0.924c0.112,0.112,0.112,0.252,0.057,0.448l-0.42,1.232
			c-0.225,2.044-1.148,4.787-2.185,6.495c-0.14,0.196-0.336,0.252-0.504,0.252L155.79,79.801z M164.078,91.393
			c0.952-0.027,2.324,0.084,2.939,0.225c0.336,0.084,0.532,0.308,0.532,0.588c0,0.756-0.28,1.344-0.476,1.54
			c-0.141,0.111-0.336,0.168-0.532,0.168l-11.984,0.111c-2.1,0-2.939-0.867-2.939-2.52v-2.884c-0.448-0.393-1.204-0.784-1.933-1.036
			l0.196-0.84c0.028-0.112,0.168-0.225,0.42-0.225c1.176,0,3.276,0.141,4.172,0.336c0.336,0.084,0.504,0.309,0.504,0.673
			l-0.056,1.483v2.38c0,0.504,0.196,0.729,0.672,0.729c1.68,0.027,5.712-0.028,7.364-0.084L164.078,91.393z"/>
		<path d="M194.85,75.573c0.812-0.028,2.016,0.027,2.521,0.14c0.336,0.084,0.56,0.336,0.588,0.644
			c0.056,0.616-0.112,1.232-0.336,1.456c-0.168,0.196-0.532,0.28-0.812,0.28l-4.396,0.112v0.672c0,1.652-0.42,4.284-1.009,5.544
			h-1.876c-0.111-0.532-0.195-1.652-0.279-2.716c-3.696,1.147-8.372,2.016-11.648,2.296c-0.364,0.028-0.756,0.056-1.092,0.056
			c-1.26,0-2.156-0.756-2.492-1.876c-0.111-0.308-0.168-0.868-0.168-1.483v-2.856c-0.42-0.364-0.979-0.672-1.651-0.896l0.168-0.757
			c0.027-0.111,0.14-0.168,0.308-0.168c1.008,0,3.416,0.028,4.396,0.084c1.064-0.027,3.473-0.084,4.173-0.168l0.504-0.14
			c0.027-0.616,0.027-2.548,0-3.08c-1.232-0.028-3.893,0.028-4.536,0.056c-0.588,0.057-1.568,0.225-2.269,0.421
			c-0.867-0.448-1.708-1.093-2.323-1.708c-0.112-0.084-0.141-0.196-0.084-0.337l0.224-0.447c0.784,0.168,2.016,0.252,2.716,0.252
			c1.064,0,5.488-0.057,6.664-0.112l1.176-0.504c0.141-0.084,0.364-0.084,0.561,0c0.42,0.168,1.26,0.616,1.651,0.84
			c0.112,0.112,0.141,0.225,0.057,0.42l-0.364,1.092c-0.056,0.868-0.392,2.408-0.616,3.164l0.504,0.28
			c0.168,0.084,0.28,0.224,0.28,0.364c0,0.476-0.196,0.952-0.364,1.147l-7.952,0.252v3.053c0,0.363,0.168,0.531,0.561,0.531
			c3.136-0.027,8.063-0.56,11.563-1.456v-9.407c-0.392-0.616-1.26-1.232-2.212-1.597l0.336-1.008
			c0.057-0.111,0.141-0.195,0.42-0.195c1.316,0.056,3.416,0.476,4.396,0.896c0.28,0.14,0.42,0.392,0.392,0.756l-0.111,1.652v5.124
			l1.54-0.084L194.85,75.573z M190.426,85.148c0.168-0.056,0.392-0.056,0.56,0c0.448,0.196,1.288,0.589,1.624,0.812
			c0.112,0.084,0.141,0.224,0.084,0.42l-0.42,1.26c-0.14,1.344-0.363,2.856-0.7,4.145l0.561,0.308
			c0.196,0.112,0.28,0.252,0.28,0.448c0,0.644-0.252,1.204-0.504,1.456l-9.717,0.084c-0.111,0.363-0.279,0.644-0.56,0.924h-1.764
			c-0.252-0.476-0.42-1.176-0.477-1.792l-0.42-5.656c-0.364-0.392-0.979-0.784-1.596-1.036l0.224-0.867
			c0.028-0.112,0.141-0.169,0.336-0.169c1.093,0,3.137,0.169,4.284,0.309c1.596-0.028,5.432-0.084,6.972-0.168L190.426,85.148z
			 M182.334,92.009c1.764,0.028,4.479,0,5.992-0.112l0.615-0.168l0.057-4.004c-2.128,0.028-4.704,0.084-6.721,0.168L182.334,92.009z
			"/>
		<path d="M211.958,74.621c0.867,0.056,2.1,0.224,2.659,0.42c0.196,0.084,0.336,0.28,0.336,0.532c0,0.672-0.363,1.315-0.672,1.512
			c-0.504-0.084-1.96-0.084-2.632-0.084c-1.063-0.028-7.532,0.112-8.567,0.196c-0.589,0.027-1.624,0.224-2.156,0.392
			c-0.868-0.448-1.792-1.176-2.408-1.82c-0.112-0.111-0.112-0.224-0.056-0.336l0.195-0.392c0.925,0.14,2.129,0.224,2.828,0.224
			c1.204,0.028,8.261-0.111,9.492-0.195L211.958,74.621z M213.021,83.44c0,3.08-2.8,4.956-5.992,4.956
			c-3.191,0-6.02-1.876-6.02-4.956c0-3.079,2.828-5.012,6.02-5.012C210.222,78.429,213.021,80.361,213.021,83.44z M202.634,70.477
			c2.576,0.448,5.32,0.561,7.14,0.532c0.336,0,0.504,0.056,0.645,0.309c0.224,0.42,0.168,1.455-0.168,1.792
			c-0.141,0.14-0.309,0.168-0.561,0.168c-1.231,0-3.443,0.084-4.647,0.168c-0.364,0.027-0.561,0-0.784-0.141
			c-0.588-0.42-1.372-1.315-1.849-2.1c-0.084-0.168-0.084-0.28-0.027-0.393L202.634,70.477z M209.941,83.44
			c0-1.876-1.344-2.911-2.912-2.911c-1.567,0-2.884,1.035-2.884,2.911c0,1.849,1.316,2.885,2.884,2.885
			C208.598,86.325,209.941,85.289,209.941,83.44z M221.897,79.604c0.812-0.027,2.016,0.028,2.521,0.141
			c0.336,0.084,0.56,0.336,0.588,0.644c0.056,0.616-0.112,1.232-0.336,1.456c-0.168,0.196-0.532,0.28-0.812,0.28l-4.396,0.112v5.487
			c0,1.849-0.393,5.292-1.064,7.196h-1.82c-0.195-1.036-0.336-4.872-0.336-6.188V70.645c-0.42-0.644-1.288-1.26-2.296-1.651
			l0.336-0.98c0.057-0.111,0.141-0.195,0.42-0.195c1.316,0.056,3.473,0.476,4.48,0.896c0.308,0.14,0.42,0.392,0.42,0.756
			l-0.14,1.708v9.101l1.54-0.084L221.897,79.604z"/>
		<path d="M240.63,82.321c0.476,0.728,1.119,1.848,1.371,2.464c0.196,0.56,0.196,0.896,0.084,1.147
			c-0.252,0.532-1.035,0.784-1.512,0.588c-0.252-0.084-0.56-0.392-0.812-0.644l-4.816-5.544c-1.764,2.576-4.2,5.04-7.196,7.028
			c-0.168,0.111-0.279,0.111-0.42,0.027l-0.56-0.476c-0.084-0.084-0.084-0.196,0.056-0.364c3.864-3.808,6.469-8.456,7.196-12.516
			c-0.28-0.532-0.952-1.177-1.652-1.568l0.42-0.84c0.084-0.112,0.196-0.168,0.421-0.14c1.203,0.14,3.304,0.728,4.088,1.176
			c0.279,0.14,0.476,0.392,0.476,0.644c0,0.28-0.028,0.561-0.084,0.756c-0.28,1.456-0.84,2.969-1.652,4.452l2.996,3.164
			L240.63,82.321z M242.981,68.013c0.056-0.111,0.14-0.195,0.42-0.195c1.316,0.056,3.5,0.476,4.48,0.896
			c0.308,0.14,0.42,0.392,0.42,0.756l-0.112,1.708v16.548c0,1.849-0.42,5.292-1.092,7.196h-1.82
			c-0.196-1.036-0.336-4.872-0.336-6.188V70.645c-0.42-0.644-1.288-1.26-2.268-1.651L242.981,68.013z"/>
		<path d="M272.438,83.692c-0.168-0.672-0.28-2.407-0.336-3.695c-0.868,0-1.82,0.056-2.269,0.111
			c-0.447,0.057-1.231,0.196-1.708,0.364c-0.588-0.308-1.092-0.7-1.54-1.092c-1.035,1.82-3.08,2.94-5.628,2.94
			c-3.752,0-6.384-2.381-6.384-5.769c0-3.359,2.632-5.712,6.384-5.712c3.696,0,6.356,2.353,6.356,5.712
			c0,0.588-0.084,1.148-0.225,1.68c0.477,0.028,1.009,0.057,1.456,0.057c0.757,0,2.324-0.028,3.528-0.084v-3.584
			c-0.476,0-0.896,0.027-1.148,0.056c-0.476,0.056-1.231,0.225-1.735,0.364c-0.812-0.42-1.512-0.98-2.044-1.568
			c-0.141-0.14-0.141-0.224-0.084-0.363l0.252-0.393c0.644,0.112,1.567,0.168,2.324,0.168c0.56,0,1.512-0.028,2.436-0.056v-2.212
			c-0.392-0.616-1.232-1.232-2.184-1.597l0.336-1.008c0.027-0.111,0.14-0.195,0.42-0.195c1.288,0.056,3.416,0.476,4.368,0.896
			c0.308,0.14,0.42,0.392,0.392,0.756l-0.084,1.652v7.027c0,1.652-0.448,4.257-1.008,5.544H272.438z M276.021,90.805
			c0.364,0.588,0.812,1.456,0.979,1.988c0.141,0.392,0.141,0.672,0.057,0.868c-0.252,0.447-0.896,0.728-1.345,0.588
			c-0.224-0.028-0.531-0.309-0.756-0.561l-3.275-3.752c-1.513,1.904-3.584,3.696-6.132,5.181c-0.196,0.111-0.309,0.111-0.421,0.027
			l-0.56-0.447c-0.14-0.112-0.14-0.253,0.028-0.393c0.615-0.532,1.176-1.092,1.708-1.68h-0.168c-0.28-0.028-0.532-0.196-0.757-0.448
			l-2.323-2.548c-1.513,1.876-3.668,3.584-6.3,4.956c-0.196,0.14-0.309,0.14-0.448,0.056l-0.532-0.476
			c-0.112-0.112-0.14-0.225,0.028-0.364c2.884-2.296,4.928-5.04,5.739-7.588c-0.252-0.364-0.783-0.84-1.344-1.148l0.448-0.84
			c0.084-0.111,0.224-0.168,0.448-0.14c1.147,0.168,2.855,0.7,3.527,1.092c0.28,0.14,0.42,0.364,0.42,0.616
			c0,0.308-0.056,0.532-0.111,0.7c-0.225,0.531-0.477,1.063-0.784,1.567l1.315,1.316l1.009,0.476
			c0.252,0.448,0.588,1.12,0.699,1.484c0.028,0.084,0.057,0.168,0.057,0.252c1.512-1.848,2.576-3.808,3.107-5.656
			c-0.195-0.42-0.783-0.979-1.344-1.288l0.448-0.867c0.084-0.141,0.224-0.196,0.448-0.141c1.176,0.225,2.884,0.84,3.556,1.288
			c0.28,0.168,0.42,0.392,0.42,0.616c0,0.308-0.056,0.56-0.112,0.728c-0.252,0.7-0.588,1.4-0.979,2.072l1.876,1.848L276.021,90.805z
			 M257.766,76.553c0,2.072,1.315,3.36,3.191,3.36s3.164-1.288,3.164-3.36s-1.288-3.388-3.164-3.388S257.766,74.48,257.766,76.553z"
			/>
		<path d="M303.04,78.877c0.812-0.028,2.016,0.028,2.521,0.14c0.336,0.057,0.56,0.309,0.588,0.616
			c0.056,0.645-0.112,1.26-0.336,1.484c-0.168,0.195-0.532,0.279-0.812,0.279l-4.396,0.112v6.216c0,1.849-0.393,5.292-1.064,7.196
			h-1.82c-0.195-1.036-0.336-4.872-0.336-6.188v-3.724c-3.584,1.204-8.035,2.072-11.115,2.353c-0.42,0.056-0.84,0.056-1.148,0.056
			c-1.344,0-2.268-0.756-2.66-1.933c-0.084-0.336-0.168-0.896-0.168-1.512v-8.876c-0.392-0.448-1.063-0.868-1.819-1.12l0.224-0.867
			c0.056-0.112,0.14-0.169,0.336-0.169c1.036,0,3.388,0.112,4.452,0.309c1.063-0.028,4.004-0.168,4.872-0.252l0.84-0.561
			c0.784,0,2.044,0.057,2.66,0.196c0.308,0.056,0.476,0.252,0.476,0.561c0,0.699-0.196,1.231-0.392,1.455
			c-0.141,0.112-0.309,0.168-0.532,0.168l-7.84,0.309v9.016c0,0.364,0.14,0.561,0.532,0.532c3.08-0.056,7.84-0.616,11.283-1.484
			V70.645c-0.42-0.644-1.288-1.26-2.296-1.651l0.336-0.98c0.057-0.111,0.141-0.195,0.42-0.195c1.316,0.056,3.473,0.476,4.48,0.896
			c0.308,0.14,0.42,0.392,0.42,0.756l-0.14,1.708v8.372l1.54-0.084L303.04,78.877z"/>
	</g>
</g>
<rect x="149.65" y="36.768" width="84.385" height="24.378"/>
</svg>