<!-- Generator: Adobe Illustrator 21.1.0, SVG Export Plug-In  -->
<svg version="1.1"
	 xmlns="http://www.w3.org/2000/svg" xmlns:xlink="http://www.w3.org/1999/xlink" xmlns:a="http://ns.adobe.com/AdobeSVGViewerExtensions/3.0/"
	 x="0px" y="0px" width="52.777px" height="121.495px" viewBox="0 0 52.777 121.495"
	 style="enable-background:new 0 0 52.777 121.495;" xml:space="preserve">
<defs>
</defs>
<g>
	<circle cx="9.117" cy="110.366" r="8.049"/>
	<path d="M9.117,117.803c0,0,0.732,1.463,4.39,2.195l-0.732,1.463c0,0-5.854,0-8.049-2.195s-2.927-4.39-2.927-4.39
		s-0.732-2.311-0.732-4.814S9.117,117.803,9.117,117.803z"/>
	<circle cx="26.312" cy="10.61" r="10.61"/>
	<polygon points="26.389,24.611 39.583,54.744 52.777,84.877 26.389,84.877 0,84.877 13.194,54.744 	"/>
	<g>
		<path d="M16.8,121.495c-5.739,0-5.739,0-6.327-0.341c-0.145-0.084-0.365-0.212-1.175-0.414l0.371-1.484
			c0.94,0.235,1.292,0.413,1.571,0.574c0.225,0.13,0.76,0.135,5.561,0.135c2.532,0,4.625-0.77,6.22-2.29
			c1.606-1.53,2.527-3.778,2.527-6.169V87.804h1.53v23.702c0,2.808-1.094,5.46-3.002,7.277
			C22.185,120.583,19.738,121.495,16.8,121.495z"/>
	</g>
</g>
</svg>