<!-- Generator: Adobe Illustrator 21.1.0, SVG Export Plug-In  -->
<svg version="1.1"
	 xmlns="http://www.w3.org/2000/svg" xmlns:xlink="http://www.w3.org/1999/xlink" xmlns:a="http://ns.adobe.com/AdobeSVGViewerExtensions/3.0/"
	 x="0px" y="0px" width="408.228px" height="3111.698px" viewBox="0 0 408.228 3111.698"
	 style="enable-background:new 0 0 408.228 3111.698;" xml:space="preserve">
<style type="text/css">
	.st0{fill:none;stroke:#FFFFFF;stroke-width:3;stroke-miterlimit:10;}
</style>
<defs>
</defs>
<g>
	<path class="st0" d="M135.709,0.698c-74.276,141.372-153.497,348.16-130,588c24.892,254.069,138.629,275.543,216,562
		c58.181,215.404-2.61,216.296-8,1002c-0.017,2.411-0.005,0.764,0,441c0.002,172.667,0.002,345.333,0,518"/>
	<path class="st0" d="M175.709,0.698c-74.276,141.372-153.497,348.16-130,588c24.892,254.069,138.629,275.543,216,562
		c58.181,215.404-2.61,216.296-8,1002c-0.017,2.411-0.005,0.764,0,441c0.002,172.667,0.002,345.333,0,518"/>
	<path class="st0" d="M215.709,0.698c-74.276,141.372-153.497,348.16-130,588c24.892,254.069,138.629,275.543,216,562
		c58.181,215.404-2.61,216.296-8,1002c-0.017,2.411-0.005,0.764,0,441c0.002,172.667,0.002,345.333,0,518"/>
	<path class="st0" d="M255.709,0.698c-74.276,141.372-153.497,348.16-130,588c24.892,254.069,138.629,275.543,216,562
		c58.181,215.404-2.61,216.296-8,1002c-0.017,2.411-0.005,0.764,0,441c0.002,172.667,0.002,345.333,0,518"/>
	<path class="st0" d="M295.709,0.698c-74.276,141.372-153.497,348.16-130,588c24.892,254.069,138.629,275.543,216,562
		c58.181,215.404-2.61,216.296-8,1002c-0.017,2.411-0.005,0.764,0,441c0.002,172.667,0.002,345.333,0,518"/>
</g>
</svg>