<!-- Generator: Adobe Illustrator 21.1.0, SVG Export Plug-In  -->
<svg version="1.1"
	 xmlns="http://www.w3.org/2000/svg" xmlns:xlink="http://www.w3.org/1999/xlink" xmlns:a="http://ns.adobe.com/AdobeSVGViewerExtensions/3.0/"
	 x="0px" y="0px" width="19.947px" height="73.059px" viewBox="0 0 19.947 73.059"
	 style="enable-background:new 0 0 19.947 73.059;" xml:space="preserve">
<defs>
</defs>
<g>
	<g>
		<polygon points="10.332,40.491 10.085,0.015 11.566,0 11.812,40.477 		"/>
	</g>
</g>
<g>
	<ellipse transform="matrix(0.781 -0.6245 0.6245 0.781 -24.3182 12.8138)" cx="6.112" cy="41.083" rx="6.514" ry="4.571"/>
</g>
<g>
	<path d="M4.799,64.295c0.419,0.347,0.861,0.67,1.326,0.971s1.021,0.606,1.668,0.916L7,66.879c-0.237-0.219-0.456-0.419-0.656-0.602
		c-0.201-0.183-0.401-0.362-0.602-0.54c-0.201-0.178-0.406-0.357-0.615-0.54c-0.21-0.183-0.433-0.378-0.67-0.588
		c-0.638,0.629-1.322,1.181-2.051,1.654c-0.729,0.474-1.44,0.866-2.133,1.176L0,67.139c0.538-0.273,1.066-0.59,1.586-0.95
		s1.012-0.759,1.477-1.196s0.896-0.907,1.292-1.41S5.1,62.547,5.4,61.984c-0.137,0-0.301,0.005-0.492,0.014s-0.39,0.021-0.595,0.034
		s-0.406,0.025-0.602,0.034c-0.196,0.009-0.358,0.014-0.485,0.014c-0.101,0-0.228,0.007-0.383,0.021
		c-0.155,0.014-0.321,0.027-0.499,0.041s-0.358,0.032-0.54,0.055c-0.183,0.022-0.351,0.043-0.506,0.062l-0.533-0.834
		c0.237,0.046,0.533,0.08,0.889,0.103s0.684,0.034,0.984,0.034c0.684,0.009,1.355-0.012,2.017-0.062
		c0.661-0.05,1.246-0.139,1.757-0.267l0.314,0.314c-0.246,0.52-0.533,1.005-0.861,1.456S5.182,63.885,4.799,64.295z M4.922,68.205
		C4.63,68.196,4.37,68.2,4.143,68.219C3.915,68.237,3.7,68.26,3.5,68.287c-0.128,0.019-0.29,0.036-0.485,0.055
		c-0.196,0.019-0.385,0.05-0.567,0.096l-0.355-0.752c0.191,0.046,0.417,0.077,0.677,0.096s0.472,0.027,0.636,0.027
		c0.383,0.009,0.786-0.007,1.21-0.048s0.904-0.094,1.442-0.157c-0.046,0.173-0.089,0.355-0.13,0.547s-0.078,0.385-0.109,0.581
		c-0.032,0.196-0.062,0.385-0.089,0.567s-0.055,0.347-0.082,0.492c0.073-0.009,0.139-0.019,0.198-0.027
		c0.059-0.009,0.121-0.019,0.185-0.027l-0.123,0.615c-0.501-0.019-0.939-0.021-1.312-0.007c-0.374,0.014-0.716,0.043-1.025,0.089
		v1.354c0,0.183,0.034,0.303,0.103,0.362s0.185,0.08,0.349,0.062c0.31-0.027,0.656-0.082,1.039-0.164s0.861-0.214,1.436-0.396v0.314
		C5.92,72.22,5.396,72.418,4.922,72.56c-0.474,0.142-0.984,0.258-1.531,0.349c-0.483,0.101-0.725-0.118-0.725-0.656v-1.258
		c0-0.155-0.014-0.275-0.041-0.362s-0.073-0.157-0.137-0.212c-0.064-0.055-0.144-0.096-0.239-0.123S2.037,70.233,1.9,70.188
		l0.096-0.328c0.547,0.063,1.053,0.096,1.518,0.096s0.911-0.019,1.34-0.055L4.922,68.205z M10.131,71.801
		c0.1-0.019,0.191-0.032,0.273-0.041s0.159-0.022,0.232-0.041L10.5,72.471c-0.191-0.027-0.408-0.046-0.649-0.055
		c-0.242-0.009-0.495-0.016-0.759-0.021c-0.265-0.005-0.524-0.002-0.779,0.007c-0.255,0.009-0.492,0.022-0.711,0.041
		c0,0.082-0.005,0.166-0.014,0.253c-0.009,0.087-0.019,0.171-0.027,0.253l-0.533,0.109c-0.037-0.183-0.073-0.388-0.109-0.615
		c-0.037-0.228-0.06-0.46-0.068-0.697l-0.096-2.803c-0.009-0.173-0.021-0.316-0.034-0.431s-0.039-0.205-0.075-0.273
		c-0.037-0.068-0.084-0.125-0.144-0.171c-0.06-0.046-0.139-0.091-0.239-0.137l0.137-0.342c0.62,0.137,1.28,0.193,1.982,0.171
		c0.702-0.022,1.395-0.089,2.078-0.198c-0.027,0.265-0.06,0.586-0.096,0.964c-0.037,0.378-0.071,0.766-0.103,1.162
		c-0.032,0.396-0.06,0.784-0.082,1.162C10.156,71.229,10.14,71.546,10.131,71.801z M9.406,64.186
		c-1.094,0.046-2.005,0.137-2.734,0.273l-0.369-0.793c0.182,0.036,0.424,0.063,0.725,0.082s0.588,0.022,0.861,0.014
		c0.237-0.009,0.492-0.014,0.766-0.014s0.524-0.005,0.752-0.014v-2.201c0-0.31-0.139-0.556-0.417-0.738
		c-0.278-0.183-0.709-0.344-1.292-0.484l0.15-0.377c0.465,0.055,0.927,0.125,1.388,0.212c0.46,0.087,0.873,0.166,1.237,0.239
		c-0.046,0.164-0.082,0.351-0.109,0.561s-0.041,0.405-0.041,0.588v3.227c0,0.164-0.007,0.355-0.021,0.574s-0.032,0.433-0.055,0.643
		c-0.023,0.21-0.046,0.41-0.068,0.602c-0.023,0.191-0.048,0.342-0.075,0.451l-0.602,0.082c-0.027-0.191-0.05-0.442-0.068-0.752
		c-0.019-0.31-0.027-0.593-0.027-0.848V64.186z M9.475,68.232c-0.328-0.027-0.649-0.032-0.964-0.014s-0.608,0.046-0.882,0.082
		l0.014,3.227c0,0.063,0,0.13,0,0.198s-0.005,0.144-0.014,0.226c0.282-0.009,0.585-0.019,0.909-0.027
		c0.323-0.009,0.631-0.027,0.923-0.055L9.475,68.232z"/>
</g>
<path d="M11.6,9c0,0,2.084,6.349,4.267,8.966c2.743,3.287,4.572,6.575,3.963,9.862S16.477,35,16.477,35s2.896-4.931,2.286-7.92
	s-3.895-6.362-5.03-7.92c-1.524-2.092-2.286-3.736-2.286-3.736L11.6,9z"/>
<path d="M11.6,0c0,0,2.084,6.349,4.267,8.966c2.743,3.287,4.572,6.575,3.963,9.862S16.477,26,16.477,26s2.896-4.931,2.286-7.92
	s-3.895-6.362-5.03-7.92c-1.524-2.092-2.286-3.736-2.286-3.736L11.6,0z"/>
</svg>