<!-- Generator: Adobe Illustrator 21.1.0, SVG Export Plug-In  -->
<svg version="1.1"
	 xmlns="http://www.w3.org/2000/svg" xmlns:xlink="http://www.w3.org/1999/xlink" xmlns:a="http://ns.adobe.com/AdobeSVGViewerExtensions/3.0/"
	 x="0px" y="0px" width="11.988px" height="64.029px" viewBox="0 0 11.988 64.029"
	 style="enable-background:new 0 0 11.988 64.029;" xml:space="preserve">
<defs>
</defs>
<g>
	<g>
		<g>
			<rect x="10.249" y="0.005" transform="matrix(1 -0.0079 0.0079 1 -0.1231 0.087)" width="1.481" height="31.342"/>
		</g>
	</g>
	<g>
		<ellipse transform="matrix(0.781 -0.6245 0.6245 0.781 -18.6017 10.8381)" cx="6.154" cy="31.944" rx="6.514" ry="4.571"/>
	</g>
</g>
<g>
	<path d="M5.25,60.515c0,0.237-0.007,0.492-0.021,0.766s-0.03,0.542-0.048,0.807c-0.019,0.265-0.041,0.52-0.068,0.766
		s-0.06,0.465-0.096,0.656l-0.602,0.096c-0.019-0.164-0.034-0.355-0.048-0.574s-0.025-0.446-0.034-0.684
		C4.325,62.11,4.32,61.874,4.32,61.636s0-0.456,0-0.656v-2.01c-0.31,0.036-0.611,0.066-0.902,0.089
		c-0.292,0.022-0.574,0.043-0.848,0.062c-0.101,0.009-0.235,0.021-0.403,0.034c-0.169,0.014-0.349,0.032-0.54,0.055
		s-0.385,0.046-0.581,0.068C0.85,59.3,0.674,59.326,0.52,59.353L0,58.41c0.301,0.046,0.629,0.08,0.984,0.103
		s0.684,0.029,0.984,0.021c0.684-0.019,1.372-0.053,2.064-0.103c0.692-0.05,1.372-0.114,2.037-0.191
		c0.665-0.077,1.31-0.166,1.935-0.267c0.624-0.101,1.205-0.214,1.743-0.342v-5.236c0-0.31-0.139-0.556-0.417-0.738
		c-0.278-0.183-0.709-0.344-1.292-0.484l0.164-0.377c0.456,0.055,0.916,0.125,1.381,0.212s0.875,0.166,1.23,0.239
		c-0.037,0.164-0.068,0.351-0.096,0.561s-0.041,0.405-0.041,0.588v7.656c0,0.282-0.007,0.606-0.021,0.971s-0.03,0.729-0.048,1.094
		c-0.019,0.364-0.043,0.711-0.075,1.039c-0.032,0.328-0.066,0.597-0.103,0.807l-0.574,0.068c-0.019-0.155-0.034-0.349-0.048-0.581
		s-0.025-0.483-0.034-0.752c-0.009-0.269-0.016-0.545-0.021-0.827c-0.005-0.282-0.007-0.556-0.007-0.82V58
		c-0.729,0.191-1.477,0.357-2.242,0.499S5.988,58.76,5.25,58.861V60.515z M6.645,56.769c-0.301-0.009-0.62-0.014-0.957-0.014
		c-0.337,0-0.684,0.005-1.039,0.014s-0.711,0.022-1.066,0.041s-0.702,0.032-1.039,0.041c-0.027,0.183-0.055,0.337-0.082,0.465
		L1.9,57.398c-0.027-0.173-0.05-0.376-0.068-0.608c-0.019-0.233-0.027-0.478-0.027-0.734v-2.538c0-0.312-0.073-0.542-0.219-0.692
		c-0.146-0.15-0.442-0.275-0.889-0.376l0.137-0.342c0.31,0.027,0.629,0.063,0.957,0.109s0.67,0.104,1.025,0.178
		c-0.037,0.164-0.068,0.34-0.096,0.526S2.68,53.292,2.68,53.474v0.383c0.61-0.009,1.239-0.025,1.887-0.048
		c0.647-0.022,1.326-0.07,2.037-0.144v-0.629c0-0.155-0.019-0.287-0.055-0.396c-0.037-0.109-0.103-0.205-0.198-0.287
		s-0.224-0.152-0.383-0.212c-0.16-0.06-0.362-0.121-0.608-0.185l0.137-0.342c0.383,0.046,0.745,0.089,1.087,0.13
		s0.695,0.098,1.06,0.171c-0.046,0.174-0.082,0.353-0.109,0.535s-0.041,0.365-0.041,0.548v2.276c0,0.329-0.025,0.672-0.075,1.028
		c-0.05,0.356-0.098,0.644-0.144,0.862l-0.574,0.082c-0.019-0.073-0.03-0.148-0.034-0.226C6.66,56.945,6.653,56.86,6.645,56.769z
		 M6.604,55.867v-1.572c-0.62-0.027-1.263-0.032-1.928-0.014c-0.666,0.019-1.331,0.05-1.996,0.096v1.066
		c0,0.146-0.007,0.294-0.021,0.444s-0.03,0.303-0.048,0.458c0.629-0.009,1.292-0.027,1.989-0.055s1.365-0.068,2.003-0.123V55.867z"
		/>
</g>
</svg>