<!-- Generator: Adobe Illustrator 21.1.0, SVG Export Plug-In  -->
<svg version="1.1"
	 xmlns="http://www.w3.org/2000/svg" xmlns:xlink="http://www.w3.org/1999/xlink" xmlns:a="http://ns.adobe.com/AdobeSVGViewerExtensions/3.0/"
	 x="0px" y="0px" width="769px" height="786px" viewBox="0 0 769 786" style="enable-background:new 0 0 769 786;"
	 xml:space="preserve">
<style type="text/css">
	.st0{fill:#7F7F7F;}
</style>
<defs>
</defs>
<g>
	<path class="st0" d="M355,85c-18-2-35-4-53-3c-1,1-4,0-5,2c-1-9-2-19-1-28c3-15,7-29,7-44c0-4-2-9-5-12c19,2,39,6,58,1
		c0,19,0,37-5,56C348,66,351,76,355,85L355,85z"/>
</g>
<g>
	<path class="st0" d="M651,141c-11-3-23-2-34-2v1c0-3-2-5-2-7c-2-17,4-32,7-48c1-6-1-13-5-18c10,2,20,3,30,1c1,0,4,1,4-2
		c7,19,0,37-4,56C646,129,649,135,651,141L651,141z"/>
</g>
<g>
	<path class="st0" d="M266,264c-9-7-18-10-28-16c-3-1-5-1-8-1c6-13,12-25,21-38c3-5,5-10,4-15c11,5,20,14,31,18c2,0,4,0,6,0
		c-2,3-4,6-5,10c-6,13-16,23-21,36C266,260,266,262,266,264L266,264z"/>
</g>
<g>
	<path class="st0" d="M678,394c-7-7-16-10-24-16c-10-8-19-17-32-18c5-13,14-24,23-36c9-11,18-22,20-36c16,10,30,21,46,32
		c3,2,7,2,11,2c-8,15-17,29-29,42C686,373,680,383,678,394L678,394z"/>
</g>
<g>
	<path class="st0" d="M437,388c-15-4-28-11-42-16c-4-1-9-2-13-1c2-5,1-10,3-15c3-6,6-12,9-18c1-2,0-3,1-5c6-12,12-25,11-39
		c18,8,36,16,55,17c-5,19-13,36-20,54C439,372,436,380,437,388L437,388z"/>
</g>
<g>
	<path class="st0" d="M187,506c-15,2-30,0-44-4c-8,2-16,1-23,4c0-7-2-13-1-20c0-3,2-5,2-8c0-9,2-19,4-28c1-9,1-20-5-27
		c6,0,11-2,17-1c16,3,31,6,47,2c1,0,1-1,2-2c1,11,2,22,0,34c-3,13-3,26-4,39c0,3,1,6,3,9C186,505,186,505,187,506L187,506z"/>
</g>
<g>
	<path class="st0" d="M444,617c-12-4-23-9-35-12c-3-1-7-3-10-1c3-16,8-30,17-44c3-5,3-11,1-17c10,3,19,6,28,11c5,2,11,4,16,1
		c0,12-5,23-11,34c-5,8-8,17-7,26C443,616,444,616,444,617L444,617z"/>
</g>
<g>
	<path class="st0" d="M756,630c-10-2-19-6-29-9c-4-1-7-1-11-1c1-19,11-34,14-53c0-1,0-2-1-3c9,2,19,5,28,9c4,2,8,1,12,1
		c-1,14-8,27-11,41C757,620,753,625,756,630L756,630z"/>
</g>
<g>
	<path class="st0" d="M62,235c-1-1-2-2-3-2c-17-2-32-11-49-14c-3,0-7-1-10,1c4-13,4-26,12-38c1-1,0-3,1-4c7-11,7-22,8-34
		c0-2-1-3-1-5c19,3,37,11,57,15c2,0,3,0,4-1c-2,17-9,33-14,49C63,213,58,224,62,235L62,235z"/>
</g>
<g>
	<path class="st0" d="M101,786c-15-11-30-21-47-29c-2-1-5-1-7-1c10-19,23-35,35-53c3-6,4-12,6-19l-1-1c14,7,26,15,39,24
		c5,3,10,8,16,5c-3,12-10,22-18,32c-1,2-1,4-2,5C112,760,104,772,101,786L101,786z"/>
</g>
</svg>