<!-- Generator: Adobe Illustrator 21.1.0, SVG Export Plug-In  -->
<svg version="1.1"
	 xmlns="http://www.w3.org/2000/svg" xmlns:xlink="http://www.w3.org/1999/xlink" xmlns:a="http://ns.adobe.com/AdobeSVGViewerExtensions/3.0/"
	 x="0px" y="0px" width="395.363px" height="2590.615px" viewBox="0 0 395.363 2590.615"
	 style="enable-background:new 0 0 395.363 2590.615;" xml:space="preserve">
<style type="text/css">
	.st0{fill:none;stroke:#FFFFFF;stroke-width:3;stroke-miterlimit:10;}
</style>
<defs>
</defs>
<g>
	<path class="st0" d="M1.113,32.005c214.258,237.293,238.139,401.383,216,510c-24.548,120.437-98.893,139.391-147,311
		c-49.367,176.105-20.135,331.153,0,432c38.298,191.813,84.772,181.43,138,372c92.263,330.326,23.521,615.329,0,708
		c-24.13,95.072-54.27,171.672-78,225"/>
	<path class="st0" d="M35.863,24.255c214.258,237.293,238.139,401.383,216,510c-24.548,120.437-98.893,139.391-147,311
		c-49.367,176.105-20.135,331.153,0,432c38.298,191.813,84.772,181.43,138,372c92.263,330.326,23.52,615.329,0,708
		c-24.13,95.072-54.27,171.672-78,225"/>
	<path class="st0" d="M70.613,16.505c214.258,237.293,238.139,401.383,216,510c-24.548,120.437-98.893,139.391-147,311
		c-49.367,176.105-20.135,331.153,0,432c38.298,191.813,84.772,181.43,138,372c92.263,330.326,23.521,615.329,0,708
		c-24.13,95.072-54.27,171.672-78,225"/>
	<path class="st0" d="M105.363,8.755c214.258,237.293,238.139,401.383,216,510c-24.548,120.437-98.893,139.391-147,311
		c-49.367,176.105-20.135,331.153,0,432c38.298,191.813,84.772,181.43,138,372c92.263,330.326,23.521,615.329,0,708
		c-24.13,95.072-54.27,171.672-78,225"/>
	<path class="st0" d="M140.113,1.005c214.258,237.293,238.139,401.383,216,510c-24.548,120.437-98.893,139.391-147,311
		c-49.367,176.105-20.135,331.153,0,432c38.298,191.813,84.772,181.43,138,372c92.263,330.326,23.521,615.329,0,708
		c-24.13,95.072-54.27,171.672-78,225"/>
</g>
</svg>