<!-- Generator: Adobe Illustrator 21.1.0, SVG Export Plug-In  -->
<svg version="1.1"
	 xmlns="http://www.w3.org/2000/svg" xmlns:xlink="http://www.w3.org/1999/xlink" xmlns:a="http://ns.adobe.com/AdobeSVGViewerExtensions/3.0/"
	 x="0px" y="0px" width="79.868px" height="67.232px" viewBox="0 0 79.868 67.232"
	 style="enable-background:new 0 0 79.868 67.232;" xml:space="preserve">
<defs>
</defs>
<g>
	<ellipse transform="matrix(0.9536 -0.3012 0.3012 0.9536 -3.945 13.895)" cx="43.095" cy="19.743" rx="9.953" ry="9.953"/>
	<path d="M40.097,10.251c0,0-0.818-2.589,3.224-4.814l-2.271-1.181c0,0-4.905,2.498-6.676,5.904
		c-1.771,3.406-1.816,6.267-1.816,6.267s-0.002,2.998,0.93,5.95S40.097,10.251,40.097,10.251z"/>
	<rect x="20.934" y="29.318" transform="matrix(-0.9411 -0.3381 0.3381 -0.9411 36.3351 87.2286)" width="9.662" height="22.264"/>
	<path d="M3.428,65.023c0,0,20.421,2.342,25.092,2.203c4.67-0.139,20.044-3.113,23.452-4.58s14.417-6.11,19.56-14.533
		s8.14-14.049,8.307-20.527c0.167-6.477-0.177-13.227-6.521-18.576c-6.344-5.349-10.402-8.824-16.879-8.991
		s-9.613,0.789-12.237,2.018c-2.624,1.229-7.584,4.972-7.626,5.369c-0.042,0.397,3.897,3.48,3.897,3.48s-0.751-1.056,1.123-3.341
		s5.043-4.537,9.713-4.675c4.67-0.139,6.477,0.167,10.058,2.074c3.58,1.907,4.843,3.236,7.333,7.189s-0.162,16.329-2.887,21.444
		s-6.028,12.548-12.127,17.836S37.874,61.374,30.852,62.23s-16.908,2.156-24.647,0.66L0,62.212L3.428,65.023z"/>
	<rect x="48.798" y="20.35" transform="matrix(0.3381 -0.9411 0.9411 0.3381 -13.6108 80.6608)" width="3.484" height="59.313"/>
</g>
</svg>