<!-- Generator: Adobe Illustrator 21.1.0, SVG Export Plug-In  -->
<svg version="1.1"
	 xmlns="http://www.w3.org/2000/svg" xmlns:xlink="http://www.w3.org/1999/xlink" xmlns:a="http://ns.adobe.com/AdobeSVGViewerExtensions/3.0/"
	 x="0px" y="0px" width="1674.031px" height="693.846px" viewBox="0 0 1674.031 693.846"
	 style="enable-background:new 0 0 1674.031 693.846;" xml:space="preserve">
<defs>
</defs>
<g>
	<path d="M181.44,233.281c0.36,1.44-0.36,3.24-2.88,4.681c-21.24,10.8-58.32,22.319-82.801,24.84
		c-5.04,0.72-11.52,1.439-15.479,1.439c-20.521-0.359-29.16-6.479-34.561-23.04c-1.08-2.159-1.8-10.079-1.8-18.72v-113.04
		c-4.68-5.4-12.96-10.08-21.6-12.96l2.52-11.521c0.72-1.079,1.8-2.159,4.32-2.159c12.96,0,43.92,1.439,56.16,2.88
		c8.64-0.36,30.24-1.44,36.36-2.16l10.079-6.84c8.641,0,23.4,1.08,30.24,2.16c3.96,0.72,5.761,3.239,5.761,6.84
		c0,9-2.521,16.2-5.4,19.439c-1.8,1.08-3.6,1.801-6.48,1.801l-70.92,2.88v114.479c0,4.32,1.8,6.12,6.48,6.12
		c23.76-0.359,62.28-4.319,82.8-9.359c2.88-0.36,4.32,0,4.68,2.159L181.44,233.281z M184.681,35.642
		c0.359-1.44,1.8-2.521,5.76-2.521c14.4,0.72,38.16,5.76,48.96,11.16c3.24,1.44,4.68,4.32,4.68,8.64l-1.439,18.36v178.92
		c0,21.961-4.681,61.561-12.24,83.16h-21.24c-2.52-13.68-4.68-55.8-4.68-71.64v-91.8c-10.08,0.359-22.68,0.72-27.72,1.439
		c-6.841,0.36-16.921,2.521-23.4,5.04c-10.44-5.76-19.08-12.24-26.28-19.439c-1.08-1.44-1.439-2.881-0.72-4.681l3.24-5.399
		c8.279,1.08,19.8,1.439,28.8,1.439c10.439,0,32.04-0.72,46.08-1.439V65.881c-4.32-7.199-14.04-13.68-24.48-18L184.681,35.642z
		 M248.4,10.801c0.72-1.8,2.16-2.88,5.76-2.88c15.48,0.721,41.04,6.12,52.92,11.521c3.601,1.439,5.4,4.68,5.04,9.359l-1.439,19.801
		v218.16c0,23.04-5.04,65.88-13.32,89.64h-22.32c-2.52-12.96-4.68-60.84-4.68-77.399V42.481c-4.32-7.561-15.12-14.76-26.28-19.44
		L248.4,10.801z"/>
	<path d="M579.597,10.441c0.72-1.44,1.8-2.521,5.04-2.521c17.279,0.721,45,6.12,57.96,11.521c3.96,1.8,5.399,5.04,5.04,9.72
		l-1.44,21.96v212.761c0,23.76-5.04,68.04-13.68,92.52h-23.4c-2.52-13.319-4.68-62.64-4.68-79.56v-59.04
		c-25.2,5.399-62.641,11.52-98.28,15.84v28.08c0,21.96-6.48,64.08-13.68,83.521h-23.04c-2.16-14.04-4.681-55.08-4.681-70.921v-36
		c-10.8,1.08-20.88,2.16-29.52,2.521c-7.92,0.359-24.12,3.96-32.04,6.84c-14.04-6.48-30.24-17.64-41.761-27.72
		c-1.439-1.801-1.8-2.88-1.08-4.681l2.881-6.479c14.399,2.52,32.76,3.24,47.159,3.24c52.561-1.08,149.761-8.28,194.041-16.921
		V44.281c-5.04-8.28-16.2-16.2-29.16-21.24L579.597,10.441z M402.836,74.161c-3.6-4.68-12.6-10.439-19.8-12.96l2.88-11.16
		c0.36-1.08,1.439-2.16,5.76-2.16c12.601-0.359,37.8,2.521,48.601,5.04c3.239,1.08,4.319,3.601,3.96,7.561l-0.36,16.92v12.24
		l79.561-1.08v-28.8c-3.601-5.4-11.521-11.16-19.44-14.4l3.6-10.44c1.08-1.8,2.16-2.88,6.12-2.52c12.96,0.72,37.08,4.68,47.16,8.28
		c3.601,1.439,4.681,3.96,4.32,7.56l-1.08,17.28l-0.36,48.6c0,11.16-2.159,25.2-4.68,33.48l6.84,2.52
		c2.16,0.721,3.24,2.521,3.24,4.32c0,6.84-2.16,13.68-4.68,16.2c-27.721-0.36-92.521,0.72-123.48,1.08
		c-2.16,6.84-5.76,11.16-9.36,13.68h-21.6c-3.601-7.2-5.04-17.64-5.04-24.479L402.836,74.161z M443.516,113.762l-0.359,33.12
		l80.28-0.721v-33.12L443.516,113.762z"/>
</g>
<g>
	<path d="M1117.12,163.924c-31.681,27.72-70.921,51.12-113.4,66.601c-2.521,1.08-4.32,1.439-5.4,0.359l-5.399-6.12
		c-1.44-1.8-1.44-3.239,0-4.68c54.72-31.68,99.359-74.521,125.64-114.84c-19.8,0-47.88,0.72-55.8,1.439
		c-7.2,0.36-20.521,2.88-27.36,5.4c-11.16-5.04-22.68-12.96-30.6-20.88c-1.8-1.44-1.8-2.88-1.08-4.681l2.88-5.04
		c10.8,1.801,24.48,2.521,34.2,2.521c13.32,0,74.16-0.72,91.44-2.16l15.119-6.12c2.521-1.08,5.761-1.08,8.28,0
		c5.76,2.521,17.28,7.92,21.601,10.8c2.159,1.44,2.159,3.96,0.72,5.761l-8.64,12.239c-8.641,14.04-19.801,28.08-32.4,41.04
		l22.68,16.2l16.92,3.601c6.12,6.84,13.681,17.279,17.28,23.399c2.88,5.04,3.601,8.641,2.88,11.521
		c-2.16,6.479-10.439,11.16-16.56,10.439c-3.24-0.359-7.561-2.88-10.44-5.76L1117.12,163.924z M1047.64,27.483
		c30.6,5.761,61.561,7.2,83.521,7.2c3.96,0,5.76,0.72,7.56,3.6c2.88,5.4,1.8,17.28-1.8,20.881c-1.44,1.8-3.601,2.16-6.48,2.16
		c-15.12,0-40.319,0.72-55.08,1.8c-3.96,0.359-6.12,0.359-8.64-1.8c-7.2-5.04-16.561-15.48-21.96-24.48
		c-1.08-2.16-1.08-3.6-0.36-5.04L1047.64,27.483z M1252.12,289.924c0,41.761-36.72,68.04-81.36,68.04
		c-45,0-81.72-26.279-81.72-68.04c0-38.88,36.72-63.359,81.72-63.359C1215.4,226.564,1252.12,251.044,1252.12,289.924z
		 M1210,289.924c0-22.319-17.28-35.279-39.24-35.279c-22.32,0-39.24,12.96-39.24,35.279c0,22.32,16.92,34.92,39.24,34.92
		C1192.72,324.844,1210,312.244,1210,289.924z M1285.6,118.204c10.44-0.36,25.921,0.359,32.4,1.8c4.32,1.08,7.2,4.32,7.561,8.28
		c0.72,8.279-1.44,15.84-4.32,18.72c-2.16,2.52-6.84,3.96-10.44,3.96l-56.52,1.44v0.359c0,21.24-5.4,55.801-12.96,73.44h-24.12
		c-2.521-12.24-4.32-48.24-4.32-62.641V44.403c-5.04-7.92-16.2-15.84-28.44-20.52l4.32-12.96c0.72-1.44,1.8-2.521,5.4-2.521
		c16.92,0.721,43.92,6.12,56.52,11.521c3.601,1.8,5.4,5.04,5.04,9.72l-1.439,21.24v75.96l19.8-1.08L1285.6,118.204z"/>
	<path d="M1633.355,126.844c10.44-0.36,25.921,0.36,32.4,1.8c4.32,1.08,7.2,4.32,7.561,8.28c0.72,8.28-1.44,15.84-4.32,18.72
		c-2.16,2.521-6.84,3.96-10.44,3.96l-56.52,1.44v17.64c0,27.721-5.04,65.521-13.32,86.761h-23.76
		c-2.88-13.681-4.32-56.521-4.32-74.521v-2.52c-47.16,14.399-105.84,24.479-146.88,27.359c-5.04,0.36-9.721,0.721-13.681,0.721
		c-16.56,0-27.72-9-32.399-23.4c-1.08-3.96-2.16-11.16-2.16-19.08v-85.68c-4.68-5.761-13.32-11.16-22.681-14.04l2.881-11.521
		c0.359-1.08,1.439-2.16,3.96-2.16c14.04,0,45.72,1.8,58.319,4.32c13.32-0.36,50.04-1.8,60.48-2.88l10.8-7.2
		c10.08,0,26.28,0.72,34.2,2.52c4.32,0.721,6.12,3.24,6.12,7.2c0,9-2.52,15.84-5.04,18.721c-1.44,1.439-3.6,2.159-6.479,2.159
		l-100.801,3.601v88.2c0,4.68,2.16,6.84,7.2,6.84c39.96-0.36,101.521-7.2,146.16-18V44.403c-5.04-7.92-16.2-15.84-28.44-20.52
		l4.32-12.96c0.72-1.44,1.8-2.521,5.4-2.521c16.92,0.721,43.92,6.12,56.52,11.521c3.601,1.8,5.4,5.04,5.04,9.72l-1.439,21.24v84.6
		l19.8-1.079L1633.355,126.844z M1582.956,311.524c12.24,0,30.24,1.08,38.52,3.24c3.96,0.72,6.48,3.6,6.48,7.199
		c0,10.08-3.24,17.28-5.76,19.801c-1.44,1.8-3.96,2.159-6.841,2.159l-150.12,1.44h-0.359c-27-0.36-37.44-10.8-37.44-32.76v-43.561
		c-5.76-5.04-15.48-10.08-25.2-13.32l2.521-10.439c0.359-1.8,2.52-3.24,5.399-3.24c15.12,0,42.12,1.8,53.641,4.32
		c4.319,1.08,6.84,3.96,6.84,9l-0.72,18.72v37.44c0,6.12,2.52,9,8.64,9c20.521,0.359,69.84-0.36,90.36-1.08L1582.956,311.524z"/>
</g>
</svg>