<!-- Generator: Adobe Illustrator 21.1.0, SVG Export Plug-In  -->
<svg version="1.1"
	 xmlns="http://www.w3.org/2000/svg" xmlns:xlink="http://www.w3.org/1999/xlink" xmlns:a="http://ns.adobe.com/AdobeSVGViewerExtensions/3.0/"
	 x="0px" y="0px" width="139px" height="176.242px" viewBox="0 0 139 176.242" style="enable-background:new 0 0 139 176.242;"
	 xml:space="preserve">
<defs>
</defs>
<g>
	<path d="M11.315,1.47c27.898,19.996,56.737,19.996,84.634,0L98,0C70.999,58.666,36.267,58.666,9.265,0L11.315,1.47z"/>
</g>
<path d="M70.154,138.598c-11.69,1.53-23.381,3.558-35.074,6.146c-5.846,1.311-11.692,2.749-17.539,4.44
	c-5.847,1.661-11.694,3.485-17.542,5.823c5.84,2.358,11.68,4.203,17.521,5.885c5.841,1.712,11.682,3.171,17.523,4.503
	c11.683,2.629,23.367,4.699,35.051,6.271c22.965,3.113,45.934,4.497,68.904,4.577v-41.976
	C116.054,134.268,93.106,135.57,70.154,138.598z"/>
</svg>