<!-- Generator: Adobe Illustrator 21.1.0, SVG Export Plug-In  -->
<svg version="1.1"
	 xmlns="http://www.w3.org/2000/svg" xmlns:xlink="http://www.w3.org/1999/xlink" xmlns:a="http://ns.adobe.com/AdobeSVGViewerExtensions/3.0/"
	 x="0px" y="0px" width="208.069px" height="129.136px" viewBox="0 0 208.069 129.136"
	 style="enable-background:new 0 0 208.069 129.136;" xml:space="preserve">
<style type="text/css">
	.st0{fill:none;stroke:#000000;stroke-miterlimit:10;}
</style>
<defs>
</defs>
<g>
	<g>
		<rect x="204.746" y="57.75" transform="matrix(1 -0.0079 0.0079 1 -0.6841 1.626)" width="2.83" height="59.901"/>
	</g>
</g>
<g>
	<ellipse transform="matrix(0.781 -0.6245 0.6245 0.781 -31.0645 148.9907)" cx="196.918" cy="118.791" rx="12.45" ry="8.737"/>
</g>
<g>
	<g>
		<rect x="18.98" y="57.75" transform="matrix(1 -0.0079 0.0079 1 -0.6899 0.1633)" width="2.83" height="59.901"/>
	</g>
</g>
<g>
	<ellipse transform="matrix(0.781 -0.6245 0.6245 0.781 -71.7444 32.9776)" cx="11.152" cy="118.791" rx="12.45" ry="8.737"/>
</g>
<g>
	<g>
		<rect x="112.274" y="57.75" transform="matrix(1 -0.0079 0.0079 1 -0.687 0.8979)" width="2.83" height="59.901"/>
	</g>
</g>
<g>
	<ellipse transform="matrix(0.781 -0.6245 0.6245 0.781 -51.3145 91.2408)" cx="104.446" cy="118.791" rx="12.45" ry="8.737"/>
</g>
<g>
	<g>
		<rect x="65.627" y="57.75" transform="matrix(1 -0.0079 0.0079 1 -0.6885 0.5306)" width="2.83" height="59.901"/>
	</g>
</g>
<g>
	<ellipse transform="matrix(0.781 -0.6245 0.6245 0.781 -61.5294 62.1092)" cx="57.799" cy="118.791" rx="12.45" ry="8.737"/>
</g>
<g>
	<g>
		<rect x="158.51" y="57.75" transform="matrix(1 -0.0079 0.0079 1 -0.6856 1.2619)" width="2.83" height="59.901"/>
	</g>
</g>
<g>
	<ellipse transform="matrix(0.781 -0.6245 0.6245 0.781 -41.1895 120.1158)" cx="150.682" cy="118.791" rx="12.45" ry="8.737"/>
</g>
<g>
	<g>
		<rect x="18.705" y="55.864" width="188.658" height="9.433"/>
	</g>
</g>
<polyline class="st0" points="20.436,27.601 20.436,8.601 70.436,8.601 "/>
<polyline class="st0" points="205.436,27.601 205.436,8.601 155.436,8.601 "/>
<g>
	<path d="M84.321,1.804c-0.924,0.03-1.632,0.382-2.123,1.057c-0.492,0.675-0.737,1.841-0.737,3.498c0,0.542,0.051,0.92,0.154,1.133
		s0.154,0.334,0.154,0.362c-0.792,0-1.382-0.164-1.771-0.494s-0.583-0.877-0.583-1.64c0-1.041,0.256-1.991,0.77-2.849
		c0.514-0.858,1.331-1.551,2.453-2.079S85.187,0,86.918,0c0.352,0,0.821,0.037,1.408,0.11c1.056,0.103,1.804,0.153,2.244,0.153
		c0.777,0,1.437-0.088,1.979-0.264c-0.043,0.132-0.125,0.422-0.242,0.869s-0.326,0.829-0.627,1.144
		C91.38,2.328,90.973,2.537,90.46,2.64c-0.866,0-1.892-0.139-3.08-0.418L86.455,6.6h3.212l-0.352,1.628h-3.212L84.321,16.5h-3.168
		L84.321,1.804z"/>
	<path d="M89.954,15.752c-0.631-0.558-0.946-1.438-0.946-2.64c0-0.997,0.206-2.104,0.616-3.322c0.41-1.217,1.07-2.27,1.98-3.157
		c0.909-0.887,2.053-1.331,3.432-1.331c1.877,0,2.816,1.174,2.816,3.521v0.021c0.044,0.015,0.125,0.022,0.242,0.022
		c0.484,0,1.041-0.129,1.672-0.385c0.631-0.257,1.202-0.568,1.716-0.936l0.198,0.594c-0.426,0.455-0.979,0.84-1.661,1.155
		c-0.683,0.315-1.427,0.539-2.233,0.671c-0.117,1.335-0.418,2.501-0.902,3.498c-0.483,0.998-1.107,1.768-1.869,2.311
		c-0.764,0.542-1.592,0.813-2.486,0.813C91.442,16.588,90.584,16.31,89.954,15.752z M94.463,14.003
		c0.353-0.403,0.66-0.953,0.924-1.65c0.265-0.696,0.455-1.47,0.572-2.32c-0.396-0.088-0.594-0.396-0.594-0.924
		c0-0.602,0.228-0.998,0.682-1.188c-0.029-0.484-0.102-0.817-0.219-1.001c-0.118-0.184-0.323-0.275-0.617-0.275
		c-0.483,0-0.953,0.353-1.408,1.057c-0.454,0.704-0.82,1.548-1.1,2.53c-0.278,0.982-0.417,1.848-0.417,2.596
		c0,0.704,0.08,1.177,0.242,1.419c0.161,0.242,0.455,0.363,0.88,0.363C93.76,14.608,94.111,14.406,94.463,14.003z"/>
	<path d="M100.469,5.5h3.168l-0.285,1.364c0.498-0.44,0.949-0.777,1.353-1.013c0.403-0.234,0.839-0.352,1.31-0.352
		c0.469,0,0.839,0.161,1.11,0.484c0.271,0.322,0.407,0.711,0.407,1.166c0,0.425-0.14,0.799-0.418,1.122
		c-0.279,0.322-0.668,0.483-1.166,0.483c-0.322,0-0.539-0.077-0.648-0.23c-0.111-0.154-0.195-0.378-0.254-0.672
		c-0.044-0.19-0.088-0.329-0.132-0.418c-0.044-0.088-0.124-0.132-0.241-0.132c-0.309,0-0.569,0.062-0.781,0.188
		c-0.213,0.125-0.488,0.341-0.826,0.648l-1.76,8.36h-3.168L100.469,5.5z"/>
	<path d="M117.409,1.54c-0.983,0.411-1.741,1.026-2.277,1.848c-0.535,0.822-0.803,1.812-0.803,2.971c0,0.542,0.052,0.92,0.153,1.133
		c0.104,0.213,0.154,0.334,0.154,0.362c-0.791,0-1.383-0.164-1.771-0.494c-0.39-0.33-0.583-0.877-0.583-1.64
		c0-0.938,0.385-1.852,1.154-2.738c0.771-0.888,1.757-1.606,2.959-2.156C117.6,0.275,118.803,0,120.005,0
		c0.206,0,0.499,0.015,0.88,0.044L119.477,6.6h3.234l1.408-6.556h3.168L123.789,16.5h-3.168l1.76-8.272h-3.234l-1.76,8.272h-3.168
		L117.409,1.54z"/>
	<path d="M127.122,15.972c-0.433-0.439-0.649-1.1-0.649-1.979c0-0.366,0.059-0.844,0.176-1.431l1.496-7.062h3.168l-1.584,7.48
		c-0.059,0.22-0.088,0.454-0.088,0.703c0,0.294,0.07,0.503,0.209,0.627c0.14,0.125,0.371,0.188,0.693,0.188
		c0.426,0,0.821-0.18,1.188-0.539c0.367-0.359,0.631-0.825,0.793-1.397h0.924c-0.543,1.585-1.24,2.659-2.09,3.224
		c-0.852,0.564-1.694,0.847-2.53,0.847C128.123,16.632,127.555,16.412,127.122,15.972z M129.091,3.806
		c-0.337-0.337-0.506-0.748-0.506-1.231c0-0.484,0.169-0.898,0.506-1.243s0.748-0.517,1.231-0.517c0.484,0,0.898,0.172,1.244,0.517
		c0.344,0.345,0.517,0.759,0.517,1.243c0,0.483-0.173,0.895-0.517,1.231c-0.346,0.338-0.76,0.506-1.244,0.506
		C129.839,4.312,129.428,4.144,129.091,3.806z"/>
	<path d="M143.83,15.928c-0.352-0.469-0.527-1.062-0.527-1.781c0-0.309,0.036-0.656,0.109-1.046c0.074-0.388,0.15-0.766,0.231-1.133
		c0.081-0.366,0.136-0.601,0.165-0.704c0.117-0.513,0.227-1.019,0.33-1.518c0.102-0.498,0.154-0.902,0.154-1.21
		c0-0.748-0.265-1.122-0.793-1.122c-0.381,0-0.719,0.187-1.012,0.561s-0.527,0.862-0.703,1.464l-1.496,7.062h-3.168l1.605-7.59
		c0.044-0.176,0.066-0.359,0.066-0.55c0-0.646-0.221-0.969-0.66-0.969c-0.411,0-0.768,0.188-1.067,0.562
		c-0.301,0.374-0.539,0.869-0.715,1.485l-1.496,7.062h-3.168l2.332-11h3.168l-0.242,1.144c0.748-0.836,1.643-1.254,2.685-1.254
		c1.29,0,2.045,0.631,2.266,1.893c0.807-1.247,1.826-1.87,3.059-1.87c0.748,0,1.342,0.205,1.781,0.616
		c0.439,0.41,0.66,1.033,0.66,1.87c0,0.425-0.052,0.898-0.154,1.419s-0.25,1.154-0.439,1.902c-0.117,0.455-0.225,0.898-0.319,1.331
		c-0.096,0.433-0.144,0.774-0.144,1.023c0,0.293,0.066,0.521,0.199,0.682c0.131,0.162,0.358,0.242,0.682,0.242
		c0.352,0,0.594-0.044,0.726-0.132c-0.088,0.748-0.355,1.312-0.803,1.693c-0.448,0.382-0.987,0.572-1.617,0.572
		C144.747,16.632,144.183,16.397,143.83,15.928z"/>
</g>
</svg>