<!-- Generator: Adobe Illustrator 21.1.0, SVG Export Plug-In  -->
<svg version="1.1"
	 xmlns="http://www.w3.org/2000/svg" xmlns:xlink="http://www.w3.org/1999/xlink" xmlns:a="http://ns.adobe.com/AdobeSVGViewerExtensions/3.0/"
	 x="0px" y="0px" width="54.077px" height="165.432px" viewBox="0 0 54.077 165.432"
	 style="enable-background:new 0 0 54.077 165.432;" xml:space="preserve">
<defs>
</defs>
<g>
	<path d="M3.253,1.907C3.505,1.954,3.734,2.032,3.942,2.14C4.15,2.249,4.331,2.381,4.483,2.536s0.271,0.331,0.355,0.527
		S4.967,3.472,4.967,3.7c0,0.135-0.013,0.26-0.04,0.373c-0.025,0.115-0.065,0.23-0.118,0.348c0.158,0.012,0.309,0.023,0.452,0.035
		S5.518,4.471,5.6,4.465s0.185-0.01,0.308-0.013s0.246-0.005,0.369-0.005V2.725C6.054,2.73,5.819,2.748,5.573,2.777
		S5.075,2.859,4.817,2.936L4.343,2.127C4.401,2.139,4.476,2.15,4.567,2.162c0.09,0.012,0.188,0.023,0.294,0.035
		s0.211,0.021,0.316,0.026s0.202,0.009,0.29,0.009c0.082-0.006,0.2-0.01,0.355-0.013S6.13,2.215,6.276,2.215V1.116
		c0-0.17-0.087-0.309-0.26-0.418C5.844,0.591,5.564,0.486,5.178,0.387L5.38,0c0.135,0.018,0.293,0.041,0.475,0.07
		s0.366,0.062,0.554,0.097s0.367,0.067,0.54,0.097s0.315,0.053,0.427,0.07C7.363,0.387,7.352,0.457,7.34,0.545
		S7.317,0.721,7.31,0.809C7.3,0.896,7.293,0.975,7.287,1.042S7.278,1.146,7.278,1.151v4.825c0,0.182-0.004,0.392-0.014,0.628
		C7.257,6.843,7.243,7.081,7.226,7.321S7.188,7.79,7.169,8.007c-0.021,0.217-0.043,0.39-0.066,0.519L6.373,8.631
		C6.355,8.537,6.341,8.409,6.329,8.249C6.317,8.087,6.308,7.913,6.298,7.726C6.29,7.538,6.283,7.348,6.28,7.154
		S6.276,6.779,6.276,6.609v-1.67C6.048,4.951,5.799,4.974,5.529,5.005C5.26,5.038,4.987,5.086,4.712,5.15L4.545,4.816
		C4.357,5.039,4.111,5.216,3.807,5.349C3.502,5.479,3.165,5.546,2.796,5.546c-0.322,0-0.618-0.047-0.888-0.141
		S1.407,5.183,1.214,5.019S0.869,4.66,0.761,4.435S0.599,3.964,0.599,3.7c0-0.234,0.045-0.454,0.137-0.659
		c0.09-0.205,0.218-0.388,0.382-0.55c0.164-0.16,0.36-0.292,0.589-0.395s0.478-0.169,0.747-0.198
		c0.006-0.094-0.017-0.167-0.065-0.22C2.337,1.626,2.239,1.576,2.093,1.529l0.141-0.334c0.07,0.018,0.156,0.038,0.26,0.062
		c0.102,0.023,0.209,0.047,0.32,0.07s0.218,0.046,0.32,0.066S3.32,1.433,3.385,1.45C3.361,1.497,3.339,1.563,3.319,1.647
		C3.298,1.733,3.276,1.819,3.253,1.907z M3.956,3.674c0-0.182-0.031-0.35-0.092-0.505C3.802,3.014,3.72,2.878,3.618,2.765
		C3.515,2.649,3.395,2.56,3.257,2.491C3.119,2.425,2.972,2.391,2.813,2.391S2.506,2.425,2.365,2.491
		C2.225,2.56,2.099,2.649,1.987,2.765C1.876,2.878,1.788,3.014,1.724,3.169S1.627,3.492,1.627,3.674c0,0.188,0.032,0.357,0.097,0.51
		s0.152,0.283,0.264,0.392s0.237,0.193,0.378,0.254c0.141,0.062,0.29,0.093,0.448,0.093s0.306-0.03,0.443-0.093
		c0.138-0.061,0.26-0.146,0.365-0.254S3.81,4.336,3.868,4.184S3.956,3.861,3.956,3.674z"/>
	<path d="M11.972,4.043c0.311,0.24,0.648,0.5,1.015,0.778s0.731,0.531,1.095,0.76l-0.729,0.65c-0.281-0.299-0.566-0.602-0.857-0.91
		c-0.289-0.307-0.581-0.602-0.874-0.883C11.233,4.843,10.81,5.216,10.35,5.56C9.89,5.901,9.411,6.217,8.913,6.504L8.649,6.17
		c0.398-0.258,0.78-0.55,1.147-0.874c0.365-0.326,0.698-0.665,0.997-1.02s0.558-0.718,0.778-1.09
		c0.219-0.372,0.382-0.734,0.487-1.086c-0.088,0-0.19,0.003-0.308,0.009s-0.237,0.012-0.36,0.018s-0.243,0.012-0.36,0.018
		s-0.217,0.009-0.299,0.009c-0.064,0-0.151,0.006-0.26,0.018s-0.226,0.023-0.352,0.035S9.869,2.232,9.744,2.25
		C9.617,2.268,9.505,2.282,9.405,2.294L8.869,1.459c0.076,0.012,0.179,0.026,0.308,0.044s0.265,0.034,0.409,0.049
		c0.143,0.015,0.285,0.027,0.426,0.039s0.261,0.018,0.36,0.018c0.211,0,0.437-0.004,0.677-0.014c0.24-0.008,0.479-0.021,0.717-0.039
		c0.236-0.018,0.464-0.041,0.681-0.07s0.41-0.062,0.58-0.097l0.334,0.308c-0.152,0.434-0.346,0.844-0.58,1.23
		S12.276,3.686,11.972,4.043z M15.241,5.977c0,0.182-0.003,0.392-0.009,0.628c-0.006,0.238-0.015,0.477-0.026,0.717
		S15.18,7.79,15.162,8.007s-0.035,0.39-0.053,0.519l-0.773,0.105c-0.012-0.094-0.021-0.222-0.031-0.382
		c-0.008-0.162-0.018-0.336-0.025-0.523c-0.01-0.188-0.017-0.378-0.022-0.571s-0.009-0.375-0.009-0.545V1.116
		c0-0.17-0.081-0.309-0.242-0.418c-0.161-0.107-0.435-0.212-0.821-0.312L13.334,0c0.146,0.018,0.314,0.041,0.506,0.07
		c0.189,0.029,0.377,0.062,0.562,0.097c0.184,0.035,0.359,0.067,0.527,0.097c0.166,0.029,0.303,0.053,0.408,0.07
		c-0.012,0.053-0.023,0.123-0.035,0.211s-0.021,0.176-0.031,0.264c-0.008,0.088-0.016,0.166-0.021,0.233s-0.009,0.104-0.009,0.109
		v2.487c0.129-0.012,0.272-0.026,0.431-0.044s0.314-0.035,0.471-0.053c0.154-0.018,0.306-0.036,0.452-0.057s0.275-0.046,0.387-0.075
		l-0.07,0.817c-0.094-0.006-0.21-0.009-0.347-0.009c-0.139,0-0.283,0-0.436,0s-0.307,0-0.461,0c-0.156,0-0.298,0-0.427,0V5.977z"/>
	<path d="M24.707,6.592c0.211-0.012,0.402-0.021,0.576-0.026c0.172-0.006,0.314-0.012,0.426-0.018
		c0.193-0.012,0.396-0.026,0.606-0.044s0.42-0.036,0.628-0.058c0.208-0.02,0.409-0.04,0.603-0.061s0.369-0.04,0.527-0.058
		L27.95,7.146c-0.117-0.006-0.257-0.012-0.417-0.018c-0.162-0.006-0.338-0.01-0.527-0.014c-0.191-0.002-0.387-0.005-0.59-0.008
		c-0.201-0.003-0.399-0.005-0.593-0.005c-0.158,0-0.354,0.002-0.585,0.005s-0.48,0.008-0.746,0.018
		c-0.268,0.008-0.541,0.018-0.822,0.025c-0.281,0.01-0.548,0.018-0.8,0.027c-0.252,0.008-0.48,0.019-0.686,0.03
		s-0.363,0.021-0.475,0.026c-0.223,0.012-0.469,0.031-0.738,0.057c-0.27,0.027-0.513,0.058-0.729,0.093l-0.325-0.914
		c0.129,0.018,0.269,0.035,0.417,0.053c0.15,0.018,0.304,0.032,0.462,0.044s0.314,0.021,0.47,0.031
		c0.155,0.008,0.301,0.016,0.436,0.021c0.105,0.006,0.232,0.009,0.383,0.009c0.148,0,0.312,0,0.487,0s0.36-0.001,0.554-0.004
		s0.39-0.008,0.589-0.014V4.491c-0.328,0.012-0.633,0.023-0.914,0.035s-0.524,0.021-0.729,0.026c-0.117,0.012-0.217,0-0.299-0.035
		s-0.149-0.083-0.202-0.146c-0.053-0.061-0.091-0.134-0.114-0.219S21.42,3.979,21.42,3.885V2.021c0-0.117-0.012-0.214-0.035-0.29
		s-0.066-0.141-0.127-0.193c-0.062-0.053-0.15-0.098-0.264-0.137c-0.115-0.037-0.26-0.077-0.436-0.118l0.202-0.387
		c0.076,0.012,0.191,0.028,0.347,0.048c0.155,0.021,0.318,0.042,0.488,0.062s0.334,0.041,0.492,0.061
		c0.158,0.021,0.284,0.04,0.378,0.058c-0.012,0.064-0.023,0.171-0.035,0.321c-0.012,0.148-0.018,0.279-0.018,0.391V3.7
		c0,0.1,0.015,0.17,0.044,0.211s0.088,0.064,0.176,0.07c0.217,0.006,0.51,0,0.879-0.018s0.76-0.039,1.174-0.066
		c0.412-0.025,0.818-0.057,1.217-0.092s0.732-0.07,1.002-0.105l-0.123,0.791c-0.299-0.012-0.627-0.019-0.984-0.021
		s-0.721-0.005-1.09-0.005V6.592z"/>
	<path d="M31.527,2.109c-0.094,0-0.176,0-0.246,0s-0.14,0.002-0.206,0.005c-0.068,0.003-0.14,0.008-0.216,0.018
		c-0.076,0.008-0.167,0.019-0.272,0.03c-0.047,0.006-0.122,0.013-0.225,0.022c-0.103,0.008-0.214,0.021-0.334,0.035
		s-0.243,0.03-0.369,0.048s-0.238,0.035-0.338,0.053l-0.448-0.826c0.064,0.012,0.159,0.026,0.286,0.044
		c0.125,0.018,0.257,0.034,0.395,0.049s0.27,0.025,0.396,0.035c0.125,0.008,0.224,0.013,0.294,0.013
		c0.299,0,0.663-0.009,1.095-0.026c0.43-0.018,0.874-0.05,1.331-0.097c-0.012,0.035-0.025,0.087-0.04,0.153
		c-0.015,0.068-0.03,0.139-0.048,0.211c-0.018,0.074-0.032,0.143-0.044,0.207s-0.021,0.111-0.026,0.141L32.38,3.393
		c0.047-0.012,0.089-0.019,0.127-0.022c0.038-0.002,0.087-0.007,0.146-0.013l-0.079,0.677c-0.445-0.041-0.84-0.053-1.182-0.035
		c-0.344,0.018-0.652,0.035-0.928,0.053c0,0.047-0.003,0.087-0.009,0.119s-0.009,0.071-0.009,0.118v1.116
		c0,0.082,0.01,0.143,0.031,0.18c0.02,0.039,0.042,0.058,0.065,0.058c0.346-0.023,0.736-0.089,1.173-0.198
		c0.437-0.107,0.898-0.229,1.385-0.364V1.45c0-0.082-0.011-0.155-0.031-0.22s-0.061-0.124-0.123-0.181
		c-0.061-0.055-0.15-0.106-0.268-0.153s-0.27-0.094-0.457-0.141l0.176-0.378c0.146,0.018,0.302,0.039,0.466,0.066
		c0.164,0.025,0.325,0.056,0.483,0.088s0.309,0.064,0.453,0.096c0.143,0.033,0.271,0.063,0.382,0.093
		c-0.006,0.053-0.015,0.122-0.026,0.206c-0.012,0.086-0.021,0.171-0.031,0.256c-0.008,0.085-0.016,0.159-0.021,0.224
		s-0.009,0.1-0.009,0.105v2.18c0.105-0.012,0.229-0.022,0.374-0.03c0.143-0.01,0.265-0.02,0.364-0.031V1.116
		c0-0.17-0.069-0.311-0.206-0.422c-0.139-0.111-0.397-0.214-0.778-0.308L34.015,0c0.141,0.018,0.297,0.043,0.471,0.075
		c0.172,0.032,0.345,0.064,0.518,0.096c0.173,0.033,0.339,0.065,0.497,0.098s0.293,0.06,0.404,0.083
		c-0.012,0.053-0.022,0.123-0.03,0.211c-0.01,0.088-0.018,0.173-0.027,0.255c-0.008,0.082-0.016,0.157-0.021,0.225
		s-0.009,0.104-0.009,0.109v4.825c0,0.182-0.005,0.389-0.013,0.62c-0.01,0.231-0.021,0.465-0.035,0.703
		c-0.016,0.236-0.033,0.464-0.053,0.681c-0.021,0.217-0.04,0.398-0.058,0.545l-0.773,0.105c-0.006-0.111-0.012-0.248-0.018-0.409
		s-0.012-0.334-0.018-0.518c-0.006-0.186-0.011-0.371-0.013-0.559c-0.004-0.188-0.005-0.366-0.005-0.536V4.219
		c-0.1,0.006-0.223,0.009-0.369,0.009s-0.27,0.003-0.369,0.009V5.66c0,0.182-0.005,0.39-0.013,0.624
		c-0.01,0.234-0.021,0.471-0.035,0.707c-0.016,0.238-0.033,0.465-0.053,0.682c-0.021,0.217-0.043,0.398-0.066,0.545L33.18,8.314
		c-0.012-0.111-0.022-0.248-0.03-0.409c-0.01-0.161-0.017-0.332-0.022-0.514s-0.012-0.366-0.018-0.554s-0.009-0.366-0.009-0.536
		V5.537c-0.469,0.17-0.917,0.324-1.345,0.462s-0.87,0.238-1.327,0.303c-0.375,0.053-0.632,0.006-0.77-0.141
		c-0.138-0.146-0.206-0.359-0.206-0.64V4.418c0-0.105-0.006-0.189-0.018-0.254s-0.038-0.118-0.079-0.162s-0.104-0.083-0.189-0.118
		S28.97,3.811,28.829,3.77l0.185-0.333c0.422,0.029,0.839,0.047,1.253,0.053c0.412,0.006,0.81-0.003,1.19-0.026L31.527,2.109z"/>
	<path d="M41.204,6.557c0.334-0.018,0.643-0.03,0.927-0.04c0.284-0.008,0.512-0.021,0.682-0.039
		c0.193-0.006,0.396-0.016,0.606-0.031c0.211-0.014,0.42-0.03,0.628-0.048s0.409-0.036,0.603-0.058
		c0.193-0.02,0.369-0.042,0.527-0.065l-0.123,0.817c-0.117-0.006-0.257-0.012-0.417-0.018c-0.162-0.006-0.338-0.01-0.527-0.014
		c-0.191-0.002-0.387-0.005-0.59-0.008c-0.201-0.003-0.399-0.005-0.593-0.005c-0.158,0-0.354,0.002-0.585,0.005
		s-0.48,0.008-0.746,0.018c-0.268,0.008-0.541,0.016-0.822,0.021s-0.548,0.014-0.8,0.021c-0.252,0.01-0.48,0.02-0.686,0.031
		s-0.363,0.021-0.475,0.026c-0.223,0.012-0.469,0.029-0.738,0.053s-0.513,0.05-0.729,0.079l-0.325-0.879
		c0.129,0.018,0.269,0.035,0.417,0.053c0.15,0.018,0.304,0.032,0.462,0.044s0.314,0.022,0.47,0.03
		c0.155,0.01,0.301,0.017,0.436,0.022c0.164,0.012,0.369,0.016,0.615,0.013s0.516-0.007,0.809-0.013V4.351
		c0-0.088-0.009-0.162-0.026-0.225c-0.018-0.061-0.055-0.115-0.11-0.162s-0.135-0.088-0.236-0.123
		c-0.104-0.035-0.239-0.067-0.409-0.097l0.193-0.387c0.088,0.012,0.205,0.025,0.352,0.04s0.3,0.033,0.462,0.057
		c0.16,0.023,0.317,0.049,0.47,0.074c0.152,0.027,0.281,0.052,0.387,0.075c-0.012,0.053-0.023,0.117-0.035,0.193
		s-0.023,0.151-0.035,0.224c-0.012,0.074-0.021,0.141-0.026,0.203c-0.006,0.061-0.009,0.101-0.009,0.118V6.557z M42.417,5.432
		c0.059-0.281,0.117-0.59,0.176-0.927s0.11-0.678,0.153-1.02c0.045-0.344,0.082-0.673,0.115-0.989
		c0.031-0.316,0.054-0.595,0.065-0.835c-0.217,0-0.457,0.002-0.721,0.004c-0.264,0.004-0.529,0.007-0.796,0.01
		s-0.521,0.008-0.764,0.018c-0.244,0.008-0.453,0.019-0.629,0.03c-0.088,0.012-0.196,0.023-0.325,0.035s-0.266,0.026-0.409,0.044
		s-0.289,0.038-0.439,0.062c-0.148,0.023-0.288,0.047-0.417,0.07l-0.422-0.826c0.111,0.012,0.238,0.022,0.382,0.03
		c0.144,0.01,0.289,0.02,0.436,0.031s0.285,0.021,0.418,0.026c0.131,0.006,0.244,0.009,0.338,0.009c0.311,0,0.659-0.004,1.046-0.014
		c0.387-0.008,0.774-0.021,1.165-0.039c0.389-0.018,0.764-0.041,1.125-0.07c0.359-0.029,0.672-0.064,0.936-0.105l0.281,0.272
		c-0.1,0.691-0.226,1.401-0.378,2.132c-0.152,0.729-0.346,1.413-0.58,2.052H42.417z"/>
	<path d="M3.276,41.107c0.252,0.047,0.481,0.125,0.689,0.232c0.208,0.109,0.389,0.241,0.541,0.396s0.271,0.331,0.355,0.527
		S4.99,42.672,4.99,42.9c0,0.135-0.013,0.26-0.04,0.373c-0.025,0.115-0.065,0.23-0.118,0.348c0.158,0.012,0.309,0.023,0.452,0.035
		s0.257,0.015,0.339,0.009s0.185-0.01,0.308-0.013s0.246-0.005,0.369-0.005v-1.723c-0.223,0.006-0.457,0.023-0.703,0.053
		s-0.498,0.082-0.756,0.158l-0.475-0.809c0.059,0.012,0.133,0.023,0.225,0.035c0.09,0.012,0.188,0.023,0.294,0.035
		s0.211,0.021,0.316,0.026s0.202,0.009,0.29,0.009c0.082-0.006,0.2-0.01,0.355-0.013s0.307-0.005,0.453-0.005v-1.099
		c0-0.17-0.087-0.309-0.26-0.418c-0.173-0.107-0.452-0.212-0.839-0.312L5.403,39.2c0.135,0.018,0.293,0.041,0.475,0.07
		s0.366,0.062,0.554,0.097s0.367,0.067,0.54,0.097s0.315,0.053,0.427,0.07c-0.012,0.053-0.023,0.123-0.035,0.211
		s-0.022,0.176-0.03,0.264c-0.01,0.088-0.017,0.166-0.022,0.233s-0.009,0.104-0.009,0.109v4.825c0,0.182-0.004,0.392-0.014,0.628
		c-0.008,0.238-0.021,0.477-0.039,0.717s-0.037,0.469-0.057,0.686c-0.021,0.217-0.043,0.39-0.066,0.519l-0.729,0.105
		c-0.018-0.094-0.032-0.222-0.044-0.382c-0.012-0.162-0.021-0.336-0.031-0.523c-0.008-0.188-0.015-0.378-0.018-0.571
		S6.3,45.979,6.3,45.81v-1.67c-0.229,0.012-0.478,0.034-0.747,0.065c-0.27,0.033-0.542,0.081-0.817,0.146l-0.167-0.334
		c-0.188,0.223-0.434,0.399-0.738,0.532c-0.305,0.131-0.642,0.197-1.011,0.197c-0.322,0-0.618-0.047-0.888-0.141
		s-0.501-0.223-0.694-0.387s-0.345-0.358-0.453-0.584S0.622,43.164,0.622,42.9c0-0.234,0.045-0.454,0.137-0.659
		c0.09-0.205,0.218-0.388,0.382-0.55c0.164-0.16,0.36-0.292,0.589-0.395s0.478-0.169,0.747-0.198
		c0.006-0.094-0.017-0.167-0.065-0.22c-0.051-0.053-0.148-0.103-0.295-0.149l0.141-0.334c0.07,0.018,0.156,0.038,0.26,0.062
		c0.102,0.023,0.209,0.047,0.32,0.07s0.218,0.046,0.32,0.066s0.187,0.039,0.251,0.057c-0.023,0.047-0.046,0.113-0.065,0.197
		C3.321,40.934,3.3,41.02,3.276,41.107z M3.979,42.874c0-0.182-0.031-0.35-0.092-0.505c-0.062-0.155-0.145-0.291-0.246-0.404
		C3.538,41.85,3.418,41.76,3.28,41.691c-0.138-0.066-0.285-0.101-0.443-0.101s-0.308,0.034-0.448,0.101
		c-0.141,0.068-0.267,0.158-0.378,0.273c-0.111,0.113-0.199,0.249-0.264,0.404S1.65,42.692,1.65,42.874
		c0,0.188,0.032,0.357,0.097,0.51s0.152,0.283,0.264,0.392s0.237,0.193,0.378,0.254c0.141,0.062,0.29,0.093,0.448,0.093
		s0.306-0.03,0.443-0.093c0.138-0.061,0.26-0.146,0.365-0.254s0.188-0.239,0.246-0.392S3.979,43.062,3.979,42.874z"/>
	<path d="M11.995,43.243c0.311,0.24,0.648,0.5,1.015,0.778s0.731,0.531,1.095,0.76l-0.729,0.65c-0.281-0.299-0.566-0.602-0.857-0.91
		c-0.289-0.307-0.581-0.602-0.874-0.883c-0.387,0.404-0.811,0.777-1.271,1.121c-0.46,0.342-0.938,0.657-1.437,0.944L8.673,45.37
		c0.398-0.258,0.78-0.55,1.147-0.874c0.365-0.326,0.698-0.665,0.997-1.02s0.558-0.718,0.778-1.09
		c0.219-0.372,0.382-0.734,0.487-1.086c-0.088,0-0.19,0.003-0.308,0.009s-0.237,0.012-0.36,0.018s-0.243,0.012-0.36,0.018
		s-0.217,0.009-0.299,0.009c-0.064,0-0.151,0.006-0.26,0.018s-0.226,0.023-0.352,0.035s-0.252,0.026-0.377,0.044
		c-0.127,0.018-0.239,0.032-0.339,0.044l-0.536-0.835c0.076,0.012,0.179,0.026,0.308,0.044s0.265,0.034,0.409,0.049
		c0.143,0.015,0.285,0.027,0.426,0.039s0.261,0.018,0.36,0.018c0.211,0,0.437-0.004,0.677-0.014c0.24-0.008,0.479-0.021,0.717-0.039
		c0.236-0.018,0.464-0.041,0.681-0.07s0.41-0.062,0.58-0.097l0.334,0.308c-0.152,0.434-0.346,0.844-0.58,1.23
		S12.3,42.886,11.995,43.243z M15.265,45.177c0,0.182-0.003,0.392-0.009,0.628c-0.006,0.238-0.015,0.477-0.026,0.717
		s-0.026,0.469-0.044,0.686s-0.035,0.39-0.053,0.519l-0.773,0.105c-0.012-0.094-0.021-0.222-0.031-0.382
		c-0.008-0.162-0.018-0.336-0.025-0.523c-0.01-0.188-0.017-0.378-0.022-0.571s-0.009-0.375-0.009-0.545v-5.493
		c0-0.17-0.081-0.309-0.242-0.418c-0.161-0.107-0.435-0.212-0.821-0.312l0.149-0.387c0.146,0.018,0.314,0.041,0.506,0.07
		c0.189,0.029,0.377,0.062,0.562,0.097c0.184,0.035,0.359,0.067,0.527,0.097c0.166,0.029,0.303,0.053,0.408,0.07
		c-0.012,0.053-0.023,0.123-0.035,0.211s-0.021,0.176-0.031,0.264c-0.008,0.088-0.016,0.166-0.021,0.233s-0.009,0.104-0.009,0.109
		v2.487c0.129-0.012,0.272-0.026,0.431-0.044s0.314-0.035,0.471-0.053c0.154-0.018,0.306-0.036,0.452-0.057s0.275-0.046,0.387-0.075
		l-0.07,0.817c-0.094-0.006-0.21-0.009-0.347-0.009c-0.139,0-0.283,0-0.436,0s-0.307,0-0.461,0c-0.156,0-0.298,0-0.427,0V45.177z"/>
	<path d="M24.704,43.92c0,0.134-0.006,0.277-0.018,0.431s-0.026,0.3-0.044,0.439c0.346-0.012,0.675-0.027,0.988-0.048
		s0.62-0.043,0.919-0.066c-0.029,0.276-0.064,0.592-0.105,0.948c-0.041,0.355-0.082,0.691-0.123,1.01
		c0.064-0.012,0.123-0.02,0.176-0.022s0.103-0.007,0.149-0.014l-0.176,0.75c-0.193-0.018-0.436-0.029-0.725-0.035
		c-0.291-0.006-0.598-0.011-0.924-0.014c-0.324-0.003-0.653-0.001-0.984,0.005s-0.628,0.015-0.892,0.026
		c-0.006,0.035-0.011,0.077-0.013,0.127c-0.004,0.05-0.011,0.107-0.022,0.172l-0.721,0.123c-0.029-0.129-0.052-0.237-0.065-0.325
		c-0.016-0.088-0.027-0.167-0.035-0.237c-0.01-0.07-0.017-0.135-0.022-0.193s-0.015-0.126-0.026-0.202l-0.097-1.125
		c-0.006-0.105-0.013-0.188-0.022-0.246c-0.008-0.059-0.032-0.108-0.07-0.149s-0.096-0.074-0.176-0.102
		c-0.078-0.025-0.188-0.057-0.329-0.092l0.185-0.378c0.334,0.035,0.683,0.061,1.046,0.075s0.732,0.024,1.107,0.03
		c-0.006-0.141-0.006-0.281,0-0.422s0.009-0.255,0.009-0.343V43.92c-0.229,0.006-0.451,0.014-0.668,0.021
		c-0.217,0.01-0.421,0.017-0.611,0.022s-0.358,0.012-0.505,0.018s-0.264,0.012-0.352,0.018c-0.105,0.006-0.222,0.013-0.347,0.022
		c-0.127,0.008-0.254,0.019-0.383,0.03s-0.257,0.025-0.383,0.04s-0.238,0.027-0.338,0.039l-0.352-0.87
		c0.264,0.029,0.562,0.058,0.896,0.083c0.334,0.027,0.633,0.046,0.896,0.058c0.141,0.006,0.325,0.009,0.554,0.009
		s0.479-0.003,0.751-0.009c0.273-0.006,0.557-0.012,0.854-0.018c0.295-0.006,0.58-0.012,0.852-0.018
		c0.273-0.006,0.523-0.013,0.752-0.022c0.229-0.008,0.413-0.016,0.554-0.021c0.193-0.006,0.396-0.018,0.606-0.035
		s0.42-0.036,0.629-0.057c0.207-0.021,0.408-0.041,0.602-0.062c0.193-0.02,0.372-0.042,0.536-0.065l-0.141,0.826
		c-0.117-0.006-0.257-0.012-0.417-0.018c-0.162-0.006-0.336-0.01-0.523-0.013s-0.381-0.008-0.58-0.014s-0.396-0.009-0.589-0.009
		c-0.152,0-0.336,0-0.55,0s-0.458,0.009-0.733,0.026V43.92z M24.818,41.714c0.205,0.047,0.42,0.091,0.646,0.132
		c0.225,0.041,0.453,0.079,0.686,0.114c0.23,0.035,0.461,0.065,0.689,0.093c0.229,0.025,0.448,0.048,0.659,0.065l-0.571,0.729
		c-0.141-0.053-0.32-0.112-0.541-0.18c-0.219-0.067-0.454-0.14-0.703-0.216S25.18,42.3,24.92,42.224
		c-0.262-0.076-0.503-0.146-0.726-0.211c-0.521,0.246-1.066,0.451-1.635,0.615s-1.146,0.299-1.731,0.404l-0.264-0.334
		c0.434-0.094,0.855-0.209,1.266-0.347s0.797-0.287,1.16-0.449c0.363-0.16,0.695-0.33,0.998-0.51
		c0.301-0.178,0.561-0.353,0.777-0.522c-0.334,0-0.639,0-0.914,0s-0.562,0.018-0.861,0.053c-0.059,0.012-0.144,0.026-0.255,0.044
		s-0.23,0.035-0.356,0.053s-0.253,0.037-0.382,0.057c-0.129,0.021-0.237,0.037-0.325,0.049l-0.554-0.817
		c0.076,0.012,0.181,0.025,0.312,0.04c0.133,0.015,0.273,0.027,0.422,0.039c0.15,0.012,0.295,0.023,0.436,0.035
		s0.261,0.018,0.36,0.018c0.211,0,0.464-0.003,0.761-0.009c0.295-0.006,0.604-0.018,0.927-0.035s0.643-0.041,0.962-0.07
		s0.605-0.067,0.857-0.114l0.334,0.36c-0.246,0.223-0.509,0.43-0.787,0.62S25.129,41.556,24.818,41.714z M25.179,40
		c-0.1,0-0.219,0-0.356,0s-0.275,0.002-0.412,0.004c-0.139,0.004-0.268,0.007-0.387,0.01c-0.121,0.003-0.21,0.004-0.269,0.004
		c-0.041,0-0.11,0.003-0.206,0.009c-0.098,0.006-0.2,0.013-0.309,0.022c-0.108,0.008-0.215,0.019-0.32,0.03s-0.19,0.023-0.255,0.035
		l-0.448-0.782c0.076,0.018,0.183,0.037,0.32,0.057c0.138,0.021,0.278,0.039,0.422,0.053c0.144,0.016,0.277,0.027,0.4,0.035
		c0.123,0.01,0.211,0.014,0.264,0.014c0.064,0,0.167-0.003,0.308-0.009s0.294-0.015,0.462-0.026c0.166-0.012,0.336-0.023,0.51-0.035
		c0.172-0.012,0.329-0.026,0.47-0.044L25.179,40z M25.451,45.335c-0.176-0.006-0.375-0.01-0.598-0.013s-0.447-0.002-0.672,0.004
		c-0.227,0.006-0.444,0.014-0.655,0.021c-0.211,0.01-0.396,0.02-0.554,0.031v1.389c0.369-0.006,0.773-0.018,1.213-0.035
		s0.861-0.035,1.266-0.053V45.335z"/>
	<path d="M31.63,41.107c0.252,0.047,0.481,0.125,0.689,0.232c0.208,0.109,0.389,0.241,0.541,0.396s0.271,0.331,0.355,0.527
		s0.128,0.408,0.128,0.637c0,0.264-0.056,0.509-0.167,0.734s-0.264,0.42-0.457,0.584s-0.422,0.293-0.686,0.387
		s-0.551,0.141-0.861,0.141c-0.322,0-0.618-0.047-0.888-0.141s-0.501-0.223-0.694-0.387s-0.345-0.358-0.453-0.584
		s-0.162-0.471-0.162-0.734c0-0.234,0.045-0.454,0.137-0.659c0.09-0.205,0.218-0.388,0.382-0.55c0.164-0.16,0.36-0.292,0.589-0.395
		s0.478-0.169,0.747-0.198c0.006-0.094-0.017-0.167-0.065-0.22c-0.051-0.053-0.148-0.103-0.295-0.149l0.141-0.334
		c0.07,0.018,0.156,0.038,0.26,0.062c0.102,0.023,0.209,0.047,0.32,0.07s0.218,0.046,0.32,0.066s0.187,0.039,0.251,0.057
		c-0.023,0.047-0.046,0.113-0.065,0.197C31.675,40.934,31.653,41.02,31.63,41.107z M32.333,42.874c0-0.182-0.031-0.35-0.092-0.505
		c-0.062-0.155-0.145-0.291-0.246-0.404c-0.104-0.115-0.224-0.205-0.361-0.273c-0.138-0.066-0.285-0.101-0.443-0.101
		s-0.308,0.034-0.448,0.101c-0.141,0.068-0.267,0.158-0.378,0.273c-0.111,0.113-0.199,0.249-0.264,0.404s-0.097,0.323-0.097,0.505
		c0,0.188,0.032,0.357,0.097,0.51s0.152,0.283,0.264,0.392s0.237,0.193,0.378,0.254c0.141,0.062,0.29,0.093,0.448,0.093
		s0.306-0.03,0.443-0.093c0.138-0.061,0.26-0.146,0.365-0.254s0.188-0.239,0.246-0.392S32.333,43.062,32.333,42.874z M33.748,39.2
		c0.135,0.018,0.293,0.041,0.475,0.07s0.366,0.062,0.554,0.097s0.367,0.067,0.541,0.097c0.172,0.029,0.314,0.053,0.426,0.07
		c-0.012,0.053-0.021,0.123-0.031,0.211c-0.008,0.088-0.019,0.176-0.03,0.264s-0.021,0.166-0.026,0.233s-0.009,0.104-0.009,0.109
		v4.825c0,0.182-0.005,0.392-0.013,0.628c-0.01,0.238-0.022,0.477-0.04,0.717s-0.037,0.469-0.058,0.686s-0.042,0.39-0.065,0.519
		l-0.729,0.105c-0.018-0.094-0.032-0.222-0.044-0.382c-0.012-0.162-0.022-0.336-0.03-0.523c-0.01-0.188-0.016-0.378-0.018-0.571
		c-0.004-0.193-0.005-0.375-0.005-0.545v-5.493c0-0.17-0.087-0.309-0.259-0.418c-0.174-0.107-0.453-0.212-0.84-0.312L33.748,39.2z"
		/>
	<path d="M43.003,40.316c0-0.17-0.085-0.309-0.255-0.418c-0.17-0.107-0.451-0.212-0.844-0.312l0.185-0.387
		c0.141,0.018,0.304,0.041,0.487,0.07c0.186,0.029,0.369,0.062,0.555,0.097c0.184,0.035,0.361,0.067,0.531,0.097
		s0.313,0.053,0.431,0.07c-0.012,0.053-0.023,0.123-0.035,0.211s-0.022,0.176-0.03,0.264c-0.01,0.088-0.017,0.166-0.022,0.233
		s-0.009,0.104-0.009,0.109v4.825c0,0.182-0.004,0.392-0.014,0.628c-0.008,0.238-0.021,0.477-0.035,0.717s-0.032,0.469-0.053,0.686
		s-0.039,0.39-0.057,0.519l-0.747,0.105c-0.012-0.094-0.022-0.222-0.03-0.382c-0.01-0.162-0.018-0.336-0.027-0.523
		c-0.008-0.188-0.016-0.378-0.021-0.571s-0.009-0.375-0.009-0.545v-1.749c-0.27,0.1-0.573,0.204-0.909,0.312
		c-0.338,0.108-0.678,0.211-1.02,0.307c-0.344,0.098-0.678,0.184-1.002,0.26c-0.326,0.076-0.611,0.132-0.857,0.167
		c-0.316,0.053-0.553,0.012-0.707-0.123c-0.156-0.135-0.233-0.343-0.233-0.624v-2.672c0-0.088-0.009-0.161-0.026-0.22
		s-0.057-0.11-0.119-0.153c-0.061-0.045-0.15-0.084-0.268-0.119s-0.272-0.07-0.466-0.105l0.149-0.387
		c0.146,0.006,0.305,0.017,0.475,0.031s0.337,0.032,0.501,0.053s0.321,0.042,0.47,0.065c0.15,0.023,0.28,0.044,0.392,0.062
		c-0.018,0.053-0.032,0.122-0.044,0.207s-0.023,0.17-0.035,0.254c-0.012,0.086-0.021,0.16-0.026,0.225s-0.009,0.103-0.009,0.114
		v2.461c0,0.088,0.007,0.149,0.021,0.185s0.046,0.05,0.093,0.044c0.176-0.012,0.411-0.044,0.708-0.097
		c0.295-0.053,0.613-0.117,0.953-0.193s0.683-0.159,1.028-0.25s0.656-0.181,0.932-0.269V40.316z"/>
	<path d="M48.856,41.45c-0.135,0.451-0.299,0.867-0.492,1.248s-0.418,0.735-0.672,1.063c-0.256,0.328-0.538,0.636-0.849,0.923
		s-0.647,0.56-1.011,0.817l-0.299-0.29c0.293-0.252,0.566-0.53,0.822-0.835c0.254-0.305,0.479-0.622,0.676-0.953
		s0.363-0.67,0.502-1.016c0.137-0.346,0.238-0.686,0.303-1.02c-0.135,0-0.258,0.004-0.369,0.014
		c-0.111,0.008-0.229,0.019-0.352,0.03c-0.105,0.012-0.243,0.025-0.413,0.04s-0.39,0.051-0.659,0.109L45.648,40.8
		c0.223,0.053,0.44,0.085,0.655,0.097c0.213,0.012,0.388,0.021,0.522,0.026c0.146,0,0.3-0.007,0.462-0.02
		c0.16-0.014,0.323-0.031,0.487-0.053c0.164-0.022,0.325-0.048,0.483-0.077s0.305-0.062,0.439-0.097l0.167,0.167
		c0.346,0,0.68-0.021,1.002-0.062s0.615-0.094,0.879-0.158l0.308,0.334c-0.264,1.072-0.667,2.026-1.209,2.86
		c-0.542,0.836-1.231,1.555-2.069,2.158l-0.272-0.29c0.305-0.281,0.589-0.604,0.853-0.972c0.264-0.365,0.499-0.745,0.708-1.138
		c0.207-0.393,0.383-0.785,0.527-1.178c0.143-0.393,0.244-0.759,0.303-1.099c-0.135,0-0.277,0.012-0.426,0.035
		C49.317,41.359,49.114,41.397,48.856,41.45z M52.39,45.177c0,0.182-0.004,0.392-0.014,0.628c-0.008,0.238-0.021,0.477-0.039,0.717
		S52.3,46.99,52.28,47.207c-0.021,0.217-0.043,0.39-0.066,0.519l-0.729,0.105c-0.018-0.094-0.032-0.222-0.044-0.382
		c-0.012-0.162-0.021-0.336-0.031-0.523c-0.008-0.188-0.015-0.378-0.018-0.571s-0.004-0.375-0.004-0.545v-5.493
		c0-0.17-0.081-0.309-0.242-0.418c-0.161-0.107-0.446-0.212-0.856-0.312l0.202-0.387c0.141,0.018,0.305,0.041,0.492,0.07
		s0.375,0.062,0.562,0.097s0.365,0.067,0.531,0.097c0.168,0.029,0.304,0.053,0.409,0.07c-0.012,0.053-0.023,0.123-0.035,0.211
		s-0.022,0.176-0.03,0.264c-0.01,0.088-0.017,0.166-0.022,0.233s-0.009,0.104-0.009,0.109V42.9c0.129-0.012,0.27-0.026,0.422-0.044
		s0.305-0.035,0.457-0.053s0.299-0.038,0.439-0.062s0.264-0.047,0.369-0.07l-0.105,0.817c-0.088-0.006-0.195-0.009-0.32-0.009
		c-0.127,0-0.262,0-0.404,0c-0.145,0-0.291,0-0.439,0c-0.15,0-0.289,0-0.418,0V45.177z"/>
	<path d="M6.041,81.96c0.164-0.012,0.313-0.023,0.448-0.035v-2.408c0-0.17-0.069-0.311-0.206-0.422
		c-0.139-0.111-0.397-0.214-0.778-0.308L5.689,78.4c0.141,0.018,0.296,0.043,0.466,0.075s0.34,0.064,0.51,0.096
		c0.17,0.033,0.334,0.065,0.492,0.098s0.296,0.06,0.413,0.083c-0.012,0.053-0.023,0.123-0.035,0.211s-0.021,0.173-0.031,0.255
		c-0.008,0.082-0.016,0.157-0.021,0.225s-0.009,0.104-0.009,0.109v4.825c0,0.182-0.005,0.389-0.013,0.62
		c-0.01,0.231-0.021,0.465-0.035,0.703c-0.016,0.236-0.031,0.464-0.049,0.681s-0.038,0.398-0.062,0.545l-0.765,0.105
		c-0.006-0.105-0.012-0.239-0.018-0.399c-0.006-0.162-0.012-0.334-0.018-0.52c-0.006-0.184-0.012-0.371-0.018-0.562
		c-0.006-0.189-0.009-0.37-0.009-0.54v-2.496c-0.135,0.012-0.286,0.02-0.452,0.022c-0.168,0.003-0.315,0.01-0.444,0.021v1.503
		c0,0.182-0.003,0.39-0.009,0.624s-0.015,0.471-0.026,0.707c-0.012,0.238-0.026,0.465-0.044,0.682s-0.038,0.398-0.062,0.545
		l-0.721,0.097c-0.012-0.1-0.023-0.23-0.035-0.392s-0.022-0.334-0.03-0.518c-0.01-0.186-0.017-0.374-0.022-0.567
		s-0.009-0.372-0.009-0.536v-1.204c-0.387,0.152-0.782,0.298-1.187,0.435c-0.404,0.139-0.817,0.239-1.239,0.304
		c-0.346,0.059-0.586,0.021-0.721-0.114s-0.202-0.34-0.202-0.615v-2.558c0-0.088-0.009-0.161-0.026-0.22s-0.057-0.108-0.119-0.149
		c-0.061-0.041-0.148-0.077-0.264-0.11c-0.113-0.031-0.268-0.065-0.461-0.101l0.167-0.387c0.135,0.006,0.282,0.017,0.444,0.03
		c0.16,0.016,0.321,0.031,0.482,0.049s0.313,0.037,0.457,0.057c0.144,0.021,0.269,0.04,0.374,0.058
		c-0.012,0.105-0.026,0.236-0.044,0.392s-0.026,0.291-0.026,0.408v2.355c0,0.088,0.007,0.146,0.022,0.176
		c0.014,0.029,0.036,0.044,0.065,0.044c0.246-0.023,0.569-0.079,0.972-0.167c0.4-0.088,0.836-0.211,1.305-0.369v-3.164
		c0-0.082-0.014-0.155-0.039-0.22c-0.027-0.064-0.074-0.124-0.141-0.181c-0.068-0.055-0.16-0.106-0.277-0.153
		s-0.267-0.094-0.448-0.141l0.202-0.378c0.135,0.018,0.281,0.039,0.439,0.066c0.158,0.025,0.316,0.056,0.475,0.088
		s0.311,0.064,0.457,0.096c0.146,0.033,0.278,0.063,0.396,0.093c-0.012,0.053-0.023,0.122-0.035,0.206
		c-0.012,0.086-0.023,0.171-0.035,0.256s-0.021,0.159-0.026,0.224s-0.009,0.1-0.009,0.105v2.083
		C5.728,81.983,5.877,81.972,6.041,81.96z"/>
	<path d="M13.424,80.202c-0.176,0.51-0.406,1.001-0.69,1.473s-0.612,0.914-0.984,1.326c-0.372,0.414-0.781,0.795-1.23,1.143
		c-0.447,0.35-0.921,0.658-1.419,0.928l-0.272-0.325c0.41-0.246,0.794-0.537,1.151-0.874s0.678-0.691,0.962-1.064
		c0.284-0.371,0.527-0.748,0.73-1.129c0.201-0.381,0.353-0.738,0.452-1.072c-0.088,0-0.19,0.002-0.308,0.004
		c-0.117,0.004-0.239,0.008-0.365,0.014s-0.247,0.011-0.364,0.014s-0.217,0.004-0.299,0.004c-0.064,0-0.151,0.004-0.259,0.014
		c-0.109,0.008-0.227,0.021-0.352,0.035c-0.127,0.015-0.254,0.03-0.383,0.048s-0.24,0.035-0.334,0.053l-0.536-0.817
		C9,79.985,9.103,79.999,9.231,80.013c0.129,0.016,0.265,0.03,0.408,0.045s0.286,0.027,0.427,0.039s0.261,0.018,0.36,0.018
		c0.211,0,0.437-0.006,0.677-0.018s0.479-0.026,0.716-0.044c0.238-0.018,0.467-0.041,0.686-0.07
		c0.221-0.029,0.415-0.062,0.585-0.097L13.424,80.202z M15.34,84.377c0,0.176-0.005,0.384-0.013,0.624
		c-0.01,0.24-0.02,0.48-0.031,0.721s-0.026,0.469-0.044,0.686s-0.035,0.39-0.053,0.519l-0.773,0.105
		c-0.012-0.094-0.022-0.222-0.03-0.382c-0.01-0.162-0.018-0.336-0.027-0.523c-0.008-0.188-0.015-0.378-0.018-0.571
		s-0.004-0.375-0.004-0.545v-5.493c0-0.17-0.081-0.309-0.242-0.418c-0.161-0.107-0.435-0.212-0.821-0.312l0.149-0.387
		c0.146,0.018,0.314,0.041,0.506,0.07c0.189,0.029,0.377,0.062,0.562,0.097c0.184,0.035,0.359,0.067,0.527,0.097
		c0.166,0.029,0.303,0.053,0.408,0.07c-0.012,0.053-0.023,0.123-0.035,0.211s-0.021,0.176-0.031,0.264
		c-0.008,0.088-0.016,0.166-0.021,0.233s-0.009,0.104-0.009,0.109v2.654c0.129-0.012,0.271-0.024,0.427-0.039
		c0.154-0.015,0.309-0.031,0.461-0.049s0.299-0.035,0.439-0.053s0.267-0.038,0.378-0.062l-0.07,0.826
		c-0.094-0.006-0.206-0.01-0.339-0.013c-0.131-0.003-0.271-0.005-0.417-0.005s-0.296,0-0.448,0s-0.296,0-0.431,0V84.377z"/>
	<path d="M25.351,79.569c-0.018,0.129-0.038,0.257-0.062,0.383s-0.047,0.253-0.07,0.382h-0.334c-0.967,0-1.851,0.018-2.649,0.053
		c-0.801,0.035-1.449,0.091-1.947,0.167c-0.064-0.141-0.127-0.282-0.189-0.426c-0.061-0.144-0.124-0.283-0.188-0.418
		c0.07,0.018,0.168,0.035,0.294,0.053s0.26,0.034,0.4,0.049s0.275,0.025,0.404,0.035c0.129,0.008,0.231,0.013,0.308,0.013
		c0.193,0,0.455-0.006,0.786-0.018s0.688-0.027,1.068-0.048s0.763-0.05,1.146-0.088S25.046,79.622,25.351,79.569z M24.621,81.942
		c0,0.188-0.048,0.365-0.146,0.531c-0.096,0.168-0.229,0.314-0.399,0.439c-0.17,0.127-0.372,0.227-0.606,0.299
		c-0.234,0.074-0.486,0.11-0.756,0.11s-0.521-0.036-0.752-0.11c-0.231-0.072-0.432-0.174-0.602-0.303s-0.303-0.275-0.4-0.439
		c-0.096-0.164-0.145-0.34-0.145-0.527c0-0.199,0.049-0.384,0.145-0.554c0.098-0.17,0.23-0.316,0.4-0.439s0.37-0.22,0.602-0.29
		s0.482-0.105,0.752-0.105c0.281,0,0.539,0.038,0.773,0.114s0.436,0.179,0.602,0.308c0.168,0.129,0.298,0.277,0.392,0.443
		C24.574,81.587,24.621,81.761,24.621,81.942z M24.094,78.822c-0.029,0.117-0.058,0.23-0.083,0.339
		c-0.027,0.108-0.055,0.221-0.084,0.338c-0.1,0-0.213,0-0.338,0c-0.127,0-0.251,0.002-0.374,0.004
		c-0.123,0.004-0.239,0.007-0.347,0.01c-0.109,0.003-0.201,0.004-0.277,0.004c-0.047,0-0.111,0.002-0.193,0.004
		c-0.082,0.004-0.172,0.01-0.268,0.018c-0.098,0.01-0.195,0.018-0.295,0.027c-0.1,0.008-0.188,0.019-0.264,0.03
		c-0.076-0.135-0.148-0.265-0.215-0.392c-0.068-0.125-0.14-0.256-0.216-0.391c0.07,0.018,0.167,0.035,0.29,0.053
		s0.25,0.034,0.383,0.049c0.131,0.015,0.256,0.027,0.373,0.039s0.208,0.018,0.272,0.018c0.07,0,0.171-0.004,0.304-0.014
		c0.131-0.008,0.274-0.02,0.43-0.035c0.155-0.014,0.312-0.03,0.471-0.048S23.965,78.84,24.094,78.822z M25.526,84.816
		c0.006-0.129,0.01-0.255,0.014-0.378c0.002-0.123,0.007-0.246,0.013-0.369c-0.053,0-0.107-0.001-0.163-0.004
		s-0.115-0.005-0.18-0.005c-0.275,0-0.568,0.011-0.879,0.03c-0.311,0.021-0.586,0.037-0.826,0.049
		c-0.064,0.006-0.151,0.014-0.26,0.021c-0.108,0.01-0.226,0.02-0.352,0.031s-0.254,0.028-0.387,0.049
		c-0.131,0.021-0.253,0.042-0.364,0.065c-0.076-0.135-0.155-0.267-0.237-0.396s-0.161-0.261-0.237-0.396
		c0.105,0.029,0.251,0.052,0.435,0.065c0.186,0.016,0.368,0.027,0.55,0.035c0.182,0.01,0.344,0.016,0.487,0.018
		c0.144,0.004,0.225,0.005,0.242,0.005c0.229,0,0.483-0.001,0.765-0.005c0.281-0.002,0.569-0.01,0.866-0.021
		c0.295-0.012,0.588-0.024,0.879-0.039c0.289-0.015,0.558-0.037,0.804-0.066c-0.023,0.111-0.044,0.205-0.062,0.281
		s-0.035,0.152-0.053,0.229s-0.029,0.138-0.035,0.185c-0.018,0.088-0.035,0.178-0.053,0.269s-0.032,0.177-0.044,0.259
		c0.035-0.006,0.073-0.007,0.114-0.005c0.041,0.004,0.076,0.002,0.105-0.004c-0.012,0.111-0.025,0.22-0.039,0.325
		c-0.016,0.105-0.028,0.214-0.04,0.325c-0.457-0.018-0.917-0.026-1.38-0.026c-0.416,0-0.8,0.006-1.151,0.018
		s-0.624,0.023-0.817,0.035c-0.006,0.053-0.011,0.096-0.014,0.128s-0.004,0.068-0.004,0.109v0.404c0,0.047,0.001,0.082,0.004,0.105
		s0.017,0.039,0.04,0.049c0.023,0.008,0.062,0.013,0.114,0.013s0.129,0,0.229,0c0.229,0,0.496-0.008,0.805-0.022
		c0.307-0.015,0.622-0.035,0.944-0.061c0.322-0.027,0.636-0.057,0.94-0.088c0.305-0.033,0.568-0.069,0.791-0.11
		c-0.029,0.135-0.059,0.27-0.088,0.404s-0.059,0.27-0.088,0.404c-0.24-0.012-0.492-0.02-0.756-0.022s-0.533-0.004-0.809-0.004
		c-0.475,0-0.935,0.01-1.38,0.031c-0.445,0.02-0.826,0.03-1.143,0.03c-0.217,0-0.368-0.052-0.452-0.153
		c-0.086-0.104-0.128-0.23-0.128-0.383v-0.483c0-0.1-0.008-0.182-0.022-0.246s-0.043-0.118-0.088-0.163
		c-0.043-0.043-0.106-0.083-0.188-0.118s-0.193-0.076-0.334-0.123c0.029-0.053,0.059-0.106,0.088-0.163
		c0.029-0.055,0.062-0.109,0.097-0.162c0.293,0.029,0.602,0.05,0.928,0.062c0.324,0.012,0.657,0.018,0.997,0.018
		c0.316,0,0.627-0.003,0.932-0.009S25.251,84.828,25.526,84.816z M21.861,81.911c0,0.118,0.023,0.23,0.07,0.336
		c0.047,0.106,0.11,0.2,0.188,0.283c0.08,0.082,0.17,0.146,0.273,0.194c0.102,0.047,0.212,0.07,0.329,0.07
		c0.111,0,0.218-0.022,0.321-0.066c0.102-0.044,0.194-0.105,0.276-0.186c0.082-0.079,0.147-0.174,0.198-0.282
		c0.049-0.109,0.074-0.226,0.074-0.35c0-0.117-0.025-0.23-0.074-0.34c-0.051-0.108-0.115-0.204-0.193-0.287
		c-0.08-0.082-0.172-0.146-0.277-0.194c-0.105-0.047-0.214-0.07-0.325-0.07c-0.234,0-0.437,0.083-0.606,0.247
		C21.946,81.432,21.861,81.646,21.861,81.911z M26.643,81.942c0,0.105-0.006,0.222-0.018,0.348s-0.025,0.252-0.04,0.377
		c-0.015,0.127-0.029,0.246-0.043,0.361c-0.016,0.113-0.028,0.206-0.04,0.276c-0.123,0.018-0.251,0.037-0.382,0.058
		c-0.133,0.021-0.263,0.039-0.392,0.057c-0.012-0.059-0.022-0.137-0.03-0.232c-0.01-0.098-0.017-0.199-0.022-0.309
		c-0.006-0.107-0.012-0.216-0.018-0.324s-0.009-0.204-0.009-0.286v-2.742c0-0.17-0.082-0.311-0.246-0.422s-0.448-0.217-0.853-0.316
		c0.035-0.064,0.07-0.129,0.105-0.193s0.067-0.129,0.097-0.193c0.141,0.018,0.305,0.043,0.492,0.075s0.375,0.064,0.562,0.096
		c0.188,0.033,0.366,0.063,0.536,0.093s0.311,0.053,0.422,0.07c-0.018,0.053-0.034,0.123-0.048,0.211
		c-0.016,0.088-0.028,0.176-0.04,0.264s-0.021,0.166-0.026,0.233s-0.009,0.104-0.009,0.109v1.749
		c0.129-0.012,0.271-0.026,0.427-0.044c0.154-0.018,0.309-0.036,0.461-0.057s0.3-0.041,0.443-0.062
		c0.144-0.02,0.269-0.039,0.374-0.057c-0.012,0.129-0.028,0.261-0.048,0.396c-0.021,0.135-0.037,0.267-0.049,0.396
		c-0.088,0-0.196-0.001-0.325-0.004s-0.267-0.005-0.413-0.005s-0.296,0-0.448,0s-0.293,0-0.422,0V81.942z"/>
	<path d="M36.108,79.851c0-0.164-0.061-0.299-0.18-0.404c-0.121-0.105-0.356-0.202-0.708-0.29l0.185-0.378
		c0.135,0.018,0.281,0.039,0.439,0.066c0.158,0.025,0.317,0.056,0.479,0.088s0.315,0.064,0.462,0.096
		c0.146,0.033,0.272,0.063,0.378,0.093c-0.012,0.053-0.023,0.122-0.035,0.206c-0.012,0.086-0.023,0.171-0.035,0.256
		s-0.021,0.159-0.026,0.224s-0.009,0.1-0.009,0.105v1.459c0.1-0.012,0.186-0.022,0.26-0.03c0.072-0.01,0.162-0.02,0.268-0.031
		v-1.793c0-0.088-0.015-0.165-0.044-0.232s-0.079-0.131-0.149-0.189s-0.167-0.112-0.29-0.162s-0.281-0.099-0.475-0.146l0.167-0.387
		c0.141,0.018,0.296,0.043,0.466,0.075s0.341,0.064,0.515,0.096c0.172,0.033,0.336,0.065,0.492,0.098
		c0.154,0.032,0.285,0.06,0.391,0.083c-0.006,0.053-0.014,0.123-0.021,0.211c-0.01,0.088-0.017,0.173-0.022,0.255
		s-0.012,0.157-0.018,0.225s-0.009,0.104-0.009,0.109v3.41c0,0.141-0.004,0.303-0.014,0.488c-0.008,0.184-0.021,0.369-0.035,0.553
		c-0.015,0.186-0.033,0.359-0.057,0.523s-0.05,0.299-0.079,0.404l-0.782,0.132c-0.006-0.094-0.011-0.205-0.014-0.334
		s-0.006-0.262-0.008-0.399c-0.004-0.138-0.007-0.273-0.01-0.404c-0.003-0.133-0.004-0.248-0.004-0.348v-1.67
		c-0.1,0.012-0.189,0.018-0.268,0.018c-0.08,0-0.166,0.006-0.26,0.018v1.178c0,0.141-0.004,0.298-0.014,0.471
		c-0.008,0.173-0.021,0.338-0.035,0.496s-0.032,0.303-0.053,0.436c-0.021,0.131-0.042,0.229-0.065,0.294l-0.729,0.105
		c-0.006-0.047-0.012-0.12-0.018-0.22s-0.012-0.208-0.018-0.325s-0.011-0.235-0.014-0.356c-0.003-0.119-0.004-0.229-0.004-0.329
		v-0.668c-0.234,0.117-0.472,0.226-0.712,0.325s-0.472,0.176-0.694,0.229c-0.117,0.023-0.22,0.031-0.308,0.021
		c-0.088-0.008-0.164-0.027-0.229-0.057s-0.116-0.062-0.153-0.102c-0.039-0.037-0.061-0.074-0.066-0.109
		c-0.123,0.064-0.28,0.131-0.471,0.197c-0.19,0.068-0.373,0.116-0.549,0.146c-0.287,0.047-0.492,0.009-0.615-0.114
		s-0.185-0.328-0.185-0.615v-1.934c0-0.105-0.009-0.196-0.026-0.272s-0.05-0.142-0.097-0.198c-0.047-0.055-0.116-0.105-0.206-0.148
		c-0.092-0.045-0.207-0.087-0.348-0.128l0.158-0.387c0.369,0.059,0.752,0.096,1.146,0.11c0.396,0.015,0.778-0.025,1.147-0.119
		c0.193,0.023,0.37,0.038,0.532,0.044c0.16,0.006,0.323,0.003,0.487-0.009s0.334-0.032,0.51-0.062s0.372-0.067,0.589-0.114
		l-0.088,0.721c-0.217,0.006-0.419,0.008-0.606,0.004c-0.188-0.002-0.366,0.002-0.536,0.014v2.215c0,0.1,0.006,0.158,0.018,0.176
		s0.026,0.029,0.044,0.035c0.141-0.029,0.319-0.076,0.536-0.141s0.457-0.149,0.721-0.255V79.851z M33.894,80.932
		c0-0.117-0.004-0.216-0.014-0.294c-0.008-0.08-0.007-0.125,0.005-0.137c-0.1,0-0.187,0-0.259,0c-0.074,0-0.141,0.002-0.203,0.004
		c-0.061,0.004-0.123,0.01-0.184,0.018c-0.062,0.01-0.131,0.02-0.207,0.031v2.215c0,0.094,0.006,0.152,0.018,0.176
		s0.023,0.035,0.035,0.035c0.059-0.006,0.127-0.018,0.207-0.035c0.078-0.018,0.156-0.035,0.232-0.053s0.147-0.036,0.215-0.057
		s0.119-0.037,0.154-0.049V80.932z M38.938,86.618c-0.352-0.012-0.734-0.02-1.146-0.021c-0.414-0.004-0.822,0-1.227,0.008
		c-0.404,0.01-0.79,0.02-1.156,0.031s-0.678,0.026-0.936,0.044c-0.24,0.018-0.406-0.028-0.496-0.136
		c-0.092-0.109-0.137-0.23-0.137-0.365v-1.037c0-0.123-0.006-0.221-0.018-0.295c-0.012-0.072-0.043-0.134-0.092-0.184
		c-0.051-0.05-0.127-0.093-0.229-0.128c-0.104-0.035-0.245-0.076-0.427-0.123l0.158-0.396c0.088,0.012,0.205,0.026,0.352,0.044
		s0.3,0.038,0.462,0.062c0.16,0.023,0.316,0.047,0.465,0.07c0.15,0.023,0.269,0.041,0.356,0.053c-0.012,0.07-0.025,0.18-0.04,0.33
		c-0.015,0.148-0.021,0.276-0.021,0.382v0.94c0,0.1,0.012,0.158,0.035,0.176s0.085,0.029,0.185,0.035
		c0.217,0.006,0.499,0,0.849-0.018c0.348-0.018,0.714-0.041,1.098-0.07s0.762-0.063,1.135-0.102
		c0.371-0.037,0.692-0.074,0.962-0.109L38.938,86.618z"/>
	<path d="M4.922,122.232c0,0.258-0.009,0.445-0.026,0.562s-0.038,0.223-0.062,0.316c0.064,0.023,0.133,0.046,0.207,0.066
		c0.072,0.021,0.136,0.039,0.188,0.057c-0.152,0.287-0.352,0.562-0.598,0.826c0.246,0.141,0.504,0.278,0.773,0.413
		s0.539,0.266,0.809,0.392s0.528,0.242,0.778,0.352c0.248,0.107,0.473,0.2,0.672,0.276l-0.712,0.694
		c-0.428-0.293-0.878-0.584-1.349-0.875c-0.473-0.289-0.922-0.569-1.35-0.839c-0.416,0.398-0.878,0.748-1.385,1.05
		s-1.006,0.547-1.498,0.734l-0.237-0.308c0.328-0.152,0.634-0.325,0.919-0.519c0.283-0.193,0.541-0.394,0.773-0.602
		c0.23-0.208,0.438-0.419,0.619-0.633s0.337-0.418,0.466-0.611c0,0.006,0.003-0.001,0.009-0.021s0.01-0.045,0.014-0.07
		c0.002-0.027,0-0.052-0.01-0.075c-0.008-0.023-0.024-0.041-0.048-0.053c-0.094-0.041-0.175-0.083-0.241-0.128
		c-0.068-0.043-0.175-0.098-0.321-0.162l0.29-0.308c0.047,0.012,0.094,0.023,0.141,0.035s0.103,0.026,0.167,0.044
		c-0.006-0.064-0.008-0.137-0.005-0.215c0.003-0.08,0.005-0.175,0.005-0.286v-0.158c-0.229,0.006-0.45,0.012-0.663,0.018
		c-0.215,0.006-0.415,0.013-0.603,0.022c-0.188,0.008-0.354,0.016-0.497,0.021s-0.259,0.012-0.347,0.018
		c-0.105,0.006-0.222,0.015-0.347,0.026c-0.127,0.012-0.254,0.025-0.383,0.04s-0.257,0.029-0.383,0.043
		c-0.126,0.016-0.238,0.025-0.338,0.031L0,121.529c0.264,0.029,0.562,0.057,0.896,0.084c0.334,0.025,0.633,0.045,0.896,0.057
		c0.141,0.006,0.325,0.009,0.554,0.009s0.479-0.001,0.751-0.005c0.273-0.002,0.557-0.008,0.854-0.018
		c0.295-0.008,0.58-0.016,0.852-0.021c0.273-0.006,0.523-0.014,0.752-0.021c0.229-0.01,0.413-0.017,0.554-0.022
		c0.193-0.006,0.396-0.018,0.606-0.035s0.42-0.036,0.629-0.058c0.207-0.02,0.408-0.04,0.602-0.061s0.372-0.04,0.536-0.058
		l-0.141,0.817c-0.117-0.006-0.257-0.012-0.417-0.018c-0.162-0.006-0.336-0.01-0.523-0.014c-0.188-0.002-0.381-0.007-0.58-0.013
		s-0.396-0.009-0.589-0.009c-0.146,0-0.331,0.002-0.554,0.004c-0.223,0.004-0.475,0.011-0.756,0.022V122.232z M4.834,118.137
		c0.24,0.047,0.461,0.12,0.664,0.22c0.201,0.1,0.374,0.219,0.518,0.356s0.256,0.291,0.334,0.461c0.08,0.17,0.119,0.349,0.119,0.536
		c0,0.223-0.056,0.431-0.167,0.624s-0.266,0.362-0.462,0.506s-0.428,0.256-0.693,0.338c-0.268,0.082-0.556,0.123-0.866,0.123
		c-0.305,0-0.588-0.041-0.849-0.123s-0.486-0.194-0.676-0.338c-0.191-0.144-0.341-0.312-0.449-0.506s-0.162-0.401-0.162-0.624
		c0-0.199,0.045-0.39,0.137-0.571c0.09-0.182,0.215-0.343,0.373-0.483s0.346-0.258,0.562-0.352s0.454-0.155,0.712-0.185
		c-0.006-0.064-0.032-0.115-0.079-0.154c-0.047-0.037-0.138-0.071-0.272-0.101l0.167-0.316l1.187,0.237
		c-0.012,0.035-0.026,0.085-0.044,0.149S4.852,118.066,4.834,118.137z M5.449,119.657c0-0.146-0.032-0.286-0.097-0.417
		c-0.064-0.133-0.149-0.246-0.255-0.344c-0.105-0.096-0.226-0.174-0.36-0.232s-0.275-0.088-0.422-0.088
		c-0.152,0-0.298,0.029-0.435,0.088c-0.139,0.059-0.259,0.137-0.361,0.232c-0.103,0.098-0.183,0.211-0.241,0.344
		c-0.059,0.131-0.088,0.271-0.088,0.417c0,0.164,0.029,0.312,0.088,0.444c0.059,0.131,0.139,0.243,0.241,0.334
		s0.222,0.161,0.356,0.211s0.281,0.074,0.439,0.074c0.152,0,0.297-0.024,0.435-0.074s0.258-0.12,0.361-0.211
		c0.102-0.091,0.184-0.203,0.246-0.334C5.418,119.969,5.449,119.821,5.449,119.657z"/>
	<path d="M13.685,118.945c-0.146,0.439-0.366,0.878-0.659,1.314s-0.638,0.85-1.032,1.238c-0.396,0.391-0.828,0.752-1.297,1.086
		s-0.949,0.621-1.441,0.861L9,123.12c0.387-0.211,0.757-0.462,1.112-0.751c0.354-0.291,0.679-0.6,0.975-0.928
		s0.557-0.665,0.783-1.011c0.225-0.346,0.402-0.68,0.531-1.002c-0.264,0-0.513,0.006-0.747,0.018s-0.413,0.023-0.536,0.035
		c-0.059,0.006-0.14,0.012-0.242,0.018s-0.214,0.017-0.334,0.03c-0.12,0.016-0.243,0.031-0.369,0.049s-0.238,0.038-0.338,0.062
		l-0.545-0.826c0.07,0.012,0.17,0.023,0.299,0.035s0.268,0.025,0.418,0.04c0.148,0.015,0.295,0.025,0.439,0.035
		c0.143,0.008,0.265,0.013,0.364,0.013c0.234,0,0.476-0.007,0.726-0.022c0.248-0.014,0.487-0.031,0.716-0.053
		c0.229-0.02,0.437-0.043,0.624-0.07c0.188-0.025,0.334-0.051,0.439-0.074L13.685,118.945z M16.146,125.827
		c-0.346-0.012-0.705-0.02-1.076-0.022c-0.373-0.003-0.737-0.003-1.095,0s-0.7,0.011-1.028,0.022s-0.621,0.026-0.879,0.044
		c-0.234,0.018-0.401-0.027-0.501-0.135c-0.1-0.108-0.149-0.229-0.149-0.362v-1.089c0-0.122-0.006-0.219-0.018-0.291
		c-0.012-0.073-0.043-0.135-0.092-0.186c-0.051-0.051-0.127-0.094-0.229-0.129c-0.104-0.036-0.245-0.078-0.427-0.126l0.158-0.398
		c0.088,0.012,0.206,0.026,0.356,0.044c0.148,0.018,0.304,0.038,0.465,0.062s0.318,0.046,0.471,0.065
		c0.152,0.021,0.272,0.04,0.36,0.058c-0.006,0.035-0.012,0.082-0.018,0.141s-0.012,0.122-0.018,0.188
		c-0.006,0.068-0.012,0.134-0.018,0.198s-0.009,0.123-0.009,0.176v1.011c0,0.1,0.01,0.158,0.031,0.176
		c0.02,0.018,0.074,0.029,0.162,0.035c0.217,0.006,0.484,0.001,0.805-0.014c0.318-0.015,0.65-0.035,0.992-0.061
		c0.344-0.027,0.683-0.058,1.02-0.093s0.632-0.07,0.884-0.105L16.146,125.827z M13.922,117.601c0.135,0.018,0.293,0.041,0.475,0.07
		s0.366,0.062,0.554,0.097s0.367,0.067,0.541,0.097c0.172,0.029,0.317,0.053,0.435,0.07c-0.012,0.053-0.023,0.123-0.035,0.211
		s-0.023,0.176-0.035,0.264s-0.022,0.166-0.03,0.233c-0.01,0.067-0.014,0.104-0.014,0.109v3.568c0,0.135-0.004,0.28-0.014,0.436
		c-0.008,0.155-0.021,0.312-0.035,0.47s-0.032,0.308-0.053,0.448s-0.039,0.261-0.057,0.36l-0.765,0.123
		c-0.012-0.07-0.021-0.17-0.026-0.299s-0.014-0.269-0.021-0.417c-0.01-0.15-0.016-0.299-0.018-0.449
		c-0.004-0.148-0.005-0.276-0.005-0.382v-3.894c0-0.17-0.087-0.309-0.259-0.418c-0.174-0.107-0.453-0.212-0.84-0.312L13.922,117.601
		z"/>
	<path d="M24.899,119.402c-0.17,0.516-0.397,1.01-0.682,1.48c-0.284,0.473-0.613,0.914-0.988,1.328
		c-0.375,0.412-0.785,0.792-1.23,1.138s-0.914,0.653-1.406,0.923l-0.308-0.316c0.422-0.246,0.813-0.537,1.173-0.875
		c0.361-0.336,0.685-0.692,0.972-1.067s0.533-0.753,0.738-1.134s0.357-0.738,0.457-1.072c-0.088,0-0.19,0.002-0.308,0.004
		c-0.117,0.004-0.239,0.008-0.365,0.014s-0.249,0.011-0.369,0.014s-0.221,0.004-0.303,0.004c-0.059,0-0.144,0.006-0.255,0.018
		s-0.231,0.025-0.36,0.039c-0.129,0.016-0.257,0.03-0.383,0.045s-0.235,0.03-0.329,0.048l-0.519-0.8
		c0.076,0.012,0.179,0.025,0.308,0.039c0.129,0.016,0.265,0.028,0.409,0.04c0.143,0.012,0.283,0.022,0.422,0.03
		c0.137,0.01,0.256,0.014,0.355,0.014c0.211,0,0.436-0.004,0.672-0.014c0.238-0.008,0.475-0.022,0.713-0.043
		c0.236-0.021,0.465-0.046,0.686-0.075c0.219-0.029,0.417-0.062,0.593-0.097L24.899,119.402z M26.007,121.89
		c-0.311,0.012-0.626,0.035-0.945,0.07s-0.59,0.076-0.812,0.123l-0.369-0.8c0.059,0.012,0.144,0.023,0.255,0.035
		s0.229,0.021,0.352,0.031c0.123,0.008,0.244,0.016,0.364,0.021s0.222,0.009,0.304,0.009c0.105-0.006,0.229-0.01,0.374-0.013
		c0.143-0.003,0.303-0.005,0.479-0.005v-2.646c0-0.169-0.085-0.308-0.255-0.417c-0.17-0.107-0.451-0.212-0.844-0.312l0.185-0.387
		c0.141,0.018,0.303,0.041,0.488,0.07c0.184,0.029,0.369,0.062,0.553,0.097c0.186,0.035,0.362,0.067,0.532,0.097
		s0.313,0.053,0.431,0.07c-0.012,0.053-0.023,0.123-0.035,0.211s-0.021,0.176-0.031,0.264c-0.008,0.088-0.016,0.166-0.021,0.233
		S27,118.746,27,118.752v4.825c0,0.182-0.005,0.392-0.013,0.628c-0.01,0.238-0.021,0.477-0.035,0.717
		c-0.016,0.24-0.033,0.469-0.053,0.686c-0.021,0.217-0.043,0.39-0.066,0.519l-0.747,0.105c-0.012-0.094-0.022-0.222-0.03-0.382
		c-0.01-0.162-0.017-0.336-0.022-0.523s-0.012-0.378-0.018-0.571s-0.009-0.375-0.009-0.545V121.89z"/>
	<path d="M31.438,119.517c0.258,0.047,0.493,0.123,0.708,0.229c0.213,0.105,0.396,0.237,0.549,0.396s0.27,0.336,0.352,0.531
		c0.082,0.197,0.123,0.406,0.123,0.629c0,0.264-0.056,0.509-0.167,0.734s-0.266,0.42-0.462,0.584s-0.43,0.293-0.703,0.387
		c-0.271,0.094-0.566,0.141-0.883,0.141s-0.608-0.047-0.875-0.141s-0.496-0.223-0.689-0.387s-0.346-0.358-0.457-0.584
		s-0.167-0.471-0.167-0.734c0-0.234,0.045-0.454,0.136-0.659s0.217-0.387,0.379-0.545c0.16-0.158,0.354-0.29,0.58-0.396
		c0.225-0.105,0.473-0.173,0.742-0.202c0.006-0.094-0.015-0.167-0.062-0.22s-0.146-0.103-0.299-0.149l0.193-0.334
		c0.059,0.018,0.138,0.038,0.237,0.062s0.203,0.047,0.312,0.07c0.107,0.023,0.215,0.046,0.32,0.066s0.193,0.039,0.264,0.057
		C31.523,119.162,31.479,119.317,31.438,119.517z M32.142,121.274c0-0.182-0.032-0.35-0.097-0.505s-0.149-0.291-0.255-0.404
		c-0.105-0.115-0.229-0.205-0.369-0.273c-0.141-0.066-0.29-0.101-0.448-0.101s-0.307,0.034-0.443,0.101
		c-0.139,0.068-0.259,0.158-0.361,0.273c-0.103,0.113-0.184,0.249-0.246,0.404c-0.061,0.155-0.092,0.323-0.092,0.505
		c0,0.188,0.031,0.357,0.092,0.51c0.062,0.152,0.144,0.283,0.246,0.392s0.223,0.193,0.361,0.254
		c0.137,0.062,0.285,0.093,0.443,0.093s0.308-0.03,0.448-0.093c0.141-0.061,0.265-0.146,0.374-0.254
		c0.107-0.108,0.193-0.239,0.254-0.392C32.111,121.632,32.142,121.462,32.142,121.274z M35.139,122.32
		c0.129-0.006,0.273-0.018,0.436-0.035c0.16-0.018,0.321-0.035,0.482-0.053s0.316-0.036,0.467-0.057
		c0.148-0.021,0.282-0.04,0.399-0.058l-0.088,0.817c-0.088-0.006-0.202-0.01-0.343-0.014c-0.141-0.002-0.289-0.004-0.443-0.004
		c-0.156,0-0.314,0-0.475,0c-0.162,0-0.307,0-0.436,0v0.659c0,0.182-0.003,0.392-0.009,0.628c-0.006,0.238-0.017,0.477-0.03,0.717
		c-0.016,0.24-0.03,0.469-0.045,0.686s-0.03,0.39-0.048,0.519l-0.782,0.105c-0.012-0.094-0.021-0.222-0.031-0.382
		c-0.008-0.162-0.016-0.336-0.021-0.523s-0.012-0.378-0.018-0.571s-0.009-0.375-0.009-0.545v-5.493c0-0.17-0.081-0.309-0.241-0.418
		c-0.162-0.107-0.436-0.212-0.822-0.312l0.149-0.387c0.146,0.018,0.314,0.041,0.505,0.07s0.379,0.062,0.562,0.097
		c0.186,0.035,0.361,0.067,0.527,0.097c0.168,0.029,0.304,0.053,0.409,0.07c-0.012,0.053-0.023,0.123-0.035,0.211
		s-0.022,0.176-0.03,0.264c-0.01,0.088-0.017,0.166-0.022,0.233s-0.009,0.104-0.009,0.109v1.187c0.129-0.012,0.273-0.024,0.436-0.04
		c0.16-0.014,0.321-0.031,0.482-0.053c0.161-0.02,0.316-0.04,0.467-0.061c0.148-0.021,0.282-0.043,0.399-0.066l-0.088,0.835
		c-0.088-0.006-0.202-0.009-0.343-0.009s-0.289,0-0.443,0c-0.156,0-0.314,0-0.475,0c-0.162,0-0.307,0-0.436,0V122.32z"/>
	<path d="M37.995,124.228c0.193,0,0.357,0.065,0.492,0.198c0.135,0.131,0.202,0.279,0.202,0.443c0,0.17-0.067,0.32-0.202,0.453
		c-0.135,0.131-0.299,0.197-0.492,0.197c-0.094,0-0.184-0.018-0.268-0.053c-0.086-0.035-0.158-0.084-0.221-0.145
		c-0.061-0.062-0.111-0.131-0.148-0.207c-0.039-0.076-0.058-0.158-0.058-0.246c0-0.082,0.019-0.161,0.058-0.237
		c0.037-0.076,0.088-0.146,0.148-0.206c0.062-0.062,0.135-0.11,0.221-0.146C37.812,124.245,37.901,124.228,37.995,124.228z"/>
	<path d="M5.867,157.917c0-0.17-0.082-0.309-0.246-0.418c-0.164-0.107-0.439-0.212-0.826-0.312l0.176-0.387
		c0.146,0.018,0.312,0.041,0.497,0.07c0.184,0.029,0.37,0.062,0.558,0.097s0.364,0.067,0.532,0.097
		c0.166,0.029,0.306,0.053,0.417,0.07c-0.018,0.053-0.032,0.123-0.044,0.211s-0.023,0.176-0.035,0.264s-0.021,0.166-0.026,0.233
		s-0.009,0.104-0.009,0.109v1.485c0.129-0.012,0.27-0.026,0.422-0.044s0.303-0.035,0.453-0.053c0.148-0.018,0.292-0.035,0.43-0.053
		s0.26-0.035,0.365-0.053l-0.07,0.791c-0.088-0.006-0.196-0.01-0.325-0.014c-0.129-0.002-0.266-0.004-0.409-0.004s-0.289,0-0.439,0
		c-0.148,0-0.291,0-0.426,0v0.431c0,0.105-0.006,0.228-0.018,0.364c-0.012,0.139-0.023,0.276-0.035,0.414s-0.026,0.268-0.044,0.391
		s-0.029,0.223-0.035,0.299l-0.791,0.105c-0.012-0.059-0.021-0.133-0.026-0.225c-0.006-0.09-0.014-0.187-0.021-0.289
		c-0.01-0.103-0.016-0.204-0.018-0.304c-0.004-0.1-0.005-0.19-0.005-0.272c-0.158,0.064-0.322,0.129-0.492,0.193
		s-0.337,0.126-0.501,0.185s-0.322,0.11-0.475,0.153c-0.152,0.045-0.287,0.078-0.404,0.102c-0.135,0.023-0.255,0.029-0.36,0.018
		s-0.196-0.032-0.272-0.062s-0.135-0.065-0.176-0.11c-0.041-0.043-0.064-0.089-0.07-0.136c-0.111,0.053-0.214,0.099-0.308,0.136
		c-0.094,0.039-0.187,0.072-0.276,0.102c-0.092,0.029-0.189,0.055-0.295,0.074c-0.105,0.021-0.229,0.043-0.369,0.066
		c-0.346,0.064-0.592,0.032-0.738-0.097s-0.22-0.34-0.22-0.633v-1.793c0-0.1-0.009-0.185-0.026-0.255s-0.055-0.133-0.109-0.189
		c-0.057-0.055-0.136-0.106-0.238-0.153s-0.235-0.094-0.399-0.141l0.185-0.387c0.434,0.07,0.895,0.11,1.385,0.118
		c0.488,0.01,0.959-0.036,1.41-0.136c0.223,0.023,0.432,0.038,0.629,0.044c0.195,0.006,0.391,0.004,0.584-0.004
		c0.193-0.01,0.394-0.025,0.602-0.049s0.441-0.056,0.699-0.097l-0.158,0.694c-0.246,0.006-0.494,0.009-0.742,0.009
		c-0.25,0-0.477,0.006-0.682,0.018v2.083c0,0.094,0.007,0.152,0.021,0.176s0.034,0.035,0.058,0.035
		c0.07-0.006,0.173-0.023,0.308-0.053s0.282-0.066,0.443-0.109c0.161-0.045,0.328-0.09,0.502-0.137
		c0.172-0.047,0.335-0.094,0.487-0.141V157.917z M2.747,162.302c0.299,0,0.64-0.005,1.023-0.017s0.767-0.027,1.147-0.048
		s0.741-0.043,1.081-0.066s0.621-0.05,0.844-0.079c-0.018,0.141-0.031,0.263-0.039,0.366c-0.01,0.104-0.014,0.204-0.014,0.303v1.186
		c0,0.17-0.008,0.358-0.021,0.566c-0.016,0.208-0.055,0.438-0.119,0.69l-0.773,0.141c-0.012-0.07-0.021-0.158-0.031-0.264
		c-0.008-0.105-0.018-0.216-0.025-0.329c-0.01-0.115-0.017-0.227-0.022-0.334c-0.006-0.109-0.009-0.198-0.009-0.269v-1.432
		c-0.451-0.017-0.922-0.008-1.41,0.026c-0.49,0.034-0.96,0.066-1.411,0.096c-0.188,0.012-0.378,0.032-0.571,0.062
		s-0.387,0.059-0.58,0.088l-0.396-0.782c0.088,0.012,0.188,0.023,0.304,0.035c0.113,0.012,0.232,0.021,0.355,0.03
		s0.243,0.017,0.36,0.022C2.557,162.299,2.659,162.302,2.747,162.302z M3.055,159.042c0-0.1-0.006-0.19-0.018-0.272
		s-0.015-0.126-0.009-0.132c-0.123,0-0.232,0-0.33,0c-0.096,0-0.188,0.003-0.276,0.009s-0.175,0.012-0.259,0.018
		c-0.086,0.006-0.178,0.015-0.277,0.026v2.101c0,0.088,0.009,0.146,0.026,0.171c0.018,0.027,0.041,0.037,0.07,0.031
		c0.199-0.023,0.376-0.056,0.532-0.097c0.154-0.041,0.335-0.103,0.54-0.185V159.042z"/>
	<path d="M16.546,163.261c0.088-0.346,0.173-0.728,0.255-1.146s0.155-0.841,0.22-1.266s0.117-0.834,0.158-1.227
		s0.067-0.735,0.079-1.028c-0.211,0-0.444,0.002-0.698,0.005c-0.256,0.003-0.509,0.006-0.761,0.008
		c-0.252,0.004-0.497,0.01-0.733,0.018c-0.238,0.01-0.444,0.02-0.62,0.031c-0.082,0.006-0.188,0.015-0.316,0.026
		s-0.266,0.025-0.409,0.04s-0.289,0.033-0.439,0.057c-0.148,0.023-0.288,0.047-0.417,0.07c-0.07-0.141-0.143-0.281-0.216-0.421
		s-0.145-0.28-0.215-0.423c0.111,0.012,0.238,0.023,0.383,0.035c0.143,0.012,0.288,0.023,0.435,0.035s0.286,0.022,0.417,0.031
		c0.133,0.009,0.245,0.014,0.339,0.014c0.316,0,0.662-0.006,1.037-0.019c0.375-0.012,0.753-0.026,1.134-0.044
		s0.747-0.041,1.099-0.07s0.659-0.062,0.923-0.097c0.047,0.047,0.092,0.094,0.137,0.141c0.043,0.047,0.089,0.094,0.136,0.141
		c-0.053,0.376-0.12,0.79-0.202,1.241c-0.082,0.452-0.175,0.907-0.277,1.365s-0.211,0.9-0.324,1.329
		c-0.115,0.429-0.228,0.805-0.339,1.127c0.193-0.006,0.392-0.016,0.593-0.03c0.203-0.015,0.403-0.032,0.603-0.053
		s0.39-0.043,0.571-0.066s0.352-0.047,0.51-0.07c-0.018,0.135-0.035,0.272-0.053,0.413s-0.038,0.278-0.062,0.413
		c-0.117-0.006-0.258-0.01-0.422-0.014c-0.164-0.002-0.34-0.007-0.527-0.013s-0.382-0.01-0.585-0.013
		c-0.201-0.003-0.399-0.005-0.593-0.005c-0.615,0-1.208,0.008-1.78,0.022c-0.57,0.015-1.102,0.035-1.59,0.061
		c-0.49,0.027-0.925,0.055-1.306,0.084s-0.686,0.059-0.914,0.088c-0.053-0.146-0.105-0.29-0.158-0.431s-0.105-0.287-0.158-0.439
		c0.17,0.018,0.353,0.034,0.55,0.048c0.195,0.016,0.392,0.03,0.588,0.045s0.387,0.025,0.572,0.035
		c0.184,0.008,0.35,0.013,0.496,0.013c0.199,0,0.42-0.003,0.664-0.009c0.242-0.006,0.493-0.012,0.751-0.018s0.515-0.012,0.769-0.018
		C16.103,163.272,16.335,163.267,16.546,163.261z"/>
	<path d="M23.665,159.882c0.311,0.222,0.613,0.422,0.909,0.601s0.62,0.353,0.972,0.521l-0.747,0.649
		c0.141,0.029,0.305,0.064,0.492,0.105s0.334,0.076,0.439,0.105c-0.012,0.047-0.025,0.104-0.039,0.171
		c-0.016,0.067-0.034,0.139-0.058,0.215c0.229,0.035,0.437,0.1,0.624,0.193s0.349,0.208,0.483,0.343s0.24,0.285,0.316,0.453
		c0.076,0.166,0.114,0.344,0.114,0.531c0,0.217-0.052,0.419-0.154,0.606s-0.243,0.352-0.422,0.492s-0.39,0.251-0.633,0.329
		c-0.243,0.08-0.508,0.119-0.795,0.119c-0.293,0-0.562-0.039-0.805-0.119c-0.243-0.078-0.452-0.188-0.628-0.329
		s-0.313-0.305-0.413-0.492s-0.149-0.39-0.149-0.606c0-0.193,0.04-0.375,0.118-0.545c0.08-0.17,0.189-0.323,0.33-0.461
		s0.309-0.252,0.506-0.344c0.195-0.09,0.414-0.15,0.654-0.18c-0.006-0.07-0.037-0.127-0.092-0.172
		c-0.057-0.043-0.143-0.086-0.26-0.127l0.185-0.325c0.018,0.006,0.041,0.011,0.07,0.013c0.029,0.004,0.059,0.011,0.088,0.022
		c-0.223-0.24-0.459-0.478-0.708-0.712s-0.502-0.466-0.76-0.694c-0.41,0.393-0.853,0.741-1.327,1.046s-0.955,0.565-1.441,0.782
		l-0.264-0.343c0.773-0.393,1.442-0.877,2.009-1.455c0.564-0.576,0.994-1.19,1.287-1.841c-0.17,0.006-0.354,0.015-0.549,0.026
		c-0.197,0.012-0.38,0.021-0.55,0.026c-0.064,0-0.152,0.006-0.264,0.018s-0.23,0.026-0.356,0.044s-0.25,0.035-0.373,0.053
		s-0.231,0.032-0.325,0.044l-0.554-0.817c0.076,0.012,0.18,0.026,0.312,0.044c0.131,0.018,0.269,0.032,0.412,0.044
		s0.286,0.021,0.427,0.031c0.141,0.008,0.255,0.013,0.343,0.013c0.439,0.006,0.871-0.007,1.297-0.04
		c0.424-0.031,0.812-0.086,1.164-0.162l0.29,0.281c-0.135,0.351-0.302,0.677-0.501,0.978
		C24.143,159.319,23.917,159.607,23.665,159.882z M26.126,163.709c0-0.141-0.026-0.272-0.079-0.396s-0.125-0.229-0.215-0.32
		c-0.092-0.091-0.195-0.163-0.312-0.216s-0.237-0.079-0.36-0.079s-0.243,0.026-0.36,0.079s-0.222,0.125-0.312,0.216
		s-0.162,0.197-0.215,0.32s-0.079,0.255-0.079,0.396c0,0.152,0.026,0.29,0.079,0.413s0.124,0.229,0.215,0.32
		s0.195,0.161,0.312,0.211s0.237,0.075,0.36,0.075c0.129,0,0.252-0.025,0.369-0.075s0.22-0.12,0.308-0.211s0.158-0.197,0.211-0.32
		S26.126,163.861,26.126,163.709z M26.17,159.921c-0.299,0.018-0.592,0.044-0.879,0.079s-0.519,0.079-0.694,0.132l-0.387-0.8
		c0.07,0.012,0.159,0.023,0.269,0.035c0.107,0.012,0.222,0.022,0.342,0.03c0.12,0.01,0.239,0.016,0.356,0.018
		c0.117,0.004,0.22,0.005,0.308,0.005c0.082-0.006,0.183-0.012,0.303-0.018s0.248-0.006,0.383,0v-1.486
		c0-0.169-0.087-0.308-0.26-0.417c-0.173-0.107-0.452-0.212-0.839-0.312l0.202-0.387c0.135,0.018,0.293,0.041,0.475,0.07
		s0.366,0.062,0.554,0.097s0.367,0.067,0.54,0.097s0.315,0.053,0.427,0.07c-0.012,0.053-0.023,0.123-0.035,0.211
		s-0.022,0.176-0.03,0.264c-0.01,0.088-0.017,0.166-0.022,0.233s-0.009,0.104-0.009,0.109v2.698c0,0.105-0.006,0.231-0.018,0.378
		s-0.026,0.292-0.044,0.436s-0.035,0.279-0.053,0.408s-0.035,0.229-0.053,0.299l-0.747,0.123c-0.012-0.064-0.023-0.146-0.035-0.246
		s-0.021-0.203-0.031-0.312c-0.008-0.107-0.015-0.215-0.018-0.32s-0.004-0.199-0.004-0.281V159.921z"/>
	<path d="M33.351,163.41c0.211-0.012,0.402-0.021,0.576-0.026c0.172-0.006,0.314-0.012,0.426-0.018
		c0.193-0.006,0.396-0.018,0.606-0.035s0.42-0.036,0.628-0.057s0.409-0.043,0.603-0.066s0.369-0.044,0.527-0.062l-0.123,0.817
		c-0.117-0.006-0.257-0.012-0.417-0.018c-0.162-0.006-0.338-0.01-0.527-0.014c-0.191-0.002-0.387-0.005-0.59-0.008
		c-0.201-0.003-0.399-0.005-0.593-0.005c-0.158,0-0.354,0.002-0.585,0.005s-0.48,0.008-0.746,0.018
		c-0.268,0.008-0.541,0.018-0.822,0.025c-0.281,0.01-0.548,0.018-0.8,0.027c-0.252,0.008-0.48,0.019-0.686,0.03
		s-0.363,0.021-0.475,0.026c-0.223,0.012-0.469,0.031-0.738,0.057c-0.27,0.027-0.513,0.058-0.729,0.093l-0.325-0.905
		c0.129,0.018,0.269,0.034,0.417,0.049c0.15,0.015,0.304,0.027,0.462,0.039s0.314,0.021,0.47,0.031
		c0.155,0.008,0.301,0.016,0.436,0.021c0.105,0.006,0.232,0.009,0.383,0.009c0.148,0,0.312,0,0.487,0s0.36-0.001,0.554-0.004
		s0.39-0.008,0.589-0.014v-1.978c-0.322,0.006-0.62,0.012-0.892,0.018c-0.273,0.006-0.512,0.015-0.717,0.026
		c-0.229,0.018-0.4-0.036-0.514-0.163c-0.115-0.125-0.172-0.273-0.172-0.443v-1.978c0-0.111-0.008-0.205-0.021-0.281
		c-0.016-0.076-0.049-0.141-0.102-0.193s-0.129-0.098-0.229-0.136s-0.237-0.078-0.413-0.119l0.193-0.378
		c0.252,0.041,0.55,0.072,0.892,0.093c0.344,0.021,0.705,0.032,1.086,0.035s0.77,0,1.164-0.01c0.396-0.008,0.772-0.021,1.13-0.039
		s0.681-0.038,0.972-0.062c0.289-0.023,0.522-0.05,0.698-0.079l-0.158,0.773c-0.352-0.018-0.72-0.031-1.103-0.039
		c-0.385-0.01-0.764-0.014-1.139-0.014s-0.734,0.004-1.076,0.014c-0.344,0.008-0.644,0.021-0.901,0.039v2.206
		c0,0.047,0,0.083,0,0.11c0,0.025,0.007,0.047,0.022,0.061c0.014,0.016,0.036,0.024,0.065,0.027s0.073,0.004,0.132,0.004
		c0.217,0.006,0.506,0.003,0.865-0.009c0.361-0.012,0.743-0.029,1.147-0.053s0.801-0.053,1.19-0.088s0.723-0.07,0.998-0.105
		l-0.141,0.8c-0.293-0.012-0.609-0.021-0.949-0.026s-0.686-0.006-1.037,0V163.41z"/>
	<path d="M40.013,158.717c0.258,0.047,0.493,0.123,0.708,0.229c0.213,0.105,0.396,0.237,0.549,0.396s0.27,0.336,0.352,0.531
		c0.082,0.197,0.123,0.406,0.123,0.629c0,0.264-0.056,0.509-0.167,0.734s-0.266,0.42-0.462,0.584s-0.43,0.293-0.703,0.387
		c-0.271,0.094-0.566,0.141-0.883,0.141s-0.608-0.047-0.875-0.141s-0.496-0.223-0.689-0.387s-0.346-0.358-0.457-0.584
		s-0.167-0.471-0.167-0.734c0-0.234,0.045-0.454,0.136-0.659s0.217-0.387,0.379-0.545c0.16-0.158,0.354-0.29,0.58-0.396
		c0.225-0.105,0.473-0.173,0.742-0.202c0.006-0.094-0.015-0.167-0.062-0.22s-0.146-0.103-0.299-0.149l0.193-0.334
		c0.059,0.018,0.138,0.038,0.237,0.062s0.203,0.047,0.312,0.07c0.107,0.023,0.215,0.046,0.32,0.066s0.193,0.039,0.264,0.057
		C40.098,158.362,40.054,158.518,40.013,158.717z M40.716,160.475c0-0.182-0.032-0.35-0.097-0.505s-0.149-0.291-0.255-0.404
		c-0.105-0.115-0.229-0.205-0.369-0.273c-0.141-0.066-0.29-0.101-0.448-0.101s-0.307,0.034-0.443,0.101
		c-0.139,0.068-0.259,0.158-0.361,0.273c-0.103,0.113-0.184,0.249-0.246,0.404c-0.061,0.155-0.092,0.323-0.092,0.505
		c0,0.188,0.031,0.357,0.092,0.51c0.062,0.152,0.144,0.283,0.246,0.392s0.223,0.193,0.361,0.254
		c0.137,0.062,0.285,0.093,0.443,0.093s0.308-0.03,0.448-0.093c0.141-0.061,0.265-0.146,0.374-0.254
		c0.107-0.108,0.193-0.239,0.254-0.392C40.686,160.832,40.716,160.662,40.716,160.475z M43.713,161.521
		c0.129-0.006,0.273-0.018,0.436-0.035c0.16-0.018,0.321-0.035,0.482-0.053s0.316-0.036,0.467-0.057
		c0.148-0.021,0.282-0.04,0.399-0.058l-0.088,0.817c-0.088-0.006-0.202-0.01-0.343-0.014c-0.141-0.002-0.289-0.004-0.443-0.004
		c-0.156,0-0.314,0-0.475,0c-0.162,0-0.307,0-0.436,0v0.659c0,0.182-0.003,0.392-0.009,0.628c-0.006,0.238-0.017,0.477-0.03,0.717
		c-0.016,0.24-0.03,0.469-0.045,0.686s-0.03,0.39-0.048,0.519l-0.782,0.105c-0.012-0.094-0.021-0.222-0.031-0.382
		c-0.008-0.162-0.016-0.336-0.021-0.523s-0.012-0.378-0.018-0.571s-0.009-0.375-0.009-0.545v-5.493c0-0.17-0.081-0.309-0.241-0.418
		c-0.162-0.107-0.436-0.212-0.822-0.312l0.149-0.387c0.146,0.018,0.314,0.041,0.505,0.07s0.379,0.062,0.562,0.097
		c0.186,0.035,0.361,0.067,0.527,0.097c0.168,0.029,0.304,0.053,0.409,0.07c-0.012,0.053-0.023,0.123-0.035,0.211
		s-0.022,0.176-0.03,0.264c-0.01,0.088-0.017,0.166-0.022,0.233s-0.009,0.104-0.009,0.109v1.187c0.129-0.012,0.273-0.024,0.436-0.04
		c0.16-0.014,0.321-0.031,0.482-0.053c0.161-0.02,0.316-0.04,0.467-0.061c0.148-0.021,0.282-0.043,0.399-0.066l-0.088,0.835
		c-0.088-0.006-0.202-0.009-0.343-0.009s-0.289,0-0.443,0c-0.156,0-0.314,0-0.475,0c-0.162,0-0.307,0-0.436,0V161.521z"/>
	<path d="M46.569,163.428c0.193,0,0.357,0.065,0.492,0.198c0.135,0.131,0.202,0.279,0.202,0.443c0,0.17-0.067,0.32-0.202,0.453
		c-0.135,0.131-0.299,0.197-0.492,0.197c-0.094,0-0.184-0.018-0.268-0.053c-0.086-0.035-0.158-0.084-0.221-0.145
		c-0.061-0.062-0.111-0.131-0.148-0.207c-0.039-0.076-0.058-0.158-0.058-0.246c0-0.082,0.019-0.161,0.058-0.237
		c0.037-0.076,0.088-0.146,0.148-0.206c0.062-0.062,0.135-0.11,0.221-0.146C46.386,163.445,46.476,163.428,46.569,163.428z"/>
</g>
</svg>