<!-- Generator: Adobe Illustrator 21.1.0, SVG Export Plug-In  -->
<svg version="1.1"
	 xmlns="http://www.w3.org/2000/svg" xmlns:xlink="http://www.w3.org/1999/xlink" xmlns:a="http://ns.adobe.com/AdobeSVGViewerExtensions/3.0/"
	 x="0px" y="0px" width="20.812px" height="36.601px" viewBox="0 0 20.812 36.601"
	 style="enable-background:new 0 0 20.812 36.601;" xml:space="preserve">
<defs>
</defs>
<g>
	<path d="M19.089,7.506c0,0.87-0.14,1.71-0.419,2.518s-0.651,1.569-1.117,2.284s-1.024,1.36-1.677,1.935
		c-0.651,0.575-1.412,1.096-2.281,1.562c0.932,0.249,1.84,0.599,2.724,1.049c0.885,0.451,1.653,1.064,2.305,1.842
		c0.652,0.776,1.18,1.678,1.583,2.704c0.403,1.025,0.605,2.128,0.605,3.31c0,1.679-0.256,3.154-0.769,4.429
		c-0.512,1.275-1.226,2.386-2.142,3.334c-0.915,0.947-2.025,1.732-3.328,2.354c-1.304,0.622-2.747,1.104-4.33,1.445
		c-1.211,0.248-2.43,0.356-3.655,0.326c-1.227-0.032-2.32-0.188-3.282-0.471c-0.963-0.282-1.746-0.677-2.352-1.181
		c-0.605-0.505-0.907-1.088-0.907-1.748c0-0.496,0.217-1.017,0.651-1.56S1.8,30.822,2.7,30.822c0.993,0,1.831,0.217,2.515,0.651
		c0.682,0.436,1.304,0.823,1.862,1.164c0.559,0.403,1.039,0.652,1.443,0.746c0.402,0.093,0.775,0.124,1.117,0.092
		c0.714-0.03,1.427-0.217,2.142-0.559c0.714-0.341,1.365-0.807,1.955-1.396s1.071-1.312,1.443-2.165
		c0.373-0.854,0.574-1.808,0.605-2.863c0.062-3.073-0.706-5.23-2.305-6.472s-4.322-1.646-8.171-1.211v-2.281
		c1.304-0.279,2.482-0.698,3.538-1.257s1.948-1.211,2.678-1.956c0.729-0.744,1.287-1.56,1.676-2.444
		c0.388-0.884,0.582-1.792,0.582-2.724c0-1.676-0.372-2.909-1.117-3.701c-0.745-0.791-1.77-1.188-3.073-1.188
		c-1.366,0-2.631,0.521-3.794,1.56C4.633,5.859,3.786,7.295,3.259,9.126L0,8.893c0.31-1.304,0.783-2.498,1.42-3.585
		c0.636-1.086,1.412-2.025,2.328-2.816c0.915-0.792,1.955-1.404,3.119-1.84C8.031,0.218,9.296,0,10.662,0
		c1.147,0,2.234,0.187,3.259,0.56s1.916,0.901,2.677,1.585s1.366,1.484,1.816,2.4C18.863,5.462,19.089,6.449,19.089,7.506z"/>
</g>
</svg>