<!-- Generator: Adobe Illustrator 21.1.0, SVG Export Plug-In  -->
<svg version="1.1"
	 xmlns="http://www.w3.org/2000/svg" xmlns:xlink="http://www.w3.org/1999/xlink" xmlns:a="http://ns.adobe.com/AdobeSVGViewerExtensions/3.0/"
	 x="0px" y="0px" width="612.738px" height="2749.39px" viewBox="0 0 612.738 2749.39"
	 style="enable-background:new 0 0 612.738 2749.39;" xml:space="preserve">
<style type="text/css">
	.st0{fill:none;stroke:#FFFFFF;stroke-width:3;stroke-miterlimit:10;}
</style>
<defs>
</defs>
<g>
	<path class="st0" d="M1.264,0.807c257.787,403.551,253.907,655.655,199,813c-47.234,135.358-122.894,173.835-147,345
		c-3.532,25.078-42.574,334.074,147,545c78.277,87.093,119.448,72.813,164,155c64.603,119.176,61.881,303.883-34,415
		c-87.543,101.454-191.336,70.39-251,164c-57.717,90.556-22.626,216.965,17,311"/>
	<path class="st0" d="M52.014,0.807c257.787,403.551,253.907,655.655,199,813c-47.234,135.358-122.894,173.835-147,345
		c-3.532,25.078-42.574,334.074,147,545c78.277,87.093,119.448,72.813,164,155c64.603,119.176,61.881,303.883-34,415
		c-87.543,101.454-191.336,70.39-251,164c-57.717,90.556-22.626,216.965,17,311"/>
	<path class="st0" d="M102.764,0.807c257.787,403.551,253.907,655.655,199,813c-47.234,135.358-122.894,173.835-147,345
		c-3.532,25.078-42.574,334.074,147,545c78.277,87.093,119.448,72.813,164,155c64.603,119.176,61.881,303.883-34,415
		c-87.543,101.454-191.336,70.39-251,164c-57.717,90.556-22.626,216.965,17,311"/>
	<path class="st0" d="M153.514,0.807c257.787,403.551,253.907,655.655,199,813c-47.234,135.358-122.894,173.835-147,345
		c-3.532,25.078-42.574,334.074,147,545c78.277,87.093,119.448,72.813,164,155c64.603,119.176,61.881,303.883-34,415
		c-87.543,101.454-191.336,70.39-251,164c-57.717,90.556-22.626,216.965,17,311"/>
	<path class="st0" d="M204.264,0.807c257.787,403.551,253.907,655.655,199,813c-47.234,135.358-122.894,173.835-147,345
		c-3.532,25.078-42.574,334.074,147,545c78.277,87.093,119.448,72.813,164,155c64.603,119.176,61.881,303.883-34,415
		c-87.543,101.454-191.336,70.39-251,164c-57.717,90.556-22.626,216.965,17,311"/>
</g>
</svg>