<!-- Generator: Adobe Illustrator 21.1.0, SVG Export Plug-In  -->
<svg version="1.1"
	 xmlns="http://www.w3.org/2000/svg" xmlns:xlink="http://www.w3.org/1999/xlink" xmlns:a="http://ns.adobe.com/AdobeSVGViewerExtensions/3.0/"
	 x="0px" y="0px" width="12.523px" height="63.513px" viewBox="0 0 12.523 63.513"
	 style="enable-background:new 0 0 12.523 63.513;" xml:space="preserve">
<defs>
</defs>
<g>
	<g>
		<g>
			<rect x="10.55" y="0.005" transform="matrix(1 -0.0079 0.0079 1 -0.1231 0.0894)" width="1.481" height="31.342"/>
		</g>
	</g>
	<g>
		<ellipse transform="matrix(0.781 -0.6245 0.6245 0.781 -18.5358 11.026)" cx="6.454" cy="31.944" rx="6.514" ry="4.571"/>
	</g>
</g>
<g>
	<path d="M8.887,52.394c0-0.31-0.139-0.556-0.417-0.738c-0.278-0.183-0.709-0.344-1.292-0.484l0.164-0.377
		c0.456,0.055,0.916,0.125,1.381,0.212s0.875,0.166,1.23,0.239c-0.037,0.164-0.068,0.351-0.096,0.561s-0.041,0.405-0.041,0.588
		v3.541c0.374-0.019,0.797-0.053,1.271-0.103c0.474-0.05,0.952-0.116,1.436-0.198L12.4,56.482c-0.191-0.009-0.399-0.014-0.622-0.014
		c-0.224,0-0.451,0-0.684,0s-0.458,0.002-0.677,0.007s-0.419,0.007-0.602,0.007v1.586c0,0.21-0.007,0.431-0.021,0.663
		s-0.03,0.465-0.048,0.697c-0.019,0.232-0.041,0.453-0.068,0.663s-0.06,0.392-0.096,0.547l-0.602,0.096
		c-0.019-0.118-0.032-0.269-0.041-0.451c-0.009-0.183-0.019-0.376-0.027-0.581c-0.009-0.205-0.016-0.412-0.021-0.622
		c-0.005-0.21-0.007-0.396-0.007-0.561v-1.654c-0.41,0.164-0.891,0.33-1.442,0.499c-0.552,0.169-1.126,0.328-1.723,0.479
		c-0.597,0.15-1.189,0.287-1.777,0.41s-1.124,0.217-1.606,0.28c-0.41,0.063-0.702,0.016-0.875-0.144
		c-0.173-0.159-0.26-0.449-0.26-0.868v-2.967c0-0.183-0.014-0.337-0.041-0.465s-0.084-0.239-0.171-0.335
		c-0.087-0.096-0.21-0.18-0.369-0.253C0.462,53.428,0.255,53.356,0,53.283l0.15-0.342c0.501,0.073,1.037,0.121,1.606,0.144
		c0.569,0.022,1.146,0.022,1.729,0c0.583-0.022,1.153-0.062,1.709-0.116c0.556-0.055,1.071-0.118,1.545-0.191l-0.178,0.807
		c-0.866-0.036-1.684-0.041-2.454-0.014c-0.771,0.027-1.429,0.063-1.976,0.109v3.582c0,0.183,0.05,0.308,0.15,0.376
		c0.1,0.068,0.228,0.098,0.383,0.089c0.401-0.027,0.87-0.08,1.408-0.157c0.538-0.077,1.094-0.176,1.668-0.294
		s1.137-0.248,1.688-0.39c0.551-0.142,1.037-0.289,1.456-0.444V52.394z M10.678,63.4c-0.574-0.009-1.146-0.014-1.716-0.014
		c-0.57,0-1.124,0.005-1.661,0.014c-0.538,0.009-1.053,0.022-1.545,0.041s-0.943,0.041-1.354,0.068
		c-0.255,0.019-0.44-0.034-0.554-0.157c-0.114-0.123-0.171-0.275-0.171-0.458v-1.682c0-0.21-0.012-0.381-0.034-0.513
		c-0.023-0.132-0.075-0.241-0.157-0.328s-0.201-0.159-0.355-0.219c-0.155-0.06-0.369-0.125-0.643-0.198l0.164-0.355
		c0.137,0.019,0.292,0.039,0.465,0.062c0.173,0.022,0.351,0.046,0.533,0.068c0.182,0.022,0.364,0.046,0.547,0.068
		c0.182,0.022,0.342,0.043,0.479,0.062c-0.019,0.109-0.034,0.262-0.048,0.458s-0.021,0.376-0.021,0.54v1.6
		c0,0.2,0.045,0.33,0.137,0.39c0.091,0.06,0.269,0.094,0.533,0.103c0.346,0.009,0.756,0.005,1.23-0.014
		c0.474-0.019,0.966-0.046,1.477-0.082c0.51-0.036,1.014-0.08,1.511-0.13c0.497-0.05,0.945-0.107,1.347-0.171L10.678,63.4z"/>
</g>
</svg>