<!-- Generator: Adobe Illustrator 21.1.0, SVG Export Plug-In  -->
<svg version="1.1"
	 xmlns="http://www.w3.org/2000/svg" xmlns:xlink="http://www.w3.org/1999/xlink" xmlns:a="http://ns.adobe.com/AdobeSVGViewerExtensions/3.0/"
	 x="0px" y="0px" width="20.371px" height="72.76px" viewBox="0 0 20.371 72.76" style="enable-background:new 0 0 20.371 72.76;"
	 xml:space="preserve">
<defs>
</defs>
<g>
	<g>
		<polygon points="10.756,40.491 10.509,0.015 11.989,0 12.236,40.477 		"/>
	</g>
</g>
<g>
	<ellipse transform="matrix(0.781 -0.6245 0.6245 0.781 -24.2254 13.0785)" cx="6.536" cy="41.083" rx="6.514" ry="4.571"/>
</g>
<g>
	<path d="M6.809,61.588c-0.255,0.675-0.615,1.338-1.08,1.989s-0.994,1.26-1.586,1.825c-0.593,0.565-1.224,1.068-1.894,1.511
		s-1.333,0.795-1.989,1.06L0,67.686c0.574-0.273,1.139-0.606,1.695-0.998c0.556-0.392,1.075-0.829,1.559-1.312
		c0.483-0.483,0.914-1,1.292-1.552c0.378-0.552,0.681-1.114,0.909-1.688c-0.201,0-0.422,0.002-0.663,0.007
		c-0.242,0.005-0.477,0.012-0.704,0.021c-0.228,0.009-0.438,0.019-0.629,0.027s-0.333,0.019-0.424,0.027
		c-0.091,0.009-0.217,0.019-0.376,0.027c-0.16,0.009-0.328,0.022-0.506,0.041s-0.355,0.039-0.533,0.062s-0.335,0.048-0.472,0.075
		l-0.547-0.861c0.109,0.019,0.241,0.034,0.396,0.048c0.155,0.014,0.321,0.027,0.499,0.041s0.355,0.025,0.533,0.034
		s0.344,0.014,0.499,0.014c0.383,0,0.774-0.009,1.176-0.027c0.401-0.019,0.779-0.041,1.135-0.068s0.674-0.062,0.957-0.103
		c0.282-0.041,0.501-0.084,0.656-0.13L6.809,61.588z M4.307,70.023c0.52,0.019,1.041,0.021,1.565,0.007
		c0.524-0.014,1.032-0.036,1.524-0.068s0.961-0.068,1.408-0.109c0.446-0.041,0.848-0.084,1.203-0.13l-0.123,0.834
		c-1.066-0.046-2.062-0.064-2.987-0.055c-0.925,0.009-1.789,0.036-2.591,0.081v1.126c0,0.199,0.045,0.33,0.137,0.394
		c0.091,0.062,0.269,0.1,0.533,0.108c0.355,0.009,0.768,0.009,1.237,0c0.469-0.009,0.955-0.027,1.456-0.055
		c0.501-0.027,0.998-0.063,1.49-0.109s0.938-0.096,1.34-0.15l-0.123,0.82c-0.574-0.027-1.144-0.046-1.709-0.055
		c-0.565-0.009-1.117-0.009-1.654,0c-0.538,0.009-1.053,0.022-1.545,0.041s-0.943,0.036-1.354,0.055
		c-0.483,0.027-0.725-0.219-0.725-0.738v-2.693c0-0.2-0.014-0.364-0.041-0.492s-0.084-0.237-0.171-0.328
		c-0.087-0.091-0.208-0.169-0.362-0.232c-0.155-0.063-0.36-0.132-0.615-0.205l0.15-0.342c0.374,0.063,0.788,0.111,1.244,0.144
		c0.456,0.032,0.927,0.053,1.415,0.062c0.487,0.009,0.978,0.007,1.47-0.007s0.964-0.034,1.415-0.062s0.87-0.062,1.258-0.103
		c0.387-0.041,0.718-0.084,0.991-0.13l-0.123,0.834c-1.14-0.063-2.169-0.084-3.09-0.062c-0.921,0.022-1.796,0.057-2.625,0.103
		V70.023z M9.939,64.801c0,0.164-0.007,0.355-0.021,0.574s-0.032,0.433-0.055,0.643c-0.023,0.21-0.046,0.41-0.068,0.602
		c-0.023,0.191-0.048,0.342-0.075,0.451l-0.615,0.096c-0.027-0.2-0.05-0.456-0.068-0.766c-0.019-0.31-0.027-0.593-0.027-0.848v-4.02
		c0-0.31-0.139-0.556-0.417-0.738c-0.278-0.183-0.709-0.344-1.292-0.484l0.164-0.377c0.456,0.055,0.916,0.125,1.381,0.212
		s0.875,0.166,1.23,0.239c-0.037,0.164-0.068,0.351-0.096,0.561s-0.041,0.405-0.041,0.588v2.283
		c0.374-0.019,0.797-0.053,1.271-0.103c0.474-0.05,0.957-0.116,1.449-0.198l-0.137,0.848c-0.191-0.009-0.399-0.014-0.622-0.014
		c-0.224,0-0.451,0-0.684,0s-0.458,0.002-0.677,0.007s-0.419,0.007-0.602,0.007V64.801z"/>
</g>
<path d="M12.024,9c0,0,2.084,6.349,4.267,8.966c2.743,3.287,4.572,6.575,3.963,9.862S16.901,35,16.901,35s2.896-4.931,2.286-7.92
	s-3.895-6.362-5.03-7.92c-1.524-2.092-2.286-3.736-2.286-3.736L12.024,9z"/>
<path d="M12.024,0c0,0,2.084,6.349,4.267,8.966c2.743,3.287,4.572,6.575,3.963,9.862S16.901,26,16.901,26s2.896-4.931,2.286-7.92
	s-3.895-6.362-5.03-7.92c-1.524-2.092-2.286-3.736-2.286-3.736L12.024,0z"/>
</svg>