<!-- Generator: Adobe Illustrator 21.1.0, SVG Export Plug-In  -->
<svg version="1.1"
	 xmlns="http://www.w3.org/2000/svg" xmlns:xlink="http://www.w3.org/1999/xlink" xmlns:a="http://ns.adobe.com/AdobeSVGViewerExtensions/3.0/"
	 x="0px" y="0px" width="83.608px" height="338.815px" viewBox="0 0 83.608 338.815"
	 style="enable-background:new 0 0 83.608 338.815;" xml:space="preserve">
<defs>
</defs>
<g>
	<path d="M77.624,36.663v4.888L57.986,37.59v10.62l-3.287-0.591V37l-17.868-3.54v11.463l-3.118-0.843V32.786l-20.902-4.13v-5.058
		l20.902,4.215v-11.8l-20.902-4.299V6.489l20.902,4.468V0l3.118,0.759v10.788l17.868,3.708v-11.8l3.287,0.675v11.8l19.638,4.13
		v5.057L57.986,21.07v11.631L77.624,36.663z M54.699,20.312l-17.868-3.624v11.8l17.868,3.624V20.312z"/>
	<path d="M67.258,99.116c-4.877-1.631-9.612-3.85-14.209-6.658c-4.596-2.811-8.911-5.999-12.946-9.566
		c-4.035-3.568-7.683-7.417-10.94-11.547c-3.26-4.13-5.957-8.33-8.092-12.6l1.854-1.854c2.415,4.046,5.226,7.894,8.429,11.547
		c3.202,3.651,6.616,6.953,10.24,9.903c3.624,2.949,7.388,5.506,11.294,7.669c3.904,2.163,7.767,3.807,11.589,4.931
		c0-0.843-0.029-2.022-0.085-3.539c-0.057-1.518-0.113-3.091-0.168-4.721c-0.057-1.63-0.113-3.189-0.169-4.678
		c-0.057-1.489-0.084-2.627-0.084-3.413c0-0.619-0.042-1.42-0.127-2.402c-0.084-0.983-0.183-2.022-0.295-3.118
		c-0.113-1.096-0.225-2.206-0.337-3.329c-0.113-1.125-0.253-2.164-0.421-3.118l5.225-3.287c-0.168,0.729-0.309,1.572-0.421,2.528
		c-0.113,0.955-0.211,1.952-0.294,2.992c-0.084,1.039-0.14,2.078-0.167,3.118c-0.027,1.039-0.041,2.036-0.041,2.992
		c0,2.078,0.026,4.326,0.082,6.742c0.055,2.416,0.167,4.805,0.336,7.164c0.168,2.36,0.379,4.606,0.632,6.743
		c0.253,2.135,0.575,3.988,0.969,5.562L67.258,99.116z M83.608,103.836c-0.337,2.809-0.773,5.647-1.307,8.513
		c-0.534,2.865-1.025,5.394-1.475,7.585c-1.012-0.225-2.164-0.421-3.456-0.59c-1.293-0.168-2.501-0.253-3.624-0.253H26.549
		c-1.742,0-3.737-0.042-5.983-0.126c-2.248-0.084-4.496-0.184-6.743-0.295c-2.246-0.113-4.383-0.253-6.405-0.422
		c-2.022-0.168-3.68-0.366-4.973-0.59l-0.422-3.54c0.956-0.113,2.149-0.225,3.582-0.337c1.434-0.113,2.979-0.197,4.636-0.253
		c1.658-0.057,3.357-0.099,5.1-0.126c1.74-0.029,3.426-0.042,5.057-0.042h53.351c1.91,0,3.427-0.857,4.552-2.571
		c1.123-1.715,2.118-4.369,2.985-7.965L83.608,103.836z"/>
	<path d="M0,132.829h3.624v43.321H0V132.829z"/>
	<path d="M49.053,216.354c-3.034,2.64-5.887,5.352-8.555,8.133c-2.67,2.781-5.156,5.689-7.459,8.724l-4.299-4.636
		c2.866-2.079,5.744-4.271,8.639-6.574c2.894-2.305,5.942-4.692,9.146-7.164c-8.429-4.776-15.874-10.872-22.335-18.289l1.601-1.602
		c1.461,1.461,2.978,2.865,4.552,4.214c1.572,1.349,3.174,2.584,4.804,3.709c1.741-1.293,3.554-2.769,5.437-4.425
		c1.882-1.658,3.694-3.302,5.437-4.931c-3.371-2.191-6.49-4.622-9.355-7.291c-2.866-2.669-5.562-5.492-8.091-8.47l1.433-1.518
		c2.359,2.472,4.888,4.79,7.585,6.953s5.506,4.088,8.429,5.773c2.921,1.687,5.899,3.119,8.934,4.299s6.068,2.022,9.103,2.528
		c0.843,0.169,1.518,0.267,2.022,0.295c0.506,0.028,0.982-0.324,1.434-1.054c0.392-0.505,0.744-1.053,1.053-1.644
		c0.309-0.59,0.717-1.475,1.223-2.654l1.854,1.433c-0.282,1.123-0.535,2.149-0.759,3.076c-0.226,0.928-0.464,1.854-0.717,2.781
		c-0.253,0.928-0.506,1.854-0.759,2.781c-0.252,0.928-0.576,1.952-0.969,3.076c-3.821-1.124-7.375-2.443-10.662-3.961
		c-3.287-1.517-6.42-3.175-9.397-4.973c-1.854,1.798-3.54,3.596-5.057,5.395c-1.518,1.797-2.838,3.624-3.961,5.478
		c4.157,2.697,8.398,4.959,12.727,6.785c4.326,1.825,8.681,3.132,13.063,3.919c0.786,0.169,1.433,0.253,1.938,0.253
		s1.012-0.337,1.518-1.011c0.337-0.506,0.687-1.139,1.053-1.896c0.365-0.759,0.856-1.757,1.476-2.992l1.938,1.433
		c-0.619,2.304-1.181,4.383-1.686,6.237c-0.506,1.854-1.152,3.848-1.938,5.983c-3.653-1.011-7.164-2.206-10.536-3.582
		C55.542,219.569,52.255,218.039,49.053,216.354z M26.549,241.975c-1.742,0-3.737-0.042-5.983-0.126
		c-2.248-0.084-4.496-0.183-6.743-0.295c-2.246-0.113-4.383-0.253-6.405-0.422c-2.022-0.168-3.68-0.365-4.973-0.59l-0.422-3.54
		c0.956-0.113,2.149-0.21,3.582-0.295c1.434-0.084,2.979-0.155,4.636-0.21c1.658-0.057,3.357-0.1,5.1-0.127
		c1.74-0.029,3.426-0.042,5.057-0.042h53.351c1.91,0,3.427-0.857,4.552-2.57c1.123-1.715,2.118-4.37,2.985-7.965l2.324,0.927
		c-0.337,2.866-0.773,5.717-1.307,8.555c-0.534,2.837-1.025,5.38-1.475,7.628c-1.012-0.282-2.164-0.506-3.456-0.675
		c-1.293-0.168-2.501-0.253-3.624-0.253H48.041c0.112,2.36,0.309,5.016,0.59,7.965c0.28,2.95,0.675,5.942,1.18,8.977l-5.31-0.759
		c0.056-1.18,0.085-2.473,0.085-3.877c0-1.405,0-2.823,0-4.256c0-1.434-0.015-2.853-0.043-4.257
		c-0.028-1.405-0.042-2.669-0.042-3.793H26.549z"/>
	<path d="M39.528,304.091c-1.799,0-3.568-0.057-5.31-0.168c-1.742-0.113-3.287-0.282-4.636-0.506
		c0.112,3.203,0.253,6.391,0.422,9.566c0.168,3.174,0.393,6.334,0.674,9.481c-3.213-0.45-6.582-0.914-10.105-1.391
		c-3.525-0.479-6.726-0.857-9.602-1.138c0.113,0.617,0.184,1.207,0.212,1.77c0.028,0.562,0.07,1.067,0.126,1.518l-4.735-1.096
		c0.168-2.305,0.295-4.96,0.379-7.965c0.085-3.007,0.127-6.125,0.127-9.355c0-3.231-0.028-6.405-0.085-9.524
		c-0.055-3.118-0.14-5.914-0.253-8.386c-1.291-0.113-2.443-0.281-3.455-0.506l-0.59-3.287c1.067-0.281,2.333-0.492,3.795-0.632
		c1.465-0.141,2.929-0.268,4.395-0.379l11.083-1.096c1.071-0.113,1.945-0.253,2.622-0.422c0.677-0.168,1.227-0.436,1.65-0.801
		c0.423-0.366,0.775-0.914,1.058-1.644c0.281-0.73,0.591-1.686,0.931-2.865l2.195,0.927c-0.45,3.54-0.745,7.164-0.885,10.873
		c-0.141,3.708-0.183,7.501-0.126,11.378c1.281-0.113,2.744-0.197,4.388-0.253c1.644-0.057,3.106-0.084,4.389-0.084h1.506
		c-0.057-2.417-0.127-4.805-0.211-7.164c-0.084-2.36-0.169-4.58-0.253-6.658c-0.084-2.08-0.168-3.934-0.253-5.563
		c-0.084-1.63-0.155-2.895-0.211-3.792c-0.112-2.191-0.252-4.37-0.421-6.532c-0.169-2.164-0.394-4.285-0.674-6.363l5.983-2.191
		c-0.281,2.641-0.507,5.142-0.676,7.501c-0.17,2.36-0.312,4.859-0.427,7.501c-0.058,1.404-0.087,3.259-0.087,5.563
		c0,2.303,0.028,4.816,0.086,7.543c0.058,2.725,0.116,5.562,0.174,8.513c0.058,2.949,0.129,5.786,0.214,8.513
		c0.084,2.725,0.168,5.226,0.253,7.501c0.084,2.275,0.153,4.115,0.21,5.521c0.169,3.877,0.393,7.557,0.675,11.041
		c0.28,3.483,0.645,6.742,1.096,9.776l-5.479-0.843c0.111-2.248,0.196-5.015,0.253-8.302c0.055-3.287,0.111-6.841,0.168-10.662
		c0-1.63-0.014-3.765-0.042-6.405c-0.028-2.642-0.099-5.479-0.211-8.513H39.528z M78.72,302.574c-0.281,2.415-0.829,4.648-1.644,6.7
		c-0.814,2.051-1.854,3.806-3.118,5.268c-1.265,1.461-2.712,2.613-4.341,3.456c-1.63,0.843-3.371,1.264-5.226,1.264
		c-2.136,0-4.088-0.492-5.857-1.475c-1.77-0.983-3.302-2.36-4.594-4.13c-1.293-1.77-2.304-3.85-3.034-6.237
		c-0.73-2.389-1.096-4.959-1.096-7.711c0-2.754,0.365-5.311,1.096-7.67c0.73-2.36,1.741-4.397,3.034-6.11
		c1.292-1.715,2.824-3.063,4.594-4.046c1.77-0.983,3.722-1.475,5.857-1.475c1.967,0,3.807,0.463,5.521,1.391
		c1.714,0.927,3.216,2.191,4.51,3.792c1.292,1.602,2.331,3.512,3.118,5.731c0.786,2.219,1.235,4.621,1.349,7.206
		c0.617-0.113,1.138-0.436,1.559-0.969c0.422-0.535,0.829-1.447,1.223-2.739l1.602,0.759c-0.282,1.403-0.521,2.767-0.717,4.087
		c-0.197,1.32-0.436,2.711-0.716,4.172c-0.562-0.225-1.083-0.45-1.56-0.674C79.801,302.938,79.281,302.743,78.72,302.574z
		 M64.729,313.193c1.572,0,3.062-0.337,4.467-1.011c1.403-0.675,2.64-1.602,3.708-2.781c1.066-1.181,1.909-2.571,2.528-4.172
		c0.618-1.602,0.928-3.33,0.928-5.184c0-1.911-0.31-3.681-0.928-5.31c-0.619-1.631-1.462-3.049-2.528-4.257
		c-1.068-1.209-2.305-2.149-3.708-2.823c-1.405-0.675-2.895-1.012-4.467-1.012c-1.687,0-3.232,0.337-4.636,1.012
		c-1.405,0.674-2.613,1.614-3.624,2.823c-1.012,1.208-1.799,2.626-2.36,4.257c-0.562,1.629-0.843,3.398-0.843,5.31
		c0,1.854,0.28,3.582,0.843,5.184c0.562,1.601,1.349,2.991,2.36,4.172c1.011,1.18,2.219,2.106,3.624,2.781
		C61.497,312.856,63.043,313.193,64.729,313.193z M26.298,315.807c0.055-1.799,0.096-4.018,0.125-6.658
		c0.027-2.642,0.013-5.353-0.042-8.134c-0.056-2.781-0.126-5.45-0.21-8.007c-0.084-2.558-0.182-4.622-0.294-6.194l-13.415,0.337
		H9.861c0,2.135,0.015,4.41,0.042,6.827c0.029,2.415,0.084,4.859,0.169,7.332c0.084,2.473,0.168,4.902,0.251,7.291
		c0.086,2.388,0.211,4.648,0.378,6.784L26.298,315.807z"/>
</g>
</svg>