<!-- Generator: Adobe Illustrator 21.1.0, SVG Export Plug-In  -->
<svg version="1.1"
	 xmlns="http://www.w3.org/2000/svg" xmlns:xlink="http://www.w3.org/1999/xlink" xmlns:a="http://ns.adobe.com/AdobeSVGViewerExtensions/3.0/"
	 x="0px" y="0px" width="11.893px" height="64.029px" viewBox="0 0 11.893 64.029"
	 style="enable-background:new 0 0 11.893 64.029;" xml:space="preserve">
<defs>
</defs>
<g>
	<g>
		<g>
			<rect x="10.154" y="0.005" transform="matrix(1 -0.0079 0.0079 1 -0.1231 0.0863)" width="1.481" height="31.342"/>
		</g>
	</g>
	<g>
		<ellipse transform="matrix(0.781 -0.6245 0.6245 0.781 -18.6227 10.7783)" cx="6.058" cy="31.944" rx="6.514" ry="4.571"/>
	</g>
</g>
<g>
	<path d="M6.85,53.447c-0.265,0.791-0.625,1.56-1.08,2.305c-0.456,0.746-0.973,1.445-1.552,2.101
		c-0.579,0.654-1.203,1.246-1.873,1.774s-1.352,0.966-2.044,1.312L0,60.638c0.656-0.392,1.28-0.848,1.873-1.367
		c0.592-0.52,1.128-1.073,1.606-1.661s0.893-1.198,1.244-1.832c0.351-0.634,0.617-1.26,0.8-1.88c-0.137,0-0.328,0.005-0.574,0.014
		s-0.501,0.019-0.766,0.027c-0.265,0.009-0.518,0.019-0.759,0.027c-0.242,0.009-0.426,0.014-0.554,0.014
		c-0.101,0-0.23,0.007-0.39,0.021c-0.16,0.014-0.328,0.029-0.506,0.048s-0.358,0.036-0.54,0.055
		c-0.183,0.019-0.351,0.041-0.506,0.068l-0.533-0.848c0.118,0.027,0.255,0.05,0.41,0.068c0.155,0.019,0.316,0.034,0.485,0.048
		c0.168,0.014,0.337,0.022,0.506,0.027c0.168,0.004,0.33,0.006,0.485,0.006c0.337,0,0.702-0.004,1.094-0.013
		c0.392-0.009,0.779-0.027,1.162-0.055s0.747-0.062,1.094-0.103c0.346-0.041,0.647-0.094,0.902-0.157L6.85,53.447z M7.615,50.794
		c0.456,0.055,0.916,0.125,1.381,0.212s0.875,0.166,1.23,0.239c-0.037,0.164-0.068,0.351-0.096,0.561s-0.041,0.405-0.041,0.588
		v7.656c0,0.282-0.007,0.606-0.021,0.971s-0.03,0.729-0.048,1.094c-0.019,0.364-0.041,0.711-0.068,1.039s-0.06,0.597-0.096,0.807
		l-0.574,0.068c-0.019-0.155-0.037-0.349-0.055-0.581c-0.019-0.232-0.032-0.483-0.041-0.752c-0.009-0.269-0.016-0.545-0.021-0.827
		c-0.005-0.282-0.007-0.556-0.007-0.82v-8.654c0-0.31-0.139-0.556-0.417-0.738c-0.278-0.183-0.709-0.344-1.292-0.484L7.615,50.794z"
		/>
</g>
</svg>