<!-- Generator: Adobe Illustrator 21.1.0, SVG Export Plug-In  -->
<svg version="1.1"
	 xmlns="http://www.w3.org/2000/svg" xmlns:xlink="http://www.w3.org/1999/xlink" xmlns:a="http://ns.adobe.com/AdobeSVGViewerExtensions/3.0/"
	 x="0px" y="0px" width="208.069px" height="130.587px" viewBox="0 0 208.069 130.587"
	 style="enable-background:new 0 0 208.069 130.587;" xml:space="preserve">
<style type="text/css">
	.st0{fill:none;stroke:#000000;stroke-miterlimit:10;}
</style>
<defs>
</defs>
<g>
	<g>
		<rect x="204.746" y="59.201" transform="matrix(1 -0.0079 0.0079 1 -0.6956 1.626)" width="2.83" height="59.901"/>
	</g>
</g>
<g>
	<ellipse transform="matrix(0.781 -0.6245 0.6245 0.781 -31.9708 149.3085)" cx="196.918" cy="120.242" rx="12.45" ry="8.737"/>
</g>
<g>
	<g>
		<rect x="18.98" y="59.201" transform="matrix(1 -0.0079 0.0079 1 -0.7013 0.1633)" width="2.83" height="59.901"/>
	</g>
</g>
<g>
	<ellipse transform="matrix(0.781 -0.6245 0.6245 0.781 -72.6507 33.2954)" cx="11.152" cy="120.242" rx="12.45" ry="8.737"/>
</g>
<g>
	<g>
		<rect x="112.274" y="59.201" transform="matrix(1 -0.0079 0.0079 1 -0.6984 0.8979)" width="2.83" height="59.901"/>
	</g>
</g>
<g>
	<ellipse transform="matrix(0.781 -0.6245 0.6245 0.781 -52.2207 91.5586)" cx="104.446" cy="120.242" rx="12.45" ry="8.737"/>
</g>
<g>
	<g>
		<rect x="65.627" y="59.201" transform="matrix(1 -0.0079 0.0079 1 -0.6999 0.5306)" width="2.83" height="59.901"/>
	</g>
</g>
<g>
	<ellipse transform="matrix(0.781 -0.6245 0.6245 0.781 -62.4357 62.427)" cx="57.799" cy="120.242" rx="12.45" ry="8.737"/>
</g>
<g>
	<g>
		<rect x="158.51" y="59.201" transform="matrix(1 -0.0079 0.0079 1 -0.697 1.262)" width="2.83" height="59.901"/>
	</g>
</g>
<g>
	<ellipse transform="matrix(0.781 -0.6245 0.6245 0.781 -42.0958 120.4335)" cx="150.682" cy="120.242" rx="12.45" ry="8.737"/>
</g>
<g>
	<g>
		<rect x="18.705" y="57.315" width="188.658" height="9.433"/>
	</g>
</g>
<polyline class="st0" points="20.436,29.052 20.436,10.052 70.436,10.052 "/>
<polyline class="st0" points="205.436,29.052 205.436,10.052 155.436,10.052 "/>
<g>
	<path d="M82.207,15.84c-0.682-0.733-1.022-1.657-1.022-2.771c0-0.792,0.165-1.588,0.495-2.388c0.329-0.799,0.803-1.499,1.419-2.101
		c0.615-0.602,1.334-1.005,2.155-1.21c-0.454-0.322-0.792-0.715-1.012-1.177c-0.22-0.463-0.33-0.95-0.33-1.464
		c0-0.762,0.209-1.51,0.627-2.243s0.997-1.331,1.738-1.793C87.018,0.23,87.836,0,88.731,0c0.924,0,1.679,0.242,2.266,0.726
		c0.587,0.484,0.88,1.159,0.88,2.024c0,0.646-0.161,1.188-0.483,1.628c-0.323,0.44-0.704,0.66-1.145,0.66
		c-0.396,0-0.74-0.198-1.034-0.594c0.265-0.089,0.491-0.33,0.683-0.727c0.19-0.396,0.286-0.792,0.286-1.188
		c0-0.426-0.118-0.737-0.353-0.936s-0.521-0.297-0.857-0.297c-0.426,0-0.811,0.15-1.155,0.451s-0.612,0.689-0.803,1.166
		c-0.191,0.477-0.286,0.972-0.286,1.485c0,0.703,0.183,1.323,0.55,1.858c0.366,0.536,0.924,0.898,1.672,1.089
		c-0.748,0.162-1.423,0.528-2.023,1.101c-0.602,0.571-1.071,1.235-1.408,1.99c-0.338,0.756-0.506,1.479-0.506,2.167
		c0,0.66,0.172,1.196,0.517,1.606c0.345,0.411,0.869,0.616,1.573,0.616c0.733,0,1.499-0.201,2.299-0.605
		c0.799-0.403,1.39-0.949,1.771-1.639l0.507,0.22c-0.572,1.262-1.452,2.267-2.641,3.015c-1.188,0.748-2.457,1.122-3.806,1.122
		C83.898,16.94,82.89,16.573,82.207,15.84z"/>
	<path d="M91.601,16.016c-0.433-0.439-0.648-1.1-0.648-1.979c0-0.366,0.059-0.844,0.176-1.431l2.354-11.021l3.257-0.44l-2.53,11.881
		c-0.059,0.22-0.088,0.454-0.088,0.703c0,0.294,0.069,0.503,0.209,0.627c0.139,0.125,0.37,0.188,0.692,0.188
		c0.426,0,0.821-0.18,1.188-0.539c0.366-0.359,0.631-0.825,0.792-1.397h0.924c-0.543,1.585-1.239,2.659-2.09,3.224
		s-1.694,0.847-2.53,0.847C92.602,16.676,92.033,16.456,91.601,16.016z"/>
	<path d="M97.618,15.829c-0.602-0.564-0.902-1.448-0.902-2.651c0-1.012,0.198-2.126,0.594-3.344c0.396-1.217,1.042-2.27,1.937-3.157
		c0.895-0.887,2.031-1.331,3.41-1.331c1.613,0,2.42,0.704,2.42,2.112c0,0.821-0.235,1.577-0.704,2.266
		c-0.47,0.689-1.093,1.243-1.87,1.661s-1.606,0.657-2.486,0.715c-0.029,0.44-0.044,0.734-0.044,0.88
		c0,0.719,0.125,1.207,0.374,1.464s0.652,0.385,1.21,0.385c0.792,0,1.471-0.184,2.035-0.55c0.564-0.367,1.185-0.925,1.859-1.673
		h0.748c-1.628,2.714-3.646,4.07-6.05,4.07C99.063,16.676,98.219,16.394,97.618,15.829z M101.743,10.472
		c0.491-0.352,0.887-0.799,1.188-1.342c0.301-0.542,0.451-1.114,0.451-1.716s-0.184-0.902-0.55-0.902
		c-0.528,0-1.045,0.462-1.551,1.386c-0.506,0.925-0.869,1.974-1.089,3.146C100.735,11.015,101.251,10.824,101.743,10.472z"/>
	<path d="M107.584,21.494c-0.47-0.367-0.704-0.895-0.704-1.584c0-0.836,0.338-1.507,1.013-2.014
		c0.674-0.506,1.532-0.928,2.573-1.265l0.265-1.166c-0.748,0.807-1.628,1.21-2.641,1.21c-0.836,0-1.532-0.286-2.09-0.857
		c-0.557-0.572-0.836-1.467-0.836-2.685c0-1.085,0.217-2.226,0.649-3.421s1.078-2.207,1.936-3.036
		c0.858-0.828,1.881-1.243,3.069-1.243c0.601,0,1.048,0.104,1.342,0.309c0.293,0.205,0.44,0.477,0.44,0.813v0.132l0.241-1.144h3.168
		l-2.178,10.208c0.704-0.234,1.269-0.587,1.694-1.056c0.425-0.47,0.784-1.166,1.078-2.091h0.924
		c-0.396,1.306-0.932,2.263-1.606,2.871c-0.675,0.609-1.438,1.023-2.288,1.243l-0.33,1.584c-0.293,1.423-0.799,2.401-1.518,2.938
		c-0.719,0.535-1.533,0.803-2.442,0.803C108.641,22.044,108.054,21.86,107.584,21.494z M109.565,19.822
		c0.234-0.338,0.418-0.822,0.55-1.452l0.132-0.638c-1.438,0.527-2.156,1.15-2.156,1.869c0,0.19,0.066,0.359,0.198,0.507
		c0.132,0.146,0.315,0.22,0.55,0.22C109.088,20.328,109.329,20.159,109.565,19.822z M110.554,14.08
		c0.353-0.309,0.595-0.727,0.727-1.254l1.122-5.214c0-0.177-0.073-0.355-0.22-0.539c-0.147-0.184-0.374-0.275-0.683-0.275
		c-0.587,0-1.114,0.341-1.584,1.023c-0.47,0.682-0.836,1.503-1.1,2.464c-0.265,0.961-0.396,1.808-0.396,2.541
		s0.106,1.202,0.319,1.408c0.212,0.205,0.473,0.308,0.781,0.308C109.858,14.542,110.202,14.388,110.554,14.08z"/>
	<path d="M117.153,15.818c-0.557-0.572-0.836-1.467-0.836-2.685c0-1.085,0.217-2.226,0.649-3.421s1.078-2.207,1.936-3.036
		c0.858-0.828,1.881-1.243,3.069-1.243c0.601,0,1.048,0.104,1.342,0.309c0.293,0.205,0.44,0.477,0.44,0.813V6.71l0.241-1.166h3.168
		l-1.584,7.48c-0.059,0.22-0.088,0.454-0.088,0.703c0,0.631,0.301,0.946,0.902,0.946c0.41,0,0.767-0.19,1.067-0.572
		c0.3-0.381,0.539-0.88,0.715-1.496h0.924c-0.543,1.585-1.214,2.659-2.013,3.224c-0.8,0.564-1.603,0.847-2.409,0.847
		c-0.616,0-1.111-0.172-1.485-0.517s-0.598-0.848-0.671-1.507c-0.426,0.602-0.898,1.089-1.419,1.463s-1.141,0.561-1.859,0.561
		C118.407,16.676,117.711,16.39,117.153,15.818z M121.763,14.025c0.359-0.345,0.604-0.818,0.737-1.42l1.056-4.972
		c0-0.19-0.073-0.377-0.22-0.561c-0.147-0.184-0.374-0.275-0.683-0.275c-0.587,0-1.114,0.341-1.584,1.023
		c-0.47,0.682-0.836,1.503-1.1,2.464c-0.265,0.961-0.396,1.808-0.396,2.541s0.106,1.202,0.319,1.408
		c0.212,0.205,0.473,0.308,0.781,0.308C121.04,14.542,121.403,14.37,121.763,14.025z"/>
	<path d="M134.149,15.961c-0.418-0.477-0.627-1.067-0.627-1.771c0-0.309,0.037-0.656,0.11-1.046c0.073-0.388,0.15-0.766,0.23-1.133
		c0.081-0.366,0.136-0.601,0.165-0.704c0.117-0.513,0.228-1.019,0.33-1.518c0.103-0.498,0.154-0.902,0.154-1.21
		c0-0.748-0.264-1.122-0.792-1.122c-0.382,0-0.719,0.187-1.012,0.561c-0.294,0.374-0.528,0.862-0.704,1.464l-1.496,7.062h-3.168
		l2.332-11h3.168l-0.242,1.144c0.733-0.82,1.592-1.231,2.574-1.231c0.748,0,1.342,0.205,1.782,0.616
		c0.439,0.41,0.66,1.033,0.66,1.87c0,0.425-0.052,0.898-0.154,1.419s-0.25,1.154-0.44,1.902c-0.117,0.455-0.224,0.898-0.318,1.331
		c-0.096,0.433-0.144,0.774-0.144,1.023c0,0.293,0.066,0.521,0.198,0.682c0.132,0.162,0.359,0.242,0.682,0.242
		c0.44,0,0.792-0.157,1.057-0.473c0.264-0.315,0.527-0.804,0.792-1.464h0.924c-0.543,1.614-1.17,2.695-1.881,3.245
		c-0.712,0.551-1.449,0.825-2.211,0.825C135.223,16.676,134.567,16.438,134.149,15.961z"/>
	<path d="M139.693,15.994c-0.359-0.455-0.539-1.057-0.539-1.804c0-0.382,0.044-0.771,0.132-1.166l1.408-6.601h-0.727l0.177-0.88
		h0.726l0.66-3.036l3.256-0.439c-0.132,0.558-0.205,0.887-0.22,0.989c-0.104,0.411-0.279,1.24-0.528,2.486h1.32l-0.176,0.88h-1.32
		l-1.408,6.601c-0.073,0.322-0.11,0.579-0.11,0.77c0,0.528,0.257,0.792,0.771,0.792c0.264,0,0.454-0.022,0.572-0.066
		c-0.294,0.852-0.639,1.423-1.034,1.717c-0.396,0.293-0.829,0.439-1.298,0.439C140.606,16.676,140.052,16.448,139.693,15.994z"/>
</g>
</svg>