<!-- Generator: Adobe Illustrator 21.1.0, SVG Export Plug-In  -->
<svg version="1.1"
	 xmlns="http://www.w3.org/2000/svg" xmlns:xlink="http://www.w3.org/1999/xlink" xmlns:a="http://ns.adobe.com/AdobeSVGViewerExtensions/3.0/"
	 x="0px" y="0px" width="19.67px" height="46.495px" viewBox="0 0 19.67 46.495" style="enable-background:new 0 0 19.67 46.495;"
	 xml:space="preserve">
<defs>
</defs>
<g>
	<g>
		<polygon points="10.054,40.491 9.807,0.015 11.288,0 11.535,40.477 		"/>
	</g>
</g>
<g>
	<ellipse transform="matrix(0.781 -0.6245 0.6245 0.781 -24.379 12.6404)" cx="5.835" cy="41.083" rx="6.514" ry="4.571"/>
</g>
<path d="M11.322,9c0,0,2.084,6.349,4.267,8.966c2.743,3.287,4.572,6.575,3.963,9.862S16.199,35,16.199,35s2.896-4.931,2.286-7.92
	s-3.895-6.362-5.03-7.92c-1.524-2.092-2.286-3.736-2.286-3.736L11.322,9z"/>
<path d="M11.322,0c0,0,2.084,6.349,4.267,8.966c2.743,3.287,4.572,6.575,3.963,9.862S16.199,26,16.199,26s2.896-4.931,2.286-7.92
	s-3.895-6.362-5.03-7.92c-1.524-2.092-2.286-3.736-2.286-3.736L11.322,0z"/>
</svg>