<!-- Generator: Adobe Illustrator 21.1.0, SVG Export Plug-In  -->
<svg version="1.1"
	 xmlns="http://www.w3.org/2000/svg" xmlns:xlink="http://www.w3.org/1999/xlink" xmlns:a="http://ns.adobe.com/AdobeSVGViewerExtensions/3.0/"
	 x="0px" y="0px" width="75.285px" height="177.163px" viewBox="0 0 75.285 177.163"
	 style="enable-background:new 0 0 75.285 177.163;" xml:space="preserve">
<defs>
</defs>
<path d="M29.419,35.286c-4.32-7.561-15.12-14.76-26.28-19.44l4.32-12.24c0.72-1.8,2.16-2.88,5.76-2.88
	c15.48,0.721,41.04,6.12,52.92,11.521c3.601,1.439,5.4,4.68,5.04,9.359l-1.439,19.801V171.22l4.061,5.943V44.28l1.44-21.24
	c0.359-5.4-1.44-8.64-5.4-10.44C56.88,6.48,28.8,0.72,11.52,0C7.56,0,6.12,1.08,5.04,2.88L0,17.28
	c11.16,5.04,21.6,12.96,25.56,20.52v68.758l3.859,5.649V35.286z"/>
</svg>