<!-- Generator: Adobe Illustrator 21.1.0, SVG Export Plug-In  -->
<svg version="1.1"
	 xmlns="http://www.w3.org/2000/svg" xmlns:xlink="http://www.w3.org/1999/xlink" xmlns:a="http://ns.adobe.com/AdobeSVGViewerExtensions/3.0/"
	 x="0px" y="0px" width="208.069px" height="127.136px" viewBox="0 0 208.069 127.136"
	 style="enable-background:new 0 0 208.069 127.136;" xml:space="preserve">
<style type="text/css">
	.st0{fill:none;stroke:#000000;stroke-miterlimit:10;}
</style>
<defs>
</defs>
<g>
	<g>
		<rect x="204.746" y="1.886" transform="matrix(1 -0.0079 0.0079 1 -0.2443 1.6242)" width="2.83" height="59.901"/>
	</g>
</g>
<g>
	<ellipse transform="matrix(0.781 -0.6245 0.6245 0.781 3.8233 136.7573)" cx="196.918" cy="62.927" rx="12.45" ry="8.737"/>
</g>
<g>
	<g>
		<rect x="18.98" y="1.886" transform="matrix(1 -0.0079 0.0079 1 -0.25 0.1616)" width="2.83" height="59.901"/>
	</g>
</g>
<g>
	<ellipse transform="matrix(0.781 -0.6245 0.6245 0.781 -36.8566 20.7443)" cx="11.152" cy="62.927" rx="12.45" ry="8.737"/>
</g>
<g>
	<g>
		<rect x="112.274" y="1.886" transform="matrix(1 -0.0079 0.0079 1 -0.2471 0.8961)" width="2.83" height="59.901"/>
	</g>
</g>
<g>
	<ellipse transform="matrix(0.781 -0.6245 0.6245 0.781 -16.4266 79.0074)" cx="104.446" cy="62.927" rx="12.45" ry="8.737"/>
</g>
<g>
	<g>
		<rect x="65.627" y="1.886" transform="matrix(1 -0.0079 0.0079 1 -0.2486 0.5289)" width="2.83" height="59.901"/>
	</g>
</g>
<g>
	<ellipse transform="matrix(0.781 -0.6245 0.6245 0.781 -26.6416 49.8759)" cx="57.799" cy="62.927" rx="12.45" ry="8.737"/>
</g>
<g>
	<g>
		<rect x="158.51" y="1.886" transform="matrix(1 -0.0079 0.0079 1 -0.2457 1.2602)" width="2.83" height="59.901"/>
	</g>
</g>
<g>
	<ellipse transform="matrix(0.781 -0.6245 0.6245 0.781 -6.3017 107.8824)" cx="150.682" cy="62.927" rx="12.45" ry="8.737"/>
</g>
<g>
	<g>
		<rect x="18.705" width="188.658" height="9.433"/>
	</g>
</g>
<polyline class="st0" points="11.436,99.736 11.436,118.736 68.436,118.736 "/>
<polyline class="st0" points="196.436,99.736 196.436,118.736 139.436,118.736 "/>
<g>
	<path d="M88.786,121.647c-0.433-0.242-0.649-0.663-0.649-1.265c0-0.381,0.095-0.807,0.286-1.276
		c0.264,0.294,0.509,0.499,0.737,0.616s0.473,0.176,0.737,0.176c0.733,0,1.279-0.41,1.639-1.231s0.539-1.73,0.539-2.729
		c0-1.862-0.697-2.794-2.09-2.794c-0.396,0-0.734,0.022-1.012,0.066l-1.804,8.426h-3.168l2.992-13.992l3.256-0.439l-1.034,4.884
		h0.132c0.557,0,1.078-0.18,1.562-0.539s0.873-0.814,1.166-1.364s0.44-1.104,0.44-1.661c0-0.674-0.238-1.239-0.715-1.693
		c-0.477-0.455-1.207-0.683-2.189-0.683c-0.895,0-1.768,0.202-2.618,0.605s-1.543,1.009-2.079,1.814
		c-0.535,0.808-0.803,1.782-0.803,2.927c0,0.542,0.051,0.92,0.154,1.133s0.154,0.334,0.154,0.362c-0.778,0-1.364-0.157-1.76-0.473
		s-0.594-0.832-0.594-1.551c0-0.997,0.374-1.943,1.122-2.838c0.748-0.895,1.738-1.617,2.97-2.167s2.53-0.825,3.894-0.825
		c1.026,0,1.892,0.161,2.596,0.484c0.704,0.322,1.228,0.748,1.573,1.275c0.345,0.528,0.517,1.107,0.517,1.738
		c0,0.675-0.191,1.327-0.572,1.958s-0.924,1.144-1.628,1.54c0.88,0.161,1.533,0.568,1.958,1.221
		c0.425,0.653,0.638,1.427,0.638,2.321c0,0.836-0.158,1.745-0.473,2.728c-0.315,0.983-0.836,1.83-1.562,2.541
		c-0.726,0.712-1.654,1.067-2.783,1.067C89.728,122.01,89.218,121.889,88.786,121.647z"/>
	<path d="M96.452,120.91c-0.557-0.572-0.836-1.467-0.836-2.685c0-1.085,0.217-2.226,0.649-3.421
		c0.433-1.195,1.078-2.207,1.936-3.036c0.858-0.828,1.881-1.243,3.069-1.243c0.601,0,1.048,0.104,1.342,0.309s0.44,0.477,0.44,0.813
		v0.154l0.242-1.166h3.168l-1.584,7.48c-0.059,0.22-0.088,0.454-0.088,0.703c0,0.631,0.3,0.946,0.902,0.946
		c0.41,0,0.766-0.19,1.067-0.572c0.3-0.381,0.539-0.88,0.715-1.496h0.924c-0.543,1.585-1.214,2.659-2.013,3.224
		s-1.603,0.847-2.409,0.847c-0.616,0-1.111-0.172-1.485-0.517s-0.598-0.848-0.671-1.507c-0.425,0.602-0.898,1.089-1.419,1.463
		c-0.521,0.374-1.141,0.561-1.859,0.561C97.707,121.768,97.01,121.482,96.452,120.91z M101.062,119.117
		c0.359-0.345,0.605-0.818,0.737-1.42l1.056-4.972c0-0.19-0.074-0.377-0.22-0.561s-0.374-0.275-0.682-0.275
		c-0.586,0-1.115,0.341-1.584,1.023c-0.469,0.682-0.836,1.503-1.1,2.464c-0.264,0.961-0.396,1.808-0.396,2.541
		s0.106,1.202,0.319,1.408c0.212,0.205,0.473,0.308,0.781,0.308C100.339,119.634,100.702,119.462,101.062,119.117z"/>
	<path d="M108.112,121.03c-0.528-0.491-0.792-1.184-0.792-2.078c0-0.44,0.051-0.858,0.154-1.255l2.354-11.021l3.256-0.44
		l-1.056,4.95c0.41-0.249,0.748-0.414,1.012-0.495c0.264-0.08,0.528-0.121,0.792-0.121c1.73,0,2.596,1.255,2.596,3.763
		c0,1.012-0.195,2.094-0.583,3.245c-0.389,1.151-1.034,2.138-1.936,2.959s-2.072,1.231-3.509,1.231
		C109.402,121.768,108.64,121.523,108.112,121.03z M112.908,118.787c0.396-0.564,0.711-1.269,0.946-2.112
		c0.234-0.844,0.352-1.653,0.352-2.431c0-0.587-0.103-1.086-0.308-1.496c-0.206-0.411-0.491-0.616-0.858-0.616
		c-0.22,0-0.466,0.033-0.737,0.099c-0.271,0.066-0.458,0.165-0.561,0.297l-1.21,5.589c-0.044,0.176-0.066,0.345-0.066,0.506
		c0,0.675,0.388,1.012,1.166,1.012C112.087,119.634,112.512,119.352,112.908,118.787z"/>
	<path d="M118.86,126.465c-0.521-0.447-0.781-1.016-0.781-1.705c0-0.646,0.161-1.174,0.484-1.584
		c0.323-0.411,0.741-0.733,1.254-0.968c0.513-0.235,1.202-0.484,2.068-0.748l0.22-0.968c-0.748,0.851-1.643,1.275-2.684,1.275
		c-0.704,0-1.273-0.22-1.705-0.66c-0.433-0.439-0.649-1.1-0.649-1.979c0-0.366,0.059-0.844,0.176-1.431l1.496-7.062h3.168
		l-1.584,7.48c-0.044,0.176-0.066,0.359-0.066,0.55c0,0.646,0.22,0.968,0.66,0.968c0.411,0,0.763-0.172,1.056-0.517
		s0.528-0.818,0.704-1.42l1.496-7.062h3.19l-2.684,12.76c-0.293,1.408-0.811,2.384-1.551,2.926
		c-0.741,0.543-1.558,0.814-2.453,0.814C119.985,127.136,119.38,126.912,118.86,126.465z M120.916,124.771
		c0.234-0.271,0.418-0.708,0.55-1.309l0.264-1.298c-0.777,0.264-1.378,0.571-1.804,0.924c-0.426,0.352-0.638,0.807-0.638,1.364
		c0,0.176,0.088,0.341,0.264,0.494c0.176,0.154,0.381,0.231,0.616,0.231C120.432,125.178,120.682,125.042,120.916,124.771z"/>
</g>
</svg>