<!-- Generator: Adobe Illustrator 21.1.0, SVG Export Plug-In  -->
<svg version="1.1"
	 xmlns="http://www.w3.org/2000/svg" xmlns:xlink="http://www.w3.org/1999/xlink" xmlns:a="http://ns.adobe.com/AdobeSVGViewerExtensions/3.0/"
	 x="0px" y="0px" width="84.192px" height="126.284px" viewBox="0 0 84.192 126.284"
	 style="enable-background:new 0 0 84.192 126.284;" xml:space="preserve">
<defs>
</defs>
<g>
	<path d="M4.951,6.662C5.156,6.65,5.344,6.642,5.514,6.636S5.83,6.624,5.953,6.618C6.146,6.612,6.349,6.601,6.56,6.583
		s0.42-0.036,0.628-0.057S7.597,6.483,7.79,6.46s0.369-0.044,0.527-0.062L8.194,7.216C8.077,7.21,7.938,7.204,7.777,7.198
		C7.615,7.192,7.439,7.188,7.25,7.185C7.059,7.183,6.863,7.18,6.66,7.177C6.459,7.174,6.261,7.172,6.067,7.172
		c-0.158,0-0.354,0.002-0.585,0.005s-0.48,0.008-0.746,0.018C4.469,7.202,4.195,7.212,3.914,7.22c-0.281,0.01-0.548,0.018-0.8,0.027
		c-0.252,0.008-0.48,0.019-0.686,0.03S2.065,7.298,1.954,7.304C1.731,7.315,1.485,7.335,1.216,7.36
		c-0.27,0.027-0.513,0.058-0.729,0.093L0.161,6.548C0.29,6.565,0.43,6.582,0.578,6.597c0.15,0.015,0.304,0.027,0.462,0.039
		s0.314,0.021,0.47,0.031c0.155,0.008,0.301,0.016,0.436,0.021C2.162,6.7,2.451,6.705,2.811,6.702
		C3.172,6.699,3.548,6.691,3.94,6.68V5.511c0-0.088-0.009-0.159-0.026-0.215S3.861,5.194,3.809,5.16S3.68,5.097,3.58,5.073
		C3.48,5.051,3.346,5.03,3.176,5.013l0.149-0.372c0.1,0,0.224,0.003,0.374,0.009C3.848,4.655,4.002,4.663,4.16,4.671
		c0.158,0.01,0.314,0.021,0.471,0.035c0.154,0.016,0.285,0.031,0.391,0.049C5.01,4.808,5,4.874,4.99,4.952
		c-0.008,0.08-0.016,0.157-0.021,0.233S4.958,5.332,4.955,5.396S4.951,5.502,4.951,5.52V6.662z M4.854,3.12
		c0.211,0.094,0.44,0.188,0.69,0.281c0.248,0.094,0.503,0.185,0.764,0.272S6.83,3.843,7.092,3.915
		c0.26,0.074,0.508,0.14,0.742,0.198L7.096,4.869c-0.152-0.076-0.34-0.174-0.562-0.294S6.074,4.329,5.826,4.196
		C5.576,4.065,5.324,3.933,5.07,3.802C4.814,3.669,4.582,3.551,4.371,3.445c-0.533,0.357-1.09,0.668-1.67,0.932
		S1.535,4.875,0.943,5.08L0.715,4.746C1.154,4.57,1.583,4.372,2.002,4.153C2.421,3.933,2.82,3.694,3.197,3.437
		c0.379-0.258,0.73-0.533,1.055-0.826C4.578,2.317,4.866,2.01,5.118,1.688c-0.34,0-0.686,0.005-1.037,0.013
		c-0.352,0.01-0.68,0.028-0.984,0.058c-0.059,0.006-0.141,0.017-0.246,0.03C2.745,1.804,2.629,1.819,2.504,1.837
		C2.377,1.854,2.25,1.872,2.121,1.89S1.878,1.925,1.778,1.942L1.251,1.099C1.327,1.11,1.43,1.125,1.559,1.143
		s0.267,0.032,0.413,0.044s0.291,0.021,0.435,0.031C2.55,1.226,2.672,1.23,2.771,1.23c0.211,0,0.466-0.003,0.765-0.009
		s0.612-0.018,0.94-0.035s0.653-0.041,0.976-0.07s0.609-0.067,0.861-0.114l0.352,0.325C6.126,2.013,5.522,2.61,4.854,3.12z"/>
	<path d="M14.065,3.419c0.088-0.361,0.162-0.739,0.225-1.134c0.061-0.394,0.098-0.757,0.109-1.09c-0.211,0-0.431,0-0.659,0
		s-0.456,0-0.681,0c-0.227,0-0.444,0.005-0.655,0.013c-0.211,0.01-0.407,0.022-0.589,0.04c-0.082,0.012-0.188,0.022-0.316,0.03
		c-0.129,0.01-0.266,0.022-0.408,0.04c-0.145,0.018-0.289,0.038-0.436,0.062s-0.281,0.053-0.404,0.088L9.812,0.633
		c0.111,0.012,0.238,0.025,0.383,0.04c0.143,0.015,0.288,0.027,0.435,0.039s0.287,0.021,0.422,0.026s0.249,0.009,0.343,0.009
		c0.305,0,0.633-0.004,0.984-0.014c0.352-0.008,0.703-0.024,1.055-0.048s0.689-0.05,1.016-0.079
		c0.324-0.029,0.616-0.067,0.874-0.114l0.29,0.281c-0.041,0.193-0.082,0.397-0.123,0.61c-0.041,0.215-0.088,0.435-0.141,0.66
		s-0.111,0.452-0.176,0.681s-0.141,0.451-0.229,0.668c0.352-0.029,0.712-0.062,1.081-0.097s0.697-0.076,0.984-0.123l-0.141,0.826
		c-0.117-0.006-0.257-0.012-0.417-0.018c-0.162-0.006-0.336-0.01-0.523-0.014c-0.188-0.002-0.381-0.007-0.58-0.013
		s-0.396-0.009-0.589-0.009c-0.152,0-0.343,0.002-0.571,0.004c-0.229,0.004-0.486,0.011-0.773,0.022v0.536
		c0,0.135-0.006,0.285-0.018,0.453c-0.012,0.166-0.023,0.317-0.035,0.452c0.393-0.029,0.766-0.053,1.121-0.07
		c0.354-0.018,0.643-0.041,0.865-0.07c-0.018,0.152-0.031,0.278-0.039,0.378c-0.01,0.1-0.014,0.199-0.014,0.299v1.257
		c0,0.17-0.008,0.358-0.021,0.567c-0.016,0.207-0.055,0.438-0.119,0.689l-0.773,0.141c-0.012-0.07-0.021-0.158-0.031-0.264
		c-0.008-0.105-0.018-0.215-0.025-0.33c-0.01-0.113-0.017-0.226-0.022-0.334s-0.009-0.197-0.009-0.268V5.906
		c-0.223-0.012-0.46-0.015-0.712-0.009s-0.505,0.017-0.761,0.031c-0.254,0.015-0.507,0.03-0.756,0.048s-0.484,0.035-0.707,0.053
		c-0.188,0.012-0.38,0.032-0.576,0.062s-0.391,0.059-0.584,0.088l-0.378-0.8c0.082,0.012,0.181,0.023,0.294,0.035
		c0.115,0.012,0.233,0.023,0.356,0.035s0.241,0.021,0.356,0.026c0.113,0.006,0.215,0.009,0.303,0.009c0.369,0,0.8-0.009,1.292-0.026
		c0-0.146-0.003-0.296-0.009-0.448s-0.009-0.278-0.009-0.378V3.99c-0.223,0.006-0.441,0.013-0.655,0.022
		c-0.214,0.008-0.411,0.016-0.593,0.021s-0.343,0.014-0.483,0.021c-0.141,0.01-0.255,0.017-0.343,0.022
		c-0.105,0.006-0.222,0.015-0.347,0.026C9.856,4.116,9.729,4.128,9.601,4.14S9.344,4.165,9.218,4.179
		C9.092,4.194,8.979,4.207,8.88,4.219L8.528,3.34c0.264,0.029,0.562,0.058,0.896,0.083c0.334,0.027,0.633,0.046,0.896,0.058
		c0.176,0.006,0.419,0.008,0.729,0.005s0.645-0.008,1.002-0.014s0.715-0.013,1.072-0.021S13.796,3.431,14.065,3.419z"/>
	<path d="M25.553,3.841l-0.132,0.817c-0.117-0.006-0.258-0.013-0.422-0.022c-0.164-0.008-0.34-0.016-0.527-0.021
		s-0.381-0.01-0.58-0.014c-0.199-0.002-0.393-0.004-0.58-0.004c-0.164,0-0.371,0.003-0.62,0.009s-0.518,0.012-0.809,0.018
		c-0.289,0.006-0.587,0.013-0.892,0.022c-0.305,0.008-0.595,0.018-0.87,0.025c-0.275,0.01-0.523,0.018-0.742,0.027
		c-0.221,0.008-0.389,0.016-0.506,0.021c-0.1,0.006-0.213,0.017-0.338,0.031c-0.127,0.015-0.256,0.027-0.387,0.039
		c-0.133,0.012-0.262,0.025-0.387,0.039c-0.127,0.016-0.236,0.025-0.33,0.031c-0.059-0.146-0.119-0.291-0.18-0.436
		c-0.062-0.143-0.119-0.288-0.172-0.435c0.404,0.047,0.815,0.082,1.234,0.105s0.799,0.035,1.139,0.035
		c0.721,0,1.371-0.009,1.951-0.026s1.113-0.039,1.6-0.066c0.486-0.025,0.936-0.057,1.35-0.092
		C24.766,3.911,25.166,3.876,25.553,3.841z M22.802,6.486c0.006-0.129,0.01-0.253,0.013-0.374c0.003-0.119,0.008-0.241,0.014-0.364
		c-0.053,0-0.111-0.001-0.176-0.005c-0.064-0.002-0.132-0.004-0.202-0.004c-0.152,0-0.319,0.003-0.501,0.009
		s-0.363,0.013-0.545,0.022c-0.182,0.008-0.357,0.018-0.527,0.025c-0.17,0.01-0.316,0.017-0.439,0.022
		c-0.059,0.006-0.141,0.013-0.246,0.022c-0.105,0.008-0.222,0.021-0.348,0.035s-0.254,0.03-0.387,0.048
		c-0.131,0.018-0.25,0.038-0.355,0.062c-0.076-0.135-0.154-0.271-0.232-0.408c-0.08-0.138-0.157-0.274-0.233-0.409
		c0.1,0.023,0.235,0.044,0.409,0.062c0.172,0.018,0.347,0.034,0.522,0.049s0.339,0.024,0.487,0.03
		c0.15,0.006,0.251,0.009,0.304,0.009c0.24,0,0.519-0.001,0.835-0.004s0.64-0.01,0.971-0.018c0.331-0.01,0.656-0.022,0.977-0.04
		c0.318-0.018,0.602-0.041,0.848-0.07c-0.018,0.047-0.037,0.12-0.057,0.22c-0.021,0.1-0.04,0.21-0.058,0.33s-0.037,0.24-0.058,0.359
		c-0.021,0.121-0.039,0.225-0.057,0.312c0.047-0.006,0.085-0.009,0.114-0.009s0.059-0.003,0.088-0.009
		c-0.012,0.111-0.025,0.222-0.04,0.33s-0.027,0.215-0.039,0.32c-0.217-0.012-0.445-0.021-0.686-0.026s-0.483-0.009-0.729-0.009
		c-0.24,0-0.475,0.002-0.703,0.004c-0.229,0.004-0.442,0.008-0.642,0.014s-0.38,0.012-0.541,0.018S20.294,7.052,20.2,7.058
		c-0.006,0.047-0.008,0.09-0.005,0.127C20.198,7.224,20.2,7.263,20.2,7.304v0.378c0,0.053,0.023,0.089,0.07,0.11
		c0.047,0.02,0.144,0.03,0.29,0.03c0.24,0,0.533-0.008,0.879-0.022s0.699-0.035,1.059-0.061c0.361-0.027,0.709-0.057,1.047-0.088
		c0.336-0.033,0.616-0.066,0.839-0.102c-0.029,0.135-0.059,0.268-0.088,0.4c-0.029,0.131-0.059,0.265-0.088,0.399
		c-0.205-0.006-0.425-0.011-0.659-0.013c-0.234-0.004-0.483-0.005-0.747-0.005c-0.281,0-0.564,0.003-0.849,0.009
		s-0.561,0.012-0.83,0.018s-0.521,0.012-0.752,0.018s-0.435,0.009-0.61,0.009c-0.217,0-0.363-0.052-0.439-0.153
		c-0.076-0.104-0.114-0.23-0.114-0.383V7.418c0-0.1-0.008-0.182-0.021-0.246c-0.016-0.064-0.046-0.118-0.093-0.163
		c-0.047-0.043-0.113-0.083-0.198-0.118s-0.2-0.076-0.347-0.123c0.029-0.053,0.059-0.106,0.088-0.163
		c0.029-0.055,0.062-0.109,0.097-0.162c0.287,0.029,0.599,0.05,0.936,0.062s0.69,0.018,1.06,0.018s0.728-0.003,1.077-0.009
		C22.152,6.507,22.485,6.498,22.802,6.486z M21.914,0.589c0.234,0.041,0.451,0.108,0.65,0.202s0.369,0.208,0.51,0.343
		s0.25,0.285,0.33,0.453c0.078,0.166,0.118,0.341,0.118,0.522c0,0.223-0.055,0.43-0.163,0.62s-0.258,0.354-0.447,0.492
		c-0.191,0.138-0.417,0.246-0.678,0.324c-0.261,0.08-0.543,0.119-0.848,0.119c-0.311,0-0.595-0.039-0.853-0.119
		c-0.258-0.078-0.482-0.187-0.673-0.324s-0.338-0.302-0.443-0.492s-0.158-0.397-0.158-0.62c0-0.193,0.044-0.378,0.132-0.554
		s0.209-0.331,0.364-0.466s0.342-0.247,0.559-0.339c0.217-0.09,0.457-0.15,0.721-0.18C21.029,0.507,21,0.454,20.947,0.413
		s-0.144-0.082-0.272-0.123c0.029-0.047,0.059-0.095,0.088-0.145S20.821,0.047,20.851,0c0.064,0.012,0.147,0.028,0.251,0.048
		c0.102,0.021,0.209,0.042,0.32,0.062s0.221,0.042,0.33,0.065c0.107,0.023,0.2,0.044,0.276,0.062
		c-0.018,0.029-0.037,0.079-0.058,0.149S21.932,0.524,21.914,0.589z M22.503,2.074c0-0.146-0.03-0.284-0.093-0.413
		c-0.061-0.129-0.145-0.24-0.25-0.334s-0.225-0.168-0.355-0.225c-0.133-0.055-0.269-0.083-0.409-0.083
		c-0.146,0-0.286,0.028-0.417,0.083c-0.133,0.057-0.25,0.131-0.352,0.225c-0.104,0.094-0.184,0.205-0.242,0.334
		s-0.088,0.267-0.088,0.413c0,0.152,0.029,0.292,0.088,0.417c0.059,0.127,0.138,0.235,0.237,0.326s0.216,0.161,0.347,0.211
		c0.133,0.05,0.274,0.074,0.427,0.074c0.146,0,0.287-0.024,0.422-0.074s0.252-0.12,0.352-0.211s0.181-0.199,0.241-0.326
		C22.473,2.366,22.503,2.227,22.503,2.074z"/>
	<path d="M32.435,6.328c0,0.152-0.003,0.318-0.009,0.497s-0.014,0.355-0.021,0.531c-0.01,0.176-0.024,0.346-0.045,0.51
		s-0.042,0.308-0.065,0.431L31.521,8.42c-0.012-0.1-0.022-0.226-0.03-0.378c-0.01-0.152-0.017-0.312-0.022-0.479
		c-0.006-0.168-0.011-0.334-0.013-0.502c-0.004-0.166-0.005-0.314-0.005-0.443V5.361c-0.152,0.006-0.301,0.017-0.444,0.03
		c-0.144,0.016-0.282,0.031-0.417,0.049c-0.064,0.006-0.155,0.015-0.272,0.026s-0.245,0.026-0.383,0.044s-0.275,0.037-0.412,0.057
		c-0.139,0.021-0.257,0.04-0.356,0.058l-0.492-0.914c0.088,0.018,0.199,0.034,0.334,0.048c0.135,0.016,0.273,0.028,0.417,0.04
		s0.284,0.021,0.422,0.026s0.257,0.009,0.356,0.009c0.381-0.006,0.776-0.023,1.187-0.053s0.815-0.067,1.217-0.114
		s0.793-0.102,1.174-0.162c0.381-0.062,0.735-0.128,1.063-0.198V1.169c0-0.17-0.085-0.309-0.255-0.418
		c-0.17-0.107-0.451-0.212-0.844-0.312l0.185-0.387c0.141,0.018,0.304,0.041,0.487,0.07c0.186,0.029,0.369,0.062,0.555,0.097
		c0.184,0.035,0.361,0.067,0.531,0.097s0.311,0.053,0.422,0.07c-0.012,0.053-0.021,0.123-0.031,0.211
		c-0.008,0.088-0.018,0.176-0.025,0.264c-0.01,0.088-0.017,0.166-0.022,0.233s-0.009,0.104-0.009,0.109v4.825
		c0,0.182-0.004,0.392-0.014,0.628c-0.008,0.238-0.021,0.477-0.035,0.717s-0.032,0.469-0.053,0.686s-0.039,0.39-0.057,0.519
		l-0.773,0.105c-0.006-0.094-0.012-0.222-0.018-0.382c-0.006-0.162-0.012-0.336-0.018-0.523S34.857,7.4,34.852,7.207
		s-0.009-0.375-0.009-0.545V4.79c-0.375,0.088-0.769,0.17-1.183,0.246c-0.412,0.076-0.821,0.146-1.226,0.211V6.328z M32.276,1.002
		c0.234,0.041,0.448,0.111,0.642,0.211s0.358,0.219,0.496,0.356s0.245,0.291,0.321,0.461s0.114,0.346,0.114,0.527
		c0,0.234-0.053,0.45-0.158,0.646s-0.25,0.366-0.436,0.51c-0.184,0.144-0.402,0.256-0.654,0.338s-0.524,0.123-0.817,0.123
		c-0.299,0-0.573-0.041-0.821-0.123c-0.25-0.082-0.465-0.194-0.646-0.338s-0.322-0.313-0.422-0.51s-0.149-0.412-0.149-0.646
		c0-0.193,0.041-0.378,0.123-0.554s0.198-0.334,0.347-0.475c0.15-0.141,0.328-0.256,0.537-0.347
		c0.207-0.091,0.438-0.151,0.689-0.181C31.43,0.92,31.397,0.86,31.345,0.821c-0.053-0.037-0.129-0.071-0.229-0.101l0.158-0.325
		c0.059,0.012,0.138,0.026,0.237,0.044s0.205,0.037,0.316,0.058s0.22,0.041,0.325,0.061c0.105,0.021,0.193,0.04,0.264,0.058
		c-0.029,0.082-0.058,0.153-0.083,0.216C32.307,0.892,32.288,0.949,32.276,1.002z M32.821,2.54c0-0.146-0.028-0.287-0.083-0.422
		c-0.057-0.135-0.131-0.25-0.225-0.348c-0.094-0.096-0.202-0.174-0.325-0.232S31.937,1.45,31.802,1.45
		c-0.129,0-0.254,0.029-0.374,0.088s-0.227,0.137-0.32,0.232c-0.094,0.098-0.17,0.213-0.229,0.348s-0.088,0.275-0.088,0.422
		c0,0.158,0.027,0.303,0.084,0.436c0.055,0.131,0.13,0.244,0.224,0.338s0.202,0.166,0.325,0.215
		c0.123,0.051,0.249,0.075,0.378,0.075c0.141,0,0.272-0.024,0.396-0.075c0.123-0.049,0.231-0.121,0.325-0.215
		s0.167-0.207,0.22-0.338C32.795,2.843,32.821,2.698,32.821,2.54z"/>
	<path d="M41.76,2.883c-0.188,0-0.415,0.003-0.681,0.009c-0.268,0.006-0.538,0.014-0.813,0.021c-0.275,0.01-0.542,0.021-0.8,0.035
		c-0.258,0.016-0.475,0.025-0.65,0.031c-0.07,0.006-0.162,0.014-0.277,0.021c-0.113,0.01-0.232,0.02-0.355,0.031
		s-0.242,0.023-0.355,0.035c-0.115,0.012-0.207,0.021-0.277,0.026L37.181,2.25c0.07,0.018,0.167,0.035,0.29,0.053
		s0.253,0.034,0.392,0.048c0.137,0.016,0.268,0.028,0.391,0.04s0.22,0.018,0.29,0.018c0.188,0,0.413-0.005,0.677-0.013
		c0.264-0.01,0.543-0.025,0.84-0.049c0.295-0.023,0.6-0.053,0.914-0.088c0.312-0.035,0.613-0.079,0.9-0.132L41.76,2.883z
		 M41.716,4.808c0,0.211-0.049,0.408-0.145,0.594c-0.098,0.184-0.229,0.346-0.396,0.482c-0.166,0.139-0.366,0.248-0.598,0.33
		s-0.481,0.123-0.751,0.123c-0.264,0-0.512-0.041-0.743-0.123s-0.43-0.193-0.598-0.334c-0.166-0.141-0.299-0.303-0.395-0.488
		c-0.098-0.184-0.146-0.379-0.146-0.584c0-0.223,0.048-0.426,0.146-0.611c0.096-0.184,0.229-0.344,0.395-0.479
		c0.168-0.135,0.366-0.24,0.598-0.316s0.479-0.114,0.743-0.114c0.281,0,0.539,0.041,0.773,0.123s0.434,0.193,0.598,0.334
		s0.291,0.304,0.382,0.487C41.67,4.417,41.716,4.608,41.716,4.808z M40.863,1.793c-0.199-0.006-0.417-0.003-0.655,0.009
		c-0.236,0.012-0.435,0.018-0.593,0.018c-0.041,0-0.1,0.003-0.176,0.009s-0.161,0.013-0.255,0.022
		c-0.094,0.008-0.188,0.019-0.281,0.03s-0.176,0.023-0.246,0.035l-0.448-0.773c0.07,0.018,0.165,0.034,0.286,0.048
		c0.119,0.016,0.244,0.028,0.373,0.04s0.252,0.022,0.369,0.03c0.117,0.01,0.205,0.014,0.264,0.014c0.07,0,0.165-0.004,0.285-0.014
		c0.12-0.008,0.249-0.019,0.387-0.03s0.278-0.024,0.422-0.04c0.144-0.014,0.277-0.03,0.4-0.048L40.863,1.793z M38.974,4.772
		c0,0.293,0.084,0.536,0.25,0.729c0.168,0.193,0.371,0.29,0.611,0.29c0.105,0,0.208-0.024,0.308-0.074s0.188-0.12,0.269-0.211
		c0.078-0.091,0.143-0.198,0.193-0.321c0.049-0.123,0.074-0.261,0.074-0.413c0-0.129-0.021-0.253-0.066-0.373
		c-0.043-0.12-0.105-0.228-0.184-0.321c-0.08-0.094-0.171-0.167-0.273-0.22s-0.209-0.079-0.32-0.079
		c-0.234,0-0.437,0.091-0.606,0.272S38.974,4.474,38.974,4.772z M42.929,4.131c0.105-0.012,0.22-0.021,0.343-0.026
		s0.231-0.012,0.325-0.018V1.169c0-0.088-0.014-0.165-0.039-0.232c-0.027-0.067-0.075-0.131-0.146-0.189s-0.169-0.112-0.294-0.162
		c-0.127-0.05-0.289-0.099-0.488-0.146l0.176-0.387c0.146,0.018,0.308,0.043,0.483,0.075s0.35,0.064,0.522,0.096
		c0.173,0.033,0.337,0.065,0.492,0.098s0.286,0.06,0.392,0.083c-0.012,0.053-0.023,0.123-0.035,0.211s-0.022,0.173-0.03,0.255
		c-0.01,0.082-0.017,0.157-0.022,0.225s-0.009,0.104-0.009,0.109v4.825c0,0.182-0.004,0.389-0.014,0.62
		c-0.008,0.231-0.021,0.465-0.035,0.703c-0.015,0.236-0.03,0.464-0.048,0.681s-0.035,0.398-0.053,0.545l-0.747,0.105
		c-0.012-0.105-0.023-0.239-0.035-0.399c-0.012-0.162-0.023-0.334-0.035-0.52c-0.012-0.184-0.021-0.371-0.026-0.562
		c-0.006-0.189-0.009-0.37-0.009-0.54V4.667c-0.088,0.012-0.196,0.018-0.325,0.018s-0.243,0.006-0.343,0.018v1.011
		c0,0.182-0.003,0.39-0.009,0.624s-0.017,0.471-0.03,0.707c-0.016,0.238-0.031,0.465-0.049,0.682s-0.038,0.398-0.062,0.545
		l-0.721,0.097c-0.012-0.1-0.022-0.23-0.03-0.392c-0.01-0.161-0.018-0.334-0.027-0.518c-0.008-0.186-0.016-0.374-0.021-0.567
		s-0.009-0.372-0.009-0.536V1.503c0-0.164-0.061-0.299-0.181-0.404s-0.355-0.202-0.707-0.29l0.185-0.378
		c0.135,0.018,0.282,0.039,0.444,0.066c0.16,0.025,0.32,0.056,0.479,0.088s0.312,0.064,0.461,0.096
		c0.15,0.033,0.277,0.063,0.383,0.093c-0.012,0.053-0.023,0.122-0.035,0.206c-0.012,0.086-0.023,0.171-0.035,0.256
		s-0.021,0.159-0.026,0.224s-0.009,0.1-0.009,0.105V4.131z"/>
	<path d="M48.791,3.48c0.305,0.311,0.651,0.633,1.041,0.967s0.775,0.642,1.156,0.923L50.25,6.1
		c-0.264-0.316-0.553-0.662-0.865-1.037c-0.314-0.375-0.623-0.741-0.928-1.099c-0.299,0.41-0.645,0.806-1.037,1.187
		s-0.844,0.747-1.354,1.099l-0.308-0.281c0.34-0.27,0.651-0.566,0.937-0.893c0.283-0.324,0.537-0.661,0.76-1.01
		s0.413-0.699,0.571-1.051s0.281-0.686,0.369-1.002c0.018-0.053,0.026-0.094,0.026-0.123s-0.003-0.053-0.009-0.07
		s-0.012-0.032-0.018-0.044s-0.009-0.026-0.009-0.044c-0.029-0.059-0.099-0.12-0.207-0.185s-0.227-0.12-0.355-0.167l0.185-0.325
		c0.117,0.029,0.251,0.065,0.399,0.11c0.15,0.043,0.302,0.089,0.457,0.136s0.307,0.093,0.453,0.136
		c0.146,0.045,0.278,0.081,0.396,0.11C49.479,2.244,49.172,2.889,48.791,3.48z M51.735,3.656c-0.182,0.012-0.364,0.023-0.55,0.035
		c-0.184,0.012-0.361,0.026-0.531,0.044s-0.325,0.035-0.466,0.053s-0.258,0.035-0.352,0.053l-0.396-0.782
		c0.059,0.006,0.142,0.015,0.25,0.026s0.225,0.021,0.348,0.031c0.123,0.008,0.246,0.015,0.369,0.018s0.229,0.004,0.316,0.004
		c0.129-0.006,0.279-0.009,0.453-0.009c0.172,0,0.358-0.006,0.558-0.018V1.169c0-0.17-0.087-0.309-0.259-0.418
		c-0.174-0.107-0.453-0.212-0.84-0.312l0.202-0.387c0.135,0.018,0.293,0.041,0.475,0.07s0.366,0.062,0.554,0.097
		s0.367,0.067,0.541,0.097c0.172,0.029,0.314,0.053,0.426,0.07c-0.012,0.053-0.023,0.123-0.035,0.211s-0.021,0.176-0.031,0.264
		c-0.008,0.088-0.018,0.166-0.025,0.233c-0.01,0.067-0.014,0.104-0.014,0.109v4.825c0,0.182-0.004,0.392-0.014,0.628
		c-0.008,0.238-0.021,0.477-0.035,0.717s-0.032,0.469-0.053,0.686s-0.042,0.39-0.065,0.519l-0.747,0.105
		c-0.012-0.094-0.021-0.222-0.031-0.382c-0.008-0.162-0.018-0.336-0.025-0.523c-0.01-0.188-0.016-0.378-0.018-0.571
		c-0.004-0.193-0.005-0.375-0.005-0.545V3.656z"/>
	<path d="M8.473,42.698c-0.023,0.135-0.046,0.271-0.066,0.409s-0.042,0.273-0.065,0.408c-0.135-0.006-0.298-0.014-0.487-0.021
		c-0.191-0.01-0.395-0.017-0.611-0.022s-0.439-0.01-0.668-0.013s-0.442-0.005-0.642-0.005c-0.656,0-1.273,0.011-1.851,0.03
		c-0.577,0.021-1.104,0.045-1.582,0.07c-0.478,0.027-0.897,0.057-1.261,0.088c-0.363,0.033-0.659,0.061-0.888,0.084
		c-0.059-0.146-0.119-0.29-0.18-0.431C0.109,43.155,0.053,43.012,0,42.865c0.199,0.023,0.402,0.044,0.611,0.062
		c0.207,0.018,0.414,0.032,0.619,0.044s0.404,0.021,0.598,0.026s0.375,0.009,0.545,0.009c0.715,0,1.362-0.006,1.942-0.018
		s1.114-0.029,1.604-0.053c0.488-0.023,0.941-0.054,1.357-0.092S8.092,42.757,8.473,42.698z M7.154,41.397
		c-0.018,0.135-0.039,0.272-0.066,0.413c-0.025,0.141-0.048,0.278-0.065,0.413c-0.404-0.018-0.855-0.026-1.354-0.026
		c-0.305,0-0.61,0.003-0.919,0.009c-0.307,0.006-0.604,0.013-0.887,0.022c-0.285,0.008-0.55,0.016-0.796,0.021
		s-0.46,0.009-0.642,0.009c-0.223,0-0.38-0.065-0.471-0.198c-0.091-0.131-0.136-0.288-0.136-0.47v-0.976
		c0-0.117-0.012-0.214-0.035-0.29s-0.065-0.139-0.128-0.188c-0.061-0.05-0.147-0.093-0.259-0.128s-0.255-0.073-0.431-0.114
		c0.029-0.064,0.06-0.13,0.092-0.197s0.063-0.134,0.093-0.198c0.076,0.012,0.193,0.025,0.352,0.04s0.322,0.032,0.492,0.053
		s0.335,0.041,0.497,0.061c0.16,0.021,0.285,0.037,0.373,0.049c-0.006,0.076-0.018,0.189-0.035,0.338
		c-0.018,0.15-0.026,0.28-0.026,0.392v0.976c0,0.199,0.073,0.299,0.22,0.299c0.223,0,0.511-0.009,0.865-0.026
		s0.729-0.041,1.121-0.07s0.779-0.062,1.16-0.097S6.879,41.438,7.154,41.397z M5.722,45.572c0.006-0.135,0.01-0.268,0.013-0.4
		c0.003-0.131,0.008-0.265,0.014-0.399c-0.064-0.006-0.132-0.009-0.202-0.009s-0.146,0-0.229,0c-0.158,0-0.327,0.002-0.505,0.004
		c-0.18,0.004-0.358,0.01-0.537,0.018c-0.179,0.01-0.349,0.018-0.51,0.027c-0.161,0.008-0.303,0.016-0.426,0.021
		c-0.053,0.006-0.134,0.014-0.242,0.021c-0.108,0.01-0.227,0.02-0.355,0.031s-0.258,0.025-0.387,0.039
		c-0.129,0.016-0.246,0.031-0.352,0.049c-0.082-0.129-0.162-0.261-0.242-0.396c-0.078-0.135-0.159-0.267-0.241-0.396
		c0.1,0.012,0.235,0.026,0.409,0.044c0.172,0.018,0.347,0.034,0.522,0.048c0.176,0.016,0.334,0.027,0.475,0.035
		c0.141,0.01,0.234,0.014,0.281,0.014c0.24,0,0.521-0.003,0.844-0.009s0.653-0.013,0.993-0.022c0.34-0.008,0.672-0.021,0.998-0.039
		c0.324-0.018,0.613-0.041,0.865-0.07c-0.023,0.053-0.046,0.134-0.066,0.242s-0.039,0.226-0.057,0.352s-0.034,0.253-0.049,0.382
		s-0.027,0.24-0.039,0.334c0.035-0.006,0.067-0.009,0.097-0.009s0.059-0.003,0.088-0.009c-0.012,0.111-0.025,0.22-0.04,0.325
		s-0.027,0.214-0.039,0.325c-0.24-0.012-0.494-0.019-0.76-0.022C5.775,46.102,5.508,46.1,5.238,46.1
		c-0.229,0-0.45,0.002-0.664,0.004c-0.214,0.004-0.414,0.007-0.602,0.01s-0.355,0.006-0.506,0.008
		c-0.148,0.004-0.271,0.008-0.364,0.014v0.721c0,0.07,0.018,0.115,0.053,0.137c0.035,0.02,0.138,0.03,0.308,0.03
		c0.24,0,0.533-0.008,0.879-0.022s0.701-0.033,1.068-0.057c0.365-0.023,0.717-0.053,1.055-0.088c0.336-0.035,0.616-0.07,0.839-0.105
		c-0.029,0.135-0.059,0.268-0.088,0.4c-0.029,0.131-0.059,0.265-0.088,0.399C6.923,47.544,6.7,47.539,6.46,47.537
		c-0.24-0.004-0.492-0.005-0.756-0.005c-0.281,0-0.565,0.003-0.853,0.009s-0.564,0.012-0.83,0.018
		c-0.268,0.006-0.518,0.012-0.752,0.018s-0.437,0.009-0.606,0.009c-0.217,0-0.363-0.052-0.439-0.153
		c-0.076-0.104-0.114-0.23-0.114-0.383v-0.545c0-0.1-0.008-0.182-0.021-0.246c-0.016-0.064-0.046-0.119-0.093-0.162
		c-0.047-0.045-0.113-0.084-0.198-0.119s-0.2-0.076-0.347-0.123c0.029-0.053,0.059-0.106,0.088-0.162s0.062-0.11,0.097-0.163
		c0.305,0.029,0.639,0.052,1.002,0.065C3,45.609,3.375,45.616,3.762,45.616c0.346,0,0.684-0.005,1.016-0.013
		C5.107,45.594,5.423,45.584,5.722,45.572z"/>
	<path d="M14.616,44.852c-0.229,0-0.469,0.002-0.721,0.004c-0.252,0.004-0.489,0.011-0.712,0.022
		c-0.006,0.064-0.014,0.123-0.021,0.176c-0.01,0.053-0.02,0.1-0.031,0.141l-0.721,0.114c-0.018-0.117-0.037-0.271-0.057-0.461
		c-0.021-0.19-0.031-0.365-0.031-0.523v-2.461c0-0.088-0.009-0.164-0.026-0.229s-0.052-0.12-0.101-0.167
		c-0.051-0.047-0.122-0.086-0.216-0.118s-0.217-0.066-0.369-0.102l0.158-0.369c0.1,0.012,0.218,0.026,0.356,0.044
		c0.137,0.018,0.281,0.038,0.43,0.062c0.15,0.023,0.296,0.047,0.439,0.07s0.274,0.047,0.392,0.07
		c-0.012,0.053-0.023,0.117-0.035,0.193s-0.023,0.152-0.035,0.229s-0.021,0.144-0.026,0.202s-0.009,0.097-0.009,0.114v0.457
		c0.193-0.006,0.405-0.016,0.638-0.031c0.23-0.014,0.449-0.027,0.654-0.039v-0.765c0-0.082-0.011-0.152-0.031-0.211
		s-0.06-0.111-0.118-0.158s-0.138-0.089-0.237-0.128c-0.1-0.037-0.231-0.08-0.396-0.127l0.158-0.387
		c0.117,0.012,0.252,0.028,0.404,0.049s0.308,0.042,0.466,0.065s0.311,0.047,0.457,0.07s0.275,0.047,0.387,0.07
		c-0.012,0.053-0.023,0.12-0.035,0.202s-0.023,0.161-0.035,0.237s-0.021,0.144-0.031,0.202c-0.008,0.059-0.013,0.097-0.013,0.114
		v2.347c0,0.311-0.02,0.566-0.058,0.77c-0.038,0.201-0.071,0.37-0.101,0.505l-0.729,0.105c-0.012-0.041-0.02-0.094-0.021-0.158
		C14.635,44.989,14.628,44.922,14.616,44.852z M14.572,42.821c-0.205,0.006-0.421,0.013-0.646,0.022
		c-0.226,0.008-0.44,0.021-0.646,0.039v1.072c0,0.076-0.002,0.146-0.005,0.211s-0.007,0.123-0.013,0.176
		c0.205-0.012,0.423-0.024,0.655-0.039c0.23-0.015,0.449-0.031,0.654-0.049V42.821z M17.112,42.944
		c0.088-0.012,0.202-0.022,0.343-0.03c0.141-0.01,0.258-0.014,0.352-0.014v-2.531c0-0.088-0.015-0.165-0.044-0.232
		s-0.079-0.131-0.149-0.189s-0.167-0.112-0.29-0.162s-0.281-0.099-0.475-0.146l0.167-0.387c0.141,0.018,0.297,0.043,0.471,0.075
		c0.172,0.032,0.344,0.064,0.514,0.096c0.17,0.033,0.334,0.065,0.492,0.098s0.29,0.06,0.396,0.083
		c-0.006,0.053-0.013,0.123-0.022,0.211c-0.008,0.088-0.016,0.173-0.021,0.255s-0.012,0.157-0.018,0.225s-0.009,0.104-0.009,0.109
		v4.825c0,0.182-0.005,0.389-0.013,0.62c-0.01,0.231-0.021,0.465-0.035,0.703c-0.016,0.236-0.033,0.464-0.053,0.681
		c-0.021,0.217-0.043,0.398-0.066,0.545l-0.765,0.105c-0.012-0.111-0.022-0.248-0.03-0.409c-0.01-0.161-0.017-0.334-0.022-0.518
		c-0.006-0.186-0.012-0.371-0.018-0.559s-0.009-0.366-0.009-0.536v-2.391c-0.094,0.006-0.211,0.009-0.352,0.009
		s-0.255,0.003-0.343,0.009v1.424c0,0.182-0.005,0.39-0.013,0.624c-0.01,0.234-0.021,0.471-0.035,0.707
		c-0.016,0.238-0.031,0.465-0.049,0.682s-0.038,0.398-0.062,0.545l-0.738,0.097c-0.012-0.111-0.022-0.248-0.03-0.409
		c-0.01-0.161-0.018-0.332-0.027-0.514c-0.008-0.182-0.016-0.366-0.021-0.554s-0.009-0.366-0.009-0.536v-4.852
		c0-0.082-0.011-0.155-0.03-0.22c-0.021-0.064-0.062-0.124-0.123-0.181c-0.062-0.055-0.151-0.106-0.269-0.153
		s-0.27-0.094-0.457-0.141l0.176-0.378c0.146,0.018,0.302,0.039,0.466,0.066c0.164,0.025,0.326,0.056,0.488,0.088
		c0.16,0.032,0.312,0.064,0.457,0.096c0.143,0.033,0.268,0.063,0.373,0.093c-0.012,0.053-0.023,0.122-0.035,0.206
		c-0.012,0.086-0.021,0.171-0.031,0.256c-0.008,0.085-0.016,0.159-0.021,0.224s-0.009,0.1-0.009,0.105V42.944z"/>
	<path d="M24.724,45.757c0,0.158-0.004,0.327-0.014,0.505c-0.008,0.18-0.019,0.356-0.03,0.532s-0.028,0.346-0.048,0.51
		c-0.021,0.164-0.04,0.308-0.058,0.431l-0.791,0.132c-0.012-0.1-0.021-0.226-0.026-0.378s-0.011-0.313-0.014-0.483
		s-0.004-0.339-0.004-0.505c0-0.168,0-0.315,0-0.444v-1.635c-0.223,0-0.439,0.003-0.65,0.009s-0.407,0.012-0.589,0.018
		s-0.345,0.014-0.487,0.021c-0.145,0.01-0.26,0.017-0.348,0.022c-0.111,0.006-0.231,0.015-0.36,0.026s-0.257,0.023-0.382,0.035
		c-0.127,0.012-0.251,0.025-0.374,0.039c-0.123,0.016-0.234,0.028-0.334,0.04l-0.352-0.87c0.129,0.018,0.271,0.032,0.427,0.044
		c0.154,0.012,0.312,0.025,0.475,0.04c0.16,0.015,0.318,0.027,0.475,0.039c0.154,0.012,0.294,0.021,0.417,0.026
		c0.141,0,0.322,0,0.545,0s0.466-0.003,0.729-0.009s0.537-0.012,0.822-0.018c0.283-0.006,0.558-0.014,0.821-0.021
		c0.264-0.01,0.505-0.017,0.726-0.022c0.219-0.006,0.399-0.012,0.54-0.018c0.193-0.006,0.396-0.018,0.606-0.035
		s0.42-0.036,0.629-0.058c0.207-0.02,0.408-0.04,0.602-0.061s0.369-0.043,0.527-0.066l-0.123,0.826
		c-0.117-0.006-0.257-0.012-0.418-0.018s-0.335-0.01-0.522-0.014c-0.188-0.002-0.381-0.007-0.58-0.013s-0.396-0.009-0.589-0.009
		c-0.152,0-0.333,0-0.541,0s-0.443,0.009-0.707,0.026V45.757z M24.565,39.912c0.252,0.041,0.483,0.111,0.694,0.211
		s0.392,0.222,0.54,0.365c0.15,0.144,0.267,0.303,0.352,0.479s0.128,0.363,0.128,0.562c0,0.24-0.056,0.461-0.167,0.664
		c-0.111,0.201-0.266,0.377-0.461,0.527c-0.197,0.148-0.433,0.265-0.708,0.347s-0.574,0.123-0.896,0.123
		c-0.311,0-0.598-0.041-0.861-0.123s-0.492-0.198-0.686-0.347c-0.193-0.15-0.345-0.326-0.452-0.527
		c-0.109-0.203-0.163-0.424-0.163-0.664c0-0.205,0.045-0.4,0.136-0.584c0.091-0.186,0.217-0.351,0.379-0.497
		c0.16-0.146,0.353-0.269,0.575-0.364c0.223-0.098,0.466-0.16,0.729-0.189c-0.023-0.064-0.066-0.114-0.127-0.149
		c-0.062-0.035-0.154-0.07-0.277-0.105l0.167-0.334c0.07,0.012,0.159,0.028,0.269,0.048c0.107,0.021,0.219,0.043,0.334,0.066
		c0.113,0.023,0.227,0.046,0.338,0.066s0.205,0.036,0.281,0.048c-0.018,0.064-0.037,0.128-0.057,0.188
		C24.61,39.785,24.589,39.848,24.565,39.912z M25.251,41.494c0-0.152-0.032-0.297-0.097-0.436c-0.064-0.137-0.151-0.257-0.259-0.359
		c-0.109-0.103-0.233-0.184-0.374-0.242s-0.284-0.088-0.431-0.088c-0.152,0-0.299,0.029-0.439,0.088s-0.264,0.14-0.369,0.242
		s-0.189,0.223-0.25,0.359c-0.062,0.139-0.093,0.283-0.093,0.436c0,0.17,0.03,0.324,0.093,0.461
		c0.061,0.139,0.143,0.257,0.246,0.356c0.102,0.1,0.224,0.176,0.364,0.229s0.29,0.079,0.448,0.079c0.152,0,0.299-0.026,0.439-0.079
		s0.264-0.129,0.369-0.229s0.19-0.218,0.255-0.356C25.219,41.818,25.251,41.664,25.251,41.494z"/>
	<path d="M32.722,45.81c0.334-0.018,0.643-0.03,0.927-0.04c0.284-0.008,0.512-0.021,0.682-0.039
		c0.193-0.006,0.396-0.016,0.606-0.031c0.211-0.014,0.42-0.03,0.628-0.048s0.409-0.036,0.603-0.058
		c0.193-0.02,0.369-0.042,0.527-0.065l-0.123,0.817c-0.117-0.006-0.257-0.012-0.417-0.018c-0.162-0.006-0.338-0.01-0.527-0.014
		c-0.191-0.002-0.387-0.005-0.59-0.008c-0.201-0.003-0.399-0.005-0.593-0.005c-0.158,0-0.354,0.002-0.585,0.005
		s-0.48,0.008-0.746,0.018c-0.268,0.008-0.541,0.016-0.822,0.021s-0.548,0.014-0.8,0.021c-0.252,0.01-0.48,0.02-0.686,0.031
		s-0.363,0.021-0.475,0.026c-0.223,0.012-0.469,0.029-0.738,0.053s-0.513,0.05-0.729,0.079l-0.325-0.879
		c0.129,0.018,0.269,0.035,0.417,0.053c0.15,0.018,0.304,0.032,0.462,0.044s0.314,0.022,0.47,0.03
		c0.155,0.01,0.301,0.017,0.436,0.022c0.164,0.012,0.369,0.016,0.615,0.013s0.516-0.007,0.809-0.013v-2.224
		c0-0.088-0.009-0.162-0.026-0.225c-0.018-0.061-0.055-0.115-0.11-0.162s-0.135-0.088-0.236-0.123
		c-0.104-0.035-0.239-0.067-0.409-0.097l0.193-0.387c0.088,0.012,0.205,0.025,0.352,0.04s0.3,0.033,0.462,0.057
		c0.16,0.023,0.317,0.049,0.47,0.074c0.152,0.027,0.281,0.052,0.387,0.075c-0.012,0.053-0.023,0.117-0.035,0.193
		s-0.023,0.151-0.035,0.224c-0.012,0.074-0.021,0.141-0.026,0.203c-0.006,0.061-0.009,0.101-0.009,0.118V45.81z M33.935,44.685
		c0.059-0.281,0.117-0.59,0.176-0.927s0.11-0.678,0.153-1.02c0.045-0.344,0.082-0.673,0.115-0.989
		c0.031-0.316,0.054-0.595,0.065-0.835c-0.217,0-0.457,0.002-0.721,0.004c-0.264,0.004-0.529,0.007-0.796,0.01
		s-0.521,0.008-0.764,0.018c-0.244,0.008-0.453,0.019-0.629,0.03c-0.088,0.012-0.196,0.023-0.325,0.035s-0.266,0.026-0.409,0.044
		s-0.289,0.038-0.439,0.062c-0.148,0.023-0.288,0.047-0.417,0.07l-0.422-0.826c0.111,0.012,0.238,0.022,0.382,0.03
		c0.144,0.01,0.289,0.02,0.436,0.031s0.285,0.021,0.418,0.026c0.131,0.006,0.244,0.009,0.338,0.009c0.311,0,0.659-0.004,1.046-0.014
		c0.387-0.008,0.774-0.021,1.165-0.039c0.389-0.018,0.764-0.041,1.125-0.07c0.359-0.029,0.672-0.064,0.936-0.105l0.281,0.272
		c-0.1,0.691-0.226,1.401-0.378,2.132c-0.152,0.729-0.346,1.413-0.58,2.052H33.935z"/>
	<path d="M5.788,79.569c0-0.17-0.081-0.309-0.242-0.418c-0.161-0.107-0.435-0.212-0.821-0.312l0.149-0.387
		c0.146,0.018,0.314,0.041,0.506,0.07c0.189,0.029,0.377,0.062,0.562,0.097c0.184,0.035,0.359,0.067,0.527,0.097
		c0.166,0.029,0.303,0.053,0.408,0.07c-0.012,0.053-0.023,0.123-0.035,0.211s-0.021,0.176-0.031,0.264
		c-0.008,0.088-0.016,0.166-0.021,0.233s-0.009,0.104-0.009,0.109v2.109c0.123-0.012,0.261-0.026,0.413-0.044
		s0.306-0.036,0.461-0.058c0.155-0.02,0.307-0.042,0.453-0.065s0.278-0.044,0.396-0.062L8.39,82.303
		c-0.088-0.006-0.197-0.01-0.33-0.013c-0.131-0.003-0.271-0.005-0.417-0.005s-0.294,0-0.444,0c-0.148,0-0.288,0-0.417,0v0.888
		c0,0.135-0.003,0.28-0.009,0.436s-0.015,0.312-0.026,0.47s-0.025,0.308-0.04,0.448s-0.03,0.261-0.048,0.36L5.867,85.01
		c-0.012-0.07-0.022-0.17-0.03-0.299c-0.01-0.129-0.017-0.269-0.022-0.417c-0.006-0.15-0.012-0.299-0.018-0.449
		c-0.006-0.148-0.009-0.276-0.009-0.382v-0.896C5.489,82.684,5.17,82.795,4.83,82.9s-0.679,0.204-1.015,0.294
		c-0.338,0.092-0.664,0.171-0.98,0.238s-0.604,0.121-0.861,0.162c-0.322,0.047-0.56,0.003-0.712-0.132s-0.229-0.343-0.229-0.624
		v-1.907c0-0.105-0.009-0.194-0.026-0.269c-0.018-0.072-0.055-0.136-0.109-0.188c-0.057-0.053-0.136-0.101-0.238-0.146
		c-0.103-0.043-0.235-0.086-0.399-0.127l0.185-0.396c0.328,0.053,0.689,0.085,1.086,0.097c0.395,0.012,0.795,0.009,1.199-0.009
		s0.797-0.047,1.178-0.088s0.718-0.088,1.011-0.141l-0.141,0.8c-0.545-0.023-1.057-0.031-1.534-0.021
		c-0.478,0.008-0.886,0.027-1.226,0.057v2.171c0,0.088,0.007,0.148,0.022,0.181c0.014,0.032,0.045,0.045,0.092,0.039
		c0.217-0.012,0.472-0.039,0.765-0.084c0.293-0.043,0.603-0.099,0.927-0.166c0.326-0.067,0.656-0.146,0.994-0.233
		c0.336-0.088,0.66-0.182,0.971-0.281V79.569z M7.317,86.653c-0.357-0.006-0.724-0.009-1.099-0.009s-0.741,0.003-1.099,0.009
		s-0.699,0.015-1.023,0.026c-0.326,0.012-0.617,0.026-0.875,0.044c-0.229,0.018-0.396-0.027-0.501-0.135
		c-0.105-0.108-0.158-0.229-0.158-0.362v-1.089c0-0.122-0.006-0.219-0.018-0.291c-0.012-0.073-0.043-0.135-0.093-0.186
		s-0.126-0.094-0.229-0.129c-0.103-0.036-0.244-0.078-0.426-0.126l0.176-0.398c0.082,0.012,0.196,0.026,0.343,0.044
		s0.3,0.038,0.462,0.062c0.16,0.023,0.317,0.046,0.47,0.065c0.152,0.021,0.272,0.04,0.36,0.058
		c-0.006,0.035-0.012,0.082-0.018,0.141s-0.012,0.122-0.018,0.188c-0.006,0.068-0.012,0.134-0.018,0.198s-0.009,0.123-0.009,0.176
		v1.011c0,0.1,0.012,0.158,0.035,0.176s0.085,0.029,0.185,0.035c0.217,0.006,0.484,0,0.805-0.018
		c0.318-0.018,0.65-0.039,0.992-0.066c0.344-0.025,0.682-0.057,1.016-0.092s0.624-0.07,0.87-0.105L7.317,86.653z"/>
	<path d="M13.522,83.11c0,0.14-0.006,0.287-0.018,0.444s-0.026,0.305-0.044,0.444c0.334-0.012,0.662-0.027,0.984-0.049
		c0.322-0.02,0.63-0.042,0.923-0.065c-0.012,0.141-0.026,0.295-0.044,0.463c-0.018,0.167-0.037,0.34-0.057,0.516
		c-0.021,0.177-0.043,0.353-0.066,0.529s-0.044,0.341-0.062,0.494c0.064-0.012,0.123-0.02,0.176-0.022s0.103-0.007,0.149-0.013
		l-0.176,0.749c-0.193-0.018-0.436-0.029-0.725-0.035c-0.291-0.006-0.598-0.011-0.924-0.014c-0.324-0.003-0.653-0.001-0.984,0.005
		s-0.628,0.015-0.892,0.026c-0.006,0.035-0.011,0.077-0.013,0.127c-0.004,0.05-0.011,0.107-0.022,0.172l-0.721,0.123
		c-0.029-0.129-0.052-0.237-0.065-0.325c-0.016-0.088-0.027-0.167-0.035-0.237c-0.01-0.07-0.017-0.135-0.022-0.193
		s-0.015-0.126-0.026-0.202l-0.097-1.151c-0.006-0.105-0.013-0.19-0.022-0.255c-0.008-0.064-0.032-0.117-0.07-0.158
		s-0.096-0.075-0.176-0.101c-0.078-0.027-0.188-0.058-0.329-0.093l0.185-0.378c0.334,0.035,0.687,0.061,1.059,0.074
		c0.372,0.016,0.743,0.025,1.112,0.031c-0.012-0.146-0.017-0.29-0.013-0.431c0.002-0.141,0.004-0.261,0.004-0.36v-0.22
		c-0.229,0.006-0.451,0.012-0.668,0.018s-0.421,0.012-0.611,0.018s-0.358,0.013-0.505,0.022c-0.146,0.008-0.264,0.016-0.352,0.021
		c-0.105,0.006-0.222,0.015-0.347,0.026c-0.127,0.012-0.254,0.023-0.383,0.035S9.39,83.173,9.264,83.19s-0.238,0.035-0.338,0.053
		l-0.352-0.896c0.264,0.029,0.562,0.057,0.896,0.084c0.334,0.025,0.633,0.045,0.896,0.057c0.141,0.006,0.325,0.009,0.554,0.009
		s0.479-0.001,0.751-0.005c0.273-0.002,0.557-0.008,0.854-0.018c0.295-0.008,0.58-0.016,0.852-0.021
		c0.273-0.006,0.523-0.014,0.752-0.021c0.229-0.01,0.413-0.017,0.554-0.022c0.193-0.006,0.396-0.018,0.606-0.035
		s0.42-0.036,0.629-0.058c0.207-0.02,0.408-0.04,0.602-0.061s0.372-0.04,0.536-0.058l-0.141,0.817
		c-0.117-0.006-0.257-0.012-0.417-0.018c-0.162-0.006-0.336-0.01-0.523-0.014c-0.188-0.002-0.381-0.007-0.58-0.013
		s-0.396-0.009-0.589-0.009c-0.152,0-0.336,0-0.55,0s-0.458,0.009-0.733,0.026V83.11z M13.171,79.895
		c0.498,0.246,1.024,0.483,1.577,0.712c0.555,0.229,1.089,0.425,1.604,0.589l-0.703,0.729c-0.193-0.105-0.407-0.226-0.642-0.36
		s-0.478-0.273-0.729-0.417s-0.505-0.287-0.761-0.432c-0.254-0.143-0.499-0.276-0.733-0.399c-0.469,0.439-0.989,0.821-1.56,1.147
		c-0.572,0.324-1.13,0.575-1.675,0.751l-0.272-0.378c0.352-0.135,0.687-0.294,1.006-0.477s0.617-0.381,0.893-0.594
		c0.275-0.212,0.523-0.435,0.742-0.667c0.221-0.233,0.406-0.472,0.559-0.716c0.029-0.047,0.041-0.091,0.035-0.131
		c-0.006-0.041-0.018-0.07-0.035-0.088c-0.029-0.018-0.07-0.044-0.123-0.079s-0.109-0.068-0.172-0.101
		c-0.061-0.032-0.118-0.062-0.171-0.088c-0.053-0.027-0.091-0.043-0.114-0.049l0.281-0.316c0.111,0.035,0.24,0.074,0.387,0.119
		c0.146,0.043,0.296,0.089,0.448,0.136s0.302,0.094,0.448,0.141s0.272,0.088,0.378,0.123c-0.1,0.152-0.201,0.299-0.304,0.439
		S13.312,79.766,13.171,79.895z M14.27,84.544c-0.176-0.006-0.375-0.01-0.598-0.014c-0.223-0.002-0.447-0.001-0.672,0.005
		c-0.227,0.006-0.444,0.013-0.655,0.022c-0.211,0.008-0.396,0.019-0.554,0.03v1.433c0.369-0.006,0.773-0.018,1.213-0.035
		s0.861-0.035,1.266-0.053V84.544z"/>
	<path d="M20.193,80.536c0.369,0.076,0.681,0.223,0.937,0.439c0.254,0.217,0.423,0.478,0.505,0.782
		c0.117,0.023,0.223,0.038,0.316,0.044s0.182,0.006,0.264,0h0.053v-1.898c0-0.082-0.013-0.155-0.04-0.22
		c-0.025-0.064-0.071-0.124-0.136-0.181c-0.064-0.055-0.153-0.106-0.269-0.153c-0.113-0.047-0.262-0.094-0.443-0.141l0.185-0.378
		c0.141,0.018,0.291,0.039,0.452,0.066c0.161,0.025,0.321,0.056,0.479,0.088s0.311,0.064,0.457,0.096
		c0.146,0.033,0.275,0.063,0.387,0.093c-0.012,0.053-0.025,0.122-0.04,0.206c-0.015,0.086-0.027,0.171-0.039,0.256
		s-0.021,0.159-0.026,0.224s-0.009,0.1-0.009,0.105v4.148c0,0.182-0.004,0.39-0.014,0.624c-0.008,0.234-0.021,0.471-0.039,0.707
		c-0.018,0.238-0.037,0.465-0.057,0.682c-0.021,0.217-0.043,0.398-0.066,0.545l-0.712,0.097c-0.012-0.111-0.021-0.248-0.026-0.409
		s-0.014-0.332-0.021-0.514c-0.01-0.182-0.016-0.366-0.018-0.554c-0.004-0.188-0.005-0.366-0.005-0.536v-2.426
		c-0.105,0.018-0.211,0.037-0.316,0.057c-0.105,0.021-0.199,0.04-0.281,0.058c-0.035,0.205-0.108,0.395-0.22,0.567
		s-0.252,0.322-0.422,0.447c-0.17,0.127-0.368,0.225-0.594,0.295s-0.47,0.105-0.733,0.105c-0.293,0-0.562-0.042-0.809-0.127
		s-0.457-0.204-0.633-0.356s-0.313-0.329-0.413-0.532c-0.1-0.201-0.149-0.423-0.149-0.663c0-0.211,0.041-0.409,0.123-0.593
		c0.082-0.186,0.194-0.352,0.339-0.502c0.143-0.148,0.316-0.271,0.518-0.369c0.203-0.096,0.427-0.162,0.673-0.197
		c0-0.082-0.025-0.145-0.075-0.189c-0.05-0.043-0.142-0.089-0.276-0.136l0.193-0.325c0.053,0.012,0.129,0.028,0.229,0.049
		s0.203,0.042,0.312,0.065s0.216,0.047,0.321,0.07s0.19,0.044,0.255,0.062C20.261,80.22,20.223,80.36,20.193,80.536z M20.747,82.153
		c0-0.164-0.028-0.316-0.084-0.457s-0.131-0.262-0.229-0.365c-0.096-0.102-0.206-0.181-0.329-0.236s-0.255-0.084-0.396-0.084
		s-0.272,0.028-0.396,0.084s-0.231,0.135-0.325,0.236c-0.094,0.104-0.169,0.225-0.225,0.365s-0.083,0.293-0.083,0.457
		c0,0.17,0.027,0.324,0.083,0.461c0.056,0.139,0.131,0.256,0.225,0.352c0.094,0.098,0.202,0.174,0.325,0.229
		c0.123,0.057,0.255,0.084,0.396,0.084s0.272-0.027,0.396-0.084c0.123-0.055,0.233-0.131,0.329-0.229
		c0.098-0.096,0.173-0.213,0.229-0.352C20.719,82.478,20.747,82.323,20.747,82.153z M22.944,78.453
		c0.141,0.018,0.297,0.043,0.471,0.075c0.172,0.032,0.345,0.064,0.518,0.096c0.173,0.033,0.339,0.065,0.497,0.098
		s0.293,0.06,0.404,0.083c-0.018,0.053-0.032,0.123-0.044,0.211s-0.021,0.173-0.031,0.255c-0.008,0.082-0.016,0.157-0.021,0.225
		s-0.009,0.104-0.009,0.109v4.825c0,0.182-0.005,0.389-0.013,0.62c-0.01,0.231-0.02,0.465-0.031,0.703
		c-0.012,0.236-0.026,0.464-0.044,0.681s-0.038,0.398-0.062,0.545l-0.765,0.105c-0.012-0.111-0.022-0.248-0.03-0.409
		c-0.01-0.161-0.018-0.334-0.027-0.518c-0.008-0.186-0.016-0.371-0.021-0.559s-0.009-0.366-0.009-0.536v-5.493
		c0-0.088-0.013-0.165-0.04-0.232c-0.025-0.067-0.073-0.131-0.141-0.189s-0.162-0.112-0.285-0.162s-0.281-0.099-0.475-0.146
		L22.944,78.453z"/>
	<path d="M34.142,79.569c0-0.17-0.081-0.309-0.242-0.418c-0.161-0.107-0.435-0.212-0.821-0.312l0.149-0.387
		c0.146,0.018,0.314,0.041,0.506,0.07c0.189,0.029,0.377,0.062,0.562,0.097c0.184,0.035,0.359,0.067,0.527,0.097
		c0.166,0.029,0.303,0.053,0.408,0.07c-0.012,0.053-0.023,0.123-0.035,0.211s-0.021,0.176-0.031,0.264
		c-0.008,0.088-0.016,0.166-0.021,0.233s-0.009,0.104-0.009,0.109v2.391c0.129-0.018,0.271-0.033,0.427-0.049
		c0.154-0.014,0.31-0.031,0.465-0.053c0.155-0.02,0.307-0.04,0.453-0.061s0.278-0.043,0.396-0.066l-0.105,0.817
		c-0.088-0.006-0.198-0.009-0.329-0.009c-0.133,0-0.273,0-0.422,0c-0.15,0-0.303,0-0.457,0c-0.156,0-0.298,0-0.427,0v1.854
		c0,0.182-0.003,0.392-0.009,0.628c-0.006,0.238-0.015,0.477-0.026,0.717s-0.026,0.469-0.044,0.686s-0.035,0.39-0.053,0.519
		l-0.773,0.105c-0.012-0.094-0.021-0.222-0.031-0.382c-0.008-0.162-0.018-0.336-0.025-0.523c-0.01-0.188-0.017-0.378-0.022-0.571
		s-0.009-0.375-0.009-0.545v-1.749c-0.264,0.1-0.553,0.204-0.865,0.312c-0.314,0.108-0.633,0.211-0.959,0.307
		c-0.324,0.098-0.643,0.184-0.953,0.26s-0.595,0.132-0.853,0.167c-0.34,0.053-0.585,0.012-0.733-0.123
		c-0.15-0.135-0.225-0.343-0.225-0.624V80.94c0-0.088-0.011-0.161-0.031-0.22s-0.061-0.11-0.123-0.153
		c-0.061-0.045-0.148-0.084-0.264-0.119c-0.113-0.035-0.268-0.07-0.461-0.105l0.141-0.387c0.141,0.006,0.295,0.017,0.461,0.031
		c0.168,0.015,0.334,0.032,0.502,0.053c0.166,0.021,0.326,0.042,0.479,0.065s0.287,0.044,0.404,0.062
		c-0.012,0.053-0.023,0.122-0.035,0.207s-0.021,0.17-0.031,0.254c-0.008,0.086-0.016,0.16-0.021,0.225s-0.009,0.103-0.009,0.114
		v2.461c0,0.088,0.005,0.149,0.013,0.185c0.01,0.035,0.028,0.05,0.058,0.044c0.17-0.012,0.396-0.044,0.681-0.097
		s0.591-0.115,0.919-0.189c0.328-0.072,0.659-0.154,0.993-0.246c0.334-0.09,0.639-0.18,0.914-0.268V79.569z"/>
	<path d="M40.013,80.369c0.258,0.047,0.493,0.123,0.708,0.229c0.213,0.105,0.396,0.237,0.549,0.396s0.27,0.336,0.352,0.531
		c0.082,0.197,0.123,0.406,0.123,0.629c0,0.264-0.056,0.509-0.167,0.734s-0.266,0.42-0.462,0.584s-0.43,0.293-0.703,0.387
		c-0.271,0.094-0.566,0.141-0.883,0.141s-0.608-0.047-0.875-0.141s-0.496-0.223-0.689-0.387s-0.346-0.358-0.457-0.584
		s-0.167-0.471-0.167-0.734c0-0.234,0.045-0.454,0.136-0.659s0.217-0.387,0.379-0.545c0.16-0.158,0.354-0.29,0.58-0.396
		c0.225-0.105,0.473-0.173,0.742-0.202c0.006-0.094-0.015-0.167-0.062-0.22s-0.146-0.103-0.299-0.149l0.193-0.334
		c0.059,0.018,0.138,0.038,0.237,0.062s0.203,0.047,0.312,0.07c0.107,0.023,0.215,0.046,0.32,0.066s0.193,0.039,0.264,0.057
		C40.098,80.015,40.054,80.17,40.013,80.369z M40.716,82.127c0-0.182-0.032-0.35-0.097-0.505s-0.149-0.291-0.255-0.404
		c-0.105-0.115-0.229-0.205-0.369-0.273c-0.141-0.066-0.29-0.101-0.448-0.101s-0.307,0.034-0.443,0.101
		c-0.139,0.068-0.259,0.158-0.361,0.273c-0.103,0.113-0.184,0.249-0.246,0.404c-0.061,0.155-0.092,0.323-0.092,0.505
		c0,0.188,0.031,0.357,0.092,0.51c0.062,0.152,0.144,0.283,0.246,0.392s0.223,0.193,0.361,0.254
		c0.137,0.062,0.285,0.093,0.443,0.093s0.308-0.03,0.448-0.093c0.141-0.061,0.265-0.146,0.374-0.254
		c0.107-0.108,0.193-0.239,0.254-0.392C40.686,82.484,40.716,82.314,40.716,82.127z M43.774,84.43c0,0.182-0.005,0.392-0.013,0.628
		c-0.01,0.238-0.021,0.477-0.035,0.717c-0.016,0.24-0.03,0.469-0.045,0.686s-0.03,0.39-0.048,0.519l-0.773,0.105
		c-0.012-0.094-0.022-0.222-0.03-0.382c-0.01-0.162-0.018-0.336-0.027-0.523c-0.008-0.188-0.015-0.378-0.018-0.571
		s-0.004-0.375-0.004-0.545v-5.493c0-0.17-0.082-0.309-0.246-0.418c-0.164-0.107-0.439-0.212-0.826-0.312l0.176-0.387
		c0.146,0.018,0.312,0.041,0.496,0.07c0.186,0.029,0.371,0.062,0.559,0.097s0.365,0.067,0.531,0.097
		c0.168,0.029,0.307,0.053,0.418,0.07c-0.018,0.053-0.032,0.123-0.044,0.211s-0.023,0.176-0.035,0.264s-0.021,0.166-0.026,0.233
		s-0.009,0.104-0.009,0.109v2.355c0.129-0.012,0.272-0.024,0.431-0.039s0.314-0.031,0.471-0.049
		c0.154-0.018,0.304-0.036,0.447-0.057s0.269-0.043,0.374-0.066l-0.088,0.817c-0.088-0.006-0.198-0.009-0.329-0.009
		c-0.133,0-0.273,0-0.422,0c-0.15,0-0.301,0-0.453,0s-0.296,0-0.431,0V84.43z"/>
	<path d="M50.375,80.255c-0.176,0.51-0.406,1.001-0.69,1.473s-0.612,0.914-0.984,1.326c-0.372,0.414-0.781,0.795-1.23,1.143
		c-0.447,0.35-0.921,0.658-1.419,0.928l-0.272-0.325c0.41-0.246,0.794-0.537,1.151-0.874s0.678-0.691,0.962-1.064
		c0.284-0.371,0.527-0.748,0.73-1.129c0.201-0.381,0.353-0.738,0.452-1.072c-0.088,0-0.19,0.002-0.308,0.004
		c-0.117,0.004-0.239,0.008-0.365,0.014s-0.247,0.011-0.364,0.014s-0.217,0.004-0.299,0.004c-0.064,0-0.151,0.004-0.259,0.014
		c-0.109,0.008-0.227,0.021-0.352,0.035c-0.127,0.015-0.254,0.03-0.383,0.048s-0.24,0.035-0.334,0.053l-0.536-0.817
		c0.076,0.012,0.179,0.025,0.308,0.039c0.129,0.016,0.265,0.03,0.408,0.045s0.286,0.027,0.427,0.039s0.261,0.018,0.36,0.018
		c0.211,0,0.437-0.006,0.677-0.018s0.479-0.026,0.716-0.044c0.238-0.018,0.467-0.041,0.686-0.07
		c0.221-0.029,0.415-0.062,0.585-0.097L50.375,80.255z M52.291,84.43c0,0.176-0.005,0.384-0.013,0.624
		c-0.01,0.24-0.02,0.48-0.031,0.721s-0.026,0.469-0.044,0.686s-0.035,0.39-0.053,0.519l-0.773,0.105
		c-0.012-0.094-0.022-0.222-0.03-0.382c-0.01-0.162-0.018-0.336-0.027-0.523c-0.008-0.188-0.015-0.378-0.018-0.571
		s-0.004-0.375-0.004-0.545v-5.493c0-0.17-0.081-0.309-0.242-0.418c-0.161-0.107-0.435-0.212-0.821-0.312l0.149-0.387
		c0.146,0.018,0.314,0.041,0.506,0.07c0.189,0.029,0.377,0.062,0.562,0.097c0.184,0.035,0.359,0.067,0.527,0.097
		c0.166,0.029,0.303,0.053,0.408,0.07c-0.012,0.053-0.023,0.123-0.035,0.211s-0.021,0.176-0.031,0.264
		c-0.008,0.088-0.016,0.166-0.021,0.233s-0.009,0.104-0.009,0.109v2.654c0.129-0.012,0.271-0.024,0.427-0.039
		c0.154-0.015,0.309-0.031,0.461-0.049s0.299-0.035,0.439-0.053s0.267-0.038,0.378-0.062l-0.07,0.826
		c-0.094-0.006-0.206-0.01-0.339-0.013c-0.131-0.003-0.271-0.005-0.417-0.005s-0.296,0-0.448,0s-0.296,0-0.431,0V84.43z"/>
	<path d="M57.521,82.496c0.311,0.24,0.648,0.5,1.015,0.778s0.731,0.531,1.095,0.76l-0.729,0.65c-0.281-0.299-0.566-0.602-0.857-0.91
		c-0.289-0.307-0.581-0.602-0.874-0.883c-0.387,0.404-0.811,0.777-1.271,1.121c-0.46,0.342-0.938,0.657-1.437,0.944l-0.264-0.334
		c0.398-0.258,0.78-0.55,1.147-0.874c0.365-0.326,0.698-0.665,0.997-1.02s0.558-0.718,0.778-1.09
		c0.219-0.372,0.382-0.734,0.487-1.086c-0.088,0-0.19,0.003-0.308,0.009s-0.237,0.012-0.36,0.018s-0.243,0.012-0.36,0.018
		s-0.217,0.009-0.299,0.009c-0.064,0-0.151,0.006-0.26,0.018s-0.226,0.023-0.352,0.035s-0.252,0.026-0.377,0.044
		c-0.127,0.018-0.239,0.032-0.339,0.044l-0.536-0.835c0.076,0.012,0.179,0.026,0.308,0.044s0.265,0.034,0.409,0.049
		c0.143,0.015,0.285,0.027,0.426,0.039s0.261,0.018,0.36,0.018c0.211,0,0.437-0.004,0.677-0.014c0.24-0.008,0.479-0.021,0.717-0.039
		c0.236-0.018,0.464-0.041,0.681-0.07s0.41-0.062,0.58-0.097l0.334,0.308c-0.152,0.434-0.346,0.844-0.58,1.23
		S57.825,82.139,57.521,82.496z M60.79,84.43c0,0.182-0.003,0.392-0.009,0.628c-0.006,0.238-0.015,0.477-0.026,0.717
		s-0.026,0.469-0.044,0.686s-0.035,0.39-0.053,0.519l-0.773,0.105c-0.012-0.094-0.021-0.222-0.031-0.382
		c-0.008-0.162-0.018-0.336-0.025-0.523c-0.01-0.188-0.017-0.378-0.022-0.571s-0.009-0.375-0.009-0.545v-5.493
		c0-0.17-0.081-0.309-0.242-0.418c-0.161-0.107-0.435-0.212-0.821-0.312l0.149-0.387c0.146,0.018,0.314,0.041,0.506,0.07
		c0.189,0.029,0.377,0.062,0.562,0.097c0.184,0.035,0.359,0.067,0.527,0.097c0.166,0.029,0.303,0.053,0.408,0.07
		c-0.012,0.053-0.023,0.123-0.035,0.211s-0.021,0.176-0.031,0.264c-0.008,0.088-0.016,0.166-0.021,0.233s-0.009,0.104-0.009,0.109
		v2.487c0.129-0.012,0.272-0.026,0.431-0.044s0.314-0.035,0.471-0.053c0.154-0.018,0.306-0.036,0.452-0.057s0.275-0.046,0.387-0.075
		l-0.07,0.817c-0.094-0.006-0.21-0.009-0.347-0.009c-0.139,0-0.283,0-0.436,0s-0.307,0-0.461,0c-0.156,0-0.298,0-0.427,0V84.43z"/>
	<path d="M63.673,85.08c0.193,0,0.357,0.065,0.492,0.198c0.135,0.131,0.202,0.279,0.202,0.443c0,0.17-0.067,0.32-0.202,0.453
		c-0.135,0.131-0.299,0.197-0.492,0.197c-0.094,0-0.184-0.018-0.268-0.053c-0.086-0.035-0.158-0.084-0.221-0.145
		c-0.061-0.062-0.111-0.131-0.148-0.207c-0.039-0.076-0.058-0.158-0.058-0.246c0-0.082,0.019-0.161,0.058-0.237
		c0.037-0.076,0.088-0.146,0.148-0.206c0.062-0.062,0.135-0.11,0.221-0.146C63.489,85.098,63.579,85.08,63.673,85.08z"/>
	<path d="M4.15,123.929c0,0.152-0.003,0.318-0.009,0.497s-0.014,0.355-0.021,0.531c-0.01,0.176-0.024,0.346-0.045,0.51
		s-0.042,0.308-0.065,0.431l-0.773,0.123c-0.012-0.1-0.022-0.226-0.03-0.378c-0.01-0.152-0.017-0.312-0.022-0.479
		c-0.006-0.168-0.011-0.334-0.013-0.502c-0.004-0.166-0.005-0.314-0.005-0.443v-1.257c-0.152,0.006-0.301,0.017-0.444,0.03
		c-0.144,0.016-0.282,0.031-0.417,0.049c-0.064,0.006-0.155,0.015-0.272,0.026s-0.245,0.026-0.383,0.044s-0.275,0.037-0.412,0.057
		c-0.139,0.021-0.257,0.04-0.356,0.058l-0.492-0.914c0.088,0.018,0.199,0.034,0.334,0.048c0.135,0.016,0.273,0.028,0.417,0.04
		s0.284,0.021,0.422,0.026s0.257,0.009,0.356,0.009c0.381-0.006,0.776-0.023,1.187-0.053s0.815-0.067,1.217-0.114
		s0.793-0.102,1.174-0.162c0.381-0.062,0.735-0.128,1.063-0.198v-3.138c0-0.17-0.085-0.309-0.255-0.418
		c-0.17-0.107-0.451-0.212-0.844-0.312l0.185-0.387c0.141,0.018,0.304,0.041,0.487,0.07c0.186,0.029,0.369,0.062,0.555,0.097
		c0.184,0.035,0.361,0.067,0.531,0.097s0.311,0.053,0.422,0.07c-0.012,0.053-0.021,0.123-0.031,0.211
		c-0.008,0.088-0.018,0.176-0.025,0.264c-0.01,0.088-0.017,0.166-0.022,0.233s-0.009,0.104-0.009,0.109v4.825
		c0,0.182-0.004,0.392-0.014,0.628c-0.008,0.238-0.021,0.477-0.035,0.717s-0.032,0.469-0.053,0.686s-0.039,0.39-0.057,0.519
		l-0.773,0.105c-0.006-0.094-0.012-0.222-0.018-0.382c-0.006-0.162-0.012-0.336-0.018-0.523s-0.012-0.378-0.018-0.571
		s-0.009-0.375-0.009-0.545v-1.872c-0.375,0.088-0.769,0.17-1.183,0.246c-0.412,0.076-0.821,0.146-1.226,0.211V123.929z
		 M3.992,118.603c0.234,0.041,0.448,0.111,0.642,0.211s0.358,0.219,0.496,0.356s0.245,0.291,0.321,0.461s0.114,0.346,0.114,0.527
		c0,0.234-0.053,0.45-0.158,0.646s-0.25,0.366-0.436,0.51c-0.184,0.144-0.402,0.256-0.654,0.338s-0.524,0.123-0.817,0.123
		c-0.299,0-0.573-0.041-0.821-0.123c-0.25-0.082-0.465-0.194-0.646-0.338s-0.322-0.313-0.422-0.51s-0.149-0.412-0.149-0.646
		c0-0.193,0.041-0.378,0.123-0.554s0.198-0.334,0.347-0.475c0.15-0.141,0.328-0.256,0.537-0.347
		c0.207-0.091,0.438-0.151,0.689-0.181c-0.012-0.082-0.044-0.142-0.097-0.181c-0.053-0.037-0.129-0.071-0.229-0.101l0.158-0.325
		c0.059,0.012,0.138,0.026,0.237,0.044s0.205,0.037,0.316,0.058s0.22,0.041,0.325,0.061c0.105,0.021,0.193,0.04,0.264,0.058
		c-0.029,0.082-0.058,0.153-0.083,0.216C4.022,118.492,4.004,118.55,3.992,118.603z M4.537,120.141c0-0.146-0.028-0.287-0.083-0.422
		c-0.057-0.135-0.131-0.25-0.225-0.348c-0.094-0.096-0.202-0.174-0.325-0.232s-0.252-0.088-0.387-0.088
		c-0.129,0-0.254,0.029-0.374,0.088s-0.227,0.137-0.32,0.232c-0.094,0.098-0.17,0.213-0.229,0.348s-0.088,0.275-0.088,0.422
		c0,0.158,0.027,0.303,0.084,0.436c0.055,0.131,0.13,0.244,0.224,0.338s0.202,0.166,0.325,0.215
		c0.123,0.051,0.249,0.075,0.378,0.075c0.141,0,0.272-0.024,0.396-0.075c0.123-0.049,0.231-0.121,0.325-0.215
		s0.167-0.207,0.22-0.338C4.511,120.443,4.537,120.299,4.537,120.141z"/>
	<path d="M13.37,119.104c0-0.082-0.012-0.155-0.035-0.22s-0.069-0.124-0.136-0.181c-0.068-0.055-0.158-0.106-0.273-0.153
		c-0.113-0.047-0.262-0.094-0.443-0.141l0.158-0.378c0.293,0.035,0.604,0.087,0.932,0.154s0.612,0.13,0.853,0.188
		c-0.018,0.053-0.032,0.122-0.044,0.206c-0.012,0.086-0.021,0.171-0.031,0.256c-0.008,0.085-0.015,0.159-0.018,0.224
		s-0.004,0.1-0.004,0.105v2.18c0.053-0.006,0.115-0.012,0.189-0.018c0.072-0.006,0.146-0.01,0.219-0.013s0.144-0.008,0.211-0.014
		s0.128-0.009,0.181-0.009v-2.522c0-0.17-0.069-0.311-0.206-0.422c-0.139-0.111-0.397-0.214-0.778-0.308l0.167-0.387
		c0.141,0.018,0.297,0.043,0.471,0.075c0.172,0.032,0.345,0.064,0.518,0.096c0.173,0.033,0.339,0.065,0.497,0.098
		s0.293,0.06,0.404,0.083c-0.012,0.053-0.022,0.123-0.03,0.211c-0.01,0.088-0.018,0.173-0.027,0.255
		c-0.008,0.082-0.016,0.157-0.021,0.225s-0.009,0.104-0.009,0.109v4.825c0,0.182-0.005,0.389-0.013,0.62
		c-0.01,0.231-0.021,0.465-0.035,0.703c-0.016,0.236-0.033,0.464-0.053,0.681c-0.021,0.217-0.04,0.398-0.058,0.545l-0.765,0.105
		c-0.006-0.111-0.014-0.248-0.021-0.409c-0.01-0.161-0.017-0.334-0.022-0.518c-0.006-0.186-0.011-0.371-0.013-0.559
		c-0.004-0.188-0.005-0.366-0.005-0.536v-2.408c-0.105,0.006-0.237,0.012-0.396,0.018s-0.293,0.012-0.404,0.018v1.424
		c0,0.182-0.004,0.39-0.014,0.624c-0.008,0.234-0.021,0.471-0.035,0.707c-0.015,0.238-0.032,0.465-0.053,0.682
		s-0.042,0.398-0.065,0.545l-0.747,0.097c0-0.111-0.003-0.248-0.009-0.409s-0.012-0.332-0.018-0.514s-0.011-0.366-0.013-0.554
		c-0.004-0.188-0.005-0.366-0.005-0.536v-1.099c-0.375,0.146-0.781,0.289-1.218,0.427s-0.889,0.25-1.357,0.338
		c-0.34,0.064-0.582,0.029-0.725-0.105c-0.145-0.135-0.216-0.343-0.216-0.624v-2.338c0-0.1-0.011-0.186-0.03-0.259
		c-0.021-0.073-0.06-0.14-0.115-0.198s-0.138-0.11-0.246-0.153c-0.108-0.045-0.25-0.09-0.426-0.137l0.202-0.378
		c0.334,0.053,0.674,0.083,1.02,0.093c0.346,0.008,0.686,0.004,1.02-0.014s0.653-0.045,0.958-0.084
		c0.305-0.037,0.586-0.083,0.844-0.136l-0.167,0.782c-0.404-0.023-0.773-0.032-1.107-0.026s-0.653,0.023-0.958,0.053v2.61
		c0,0.088,0.007,0.148,0.021,0.18c0.015,0.033,0.028,0.046,0.04,0.04c0.404-0.047,0.815-0.118,1.235-0.216
		c0.418-0.096,0.827-0.203,1.226-0.32V119.104z"/>
	<path d="M22.599,119.921c-0.129-0.006-0.292-0.008-0.488-0.005s-0.408,0.006-0.637,0.009s-0.465,0.008-0.707,0.014
		c-0.244,0.006-0.477,0.013-0.699,0.022c-0.223,0.008-0.43,0.016-0.619,0.021c-0.191,0.006-0.348,0.012-0.471,0.018
		c-0.076,0-0.175,0.006-0.295,0.018s-0.243,0.023-0.369,0.035s-0.247,0.025-0.364,0.039c-0.117,0.016-0.211,0.028-0.281,0.04
		l-0.378-0.853c0.07,0.018,0.168,0.037,0.295,0.057c0.125,0.021,0.257,0.04,0.395,0.058s0.271,0.032,0.4,0.044
		c0.129,0.013,0.231,0.019,0.308,0.019c0.193-0.006,0.455-0.014,0.786-0.022s0.688-0.025,1.068-0.049s0.765-0.053,1.151-0.088
		s0.732-0.079,1.037-0.132L22.599,119.921z M22.001,121.714c0,0.193-0.049,0.38-0.145,0.558c-0.098,0.18-0.23,0.338-0.4,0.475
		c-0.17,0.139-0.372,0.246-0.606,0.326c-0.234,0.078-0.486,0.118-0.756,0.118s-0.521-0.041-0.751-0.123
		c-0.232-0.082-0.433-0.19-0.603-0.325s-0.304-0.291-0.399-0.471c-0.098-0.178-0.146-0.364-0.146-0.558
		c0-0.211,0.05-0.407,0.149-0.589s0.234-0.337,0.404-0.466s0.37-0.229,0.602-0.304c0.231-0.072,0.479-0.109,0.743-0.109
		c0.281,0,0.539,0.039,0.773,0.119c0.234,0.078,0.435,0.188,0.603,0.324c0.166,0.139,0.297,0.295,0.391,0.471
		S22.001,121.521,22.001,121.714z M21.298,118.919c-0.094,0-0.201,0-0.32,0c-0.121,0-0.244,0.001-0.369,0.004
		c-0.127,0.003-0.246,0.006-0.361,0.009c-0.113,0.004-0.209,0.005-0.285,0.005c-0.041,0-0.103,0.003-0.185,0.009
		s-0.173,0.014-0.272,0.021c-0.1,0.01-0.199,0.018-0.299,0.027c-0.1,0.008-0.188,0.019-0.264,0.03l-0.431-0.765
		c0.07,0.018,0.167,0.035,0.29,0.053s0.25,0.034,0.383,0.049c0.131,0.015,0.257,0.025,0.377,0.035
		c0.12,0.008,0.213,0.013,0.277,0.013c0.07,0,0.172-0.005,0.303-0.013c0.133-0.01,0.274-0.021,0.427-0.035s0.308-0.031,0.466-0.049
		s0.302-0.035,0.431-0.053L21.298,118.919z M24.532,125.862c-0.363-0.012-0.732-0.018-1.107-0.018s-0.741,0.005-1.099,0.013
		c-0.357,0.01-0.698,0.021-1.024,0.035c-0.324,0.015-0.616,0.028-0.874,0.04c-0.229,0.012-0.397-0.035-0.505-0.14
		c-0.109-0.105-0.163-0.226-0.163-0.359v-0.918c0-0.122-0.006-0.22-0.018-0.293s-0.043-0.135-0.093-0.187s-0.124-0.096-0.224-0.132
		s-0.24-0.078-0.422-0.125l0.193-0.404c0.082,0.018,0.196,0.037,0.343,0.057c0.146,0.021,0.3,0.042,0.461,0.062
		s0.316,0.041,0.467,0.061c0.148,0.021,0.271,0.04,0.364,0.058c-0.006,0.035-0.012,0.082-0.018,0.141s-0.012,0.122-0.018,0.188
		c-0.006,0.068-0.012,0.136-0.018,0.203s-0.009,0.127-0.009,0.18v0.826c0,0.1,0.009,0.158,0.026,0.176s0.076,0.029,0.176,0.035
		c0.217,0,0.484-0.008,0.804-0.021c0.319-0.016,0.65-0.037,0.994-0.066c0.342-0.029,0.681-0.061,1.015-0.092
		c0.334-0.032,0.624-0.066,0.87-0.102L24.532,125.862z M19.232,121.679c0,0.135,0.023,0.259,0.07,0.374
		c0.047,0.113,0.11,0.214,0.188,0.299c0.08,0.085,0.172,0.152,0.277,0.201c0.105,0.051,0.217,0.075,0.334,0.075
		c0.111,0,0.218-0.023,0.32-0.07s0.195-0.112,0.277-0.198c0.082-0.084,0.147-0.184,0.197-0.299c0.05-0.113,0.075-0.241,0.075-0.382
		c0-0.123-0.023-0.243-0.07-0.36s-0.111-0.22-0.193-0.308s-0.176-0.158-0.281-0.211s-0.214-0.079-0.325-0.079
		c-0.117,0-0.229,0.023-0.334,0.07s-0.197,0.113-0.277,0.197c-0.078,0.086-0.142,0.187-0.188,0.304S19.232,121.538,19.232,121.679z
		 M23.987,122.329c0,0.129-0.004,0.272-0.014,0.431c-0.008,0.158-0.019,0.316-0.03,0.475s-0.025,0.31-0.04,0.453
		s-0.03,0.262-0.048,0.355l-0.791,0.123c-0.006-0.07-0.013-0.168-0.022-0.295c-0.008-0.125-0.016-0.264-0.021-0.412
		c-0.006-0.15-0.012-0.299-0.018-0.449c-0.006-0.148-0.009-0.279-0.009-0.391v-3.85c0-0.17-0.082-0.309-0.246-0.418
		c-0.164-0.107-0.439-0.212-0.826-0.312l0.176-0.387c0.141,0.018,0.305,0.041,0.492,0.07s0.375,0.062,0.562,0.097
		s0.364,0.067,0.532,0.097c0.166,0.029,0.306,0.053,0.417,0.07c-0.018,0.053-0.032,0.123-0.044,0.211s-0.023,0.176-0.035,0.264
		s-0.021,0.166-0.026,0.233s-0.009,0.104-0.009,0.109v2.153c0.129-0.012,0.27-0.024,0.422-0.04c0.152-0.014,0.305-0.031,0.457-0.053
		c0.152-0.02,0.3-0.042,0.443-0.065s0.269-0.047,0.374-0.07l-0.07,0.8c-0.088,0-0.198,0-0.329,0c-0.133,0-0.273,0-0.422,0
		c-0.15,0-0.301,0-0.453,0s-0.293,0-0.422,0V122.329z"/>
	<path d="M33.321,124.148c0,0.158-0.004,0.327-0.014,0.506c-0.008,0.179-0.019,0.355-0.03,0.531s-0.028,0.346-0.048,0.51
		c-0.021,0.164-0.04,0.308-0.058,0.431l-0.791,0.132c-0.012-0.1-0.021-0.226-0.026-0.378s-0.011-0.313-0.014-0.483
		s-0.004-0.338-0.004-0.506c0-0.166,0-0.314,0-0.443v-1.775c-0.223,0-0.439,0.003-0.65,0.009s-0.407,0.012-0.589,0.018
		s-0.345,0.013-0.487,0.022c-0.145,0.008-0.26,0.016-0.348,0.021c-0.111,0.012-0.231,0.023-0.36,0.035s-0.257,0.025-0.382,0.039
		c-0.127,0.016-0.251,0.028-0.374,0.04s-0.234,0.023-0.334,0.035l-0.352-0.861c0.129,0.018,0.271,0.034,0.427,0.048
		c0.154,0.016,0.312,0.028,0.475,0.04c0.16,0.012,0.318,0.022,0.475,0.03c0.154,0.009,0.294,0.017,0.417,0.022
		c0.141,0.005,0.322,0.008,0.545,0.008s0.466-0.001,0.729-0.004s0.537-0.009,0.822-0.018c0.283-0.009,0.558-0.016,0.821-0.021
		s0.505-0.013,0.726-0.022c0.219-0.008,0.399-0.016,0.54-0.021c0.193-0.006,0.396-0.018,0.606-0.035s0.42-0.036,0.629-0.057
		c0.207-0.021,0.408-0.043,0.602-0.066s0.369-0.047,0.527-0.07l-0.123,0.826c-0.117-0.006-0.257-0.012-0.418-0.018
		s-0.335-0.012-0.522-0.018s-0.381-0.012-0.58-0.018s-0.396-0.009-0.589-0.009c-0.152,0-0.333,0-0.541,0s-0.443,0.009-0.707,0.026
		V124.148z M32.961,119.2c0.498,0.258,1.028,0.5,1.591,0.726s1.104,0.423,1.626,0.593l-0.703,0.721
		c-0.193-0.111-0.409-0.235-0.646-0.374c-0.238-0.137-0.484-0.279-0.738-0.426c-0.256-0.146-0.512-0.291-0.77-0.436
		c-0.258-0.143-0.504-0.279-0.738-0.408c-0.457,0.451-0.967,0.838-1.529,1.16s-1.14,0.595-1.731,0.817l-0.264-0.369
		c0.732-0.322,1.38-0.708,1.942-1.155c0.562-0.449,0.996-0.916,1.301-1.402c0.029-0.053,0.041-0.102,0.035-0.145
		c-0.006-0.045-0.018-0.075-0.035-0.093c-0.029-0.018-0.07-0.044-0.123-0.079s-0.109-0.068-0.172-0.102
		c-0.061-0.031-0.118-0.061-0.171-0.088c-0.053-0.025-0.091-0.042-0.114-0.048l0.281-0.316c0.111,0.035,0.24,0.073,0.387,0.114
		s0.296,0.084,0.448,0.127c0.152,0.045,0.302,0.088,0.448,0.133c0.146,0.043,0.272,0.086,0.378,0.127
		c-0.1,0.164-0.208,0.324-0.325,0.479C33.222,118.912,33.096,119.06,32.961,119.2z"/>
	<path d="M40.687,120.325l0.07-1.134c-0.07-0.006-0.158-0.007-0.264-0.004s-0.216,0.008-0.329,0.018
		c-0.115,0.008-0.233,0.018-0.356,0.025c-0.123,0.01-0.237,0.017-0.343,0.022c-0.064,0.006-0.148,0.013-0.25,0.022
		c-0.104,0.008-0.216,0.019-0.339,0.03s-0.251,0.028-0.382,0.048c-0.133,0.021-0.263,0.043-0.392,0.066l-0.483-0.826
		c0.105,0.018,0.226,0.037,0.36,0.057c0.135,0.021,0.269,0.039,0.399,0.053c0.133,0.016,0.261,0.027,0.387,0.035
		c0.126,0.01,0.233,0.014,0.321,0.014c0.152,0,0.337-0.001,0.554-0.004s0.451-0.011,0.703-0.022s0.513-0.024,0.782-0.04
		c0.27-0.014,0.533-0.036,0.791-0.065c-0.012,0.053-0.025,0.113-0.04,0.181s-0.029,0.135-0.043,0.201
		c-0.016,0.068-0.027,0.13-0.035,0.186c-0.01,0.056-0.017,0.098-0.022,0.127l-0.009,0.044c0.17,0.023,0.319,0.038,0.448,0.044
		s0.246,0.006,0.352,0s0.218-0.01,0.339-0.014c0.119-0.002,0.218-0.007,0.294-0.013v-0.571c0-0.17-0.081-0.306-0.241-0.408
		c-0.162-0.103-0.444-0.204-0.849-0.304l0.158-0.431c0.17,0.018,0.349,0.041,0.536,0.07s0.372,0.061,0.554,0.092
		c0.182,0.033,0.354,0.066,0.519,0.102s0.311,0.064,0.439,0.088c-0.012,0.064-0.025,0.137-0.039,0.215
		c-0.016,0.08-0.028,0.157-0.04,0.233s-0.021,0.146-0.026,0.206c-0.006,0.062-0.009,0.107-0.009,0.137v2.733
		c0,0.1-0.005,0.219-0.013,0.356c-0.01,0.138-0.021,0.278-0.035,0.422c-0.016,0.144-0.031,0.279-0.049,0.408
		s-0.035,0.231-0.053,0.308l-0.773,0.123c-0.012-0.076-0.021-0.165-0.031-0.269c-0.008-0.102-0.018-0.206-0.025-0.312
		c-0.01-0.105-0.016-0.206-0.018-0.304c-0.004-0.096-0.005-0.183-0.005-0.259v-0.633c-0.193,0.012-0.409,0.03-0.646,0.058
		c-0.238,0.025-0.474,0.062-0.708,0.109l-0.352-0.659c-0.316-0.018-0.588-0.027-0.813-0.03s-0.425-0.002-0.598,0.004
		s-0.323,0.015-0.452,0.026s-0.255,0.021-0.378,0.026c0,0.029-0.003,0.063-0.009,0.102s-0.009,0.08-0.009,0.127v0.826
		c0,0.088,0.012,0.148,0.035,0.18c0.023,0.033,0.053,0.046,0.088,0.04c0.457-0.035,0.933-0.093,1.428-0.171
		c0.495-0.08,1.036-0.204,1.622-0.374v0.466c-0.533,0.17-1.058,0.316-1.573,0.439s-1.049,0.226-1.6,0.308
		c-0.363,0.053-0.619,0.009-0.77-0.132c-0.148-0.141-0.224-0.352-0.224-0.633v-0.8c0-0.105-0.006-0.19-0.018-0.255
		s-0.04-0.12-0.083-0.167c-0.045-0.047-0.109-0.088-0.193-0.123c-0.086-0.035-0.201-0.076-0.348-0.123l0.185-0.343
		c0.615,0.07,1.155,0.103,1.622,0.097C39.873,120.372,40.3,120.354,40.687,120.325z M40.142,124.623
		c0-0.193,0.041-0.376,0.123-0.549s0.193-0.327,0.334-0.462s0.308-0.246,0.501-0.334s0.404-0.146,0.633-0.176
		c-0.012-0.029-0.043-0.056-0.092-0.079c-0.051-0.023-0.146-0.053-0.286-0.088l0.193-0.36c0.188,0.035,0.385,0.075,0.593,0.118
		c0.208,0.045,0.406,0.084,0.594,0.119c-0.064,0.1-0.105,0.199-0.123,0.299c0.217,0.035,0.42,0.099,0.611,0.189
		c0.189,0.091,0.353,0.201,0.487,0.334c0.135,0.131,0.241,0.282,0.321,0.452c0.078,0.17,0.118,0.349,0.118,0.536
		c0,0.211-0.052,0.41-0.153,0.598c-0.104,0.188-0.244,0.352-0.422,0.492c-0.18,0.141-0.392,0.25-0.638,0.33
		c-0.246,0.078-0.51,0.118-0.791,0.118c-0.293,0-0.562-0.04-0.804-0.118c-0.244-0.08-0.455-0.189-0.633-0.33
		c-0.18-0.141-0.318-0.305-0.418-0.492S40.142,124.834,40.142,124.623z M43.112,124.579c0-0.146-0.026-0.281-0.079-0.404
		s-0.125-0.229-0.215-0.316c-0.092-0.088-0.195-0.156-0.312-0.206s-0.24-0.075-0.369-0.075c-0.135,0-0.261,0.025-0.378,0.075
		s-0.22,0.118-0.308,0.206s-0.158,0.193-0.211,0.316s-0.079,0.258-0.079,0.404c0,0.152,0.026,0.29,0.079,0.413
		s0.123,0.229,0.211,0.316s0.19,0.155,0.308,0.202s0.243,0.07,0.378,0.07c0.129,0,0.253-0.023,0.373-0.07s0.225-0.114,0.312-0.202
		s0.158-0.193,0.211-0.316S43.112,124.731,43.112,124.579z M43.2,119.938c-0.193,0.018-0.409,0.038-0.646,0.062
		c-0.238,0.024-0.474,0.06-0.708,0.106l-0.158-0.291l-0.07,0.425c-0.035,0.006-0.038,0.007-0.009,0.004s0.085-0.01,0.167-0.021
		l-0.07,0.585c0.182,0.03,0.341,0.05,0.479,0.058c0.137,0.01,0.265,0.011,0.382,0.005c0.105-0.012,0.218-0.02,0.339-0.022
		c0.119-0.003,0.218-0.007,0.294-0.013V119.938z"/>
	<path d="M51.655,118.77c0-0.17-0.085-0.309-0.255-0.418c-0.17-0.107-0.451-0.212-0.844-0.312l0.185-0.387
		c0.141,0.018,0.303,0.041,0.488,0.07c0.184,0.029,0.369,0.062,0.553,0.097c0.186,0.035,0.362,0.067,0.532,0.097
		s0.313,0.053,0.431,0.07c-0.012,0.053-0.023,0.123-0.035,0.211s-0.021,0.176-0.031,0.264c-0.008,0.088-0.016,0.166-0.021,0.233
		s-0.009,0.104-0.009,0.109v2.259c0,0.105-0.006,0.228-0.018,0.364c-0.012,0.139-0.025,0.276-0.04,0.414s-0.03,0.268-0.048,0.391
		s-0.032,0.22-0.044,0.29l-0.765,0.105c-0.012-0.059-0.022-0.133-0.03-0.224c-0.01-0.091-0.017-0.188-0.022-0.291
		c-0.006-0.102-0.012-0.204-0.018-0.307s-0.009-0.195-0.009-0.277v-0.325c-0.275,0.1-0.58,0.201-0.914,0.304s-0.674,0.2-1.02,0.294
		s-0.683,0.178-1.011,0.251s-0.624,0.127-0.888,0.162c-0.316,0.047-0.553,0.006-0.707-0.123c-0.156-0.129-0.233-0.34-0.233-0.633
		v-1.758c0-0.082-0.009-0.152-0.026-0.211s-0.056-0.109-0.114-0.154c-0.059-0.043-0.146-0.083-0.264-0.118s-0.275-0.07-0.475-0.105
		l0.149-0.369c0.141,0.006,0.296,0.017,0.466,0.03c0.17,0.016,0.337,0.031,0.501,0.049s0.32,0.035,0.471,0.053
		c0.148,0.018,0.276,0.035,0.382,0.053c-0.012,0.053-0.023,0.123-0.035,0.211s-0.022,0.176-0.03,0.264
		c-0.01,0.088-0.017,0.164-0.022,0.229s-0.009,0.103-0.009,0.114v1.538c0,0.088,0.007,0.148,0.021,0.18
		c0.015,0.033,0.046,0.046,0.093,0.04c0.193-0.006,0.44-0.033,0.743-0.083c0.301-0.05,0.622-0.11,0.962-0.181
		s0.681-0.146,1.024-0.229c0.342-0.082,0.654-0.164,0.936-0.246V118.77z M52.411,125.089c0.064-0.012,0.124-0.019,0.18-0.022
		c0.056-0.002,0.107-0.007,0.154-0.013l-0.176,0.747c-0.193-0.018-0.428-0.029-0.703-0.035s-0.562-0.011-0.861-0.014
		s-0.598-0.001-0.896,0.005s-0.574,0.015-0.826,0.026c-0.012,0.035-0.021,0.077-0.031,0.127c-0.008,0.05-0.019,0.107-0.03,0.172
		l-0.703,0.123c-0.012-0.059-0.025-0.129-0.04-0.211s-0.027-0.167-0.039-0.255s-0.021-0.176-0.031-0.264
		c-0.008-0.088-0.016-0.17-0.021-0.246l-0.105-1.494c-0.012-0.105-0.025-0.19-0.039-0.255c-0.016-0.064-0.043-0.115-0.084-0.154
		c-0.041-0.037-0.102-0.07-0.18-0.096c-0.08-0.027-0.187-0.058-0.321-0.093l0.167-0.387c0.791,0.094,1.6,0.131,2.426,0.11
		s1.626-0.063,2.399-0.128c-0.018,0.141-0.037,0.31-0.058,0.505c-0.021,0.197-0.041,0.402-0.061,0.615
		c-0.021,0.215-0.042,0.43-0.062,0.646S52.429,124.913,52.411,125.089z M51.55,123.375c-0.176-0.006-0.365-0.01-0.566-0.014
		c-0.203-0.002-0.403-0.001-0.603,0.005s-0.395,0.014-0.585,0.022s-0.364,0.019-0.522,0.03l0.035,1.652v0.149
		c0.334-0.006,0.694-0.017,1.081-0.031s0.762-0.027,1.125-0.039L51.55,123.375z"/>
	<path d="M62.527,121.441l-0.132,0.817c-0.117-0.006-0.258-0.013-0.422-0.022c-0.164-0.008-0.34-0.016-0.527-0.021
		s-0.381-0.01-0.58-0.014c-0.199-0.002-0.393-0.004-0.58-0.004c-0.164,0-0.371,0.003-0.62,0.009s-0.518,0.012-0.809,0.018
		c-0.289,0.006-0.587,0.013-0.892,0.022c-0.305,0.008-0.595,0.018-0.87,0.025c-0.275,0.01-0.523,0.018-0.742,0.027
		c-0.221,0.008-0.389,0.016-0.506,0.021c-0.1,0.006-0.213,0.017-0.338,0.031c-0.127,0.015-0.256,0.027-0.387,0.039
		c-0.133,0.012-0.262,0.025-0.387,0.039c-0.127,0.016-0.236,0.025-0.33,0.031c-0.059-0.146-0.119-0.291-0.18-0.436
		c-0.062-0.143-0.119-0.288-0.172-0.435c0.404,0.047,0.815,0.082,1.234,0.105s0.799,0.035,1.139,0.035
		c0.721,0,1.371-0.009,1.951-0.026s1.113-0.039,1.6-0.066c0.486-0.025,0.936-0.057,1.35-0.092
		C61.74,121.512,62.141,121.477,62.527,121.441z M59.776,124.087c0.006-0.129,0.01-0.253,0.013-0.374
		c0.003-0.119,0.008-0.241,0.014-0.364c-0.053,0-0.111-0.001-0.176-0.005c-0.064-0.002-0.132-0.004-0.202-0.004
		c-0.152,0-0.319,0.003-0.501,0.009s-0.363,0.013-0.545,0.022c-0.182,0.008-0.357,0.018-0.527,0.025
		c-0.17,0.01-0.316,0.017-0.439,0.022c-0.059,0.006-0.141,0.013-0.246,0.022c-0.105,0.008-0.222,0.021-0.348,0.035
		s-0.254,0.03-0.387,0.048c-0.131,0.018-0.25,0.038-0.355,0.062c-0.076-0.135-0.154-0.271-0.232-0.408
		c-0.08-0.138-0.157-0.274-0.233-0.409c0.1,0.023,0.235,0.044,0.409,0.062c0.172,0.018,0.347,0.034,0.522,0.049
		s0.339,0.024,0.487,0.03c0.15,0.006,0.251,0.009,0.304,0.009c0.24,0,0.519-0.001,0.835-0.004s0.64-0.01,0.971-0.018
		c0.331-0.01,0.656-0.022,0.977-0.04c0.318-0.018,0.602-0.041,0.848-0.07c-0.018,0.047-0.037,0.12-0.057,0.22
		c-0.021,0.1-0.04,0.21-0.058,0.33s-0.037,0.24-0.058,0.359c-0.021,0.121-0.039,0.225-0.057,0.312
		c0.047-0.006,0.085-0.009,0.114-0.009s0.059-0.003,0.088-0.009c-0.012,0.111-0.025,0.222-0.04,0.33s-0.027,0.215-0.039,0.32
		c-0.217-0.012-0.445-0.021-0.686-0.026s-0.483-0.009-0.729-0.009c-0.24,0-0.475,0.002-0.703,0.004
		c-0.229,0.004-0.442,0.008-0.642,0.014s-0.38,0.012-0.541,0.018s-0.288,0.012-0.382,0.018c-0.006,0.047-0.008,0.09-0.005,0.127
		c0.003,0.039,0.005,0.078,0.005,0.119v0.378c0,0.053,0.023,0.089,0.07,0.11c0.047,0.02,0.144,0.03,0.29,0.03
		c0.24,0,0.533-0.008,0.879-0.022s0.699-0.035,1.059-0.061c0.361-0.027,0.709-0.057,1.047-0.088
		c0.336-0.033,0.616-0.066,0.839-0.102c-0.029,0.135-0.059,0.268-0.088,0.4c-0.029,0.131-0.059,0.265-0.088,0.399
		c-0.205-0.006-0.425-0.011-0.659-0.013c-0.234-0.004-0.483-0.005-0.747-0.005c-0.281,0-0.564,0.003-0.849,0.009
		s-0.561,0.012-0.83,0.018s-0.521,0.012-0.752,0.018s-0.435,0.009-0.61,0.009c-0.217,0-0.363-0.052-0.439-0.153
		c-0.076-0.104-0.114-0.23-0.114-0.383v-0.431c0-0.1-0.008-0.182-0.021-0.246c-0.016-0.064-0.046-0.118-0.093-0.163
		c-0.047-0.043-0.113-0.083-0.198-0.118s-0.2-0.076-0.347-0.123c0.029-0.053,0.059-0.106,0.088-0.163
		c0.029-0.055,0.062-0.109,0.097-0.162c0.287,0.029,0.599,0.05,0.936,0.062s0.69,0.018,1.06,0.018s0.728-0.003,1.077-0.009
		C59.127,124.107,59.46,124.099,59.776,124.087z M58.889,118.189c0.234,0.041,0.451,0.108,0.65,0.202s0.369,0.208,0.51,0.343
		s0.25,0.285,0.33,0.453c0.078,0.166,0.118,0.341,0.118,0.522c0,0.223-0.055,0.43-0.163,0.62s-0.258,0.354-0.447,0.492
		c-0.191,0.138-0.417,0.246-0.678,0.324c-0.261,0.08-0.543,0.119-0.848,0.119c-0.311,0-0.595-0.039-0.853-0.119
		c-0.258-0.078-0.482-0.187-0.673-0.324s-0.338-0.302-0.443-0.492s-0.158-0.397-0.158-0.62c0-0.193,0.044-0.378,0.132-0.554
		s0.209-0.331,0.364-0.466s0.342-0.247,0.559-0.339c0.217-0.09,0.457-0.15,0.721-0.18c-0.006-0.064-0.035-0.117-0.088-0.158
		s-0.144-0.082-0.272-0.123c0.029-0.047,0.059-0.095,0.088-0.145s0.059-0.099,0.088-0.146c0.064,0.012,0.147,0.028,0.251,0.048
		c0.102,0.021,0.209,0.042,0.32,0.062s0.221,0.042,0.33,0.065c0.107,0.023,0.2,0.044,0.276,0.062
		c-0.018,0.029-0.037,0.079-0.058,0.149S58.906,118.125,58.889,118.189z M59.478,119.675c0-0.146-0.03-0.284-0.093-0.413
		c-0.061-0.129-0.145-0.24-0.25-0.334s-0.225-0.168-0.355-0.225c-0.133-0.055-0.269-0.083-0.409-0.083
		c-0.146,0-0.286,0.028-0.417,0.083c-0.133,0.057-0.25,0.131-0.352,0.225c-0.104,0.094-0.184,0.205-0.242,0.334
		s-0.088,0.267-0.088,0.413c0,0.152,0.029,0.292,0.088,0.417c0.059,0.127,0.138,0.235,0.237,0.326s0.216,0.161,0.347,0.211
		c0.133,0.05,0.274,0.074,0.427,0.074c0.146,0,0.287-0.024,0.422-0.074s0.252-0.12,0.352-0.211s0.181-0.199,0.241-0.326
		C59.447,119.967,59.478,119.827,59.478,119.675z"/>
	<path d="M69.409,123.929c0,0.152-0.003,0.318-0.009,0.497s-0.014,0.355-0.021,0.531c-0.01,0.176-0.024,0.346-0.045,0.51
		s-0.042,0.308-0.065,0.431l-0.773,0.123c-0.012-0.1-0.022-0.226-0.03-0.378c-0.01-0.152-0.017-0.312-0.022-0.479
		c-0.006-0.168-0.011-0.334-0.013-0.502c-0.004-0.166-0.005-0.314-0.005-0.443v-1.257c-0.152,0.006-0.301,0.017-0.444,0.03
		c-0.144,0.016-0.282,0.031-0.417,0.049c-0.064,0.006-0.155,0.015-0.272,0.026s-0.245,0.026-0.383,0.044s-0.275,0.037-0.412,0.057
		c-0.139,0.021-0.257,0.04-0.356,0.058l-0.492-0.914c0.088,0.018,0.199,0.034,0.334,0.048c0.135,0.016,0.273,0.028,0.417,0.04
		s0.284,0.021,0.422,0.026s0.257,0.009,0.356,0.009c0.381-0.006,0.776-0.023,1.187-0.053s0.815-0.067,1.217-0.114
		s0.793-0.102,1.174-0.162c0.381-0.062,0.735-0.128,1.063-0.198v-3.138c0-0.17-0.085-0.309-0.255-0.418
		c-0.17-0.107-0.451-0.212-0.844-0.312l0.185-0.387c0.141,0.018,0.304,0.041,0.487,0.07c0.186,0.029,0.369,0.062,0.555,0.097
		c0.184,0.035,0.361,0.067,0.531,0.097s0.311,0.053,0.422,0.07c-0.012,0.053-0.021,0.123-0.031,0.211
		c-0.008,0.088-0.018,0.176-0.025,0.264c-0.01,0.088-0.017,0.166-0.022,0.233s-0.009,0.104-0.009,0.109v4.825
		c0,0.182-0.004,0.392-0.014,0.628c-0.008,0.238-0.021,0.477-0.035,0.717s-0.032,0.469-0.053,0.686s-0.039,0.39-0.057,0.519
		l-0.773,0.105c-0.006-0.094-0.012-0.222-0.018-0.382c-0.006-0.162-0.012-0.336-0.018-0.523s-0.012-0.378-0.018-0.571
		s-0.009-0.375-0.009-0.545v-1.872c-0.375,0.088-0.769,0.17-1.183,0.246c-0.412,0.076-0.821,0.146-1.226,0.211V123.929z
		 M69.251,118.603c0.234,0.041,0.448,0.111,0.642,0.211s0.358,0.219,0.496,0.356s0.245,0.291,0.321,0.461s0.114,0.346,0.114,0.527
		c0,0.234-0.053,0.45-0.158,0.646s-0.25,0.366-0.436,0.51c-0.184,0.144-0.402,0.256-0.654,0.338s-0.524,0.123-0.817,0.123
		c-0.299,0-0.573-0.041-0.821-0.123c-0.25-0.082-0.465-0.194-0.646-0.338s-0.322-0.313-0.422-0.51s-0.149-0.412-0.149-0.646
		c0-0.193,0.041-0.378,0.123-0.554s0.198-0.334,0.347-0.475c0.15-0.141,0.328-0.256,0.537-0.347
		c0.207-0.091,0.438-0.151,0.689-0.181c-0.012-0.082-0.044-0.142-0.097-0.181c-0.053-0.037-0.129-0.071-0.229-0.101l0.158-0.325
		c0.059,0.012,0.138,0.026,0.237,0.044s0.205,0.037,0.316,0.058s0.22,0.041,0.325,0.061c0.105,0.021,0.193,0.04,0.264,0.058
		c-0.029,0.082-0.058,0.153-0.083,0.216C69.281,118.492,69.263,118.55,69.251,118.603z M69.796,120.141
		c0-0.146-0.028-0.287-0.083-0.422c-0.057-0.135-0.131-0.25-0.225-0.348c-0.094-0.096-0.202-0.174-0.325-0.232
		s-0.252-0.088-0.387-0.088c-0.129,0-0.254,0.029-0.374,0.088s-0.227,0.137-0.32,0.232c-0.094,0.098-0.17,0.213-0.229,0.348
		s-0.088,0.275-0.088,0.422c0,0.158,0.027,0.303,0.084,0.436c0.055,0.131,0.13,0.244,0.224,0.338s0.202,0.166,0.325,0.215
		c0.123,0.051,0.249,0.075,0.378,0.075c0.141,0,0.272-0.024,0.396-0.075c0.123-0.049,0.231-0.121,0.325-0.215
		s0.167-0.207,0.22-0.338C69.77,120.443,69.796,120.299,69.796,120.141z"/>
	<path d="M78.734,120.483c-0.188,0-0.415,0.003-0.681,0.009c-0.268,0.006-0.538,0.014-0.813,0.021
		c-0.275,0.01-0.542,0.021-0.8,0.035c-0.258,0.016-0.475,0.025-0.65,0.031c-0.07,0.006-0.162,0.014-0.277,0.021
		c-0.113,0.01-0.232,0.02-0.355,0.031s-0.242,0.023-0.355,0.035c-0.115,0.012-0.207,0.021-0.277,0.026l-0.369-0.844
		c0.07,0.018,0.167,0.035,0.29,0.053s0.253,0.034,0.392,0.048c0.137,0.016,0.268,0.028,0.391,0.04s0.22,0.018,0.29,0.018
		c0.188,0,0.413-0.005,0.677-0.013c0.264-0.01,0.543-0.025,0.84-0.049c0.295-0.023,0.6-0.053,0.914-0.088
		c0.312-0.035,0.613-0.079,0.9-0.132L78.734,120.483z M78.69,122.408c0,0.211-0.049,0.408-0.145,0.594
		c-0.098,0.184-0.229,0.346-0.396,0.482c-0.166,0.139-0.366,0.248-0.598,0.33s-0.481,0.123-0.751,0.123
		c-0.264,0-0.512-0.041-0.743-0.123s-0.43-0.193-0.598-0.334c-0.166-0.141-0.299-0.303-0.395-0.488
		c-0.098-0.184-0.146-0.379-0.146-0.584c0-0.223,0.048-0.426,0.146-0.611c0.096-0.184,0.229-0.344,0.395-0.479
		c0.168-0.135,0.366-0.24,0.598-0.316s0.479-0.114,0.743-0.114c0.281,0,0.539,0.041,0.773,0.123s0.434,0.193,0.598,0.334
		s0.291,0.304,0.382,0.487C78.645,122.018,78.69,122.209,78.69,122.408z M77.838,119.394c-0.199-0.006-0.417-0.003-0.655,0.009
		c-0.236,0.012-0.435,0.018-0.593,0.018c-0.041,0-0.1,0.003-0.176,0.009s-0.161,0.013-0.255,0.022
		c-0.094,0.008-0.188,0.019-0.281,0.03s-0.176,0.023-0.246,0.035l-0.448-0.773c0.07,0.018,0.165,0.034,0.286,0.048
		c0.119,0.016,0.244,0.028,0.373,0.04s0.252,0.022,0.369,0.03c0.117,0.01,0.205,0.014,0.264,0.014c0.07,0,0.165-0.004,0.285-0.014
		c0.12-0.008,0.249-0.019,0.387-0.03s0.278-0.024,0.422-0.04c0.144-0.014,0.277-0.03,0.4-0.048L77.838,119.394z M75.948,122.373
		c0,0.293,0.084,0.536,0.25,0.729c0.168,0.193,0.371,0.29,0.611,0.29c0.105,0,0.208-0.024,0.308-0.074s0.188-0.12,0.269-0.211
		c0.078-0.091,0.143-0.198,0.193-0.321c0.049-0.123,0.074-0.261,0.074-0.413c0-0.129-0.021-0.253-0.066-0.373
		c-0.043-0.12-0.105-0.228-0.184-0.321c-0.08-0.094-0.171-0.167-0.273-0.22s-0.209-0.079-0.32-0.079
		c-0.234,0-0.437,0.091-0.606,0.272S75.948,122.074,75.948,122.373z M79.903,121.731c0.105-0.012,0.22-0.021,0.343-0.026
		s0.231-0.012,0.325-0.018v-2.918c0-0.088-0.014-0.165-0.039-0.232c-0.027-0.067-0.075-0.131-0.146-0.189s-0.169-0.112-0.294-0.162
		c-0.127-0.05-0.289-0.099-0.488-0.146l0.176-0.387c0.146,0.018,0.308,0.043,0.483,0.075s0.35,0.064,0.522,0.096
		c0.173,0.033,0.337,0.065,0.492,0.098s0.286,0.06,0.392,0.083c-0.012,0.053-0.023,0.123-0.035,0.211s-0.022,0.173-0.03,0.255
		c-0.01,0.082-0.017,0.157-0.022,0.225s-0.009,0.104-0.009,0.109v4.825c0,0.182-0.004,0.389-0.014,0.62
		c-0.008,0.231-0.021,0.465-0.035,0.703c-0.015,0.236-0.03,0.464-0.048,0.681s-0.035,0.398-0.053,0.545l-0.747,0.105
		c-0.012-0.105-0.023-0.239-0.035-0.399c-0.012-0.162-0.023-0.334-0.035-0.52c-0.012-0.184-0.021-0.371-0.026-0.562
		c-0.006-0.189-0.009-0.37-0.009-0.54v-1.995c-0.088,0.012-0.196,0.018-0.325,0.018s-0.243,0.006-0.343,0.018v1.011
		c0,0.182-0.003,0.39-0.009,0.624s-0.017,0.471-0.03,0.707c-0.016,0.238-0.031,0.465-0.049,0.682s-0.038,0.398-0.062,0.545
		l-0.721,0.097c-0.012-0.1-0.022-0.23-0.03-0.392c-0.01-0.161-0.018-0.334-0.027-0.518c-0.008-0.186-0.016-0.374-0.021-0.567
		s-0.009-0.372-0.009-0.536v-4.852c0-0.164-0.061-0.299-0.181-0.404s-0.355-0.202-0.707-0.29l0.185-0.378
		c0.135,0.018,0.282,0.039,0.444,0.066c0.16,0.025,0.32,0.056,0.479,0.088s0.312,0.064,0.461,0.096
		c0.15,0.033,0.277,0.063,0.383,0.093c-0.012,0.053-0.023,0.122-0.035,0.206c-0.012,0.086-0.023,0.171-0.035,0.256
		s-0.021,0.159-0.026,0.224s-0.009,0.1-0.009,0.105V121.731z"/>
	<path d="M83.498,124.28c0.193,0,0.357,0.065,0.492,0.198c0.135,0.131,0.202,0.279,0.202,0.443c0,0.17-0.067,0.32-0.202,0.453
		c-0.135,0.131-0.299,0.197-0.492,0.197c-0.094,0-0.184-0.018-0.268-0.053c-0.086-0.035-0.158-0.084-0.221-0.145
		c-0.061-0.062-0.111-0.131-0.148-0.207c-0.039-0.076-0.058-0.158-0.058-0.246c0-0.082,0.019-0.161,0.058-0.237
		c0.037-0.076,0.088-0.146,0.148-0.206c0.062-0.062,0.135-0.11,0.221-0.146C83.314,124.298,83.404,124.28,83.498,124.28z"/>
</g>
</svg>