<!-- Generator: Adobe Illustrator 21.1.0, SVG Export Plug-In  -->
<svg version="1.1"
	 xmlns="http://www.w3.org/2000/svg" xmlns:xlink="http://www.w3.org/1999/xlink" xmlns:a="http://ns.adobe.com/AdobeSVGViewerExtensions/3.0/"
	 x="0px" y="0px" width="1162.94px" height="81.615px" viewBox="0 0 1162.94 81.615"
	 style="enable-background:new 0 0 1162.94 81.615;" xml:space="preserve">
<defs>
</defs>
<g>
	<circle cx="6.124" cy="74.139" r="5.407"/>
	<path d="M6.124,79.135c0,0,0.492,0.983,2.949,1.475l-0.492,0.983c0,0-3.932,0-5.407-1.475s-1.966-2.949-1.966-2.949
		s-0.492-1.553-0.492-3.234S6.124,79.135,6.124,79.135z"/>
	<circle cx="17.675" cy="7.127" r="7.127"/>
	<polygon points="17.727,16.532 26.59,36.774 35.454,57.016 17.727,57.016 0,57.016 8.863,36.774 	"/>
	<g>
		<path d="M11.285,81.615c-3.855,0-3.855,0-4.25-0.229c-0.098-0.057-0.245-0.142-0.789-0.278l0.249-0.997
			c0.632,0.158,0.868,0.277,1.055,0.386c0.151,0.088,0.511,0.091,3.736,0.091c1.701,0,3.107-0.517,4.178-1.538
			c1.079-1.028,1.698-2.538,1.698-4.144V58.983h1.028v15.922c0,1.886-0.735,3.668-2.017,4.889
			C14.903,81.002,13.259,81.615,11.285,81.615z"/>
	</g>
</g>
<g>
	<ellipse transform="matrix(0.9536 -0.3012 0.3012 0.9536 45.0701 343.9909)" cx="1138.237" cy="25.815" rx="6.686" ry="6.686"/>
	<path d="M1136.223,19.439c0,0-0.549-1.739,2.166-3.234l-1.525-0.793c0,0-3.295,1.678-4.484,3.966s-1.22,4.21-1.22,4.21
		s-0.001,2.014,0.625,3.997C1132.41,29.568,1136.223,19.439,1136.223,19.439z"/>
	
		<rect x="1123.35" y="32.247" transform="matrix(-0.9411 -0.3381 0.3381 -0.9411 2173.4016 458.0449)" width="6.49" height="14.956"/>
	<path d="M1111.59,56.232c0,0,13.718,1.573,16.855,1.48c3.137-0.093,13.464-2.091,15.754-3.077c2.29-0.986,9.685-4.104,13.14-9.762
		c3.455-5.658,5.468-9.438,5.581-13.789c0.112-4.351-0.119-8.885-4.38-12.478s-6.988-5.928-11.339-6.04
		c-4.351-0.112-6.458,0.53-8.221,1.355s-5.095,3.34-5.123,3.606c-0.028,0.266,2.618,2.338,2.618,2.338s-0.504-0.71,0.755-2.245
		c1.259-1.535,3.388-3.048,6.525-3.141c3.137-0.093,4.351,0.112,6.756,1.393c2.405,1.281,3.253,2.174,4.926,4.829
		s-0.109,10.969-1.939,14.405s-4.049,8.429-8.146,11.981c-4.097,3.552-10.622,6.692-15.34,7.267
		c-4.717,0.575-11.358,1.449-16.557,0.444l-4.168-0.456L1111.59,56.232z"/>
	
		<rect x="1142.068" y="26.223" transform="matrix(0.3381 -0.9411 0.9411 0.3381 713.2487 1106.4429)" width="2.34" height="39.844"/>
</g>
</svg>