<!-- Generator: Adobe Illustrator 21.1.0, SVG Export Plug-In  -->
<svg version="1.1"
	 xmlns="http://www.w3.org/2000/svg" xmlns:xlink="http://www.w3.org/1999/xlink" xmlns:a="http://ns.adobe.com/AdobeSVGViewerExtensions/3.0/"
	 x="0px" y="0px" width="1353.762px" height="762.241px" viewBox="0 0 1353.762 762.241"
	 style="enable-background:new 0 0 1353.762 762.241;" xml:space="preserve">
<style type="text/css">
	.st0{fill:none;stroke:#000000;stroke-width:3;stroke-miterlimit:10;}
</style>
<defs>
</defs>
<g>
	<path class="st0" d="M526.417,272.742c0,0-136.626,88.281-110.702,9.108c25.924-79.173-161.149,12.612-187.072,11.911
		s-89.683-72.167-184.27-44.141s-5.605,140.129,11.21,250.131s93.186,213.697,292.87,166.053
		c199.684-47.644,273.252-110.001,273.252-110.001"/>
	<path class="st0" d="M515.705,283.289c0,0-129.758,83.32-105.137,8.596S257.521,303.788,232.9,303.127
		c-24.621-0.661-85.174-68.111-175.006-41.66S52.57,393.72,68.541,497.539s88.501,201.687,278.147,156.72
		c189.646-44.966,259.515-103.819,259.515-103.819"/>
	<path class="st0" d="M504.994,293.836c0,0-122.889,78.358-99.572,8.085c23.317-70.274-144.946,11.194-168.264,10.572
		s-80.666-64.055-165.743-39.179s-5.042,124.378,10.083,222.015s83.817,189.676,263.424,147.388
		c179.607-42.288,245.778-97.637,245.778-97.637"/>
	<path class="st0" d="M494.282,304.383c0,0-116.021,73.396-94.007,7.573c22.014-65.824-136.845,10.485-158.859,9.903
		s-76.157-59.999-156.479-36.698c-80.322,23.3-4.76,116.502,9.52,207.957s79.132,177.666,248.701,138.055
		s232.041-91.454,232.041-91.454"/>
	<path class="st0" d="M483.571,314.93c0,0-109.152,68.435-88.441,7.061s-128.744,9.776-149.455,9.233
		c-20.711-0.543-71.649-55.943-147.216-34.217c-75.567,21.725-4.478,108.627,8.956,193.899s74.447,165.656,233.978,128.723
		s218.305-85.272,218.305-85.272"/>
</g>
<g>
	<path class="st0" d="M649.764,520.562c0,0,92.457-156.57,155.22-126.2s204.485,279.396,269.273,279.396
		s121.476-24.97,135.649,22.945c14.172,47.916,130.25,95.831,141.723,36.443c11.473-59.388-136.323-163.993-141.723-260.499
		c-5.399-96.506-70.186,70.186-78.96,5.399s99.206-156.57,45.216-197.062S940.632-32.155,892.717,4.963
		S794.186,197.3,703.079,121.04s-102.58-99.206-130.924-19.571s-27.67,159.269-30.369,160.619s0,1.35,0,1.35"/>
	<path class="st0" d="M559.479,268.583c0,0-2.581,0,0-1.291c2.581-1.291,1.936-77.443,29.041-153.595s38.076-54.21,125.199,18.715
		S849.245,56.906,895.065,21.411s219.422,225.23,271.05,263.951s-51.629,126.49-43.239,188.445s70.344-97.449,75.507-5.163
		c5.163,92.286,146.496,192.317,135.525,249.108s-121.973,10.971-135.525-34.849c-13.552-45.82-67.763-21.942-129.717-21.942
		s-197.48-238.137-257.498-267.178S662.736,514.465,662.736,514.465"/>
	<path class="st0" d="M577.173,273.729c0,0-2.463,0,0-1.232c2.463-1.232,1.848-73.902,27.713-146.572
		c25.866-72.67,36.335-51.731,119.474,17.86S853.688,71.731,897.414,37.86c43.725-33.872,209.388,214.931,258.656,251.882
		s-49.268,120.706-41.262,179.827c8.006,59.121,67.127-92.993,72.054-4.927s139.797,183.523,129.328,237.717
		c-10.469,54.195-116.395,10.469-129.328-33.256c-12.933-43.725-64.664-20.939-123.785-20.939
		c-59.121,0-188.449-227.248-245.723-254.961S675.709,508.367,675.709,508.367"/>
	<path class="st0" d="M594.867,278.875c0,0-2.345,0,0-1.173s1.759-70.36,26.385-139.548c24.626-69.188,34.594-49.252,113.749,17.004
		s123.131-68.601,164.761-100.85c41.63-32.249,199.355,204.632,246.262,239.812c46.907,35.18-46.907,114.922-39.285,171.21
		c7.622,56.288,63.911-88.537,68.601-4.691s133.099,174.728,123.131,226.326s-110.818,9.968-123.131-31.662
		c-12.313-41.63-61.565-19.935-117.854-19.935c-56.288,0-179.419-216.358-233.948-242.743
		C769.009,366.24,688.681,502.27,688.681,502.27"/>
	<path class="st0" d="M612.561,284.021c0,0-2.227,0,0-1.114s1.67-66.819,25.057-132.525s32.853-46.773,108.024,16.148
		s116.933-65.149,156.468-95.774s189.321,194.332,233.867,227.742s-44.546,109.138-37.307,162.593s60.694-84.081,65.149-4.455
		s126.4,165.934,116.933,214.935c-9.466,49.001-105.24,9.466-116.933-30.069s-58.467-18.932-111.922-18.932
		c-53.455,0-170.389-205.469-222.174-230.526c-51.785-25.057-128.07,104.126-128.07,104.126"/>
</g>
<polygon points="560.35,531.741 625.007,555.438 610.407,565.741 552.007,538.953 "/>
<line class="st0" x1="547.007" y1="543.741" x2="597.007" y2="572.741"/>
<polygon points="539.007,265.741 612.007,284.741 615.007,263.741 543.007,250.741 "/>
<line class="st0" x1="545.007" y1="237.741" x2="615.007" y2="246.741"/>
</svg>