<!-- Generator: Adobe Illustrator 21.1.0, SVG Export Plug-In  -->
<svg version="1.1"
	 xmlns="http://www.w3.org/2000/svg" xmlns:xlink="http://www.w3.org/1999/xlink" xmlns:a="http://ns.adobe.com/AdobeSVGViewerExtensions/3.0/"
	 x="0px" y="0px" width="1232px" height="81.615px" viewBox="0 0 1232 81.615" style="enable-background:new 0 0 1232 81.615;"
	 xml:space="preserve">
<style type="text/css">
	.st0{fill:none;stroke:#000000;stroke-miterlimit:10;}
</style>
<defs>
</defs>
<g>
	<circle cx="41.185" cy="74.139" r="5.407"/>
	<path d="M41.185,79.135c0,0,0.492,0.983,2.949,1.475l-0.492,0.983c0,0-3.932,0-5.407-1.475c-1.475-1.475-1.966-2.949-1.966-2.949
		s-0.492-1.553-0.492-3.234S41.185,79.135,41.185,79.135z"/>
	<circle cx="52.735" cy="7.127" r="7.127"/>
	<polygon points="52.787,16.532 61.65,36.774 70.514,57.016 52.787,57.016 35.06,57.016 43.924,36.774 	"/>
	<g>
		<path d="M46.346,81.615c-3.855,0-3.855,0-4.25-0.229c-0.098-0.057-0.245-0.142-0.789-0.278l0.249-0.997
			c0.632,0.158,0.868,0.277,1.055,0.386c0.151,0.088,0.511,0.091,3.736,0.091c1.701,0,3.107-0.517,4.178-1.538
			c1.079-1.028,1.698-2.538,1.698-4.144V58.983h1.028v15.922c0,1.886-0.735,3.668-2.017,4.889
			C49.963,81.002,48.319,81.615,46.346,81.615z"/>
	</g>
</g>
<g>
	<line class="st0" x1="0" y1="17.909" x2="1232" y2="17.909"/>
	<line class="st0" x1="0" y1="27.712" x2="1232" y2="27.712"/>
	<line class="st0" x1="0" y1="37.515" x2="1232" y2="37.515"/>
	<line class="st0" x1="0" y1="47.319" x2="1232" y2="47.319"/>
	<line class="st0" x1="0" y1="57.122" x2="1232" y2="57.122"/>
</g>
<g>
	<g>
		<path d="M611.078,36.291c-1.081-0.591-1.621-1.731-1.621-3.42c0-1.098,0.266-1.976,0.798-2.634
			c0.532-0.659,1.288-0.988,2.267-0.988c1.148,0,1.807,0.431,1.976,1.292c-0.861,0.051-1.448,0.346-1.761,0.887
			c-0.313,0.541-0.469,1.157-0.469,1.849c0,0.726,0.211,1.292,0.633,1.697c0.422,0.405,0.937,0.608,1.545,0.608
			c0.54,0,1.06-0.16,1.558-0.481c0.498-0.321,0.908-0.81,1.229-1.469c0.321-0.658,0.481-1.452,0.481-2.381
			c0-1.03-0.283-1.988-0.848-2.875c-0.566-0.887-1.406-1.524-2.521-1.913c0.895-0.253,1.672-0.654,2.331-1.203
			c0.659-0.548,1.156-1.157,1.495-1.824c0.338-0.667,0.507-1.304,0.507-1.913c0-0.624-0.165-1.127-0.494-1.507
			c-0.329-0.38-0.807-0.57-1.431-0.57c-0.608,0-1.094,0.182-1.457,0.545c-0.363,0.363-0.545,0.84-0.545,1.431
			c0,0.405,0.08,0.785,0.241,1.14c0.16,0.355,0.401,0.574,0.722,0.659c-0.625,0.574-1.267,0.861-1.925,0.861
			c-0.524,0-0.959-0.19-1.305-0.57c-0.346-0.38-0.519-0.908-0.519-1.583c0-0.76,0.232-1.431,0.696-2.014
			c0.464-0.583,1.093-1.034,1.887-1.355c0.794-0.321,1.68-0.481,2.66-0.481c0.996,0,1.849,0.169,2.558,0.507
			c0.709,0.338,1.245,0.785,1.609,1.342c0.363,0.557,0.545,1.174,0.545,1.849c0,0.878-0.296,1.739-0.887,2.584
			c-0.591,0.845-1.453,1.554-2.584,2.128c1.064,0.355,1.862,0.899,2.394,1.634c0.532,0.734,0.798,1.583,0.798,2.546
			c0,1.047-0.3,2.073-0.899,3.078c-0.6,1.005-1.444,1.828-2.533,2.47c-1.089,0.642-2.326,0.963-3.711,0.963
			C613.298,37.178,612.158,36.882,611.078,36.291z"/>
	</g>
	<g>
		<path d="M620.032,48.011c0.431,0.49,0.798,1.051,1.102,1.684c0.304,0.633,0.456,1.313,0.456,2.039c0,1.047-0.3,2.014-0.899,2.901
			c-0.6,0.887-1.41,1.592-2.432,2.115c-1.022,0.524-2.141,0.785-3.356,0.785c-1.081,0-2.048-0.207-2.901-0.621
			c-0.853-0.413-1.52-0.988-2.001-1.722c-0.481-0.734-0.722-1.583-0.722-2.546c0-1.182,0.388-2.217,1.165-3.103
			c0.776-0.887,1.992-1.701,3.648-2.444c-0.726-0.76-1.288-1.473-1.685-2.141c-0.397-0.667-0.595-1.389-0.595-2.166
			c0-0.844,0.245-1.617,0.734-2.318c0.49-0.701,1.161-1.254,2.014-1.659c0.853-0.405,1.794-0.608,2.824-0.608
			c0.895,0,1.697,0.152,2.407,0.456c0.709,0.304,1.262,0.731,1.659,1.279c0.397,0.549,0.595,1.162,0.595,1.837
			c0,1.655-1.241,3.158-3.724,4.509C619.032,46.947,619.602,47.522,620.032,48.011z M616.993,54.876
			c0.549-0.608,0.823-1.326,0.823-2.153c0-0.793-0.228-1.536-0.684-2.229c-0.456-0.692-1.123-1.477-2.001-2.356
			c-0.811,0.541-1.431,1.203-1.862,1.989c-0.431,0.785-0.646,1.634-0.646,2.546c0,0.946,0.219,1.701,0.659,2.267
			c0.439,0.566,1.022,0.848,1.748,0.848C615.789,55.788,616.444,55.484,616.993,54.876z M616.055,40.121
			c-0.431,0.465-0.646,1.06-0.646,1.786c0,0.608,0.16,1.178,0.481,1.71c0.321,0.532,0.785,1.094,1.393,1.685
			c0.625-0.557,1.123-1.191,1.495-1.9c0.371-0.709,0.557-1.393,0.557-2.052c0-0.591-0.148-1.06-0.443-1.406
			c-0.296-0.346-0.705-0.519-1.229-0.519C617.022,39.424,616.486,39.656,616.055,40.121z"/>
	</g>
</g>
<g>
	<ellipse transform="matrix(0.9536 -0.3012 0.3012 0.9536 46.6978 354.5497)" cx="1173.297" cy="25.815" rx="6.686" ry="6.686"/>
	<path d="M1171.283,19.439c0,0-0.549-1.739,2.166-3.234l-1.525-0.793c0,0-3.295,1.678-4.484,3.966s-1.22,4.21-1.22,4.21
		s-0.001,2.014,0.625,3.997S1171.283,19.439,1171.283,19.439z"/>
	
		<rect x="1158.411" y="32.247" transform="matrix(-0.9411 -0.3381 0.3381 -0.9411 2241.4573 469.8998)" width="6.49" height="14.956"/>
	<path d="M1146.65,56.232c0,0,13.718,1.573,16.855,1.48c3.137-0.093,13.464-2.091,15.754-3.077c2.289-0.986,9.685-4.104,13.14-9.762
		s5.468-9.438,5.581-13.789c0.112-4.351-0.119-8.885-4.38-12.478s-6.988-5.928-11.339-6.04c-4.351-0.112-6.458,0.53-8.221,1.355
		c-1.763,0.825-5.095,3.34-5.123,3.606s2.618,2.338,2.618,2.338s-0.504-0.71,0.755-2.245c1.259-1.535,3.388-3.048,6.525-3.141
		c3.137-0.093,4.351,0.112,6.756,1.393c2.405,1.281,3.253,2.174,4.926,4.829s-0.109,10.969-1.939,14.405
		c-1.83,3.436-4.049,8.429-8.146,11.981c-4.097,3.552-10.622,6.692-15.339,7.267c-4.717,0.575-11.358,1.449-16.557,0.444
		l-4.168-0.456L1146.65,56.232z"/>
	<rect x="1177.128" y="26.223" transform="matrix(0.3381 -0.9411 0.9411 0.3381 736.454 1139.4381)" width="2.34" height="39.844"/>
</g>
</svg>