<!-- Generator: Adobe Illustrator 21.1.0, SVG Export Plug-In  -->
<svg version="1.1"
	 xmlns="http://www.w3.org/2000/svg" xmlns:xlink="http://www.w3.org/1999/xlink" xmlns:a="http://ns.adobe.com/AdobeSVGViewerExtensions/3.0/"
	 x="0px" y="0px" width="208.069px" height="130.653px" viewBox="0 0 208.069 130.653"
	 style="enable-background:new 0 0 208.069 130.653;" xml:space="preserve">
<style type="text/css">
	.st0{fill:none;stroke:#000000;stroke-miterlimit:10;}
</style>
<defs>
</defs>
<g>
	<g>
		<rect x="204.746" y="59.267" transform="matrix(1 -0.0079 0.0079 1 -0.6961 1.626)" width="2.83" height="59.901"/>
	</g>
</g>
<g>
	<ellipse transform="matrix(0.781 -0.6245 0.6245 0.781 -32.0123 149.323)" cx="196.918" cy="120.309" rx="12.45" ry="8.737"/>
</g>
<g>
	<g>
		<rect x="18.98" y="59.267" transform="matrix(1 -0.0079 0.0079 1 -0.7018 0.1633)" width="2.83" height="59.901"/>
	</g>
</g>
<g>
	<ellipse transform="matrix(0.781 -0.6245 0.6245 0.781 -72.6921 33.31)" cx="11.152" cy="120.309" rx="12.45" ry="8.737"/>
</g>
<g>
	<g>
		<rect x="112.274" y="59.267" transform="matrix(1 -0.0079 0.0079 1 -0.699 0.8979)" width="2.83" height="59.901"/>
	</g>
</g>
<g>
	<ellipse transform="matrix(0.781 -0.6245 0.6245 0.781 -52.2622 91.5732)" cx="104.446" cy="120.309" rx="12.45" ry="8.737"/>
</g>
<g>
	<g>
		<rect x="65.627" y="59.267" transform="matrix(1 -0.0079 0.0079 1 -0.7004 0.5306)" width="2.83" height="59.901"/>
	</g>
</g>
<g>
	<ellipse transform="matrix(0.781 -0.6245 0.6245 0.781 -62.4772 62.4416)" cx="57.799" cy="120.309" rx="12.45" ry="8.737"/>
</g>
<g>
	<g>
		<rect x="158.51" y="59.267" transform="matrix(1 -0.0079 0.0079 1 -0.6975 1.262)" width="2.83" height="59.901"/>
	</g>
</g>
<g>
	<ellipse transform="matrix(0.781 -0.6245 0.6245 0.781 -42.1372 120.4481)" cx="150.682" cy="120.309" rx="12.45" ry="8.737"/>
</g>
<g>
	<g>
		<rect x="18.705" y="57.382" width="188.658" height="9.433"/>
	</g>
</g>
<polyline class="st0" points="20.436,29.118 20.436,10.118 62.436,10.118 "/>
<polyline class="st0" points="205.436,29.118 205.436,10.118 163.436,10.118 "/>
<g>
	<path d="M84.616,16.522c-0.704-0.322-1.247-0.773-1.628-1.354c-0.382-0.579-0.572-1.25-0.572-2.013c0-0.646,0.136-1.231,0.407-1.76
		c0.271-0.528,0.638-0.946,1.1-1.254c0.462-0.309,0.972-0.462,1.529-0.462c0.513,0,0.946,0.128,1.298,0.385s0.572,0.612,0.66,1.067
		c-0.763,0-1.372,0.201-1.826,0.604c-0.455,0.403-0.682,0.95-0.682,1.639c0,0.631,0.19,1.137,0.571,1.519
		c0.382,0.382,0.888,0.572,1.519,0.572c0.777,0,1.419-0.261,1.925-0.781s0.759-1.177,0.759-1.969c0-0.689-0.19-1.343-0.572-1.958
		c-0.381-0.616-0.953-1.364-1.716-2.244c-0.792-0.909-1.39-1.69-1.793-2.344c-0.403-0.652-0.604-1.367-0.604-2.145
		c0-0.763,0.212-1.448,0.638-2.057c0.425-0.608,1.012-1.09,1.76-1.441S88.98,0,89.918,0c1.188,0,2.138,0.279,2.849,0.836
		c0.712,0.558,1.067,1.306,1.067,2.244c0,0.616-0.154,1.115-0.462,1.496c-0.308,0.382-0.712,0.572-1.21,0.572
		c-0.558,0-1.005-0.228-1.342-0.682c0.278-0.206,0.498-0.477,0.659-0.814c0.162-0.337,0.242-0.689,0.242-1.056
		c0-0.47-0.14-0.844-0.418-1.122s-0.66-0.418-1.144-0.418c-0.587,0-1.067,0.209-1.441,0.627s-0.561,0.949-0.561,1.595
		c0,0.587,0.168,1.133,0.506,1.639c0.337,0.507,0.865,1.155,1.584,1.947c0.586,0.631,1.06,1.174,1.419,1.628
		c0.359,0.455,0.667,0.979,0.924,1.573s0.385,1.235,0.385,1.925c0,0.938-0.26,1.79-0.78,2.552c-0.521,0.763-1.232,1.364-2.135,1.805
		c-0.901,0.439-1.902,0.66-3.003,0.66C86.134,17.007,85.32,16.845,84.616,16.522z"/>
	<path d="M94.846,15.862c-0.631-0.558-0.945-1.438-0.945-2.64c0-0.997,0.205-2.104,0.615-3.322c0.411-1.217,1.071-2.27,1.98-3.157
		c0.909-0.887,2.053-1.331,3.432-1.331c1.878,0,2.816,1.174,2.816,3.521v0.021c0.044,0.015,0.124,0.022,0.242,0.022
		c0.483,0,1.041-0.129,1.672-0.385c0.63-0.257,1.202-0.568,1.716-0.936l0.198,0.594c-0.426,0.455-0.979,0.84-1.661,1.155
		s-1.427,0.539-2.233,0.671c-0.117,1.335-0.418,2.501-0.901,3.498c-0.484,0.998-1.108,1.768-1.87,2.311
		c-0.763,0.542-1.592,0.813-2.486,0.813C96.334,16.698,95.477,16.42,94.846,15.862z M99.357,14.113
		c0.352-0.403,0.659-0.953,0.924-1.65c0.264-0.696,0.454-1.47,0.571-2.32c-0.396-0.088-0.594-0.396-0.594-0.924
		c0-0.602,0.228-0.998,0.683-1.188c-0.03-0.484-0.104-0.817-0.221-1.001s-0.322-0.275-0.615-0.275c-0.484,0-0.954,0.353-1.408,1.057
		c-0.455,0.704-0.822,1.548-1.101,2.53s-0.418,1.848-0.418,2.596c0,0.704,0.081,1.177,0.242,1.419s0.454,0.363,0.88,0.363
		C98.652,14.719,99.004,14.517,99.357,14.113z"/>
	<path d="M104.338,16.082c-0.433-0.439-0.648-1.1-0.648-1.979c0-0.366,0.059-0.844,0.176-1.431l2.354-11.021l3.257-0.44
		l-2.53,11.881c-0.059,0.22-0.088,0.454-0.088,0.703c0,0.294,0.069,0.503,0.209,0.627c0.139,0.125,0.37,0.188,0.692,0.188
		c0.426,0,0.821-0.18,1.188-0.539c0.366-0.359,0.631-0.825,0.792-1.397h0.924c-0.543,1.585-1.239,2.659-2.09,3.224
		s-1.694,0.847-2.53,0.847C105.339,16.742,104.771,16.522,104.338,16.082z"/>
	<path d="M110.356,15.896c-0.602-0.564-0.902-1.448-0.902-2.651c0-1.012,0.198-2.126,0.594-3.344
		c0.396-1.217,1.042-2.27,1.937-3.157c0.895-0.887,2.031-1.331,3.41-1.331c1.613,0,2.42,0.704,2.42,2.112
		c0,0.821-0.235,1.577-0.704,2.266c-0.47,0.689-1.093,1.243-1.87,1.661s-1.606,0.657-2.486,0.715
		c-0.029,0.44-0.044,0.734-0.044,0.88c0,0.719,0.125,1.207,0.374,1.464s0.652,0.385,1.21,0.385c0.792,0,1.471-0.184,2.035-0.55
		c0.564-0.367,1.185-0.925,1.859-1.673h0.748c-1.628,2.714-3.646,4.07-6.05,4.07C111.8,16.742,110.956,16.46,110.356,15.896z
		 M114.481,10.538c0.491-0.352,0.887-0.799,1.188-1.342c0.301-0.542,0.451-1.114,0.451-1.716s-0.184-0.902-0.55-0.902
		c-0.528,0-1.045,0.462-1.551,1.386c-0.506,0.925-0.869,1.974-1.089,3.146C113.472,11.081,113.988,10.891,114.481,10.538z"/>
	<path d="M129.595,16.027c-0.418-0.477-0.627-1.067-0.627-1.771c0-0.309,0.036-0.656,0.109-1.046
		c0.073-0.388,0.15-0.766,0.231-1.133c0.08-0.366,0.136-0.601,0.165-0.704c0.117-0.513,0.228-1.019,0.33-1.518
		c0.103-0.498,0.153-0.902,0.153-1.21c0-0.748-0.264-1.122-0.792-1.122c-0.381,0-0.719,0.187-1.012,0.561s-0.527,0.862-0.704,1.464
		l-1.496,7.062h-3.168l1.606-7.59c0.044-0.176,0.065-0.359,0.065-0.55c0-0.646-0.22-0.969-0.659-0.969
		c-0.411,0-0.767,0.188-1.067,0.562s-0.539,0.869-0.715,1.485l-1.496,7.062h-3.168l2.332-11h3.168l-0.242,1.144
		c0.748-0.836,1.643-1.254,2.685-1.254c1.29,0,2.046,0.631,2.266,1.893c0.807-1.247,1.826-1.87,3.058-1.87
		c0.748,0,1.343,0.205,1.782,0.616c0.44,0.41,0.66,1.033,0.66,1.87c0,0.425-0.052,0.898-0.154,1.419s-0.249,1.154-0.439,1.902
		c-0.118,0.455-0.224,0.898-0.319,1.331s-0.143,0.774-0.143,1.023c0,0.293,0.065,0.521,0.197,0.682
		c0.133,0.162,0.359,0.242,0.683,0.242c0.439,0,0.792-0.157,1.056-0.473s0.528-0.804,0.792-1.464h0.924
		c-0.543,1.614-1.17,2.695-1.881,3.245c-0.712,0.551-1.448,0.825-2.211,0.825C130.669,16.742,130.013,16.504,129.595,16.027z"/>
	<path d="M140.606,16.038c-0.352-0.469-0.528-1.062-0.528-1.781c0-0.309,0.037-0.656,0.11-1.046c0.073-0.388,0.15-0.766,0.23-1.133
		c0.081-0.366,0.136-0.601,0.165-0.704c0.117-0.513,0.228-1.019,0.33-1.518c0.103-0.498,0.154-0.902,0.154-1.21
		c0-0.748-0.264-1.122-0.792-1.122c-0.382,0-0.719,0.187-1.012,0.561c-0.294,0.374-0.528,0.862-0.704,1.464l-1.496,7.062h-3.168
		l2.332-11h3.168l-0.242,1.144c0.733-0.82,1.592-1.231,2.574-1.231c0.748,0,1.342,0.205,1.782,0.616
		c0.439,0.41,0.66,1.033,0.66,1.87c0,0.425-0.052,0.898-0.154,1.419s-0.25,1.154-0.44,1.902c-0.117,0.455-0.224,0.898-0.318,1.331
		c-0.096,0.433-0.144,0.774-0.144,1.023c0,0.293,0.066,0.521,0.198,0.682c0.132,0.162,0.359,0.242,0.682,0.242
		c0.353,0,0.595-0.044,0.727-0.132c-0.088,0.748-0.356,1.312-0.804,1.693c-0.447,0.382-0.986,0.572-1.616,0.572
		C141.522,16.742,140.957,16.508,140.606,16.038z"/>
</g>
</svg>