<!-- Generator: Adobe Illustrator 21.1.0, SVG Export Plug-In  -->
<svg version="1.1"
	 xmlns="http://www.w3.org/2000/svg" xmlns:xlink="http://www.w3.org/1999/xlink" xmlns:a="http://ns.adobe.com/AdobeSVGViewerExtensions/3.0/"
	 x="0px" y="0px" width="584.235px" height="2480.853px" viewBox="0 0 584.235 2480.853"
	 style="enable-background:new 0 0 584.235 2480.853;" xml:space="preserve">
<style type="text/css">
	.st0{fill:none;stroke:#FFFFFF;stroke-width:3;stroke-miterlimit:10;}
</style>
<defs>
</defs>
<g>
	<path class="st0" d="M72.106,0.555c-63.518,159.474-112.092,361.955-18,510c90.265,142.023,231.627,107.761,303,259
		c67.898,143.875,13.699,331.12-43,527c-28.645,98.96-34.12,83.339-52,155c-37.145,148.867-27.794,273.494,17,554
		c22.2,139.019,50.274,298.592,86,475"/>
	<path class="st0" d="M120.606,0.555c-63.518,159.474-112.092,361.955-18,510c90.265,142.023,231.627,107.761,303,259
		c67.898,143.875,13.699,331.12-43,527c-28.645,98.96-34.12,83.339-52,155c-37.145,148.867-27.794,273.494,17,554
		c22.2,139.019,50.274,298.592,86,475"/>
	<path class="st0" d="M169.106,0.555c-63.518,159.474-112.092,361.955-18,510c90.265,142.023,231.627,107.761,303,259
		c67.898,143.875,13.699,331.12-43,527c-28.645,98.96-34.12,83.339-52,155c-37.145,148.867-27.794,273.494,17,554
		c22.2,139.019,50.274,298.592,86,475"/>
	<path class="st0" d="M217.606,0.555c-63.518,159.474-112.092,361.955-18,510c90.265,142.023,231.627,107.761,303,259
		c67.898,143.875,13.699,331.12-43,527c-28.645,98.96-34.12,83.339-52,155c-37.145,148.867-27.794,273.494,17,554
		c22.2,139.019,50.274,298.592,86,475"/>
	<path class="st0" d="M266.106,0.555c-63.518,159.474-112.092,361.955-18,510c90.265,142.023,231.627,107.761,303,259
		c67.898,143.875,13.699,331.12-43,527c-28.645,98.96-34.12,83.339-52,155c-37.145,148.867-27.794,273.494,17,554
		c22.2,139.019,50.274,298.592,86,475"/>
</g>
</svg>