<!-- Generator: Adobe Illustrator 21.1.0, SVG Export Plug-In  -->
<svg version="1.1"
	 xmlns="http://www.w3.org/2000/svg" xmlns:xlink="http://www.w3.org/1999/xlink" xmlns:a="http://ns.adobe.com/AdobeSVGViewerExtensions/3.0/"
	 x="0px" y="0px" width="142px" height="201.596px" viewBox="0 0 142 201.596" style="enable-background:new 0 0 142 201.596;"
	 xml:space="preserve">
<defs>
</defs>
<path d="M6.562,199.359L0,201.596c43.21-44.667,92.605-67,142-67v41.926C96.603,176.522,51.206,184.134,6.562,199.359z"/>
<g>
	<path d="M18.315,1.47c27.898,19.996,56.737,19.996,84.634,0L105,0C77.998,58.666,43.266,58.666,16.265,0L18.315,1.47z"/>
</g>
<path d="M76.491,84.213L61.145,53.84L45.554,84.306c-3.384,6.614-2.941,14.993,1.359,20.876c2.742,3.751,7.128,6.752,14.142,6.749
	c6.892-0.003,11.242-2.996,13.988-6.737C79.377,99.289,79.857,90.876,76.491,84.213z"/>
</svg>