<!-- Generator: Adobe Illustrator 21.1.0, SVG Export Plug-In  -->
<svg version="1.1"
	 xmlns="http://www.w3.org/2000/svg" xmlns:xlink="http://www.w3.org/1999/xlink" xmlns:a="http://ns.adobe.com/AdobeSVGViewerExtensions/3.0/"
	 x="0px" y="0px" width="1154.212px" height="467.809px" viewBox="0 0 1154.212 467.809"
	 style="enable-background:new 0 0 1154.212 467.809;" xml:space="preserve">
<style type="text/css">
	.st0{fill:#FFFFFF;}
</style>
<defs>
</defs>
<g>
	<g>
		<path class="st0" d="M22.256,298.642c-6.988-5.796-10.48-13.512-10.48-23.087c0-5.966,1.412-11.471,4.239-16.522
			c2.825-5.046,6.672-9.057,11.54-12.049c4.864-2.986,10.203-4.552,16.014-4.704c5.965-0.157,10.793,1.176,14.484,4.031
			c3.687,2.861,5.535,6.71,5.535,11.574c0,3.766-0.864,6.785-2.591,9.046c-1.413-1.832-3.338-3.261-5.77-4.274
			c-2.436-1.021-4.986-1.489-7.654-1.412c-4.71,0.139-8.56,1.787-11.54,5.003c-2.985,3.204-4.474,7.315-4.475,12.339
			c0,5.028,1.45,9.07,4.357,12.156c2.904,3.072,6.554,4.562,10.951,4.435c5.494-0.159,10.204-2.748,14.131-7.758
			c3.924-5.01,6.908-12.353,8.949-22.014c3.925-17.511,7.85-35.037,11.776-52.574c-0.314,0.015-0.628,0.03-0.942,0.045
			c-4.239,6.17-9.383,10.949-15.426,14.325c-6.046,3.38-12.681,5.17-19.9,5.371c-9.108,0.248-17.116-2.035-24.022-6.81
			c-6.911-4.771-12.211-11.694-15.897-20.708C1.844,196.036,0,185.558,0,173.623c0-17.266,3.768-33.002,11.305-47.259
			c7.536-14.26,17.899-25.567,31.087-34.073c13.189-8.505,27.71-13.112,43.57-13.907c13.343-0.67,23.903,1.571,31.676,6.862
			c7.772,5.29,11.659,12.932,11.658,22.977c0.001,6.752-1.648,12.288-4.946,16.602c-3.296,4.313-7.618,6.652-12.953,6.987
			c-2.984,0.189-5.771-0.268-8.36-1.372c-2.591-1.103-4.751-2.789-6.476-5.044c2.826-2.045,5.217-5.203,7.183-9.482
			c1.96-4.28,2.944-8.536,2.944-12.777c0-4.709-1.377-8.273-4.122-10.704c-2.75-2.43-6.634-3.504-11.658-3.235
			c-9.108,0.481-17.899,4.922-26.377,13.333c-8.479,8.414-15.308,19.173-20.489,32.343c-5.18,13.172-7.772,26.882-7.772,41.168
			c0,11.775,1.885,20.728,5.652,26.831c3.767,6.11,9.185,9.061,16.25,8.813c8.478-0.292,15.973-5.09,22.491-14.348
			c6.513-9.259,11.734-22.564,15.662-39.901c9.263-0.437,18.527-0.941,27.79-1.509c-5.731,26.778-11.462,53.531-17.192,80.258
			c-5.027,23.7-12.128,41.311-21.313,52.761c-9.185,11.447-21.079,17.479-35.68,17.918C38.465,307.209,29.24,304.431,22.256,298.642
			z"/>
		<path class="st0" d="M136.711,247.801c-4.632-4.356-6.948-11.258-6.948-20.679c0-3.92,0.63-9.077,1.884-15.446
			c5.338-25.593,10.677-51.204,16.015-76.837c11.304-0.917,22.609-1.924,33.913-3.015c-5.652,27.236-11.305,54.452-16.957,81.646
			c-0.628,2.407-0.942,4.952-0.942,7.62c0,3.143,0.743,5.314,2.238,6.513c1.49,1.202,3.963,1.649,7.418,1.326
			c4.552-0.428,8.792-2.751,12.718-6.985c3.923-4.224,6.749-9.51,8.478-15.804c3.297-0.337,6.594-0.68,9.891-1.029
			c-5.811,17.573-13.269,29.849-22.373,36.77c-9.108,6.927-18.136,10.767-27.083,11.522
			C147.426,254.038,141.34,252.158,136.711,247.801z M157.789,115.859c-3.613-3.299-5.417-7.546-5.417-12.73
			c0-5.179,1.803-9.771,5.417-13.765c3.61-4,8.007-6.229,13.188-6.706c5.18-0.478,9.615,0.947,13.306,4.274
			c3.688,3.333,5.534,7.579,5.535,12.76c0,5.178-1.847,9.767-5.535,13.735c-3.691,3.971-8.125,6.201-13.306,6.676
			C165.796,120.58,161.398,119.16,157.789,115.859z"/>
		<path class="st0" d="M210.542,128.854c11.305-1.227,22.609-2.53,33.914-3.902c-1.021,4.99-2.041,9.981-3.062,14.972
			c5.336-5.354,10.164-9.561,14.484-12.613c4.316-3.05,8.987-4.905,14.013-5.561c5.022-0.654,8.985,0.548,11.893,3.608
			c2.903,3.066,4.357,7.033,4.357,11.894c0,4.556-1.494,8.761-4.475,12.614c-2.984,3.854-7.146,6.138-12.482,6.831
			c-3.456,0.456-5.77-0.08-6.948-1.577c-1.178-1.501-2.082-3.77-2.708-6.839c-0.471-1.976-0.941-3.416-1.413-4.295
			c-0.471-0.881-1.336-1.243-2.59-1.087c-3.297,0.415-6.086,1.428-8.361,3.038c-2.278,1.613-5.221,4.288-8.832,8.014
			c-6.28,30.58-12.561,61.139-18.841,91.672c-11.305,1.267-22.609,2.458-33.913,3.567
			C193.9,209.121,202.221,169.009,210.542,128.854z"/>
		<path class="st0" d="M287.67,231.366c-4.629-4.161-6.947-11.031-6.947-20.612c0-3.92,0.629-9.113,1.884-15.561
			c8.4-40.46,16.8-80.954,25.2-121.479c11.619-3.222,23.237-6.505,34.856-9.839c-9.028,43.762-18.056,87.494-27.083,131.19
			c-0.63,2.444-0.942,4.77-0.943,6.965c0,6.282,3.216,8.962,9.656,8.015c2.826-0.412,5.335-1.257,7.536-2.528
			c-0.63,7.943-3.415,14.443-8.36,19.488c-4.945,5.047-10.798,8.044-17.546,9.007C298.386,237.081,292.299,235.525,287.67,231.366z"
			/>
		<path class="st0" d="M409.659,258.431c-6.989-4.727-10.479-11.889-10.481-21.463c0.001-5.966,1.413-11.7,4.239-17.185
			c2.827-5.49,6.671-10.089,11.54-13.814c4.865-3.722,10.205-6.07,16.015-7.061c5.965-1.017,10.794-0.357,14.484,1.994
			c3.688,2.354,5.535,5.952,5.535,10.819c0,3.767-0.865,6.902-2.591,9.397c-1.412-1.643-3.338-2.803-5.77-3.48
			c-2.436-0.68-4.986-0.79-7.654-0.336c-4.71,0.804-8.559,3.026-11.54,6.67c-2.985,3.644-4.474,7.978-4.475,13.001
			c0,5.021,1.45,8.858,4.357,11.511c2.903,2.648,6.553,3.6,10.951,2.85c5.494-0.944,10.205-4.18,14.13-9.728
			c3.922-5.54,6.908-13.294,8.949-23.218c3.925-18.032,7.85-36.067,11.775-54.105c-0.314,0.055-0.628,0.11-0.942,0.165
			c-4.24,6.708-9.383,12.165-15.426,16.35c-6.046,4.188-12.68,6.903-19.9,8.132c-9.108,1.555-17.114,0.468-24.022-3.253
			c-6.911-3.715-12.211-9.791-15.897-18.221c-3.691-8.429-5.535-18.607-5.535-30.541c0-17.27,3.768-33.615,11.305-49.066
			c7.536-15.446,17.898-28.353,31.087-38.761c13.189-10.403,27.71-17,43.569-19.791c13.343-2.348,23.905-1.326,31.676,3.089
			c7.772,4.418,11.658,11.65,11.658,21.695c0,6.75-1.649,12.467-4.946,17.139c-3.297,4.675-7.617,7.486-12.953,8.441
			c-2.985,0.537-5.77,0.4-8.36-0.394c-2.591-0.796-4.751-2.215-6.477-4.268c2.827-2.384,5.218-5.832,7.183-10.342
			c1.961-4.511,2.944-8.879,2.944-13.123c0-4.708-1.376-8.114-4.122-10.218c-2.749-2.104-6.635-2.708-11.658-1.821
			c-9.108,1.608-17.899,7.189-26.377,16.744c-8.478,9.554-15.309,21.288-20.489,35.196c-5.181,13.917-7.772,28.013-7.772,42.296
			c0.001,11.771,1.884,20.447,5.652,26.008c3.768,5.565,9.185,7.738,16.25,6.521c8.478-1.465,15.974-7.243,22.491-17.335
			c6.513-10.093,11.735-24.042,15.661-41.854c9.263-1.562,18.527-3.137,27.79-4.721c-5.731,27.405-11.462,54.808-17.193,82.206
			c-5.026,24.289-12.129,42.74-21.313,55.35c-9.185,12.599-21.078,20.186-35.68,22.682
			C425.869,264.554,416.644,263.152,409.659,258.431z"/>
		<path class="st0" d="M535.065,78.795c11.304-2.045,22.609-4.098,33.914-6.153c-1.021,5.053-2.041,10.106-3.062,15.158
			c5.336-5.684,10.164-10.167,14.484-13.466c4.316-3.294,8.987-5.406,14.013-6.315c5.024-0.915,8.985,0.092,11.893,3.022
			c2.904,2.927,4.357,6.825,4.357,11.691c0,4.553-1.495,8.833-4.475,12.822c-2.985,3.994-7.146,6.48-12.482,7.448
			c-3.456,0.627-5.771,0.223-6.948-1.21c-1.178-1.439-2.083-3.659-2.708-6.691c-0.47-1.953-0.941-3.361-1.413-4.218
			c-0.47-0.857-1.335-1.17-2.59-0.942c-3.297,0.596-6.087,1.775-8.361,3.522c-2.277,1.749-5.222,4.603-8.832,8.552
			c-6.28,30.973-12.561,61.944-18.841,92.914c-11.304,2.049-22.609,4.092-33.913,6.119
			C518.423,160.304,526.744,119.552,535.065,78.795z"/>
		<path class="st0" d="M614.43,174.134c-6.752-4.74-10.127-13.548-10.127-26.425c0-10.675,2.201-22.928,6.595-36.758
			c4.393-13.824,11.459-26.375,21.196-37.627c9.734-11.252,21.979-18.199,36.739-20.818c20.096-3.563,30.145,7.275,30.145,32.389
			c0,0.078,0,0.157,0,0.235c0.47,0.078,1.332,0.003,2.59-0.214c5.181-0.902,11.146-3.297,17.899-7.202
			c6.748-3.896,12.873-8.271,18.37-13.12c0.707,2.001,1.413,4.002,2.12,6.004c-4.556,5.63-10.48,10.749-17.781,15.367
			c-7.301,4.621-15.271,8.382-23.904,11.298c-1.258,14.508-4.475,27.55-9.656,39.131c-5.181,11.589-11.857,21.001-20.018,28.255
			c-8.165,7.257-17.037,11.745-26.613,13.463C630.363,180.203,621.179,178.881,614.43,174.134z M662.709,146.737
			c3.768-4.983,7.065-11.457,9.891-19.417c2.826-7.958,4.865-16.598,6.124-25.928c-4.24-0.19-6.359-3.114-6.359-8.768
			c0-6.434,2.432-11.107,7.301-14.006c-0.316-5.126-1.1-8.559-2.355-10.301c-1.259-1.737-3.456-2.336-6.594-1.779
			c-5.181,0.917-10.208,5.579-15.073,13.984c-4.868,8.405-8.794,18.138-11.775,29.191c-2.984,11.056-4.475,20.59-4.475,28.594
			c-0.001,7.537,0.861,12.445,2.59,14.725c1.726,2.281,4.864,3.014,9.42,2.198C655.173,154.557,658.942,151.726,662.709,146.737z"/>
		<path class="st0" d="M716.051,158.49c-4.633-3.917-6.948-10.58-6.948-20.001c0-3.922,0.629-9.137,1.884-15.634
			c5.338-26.119,10.676-52.229,16.015-78.334c11.305-1.917,22.609-3.802,33.914-5.649c-5.652,27.615-11.305,55.24-16.957,82.872
			c-0.471,2.433-0.707,4.673-0.707,6.712c0,6.441,2.355,9.261,7.065,8.481c4.393-0.727,8.162-3.19,11.305-7.392
			c3.139-4.2,5.652-9.669,7.536-16.415c5.338-26.063,10.676-52.116,16.015-78.16c11.305-1.788,22.609-3.534,33.914-5.228
			c-5.652,27.539-11.305,55.089-16.957,82.651c-0.629,2.454-0.942,5.015-0.942,7.682c0,3.144,0.743,5.266,2.237,6.367
			c1.49,1.105,3.964,1.395,7.418,0.867c4.394-0.667,8.202-3.127,11.422-7.372c3.216-4.249,5.77-9.645,7.654-16.205
			c3.297-0.484,6.594-0.965,9.892-1.44c-5.811,17.796-12.994,30.348-21.549,37.673c-8.559,7.332-17.155,11.667-25.788,13.022
			c-6.753,1.059-12.129,0.031-16.132-3.098c-4.004-3.125-6.4-8.308-7.183-15.564c-5.339,9.5-10.951,16.301-16.839,20.415
			c-5.888,4.117-11.894,6.683-18.017,7.714C726.767,163.727,720.681,162.406,716.051,158.49z"/>
		<path class="st0" d="M847.817,16.836c11.304-1.603,22.609-3.149,33.913-4.632c-1.256,6.052-2.512,12.105-3.768,18.16
			c7.849-7.789,17.034-12.35,27.555-13.647c8.791-1.08,15.779,1.011,20.96,6.217c5.181,5.215,7.772,14.433,7.771,27.614
			c0,12.403-1.806,25.127-5.416,38.177c-3.614,13.054-9.737,24.515-18.37,34.428c-8.637,9.917-20.018,15.768-34.149,17.649
			c-10.05,1.343-16.721-0.556-20.019-5.752c-4.082,19.723-8.164,39.454-12.246,59.193c-11.854,4.52-23.708,9.102-35.562,13.736
			C821.597,144.195,834.707,80.479,847.817,16.836z M887.735,108.217c4.946-7.707,8.556-16.595,10.833-26.697
			c2.275-10.095,3.415-19.383,3.415-27.864c0-13.026-3.927-19.067-11.775-18.06c-2.826,0.365-5.693,1.762-8.596,4.178
			c-2.907,2.422-5.457,5.59-7.654,9.492c-4.632,22.6-9.264,45.211-13.896,67.832c1.255,3.437,4.239,4.829,8.95,4.193
			C876.549,120.272,882.79,115.919,887.735,108.217z"/>
		<path class="st0" d="M947.905,127.829c-5.181-2.351-9.027-5.689-11.54-10.045c-2.509-4.354-3.768-9.037-3.768-14.062
			c0-5.183,1.218-9.831,3.65-13.951c2.436-4.118,5.376-7.228,8.832-9.329c6.123-11.651,11.459-23.311,16.015-35
			c4.552-11.687,8.868-24.24,12.953-37.664c11.618-2.683,23.237-5.277,34.855-7.778c0.783,20.039,2.12,41.671,4.003,64.919
			c0.784,9.358,1.178,16.166,1.178,20.398c0,9.583-2.436,17.616-7.301,24.129c-4.869,6.52-10.874,11.421-18.017,14.724
			c-7.147,3.304-14.407,5.327-21.785,6.054C959.446,130.971,953.086,130.185,947.905,127.829z M974.047,105.751
			c3.922-3.822,5.887-9.583,5.888-17.278c0-4.709-0.472-11.263-1.413-19.65c-1.571-17.753-2.591-29.665-3.062-35.743
			c-3.768,12.764-10.127,28.212-19.077,46.404c3.61,1.513,5.417,4.078,5.417,7.69c0,2.983-0.982,5.749-2.944,8.307
			c-1.965,2.552-4.438,3.992-7.418,4.302c-3.297,0.351-5.417-0.446-6.359-2.384c0,5.652,1.137,9.694,3.415,12.116
			c2.275,2.433,5.925,3.376,10.952,2.861C965.252,111.786,970.12,109.582,974.047,105.751z"/>
		<path class="st0" d="M307.216,457.994c-4.632-4.055-6.948-10.8-6.948-20.215c0-3.921,0.63-9.12,1.884-15.573
			c5.338-25.949,10.676-51.913,16.015-77.887c11.304-1.642,22.609-3.337,33.914-5.081c-5.652,27.563-11.305,55.114-16.957,82.652
			c-0.63,2.448-0.942,5.011-0.942,7.677c0,3.14,0.743,5.273,2.237,6.376c1.491,1.109,3.964,1.407,7.418,0.881
			c4.552-0.695,8.792-3.26,12.718-7.725c3.921-4.454,6.748-9.886,8.478-16.28c3.297-0.519,6.594-1.04,9.892-1.567
			c-5.811,17.885-13.27,30.567-22.374,38.013c-9.107,7.448-18.134,11.834-27.083,13.153
			C317.933,463.533,311.845,462.045,307.216,457.994z M328.294,324.699c-3.614-3.073-5.417-7.213-5.417-12.391
			c0-5.186,1.803-9.878,5.417-14.104c3.611-4.225,8.007-6.723,13.189-7.51c5.182-0.784,9.615,0.384,13.306,3.496
			c3.688,3.117,5.534,7.264,5.535,12.446c-0.001,5.179-1.847,9.871-5.535,14.049c-3.691,4.185-8.125,6.673-13.306,7.455
			C336.302,328.928,331.904,327.777,328.294,324.699z"/>
		<path class="st0" d="M427.914,438.549c-3.768-4.385-5.652-10.425-5.652-18.12c0-3.299,0.39-7.094,1.177-11.386
			c0.784-4.295,1.608-8.474,2.473-12.546c0.86-4.066,1.45-6.686,1.766-7.836c1.255-5.707,2.432-11.319,3.533-16.85
			c1.097-5.524,1.648-9.935,1.649-13.234c0-8.01-2.826-11.53-8.478-10.571c-4.085,0.687-7.695,3.301-10.833,7.828
			c-3.142,4.533-5.652,10.165-7.537,16.917c-5.338,26.085-10.676,52.162-16.015,78.23c-11.304,1.84-22.609,3.64-33.913,5.394
			c8.321-40.543,16.643-81.11,24.964-121.701c11.305-1.818,22.609-3.677,33.914-5.571c-0.864,4.228-1.727,8.454-2.591,12.68
			c7.849-10.102,17.034-16.048,27.555-17.855c8.008-1.37,14.366-0.277,19.076,3.296c4.71,3.578,7.066,9.834,7.065,18.784
			c0,4.559-0.552,9.713-1.648,15.479c-1.1,5.765-2.672,12.829-4.711,21.193c-1.258,5.086-2.396,10.034-3.415,14.843
			c-1.023,4.807-1.53,8.554-1.531,11.217c0,3.144,0.707,5.449,2.12,6.933c1.414,1.481,3.845,1.924,7.301,1.317
			c3.768-0.662,6.359-1.586,7.772-2.776c-0.943,8.174-3.808,14.724-8.596,19.642c-4.791,4.922-10.561,7.966-17.31,9.129
			C437.724,444.417,431.682,442.934,427.914,438.549z"/>
		<path class="st0" d="M549.788,463.031c-6.988-4.621-10.481-11.723-10.48-21.298c0-5.965,1.413-11.715,4.239-17.253
			c2.826-5.537,6.671-10.193,11.54-13.987c4.864-3.789,10.205-6.211,16.015-7.266c5.965-1.083,10.794-0.469,14.484,1.841
			c3.688,2.314,5.535,5.907,5.535,10.769c0,3.771-0.865,6.909-2.591,9.421c-1.413-1.625-3.338-2.769-5.77-3.426
			c-2.436-0.659-4.987-0.74-7.654-0.256c-4.71,0.859-8.56,3.119-11.54,6.808c-2.985,3.684-4.474,8.034-4.475,13.061
			c0,5.022,1.45,8.839,4.357,11.454c2.903,2.613,6.553,3.521,10.951,2.719c5.493-0.999,10.204-4.294,14.13-9.87
			c3.923-5.585,6.907-13.349,8.949-23.292c3.925-18.062,7.85-36.124,11.775-54.185c-0.314,0.057-0.628,0.114-0.942,0.171
			c-4.239,6.738-9.383,12.222-15.426,16.459c-6.046,4.241-12.681,7.017-19.9,8.328c-9.108,1.659-17.116,0.676-24.022-2.937
			c-6.911-3.609-12.209-9.6-15.897-17.962c-3.691-8.359-5.535-18.505-5.535-30.442c0-17.266,3.768-33.684,11.305-49.263
			c7.537-15.574,17.899-28.64,31.087-39.202c13.189-10.558,27.71-17.288,43.569-20.161c13.343-2.412,23.905-1.413,31.676,3.003
			c7.772,4.413,11.658,11.659,11.658,21.702c0,6.752-1.648,12.467-4.946,17.133c-3.297,4.674-7.618,7.49-12.953,8.445
			c-2.984,0.537-5.77,0.414-8.36-0.378c-2.591-0.789-4.751-2.207-6.477-4.249c2.827-2.391,5.217-5.847,7.183-10.363
			c1.962-4.512,2.944-8.885,2.944-13.13c0-4.711-1.377-8.117-4.122-10.208c-2.749-2.096-6.635-2.693-11.658-1.78
			c-9.108,1.644-17.899,7.286-26.377,16.913c-8.479,9.628-15.308,21.429-20.489,35.4c-5.182,13.978-7.772,28.106-7.772,42.392
			c0,11.778,1.885,20.422,5.652,25.938c3.769,5.524,9.184,7.63,16.25,6.348c8.478-1.544,15.974-7.379,22.491-17.508
			c6.513-10.138,11.735-24.104,15.661-41.93c9.263-1.595,18.527-3.183,27.79-4.761c-5.731,27.401-11.461,54.808-17.193,82.217
			c-5.026,24.296-12.129,42.77-21.313,55.426c-9.185,12.65-21.078,20.312-35.68,22.965
			C565.997,468.922,556.773,467.652,549.788,463.031z"/>
		<path class="st0" d="M675.194,282.73c11.304-1.997,22.609-3.972,33.914-5.92c-1.021,5.043-2.041,10.086-3.062,15.13
			c5.336-5.635,10.164-10.068,14.484-13.32c4.316-3.249,8.986-5.297,14.013-6.144c5.023-0.844,8.986,0.224,11.893,3.192
			c2.903,2.972,4.357,6.895,4.357,11.759c0,4.56-1.494,8.81-4.475,12.753c-2.985,3.953-7.147,6.371-12.482,7.27
			c-3.456,0.581-5.77,0.151-6.948-1.298c-1.177-1.453-2.083-3.688-2.708-6.724c-0.471-1.956-0.942-3.371-1.413-4.234
			c-0.471-0.865-1.336-1.188-2.59-0.972c-3.298,0.562-6.086,1.708-8.361,3.434c-2.278,1.724-5.222,4.551-8.832,8.472
			c-6.28,30.919-12.56,61.846-18.841,92.78c-11.304,1.985-22.609,3.993-33.913,6.015
			C658.551,364.183,666.873,323.451,675.194,282.73z"/>
		<path class="st0" d="M754.558,378.891c-6.752-4.849-10.127-13.712-10.127-26.583c0-10.679,2.2-22.896,6.595-36.656
			c4.394-13.757,11.459-26.185,21.196-37.255c9.733-11.064,21.98-17.758,36.739-20.012c20.095-3.052,30.145,8.094,30.145,33.205
			c0,0.078,0,0.158,0,0.235c0.471,0.086,1.332,0.046,2.59-0.138c5.181-0.741,11.146-2.966,17.899-6.644
			c6.748-3.677,12.872-7.838,18.37-12.497c0.707,2.025,1.413,4.052,2.12,6.078c-4.556,5.468-10.48,10.383-17.781,14.758
			c-7.3,4.384-15.271,7.892-23.904,10.555c-1.259,14.469-4.475,27.415-9.656,38.855c-5.181,11.44-11.857,20.679-20.018,27.73
			c-8.165,7.059-17.037,11.344-26.613,12.859C770.492,385.23,761.308,383.751,754.558,378.891z M802.838,352.466
			c3.768-4.901,7.064-11.293,9.891-19.174c2.826-7.882,4.865-16.473,6.124-25.77c-4.239-0.306-6.359-3.277-6.359-8.932
			c0-6.434,2.433-11.047,7.301-13.817c-0.316-5.132-1.1-8.588-2.355-10.363c-1.259-1.771-3.455-2.427-6.594-1.947
			c-5.181,0.793-10.208,5.33-15.073,13.624c-4.868,8.292-8.795,17.945-11.775,28.934c-2.985,10.994-4.474,20.492-4.475,28.501
			c0,7.538,0.86,12.46,2.59,14.778c1.727,2.315,4.864,3.111,9.421,2.399C795.302,360.111,799.07,357.362,802.838,352.466z"/>
		<path class="st0" d="M856.18,365.707c-4.633-4.063-6.948-10.797-6.948-20.22c0-3.922,0.629-9.115,1.884-15.574
			c5.338-25.951,10.676-51.89,16.015-77.815c11.305-1.536,22.609-3.012,33.914-4.42c-5.652,27.396-11.305,54.807-16.957,82.235
			c-0.471,2.417-0.706,4.646-0.706,6.687c0,6.438,2.356,9.346,7.065,8.741c4.393-0.562,8.163-2.877,11.305-6.961
			c3.139-4.077,5.652-9.449,7.536-16.117c5.338-25.849,10.677-51.682,16.015-77.499c11.305-1.307,22.609-2.542,33.914-3.696
			c-5.652,27.268-11.305,54.556-16.957,81.864c-0.629,2.426-0.941,4.968-0.942,7.639c0,3.143,0.744,5.298,2.237,6.468
			c1.49,1.175,3.963,1.575,7.418,1.208c4.394-0.462,8.203-2.738,11.422-6.831c3.217-4.09,5.77-9.362,7.654-15.832
			c3.297-0.322,6.594-0.637,9.892-0.944c-5.811,17.493-12.993,29.698-21.549,36.612c-8.559,6.921-17.155,10.872-25.788,11.845
			c-6.753,0.761-12.128-0.492-16.132-3.783c-4.004-3.288-6.4-8.574-7.183-15.856c-5.339,9.284-10.952,15.873-16.839,19.761
			c-5.888,3.892-11.894,6.248-18.017,7.063C866.895,371.287,860.809,369.775,856.18,365.707z"/>
		<path class="st0" d="M987.945,229.595c11.304-1.014,22.609-1.942,33.913-2.776c-1.256,5.98-2.512,11.962-3.768,17.944
			c7.849-7.345,17.034-11.372,27.555-12.025c8.791-0.544,15.779,1.983,20.96,7.529c5.181,5.55,7.771,14.924,7.771,28.117
			c0,12.402-1.807,25.016-5.417,37.825c-3.614,12.821-9.736,23.887-18.37,33.268c-8.637,9.384-20.018,14.552-34.149,15.631
			c-10.05,0.771-16.721-1.479-20.019-6.854c-4.082,19.505-8.164,39.021-12.246,58.55c-11.854,3.909-23.708,7.911-35.562,12
			C961.725,355.626,974.835,292.552,987.945,229.595z M1027.864,323.18c4.946-7.422,8.556-16.088,10.833-26.057
			c2.274-9.958,3.415-19.179,3.415-27.658c0-13.033-3.926-19.306-11.775-18.761c-2.826,0.198-5.693,1.426-8.596,3.679
			c-2.907,2.256-5.457,5.283-7.654,9.058c-4.632,22.34-9.264,44.696-13.896,67.066c1.255,3.51,4.24,5.056,8.95,4.683
			C1016.677,334.589,1022.919,330.591,1027.864,323.18z"/>
		<path class="st0" d="M1088.034,346.573c-5.181-2.702-9.027-6.293-11.54-10.813c-2.51-4.515-3.768-9.28-3.768-14.308
			c0-5.176,1.218-9.752,3.65-13.712c2.436-3.955,5.376-6.87,8.832-8.743c6.123-11.234,11.459-22.541,16.015-33.907
			c4.551-11.369,8.869-23.623,12.953-36.75c11.619-1.852,23.237-3.586,34.855-5.195c0.784,20.099,2.119,41.838,4.003,65.229
			c0.784,9.42,1.178,16.245,1.178,20.489c0,9.578-2.436,17.427-7.301,23.567c-4.869,6.151-10.874,10.592-18.017,13.371
			c-7.147,2.78-14.407,4.276-21.785,4.485C1099.574,350.494,1093.215,349.278,1088.034,346.573z M1114.175,326.311
			c3.923-3.547,5.888-9.16,5.888-16.855c0-4.712-0.471-11.294-1.413-19.752c-1.571-17.865-2.591-29.849-3.062-35.964
			c-3.768,12.497-10.127,27.491-19.077,45.065c3.609,1.76,5.417,4.454,5.417,8.064c0,2.984-0.982,5.681-2.944,8.103
			c-1.965,2.418-4.438,3.684-7.418,3.794c-3.297,0.123-5.417-0.813-6.359-2.813c0,5.653,1.137,9.771,3.415,12.345
			c2.275,2.58,5.925,3.776,10.952,3.611C1105.38,331.716,1110.249,329.86,1114.175,326.311z"/>
	</g>
</g>
</svg>