<!-- Generator: Adobe Illustrator 21.1.0, SVG Export Plug-In  -->
<svg version="1.1"
	 xmlns="http://www.w3.org/2000/svg" xmlns:xlink="http://www.w3.org/1999/xlink" xmlns:a="http://ns.adobe.com/AdobeSVGViewerExtensions/3.0/"
	 x="0px" y="0px" width="11.715px" height="63.513px" viewBox="0 0 11.715 63.513"
	 style="enable-background:new 0 0 11.715 63.513;" xml:space="preserve">
<defs>
</defs>
<g>
	<g>
		<g>
			<rect x="9.976" y="0.005" transform="matrix(1 -0.0079 0.0079 1 -0.1231 0.0849)" width="1.481" height="31.342"/>
		</g>
	</g>
	<g>
		<ellipse transform="matrix(0.781 -0.6245 0.6245 0.781 -18.6616 10.6673)" cx="5.88" cy="31.944" rx="6.514" ry="4.571"/>
	</g>
</g>
<g>
	<path d="M3.24,53.324c0.602,0.073,1.112,0.278,1.531,0.615c0.419,0.337,0.688,0.766,0.807,1.285
		c0.127,0.009,0.26,0.016,0.396,0.021s0.269,0.002,0.396-0.007c0.164-0.009,0.305-0.014,0.424-0.014c0.118,0,0.219,0,0.301,0v-2.242
		c0-0.301-0.096-0.54-0.287-0.718s-0.556-0.337-1.094-0.478l0.15-0.377c0.456,0.055,0.856,0.114,1.203,0.178
		c0.346,0.063,0.697,0.142,1.053,0.232c-0.037,0.165-0.068,0.354-0.096,0.569s-0.041,0.414-0.041,0.598v4.671
		c0,0.574-0.032,1.114-0.096,1.62c-0.064,0.506-0.128,0.918-0.191,1.237l-0.533,0.068c-0.009-0.082-0.019-0.2-0.027-0.355
		c-0.009-0.155-0.016-0.328-0.021-0.52c-0.005-0.191-0.009-0.388-0.014-0.588c-0.005-0.2-0.007-0.383-0.007-0.547v-2.871
		c-0.501,0.027-0.989,0.096-1.463,0.204c-0.019,0.326-0.103,0.626-0.253,0.897s-0.351,0.51-0.602,0.714
		c-0.251,0.204-0.542,0.362-0.875,0.476c-0.333,0.113-0.69,0.17-1.073,0.17c-0.41,0-0.786-0.062-1.128-0.185
		s-0.641-0.294-0.896-0.513c-0.255-0.219-0.454-0.474-0.595-0.766C0.07,56.409,0,56.09,0,55.744c0-0.337,0.066-0.649,0.198-0.937
		c0.132-0.287,0.316-0.54,0.554-0.759c0.237-0.219,0.515-0.395,0.834-0.526c0.319-0.132,0.67-0.207,1.053-0.226
		c-0.019-0.109-0.066-0.198-0.144-0.267c-0.078-0.068-0.212-0.135-0.403-0.198l0.109-0.273c0.2,0.046,0.396,0.084,0.588,0.116
		s0.396,0.07,0.615,0.116C3.331,52.963,3.276,53.141,3.24,53.324z M4.785,55.689c0-0.273-0.048-0.528-0.144-0.766
		s-0.23-0.444-0.403-0.622c-0.173-0.178-0.378-0.316-0.615-0.417c-0.237-0.101-0.492-0.15-0.766-0.15s-0.529,0.05-0.766,0.15
		c-0.237,0.101-0.442,0.239-0.615,0.417c-0.173,0.178-0.31,0.385-0.41,0.622c-0.101,0.237-0.15,0.492-0.15,0.766
		s0.05,0.526,0.15,0.759c0.1,0.232,0.237,0.433,0.41,0.602c0.173,0.169,0.378,0.303,0.615,0.403c0.237,0.101,0.492,0.15,0.766,0.15
		s0.528-0.05,0.766-0.15c0.237-0.101,0.442-0.234,0.615-0.403c0.173-0.169,0.308-0.369,0.403-0.602S4.785,55.962,4.785,55.689z
		 M11.02,63.386c-0.574-0.019-1.167-0.027-1.777-0.027c-0.611,0-1.21,0.007-1.798,0.021s-1.148,0.032-1.682,0.055
		s-1.005,0.048-1.415,0.075c-0.246,0.019-0.426-0.034-0.54-0.157c-0.114-0.123-0.171-0.275-0.171-0.458v-1.695
		c0-0.219-0.012-0.395-0.034-0.526c-0.023-0.132-0.075-0.241-0.157-0.328s-0.201-0.157-0.355-0.212
		c-0.155-0.055-0.369-0.118-0.643-0.191l0.15-0.355c0.137,0.019,0.294,0.036,0.472,0.055s0.357,0.039,0.54,0.062
		c0.182,0.022,0.364,0.046,0.547,0.068c0.182,0.022,0.342,0.048,0.479,0.075c-0.019,0.109-0.034,0.262-0.048,0.458
		s-0.021,0.376-0.021,0.54v1.613c0,0.2,0.045,0.33,0.137,0.39c0.091,0.06,0.269,0.094,0.533,0.103
		c0.346,0.009,0.77,0.002,1.271-0.021c0.501-0.022,1.025-0.053,1.572-0.089s1.089-0.082,1.627-0.137
		c0.538-0.055,1.025-0.114,1.463-0.178L11.02,63.386z M8.121,50.794c0.446,0.063,0.873,0.137,1.278,0.219
		c0.405,0.082,0.786,0.159,1.142,0.232c-0.037,0.164-0.068,0.351-0.096,0.561s-0.041,0.405-0.041,0.588v5.141
		c0,0.574-0.027,1.155-0.082,1.743s-0.123,1.114-0.205,1.579l-0.561,0.082c-0.009-0.155-0.019-0.34-0.027-0.554
		c-0.009-0.214-0.016-0.431-0.021-0.649C9.504,59.517,9.5,59.3,9.495,59.086c-0.005-0.214-0.007-0.398-0.007-0.554v-6.139
		c0-0.301-0.109-0.542-0.328-0.725s-0.615-0.349-1.189-0.498L8.121,50.794z"/>
</g>
</svg>